<svg id="1df0ea83-52fd-472e-aa99-0ca206250a98" data-name="Fond" xmlns="http://www.w3.org/2000/svg" xmlns:xlink="http://www.w3.org/1999/xlink" width="311.6759" height="412.54" viewBox="0 0 311.6759 412.54"><defs><style>.\34 edc408d-95c7-4f11-92f5-741941dfca13{fill:#ff5959;}.\30 7cf8334-cc71-46df-a8a6-0b04e090b456{isolation:isolate;}.ea27fa0c-6dc2-4d45-9009-78f995b2bbdc{fill:#ffd9d9;}.b1f1300d-4f95-4265-a73d-a7c9e737d6da{clip-path:url(#a2a8a7ae-c88b-4ebc-b79f-3405e92fdc3c);}.\36 d26eb36-b4bf-4855-b02d-b9d2b508b595{clip-path:url(#36d6b132-5386-4b4d-8c55-d926eca17f0c);}.e7efcf88-0707-418e-b809-14c6c30aeea1{clip-path:url(#1ba6a2cc-d164-4980-8cfa-a53f3fb76312);}.c394fd78-75ff-45ff-904a-f80cc74fa3ce{fill:#086ba5;}.\35 9ba7bce-52ec-43ff-bf8e-cd8d2d11e502{fill:#dcede9;}.\38 206460d-1176-49e5-96c5-b8719fbeaf81{fill:#007d5e;}.f1d798a4-4d93-46fc-b7fc-6d272a115780{clip-path:url(#c9500d02-d66b-4f8e-8211-6c746d51e2ee);}.f20ea4a1-3e4b-412b-9224-2da1a3af9f75{clip-path:url(#e8512242-6403-4293-8ccb-8ed1a56f335a);}.\31 a06890b-a0e2-4142-8265-45259719c2a3{clip-path:url(#bb6836bb-a4f7-4a5e-8bf0-9118498a8c22);}.\35 b31dacc-4630-410b-85da-5a02b65c0826{fill:#fff;}.fad6495d-7d9b-45ac-bf22-d0e3c834986d{fill:#345d74;}.d7a68661-a2c9-43ad-8a1e-27048e66aadd{fill:#66b19e;}.\30 b4a898e-08bf-415d-b1af-7f2a814fcb4f{fill:#00b085;}.\34 bdaf5f9-e16a-45fa-9d52-e89f75fd047e,.bbd15156-7298-4ce0-9c45-558b124d24e9{fill:none;stroke:#66b19e;stroke-miterlimit:10;stroke-width:0.75px;}.bbd15156-7298-4ce0-9c45-558b124d24e9{stroke-dasharray:1 0.5;}</style><clipPath id="a2a8a7ae-c88b-4ebc-b79f-3405e92fdc3c"><path class="4edc408d-95c7-4f11-92f5-741941dfca13" d="M60.0343,67.4734,84.9555,52.9908a4.0683,4.0683,0,0,1,4.0974.364q.2379.1373.4768.2992A13.284,13.284,0,0,1,94.4162,60.86L69.495,75.3426a13.2847,13.2847,0,0,0-4.8865-7.206q-.2393-.1622-.4768-.2992A4.0686,4.0686,0,0,0,60.0343,67.4734Z"/></clipPath><clipPath id="36d6b132-5386-4b4d-8c55-d926eca17f0c"><path class="4edc408d-95c7-4f11-92f5-741941dfca13" d="M76.38,73.1736,101.3009,58.691c1.3915-.8086,3.3142-.7025,5.4214.5141L81.8011,73.6877C79.6939,72.4711,77.7712,72.365,76.38,73.1736Z"/></clipPath><clipPath id="1ba6a2cc-d164-4980-8cfa-a53f3fb76312"><path class="4edc408d-95c7-4f11-92f5-741941dfca13" d="M81.8011,73.6877l24.9212-14.4826c4.1793,2.4129,7.6081,8.3421,7.603,13.1493L89.4041,86.8371C89.4092,82.03,85.98,76.1006,81.8011,73.6877Z"/></clipPath><clipPath id="c9500d02-d66b-4f8e-8211-6c746d51e2ee"><path class="4edc408d-95c7-4f11-92f5-741941dfca13" d="M164.7855,296.11l28.3929-16.5c1.98-1.1507,4.7054-.9938,7.6591.7115l-28.393,16.5C169.4908,295.1163,166.7655,294.9594,164.7855,296.11Z"/></clipPath><clipPath id="e8512242-6403-4293-8ccb-8ed1a56f335a"><path class="4edc408d-95c7-4f11-92f5-741941dfca13" d="M172.4445,296.8216l28.393-16.5c.0544.0314.11.0638.1643.0963,5.648,3.3616,10.3538,11.336,10.594,18.0684l-28.3929,16.5c-.24-6.7324-4.946-14.7069-10.594-18.0684C172.5543,296.8854,172.499,296.853,172.4445,296.8216Z"/></clipPath><clipPath id="bb6836bb-a4f7-4a5e-8bf0-9118498a8c22"><path class="4edc408d-95c7-4f11-92f5-741941dfca13" d="M191.604,314.2709l28.3929-16.5c1.3992-.8131,3.2833-.752,5.3248.32q.1794.0941.3573.1968c3.9951,2.3068,7.5272,7.8921,8.03,12.9661l-28.393,16.5c-.5026-5.074-4.0347-10.6593-8.03-12.9661q-.178-.1029-.3572-.1968C194.8872,313.5188,193.0031,313.4578,191.604,314.2709Z"/></clipPath></defs><title>220624-Dessins</title><g class="07cf8334-cc71-46df-a8a6-0b04e090b456"><polygon class="ea27fa0c-6dc2-4d45-9009-78f995b2bbdc" points="52.718 65.657 77.64 51.174 83.6 54.615 58.678 69.098 52.718 65.657"/><path class="4edc408d-95c7-4f11-92f5-741941dfca13" d="M60.0343,67.4734,84.9555,52.9908a4.0683,4.0683,0,0,1,4.0974.364q.2379.1373.4768.2992A13.284,13.284,0,0,1,94.4162,60.86L69.495,75.3426a13.2847,13.2847,0,0,0-4.8865-7.206q-.2393-.1622-.4768-.2992A4.0686,4.0686,0,0,0,60.0343,67.4734Z"/><g class="b1f1300d-4f95-4265-a73d-a7c9e737d6da"><g class="07cf8334-cc71-46df-a8a6-0b04e090b456"><path class="4edc408d-95c7-4f11-92f5-741941dfca13" d="M60.0343,67.4734,84.9555,52.9908a2.8646,2.8646,0,0,1,.4913-.2262L60.5256,67.2472a2.8722,2.8722,0,0,0-.4913.2262"/><path class="4edc408d-95c7-4f11-92f5-741941dfca13" d="M60.5256,67.2472,85.4468,52.7646a3.0143,3.0143,0,0,1,.4128-.1125L60.9384,67.1347a3.0143,3.0143,0,0,0-.4128.1125"/><path class="4edc408d-95c7-4f11-92f5-741941dfca13" d="M60.9384,67.1347,85.86,52.6521a3.231,3.231,0,0,1,.3378-.0485L61.2762,67.0862a3.231,3.231,0,0,0-.3378.0485"/><path class="4edc408d-95c7-4f11-92f5-741941dfca13" d="M61.2762,67.0862,86.1974,52.6036q.1482-.0135.301-.0141L61.5772,67.0721q-.1527.0006-.301.0141"/><path class="4edc408d-95c7-4f11-92f5-741941dfca13" d="M61.5772,67.0721,86.4984,52.59q.1371-.0006.2776.0091L61.8548,67.0813q-.14-.01-.2776-.0092"/><path class="4edc408d-95c7-4f11-92f5-741941dfca13" d="M61.8548,67.0813,86.776,52.5986q.13.009.2621.027L62.1169,67.1082q-.1323-.018-.2621-.0269"/><path class="4edc408d-95c7-4f11-92f5-741941dfca13" d="M62.1169,67.1082,87.0381,52.6256q.1229.0165.2477.0409L62.3646,67.1491q-.1248-.0243-.2477-.0409"/><path class="4edc408d-95c7-4f11-92f5-741941dfca13" d="M62.3646,67.1491,87.2858,52.6665q.1185.023.2387.053L62.6033,67.2021q-.12-.03-.2387-.053"/><path class="4edc408d-95c7-4f11-92f5-741941dfca13" d="M62.6033,67.2021,87.5245,52.72q.1162.0291.2339.0645L62.8372,67.2667q-.1176-.0356-.2339-.0646"/><path class="4edc408d-95c7-4f11-92f5-741941dfca13" d="M62.8372,67.2667,87.7584,52.784q.114.0345.2291.075L63.0663,67.3416q-.115-.0405-.2291-.0749"/><path class="4edc408d-95c7-4f11-92f5-741941dfca13" d="M63.0663,67.3416,87.9875,52.859q.1116.0393.2242.0844L63.2905,67.426q-.1125-.0452-.2242-.0844"/><path class="4edc408d-95c7-4f11-92f5-741941dfca13" d="M63.2905,67.426,88.2117,52.9434q.1113.0446.2236.0948L63.5141,67.5208q-.1122-.05-.2236-.0948"/><path class="4edc408d-95c7-4f11-92f5-741941dfca13" d="M63.5141,67.5208,88.4353,53.0382q.1109.05.2223.1047L63.7364,67.6256q-.1115-.0552-.2223-.1048"/><path class="4edc408d-95c7-4f11-92f5-741941dfca13" d="M63.7364,67.6256,88.6576,53.1429q.1113.0551.2231.1156L63.96,67.7411q-.1118-.0606-.2231-.1155"/><path class="4edc408d-95c7-4f11-92f5-741941dfca13" d="M63.96,67.7411,88.8807,53.2585q.0859.0465.1722.0963l.0522.03L64.1839,67.8678l-.0522-.03q-.0862-.05-.1722-.0963"/><path class="4edc408d-95c7-4f11-92f5-741941dfca13" d="M64.1839,67.8678,89.1051,53.3852q.1133.0666.2269.1389L64.4108,68.0067q-.1137-.0723-.2269-.1389"/><path class="4edc408d-95c7-4f11-92f5-741941dfca13" d="M64.4108,68.0067,89.332,53.5241q.0987.0627.1977.13l.0387.0263L64.6472,68.1629l-.0387-.0263q-.099-.0672-.1977-.13"/><path class="4edc408d-95c7-4f11-92f5-741941dfca13" d="M64.6472,68.1629,89.5684,53.68q.1188.0814.2365.1681L64.8837,68.331q-.1178-.0867-.2365-.1681"/><path class="4edc408d-95c7-4f11-92f5-741941dfca13" d="M64.8837,68.331,89.8049,53.8484q.1218.09.2424.1848L65.1261,68.5159q-.12-.0951-.2424-.1849"/><path class="4edc408d-95c7-4f11-92f5-741941dfca13" d="M65.1261,68.5159,90.0473,54.0332q.1238.0977.2459.2008L65.372,68.7166q-.1221-.103-.2459-.2007"/><path class="4edc408d-95c7-4f11-92f5-741941dfca13" d="M65.372,68.7166,90.2932,54.234q.1248.1053.2477.2161L65.62,68.9327q-.1228-.1107-.2477-.2161"/><path class="4edc408d-95c7-4f11-92f5-741941dfca13" d="M65.62,68.9327,90.5409,54.45q.1242.1119.2464.2292L65.8661,69.1619q-.1221-.1172-.2464-.2292"/><path class="4edc408d-95c7-4f11-92f5-741941dfca13" d="M65.8661,69.1619,90.7873,54.6793q.12.1155.2387.2361L66.1048,69.398q-.1182-.12-.2387-.2361"/><path class="4edc408d-95c7-4f11-92f5-741941dfca13" d="M66.1048,69.398,91.026,54.9154q.116.1181.23.2408L66.3346,69.6388q-.1138-.1227-.23-.2408"/><path class="4edc408d-95c7-4f11-92f5-741941dfca13" d="M66.3346,69.6388,91.2558,55.1562q.1125.1213.2228.2469L66.5574,69.8857q-.11-.1255-.2228-.2469"/><path class="4edc408d-95c7-4f11-92f5-741941dfca13" d="M66.5574,69.8857,91.4786,55.4031q.11.1253.2177.2547L66.7751,70.1405q-.1077-.1295-.2177-.2548"/><path class="4edc408d-95c7-4f11-92f5-741941dfca13" d="M66.7751,70.1405,91.6963,55.6578q.1124.1352.222.2743L66.9971,70.4147q-.11-.1392-.222-.2742"/><path class="4edc408d-95c7-4f11-92f5-741941dfca13" d="M66.9971,70.4147,91.9183,55.9321q.1254.1593.2471.3237L67.2442,70.7384q-.1217-.1644-.2471-.3237"/><path class="4edc408d-95c7-4f11-92f5-741941dfca13" d="M67.2442,70.7384,92.1654,56.2558q.1656.2239.3236.4567L67.5678,71.1952q-.1579-.2327-.3236-.4568"/><path class="4edc408d-95c7-4f11-92f5-741941dfca13" d="M67.5678,71.1952,92.489,56.7125q.2718.4005.519.8238L68.0868,72.0189q-.2467-.4226-.519-.8237"/><path class="4edc408d-95c7-4f11-92f5-741941dfca13" d="M68.0868,72.0189,93.008,57.5363q.1411.242.2734.49L68.36,72.509q-.1322-.2481-.2734-.49"/><path class="4edc408d-95c7-4f11-92f5-741941dfca13" d="M68.36,72.509,93.2814,58.0263q.0934.1755.1823.3538L68.5425,72.8627q-.0888-.1782-.1823-.3537"/><path class="4edc408d-95c7-4f11-92f5-741941dfca13" d="M68.5425,72.8627,93.4637,58.38q.0762.153.1488.308L68.6913,73.1707q-.0726-.1549-.1488-.308"/><path class="4edc408d-95c7-4f11-92f5-741941dfca13" d="M68.6913,73.1707,93.6125,58.6881q.0673.1435.1315.2887L68.8228,73.4594q-.0642-.145-.1315-.2887"/><path class="4edc408d-95c7-4f11-92f5-741941dfca13" d="M68.8228,73.4594,93.744,58.9768q.0634.1436.1236.2884L68.9464,73.7478q-.06-.1447-.1236-.2884"/><path class="4edc408d-95c7-4f11-92f5-741941dfca13" d="M68.9464,73.7478,93.8676,59.2652q.06.1443.1165.29L69.0629,74.0376q-.0566-.1455-.1165-.29"/><path class="4edc408d-95c7-4f11-92f5-741941dfca13" d="M69.0629,74.0376,93.9841,59.5549q.0584.15.1131.3008L69.176,74.3383q-.0547-.1509-.1131-.3007"/><path class="4edc408d-95c7-4f11-92f5-741941dfca13" d="M69.176,74.3383,94.0972,59.8557q.056.1543.1079.3095L69.2839,74.6479q-.052-.1553-.1079-.31"/><path class="4edc408d-95c7-4f11-92f5-741941dfca13" d="M69.2839,74.6479,94.2051,60.1652q.0531.1587.102.3182L69.3859,74.966q-.0489-.1594-.102-.3181"/><path class="4edc408d-95c7-4f11-92f5-741941dfca13" d="M69.3859,74.966,94.3071,60.4834q.05.1628.0952.3261L69.4811,75.2921q-.0453-.1634-.0952-.3261"/><path class="4edc408d-95c7-4f11-92f5-741941dfca13" d="M69.4811,75.2921,94.4023,60.81l.0139.05L69.495,75.3426l-.0139-.05"/></g></g><polygon class="ea27fa0c-6dc2-4d45-9009-78f995b2bbdc" points="69.495 75.343 94.416 60.86 99.067 63.545 74.146 78.028 69.495 75.343"/><path class="4edc408d-95c7-4f11-92f5-741941dfca13" d="M76.38,73.1736,101.3009,58.691c1.3915-.8086,3.3142-.7025,5.4214.5141L81.8011,73.6877C79.6939,72.4711,77.7712,72.365,76.38,73.1736Z"/><g class="6d26eb36-b4bf-4855-b02d-b9d2b508b595"><g class="07cf8334-cc71-46df-a8a6-0b04e090b456"><path class="4edc408d-95c7-4f11-92f5-741941dfca13" d="M76.38,73.1736,101.3009,58.691a3.7112,3.7112,0,0,1,.6251-.289L77.0048,72.8846a3.7191,3.7191,0,0,0-.6251.289"/><path class="4edc408d-95c7-4f11-92f5-741941dfca13" d="M77.0048,72.8846,101.926,58.402a3.904,3.904,0,0,1,.5384-.1481L77.5432,72.7365a3.9182,3.9182,0,0,0-.5384.1481"/><path class="4edc408d-95c7-4f11-92f5-741941dfca13" d="M77.5432,72.7365l24.9212-14.4826a4.2021,4.2021,0,0,1,.443-.0643L77.9862,72.6722a4.2021,4.2021,0,0,0-.443.0643"/><path class="4edc408d-95c7-4f11-92f5-741941dfca13" d="M77.9862,72.6722,102.9074,58.19q.1953-.018.3975-.0189L78.3837,72.6534q-.2022.0007-.3975.0188"/><path class="4edc408d-95c7-4f11-92f5-741941dfca13" d="M78.3837,72.6534l24.9212-14.4827q.1779-.0007.3608.0119L78.7445,72.6652q-.1828-.0126-.3608-.0118"/><path class="4edc408d-95c7-4f11-92f5-741941dfca13" d="M78.7445,72.6652l24.9212-14.4826q.1675.0117.3392.0346L79.0837,72.7q-.1716-.0231-.3392-.0347"/><path class="4edc408d-95c7-4f11-92f5-741941dfca13" d="M79.0837,72.7l24.9212-14.4827q.165.0222.3334.055L79.4171,72.7548q-.1685-.0329-.3334-.0549"/><path class="4edc408d-95c7-4f11-92f5-741941dfca13" d="M79.4171,72.7548l24.9212-14.4826q.1547.03.312.0693L79.7291,72.8241q-.1573-.0391-.312-.0693"/><path class="4edc408d-95c7-4f11-92f5-741941dfca13" d="M79.7291,72.8241,104.65,58.3415q.1554.0387.3133.0864L80.0424,72.9106q-.1578-.0477-.3133-.0865"/><path class="4edc408d-95c7-4f11-92f5-741941dfca13" d="M80.0424,72.9106l24.9212-14.4827q.1506.0454.3032.0992L80.3456,73.01q-.1526-.0537-.3032-.0991"/><path class="4edc408d-95c7-4f11-92f5-741941dfca13" d="M80.3456,73.01l24.9212-14.4826q.1513.0533.3048.1146L80.65,73.1243q-.1535-.0614-.3048-.1146"/><path class="4edc408d-95c7-4f11-92f5-741941dfca13" d="M80.65,73.1243l24.9212-14.4826q.15.06.3013.1278L80.9517,73.2521q-.1515-.0678-.3013-.1278"/><path class="4edc408d-95c7-4f11-92f5-741941dfca13" d="M80.9517,73.2521,105.8729,58.77q.1513.0678.3044.1434L81.2561,73.3955q-.153-.0756-.3044-.1434"/><path class="4edc408d-95c7-4f11-92f5-741941dfca13" d="M81.2561,73.3955l24.9212-14.4826q.1527.0756.3069.159L81.563,73.5545q-.1542-.0834-.3069-.159"/><path class="4edc408d-95c7-4f11-92f5-741941dfca13" d="M81.563,73.5545l24.9212-14.4826q.1186.0642.2381.1332L81.8011,73.6877q-.12-.069-.2381-.1332"/></g></g><path class="4edc408d-95c7-4f11-92f5-741941dfca13" d="M81.8011,73.6877l24.9212-14.4826c4.1793,2.4129,7.6081,8.3421,7.603,13.1493L89.4041,86.8371C89.4092,82.03,85.98,76.1006,81.8011,73.6877Z"/><g class="e7efcf88-0707-418e-b809-14c6c30aeea1"><g class="07cf8334-cc71-46df-a8a6-0b04e090b456"><path class="4edc408d-95c7-4f11-92f5-741941dfca13" d="M81.8011,73.6877l24.9212-14.4826.0735.0428L81.8746,73.7306l-.0735-.0429"/><path class="4edc408d-95c7-4f11-92f5-741941dfca13" d="M81.8746,73.7306l24.9212-14.4827q.1593.0938.317.1942L82.1916,73.9247q-.1578-.1-.317-.1941"/><path class="4edc408d-95c7-4f11-92f5-741941dfca13" d="M82.1916,73.9247l24.9212-14.4826q.16.1018.3183.21L82.51,74.1351q-.1583-.1085-.3183-.21"/><path class="4edc408d-95c7-4f11-92f5-741941dfca13" d="M82.51,74.1351l24.9212-14.4826q.1647.1128.3274.2327L82.8373,74.3678q-.1626-.12-.3274-.2327"/><path class="4edc408d-95c7-4f11-92f5-741941dfca13" d="M82.8373,74.3678l24.9212-14.4826q.1665.1227.3307.2523L83.168,74.62q-.1641-.13-.3307-.2523"/><path class="4edc408d-95c7-4f11-92f5-741941dfca13" d="M83.168,74.62l24.9212-14.4826q.17.1338.3368.2749L83.5048,74.8951q-.1671-.1411-.3368-.275"/><path class="4edc408d-95c7-4f11-92f5-741941dfca13" d="M83.5048,74.8951,108.426,60.4124q.17.1434.3368.2939L83.8416,75.189q-.1669-.15-.3368-.2939"/><path class="4edc408d-95c7-4f11-92f5-741941dfca13" d="M83.8416,75.189l24.9212-14.4827q.1686.1518.3338.3105L84.1754,75.4994q-.1653-.1586-.3338-.31"/><path class="4edc408d-95c7-4f11-92f5-741941dfca13" d="M84.1754,75.4994l24.9212-14.4826q.1625.1558.3215.3178L84.4969,75.8173q-.1591-.162-.3215-.3179"/><path class="4edc408d-95c7-4f11-92f5-741941dfca13" d="M84.4969,75.8173l24.9212-14.4827q.1578.1608.3124.3275L84.8093,76.1447q-.1545-.1666-.3124-.3274"/><path class="4edc408d-95c7-4f11-92f5-741941dfca13" d="M84.8093,76.1447l24.9212-14.4826q.15.1619.297.3291L85.1063,76.4738q-.1469-.1671-.297-.3291"/><path class="4edc408d-95c7-4f11-92f5-741941dfca13" d="M85.1063,76.4738l24.9212-14.4826q.1494.17.2951.3453L85.4014,76.8191q-.1458-.1752-.2951-.3453"/><path class="4edc408d-95c7-4f11-92f5-741941dfca13" d="M85.4014,76.8191l24.9212-14.4826q.15.18.2956.3653L85.697,77.1844q-.1458-.1851-.2956-.3653"/><path class="4edc408d-95c7-4f11-92f5-741941dfca13" d="M85.697,77.1844l24.9212-14.4826q.1728.22.34.4458L86.0367,77.63q-.1668-.2262-.34-.4458"/><path class="4edc408d-95c7-4f11-92f5-741941dfca13" d="M86.0367,77.63l24.9212-14.4826q.25.3387.4854.6908L86.5221,78.321q-.2355-.3519-.4854-.6908"/><path class="4edc408d-95c7-4f11-92f5-741941dfca13" d="M86.5221,78.321l24.9212-14.4826q.31.4632.5931.9463L87.1152,79.2673q-.2828-.4824-.5931-.9463"/><path class="4edc408d-95c7-4f11-92f5-741941dfca13" d="M87.1152,79.2673l24.9212-14.4826q.19.3247.3675.6567L87.4827,79.924q-.177-.3318-.3675-.6567"/><path class="4edc408d-95c7-4f11-92f5-741941dfca13" d="M87.4827,79.924l24.9212-14.4826q.1211.2266.2355.456L87.7182,80.38q-.1144-.2294-.2355-.4561"/><path class="4edc408d-95c7-4f11-92f5-741941dfca13" d="M87.7182,80.38l24.9212-14.4827q.1011.2025.1969.4069L87.9151,80.787q-.0958-.2045-.1969-.4069"/><path class="4edc408d-95c7-4f11-92f5-741941dfca13" d="M87.9151,80.787l24.9212-14.4827q.0864.1844.1685.37L88.0836,81.1569q-.0821-.1855-.1685-.37"/><path class="4edc408d-95c7-4f11-92f5-741941dfca13" d="M88.0836,81.1569l24.9212-14.4826q.0811.1833.1578.3679L88.2414,81.5248q-.0767-.1845-.1578-.3679"/><path class="4edc408d-95c7-4f11-92f5-741941dfca13" d="M88.2414,81.5248l24.9212-14.4826q.0773.186.15.3731L88.3915,81.8979q-.0727-.1869-.15-.3731"/><path class="4edc408d-95c7-4f11-92f5-741941dfca13" d="M88.3915,81.8979l24.9212-14.4826q.0729.1872.141.3752L88.5325,82.2731q-.0681-.188-.141-.3752"/><path class="4edc408d-95c7-4f11-92f5-741941dfca13" d="M88.5325,82.2731l24.9212-14.4826q.0708.1953.1363.3912L88.6688,82.6643q-.0656-.1958-.1363-.3912"/><path class="4edc408d-95c7-4f11-92f5-741941dfca13" d="M88.6688,82.6643,113.59,68.1817q.066.1971.1266.3947L88.7954,83.059q-.0606-.1974-.1266-.3947"/><path class="4edc408d-95c7-4f11-92f5-741941dfca13" d="M88.7954,83.059l24.9212-14.4826q.0618.2017.1178.4035L88.9132,83.4625q-.056-.2018-.1178-.4035"/><path class="4edc408d-95c7-4f11-92f5-741941dfca13" d="M88.9132,83.4625,113.8344,68.98q.0561.202.1061.4038L89.0193,83.8664q-.05-.2019-.1061-.4039"/><path class="4edc408d-95c7-4f11-92f5-741941dfca13" d="M89.0193,83.8664l24.9212-14.4827q.0493.1992.0927.3978L89.112,84.2641q-.0432-.1986-.0927-.3977"/><path class="4edc408d-95c7-4f11-92f5-741941dfca13" d="M89.112,84.2641l24.9212-14.4826q.0432.1979.08.395L89.1923,84.6591q-.0371-.1971-.08-.395"/><path class="4edc408d-95c7-4f11-92f5-741941dfca13" d="M89.1923,84.6591l24.9212-14.4826q.036.1917.0661.3824L89.2584,85.0416q-.03-.1908-.0661-.3825"/><path class="4edc408d-95c7-4f11-92f5-741941dfca13" d="M89.2584,85.0416,114.18,70.5589q.03.19.0539.379L89.3123,85.4205q-.0238-.1889-.0539-.3789"/><path class="4edc408d-95c7-4f11-92f5-741941dfca13" d="M89.3123,85.4205l24.9212-14.4826q.0235.1851.0411.3687L89.3534,85.7893q-.0175-.1838-.0411-.3688"/><path class="4edc408d-95c7-4f11-92f5-741941dfca13" d="M89.3534,85.7893l24.9212-14.4827q.0175.1838.0291.3658L89.3825,86.155q-.0115-.1821-.0291-.3657"/><path class="4edc408d-95c7-4f11-92f5-741941dfca13" d="M89.3825,86.155l24.9212-14.4826q.0115.182.0169.3621L89.3994,86.5172q-.0054-.18-.0169-.3622"/><path class="4edc408d-95c7-4f11-92f5-741941dfca13" d="M89.3994,86.5172l24.9212-14.4827q.0048.1608.0047.32L89.4041,86.8371q0-.1593-.0047-.32"/></g></g><polygon class="c394fd78-75ff-45ff-904a-f80cc74fa3ce" points="94.644 89.863 119.566 75.38 119.495 100.141 94.574 114.624 94.644 89.863"/><polygon class="ea27fa0c-6dc2-4d45-9009-78f995b2bbdc" points="89.404 86.837 114.325 72.354 119.566 75.38 94.644 89.863 89.404 86.837"/><path class="59ba7bce-52ec-43ff-bf8e-cd8d2d11e502" d="M81.8011,73.6877c4.1793,2.4129,7.6081,8.3421,7.603,13.1494l5.24,3.0255-.07,24.761L52.6482,90.4176l.07-24.761,5.96,3.441c.901-2.1571,3.1072-2.6148,5.4533-1.26q.2379.1372.4768.2992a13.2847,13.2847,0,0,1,4.8865,7.206l4.6506,2.685C74.1677,73.23,77.6217,71.2747,81.8011,73.6877Z"/></g><g class="07cf8334-cc71-46df-a8a6-0b04e090b456"><polygon class="c394fd78-75ff-45ff-904a-f80cc74fa3ce" points="132.95 96.055 148.526 87.003 148.399 131.733 132.823 140.784 132.95 96.055"/><polygon class="59ba7bce-52ec-43ff-bf8e-cd8d2d11e502" points="121.867 73.237 132.95 96.055 132.823 140.784 110.561 127.931 110.688 83.202 121.867 73.237"/><polygon class="4edc408d-95c7-4f11-92f5-741941dfca13" points="121.867 73.237 137.443 64.186 148.526 87.003 132.95 96.055 121.867 73.237"/></g><polygon class="8206460d-1176-49e5-96c5-b8719fbeaf81" points="121.359 90.942 121.33 101.161 118.42 99.481 118.449 89.262 121.359 90.942"/><polygon class="8206460d-1176-49e5-96c5-b8719fbeaf81" points="121.359 107.142 121.33 117.361 118.42 115.681 118.449 105.462 121.359 107.142"/><polygon class="8206460d-1176-49e5-96c5-b8719fbeaf81" points="121.359 120.907 121.33 131.126 118.42 129.446 118.449 119.227 121.359 120.907"/><g class="07cf8334-cc71-46df-a8a6-0b04e090b456"><polygon class="c394fd78-75ff-45ff-904a-f80cc74fa3ce" points="237.173 213.527 252.749 204.476 252.622 221.434 237.046 230.486 237.173 213.527"/><polygon class="59ba7bce-52ec-43ff-bf8e-cd8d2d11e502" points="226.09 198.709 237.173 213.527 237.046 230.512 214.784 217.659 214.91 200.674 226.09 198.709"/><polygon class="4edc408d-95c7-4f11-92f5-741941dfca13" points="226.09 198.709 241.665 189.658 252.749 204.476 237.173 213.527 226.09 198.709"/></g><polygon class="ea27fa0c-6dc2-4d45-9009-78f995b2bbdc" points="214.91 200.674 230.998 192.004 241.665 189.658 226.09 198.709 214.91 200.674"/><polygon class="8206460d-1176-49e5-96c5-b8719fbeaf81" points="232.652 216.133 232.623 220.508 229.714 218.828 229.743 214.453 232.652 216.133"/><g class="07cf8334-cc71-46df-a8a6-0b04e090b456"><polygon class="ea27fa0c-6dc2-4d45-9009-78f995b2bbdc" points="154.701 298.531 183.094 282.03 190.004 286.02 161.611 302.52 154.701 298.531"/><path class="4edc408d-95c7-4f11-92f5-741941dfca13" d="M164.7855,296.11l28.3929-16.5c1.98-1.1507,4.7054-.9938,7.6591.7115l-28.393,16.5C169.4908,295.1163,166.7655,294.9594,164.7855,296.11Z"/><g class="f1d798a4-4d93-46fc-b7fc-6d272a115780"><g class="07cf8334-cc71-46df-a8a6-0b04e090b456"><path class="4edc408d-95c7-4f11-92f5-741941dfca13" d="M164.7855,296.11l28.393-16.5a5.2753,5.2753,0,0,1,.9034-.4162l-28.393,16.5a5.2712,5.2712,0,0,0-.9034.4162"/><path class="4edc408d-95c7-4f11-92f5-741941dfca13" d="M165.6889,295.6939l28.393-16.5a5.5728,5.5728,0,0,1,.7564-.2067l-28.393,16.5a5.5582,5.5582,0,0,0-.7564.2067"/><path class="4edc408d-95c7-4f11-92f5-741941dfca13" d="M166.4453,295.4872l28.393-16.5a5.9872,5.9872,0,0,1,.63-.0909l-28.393,16.5a5.991,5.991,0,0,0-.63.0909"/><path class="4edc408d-95c7-4f11-92f5-741941dfca13" d="M167.0756,295.3963l28.393-16.5q.2779-.0253.5655-.0263l-28.393,16.5q-.2874.0009-.5655.0263"/><path class="4edc408d-95c7-4f11-92f5-741941dfca13" d="M167.6411,295.37l28.393-16.5q.2476-.0007.5021.0167l-28.393,16.5q-.2542-.0176-.5021-.0167"/><path class="4edc408d-95c7-4f11-92f5-741941dfca13" d="M168.1432,295.3867l28.393-16.5q.24.0165.4849.0495l-28.3929,16.5q-.2452-.033-.485-.0495"/><path class="4edc408d-95c7-4f11-92f5-741941dfca13" d="M168.6282,295.4362l28.3929-16.5q.2318.0311.4682.0771l-28.393,16.5q-.2363-.0461-.4681-.0771"/><path class="4edc408d-95c7-4f11-92f5-741941dfca13" d="M169.0963,295.5133l28.393-16.5q.2195.0428.4426.0983l-28.393,16.5q-.2231-.0557-.4426-.0983"/><path class="4edc408d-95c7-4f11-92f5-741941dfca13" d="M169.5389,295.6116l28.393-16.5q.22.0548.4428.1222l-28.393,16.5q-.2231-.0675-.4428-.1222"/><path class="4edc408d-95c7-4f11-92f5-741941dfca13" d="M169.9817,295.7338l28.393-16.5q.2114.0639.4255.1391l-28.393,16.5q-.214-.0753-.4255-.1391"/><path class="4edc408d-95c7-4f11-92f5-741941dfca13" d="M170.4072,295.8729l28.393-16.5q.2129.075.4285.1612l-28.393,16.5q-.2154-.0863-.4285-.1612"/><path class="4edc408d-95c7-4f11-92f5-741941dfca13" d="M170.8357,296.0341l28.393-16.5q.21.0841.4221.1791l-28.3929,16.5q-.2123-.0949-.4222-.179"/><path class="4edc408d-95c7-4f11-92f5-741941dfca13" d="M171.2579,296.2131l28.3929-16.5q.2121.0948.4261.2007l-28.393,16.5q-.214-.1059-.426-.2008"/><path class="4edc408d-95c7-4f11-92f5-741941dfca13" d="M171.6839,296.4139l28.393-16.5q.2133.1054.4285.222l-28.393,16.5q-.2151-.1164-.4285-.2219"/><path class="4edc408d-95c7-4f11-92f5-741941dfca13" d="M172.1124,296.6358l28.393-16.5q.1656.09.3321.1857l-28.393,16.5q-.1665-.0961-.3321-.1858"/></g></g><path class="4edc408d-95c7-4f11-92f5-741941dfca13" d="M172.4445,296.8216l28.393-16.5c.0544.0314.11.0638.1643.0963,5.648,3.3616,10.3538,11.336,10.594,18.0684l-28.3929,16.5c-.24-6.7324-4.946-14.7069-10.594-18.0684C172.5543,296.8854,172.499,296.853,172.4445,296.8216Z"/><g class="f20ea4a1-3e4b-412b-9224-2da1a3af9f75"><g class="07cf8334-cc71-46df-a8a6-0b04e090b456"><path class="4edc408d-95c7-4f11-92f5-741941dfca13" d="M172.4445,296.8216l28.393-16.5.1022.06-28.393,16.5-.1022-.06"/><path class="4edc408d-95c7-4f11-92f5-741941dfca13" d="M172.5467,296.8811l28.393-16.5.0621.0367q.1917.1141.3819.2352l-28.393,16.5q-.19-.121-.3818-.2352l-.0622-.0368"/><path class="4edc408d-95c7-4f11-92f5-741941dfca13" d="M172.9907,297.1531l28.393-16.5q.2225.1416.4428.2927l-28.3929,16.5q-.22-.1509-.4429-.2926"/><path class="4edc408d-95c7-4f11-92f5-741941dfca13" d="M173.4336,297.4457l28.3929-16.5q.2326.1593.4627.3288l-28.393,16.5q-.23-.1694-.4626-.3289"/><path class="4edc408d-95c7-4f11-92f5-741941dfca13" d="M173.8962,297.7746l28.393-16.5q.2327.1713.4623.3526l-28.393,16.5q-.23-.1812-.4623-.3526"/><path class="4edc408d-95c7-4f11-92f5-741941dfca13" d="M174.3585,298.1272l28.393-16.5q.24.1891.4762.3888l-28.3929,16.5q-.2364-.2-.4763-.3888"/><path class="4edc408d-95c7-4f11-92f5-741941dfca13" d="M174.8348,298.516l28.3929-16.5q.239.2018.4741.4136l-28.393,16.5q-.2351-.2118-.474-.4136"/><path class="4edc408d-95c7-4f11-92f5-741941dfca13" d="M175.3088,298.93l28.393-16.5q.2378.2143.4713.4384l-28.393,16.5q-.2334-.2241-.4713-.4384"/><path class="4edc408d-95c7-4f11-92f5-741941dfca13" d="M175.78,299.368l28.393-16.5q.2293.22.4543.4492l-28.393,16.5q-.2249-.2291-.4543-.4492"/><path class="4edc408d-95c7-4f11-92f5-741941dfca13" d="M176.2344,299.8172l28.393-16.5q.2231.2271.4415.4628l-28.393,16.5q-.2184-.2356-.4415-.4628"/><path class="4edc408d-95c7-4f11-92f5-741941dfca13" d="M176.6759,300.28l28.393-16.5q.2125.229.42.4658l-28.3929,16.5q-.2079-.2367-.42-.4658"/><path class="4edc408d-95c7-4f11-92f5-741941dfca13" d="M177.0963,300.7458l28.3929-16.5q.2113.2406.4176.4886l-28.3929,16.5q-.2063-.248-.4176-.4886"/><path class="4edc408d-95c7-4f11-92f5-741941dfca13" d="M177.5139,301.2344l28.3929-16.5q.2113.254.417.5153l-28.3929,16.5q-.2056-.2613-.417-.5153"/><path class="4edc408d-95c7-4f11-92f5-741941dfca13" d="M177.9309,301.75l28.3929-16.5q.2458.3121.4834.6341l-28.393,16.5q-.2374-.3218-.4833-.6341"/><path class="4edc408d-95c7-4f11-92f5-741941dfca13" d="M178.4142,302.3838l28.393-16.5q.3491.4734.679.9656l-28.393,16.5q-.33-.4918-.679-.9656"/><path class="4edc408d-95c7-4f11-92f5-741941dfca13" d="M179.0932,303.3494l28.393-16.5q.4611.6882.881,1.4078l-28.3929,16.5q-.4193-.7185-.8811-1.4078"/><path class="4edc408d-95c7-4f11-92f5-741941dfca13" d="M179.9743,304.7572l28.3929-16.5q.269.4609.5194.9322l-28.393,16.5q-.25-.471-.5193-.9322"/><path class="4edc408d-95c7-4f11-92f5-741941dfca13" d="M180.4936,305.6894l28.393-16.5q.16.3.3114.6045l-28.393,16.5q-.1517-.3039-.3114-.6045"/><path class="4edc408d-95c7-4f11-92f5-741941dfca13" d="M180.805,306.2939l28.393-16.5q.1439.2883.28.5793l-28.393,16.5q-.1365-.291-.28-.5793"/><path class="4edc408d-95c7-4f11-92f5-741941dfca13" d="M181.0853,306.8732l28.393-16.5q.123.2624.24.5266l-28.393,16.5q-.1168-.2643-.24-.5266"/><path class="4edc408d-95c7-4f11-92f5-741941dfca13" d="M181.3251,307.4l28.393-16.5q.1163.2629.2261.5276l-28.3929,16.5q-.11-.2646-.2262-.5276"/><path class="4edc408d-95c7-4f11-92f5-741941dfca13" d="M181.5513,307.9274l28.3929-16.5q.1092.2626.212.5268l-28.393,16.5q-.1027-.264-.2119-.5268"/><path class="4edc408d-95c7-4f11-92f5-741941dfca13" d="M181.7632,308.4542l28.393-16.5q.1047.2691.2026.5394l-28.393,16.5q-.0978-.27-.2026-.5394"/><path class="4edc408d-95c7-4f11-92f5-741941dfca13" d="M181.9658,308.9936l28.393-16.5q.1.2766.1932.5542l-28.393,16.5q-.0928-.2775-.1932-.5542"/><path class="4edc408d-95c7-4f11-92f5-741941dfca13" d="M182.159,309.5478l28.393-16.5q.0947.2828.1815.5662l-28.3929,16.5q-.0868-.2833-.1816-.5662"/><path class="4edc408d-95c7-4f11-92f5-741941dfca13" d="M182.3406,310.114l28.3929-16.5q.0882.2877.1681.5755l-28.393,16.5q-.08-.2877-.168-.5755"/><path class="4edc408d-95c7-4f11-92f5-741941dfca13" d="M182.5086,310.69l28.393-16.5q.08.2878.1512.5756l-28.393,16.5q-.0712-.2875-.1512-.5755"/><path class="4edc408d-95c7-4f11-92f5-741941dfca13" d="M182.66,311.265l28.393-16.5q.0713.2875.1339.5747l-28.3929,16.5q-.0625-.2871-.134-.5748"/><path class="4edc408d-95c7-4f11-92f5-741941dfca13" d="M182.7938,311.84l28.3929-16.5q.0612.28.1137.56l-28.3929,16.5q-.0526-.2795-.1137-.56"/><path class="4edc408d-95c7-4f11-92f5-741941dfca13" d="M182.9075,312.4l28.3929-16.5q.0523.2784.0961.5557l-28.393,16.5q-.0436-.2772-.096-.5557"/><path class="4edc408d-95c7-4f11-92f5-741941dfca13" d="M183.0035,312.9553l28.393-16.5q.0425.27.0766.5379l-28.393,16.5q-.034-.2682-.0766-.5379"/><path class="4edc408d-95c7-4f11-92f5-741941dfca13" d="M183.08,313.4932l28.393-16.5q.0339.2679.0594.534l-28.3929,16.5q-.0255-.2661-.06-.534"/><path class="4edc408d-95c7-4f11-92f5-741941dfca13" d="M183.14,314.0272l28.3929-16.5q.0252.2637.0418.5253l-28.393,16.5q-.0165-.2614-.0417-.5252"/><path class="4edc408d-95c7-4f11-92f5-741941dfca13" d="M183.1813,314.5524l28.393-16.5q.0138.2176.0215.4338l-28.3929,16.5q-.0078-.2162-.0216-.4339"/></g></g><polygon class="ea27fa0c-6dc2-4d45-9009-78f995b2bbdc" points="183.203 314.986 211.596 298.486 217.639 301.975 189.246 318.475 183.203 314.986"/><path class="4edc408d-95c7-4f11-92f5-741941dfca13" d="M191.604,314.2709l28.3929-16.5c1.3992-.8131,3.2833-.752,5.3248.32q.1794.0941.3573.1968c3.9951,2.3068,7.5272,7.8921,8.03,12.9661l-28.393,16.5c-.5026-5.074-4.0347-10.6593-8.03-12.9661q-.178-.1029-.3572-.1968C194.8872,313.5188,193.0031,313.4578,191.604,314.2709Z"/><g class="1a06890b-a0e2-4142-8265-45259719c2a3"><g class="07cf8334-cc71-46df-a8a6-0b04e090b456"><path class="4edc408d-95c7-4f11-92f5-741941dfca13" d="M191.604,314.2709l28.3929-16.5a3.9614,3.9614,0,0,1,.6817-.3137l-28.3929,16.5a3.9579,3.9579,0,0,0-.6817.3137"/><path class="4edc408d-95c7-4f11-92f5-741941dfca13" d="M192.2857,313.9572l28.3929-16.5a4.1643,4.1643,0,0,1,.5625-.1533l-28.393,16.5a4.1629,4.1629,0,0,0-.5624.1533"/><path class="4edc408d-95c7-4f11-92f5-741941dfca13" d="M192.8481,313.8039l28.393-16.5a4.4429,4.4429,0,0,1,.4679-.0675l-28.3929,16.5a4.4712,4.4712,0,0,0-.468.0676"/><path class="4edc408d-95c7-4f11-92f5-741941dfca13" d="M193.3161,313.7363l28.3929-16.5q.2054-.0188.4175-.02l-28.393,16.5q-.212.0009-.4174.02"/><path class="4edc408d-95c7-4f11-92f5-741941dfca13" d="M193.7335,313.7167l28.393-16.5q.1887-.0007.3824.0128l-28.393,16.5q-.1937-.0135-.3824-.0127"/><path class="4edc408d-95c7-4f11-92f5-741941dfca13" d="M194.1159,313.7294l28.393-16.5q.1752.0121.3544.0363l-28.3929,16.5q-.1791-.0241-.3545-.0364"/><path class="4edc408d-95c7-4f11-92f5-741941dfca13" d="M194.47,313.7658l28.3929-16.5q.1709.0229.3449.0567l-28.393,16.5q-.174-.0337-.3448-.0567"/><path class="4edc408d-95c7-4f11-92f5-741941dfca13" d="M194.8152,313.8225l28.393-16.5q.1645.0319.3319.0738l-28.3929,16.5q-.1674-.0418-.332-.0738"/><path class="4edc408d-95c7-4f11-92f5-741941dfca13" d="M195.1472,313.8963l28.3929-16.5q.1594.04.3213.0886l-28.393,16.5q-.1617-.0487-.3212-.0886"/><path class="4edc408d-95c7-4f11-92f5-741941dfca13" d="M195.4684,313.9849l28.393-16.5q.159.048.32.1047l-28.393,16.5q-.1611-.0567-.32-.1047"/><path class="4edc408d-95c7-4f11-92f5-741941dfca13" d="M195.7886,314.09l28.393-16.5q.1546.0544.311.1171l-28.3929,16.5q-.1565-.0625-.3111-.117"/><path class="4edc408d-95c7-4f11-92f5-741941dfca13" d="M196.1,314.2066l28.3929-16.5q.156.0624.3135.1329l-28.3929,16.5q-.1576-.0705-.3135-.133"/><path class="4edc408d-95c7-4f11-92f5-741941dfca13" d="M196.4132,314.34l28.3929-16.5q.1559.07.3131.1476l-28.3929,16.5q-.1574-.0778-.3131-.1476"/><path class="4edc408d-95c7-4f11-92f5-741941dfca13" d="M196.7263,314.4872l28.3929-16.5q.1011.05.2025.1032c.0381.02.076.04.114.0607l-28.393,16.5q-.0569-.0307-.1139-.0607-.1016-.0532-.2025-.1032"/><path class="4edc408d-95c7-4f11-92f5-741941dfca13" d="M197.0427,314.6511l28.393-16.5q.1218.066.2433.1361l.0747.0436-28.3929,16.5-.0748-.0436q-.1215-.07-.2433-.1361"/><path class="4edc408d-95c7-4f11-92f5-741941dfca13" d="M197.3608,314.8308l28.3929-16.5q.1624.0956.3237.1982l-28.3929,16.5q-.1613-.1026-.3237-.1982"/><path class="4edc408d-95c7-4f11-92f5-741941dfca13" d="M197.6845,315.029l28.3929-16.5q.165.105.3285.2171l-28.393,16.5q-.1635-.1121-.3284-.2171"/><path class="4edc408d-95c7-4f11-92f5-741941dfca13" d="M198.0129,315.2461l28.393-16.5q.169.1159.3366.2394l-28.3929,16.5q-.1676-.1233-.3367-.2393"/><path class="4edc408d-95c7-4f11-92f5-741941dfca13" d="M198.35,315.4854l28.3929-16.5q.174.1281.3461.2639l-28.393,16.5q-.1721-.1359-.346-.264"/><path class="4edc408d-95c7-4f11-92f5-741941dfca13" d="M198.6956,315.7494l28.393-16.5q.1755.1385.3488.2848l-28.393,16.5q-.1732-.1463-.3488-.2848"/><path class="4edc408d-95c7-4f11-92f5-741941dfca13" d="M199.0444,316.0342l28.393-16.5q.18.1517.3567.3111l-28.393,16.5q-.177-.1595-.3567-.3111"/><path class="4edc408d-95c7-4f11-92f5-741941dfca13" d="M199.4011,316.3453l28.393-16.5q.1766.1593.35.326l-28.393,16.5q-.1737-.1667-.35-.3259"/><path class="4edc408d-95c7-4f11-92f5-741941dfca13" d="M199.7515,316.6712l28.393-16.5q.1732.166.3434.3395l-28.393,16.5q-.17-.1732-.3434-.34"/><path class="4edc408d-95c7-4f11-92f5-741941dfca13" d="M200.0949,317.0108l28.393-16.5q.1656.1687.3281.3439l-28.393,16.5q-.1625-.175-.3281-.3438"/><path class="4edc408d-95c7-4f11-92f5-741941dfca13" d="M200.423,317.3546l28.393-16.5q.1614.174.32.3541l-28.3929,16.5q-.1581-.18-.32-.3542"/><path class="4edc408d-95c7-4f11-92f5-741941dfca13" d="M200.7426,317.7088l28.3929-16.5q.1579.18.3123.3654l-28.3929,16.5q-.1543-.1854-.3123-.3653"/><path class="4edc408d-95c7-4f11-92f5-741941dfca13" d="M201.0549,318.0741l28.3929-16.5q.1641.1971.3241.4006l-28.393,16.5q-.16-.2034-.324-.4007"/><path class="4edc408d-95c7-4f11-92f5-741941dfca13" d="M201.3789,318.4748l28.393-16.5q.1722.219.3393.4448l-28.393,16.5q-.167-.2258-.3393-.4448"/><path class="4edc408d-95c7-4f11-92f5-741941dfca13" d="M201.7182,318.92l28.393-16.5q.2443.33.4768.6733l-28.393,16.5q-.2322-.3429-.4768-.6733"/><path class="4edc408d-95c7-4f11-92f5-741941dfca13" d="M202.195,319.5929l28.393-16.5q.3468.5122.6646,1.05l-28.393,16.5q-.3171-.5367-.6646-1.05"/><path class="4edc408d-95c7-4f11-92f5-741941dfca13" d="M202.86,320.6427l28.393-16.5q.2218.3757.4281.7616l-28.3929,16.5q-.2061-.3855-.4282-.7615"/><path class="4edc408d-95c7-4f11-92f5-741941dfca13" d="M203.2878,321.4042l28.3929-16.5q.133.249.2591.5017l-28.393,16.5q-.126-.2524-.259-.5017"/><path class="4edc408d-95c7-4f11-92f5-741941dfca13" d="M203.5468,321.9059l28.393-16.5q.1077.2158.21.4342l-28.3929,16.5q-.1025-.2182-.21-.4343"/><path class="4edc408d-95c7-4f11-92f5-741941dfca13" d="M203.7569,322.34l28.3929-16.5q.0934.1992.1822.4l-28.393,16.5q-.0888-.2009-.1821-.4"/><path class="4edc408d-95c7-4f11-92f5-741941dfca13" d="M203.939,322.74l28.393-16.5q.0873.1978.17.397l-28.3929,16.5q-.0828-.1992-.17-.397"/><path class="4edc408d-95c7-4f11-92f5-741941dfca13" d="M204.1092,323.1372l28.3929-16.5q.0831.2.1614.4013l-28.3929,16.5q-.0783-.2013-.1614-.4013"/><path class="4edc408d-95c7-4f11-92f5-741941dfca13" d="M204.2706,323.5385l28.3929-16.5q.0786.2019.1522.405l-28.3929,16.5q-.0736-.2031-.1522-.405"/><path class="4edc408d-95c7-4f11-92f5-741941dfca13" d="M204.4228,323.9435l28.3929-16.5q.0768.2115.1479.4241l-28.393,16.5q-.0711-.2125-.1478-.4241"/><path class="4edc408d-95c7-4f11-92f5-741941dfca13" d="M204.5706,324.3676l28.393-16.5q.0717.2142.1376.429l-28.393,16.5q-.0659-.2148-.1376-.429"/><path class="4edc408d-95c7-4f11-92f5-741941dfca13" d="M204.7082,324.7966l28.393-16.5q.0672.2194.1283.4394l-28.393,16.5q-.061-.22-.1283-.4394"/><path class="4edc408d-95c7-4f11-92f5-741941dfca13" d="M204.8365,325.236l28.393-16.5q.0609.22.1154.4394l-28.3929,16.5q-.0546-.22-.1155-.4394"/><path class="4edc408d-95c7-4f11-92f5-741941dfca13" d="M204.952,325.6754l28.3929-16.5q.0545.2194.1023.4388l-28.393,16.5q-.0477-.2193-.1022-.4388"/><path class="4edc408d-95c7-4f11-92f5-741941dfca13" d="M205.0542,326.1142l28.393-16.5q.0469.2153.0874.43l-28.393,16.5q-.04-.215-.0874-.43"/><path class="4edc408d-95c7-4f11-92f5-741941dfca13" d="M205.1416,326.5444l28.393-16.5q.04.2137.0737.4267l-28.3929,16.5q-.0336-.213-.0738-.4267"/><path class="4edc408d-95c7-4f11-92f5-741941dfca13" d="M205.2154,326.9711l28.3929-16.5q.0328.2081.0591.4153l-28.393,16.5q-.0263-.2073-.059-.4153"/><path class="4edc408d-95c7-4f11-92f5-741941dfca13" d="M205.2744,327.3864l28.393-16.5q.0234.1837.0415.3669l-28.393,16.5q-.0181-.183-.0415-.3669"/></g></g><polygon class="ea27fa0c-6dc2-4d45-9009-78f995b2bbdc" points="205.316 327.753 233.709 311.253 237.409 313.39 209.016 329.89 205.316 327.753"/><path class="59ba7bce-52ec-43ff-bf8e-cd8d2d11e502" d="M172.4445,296.8216c.0545.0314.11.0638.1644.0963,5.648,3.3615,10.3537,11.336,10.594,18.0684l6.0427,3.4887c.5017-4.3126,3.809-5.918,7.6832-3.8846q.1793.094.3572.1968c3.9952,2.3068,7.5273,7.8921,8.03,12.9661l3.7,2.1364L208.9,370.7685l-54.3155-31.3591.1159-40.8788,6.91,3.99C161.8933,296.0072,166.7435,293.53,172.4445,296.8216Z"/><polygon class="c394fd78-75ff-45ff-904a-f80cc74fa3ce" points="209.016 329.89 237.409 313.39 237.293 354.268 208.9 370.769 209.016 329.89"/></g><polygon class="8206460d-1176-49e5-96c5-b8719fbeaf81" points="199.494 348.75 199.42 360.813 192.03 356.546 192.103 344.483 199.494 348.75"/><path class="8206460d-1176-49e5-96c5-b8719fbeaf81" d="M199.4938,327.127a8.5168,8.5168,0,0,0-3.73-6.0221q-.0828-.0477-.1659-.0913c-1.7994-.9445-3.3355-.1988-3.5685,1.8042V341.835l7.4639,4.3093Z"/><polygon class="4edc408d-95c7-4f11-92f5-741941dfca13" points="220.697 329.499 227.566 325.507 227.538 335.397 220.669 339.389 220.697 329.499"/><g class="07cf8334-cc71-46df-a8a6-0b04e090b456"><polygon class="c394fd78-75ff-45ff-904a-f80cc74fa3ce" points="67.708 228.587 88.661 216.411 88.491 239.224 67.537 251.401 67.708 228.587"/><polygon class="59ba7bce-52ec-43ff-bf8e-cd8d2d11e502" points="52.798 208.653 67.708 228.587 67.537 251.437 37.588 234.146 37.759 211.297 52.798 208.653"/><polygon class="4edc408d-95c7-4f11-92f5-741941dfca13" points="52.798 208.653 73.751 196.477 88.661 216.411 67.708 228.587 52.798 208.653"/></g><polygon class="ea27fa0c-6dc2-4d45-9009-78f995b2bbdc" points="37.759 211.297 59.401 199.633 73.751 196.477 52.798 208.653 37.759 211.297"/><polygon class="8206460d-1176-49e5-96c5-b8719fbeaf81" points="44.605 227.631 44.575 238.212 41.563 236.473 41.593 225.892 44.605 227.631"/><polygon class="8206460d-1176-49e5-96c5-b8719fbeaf81" points="44.605 218.839 44.575 223.757 41.563 222.018 41.593 217.1 44.605 218.839"/><polygon class="4edc408d-95c7-4f11-92f5-741941dfca13" points="76.934 236.92 80.224 235.008 80.21 239.745 76.92 241.657 76.934 236.92"/><polygon class="4edc408d-95c7-4f11-92f5-741941dfca13" points="76.934 229.285 80.224 227.373 80.21 232.11 76.92 234.022 76.934 229.285"/><g class="07cf8334-cc71-46df-a8a6-0b04e090b456"><polygon class="5b31dacc-4630-410b-85da-5a02b65c0826" points="170.427 42.185 195.348 27.702 206.961 22.298 182.04 36.781 170.427 42.185"/><polygon class="59ba7bce-52ec-43ff-bf8e-cd8d2d11e502" points="182.04 36.781 193.587 55.556 193.467 97.973 170.307 84.602 170.427 42.185 182.04 36.781"/><polygon class="4edc408d-95c7-4f11-92f5-741941dfca13" points="182.04 36.781 206.961 22.298 218.508 41.073 193.587 55.556 182.04 36.781"/><polygon class="c394fd78-75ff-45ff-904a-f80cc74fa3ce" points="193.587 55.556 218.508 41.073 218.388 83.491 193.467 97.973 193.587 55.556"/></g><polygon class="8206460d-1176-49e5-96c5-b8719fbeaf81" points="187.423 84.228 187.332 94.446 184.432 92.749 184.523 82.53 187.423 84.228"/><polygon class="8206460d-1176-49e5-96c5-b8719fbeaf81" points="187.578 73.926 187.549 78.301 184.639 76.621 184.668 72.246 187.578 73.926"/><polygon class="8206460d-1176-49e5-96c5-b8719fbeaf81" points="187.578 61.454 187.549 65.829 184.639 64.149 184.668 59.774 187.578 61.454"/><polygon class="4edc408d-95c7-4f11-92f5-741941dfca13" points="213.152 55.362 216.045 53.68 216.033 57.846 213.14 59.528 213.152 55.362"/><polygon class="4edc408d-95c7-4f11-92f5-741941dfca13" points="213.152 67.615 216.045 65.934 216.033 70.1 213.14 71.781 213.152 67.615"/><g class="07cf8334-cc71-46df-a8a6-0b04e090b456"><polygon class="59ba7bce-52ec-43ff-bf8e-cd8d2d11e502" points="265.765 181.711 265.58 247.031 246.981 236.292 247.166 170.972 265.765 181.711"/><polygon class="c394fd78-75ff-45ff-904a-f80cc74fa3ce" points="265.765 181.711 281.341 172.659 281.156 237.979 265.58 247.031 265.765 181.711"/><polygon class="4edc408d-95c7-4f11-92f5-741941dfca13" points="247.166 170.972 262.741 161.921 281.341 172.659 265.765 181.711 247.166 170.972"/></g><polygon class="8206460d-1176-49e5-96c5-b8719fbeaf81" points="252.749 180.205 252.72 190.423 249.81 188.743 249.839 178.525 252.749 180.205"/><polygon class="8206460d-1176-49e5-96c5-b8719fbeaf81" points="252.749 196.405 252.72 206.623 249.81 204.944 249.839 194.725 252.749 196.405"/><polygon class="4edc408d-95c7-4f11-92f5-741941dfca13" points="272.708 180.468 275.602 178.787 275.59 182.953 272.696 184.634 272.708 180.468"/><polygon class="4edc408d-95c7-4f11-92f5-741941dfca13" points="272.708 198.158 275.602 196.477 275.59 210.793 272.696 212.475 272.708 198.158"/><g class="07cf8334-cc71-46df-a8a6-0b04e090b456"><polygon class="ea27fa0c-6dc2-4d45-9009-78f995b2bbdc" points="135.541 125.179 151.117 116.128 159.404 112.38 143.828 121.431 135.541 125.179"/><polygon class="4edc408d-95c7-4f11-92f5-741941dfca13" points="143.828 121.431 159.404 112.38 170.307 127.207 154.731 136.258 143.828 121.431"/><polygon class="4edc408d-95c7-4f11-92f5-741941dfca13" points="154.731 136.258 170.307 127.207 181.112 133.445 165.536 142.497 154.731 136.258"/><polygon class="59ba7bce-52ec-43ff-bf8e-cd8d2d11e502" points="143.828 121.431 154.731 136.258 165.536 142.497 173.92 147.337 173.848 172.919 135.469 150.761 135.541 125.179 143.828 121.431"/><polygon class="4edc408d-95c7-4f11-92f5-741941dfca13" points="165.536 142.497 181.112 133.445 189.496 138.286 173.92 147.337 165.536 142.497"/><polygon class="c394fd78-75ff-45ff-904a-f80cc74fa3ce" points="173.92 147.337 189.496 138.286 189.424 163.867 173.848 172.919 173.92 147.337"/></g><polygon class="8206460d-1176-49e5-96c5-b8719fbeaf81" points="140.329 140.011 140.3 144.386 137.39 142.706 137.419 138.331 140.329 140.011"/><polygon class="8206460d-1176-49e5-96c5-b8719fbeaf81" points="140.329 130.641 140.3 135.016 137.39 133.336 137.419 128.961 140.329 130.641"/><polygon class="8206460d-1176-49e5-96c5-b8719fbeaf81" points="149.995 144.624 149.966 148.999 147.057 147.319 147.086 142.944 149.995 144.624"/><polygon class="4edc408d-95c7-4f11-92f5-741941dfca13" points="181.311 154.267 184.205 152.586 184.193 166.902 181.299 168.584 181.311 154.267"/><path class="fad6495d-7d9b-45ac-bf22-d0e3c834986d" d="M272.9787,51.1736c2.3161,3.7544,4.4824,7.614,6.4622,11.5813A109.8639,109.8639,0,0,1,284.7249,75a89.8616,89.8616,0,0,1,3.6963,12.9156,74.2868,74.2868,0,0,1,1.6133,13.4544l.0609,1.7039c.0044.5684-.027,1.1376-.0393,1.7068-.04,1.1381-.0536,2.2788-.12,3.4173-.2442,2.2685-.3828,4.5565-.8478,6.802l-.2972,1.6922a13.4869,13.4869,0,0,1-.36,1.68l-.8771,3.3317-.4426,1.6671c-.169.5492-.3881,1.0831-.5805,1.6257l-1.1991,3.2445a31.2045,31.2045,0,0,1-1.4188,3.1538c-.5056,1.0371-.9911,2.0877-1.5191,3.1142l-1.7775,2.9682a29.2388,29.2388,0,0,1-1.8737,2.9041,63.8643,63.8643,0,0,1-4.1949,5.4675l-2.2377,2.6137-2.3982,2.44a124.88,124.88,0,0,1-21.2149,16.68c-7.4988,4.8152-15.2118,9.1155-22.91,13.2969-15.4057,8.3307-30.7917,16.2577-45.0689,25.5969-14.2559,9.3031-27.503,19.9347-38.1426,32.7058-.6664.7951-1.3713,1.5586-2.0064,2.3774l-1.8871,2.4687c-1.2581,1.6445-2.548,3.2636-3.6653,5.0062-1.1412,1.724-2.3613,3.3932-3.4407,5.1535l-1.6057,2.6474-.8034,1.3222-.7427,1.3581a135.2228,135.2228,0,0,0-10.0305,22.59,147.3775,147.3775,0,0,0-5.9611,24.0972c-.7732,4.0778-1.1407,8.2429-1.6558,12.3694l-.4489,6.2473-.2176,3.1221-.0759,3.14a264.509,264.509,0,0,0,3.5754,50.3062,9.7108,9.7108,0,1,1-19.17,3.1146c-.0171-.105-.0376-.2513-.0511-.3562A282.825,282.825,0,0,1,92.567,330.18l.2113-3.3895.3581-3.3883.7426-6.77c.72-4.4993,1.3-9.0065,2.3079-13.4661a163.3659,163.3659,0,0,1,7.5677-26.3444,150.316,150.316,0,0,1,12.0826-24.7039l.8833-1.4767.9454-1.4386,1.8925-2.8735c1.2718-1.9077,2.6859-3.7169,4.0236-5.5755,1.3146-1.878,2.8-3.6217,4.2566-5.3857l2.1856-2.6433c.7346-.8751,1.5364-1.69,2.3015-2.5366,12.2372-13.6143,26.9468-24.4787,42.1857-33.6408,15.2732-9.1968,31.2293-16.6659,46.77-24.35,7.7656-3.8536,15.4378-7.7743,22.7756-12.1135a116.7284,116.7284,0,0,0,20.3864-14.819l2.2678-2.1372,2.0956-2.2789a56.4341,56.4341,0,0,0,3.9383-4.7545,24.3037,24.3037,0,0,0,1.76-2.5216l1.6823-2.577c.4987-.8931.9579-1.8082,1.442-2.7114a26.1032,26.1032,0,0,0,1.3665-2.7527l1.1712-2.8465c.19-.477.4072-.9444.5761-1.43l.4457-1.4779.9-2.9582a11.187,11.187,0,0,0,.38-1.5l.3228-1.5164c.5022-2.0108.6922-4.0786.9985-6.1312.0974-1.0328.1448-2.0719.2217-3.1089.0305-.5191.0809-1.0376.0959-1.5578l-.0006-1.5636A68.6049,68.6049,0,0,0,283.07,88.9269a84.6733,84.6733,0,0,0-3.0414-12.3181,105.165,105.165,0,0,0-4.6343-11.9263c-1.7693-3.8992-3.7326-7.7234-5.8562-11.468a2,2,0,0,1,3.44-2.0409Z"/><path class="d7a68661-a2c9-43ad-8a1e-27048e66aadd" d="M88.6905,148.8006a.1382.1382,0,0,0,.1382.1382h11.9821a.1382.1382,0,1,0,0-.2763H88.8287A.1381.1381,0,0,0,88.6905,148.8006Z"/><path class="d7a68661-a2c9-43ad-8a1e-27048e66aadd" d="M98.6264,147.1657c0,.257.2084,1.401.4654,1.401s.4654-1.144.4654-1.401-.2083-2.0319-.4654-2.0319S98.6264,146.9086,98.6264,147.1657Z"/><path class="d7a68661-a2c9-43ad-8a1e-27048e66aadd" d="M100.0582,147.4043c-.0651.1774-.2111,1.02-.0337,1.0851s.6112-.6718.6763-.8493.371-1.4554.1935-1.5206S100.1233,147.2269,100.0582,147.4043Z"/><path class="d7a68661-a2c9-43ad-8a1e-27048e66aadd" d="M101.561,147.54c-.1392.1279-.6551.81-.5272.949s.8511-.317.99-.4449.9968-1.1236.8689-1.2628S101.7,147.4125,101.561,147.54Z"/><path class="d7a68661-a2c9-43ad-8a1e-27048e66aadd" d="M97.3131,147.1657c0,.257.2084,1.401.4654,1.401s.4654-1.144.4654-1.401-.2083-2.0319-.4654-2.0319S97.3131,146.9086,97.3131,147.1657Z"/><path class="d7a68661-a2c9-43ad-8a1e-27048e66aadd" d="M94.9258,147.6348c.2445.2444,1.5307,1.1343,1.7751.89s-.6454-1.5306-.89-1.7751-2.1307-1.7343-2.3751-1.49S94.6813,147.39,94.9258,147.6348Z"/><path class="d7a68661-a2c9-43ad-8a1e-27048e66aadd" d="M98.6264,150.4221c0-.257.2084-1.401.4654-1.401s.4654,1.144.4654,1.401-.2083,2.0319-.4654,2.0319S98.6264,150.6791,98.6264,150.4221Z"/><path class="d7a68661-a2c9-43ad-8a1e-27048e66aadd" d="M100.0582,150.1835c-.0651-.1775-.2111-1.02-.0337-1.0851s.6112.6718.6763.8492.371,1.4555.1935,1.5207S100.1233,150.3609,100.0582,150.1835Z"/><path class="d7a68661-a2c9-43ad-8a1e-27048e66aadd" d="M101.561,150.0474c-.1392-.1279-.6551-.81-.5272-.949s.8511.317.99.4449.9968,1.1236.8689,1.2628S101.7,150.1752,101.561,150.0474Z"/><path class="d7a68661-a2c9-43ad-8a1e-27048e66aadd" d="M97.3131,150.4221c0-.257.2084-1.401.4654-1.401s.4654,1.144.4654,1.401-.2083,2.0319-.4654,2.0319S97.3131,150.6791,97.3131,150.4221Z"/><path class="d7a68661-a2c9-43ad-8a1e-27048e66aadd" d="M94.9258,149.953c.2445-.2445,1.5307-1.1343,1.7751-.89s-.6454,1.5307-.89,1.7752-2.1307,1.7343-2.3751,1.49S94.6813,150.1975,94.9258,149.953Z"/><path class="d7a68661-a2c9-43ad-8a1e-27048e66aadd" d="M88.8754,145.3213a.1383.1383,0,0,0,.1954,0l8.4727-8.4727a.1382.1382,0,0,0-.1954-.1954l-8.4727,8.4727A.1383.1383,0,0,0,88.8754,145.3213Z"/><path class="d7a68661-a2c9-43ad-8a1e-27048e66aadd" d="M94.7451,137.14c.1818.1817,1.138.8433,1.32.6616s-.48-1.1381-.6616-1.32-1.5841-1.2894-1.7659-1.1077S94.5634,136.9577,94.7451,137.14Z"/><path class="d7a68661-a2c9-43ad-8a1e-27048e66aadd" d="M95.9263,136.2958c.0794.1715.5719.87.7434.7911s-.0429-.9072-.1223-1.0787-.7668-1.2915-.9384-1.2121S95.8469,136.1243,95.9263,136.2958Z"/><path class="d7a68661-a2c9-43ad-8a1e-27048e66aadd" d="M97.0852,135.3294c-.008.1888.1093,1.0358.2982,1.0439s.3776-.826.3856-1.0149-.09-1.4993-.2785-1.5074S97.0932,135.1405,97.0852,135.3294Z"/><path class="d7a68661-a2c9-43ad-8a1e-27048e66aadd" d="M93.8165,138.0681c.1817.1818,1.138.8434,1.32.6616s-.48-1.138-.6616-1.32-1.5841-1.2894-1.7658-1.1076S93.6347,137.8864,93.8165,138.0681Z"/><path class="d7a68661-a2c9-43ad-8a1e-27048e66aadd" d="M92.46,140.0879c.3457,0,1.8844-.28,1.8844-.626s-1.5387-.6259-1.8844-.6259-2.7329.28-2.7329.6259S92.1144,140.0879,92.46,140.0879Z"/><path class="d7a68661-a2c9-43ad-8a1e-27048e66aadd" d="M97.0478,139.4421c-.1818-.1817-.8434-1.138-.6616-1.32s1.138.48,1.32.6616,1.29,1.5841,1.1077,1.7659S97.23,139.6239,97.0478,139.4421Z"/><path class="d7a68661-a2c9-43ad-8a1e-27048e66aadd" d="M97.8915,138.261c-.1716-.0795-.8706-.572-.7912-.7435s.9072.0429,1.0788.1223,1.2915.7669,1.2121.9384S98.063,138.34,97.8915,138.261Z"/><path class="d7a68661-a2c9-43ad-8a1e-27048e66aadd" d="M98.8579,137.1021c-.1889.008-1.0359-.1094-1.0439-.2983s.826-.3776,1.0148-.3856,1.4994.09,1.5074.2785S99.0467,137.094,98.8579,137.1021Z"/><path class="d7a68661-a2c9-43ad-8a1e-27048e66aadd" d="M96.1191,140.3708c-.1817-.1818-.8433-1.1381-.6616-1.32s1.138.48,1.32.6616,1.2894,1.5841,1.1077,1.7658S96.3009,140.5525,96.1191,140.3708Z"/><path class="d7a68661-a2c9-43ad-8a1e-27048e66aadd" d="M94.0993,141.7271c0-.3457.28-1.8844.626-1.8844s.626,1.5387.626,1.8844-.28,2.733-.626,2.733S94.0993,142.0729,94.0993,141.7271Z"/><path class="d7a68661-a2c9-43ad-8a1e-27048e66aadd" d="M88.5928,151.8232a.1635.1635,0,0,0,.03.2251l11.0529,11.0529a.1431.1431,0,1,0,.1954-.1954L88.818,151.8529A.1636.1636,0,0,0,88.5928,151.8232Z"/><path class="d7a68661-a2c9-43ad-8a1e-27048e66aadd" d="M99.4144,160.3326c-.1818.1817-.8434,1.138-.6616,1.32s1.138-.48,1.32-.6616,1.2894-1.5841,1.1076-1.7659S99.5961,160.1508,99.4144,160.3326Z"/><path class="d7a68661-a2c9-43ad-8a1e-27048e66aadd" d="M100.2581,161.5137c-.1716.0795-.8706.572-.7912.7435s.9072-.0429,1.0788-.1223,1.2915-.7669,1.2121-.9384S100.43,161.4343,100.2581,161.5137Z"/><path class="d7a68661-a2c9-43ad-8a1e-27048e66aadd" d="M101.2245,162.6726c-.1889-.008-1.0359.1094-1.0439.2983s.826.3776,1.0148.3856,1.4994-.09,1.5074-.2785S101.4133,162.6807,101.2245,162.6726Z"/><path class="d7a68661-a2c9-43ad-8a1e-27048e66aadd" d="M98.4857,159.4039c-.1817.1818-.8433,1.1381-.6616,1.32s1.1381-.48,1.32-.6616,1.2894-1.5841,1.1077-1.7658S98.6675,159.2222,98.4857,159.4039Z"/><path class="d7a68661-a2c9-43ad-8a1e-27048e66aadd" d="M94.5547,156.1363c0,.3458.28,1.8845.626,1.8845s.626-1.5387.626-1.8845-.28-2.7329-.626-2.7329S94.5547,155.7906,94.5547,156.1363Z"/><path class="d7a68661-a2c9-43ad-8a1e-27048e66aadd" d="M97.1117,162.6352c.1818-.1817,1.1381-.8433,1.32-.6616s-.48,1.1381-.6616,1.32-1.5841,1.2894-1.7658,1.1077S96.93,162.817,97.1117,162.6352Z"/><path class="d7a68661-a2c9-43ad-8a1e-27048e66aadd" d="M98.2929,163.4789c.0794-.1715.5719-.8705.7434-.7911s-.0429.9072-.1223,1.0787-.7668,1.2915-.9384,1.2121S98.2135,163.65,98.2929,163.4789Z"/><path class="d7a68661-a2c9-43ad-8a1e-27048e66aadd" d="M99.4518,164.4453c-.008-.1888.1094-1.0358.2982-1.0439s.3776.826.3857,1.0149-.09,1.4993-.2786,1.5074S99.46,164.6342,99.4518,164.4453Z"/><path class="d7a68661-a2c9-43ad-8a1e-27048e66aadd" d="M96.1831,161.7066c.1817-.1818,1.138-.8434,1.32-.6616s-.48,1.138-.6616,1.32-1.5841,1.2894-1.7659,1.1076S96.0013,161.8883,96.1831,161.7066Z"/><path class="d7a68661-a2c9-43ad-8a1e-27048e66aadd" d="M97.472,158.39c-.1817.1818-.8433,1.138-.6616,1.32s1.138-.48,1.32-.6616,1.2894-1.5841,1.1077-1.7659S97.6538,158.2085,97.472,158.39Z"/><path class="d7a68661-a2c9-43ad-8a1e-27048e66aadd" d="M96.5434,157.4616c-.1818.1817-.8434,1.138-.6616,1.32s1.138-.48,1.32-.6616,1.29-1.5842,1.1077-1.7659S96.7251,157.28,96.5434,157.4616Z"/><path class="d7a68661-a2c9-43ad-8a1e-27048e66aadd" d="M95.1694,160.6929c.1817-.1818,1.138-.8434,1.32-.6616s-.48,1.138-.6616,1.32-1.5841,1.29-1.7658,1.1077S94.9876,160.8746,95.1694,160.6929Z"/><path class="d7a68661-a2c9-43ad-8a1e-27048e66aadd" d="M94.2407,159.7642c.1818-.1817,1.138-.8433,1.32-.6616s-.48,1.1381-.6616,1.32-1.5841,1.2894-1.7659,1.1077S94.059,159.946,94.2407,159.7642Z"/><path class="d7a68661-a2c9-43ad-8a1e-27048e66aadd" d="M92.9155,157.7756c.3457,0,1.8844.28,1.8844.6259s-1.5387.626-1.8844.626-2.7329-.28-2.7329-.626S92.57,157.7756,92.9155,157.7756Z"/><path class="d7a68661-a2c9-43ad-8a1e-27048e66aadd" d="M88.632,148.8006a.1382.1382,0,0,1-.1382.1382H76.5117a.1382.1382,0,1,1,0-.2763H88.4938A.1381.1381,0,0,1,88.632,148.8006Z"/><path class="d7a68661-a2c9-43ad-8a1e-27048e66aadd" d="M78.6961,147.1657c0,.257-.2084,1.401-.4654,1.401s-.4654-1.144-.4654-1.401.2083-2.0319.4654-2.0319S78.6961,146.9086,78.6961,147.1657Z"/><path class="d7a68661-a2c9-43ad-8a1e-27048e66aadd" d="M77.2643,147.4043c.0651.1774.2111,1.02.0337,1.0851s-.6112-.6718-.6763-.8493-.371-1.4554-.1936-1.5206S77.1992,147.2269,77.2643,147.4043Z"/><path class="d7a68661-a2c9-43ad-8a1e-27048e66aadd" d="M75.7615,147.54c.1392.1279.6551.81.5272.949s-.8511-.317-.99-.4449-.9968-1.1236-.8689-1.2628S75.6222,147.4125,75.7615,147.54Z"/><path class="d7a68661-a2c9-43ad-8a1e-27048e66aadd" d="M80.0094,147.1657c0,.257-.2084,1.401-.4654,1.401s-.4654-1.144-.4654-1.401.2083-2.0319.4654-2.0319S80.0094,146.9086,80.0094,147.1657Z"/><path class="d7a68661-a2c9-43ad-8a1e-27048e66aadd" d="M82.3967,147.6348c-.2445.2444-1.5307,1.1343-1.7751.89s.6454-1.5306.89-1.7751,2.1307-1.7343,2.3751-1.49S82.6411,147.39,82.3967,147.6348Z"/><path class="d7a68661-a2c9-43ad-8a1e-27048e66aadd" d="M78.6961,150.4221c0-.257-.2084-1.401-.4654-1.401s-.4654,1.144-.4654,1.401.2083,2.0319.4654,2.0319S78.6961,150.6791,78.6961,150.4221Z"/><path class="d7a68661-a2c9-43ad-8a1e-27048e66aadd" d="M77.2643,150.1835c.0651-.1775.2111-1.02.0337-1.0851s-.6112.6718-.6763.8492-.371,1.4555-.1936,1.5207S77.1992,150.3609,77.2643,150.1835Z"/><path class="d7a68661-a2c9-43ad-8a1e-27048e66aadd" d="M75.7615,150.0474c.1392-.1279.6551-.81.5272-.949s-.8511.317-.99.4449-.9968,1.1236-.8689,1.2628S75.6222,150.1752,75.7615,150.0474Z"/><path class="d7a68661-a2c9-43ad-8a1e-27048e66aadd" d="M80.0094,150.4221c0-.257-.2084-1.401-.4654-1.401s-.4654,1.144-.4654,1.401.2083,2.0319.4654,2.0319S80.0094,150.6791,80.0094,150.4221Z"/><path class="d7a68661-a2c9-43ad-8a1e-27048e66aadd" d="M82.3967,149.953c-.2445-.2445-1.5307-1.1343-1.7751-.89s.6454,1.5307.89,1.7752,2.1307,1.7343,2.3751,1.49S82.6411,150.1975,82.3967,149.953Z"/><path class="d7a68661-a2c9-43ad-8a1e-27048e66aadd" d="M88.4471,145.3213a.1383.1383,0,0,1-.1954,0l-8.4727-8.4727a.1382.1382,0,0,1,.1954-.1954l8.4727,8.4727A.1383.1383,0,0,1,88.4471,145.3213Z"/><path class="d7a68661-a2c9-43ad-8a1e-27048e66aadd" d="M82.5774,137.14c-.1818.1817-1.138.8433-1.32.6616s.48-1.1381.6616-1.32,1.5841-1.2894,1.7659-1.1077S82.7591,136.9577,82.5774,137.14Z"/><path class="d7a68661-a2c9-43ad-8a1e-27048e66aadd" d="M81.3962,136.2958c-.0794.1715-.5719.87-.7434.7911s.0429-.9072.1223-1.0787.7668-1.2915.9384-1.2121S81.4756,136.1243,81.3962,136.2958Z"/><path class="d7a68661-a2c9-43ad-8a1e-27048e66aadd" d="M80.2373,135.3294c.008.1888-.1093,1.0358-.2982,1.0439s-.3776-.826-.3857-1.0149.09-1.4993.2786-1.5074S80.2293,135.1405,80.2373,135.3294Z"/><path class="d7a68661-a2c9-43ad-8a1e-27048e66aadd" d="M83.506,138.0681c-.1817.1818-1.138.8434-1.32.6616s.48-1.138.6616-1.32,1.5841-1.2894,1.7659-1.1076S83.6878,137.8864,83.506,138.0681Z"/><path class="d7a68661-a2c9-43ad-8a1e-27048e66aadd" d="M84.8624,140.0879c-.3457,0-1.8844-.28-1.8844-.626s1.5387-.6259,1.8844-.6259,2.7329.28,2.7329.6259S85.2081,140.0879,84.8624,140.0879Z"/><path class="d7a68661-a2c9-43ad-8a1e-27048e66aadd" d="M80.2747,139.4421c.1818-.1817.8434-1.138.6616-1.32s-1.138.48-1.32.6616-1.29,1.5841-1.1077,1.7659S80.093,139.6239,80.2747,139.4421Z"/><path class="d7a68661-a2c9-43ad-8a1e-27048e66aadd" d="M79.431,138.261c.1716-.0795.8706-.572.7912-.7435s-.9072.0429-1.0788.1223-1.2915.7669-1.2121.9384S79.26,138.34,79.431,138.261Z"/><path class="d7a68661-a2c9-43ad-8a1e-27048e66aadd" d="M78.4646,137.1021c.1889.008,1.0359-.1094,1.0439-.2983s-.826-.3776-1.0148-.3856-1.4994.09-1.5074.2785S78.2758,137.094,78.4646,137.1021Z"/><path class="d7a68661-a2c9-43ad-8a1e-27048e66aadd" d="M81.2034,140.3708c.1817-.1818.8433-1.1381.6616-1.32s-1.1381.48-1.32.6616-1.2894,1.5841-1.1077,1.7658S81.0216,140.5525,81.2034,140.3708Z"/><path class="d7a68661-a2c9-43ad-8a1e-27048e66aadd" d="M83.2232,141.7271c0-.3457-.28-1.8844-.626-1.8844s-.626,1.5387-.626,1.8844.28,2.733.626,2.733S83.2232,142.0729,83.2232,141.7271Z"/><path class="d7a68661-a2c9-43ad-8a1e-27048e66aadd" d="M88.73,151.8232a.1635.1635,0,0,1-.03.2251L77.647,163.1012a.1431.1431,0,1,1-.1954-.1954l11.0529-11.0529A.1636.1636,0,0,1,88.73,151.8232Z"/><path class="d7a68661-a2c9-43ad-8a1e-27048e66aadd" d="M77.9081,160.3326c.1818.1817.8434,1.138.6616,1.32s-1.138-.48-1.32-.6616-1.2894-1.5841-1.1076-1.7659S77.7264,160.1508,77.9081,160.3326Z"/><path class="d7a68661-a2c9-43ad-8a1e-27048e66aadd" d="M77.0644,161.5137c.1716.0795.8706.572.7912.7435s-.9072-.0429-1.0788-.1223-1.2915-.7669-1.2121-.9384S76.8929,161.4343,77.0644,161.5137Z"/><path class="d7a68661-a2c9-43ad-8a1e-27048e66aadd" d="M76.098,162.6726c.1889-.008,1.0359.1094,1.0439.2983s-.826.3776-1.0148.3856-1.4994-.09-1.5074-.2785S75.9092,162.6807,76.098,162.6726Z"/><path class="d7a68661-a2c9-43ad-8a1e-27048e66aadd" d="M78.8368,159.4039c.1817.1818.8433,1.1381.6616,1.32s-1.1381-.48-1.32-.6616-1.2894-1.5841-1.1077-1.7658S78.655,159.2222,78.8368,159.4039Z"/><path class="d7a68661-a2c9-43ad-8a1e-27048e66aadd" d="M82.7678,156.1363c0,.3458-.28,1.8845-.626,1.8845s-.626-1.5387-.626-1.8845.28-2.7329.626-2.7329S82.7678,155.7906,82.7678,156.1363Z"/><path class="d7a68661-a2c9-43ad-8a1e-27048e66aadd" d="M80.2108,162.6352c-.1818-.1817-1.1381-.8433-1.32-.6616s.48,1.1381.6616,1.32,1.5841,1.2894,1.7658,1.1077S80.3925,162.817,80.2108,162.6352Z"/><path class="d7a68661-a2c9-43ad-8a1e-27048e66aadd" d="M79.03,163.4789c-.0794-.1715-.5719-.8705-.7435-.7911s.043.9072.1224,1.0787.7668,1.2915.9383,1.2121S79.109,163.65,79.03,163.4789Z"/><path class="d7a68661-a2c9-43ad-8a1e-27048e66aadd" d="M77.8707,164.4453c.008-.1888-.1094-1.0358-.2982-1.0439s-.3776.826-.3857,1.0149.09,1.4993.2786,1.5074S77.8627,164.6342,77.8707,164.4453Z"/><path class="d7a68661-a2c9-43ad-8a1e-27048e66aadd" d="M81.1394,161.7066c-.1817-.1818-1.138-.8434-1.32-.6616s.48,1.138.6616,1.32,1.5841,1.2894,1.7659,1.1076S81.3212,161.8883,81.1394,161.7066Z"/><path class="d7a68661-a2c9-43ad-8a1e-27048e66aadd" d="M79.8505,158.39c.1817.1818.8433,1.138.6616,1.32s-1.138-.48-1.32-.6616-1.2894-1.5841-1.1077-1.7659S79.6687,158.2085,79.8505,158.39Z"/><path class="d7a68661-a2c9-43ad-8a1e-27048e66aadd" d="M80.7791,157.4616c.1818.1817.8434,1.138.6616,1.32s-1.138-.48-1.32-.6616-1.2894-1.5842-1.1076-1.7659S80.5974,157.28,80.7791,157.4616Z"/><path class="d7a68661-a2c9-43ad-8a1e-27048e66aadd" d="M82.1531,160.6929c-.1817-.1818-1.138-.8434-1.32-.6616s.48,1.138.6616,1.32,1.5841,1.29,1.7658,1.1077S82.3349,160.8746,82.1531,160.6929Z"/><path class="d7a68661-a2c9-43ad-8a1e-27048e66aadd" d="M83.0818,159.7642c-.1818-.1817-1.138-.8433-1.32-.6616s.48,1.1381.6616,1.32,1.5841,1.2894,1.7659,1.1077S83.2635,159.946,83.0818,159.7642Z"/><path class="d7a68661-a2c9-43ad-8a1e-27048e66aadd" d="M84.407,157.7756c-.3457,0-1.8844.28-1.8844.6259s1.5387.626,1.8844.626,2.7329-.28,2.7329-.626S84.7527,157.7756,84.407,157.7756Z"/><path class="d7a68661-a2c9-43ad-8a1e-27048e66aadd" d="M88.6906,187.3182a.2414.2414,0,0,1-.2415-.2415V145.3212a.2415.2415,0,1,1,.483,0v41.7555A.2414.2414,0,0,1,88.6906,187.3182Z"/><path class="d7a68661-a2c9-43ad-8a1e-27048e66aadd" d="M60.9315,323.0522a.4059.4059,0,0,0,.4059-.4059v-35.205a.4059.4059,0,1,0-.8118,0v35.205A.4059.4059,0,0,0,60.9315,323.0522Z"/><path class="d7a68661-a2c9-43ad-8a1e-27048e66aadd" d="M56.1278,293.8594c.7552,0,4.1165-.6122,4.1165-1.3674s-3.3613-1.3674-4.1165-1.3674-5.97.6122-5.97,1.3674S55.3726,293.8594,56.1278,293.8594Z"/><path class="d7a68661-a2c9-43ad-8a1e-27048e66aadd" d="M56.8289,289.6527c.5214.1913,2.9969.62,3.1883.099s-1.974-1.7957-2.4953-1.987-4.2764-1.09-4.4678-.5687S56.3076,289.4613,56.8289,289.6527Z"/><path class="d7a68661-a2c9-43ad-8a1e-27048e66aadd" d="M57.2289,285.2372c.3756.409,2.3793,1.9248,2.7883,1.5492s-.9315-2.5007-1.3072-2.91-3.3013-2.9286-3.71-2.553S56.8532,284.8282,57.2289,285.2372Z"/><path class="d7a68661-a2c9-43ad-8a1e-27048e66aadd" d="M56.1278,297.718c.7552,0,4.1165-.6122,4.1165-1.3674s-3.3613-1.3674-4.1165-1.3674-5.97.6122-5.97,1.3674S55.3726,297.718,56.1278,297.718Z"/><path class="d7a68661-a2c9-43ad-8a1e-27048e66aadd" d="M57.5061,304.7323c.7183-.7183,3.3328-4.4973,2.6145-5.2156s-4.4972,1.8963-5.2155,2.6146-5.0955,6.26-4.3773,6.9783S56.7879,305.4505,57.5061,304.7323Z"/><path class="d7a68661-a2c9-43ad-8a1e-27048e66aadd" d="M65.6956,293.8594c-.7552,0-4.1164-.6122-4.1164-1.3674s3.3612-1.3674,4.1164-1.3674,5.97.6122,5.97,1.3674S66.4508,293.8594,65.6956,293.8594Z"/><path class="d7a68661-a2c9-43ad-8a1e-27048e66aadd" d="M64.9945,289.6527c-.5213.1913-2.9968.62-3.1882.099s1.9739-1.7957,2.4953-1.987,4.2764-1.09,4.4677-.5687S65.5159,289.4613,64.9945,289.6527Z"/><path class="d7a68661-a2c9-43ad-8a1e-27048e66aadd" d="M64.5946,285.2372c-.3757.409-2.3793,1.9248-2.7883,1.5492s.9315-2.5007,1.3072-2.91,3.3013-2.9286,3.71-2.553S64.97,284.8282,64.5946,285.2372Z"/><path class="d7a68661-a2c9-43ad-8a1e-27048e66aadd" d="M65.6956,297.718c-.7552,0-4.1164-.6122-4.1164-1.3674s3.3612-1.3674,4.1164-1.3674,5.97.6122,5.97,1.3674S66.4508,297.718,65.6956,297.718Z"/><path class="d7a68661-a2c9-43ad-8a1e-27048e66aadd" d="M64.3173,304.7323c-.7182-.7183-3.3327-4.4973-2.6145-5.2156s4.4973,1.8963,5.2156,2.6146,5.0955,6.26,4.3773,6.9783S65.0356,305.4505,64.3173,304.7323Z"/><path class="d7a68661-a2c9-43ad-8a1e-27048e66aadd" d="M274.4383,306.3706c-.4347-1.0442-1.65-6.3489-.6055-6.7836s3.9521,4.1654,4.3867,5.21a2.0479,2.0479,0,1,1-3.7812,1.574Z"/><path class="d7a68661-a2c9-43ad-8a1e-27048e66aadd" d="M278.22,304.7965c-.955-.606-4.9929-4.2545-4.3869-5.2095s5.6266,1.1453,6.5815,1.7513a2.0479,2.0479,0,1,1-2.1946,3.4582Z"/><path class="d7a68661-a2c9-43ad-8a1e-27048e66aadd" d="M280.4144,301.3382c-1.13.0513-6.53-.6213-6.5816-1.7512s5.2659-2.2891,6.3958-2.34a2.0479,2.0479,0,0,1,.1858,4.0916Z"/><path class="d7a68661-a2c9-43ad-8a1e-27048e66aadd" d="M280.2285,297.2465c-.8961.69-5.7056,3.2366-6.3957,2.34s3.0006-4.8955,3.8967-5.5856a2.0479,2.0479,0,0,1,2.499,3.2451Z"/><path class="d7a68661-a2c9-43ad-8a1e-27048e66aadd" d="M277.7294,294.0013c-.3382,1.0793-2.8173,5.9239-3.8966,5.5857s-.35-5.7312-.0118-6.81a2.0479,2.0479,0,1,1,3.9084,1.2248Z"/><path class="d7a68661-a2c9-43ad-8a1e-27048e66aadd" d="M273.8209,292.7765c.3419,1.0781,1.09,6.4685.0119,6.81s-3.574-4.494-3.916-5.5721a2.0479,2.0479,0,0,1,3.9041-1.2384Z"/><path class="d7a68661-a2c9-43ad-8a1e-27048e66aadd" d="M269.9167,294.015c.8985.687,4.6031,4.6735,3.9161,5.572s-5.5053-1.6313-6.4038-2.3182a2.0479,2.0479,0,1,1,2.4877-3.2538Z"/><path class="d7a68661-a2c9-43ad-8a1e-27048e66aadd" d="M267.4289,297.2689c1.13.0474,6.4513,1.1881,6.4039,2.3181s-5.4454,1.8215-6.5754,1.7741a2.0479,2.0479,0,1,1,.1715-4.0922Z"/><path class="d7a68661-a2c9-43ad-8a1e-27048e66aadd" d="M267.2574,301.3612c.9528-.6093,5.966-2.727,6.5754-1.7742s-3.4159,4.6154-4.3687,5.2248a2.0479,2.0479,0,0,1-2.2067-3.4506Z"/><path class="d7a68661-a2c9-43ad-8a1e-27048e66aadd" d="M269.4642,304.8119c.431-1.0457,3.3229-5.6559,4.3686-5.2249s-.1508,5.74-.5818,6.7857a2.0479,2.0479,0,0,1-3.7868-1.5608Z"/><path class="d7a68661-a2c9-43ad-8a1e-27048e66aadd" d="M273.8328,324.8192a.3724.3724,0,0,1-.3724-.3724v-24.86a.3724.3724,0,1,1,.7447,0v24.86A.3723.3723,0,0,1,273.8328,324.8192Z"/><path class="d7a68661-a2c9-43ad-8a1e-27048e66aadd" d="M274.6605,321.883c-.5941-1.4271-2.2546-8.6772-.8275-9.2713s5.4014,5.693,5.9955,7.12a2.7989,2.7989,0,1,1-5.168,2.1512Z"/><path class="d7a68661-a2c9-43ad-8a1e-27048e66aadd" d="M279.8286,319.7317c-1.3051-.8283-6.8239-5.8148-5.9956-7.12s7.69,1.5653,8.9951,2.3936a2.7989,2.7989,0,1,1-3,4.7264Z"/><path class="d7a68661-a2c9-43ad-8a1e-27048e66aadd" d="M282.8282,315.0051c-1.5442.07-8.9251-.8492-8.9952-2.3934s7.197-3.1286,8.7413-3.1987a2.7989,2.7989,0,0,1,.2539,5.5921Z"/><path class="d7a68661-a2c9-43ad-8a1e-27048e66aadd" d="M282.5742,309.4128c-1.2247.9432-7.7981,4.4236-8.7412,3.1989s4.101-6.6908,5.3257-7.634a2.7989,2.7989,0,1,1,3.4155,4.4351Z"/><path class="d7a68661-a2c9-43ad-8a1e-27048e66aadd" d="M279.1585,304.9776c-.4622,1.4751-3.8505,8.0964-5.3255,7.6341s-.4784-7.833-.0161-9.3081a2.7989,2.7989,0,0,1,5.3416,1.674Z"/><path class="d7a68661-a2c9-43ad-8a1e-27048e66aadd" d="M273.8167,303.3036c.4674,1.4734,1.49,8.8407.0163,9.3081s-4.8847-6.1421-5.3521-7.6155a2.7989,2.7989,0,0,1,5.3358-1.6926Z"/><path class="d7a68661-a2c9-43ad-8a1e-27048e66aadd" d="M268.4807,304.9963c1.228.9389,6.2912,6.3874,5.3523,7.6154s-7.5243-2.2295-8.7523-3.1684a2.7989,2.7989,0,1,1,3.4-4.447Z"/><path class="0b4a898e-08bf-415d-b1af-7f2a814fcb4f" d="M265.0806,309.4435c1.5445.0647,8.8171,1.6238,8.7524,3.1682s-7.4424,2.4894-8.9868,2.4247a2.7989,2.7989,0,1,1,.2344-5.5929Z"/><path class="d7a68661-a2c9-43ad-8a1e-27048e66aadd" d="M264.8462,315.0366c1.3023-.8328,8.154-3.7271,8.9868-2.4249s-4.6686,6.308-5.9708,7.1408a2.7989,2.7989,0,1,1-3.016-4.7159Z"/><path class="d7a68661-a2c9-43ad-8a1e-27048e66aadd" d="M267.8623,319.7527c.5891-1.4292,4.5415-7.73,5.9707-7.141s-.2062,7.845-.7952,9.2741a2.7989,2.7989,0,1,1-5.1755-2.1331Z"/><path class="d7a68661-a2c9-43ad-8a1e-27048e66aadd" d="M273.8328,335.2462c-.2057,0-.3724-.1251-.3724-.2794v-18.65c0-.1543.1667-.2793.3724-.2793s.3723.125.3723.2793v18.65C274.2051,335.1211,274.0385,335.2462,273.8328,335.2462Z"/><line class="bbd15156-7298-4ce0-9c45-558b124d24e9" x1="119.5327" y1="187.726" x2="119.5327" y2="169.8283"/><line class="4bdaf5f9-e16a-45fa-9d52-e89f75fd047e" x1="116.8466" y1="187.726" x2="115.9438" y2="177.2982"/><line class="4bdaf5f9-e16a-45fa-9d52-e89f75fd047e" x1="121.4431" y1="187.726" x2="121.4431" y2="177.2591"/><line class="4bdaf5f9-e16a-45fa-9d52-e89f75fd047e" x1="123.1876" y1="187.7455" x2="123.1876" y2="177.2787"/><line class="bbd15156-7298-4ce0-9c45-558b124d24e9" x1="193.4336" y1="243.9474" x2="193.4336" y2="226.0497"/><line class="4bdaf5f9-e16a-45fa-9d52-e89f75fd047e" x1="190.7474" y1="243.9474" x2="189.8447" y2="233.5195"/><line class="4bdaf5f9-e16a-45fa-9d52-e89f75fd047e" x1="195.344" y1="243.9474" x2="195.344" y2="233.4805"/><line class="4bdaf5f9-e16a-45fa-9d52-e89f75fd047e" x1="197.0885" y1="243.9669" x2="197.0885" y2="233.5"/><line class="bbd15156-7298-4ce0-9c45-558b124d24e9" x1="180.8741" y1="264.9287" x2="180.8741" y2="247.031"/><line class="4bdaf5f9-e16a-45fa-9d52-e89f75fd047e" x1="178.1879" y1="264.9287" x2="177.2851" y2="254.5008"/><line class="4bdaf5f9-e16a-45fa-9d52-e89f75fd047e" x1="182.7845" y1="264.9287" x2="182.7845" y2="254.4618"/><line class="4bdaf5f9-e16a-45fa-9d52-e89f75fd047e" x1="184.5289" y1="264.9482" x2="184.5289" y2="254.4813"/><path class="d7a68661-a2c9-43ad-8a1e-27048e66aadd" d="M218.8294,142.7135h-.7357v-.981h.7357Zm0-1.4716h-.7357v-.981h.7357Zm0-1.4715h-.7357v-.981h.7357Zm0-1.4716h-.7357v-.981h.7357Zm0-1.4715h-.7357v-.981h.7357Zm0-1.4716h-.7357v-.981h.7357Zm0-1.4715h-.7357v-.981h.7357Zm0-1.4716h-.7357v-.981h.7357Zm0-1.4715h-.7357v-.981h.7357Zm0-1.4716h-.7357v-.981h.7357Zm0-1.4715h-.7357v-.9811h.7357Zm0-1.4716h-.7357v-.981h.7357Zm0-1.4715h-.7357v-.9811h.7357Zm0-1.4716h-.7357v-.981h.7357Zm0-1.4715h-.7357v-.9811h.7357Zm0-1.4716h-.7357v-.981h.7357Zm0-1.4715h-.7357v-.9811h.7357Z"/><rect class="d7a68661-a2c9-43ad-8a1e-27048e66aadd" x="213.7562" y="128.2699" width="0.7356" height="14.4706" transform="translate(-10.8914 18.9769) rotate(-4.9489)"/><rect class="d7a68661-a2c9-43ad-8a1e-27048e66aadd" x="220.735" y="128.2432" width="0.7358" height="14.4703"/><rect class="d7a68661-a2c9-43ad-8a1e-27048e66aadd" x="223.1469" y="128.2701" width="0.7358" height="14.4703"/><polygon class="4edc408d-95c7-4f11-92f5-741941dfca13" points="161.261 180.765 161.985 179.963 161.93 181.042 163.009 180.987 162.207 181.711 163.009 182.435 161.93 182.38 161.985 183.459 161.261 182.657 160.537 183.459 160.592 182.38 159.513 182.435 160.315 181.711 159.513 180.987 160.592 181.042 160.537 179.963 161.261 180.765"/><polygon class="4edc408d-95c7-4f11-92f5-741941dfca13" points="43.084 146.694 43.808 145.892 43.753 146.971 44.832 146.916 44.03 147.64 44.832 148.364 43.753 148.309 43.808 149.388 43.084 148.586 42.36 149.388 42.415 148.309 41.336 148.364 42.138 147.64 41.336 146.916 42.415 146.971 42.36 145.892 43.084 146.694"/><polygon class="4edc408d-95c7-4f11-92f5-741941dfca13" points="22.712 164.51 23.074 164.109 23.047 164.648 23.586 164.621 23.185 164.983 23.586 165.345 23.047 165.317 23.074 165.857 22.712 165.456 22.35 165.857 22.378 165.317 21.839 165.345 22.24 164.983 21.839 164.621 22.378 164.648 22.35 164.109 22.712 164.51"/><polygon class="4edc408d-95c7-4f11-92f5-741941dfca13" points="69.495 178.052 69.857 177.651 69.829 178.19 70.369 178.163 69.968 178.525 70.369 178.887 69.829 178.859 69.857 179.399 69.495 178.998 69.133 179.399 69.161 178.859 68.621 178.887 69.022 178.525 68.621 178.163 69.161 178.19 69.133 177.651 69.495 178.052"/><polygon class="4edc408d-95c7-4f11-92f5-741941dfca13" points="140.329 352.096 140.691 351.695 140.663 352.234 141.203 352.207 140.802 352.569 141.203 352.931 140.663 352.903 140.691 353.443 140.329 353.042 139.967 353.443 139.994 352.903 139.455 352.931 139.856 352.569 139.455 352.207 139.994 352.234 139.967 351.695 140.329 352.096"/><polygon class="4edc408d-95c7-4f11-92f5-741941dfca13" points="21.839 326.591 22.201 326.19 22.173 326.73 22.712 326.702 22.312 327.064 22.712 327.426 22.173 327.399 22.201 327.938 21.839 327.537 21.477 327.938 21.504 327.399 20.965 327.426 21.366 327.064 20.965 326.702 21.504 326.73 21.477 326.19 21.839 326.591"/><polygon class="4edc408d-95c7-4f11-92f5-741941dfca13" points="254.258 276.328 254.62 275.927 254.592 276.466 255.132 276.439 254.731 276.801 255.132 277.163 254.592 277.135 254.62 277.675 254.258 277.274 253.896 277.675 253.923 277.135 253.384 277.163 253.785 276.801 253.384 276.439 253.923 276.466 253.896 275.927 254.258 276.328"/><polygon class="4edc408d-95c7-4f11-92f5-741941dfca13" points="173.848 240.711 174.572 239.909 174.517 240.988 175.596 240.933 174.794 241.657 175.596 242.381 174.517 242.326 174.572 243.405 173.848 242.603 173.124 243.405 173.179 242.326 172.1 242.381 172.902 241.657 172.1 240.933 173.179 240.988 173.124 239.909 173.848 240.711"/><polygon class="4edc408d-95c7-4f11-92f5-741941dfca13" points="17.819 355.257 18.543 354.455 18.488 355.534 19.567 355.479 18.765 356.203 19.567 356.927 18.488 356.872 18.543 357.951 17.819 357.149 17.095 357.951 17.15 356.872 16.071 356.927 16.873 356.203 16.071 355.479 17.15 355.534 17.095 354.455 17.819 355.257"/></svg>