<svg xmlns="http://www.w3.org/2000/svg" width="34.3076mm" height="33.6903mm" viewBox="0 0 97.25 95.5"><defs><style>.a{fill:#e15b2b;}</style></defs><title>WIP2</title><path class="a" d="M21.7119,29.3008a.7663.7663,0,0,1-1.0859-.082L15.2373,22.958a.7651.7651,0,0,1,.082-1.0859l3.4693-2.9864a.757.757,0,0,1,.5552-.1816.7339.7339,0,0,1,.5312.2627.76.76,0,0,1,.1855.57.7391.7391,0,0,1-.2578.5264l-2.8759,2.4756,1.6713,1.94,2.4727-2.126a.7337.7337,0,0,1,.5591-.1767.7426.7426,0,0,1,.5312.2636.7561.7561,0,0,1,.1866.5586.7355.7355,0,0,1-.2632.5322l-2.4722,2.126,1.68,1.9532,2.8755-2.4747a.7721.7721,0,0,1,1.2715.6514.734.734,0,0,1-.2579.5264l-3.4379,2.959-.03.0078Z"/><path class="a" d="M28.0371,23.6865a.6879.6879,0,0,1,.0254.5772.7834.7834,0,0,1-.3823.4375.7422.7422,0,0,1-.9912-.33l-2.4976-4.917a.7484.7484,0,0,1,1.1333-.9209,2.73,2.73,0,0,1,1.1265-1.0605,2.9287,2.9287,0,0,1,3.9277,1.2724l1.5151,2.9834a.7246.7246,0,0,1,.05.5625.68.68,0,0,1-.3569.4248.7269.7269,0,0,1-.5669.044.7082.7082,0,0,1-.437-.3653L29.0684,19.41a1.3448,1.3448,0,0,0-.834-.6993,1.4169,1.4169,0,0,0-1.0987.0957,1.3426,1.3426,0,0,0-.705.8213,1.3716,1.3716,0,0,0,.0913,1.0762Z"/><path class="a" d="M38.5151,19.5508a3.4253,3.4253,0,0,1-.58-4.9024,3.5275,3.5275,0,0,1,2.3671-1.3222,3.58,3.58,0,0,1,2.3008.5029.7227.7227,0,0,1,.3365.46.7046.7046,0,0,1-.0811.5673.7288.7288,0,0,1-.4536.335.6627.6627,0,0,1-.5532-.0889,2.3021,2.3021,0,0,0-1.4361-.2812,1.9412,1.9412,0,0,0-1.313.7607,1.9323,1.9323,0,0,0,.3247,2.8037,1.9485,1.9485,0,0,0,1.4537.4268,2.3231,2.3231,0,0,0,1.3374-.6094.6612.6612,0,0,1,.5117-.2011.7408.7408,0,0,1,.5268.2187.6834.6834,0,0,1,.209.5186.8169.8169,0,0,1-.2182.54,3.7462,3.7462,0,0,1-2.1236.998A3.454,3.454,0,0,1,38.5151,19.5508Z"/><path class="a" d="M48.5293,20.3789a3.1691,3.1691,0,0,1-2.25-1.3193,3.6236,3.6236,0,0,1,.61-4.9258,3.1464,3.1464,0,0,1,2.4824-.7461,3.09,3.09,0,0,1,2.2129,1.335,3.5866,3.5866,0,0,1,.6606,2.6132A3.2141,3.2141,0,0,1,50.98,19.6064,2.9592,2.9592,0,0,1,48.5293,20.3789Zm-.728-5.1094a2.1517,2.1517,0,0,0-.6773,1.3828,2.2642,2.2642,0,0,0,.32,1.5332,1.9272,1.9272,0,0,0,2.6128.32,2.1541,2.1541,0,0,0,.7217-1.4053,2.0594,2.0594,0,0,0-.3642-1.5117,1.89,1.89,0,0,0-2.6128-.3194Z"/><path class="a" d="M55.2334,21.06a.6867.6867,0,0,1-.41.4052.7755.7755,0,0,1-.5805.0088.7027.7027,0,0,1-.4058-.3877.71.71,0,0,1-.0146-.5683l1.976-5.1494a.7487.7487,0,0,1,1.4439.2236,2.7325,2.7325,0,0,1,1.541.127,2.9266,2.9266,0,0,1,1.6875,3.7666l-1.1982,3.124a.7349.7349,0,0,1-.3838.416.6923.6923,0,0,1-.5557.0185.7313.7313,0,0,1-.4121-.3906.7043.7043,0,0,1-.021-.5713l1.1992-3.123a1.3414,1.3414,0,0,0-.0405-1.0879,1.4169,1.4169,0,0,0-.8057-.751,1.3512,1.3512,0,0,0-1.083.0264,1.3738,1.3738,0,0,0-.7373.789Z"/><path class="a" d="M68.0117,21.5928a.717.717,0,0,1,.0034.5644.7744.7744,0,0,1-.3886.4229.7228.7228,0,0,1-.565.0039.7152.7152,0,0,1-.4072-.4131,2.5423,2.5423,0,0,0-.7935-1.1465,1.3041,1.3041,0,0,0-.8335-.25c-.1811.0029-.2934.0371-.3378.1035a.3444.3444,0,0,0-.0674.166.4752.4752,0,0,0,.0527.1856,2.7519,2.7519,0,0,0,.667.8437l.0039.0206.0117.0078a5.9308,5.9308,0,0,1,.9,1.1,1.9794,1.9794,0,0,1,.333,1.1445,1.8665,1.8665,0,0,1-.289.9678,1.9414,1.9414,0,0,1-1.6319.8672,3.1431,3.1431,0,0,1-1.8261-.5391A4.0052,4.0052,0,0,1,61.3,23.459a.7115.7115,0,0,1,.0586-.5567.7551.7551,0,0,1,1.0068-.3154.7062.7062,0,0,1,.3623.4424,2.3242,2.3242,0,0,0,.9434,1.3633,1.749,1.749,0,0,0,.94.3047c.2178-.0235.3535-.0772.4073-.1592a.3535.3535,0,0,0,.0771-.1914.4587.4587,0,0,0-.0586-.2412,3.0537,3.0537,0,0,0-.7178-.9453l-.0112-.0079a5.1846,5.1846,0,0,1-.855-1.0537,2.1858,2.1858,0,0,1-.3164-1.1328,1.659,1.659,0,0,1,.2891-.8662,1.8789,1.8789,0,0,1,1.539-.8281,2.9849,2.9849,0,0,1,1.7276.5234A3.7533,3.7533,0,0,1,68.0117,21.5928Z"/><path class="a" d="M72.76,24.748a.7748.7748,0,0,1,.2456.5459.719.719,0,0,1-.2056.5479.741.741,0,0,1-.5439.2363.7546.7546,0,0,1-.56-.2148l-.2529-.2422-2.6993,2.8232a.7345.7345,0,0,1,.2354.545.7625.7625,0,0,1-.22.5537.7636.7636,0,0,1-1.0884.0244,1.5516,1.5516,0,0,1-.05-2.1963L70.32,24.5469l-.2934-.28A.77.77,0,1,1,71.09,23.1533l.294.28,1.4023-1.4668a.7306.7306,0,0,1,.5445-.2354.762.762,0,0,1,.5547.2207.7625.7625,0,0,1,.0239,1.087l-1.4024,1.4687Z"/><path class="a" d="M75.7051,29.4209a2.2587,2.2587,0,0,1,1.0151.3437,2.5892,2.5892,0,0,1,.79.6856.9644.9644,0,0,1,.2314.6738.6829.6829,0,0,1-.28.48.7274.7274,0,0,1-.5508.1387.6969.6969,0,0,1-.4926-.2861q-.7787-1.0445-2.9253-.3877l-2.1333,1.5888a.7108.7108,0,0,1-.5547.1338.748.748,0,0,1-.4961-.3037.74.74,0,0,1,.1479-1.0439l4.4239-3.294a.6877.6877,0,0,1,.5454-.1348.7418.7418,0,0,1,.4863.3.7673.7673,0,0,1,.1533.5585.6834.6834,0,0,1-.2817.4893Z"/><path class="a" d="M78.1958,40.4561a2.7811,2.7811,0,0,1-2.229.0625,2.855,2.855,0,0,1-1.6484-1.5225,2.822,2.822,0,0,1-.084-2.2266,2.7932,2.7932,0,0,1,1.51-1.6425l3.04-1.3975a.7164.7164,0,0,1,.5615-.02.7266.7266,0,0,1,.439.9531.7164.7164,0,0,1-.38.414l-3.04,1.3975a1.413,1.413,0,0,0-.7,1.8955,1.421,1.421,0,0,0,.8051.7608,1.4,1.4,0,0,0,1.106-.0225l3.04-1.3984a.7356.7356,0,0,1,.5586-.0264.6768.6768,0,0,1,.417.3711.7421.7421,0,0,1,.0186.5771.7005.7005,0,0,1-.374.4268Z"/><path class="a" d="M77.3882,44.2363a3.4248,3.4248,0,0,1,4.8393-.9687,3.526,3.526,0,0,1,1.5079,2.2549,3.5877,3.5877,0,0,1-.3184,2.333.7236.7236,0,0,1-.4326.373.7116.7116,0,0,1-.5713-.0361.7336.7336,0,0,1-.3706-.4258.6677.6677,0,0,1,.0449-.5586,2.3055,2.3055,0,0,0,.166-1.4541,1.9423,1.9423,0,0,0-.8638-1.248,1.931,1.931,0,0,0-2.7675.5468,1.9423,1.9423,0,0,0-.31,1.4825,2.3115,2.3115,0,0,0,.7139,1.2851.666.666,0,0,1,.2412.4942.7409.7409,0,0,1-.1768.5429.6819.6819,0,0,1-.4995.249.8056.8056,0,0,1-.5561-.1738,3.7459,3.7459,0,0,1-1.1641-2.0371A3.4542,3.4542,0,0,1,77.3882,44.2363Z"/><path class="a" d="M84.4341,53.666a.7678.7678,0,0,1-.2222.5537.7224.7224,0,0,1-.5381.2334.7888.7888,0,0,1-.7793-.7812l-.0009-.35-3.9063.0117a.7345.7345,0,0,1-.23.5469.77.77,0,0,1-.5527.2265.766.766,0,0,1-.772-.7685A1.5547,1.5547,0,0,1,78.9814,51.78l3.9068-.0117-.0015-.4073a.77.77,0,1,1,1.54-.0039l.0009.4053,2.03-.0068a.7388.7388,0,0,1,.5469.23.7648.7648,0,0,1,.2256.5517.7637.7637,0,0,1-.7676.7725l-2.03.0068Z"/><path class="a" d="M83.9116,57.707a.7787.7787,0,0,1-.1421,1.0694.7523.7523,0,0,1-.5771.1416l-5.4116-.7207a.7562.7562,0,0,1,.2-1.4991l5.4116.7217A.7466.7466,0,0,1,83.9116,57.707Zm2.084,1.585-.2915-.0391a.753.753,0,0,1-.5122-.2871.7132.7132,0,0,1-.1519-.5566.7329.7329,0,0,1,.2935-.5049.7488.7488,0,0,1,.5708-.15l.291.0391a.7276.7276,0,0,1,.4981.2929.7366.7366,0,0,1,.1513.5635.7419.7419,0,0,1-.8491.6426Z"/><path class="a" d="M75.8115,62.9629a3.1654,3.1654,0,0,1,1.7207-1.96,3.6236,3.6236,0,0,1,4.7212,1.5293,3.1556,3.1556,0,0,1,.2642,2.5791,3.0918,3.0918,0,0,1-1.73,1.9209,3.5835,3.5835,0,0,1-2.69.1543,3.2131,3.2131,0,0,1-1.9908-1.6719A2.9593,2.9593,0,0,1,75.8115,62.9629Zm5.1553.251a2.1553,2.1553,0,0,0-1.2305-.9268,2.2657,2.2657,0,0,0-1.5674.0244,1.93,1.93,0,0,0-.8076,2.5049,2.1554,2.1554,0,0,0,1.2451.9746,2.0549,2.0549,0,0,0,1.5528-.0722,1.8934,1.8934,0,0,0,.8076-2.5049Z"/><path class="a" d="M73.8647,69.4443a.6832.6832,0,0,1-.32-.48.7819.7819,0,0,1,.1-.5722.7047.7047,0,0,1,.4585-.3242.7141.7141,0,0,1,.5606.0927l4.6831,2.9151a.7487.7487,0,0,1-.4932,1.375,2.7324,2.7324,0,0,1-.415,1.4892,2.9312,2.9312,0,0,1-4.0186.9453l-2.8413-1.7685a.7272.7272,0,0,1-.3349-.4561.6812.6812,0,0,1,.0864-.5478.7236.7236,0,0,1,.4614-.3311.703.703,0,0,1,.564.0869l2.8408,1.7686a1.3391,1.3391,0,0,0,1.0752.166,1.413,1.413,0,0,0,.8906-.6494,1.3464,1.3464,0,0,0,.1787-1.0684,1.3744,1.3744,0,0,0-.6357-.873Z"/><path class="a" d="M66.0078,78.8623a.7571.7571,0,0,1-.1982-.5537.72.72,0,0,1,.2558-.5244.7642.7642,0,0,1,1.0869.0683l.1851.211a.7311.7311,0,0,1,.188.5625.75.75,0,0,1-.2568.5234.7246.7246,0,0,1-.5469.1846.7449.7449,0,0,1-.5293-.2617Zm1.523,1.4a.72.72,0,0,1,.2563-.5244.7632.7632,0,0,1,1.0869.0693l3.7383,4.2432a.7308.7308,0,0,1,.1875.5625.7467.7467,0,0,1-.2563.5244.7247.7247,0,0,1-.5474.1836.7362.7362,0,0,1-.5283-.2617l-3.7393-4.2442A.7543.7543,0,0,1,67.5308,80.2627Z"/><circle class="a" cx="44.5916" cy="52.9373" r="20.4084"/></svg>