<svg id="ce9b2864-628a-4190-8836-2ceb4fae06cf" data-name="Fond" xmlns="http://www.w3.org/2000/svg" xmlns:xlink="http://www.w3.org/1999/xlink" width="263.99" height="117.0549" viewBox="0 0 263.99 117.0549"><defs><style>.\39 e03e798-7a80-4e9b-a896-238095b3e962{fill:none;}.\33 22843f2-a3b9-4214-9eaa-31fb3ecd0d27{fill:#daefdb;}.c869573c-caac-42dd-9f76-704a0fef9013{fill:#fff;}.\30 4ab9e6f-77d6-4d6f-8ae4-c1bc7d068c94{fill:#ffd9d9;}.\36 d2be5b4-5ba4-4ebd-8c82-8cabd49a4598{fill:#66b19e;}.\38 c7ac6c6-0b09-4ce3-b8e3-e5b12c00499b{fill:#ff5959;}.\38 699f1e4-542c-4a01-a4f4-d4b2d701bbed{fill:#dcede9;}.\38 379967d-5808-47da-a755-66537b19ca79{clip-path:url(#ddf3e86b-a40c-43a8-81d1-2b3d6b4b970d);}.\39 e4ddbdc-a4a6-4394-b1c1-d175ec9e4135{fill:#345d74;}.dac3af6d-49f6-4c35-a648-cace3acc4a97{isolation:isolate;}.\35 884d784-9bcd-4fcc-85bc-4dd2a9eb70c9{fill:#086ba5;}.\31 7b2fdab-2511-45cb-93a9-9090c807f9da{fill:#237baf;}</style><clipPath id="ddf3e86b-a40c-43a8-81d1-2b3d6b4b970d"><polygon class="9e03e798-7a80-4e9b-a896-238095b3e962" points="192.62 32.931 186.96 32.931 184.13 32.931 178.47 32.931 174.697 88.955 184.13 88.955 186.96 88.955 196.393 88.955 192.62 32.931"/></clipPath></defs><title>220608.bas-page-16</title><rect class="322843f2-a3b9-4214-9eaa-31fb3ecd0d27" x="-0.01" y="-617.4551" width="264" height="734.51"/><path class="c869573c-caac-42dd-9f76-704a0fef9013" d="M264,57.6549v59.4H-.01v-516.04c15.22.14,28.35,1.28,38.69,1.88,53.35,3.11,128.23-2.5,225.31-39.57v494.33Z"/><path class="04ab9e6f-77d6-4d6f-8ae4-c1bc7d068c94" d="M264,57.6549v59.4H-.01v-93.87c92.88,34.14,164.88,39.33,216.63,36.31,12.26-.71,28.43-2.18,47.37-1.84Z"/><path class="6d2be5b4-5ba4-4ebd-8c82-8cabd49a4598" d="M264,77.6758v41.342H18.8927c17.2722-4.2332,39.09-10.5831,60.7851-15.9154,45.1138-11.0851,61.07-19.7551,88.07-25.4536,22.9436-4.83,54.9914-7.7474,96.2383.027Z"/><polyline class="6d2be5b4-5ba4-4ebd-8c82-8cabd49a4598" points="263.99 113.625 254.65 117.055 263.99 113.625 264 113.625"/><path class="8c7ac6c6-0b09-4ce3-b8e3-e5b12c00499b" d="M26.7163,20.0324c.3042.1.6983.376.5737.7569a.5888.5888,0,0,1-.561.3632c-.1172.0039-.209-.0371-.3232-.0429-.3892-.0323-.6114.4209-.711.7256-.3579,1.0927-.19,2.2851-.5483,3.3779a1.3071,1.3071,0,0,1-1.896.9365c-.3423-.1113-.834-.4092-.6909-.8467.1338-.4092.5708-.3291.8843-.289.101.0117.1386-.0713.1665-.1563.3486-1.0644.187-2.37.5512-3.4824A1.9116,1.9116,0,0,1,26.7163,20.0324Z"/><path class="8c7ac6c6-0b09-4ce3-b8e3-e5b12c00499b" d="M28.8848,28.0822c-2.127-.6767-1.3545-3.0361-.8789-4.5967.0761-.2382.1518-.4765.2089-.7207.0269-.1181.0376-.2509.0743-.3652.1245-.3916.6079-.4258.9321-.3232.8682.2763.6777.94.4648,1.6084-.2275.7148-.8471,2.3974-.5561,3.1.1118.3086.4033.0869.5972-.0616A8.7243,8.7243,0,0,0,32.0249,23.4c.1-.3144.1533-.8125.4707-.9844a.8853.8853,0,0,1,.6987-.0508c.8965.2862.59,1.05.3838,1.6983a18.941,18.941,0,0,0-.7846,3.29c-.022.2657.187.5.1084.7481-.1187.372-.7007.3867-1.0157.2861-.5913-.1885-.6811-.7627-.7671-.79A2.7918,2.7918,0,0,1,28.8848,28.0822Z"/><path class="8c7ac6c6-0b09-4ce3-b8e3-e5b12c00499b" d="M37.1113,25.3254c-.229.9121-.5151,1.6719-.8047,2.5762-.1333.3984-.288.664-.3691.9941a.7743.7743,0,0,1-.9219.3437c-.4863-.1181-.7353-.3623-.5957-.8847a5.7081,5.7081,0,0,1,.19-.5479c.2431-.72.269-.8379.5215-1.5547.1362-.4072.2314-.65.3364-1.0576.1567-.61.3178-.8955,1.0049-.7148C36.8989,24.59,37.24,24.842,37.1113,25.3254Zm-1.083-2.3213c.1074-.417.5772-.4814.9361-.3916s.7519.3779.644.7949a.7257.7257,0,0,1-.9517.4072C36.3,23.715,35.92,23.42,36.0283,23.0041Z"/><path class="8c7ac6c6-0b09-4ce3-b8e3-e5b12c00499b" d="M40.5469,29.0119a10.1961,10.1961,0,0,0,1.4653-2.1611c.0962-.1807.1851-.3731.2622-.5586a1.4046,1.4046,0,0,1,.2515-.4893.8292.8292,0,0,1,.7881-.1181c.3257.0986.708.3916.5927.7744-.0346.1152-.0952.2119-.14.3242-.0977.2207-.1929.4326-.3.6514a10.7248,10.7248,0,0,1-2.4326,3.1865,1.5438,1.5438,0,0,1-.9707.4814.9786.9786,0,0,1-.2891-.0449c-.623-.1875-.7949-.9707-.8652-1.5361a26.9451,26.9451,0,0,1-.0982-2.9033c-.0039-.2305-.0073-.462-.0234-.6856s-.1748-.4609-.1089-.6807c.1069-.3554.5767-.4228.8833-.33a1.0807,1.0807,0,0,1,.51.32,1.7032,1.7032,0,0,1,.27,1.1162c.02.56.0176,1.123.0181,1.6767.0024.3047.0019.6172.0268.918.001.0313.0122.0977.0508.1094C40.4854,29.0764,40.519,29.0344,40.5469,29.0119Z"/><path class="8c7ac6c6-0b09-4ce3-b8e3-e5b12c00499b" d="M47.7935,27.7521c-.25-.0722-.4839-.1611-.7334-.2343a.2048.2048,0,0,0-.2793.1377c-.0752.1865-.1216.3808-.187.57-.0738.2178-.16.4424-.2242.6631-.0224.0771-.0161.1621.07.1875a3.8115,3.8115,0,0,1,.9986-.0323c.3169.0918.6889.3877.58.7618-.1592.5478-1.4595.4707-1.918.4726a.2369.2369,0,0,0-.2178.1768,16.7237,16.7237,0,0,0-.3774,1.69c-.021.1084-.0957.2227.0576.2666.2114.0615.4487.0684.66.13.3262.0947.7544.376.6373.7793-.17.5849-1.1934.3086-1.5962.1914s-1.2193-.3555-1.378-.7764a1.677,1.677,0,0,1,.0533-.7549,18.3724,18.3724,0,0,1,.4882-2.1787c.2906-.998.6358-1.9707.9356-2.9658.1435-.458.2773-.8457.8042-.7236.6035.1445.7544.1982,1.5508.4306a2.1351,2.1351,0,0,1,.7685.3272.5591.5591,0,0,1,.228.5771C48.606,27.8225,48.1006,27.842,47.7935,27.7521Z"/><path class="8c7ac6c6-0b09-4ce3-b8e3-e5b12c00499b" d="M51.3657,32.9963c.607.17.9575.289,1.5327.4609.3247.1016.7559.3789.6426.7832-.1352.4815-.8169.3936-1.1733.294a15.381,15.381,0,0,1-2.0293-.6524c-.4556-.19-1.4487-.5-1.292-1.0586a2.67,2.67,0,0,1,.7729-.9043c.2491-.2216,2.2325-2.22,2.27-2.3545.0245-.0869-.0375-.125-.1123-.1562-.4814-.208-2.22-.415-2.01-1.166.1084-.3848.5942-.4151.9121-.3262.7319.2051,1.3218.36,2.0342.5606.3755.1054,1.54.3593,1.3725.956a38.4486,38.4486,0,0,1-3.0224,3.2236C51.16,32.8039,51.1543,32.9367,51.3657,32.9963Z"/><path class="8c7ac6c6-0b09-4ce3-b8e3-e5b12c00499b" d="M58.6372,33.924a14.7241,14.7241,0,0,0-2.35-.4687,1.2046,1.2046,0,0,1-.1865-.04c-.2993-.081-.707-.3359-.6079-.7031.0757-.28.4248-.3828.6792-.3662a10.9946,10.9946,0,0,1,1.4951.2588c.3335.07.6626.1172.9912.206.3379.0909.979.3272.8511.8C59.4131,33.968,58.9365,34.0051,58.6372,33.924Z"/><path class="8c7ac6c6-0b09-4ce3-b8e3-e5b12c00499b" d="M67.6812,32.8068c.081,1.127-.0738,3.2061-.0684,4.7061.0049.3418.186.44.0786.8574a.6958.6958,0,0,1-.97.5137c-.5234-.1348-.6187-.3662-.644-.8272-.0474-1.0976.0693-2.3906.0366-3.4638-.0069-.0948-.062-.16-.1333-.045-.333.41-.5479.8409-.9033,1.2969a.6382.6382,0,0,1-.7344.1621,1.0611,1.0611,0,0,1-.1621-.0527c-.4546-.2-.4922-.6543-.5982-1.085-.1177-.4638-.1894-.9472-.3047-1.4218-.0185-.0879-.1079-.1416-.1406-.0157-.0962.2129-.166.4424-.2427.66-.1938.55-.3916,1.0361-.583,1.5762a8.669,8.669,0,0,1-.5039,1.1513c-.1181.2178-.2119.3789-.4741.4356a1.0191,1.0191,0,0,1-.4614-.0157c-.3291-.0849-.7349-.3554-.6348-.7431a.81.81,0,0,1,.0567-.14,6.4964,6.4964,0,0,0,.4521-.9892,15.8125,15.8125,0,0,1,1.9844-4.2422.7873.7873,0,0,1,.7876-.169,1.0057,1.0057,0,0,1,.6538.5518,9.8179,9.8179,0,0,1,.6147,2.0606c.021.1191.0962.1484.1841.0468a8.6961,8.6961,0,0,1,1.4487-1.4863.8622.8622,0,0,1,.5611-.0508A.9022.9022,0,0,1,67.6812,32.8068Z"/><path class="8c7ac6c6-0b09-4ce3-b8e3-e5b12c00499b" d="M69.563,36.2814a3.3606,3.3606,0,0,1,3.2412-2.7841,6.2559,6.2559,0,0,1,.9639.1416,2.39,2.39,0,0,1,1.7842,3.2041c-.4542,1.8662-2.0035,3.2392-3.9859,2.7568A2.5732,2.5732,0,0,1,69.563,36.2814Zm1.5693.3194c-.1772.73-.1543,1.6924.73,1.9072,1.05.2559,1.9194-1.1182,2.1323-1.9932.0943-.3886.2036-1.5146-.3115-1.6406-.1167-.0283-.23-.0244-.3472-.0537-.1362-.0322-.2651-.0947-.4013-.1279C72.1089,34.4914,71.2935,35.9406,71.1323,36.6008Z"/><path class="8c7ac6c6-0b09-4ce3-b8e3-e5b12c00499b" d="M78.0054,36.2863c.3506.0821.76.3516.6621.7705-.398,1.7032-.46,2.2744-.8574,3.9776-.0977.4189-.584.48-.9346.3984s-.76-.3525-.6616-.77c.3974-1.7041.459-2.2754.8569-3.9785C77.1685,36.2648,77.6553,36.2043,78.0054,36.2863Zm.2011-1.4316c-.3408-.08-.76-.3516-.6645-.7608s.59-.458.93-.3779.7622.3418.6665.751S78.5469,34.9338,78.2065,34.8547Z"/><circle class="8699f1e4-542c-4a01-a4f4-d4b2d701bbed" cx="185.1518" cy="23.2911" r="19.674"/><circle class="8699f1e4-542c-4a01-a4f4-d4b2d701bbed" cx="171.7355" cy="27.5276" r="2.6958"/><rect class="8699f1e4-542c-4a01-a4f4-d4b2d701bbed" x="171.7355" y="24.1831" width="21.9142" height="5.3916"/><circle class="8699f1e4-542c-4a01-a4f4-d4b2d701bbed" cx="171.7355" cy="26.8789" r="2.6958"/><circle class="8699f1e4-542c-4a01-a4f4-d4b2d701bbed" cx="176.1647" cy="21.4873" r="2.6958"/><circle class="8699f1e4-542c-4a01-a4f4-d4b2d701bbed" cx="189.4267" cy="26.8789" r="2.6958"/><circle class="8699f1e4-542c-4a01-a4f4-d4b2d701bbed" cx="193.2392" cy="21.4873" r="8.0874"/><rect class="8699f1e4-542c-4a01-a4f4-d4b2d701bbed" x="176.1647" y="18.7915" width="14.9954" height="5.3916"/><circle class="8699f1e4-542c-4a01-a4f4-d4b2d701bbed" cx="180.5811" cy="16.0957" r="2.6958"/><rect class="8699f1e4-542c-4a01-a4f4-d4b2d701bbed" x="180.5811" y="13.3999" width="12.9554" height="5.3916"/><circle class="8699f1e4-542c-4a01-a4f4-d4b2d701bbed" cx="191.1601" cy="21.4873" r="2.6958"/><path class="8c7ac6c6-0b09-4ce3-b8e3-e5b12c00499b" d="M185.545,14.1613a1.4489,1.4489,0,0,0-1.4489,1.4489v1.4489h2.8978V15.61A1.4489,1.4489,0,0,0,185.545,14.1613Z"/><g class="8379967d-5808-47da-a755-66537b19ca79"><rect class="8c7ac6c6-0b09-4ce3-b8e3-e5b12c00499b" x="168.1757" y="32.9308" width="34.6457" height="57.9899"/><rect class="c869573c-caac-42dd-9f76-704a0fef9013" x="169.8565" y="32.9308" width="46.0461" height="4.2749"/><rect class="c869573c-caac-42dd-9f76-704a0fef9013" x="169.8565" y="41.5594" width="46.0461" height="4.2749"/><rect class="c869573c-caac-42dd-9f76-704a0fef9013" x="169.8565" y="50.1877" width="46.0461" height="4.2749"/><rect class="c869573c-caac-42dd-9f76-704a0fef9013" x="169.8565" y="58.8164" width="46.0461" height="4.2749"/><rect class="c869573c-caac-42dd-9f76-704a0fef9013" x="169.8565" y="67.445" width="46.0461" height="4.2749"/><rect class="c869573c-caac-42dd-9f76-704a0fef9013" x="169.8565" y="76.0733" width="46.0461" height="4.2749"/><rect class="c869573c-caac-42dd-9f76-704a0fef9013" x="169.8565" y="84.702" width="46.0461" height="4.2749"/><rect class="04ab9e6f-77d6-4d6f-8ae4-c1bc7d068c94" x="169.8565" y="93.3302" width="46.0461" height="4.2749"/><rect class="04ab9e6f-77d6-4d6f-8ae4-c1bc7d068c94" x="169.8565" y="101.9589" width="46.0461" height="4.2749"/><rect class="04ab9e6f-77d6-4d6f-8ae4-c1bc7d068c94" x="169.8565" y="110.5872" width="46.0461" height="4.2749"/></g><path class="c869573c-caac-42dd-9f76-704a0fef9013" d="M185.545,16.5775a7.0529,7.0529,0,0,0-7.0529,7.0528v7.053h14.1058V23.63A7.0529,7.0529,0,0,0,185.545,16.5775Z"/><path class="c869573c-caac-42dd-9f76-704a0fef9013" d="M185.545,21.2135a3.2289,3.2289,0,0,0-3.2289,3.2288v3.2289h6.4577V24.4423A3.2288,3.2288,0,0,0,185.545,21.2135Z"/><rect class="8c7ac6c6-0b09-4ce3-b8e3-e5b12c00499b" x="175.9871" y="30.3551" width="19.1157" height="2.5757"/><path class="9e4ddbdc-a4a6-4394-b1c1-d175ec9e4135" d="M185.545,82.37a1.7627,1.7627,0,0,0-1.7627,1.7627v4.8226h3.5254V84.1327A1.7627,1.7627,0,0,0,185.545,82.37Z"/><path class="9e4ddbdc-a4a6-4394-b1c1-d175ec9e4135" d="M185.545,68.7805a1.7627,1.7627,0,0,0-1.7627,1.7627v2.816h3.5254v-2.816A1.7627,1.7627,0,0,0,185.545,68.7805Z"/><path class="9e4ddbdc-a4a6-4394-b1c1-d175ec9e4135" d="M185.545,54.431a1.7626,1.7626,0,0,0-1.7627,1.7626V59.01h3.5254V56.1936A1.7626,1.7626,0,0,0,185.545,54.431Z"/><path class="9e4ddbdc-a4a6-4394-b1c1-d175ec9e4135" d="M185.545,40.0814a1.7627,1.7627,0,0,0-1.7627,1.7627V44.66h3.5254v-2.816A1.7627,1.7627,0,0,0,185.545,40.0814Z"/><path class="9e4ddbdc-a4a6-4394-b1c1-d175ec9e4135" d="M184.08,24.2566A10.4792,10.4792,0,0,1,181.032,26.08a9.9434,9.9434,0,0,1-3.5432.65,10.6213,10.6213,0,0,1-3.57-.6257,12.2141,12.2141,0,0,1-3.214-1.7053l-.0067-.005a.9736.9736,0,1,1,1.1717-1.5551c.0173.013.036.0283.0522.0422a10.3837,10.3837,0,0,0,2.618,1.62,9.0182,9.0182,0,0,0,2.995.737,8.5624,8.5624,0,0,0,3.082-.3534,9.3311,9.3311,0,0,0,2.8128-1.438l.0011-.0009a.52.52,0,0,1,.6488.8108Z"/><path class="9e4ddbdc-a4a6-4394-b1c1-d175ec9e4135" d="M182.3169,25.005a13.8072,13.8072,0,0,1-4.2759-1.0238,14.2962,14.2962,0,0,1-3.7724-2.3257,17.5919,17.5919,0,0,1-2.9752-3.2866,20.9332,20.9332,0,0,1-2.15-3.8755.9733.9733,0,0,1,1.7905-.7637c.0073.017.0151.0375.0214.0547a19.1086,19.1086,0,0,0,1.75,3.6489,16.0241,16.0241,0,0,0,2.5266,3.1506,12.9825,12.9825,0,0,0,3.2976,2.3142,12.744,12.744,0,0,0,3.8874,1.1769.4678.4678,0,0,1-.0993.93Z"/><path class="9e4ddbdc-a4a6-4394-b1c1-d175ec9e4135" d="M168.0693,10.7148a17.6016,17.6016,0,0,1-.6152-2.9264c-.0609-.5-.1039-1.0051-.1205-1.5139s-.0124-1.0212.0132-1.5358l.0007-.0157a1.44,1.44,0,0,1,2.8755.1424,1.5142,1.5142,0,0,1-.0535.3236c-.1179.4135-.2206.8347-.3053,1.2626s-.1479.8626-.1953,1.3016a15.7,15.7,0,0,0-.0544,2.6736l.0005.0081a.7905.7905,0,0,1-1.5457.28Z"/><g class="dac3af6d-49f6-4c35-a648-cace3acc4a97"><polygon class="c869573c-caac-42dd-9f76-704a0fef9013" points="159.168 88.527 168.316 93.937 168.294 105.779 149.975 108.353 149.997 96.512 159.168 88.527"/><polygon class="c869573c-caac-42dd-9f76-704a0fef9013" points="149.975 108.353 141.199 103.579 141.221 91.737 149.997 96.512 149.975 108.353"/><polygon class="9e4ddbdc-a4a6-4394-b1c1-d175ec9e4135" points="149.997 96.512 141.221 91.737 150.391 83.752 159.168 88.527 149.997 96.512"/></g><polygon class="5884d784-9bcd-4fcc-85bc-4dd2a9eb70c9" points="148.71 107.673 147.202 106.853 147.202 100.382 148.71 101.203 148.71 107.673"/><polygon class="5884d784-9bcd-4fcc-85bc-4dd2a9eb70c9" points="144.472 98.606 142.963 97.786 142.963 94.417 144.472 95.238 144.472 98.606"/><polygon class="5884d784-9bcd-4fcc-85bc-4dd2a9eb70c9" points="162.506 98.475 165.314 98.086 165.314 101.615 162.506 102.005 162.506 98.475"/><polygon class="c869573c-caac-42dd-9f76-704a0fef9013" points="243.986 32.432 243.87 95.076 219.651 98.48 219.767 35.836 243.986 32.432"/><polygon class="9e4ddbdc-a4a6-4394-b1c1-d175ec9e4135" points="219.767 35.836 210.991 31.061 235.21 27.658 243.986 32.432 219.767 35.836"/><polygon class="c869573c-caac-42dd-9f76-704a0fef9013" points="252.451 45.637 252.351 99.569 228.132 102.973 228.232 49.041 252.451 45.637"/><polygon class="c869573c-caac-42dd-9f76-704a0fef9013" points="228.232 49.041 219.751 44.427 219.767 35.836 210.991 31.061 210.874 93.705 219.651 98.48 219.651 98.359 228.132 102.973 228.232 49.041"/><polygon class="9e4ddbdc-a4a6-4394-b1c1-d175ec9e4135" points="228.232 49.041 219.456 44.267 243.674 40.863 252.451 45.637 228.232 49.041"/><polygon class="17b2fdab-2511-45cb-93a9-9090c807f9da" points="214.043 41.815 212.534 40.994 212.534 34.524 214.043 35.344 214.043 41.815"/><polygon class="17b2fdab-2511-45cb-93a9-9090c807f9da" points="216.682 43.127 215.174 42.306 215.174 35.836 216.682 36.656 216.682 43.127"/><polygon class="17b2fdab-2511-45cb-93a9-9090c807f9da" points="222.271 66.987 220.763 66.167 220.763 59.696 222.271 60.517 222.271 66.987"/><polygon class="17b2fdab-2511-45cb-93a9-9090c807f9da" points="222.271 79.77 220.763 78.95 220.763 72.479 222.271 73.3 222.271 79.77"/><polygon class="17b2fdab-2511-45cb-93a9-9090c807f9da" points="216.682 90.447 215.174 89.627 215.174 83.157 216.682 83.977 216.682 90.447"/><polygon class="17b2fdab-2511-45cb-93a9-9090c807f9da" points="216.682 56.332 215.174 55.511 215.174 49.041 216.682 49.861 216.682 56.332"/><polygon class="17b2fdab-2511-45cb-93a9-9090c807f9da" points="216.682 77.028 215.174 76.208 215.174 69.737 216.682 70.558 216.682 77.028"/><polygon class="17b2fdab-2511-45cb-93a9-9090c807f9da" points="231.818 52.75 234.626 52.361 234.626 58.823 231.818 59.213 231.818 52.75"/><polygon class="17b2fdab-2511-45cb-93a9-9090c807f9da" points="223.989 37.2 226.797 36.81 226.797 43.273 223.989 43.662 223.989 37.2"/><polygon class="17b2fdab-2511-45cb-93a9-9090c807f9da" points="231.818 75.385 234.626 74.996 234.626 81.458 231.818 81.848 231.818 75.385"/><polygon class="17b2fdab-2511-45cb-93a9-9090c807f9da" points="246.687 61.018 249.495 60.628 249.495 67.091 246.687 67.48 246.687 61.018"/><polygon class="17b2fdab-2511-45cb-93a9-9090c807f9da" points="231.818 88.334 234.626 87.944 234.626 94.407 231.818 94.796 231.818 88.334"/></svg>