<svg xmlns="http://www.w3.org/2000/svg" xmlns:xlink="http://www.w3.org/1999/xlink" width="264" height="177.281" viewBox="0 0 264 177.281"><defs><style>.a{fill:none;}.b{clip-path:url(#a);}.c{clip-path:url(#b);}.d{fill:#f39986;}.e{fill:#f2c8bf;}.f{fill:#c9b5b0;}.g{fill:#a38179;}.h{fill:#788ea2;}.i{fill:#92c1e9;}.j{clip-path:url(#c);}.k{isolation:isolate;}.l{fill:#8abde7;}.m{fill:#cbe0f3;}.n{clip-path:url(#d);}.o{clip-path:url(#e);}.p{clip-path:url(#f);}.q{clip-path:url(#g);}.r{fill:#fff;}</style><clipPath id="a"><rect class="a" x="-0.281" y="-152.4294" width="264.562" height="329.059"/></clipPath><clipPath id="b"><rect class="a" x="233.4836" y="-172.0806" width="154.0493" height="208.0479"/></clipPath><clipPath id="c"><rect class="a" x="233.4836" y="35.9673" width="154.0493" height="208.0479"/></clipPath><clipPath id="d"><rect class="a" x="79.4343" y="-172.0806" width="154.0493" height="208.0479"/></clipPath><clipPath id="e"><rect class="a" x="79.4343" y="35.9673" width="154.0493" height="208.0479"/></clipPath><clipPath id="f"><rect class="a" x="-74.615" y="-172.0806" width="154.0493" height="208.0479"/></clipPath><clipPath id="g"><rect class="a" x="-74.615" y="35.9673" width="154.0493" height="208.0479"/></clipPath></defs><title>Imglogo</title><g class="b"><g class="c"><polygon class="d" points="268.247 22.896 276.421 26.692 276.392 42.279 255.814 45.171 255.833 34.903 268.247 22.896"/><polygon class="e" points="276.107 26.546 276.421 26.692 269.985 23.191 261.811 19.395 266.646 22.025 266.331 21.878 272.766 25.379 280.941 29.175 276.107 26.546"/><polygon class="f" points="272.766 25.379 280.941 29.175 280.912 44.765 260.334 47.657 260.353 37.389 272.766 25.379"/><polygon class="e" points="255.833 34.931 255.833 34.903 249.398 31.402 249.378 41.67 253.898 44.129 253.898 44.156 260.334 47.657 260.353 37.389 255.833 34.931"/><polygon class="g" points="268.231 22.912 268.247 22.896 261.811 19.395 249.398 31.402 253.935 33.871 253.917 33.888 260.353 37.389 272.766 25.379 268.231 22.912"/><polygon class="g" points="251.7 36.917 250.595 36.315 250.595 33.845 251.7 34.447 251.7 36.917"/><polygon class="g" points="254.23 42.125 253.124 41.524 253.124 39.054 254.23 39.656 254.23 42.125"/><polygon class="g" points="257.383 43.661 256.277 43.06 256.277 40.59 257.383 41.191 257.383 43.661"/><rect class="h" x="254.9094" y="-5.8656" width="9.8968" height="14.0489" rx="4.9484" ry="4.9484"/><rect class="i" x="259.6709" y="-1.7047" width="0.3738" height="13.3636"/><rect class="i" x="258.7934" y="5.1111" width="3.5591" height="0.3738" transform="translate(150.8364 241.6964) rotate(-66.264)"/><rect class="i" x="259.0266" y="0.607" width="0.3738" height="3.5591" transform="translate(16.7441 94.0703) rotate(-21.2404)"/></g><g class="j"><g class="k"><polygon class="f" points="233.727 167.531 240.435 171.499 240.419 180.183 226.986 182.071 227.002 173.387 233.727 167.531"/><polygon class="e" points="226.986 182.071 220.55 178.57 220.567 169.886 227.002 173.387 226.986 182.071"/><polygon class="g" points="227.002 173.387 220.567 169.886 227.291 164.03 233.727 167.531 227.002 173.387"/></g><polygon class="g" points="226.058 181.572 224.953 180.97 224.953 176.225 226.058 176.827 226.058 181.572"/><polygon class="g" points="222.95 174.923 221.844 174.321 221.844 171.851 222.95 172.453 222.95 174.923"/><polygon class="e" points="236.175 174.827 238.234 174.541 238.234 177.13 236.175 177.415 236.175 174.827"/><rect class="l" x="238.4306" y="69.397" width="9.6871" height="13.7512" rx="4.8436" ry="4.8436"/><rect class="m" x="243.0913" y="73.4698" width="0.3659" height="13.0805"/><rect class="m" x="242.3912" y="78.5822" width="0.3659" height="3.4837" transform="translate(-11.8129 104.4365) rotate(-23.736)"/><rect class="m" x="242.163" y="77.2914" width="3.4837" height="0.3659" transform="translate(83.3312 276.7429) rotate(-68.7596)"/><rect class="l" x="233.4836" y="88.1235" width="6.9518" height="9.8683" rx="3.4759" ry="3.4759"/><rect class="m" x="236.8282" y="91.0462" width="0.2626" height="9.3869"/><rect class="m" x="236.3258" y="94.715" width="0.2626" height="2.5" transform="translate(-18.6262 103.2973) rotate(-23.736)"/><rect class="m" x="236.1621" y="93.7887" width="2.5" height="0.2626" transform="translate(63.8622 281.1789) rotate(-68.7596)"/><rect class="h" x="230.2081" y="121.9975" width="6.5511" height="9.2995" rx="3.2755" ry="3.2755"/><rect class="i" x="233.3599" y="124.7518" width="0.2474" height="8.8458"/><rect class="i" x="232.7791" y="129.2634" width="2.3559" height="0.2474" transform="translate(21.3416 291.4722) rotate(-66.264)"/><rect class="i" x="232.9334" y="126.282" width="0.2475" height="2.3559" transform="translate(-30.3445 93.0908) rotate(-21.2404)"/><polygon class="d" points="268.247 22.896 276.421 26.692 276.392 42.279 255.814 45.171 255.833 34.903 268.247 22.896"/><polygon class="f" points="272.766 25.379 280.941 29.175 280.912 44.765 260.334 47.657 260.353 37.389 272.766 25.379"/><polygon class="e" points="255.833 34.931 255.833 34.903 249.398 31.402 249.378 41.67 253.898 44.129 253.898 44.156 260.334 47.657 260.353 37.389 255.833 34.931"/><polygon class="g" points="268.231 22.912 268.247 22.896 261.811 19.395 249.398 31.402 253.935 33.871 253.917 33.888 260.353 37.389 272.766 25.379 268.231 22.912"/><polygon class="g" points="251.7 36.917 250.595 36.315 250.595 33.845 251.7 34.447 251.7 36.917"/><polygon class="g" points="254.23 42.125 253.124 41.524 253.124 39.054 254.23 39.656 254.23 42.125"/><polygon class="g" points="257.383 43.661 256.277 43.06 256.277 40.59 257.383 41.191 257.383 43.661"/></g><g class="n"><rect class="l" x="170.7463" y="28.5476" width="9.6871" height="13.7512" rx="4.8436" ry="4.8436"/><rect class="m" x="175.4069" y="32.6204" width="0.3659" height="13.0805"/><rect class="m" x="174.4786" y="36.442" width="3.4837" height="0.3659" transform="translate(78.2421 187.606) rotate(-68.7596)"/><polygon class="d" points="114.198 22.896 122.372 26.692 122.343 42.279 101.765 45.171 101.784 34.903 114.198 22.896"/><polygon class="e" points="122.057 26.546 122.372 26.692 115.936 23.191 107.762 19.395 112.596 22.025 112.281 21.878 118.717 25.379 126.891 29.175 122.057 26.546"/><polygon class="f" points="118.717 25.379 126.891 29.175 126.862 44.765 106.284 47.657 106.303 37.389 118.717 25.379"/><polygon class="e" points="101.784 34.931 101.784 34.903 95.348 31.402 95.329 41.67 99.848 44.129 99.848 44.156 106.284 47.657 106.303 37.389 101.784 34.931"/><polygon class="g" points="114.181 22.912 114.198 22.896 107.762 19.395 95.348 31.402 99.886 33.871 99.867 33.888 106.303 37.389 118.717 25.379 114.181 22.912"/><polygon class="g" points="97.651 36.917 96.545 36.315 96.545 33.845 97.651 34.447 97.651 36.917"/><polygon class="g" points="100.181 42.125 99.075 41.524 99.075 39.054 100.181 39.656 100.181 42.125"/><polygon class="g" points="103.334 43.661 102.228 43.06 102.228 40.59 103.334 41.191 103.334 43.661"/><polygon class="e" points="111.357 42.868 113.416 42.582 113.416 46.659 111.357 46.944 111.357 42.868"/><polygon class="e" points="111.357 38.262 113.416 37.976 113.416 40.564 111.357 40.85 111.357 38.262"/><polygon class="e" points="117.327 31.688 119.386 31.402 119.386 33.991 117.327 34.276 117.327 31.688"/><g class="k"><polygon class="f" points="199.526 9.119 206.234 13.086 206.218 21.77 192.785 23.658 192.802 14.974 199.526 9.119"/><polygon class="e" points="192.785 23.658 186.35 20.157 186.366 11.473 192.802 14.974 192.785 23.658"/><polygon class="g" points="192.802 14.974 186.366 11.473 193.09 5.618 199.526 9.119 192.802 14.974"/></g><polygon class="g" points="191.858 23.159 190.752 22.557 190.752 17.812 191.858 18.414 191.858 23.159"/><polygon class="g" points="188.749 16.51 187.643 15.908 187.643 13.438 188.749 14.04 188.749 16.51"/><polygon class="e" points="201.974 16.414 204.033 16.128 204.033 18.717 201.974 19.002 201.974 16.414"/><rect class="l" x="226.5319" y="23.6577" width="6.9518" height="9.8683" rx="3.4759" ry="3.4759"/><rect class="m" x="229.8765" y="26.5804" width="0.2626" height="9.3869"/><rect class="m" x="229.3741" y="30.2493" width="0.2626" height="2.5" transform="translate(6.7348 95.0459) rotate(-23.736)"/><rect class="m" x="229.2103" y="29.3229" width="2.5" height="0.2626" transform="translate(119.5155 233.5883) rotate(-68.7596)"/><rect class="m" x="133.0603" y="-10.1838" width="0.3659" height="13.0805"/><rect class="h" x="100.86" y="-5.8656" width="9.8968" height="14.0489" rx="4.9484" ry="4.9484"/><rect class="i" x="105.6215" y="-1.7047" width="0.3738" height="13.3636"/><rect class="i" x="104.7441" y="5.1111" width="3.5591" height="0.3738" transform="translate(58.7956 100.6782) rotate(-66.264)"/><rect class="i" x="104.9773" y="0.607" width="0.3738" height="3.5591" transform="translate(6.2793 38.2611) rotate(-21.2404)"/></g><g class="o"><g class="k"><polygon class="f" points="233.727 167.531 240.435 171.499 240.419 180.183 226.986 182.071 227.002 173.387 233.727 167.531"/><polygon class="e" points="226.986 182.071 220.55 178.57 220.567 169.886 227.002 173.387 226.986 182.071"/><polygon class="g" points="227.002 173.387 220.567 169.886 227.291 164.03 233.727 167.531 227.002 173.387"/></g><polygon class="g" points="226.058 181.572 224.953 180.97 224.953 176.225 226.058 176.827 226.058 181.572"/><polygon class="g" points="222.95 174.923 221.844 174.321 221.844 171.851 222.95 172.453 222.95 174.923"/><rect class="l" x="116.9935" y="90.0669" width="6.9518" height="9.8683" rx="3.4759" ry="3.4759"/><rect class="m" x="120.3381" y="92.9897" width="0.2626" height="9.3869"/><rect class="m" x="119.8357" y="96.6585" width="0.2626" height="2.5" transform="translate(-29.2624 56.5717) rotate(-23.736)"/><rect class="m" x="119.6719" y="95.7322" width="2.5" height="0.2626" transform="translate(-12.2372 173.8415) rotate(-68.7596)"/><rect class="h" x="111.4718" y="94.3165" width="6.5511" height="9.2995" rx="3.2755" ry="3.2755"/><rect class="i" x="114.6237" y="97.0707" width="0.2474" height="8.8458"/><rect class="i" x="114.0429" y="101.5823" width="2.3559" height="0.2474" transform="translate(-24.261 166.2412) rotate(-66.264)"/><rect class="i" x="114.1972" y="98.6009" width="0.2475" height="2.3559" transform="translate(-28.3821 48.1944) rotate(-21.2404)"/><rect class="h" x="119.7656" y="164.5328" width="6.5511" height="9.2995" rx="3.2755" ry="3.2755"/><rect class="i" x="122.9174" y="167.2871" width="0.2474" height="8.8458"/><rect class="i" x="122.3366" y="171.7987" width="2.3559" height="0.2474" transform="translate(-83.5824 215.7859) rotate(-66.264)"/><rect class="i" x="122.4909" y="168.8173" width="0.2475" height="2.3559" transform="translate(-53.2567 55.969) rotate(-21.2404)"/><rect class="h" x="230.2081" y="121.9975" width="6.5511" height="9.2995" rx="3.2755" ry="3.2755"/><rect class="i" x="233.3599" y="124.7518" width="0.2474" height="8.8458"/><rect class="i" x="232.7791" y="129.2634" width="2.3559" height="0.2474" transform="translate(21.3416 291.4722) rotate(-66.264)"/><rect class="i" x="232.9334" y="126.282" width="0.2475" height="2.3559" transform="translate(-30.3445 93.0908) rotate(-21.2404)"/><rect class="l" x="122.9628" y="93.299" width="6.9518" height="9.8683" rx="3.4759" ry="3.4759"/><rect class="m" x="126.3074" y="96.2218" width="0.2626" height="9.3869"/><rect class="m" x="125.805" y="99.8906" width="0.2626" height="2.5" transform="translate(-30.0585 59.2479) rotate(-23.736)"/><rect class="m" x="125.6412" y="98.9643" width="2.5" height="0.2626" transform="translate(-11.443 181.4664) rotate(-68.7596)"/><polygon class="d" points="193.085 127.798 201.259 131.593 201.23 147.181 180.652 150.073 180.671 139.805 193.085 127.798"/><polygon class="e" points="200.944 131.447 201.259 131.593 194.823 128.092 186.649 124.296 191.483 126.926 191.168 126.78 197.604 130.281 205.778 134.077 200.944 131.447"/><polygon class="f" points="197.604 130.281 205.778 134.077 205.749 149.667 185.171 152.559 185.19 142.291 197.604 130.281"/><polygon class="e" points="180.671 139.832 180.671 139.805 174.235 136.304 174.216 146.572 178.735 149.03 178.735 149.058 185.171 152.559 185.19 142.291 180.671 139.832"/><polygon class="g" points="193.068 127.814 193.085 127.798 186.649 124.296 174.235 136.304 178.772 138.772 178.754 138.79 185.19 142.291 197.604 130.281 193.068 127.814"/><polygon class="g" points="176.538 141.818 175.432 141.217 175.432 138.747 176.538 139.348 176.538 141.818"/><polygon class="g" points="179.067 147.027 177.962 146.426 177.962 143.956 179.067 144.557 179.067 147.027"/><polygon class="g" points="182.22 148.563 181.115 147.961 181.115 145.491 182.22 146.093 182.22 148.563"/><polygon class="e" points="190.244 147.769 192.303 147.484 192.303 151.56 190.244 151.846 190.244 147.769"/><polygon class="e" points="190.244 143.163 192.303 142.878 192.303 145.466 190.244 145.752 190.244 143.163"/><polygon class="e" points="196.214 136.59 198.272 136.304 198.272 138.892 196.214 139.178 196.214 136.59"/><polygon class="f" points="151.878 61.38 151.792 107.317 134.033 109.813 134.118 63.876 151.878 61.38"/><polygon class="g" points="134.118 63.876 127.682 60.375 145.442 57.879 151.878 61.38 134.118 63.876"/><polygon class="f" points="158.085 71.064 158.012 110.612 140.252 113.108 140.325 73.56 158.085 71.064"/><polygon class="e" points="140.325 73.56 134.106 70.177 134.118 63.876 127.682 60.375 127.597 106.312 134.033 109.813 134.033 109.725 140.252 113.108 140.325 73.56"/><polygon class="g" points="140.325 73.56 133.889 70.059 151.649 67.563 158.085 71.064 140.325 73.56"/><polygon class="g" points="129.92 68.261 128.814 67.659 128.814 62.915 129.92 63.516 129.92 68.261"/><polygon class="g" points="131.855 69.223 130.749 68.621 130.749 63.876 131.855 64.478 131.855 69.223"/><polygon class="g" points="135.954 86.72 134.848 86.118 134.848 81.374 135.954 81.975 135.954 86.72"/><polygon class="g" points="135.954 96.094 134.848 95.492 134.848 90.747 135.954 91.349 135.954 96.094"/><polygon class="g" points="131.855 103.923 130.749 103.322 130.749 98.577 131.855 99.179 131.855 103.923"/><polygon class="g" points="131.855 78.906 130.749 78.305 130.749 73.56 131.855 74.161 131.855 78.906"/><polygon class="g" points="131.855 94.083 130.749 93.481 130.749 88.737 131.855 89.338 131.855 94.083"/><polygon class="e" points="142.955 76.28 145.014 75.994 145.014 80.733 142.955 81.019 142.955 76.28"/><polygon class="e" points="137.214 64.877 139.273 64.591 139.273 69.33 137.214 69.616 137.214 64.877"/><polygon class="e" points="142.955 92.878 145.014 92.593 145.014 97.331 142.955 97.617 142.955 92.878"/><polygon class="e" points="153.859 82.343 155.918 82.057 155.918 86.796 153.859 87.082 153.859 82.343"/><polygon class="e" points="142.955 102.373 145.014 102.088 145.014 106.827 142.955 107.112 142.955 102.373"/><g class="k"><polygon class="f" points="79.678 167.531 86.386 171.499 86.37 180.183 72.937 182.071 72.953 173.387 79.678 167.531"/><polygon class="e" points="72.937 182.071 66.501 178.57 66.517 169.886 72.953 173.387 72.937 182.071"/><polygon class="g" points="72.953 173.387 66.517 169.886 73.242 164.03 79.678 167.531 72.953 173.387"/></g><polygon class="g" points="72.009 181.572 70.903 180.97 70.903 176.225 72.009 176.827 72.009 181.572"/><polygon class="g" points="68.901 174.923 67.795 174.321 67.795 171.851 68.901 172.453 68.901 174.923"/><polygon class="e" points="82.126 174.827 84.184 174.541 84.184 177.13 82.126 177.415 82.126 174.827"/><rect class="l" x="123.2293" y="133.7729" width="9.6871" height="13.7512" rx="4.8436" ry="4.8436"/><rect class="m" x="127.8899" y="137.8456" width="0.3659" height="13.0805"/><rect class="m" x="127.1898" y="142.9581" width="0.3659" height="3.4837" transform="translate(-47.4706 63.5108) rotate(-23.736)"/><rect class="m" x="126.9616" y="141.6672" width="3.4837" height="0.3659" transform="translate(-50.1375 210.421) rotate(-68.7596)"/><rect class="l" x="170.7463" y="28.5476" width="9.6871" height="13.7512" rx="4.8436" ry="4.8436"/><rect class="m" x="175.4069" y="32.6204" width="0.3659" height="13.0805"/><rect class="m" x="174.7068" y="37.7328" width="0.3659" height="3.4837" transform="translate(-1.0955 73.7365) rotate(-23.736)"/><rect class="m" x="174.4786" y="36.442" width="3.4837" height="0.3659" transform="translate(78.2421 187.606) rotate(-68.7596)"/><rect class="l" x="84.3813" y="69.397" width="9.6871" height="13.7512" rx="4.8436" ry="4.8436"/><rect class="m" x="89.0419" y="73.4698" width="0.3659" height="13.0805"/><rect class="m" x="88.3419" y="78.5822" width="0.3659" height="3.4837" transform="translate(-24.844 42.428) rotate(-23.736)"/><rect class="m" x="88.1136" y="77.2914" width="3.4837" height="0.3659" transform="translate(-14.9089 133.1583) rotate(-68.7596)"/><rect class="l" x="173.7292" y="135.2712" width="6.9518" height="9.8683" rx="3.4759" ry="3.4759"/><rect class="m" x="177.0738" y="138.1939" width="0.2626" height="9.3869"/><rect class="m" x="176.5714" y="141.8628" width="0.2626" height="2.5" transform="translate(-42.6589 83.233) rotate(-23.736)"/><rect class="m" x="176.4076" y="140.9364" width="2.5" height="0.2626" transform="translate(-18.1893 255.5507) rotate(-68.7596)"/><rect class="l" x="79.4343" y="88.1235" width="6.9518" height="9.8683" rx="3.4759" ry="3.4759"/><rect class="m" x="82.7789" y="91.0462" width="0.2626" height="9.3869"/><rect class="m" x="82.2765" y="94.715" width="0.2626" height="2.5" transform="translate(-31.6573 41.2888) rotate(-23.736)"/><rect class="m" x="82.1127" y="93.7887" width="2.5" height="0.2626" transform="translate(-34.3779 137.5943) rotate(-68.7596)"/><rect class="l" x="193.9418" y="107.1587" width="6.9518" height="9.8683" rx="3.4759" ry="3.4759"/><rect class="m" x="197.2864" y="110.0814" width="0.2626" height="9.3869"/><rect class="m" x="196.784" y="113.7503" width="0.2626" height="2.5" transform="translate(-29.6332 88.991) rotate(-23.736)"/><rect class="m" x="196.6203" y="112.8239" width="2.5" height="0.2626" transform="translate(20.9035 256.4623) rotate(-68.7596)"/><rect class="h" x="160.7081" y="134.4016" width="9.8968" height="14.0489" rx="4.9484" ry="4.9484"/><rect class="i" x="165.4697" y="138.5625" width="0.3738" height="13.3636"/><rect class="i" x="164.5922" y="145.3783" width="3.5591" height="0.3738" transform="translate(-33.8486 239.2701) rotate(-66.264)"/><rect class="i" x="164.8254" y="140.8742" width="0.3738" height="3.5591" transform="translate(-40.4713 69.4715) rotate(-21.2404)"/><rect class="h" x="115.917" y="138.744" width="9.8968" height="14.0489" rx="4.9484" ry="4.9484"/><rect class="i" x="120.6785" y="142.9049" width="0.3738" height="13.3636"/><rect class="i" x="119.8011" y="149.7207" width="3.5591" height="0.3738" transform="translate(-64.5853 200.8623) rotate(-66.264)"/><rect class="i" x="120.0342" y="145.2166" width="0.3738" height="3.5591" transform="translate(-45.0872 53.5395) rotate(-21.2404)"/><rect class="h" x="167.8921" y="37.2002" width="6.5511" height="9.2995" rx="3.2755" ry="3.2755"/><rect class="i" x="171.0439" y="39.9545" width="0.2474" height="8.8458"/><rect class="i" x="170.4631" y="44.4661" width="2.3559" height="0.2474" transform="translate(61.7335 183.7632) rotate(-66.264)"/><rect class="i" x="170.6174" y="41.4847" width="0.2475" height="2.3559" transform="translate(-3.8572 64.7545) rotate(-21.2404)"/><rect class="h" x="176.421" y="42.3428" width="6.5511" height="9.2995" rx="3.2755" ry="3.2755"/><rect class="i" x="179.5728" y="45.097" width="0.2474" height="8.8458"/><rect class="i" x="178.992" y="49.6086" width="2.3559" height="0.2474" transform="translate(62.1218 194.6432) rotate(-66.264)"/><rect class="i" x="179.1464" y="46.6272" width="0.2475" height="2.3559" transform="translate(-5.1409 68.1937) rotate(-21.2404)"/><rect class="h" x="203.2119" y="145.3469" width="6.5511" height="9.2995" rx="3.2755" ry="3.2755"/><rect class="i" x="206.3637" y="148.1012" width="0.2474" height="8.8458"/><rect class="i" x="205.7829" y="152.6128" width="2.3559" height="0.2474" transform="translate(-16.1622 280.7104) rotate(-66.264)"/><rect class="i" x="205.9373" y="149.6314" width="0.2475" height="2.3559" transform="translate(-40.6374 84.8967) rotate(-21.2404)"/><rect class="h" x="76.1588" y="121.9975" width="6.5511" height="9.2995" rx="3.2755" ry="3.2755"/><rect class="i" x="79.3106" y="124.7518" width="0.2474" height="8.8458"/><rect class="i" x="78.7298" y="129.2634" width="2.3559" height="0.2474" transform="translate(-70.6992 150.454) rotate(-66.264)"/><rect class="i" x="78.8841" y="126.282" width="0.2475" height="2.3559" transform="translate(-40.8092 37.2816) rotate(-21.2404)"/><polygon class="d" points="114.198 22.896 122.372 26.692 122.343 42.279 101.765 45.171 101.784 34.903 114.198 22.896"/><polygon class="f" points="118.717 25.379 126.891 29.175 126.862 44.765 106.284 47.657 106.303 37.389 118.717 25.379"/><polygon class="e" points="101.784 34.931 101.784 34.903 95.348 31.402 95.329 41.67 99.848 44.129 99.848 44.156 106.284 47.657 106.303 37.389 101.784 34.931"/><polygon class="g" points="114.181 22.912 114.198 22.896 107.762 19.395 95.348 31.402 99.886 33.871 99.867 33.888 106.303 37.389 118.717 25.379 114.181 22.912"/><polygon class="g" points="97.651 36.917 96.545 36.315 96.545 33.845 97.651 34.447 97.651 36.917"/><polygon class="g" points="100.181 42.125 99.075 41.524 99.075 39.054 100.181 39.656 100.181 42.125"/><polygon class="g" points="103.334 43.661 102.228 43.06 102.228 40.59 103.334 41.191 103.334 43.661"/><polygon class="e" points="111.357 42.868 113.416 42.582 113.416 46.659 111.357 46.944 111.357 42.868"/><polygon class="e" points="111.357 38.262 113.416 37.976 113.416 40.564 111.357 40.85 111.357 38.262"/></g><g class="p"><rect class="l" x="16.697" y="28.5476" width="9.6871" height="13.7512" rx="4.8436" ry="4.8436"/><rect class="m" x="21.3576" y="32.6204" width="0.3659" height="13.0805"/><rect class="m" x="20.4293" y="36.442" width="3.4837" height="0.3659" transform="translate(-19.998 44.0214) rotate(-68.7596)"/><g class="k"><polygon class="f" points="45.477 9.119 52.185 13.086 52.169 21.77 38.736 23.658 38.752 14.974 45.477 9.119"/><polygon class="e" points="38.736 23.658 32.3 20.157 32.316 11.473 38.752 14.974 38.736 23.658"/><polygon class="g" points="38.752 14.974 32.316 11.473 39.041 5.618 45.477 9.119 38.752 14.974"/></g><polygon class="g" points="37.808 23.159 36.702 22.557 36.702 17.812 37.808 18.414 37.808 23.159"/><polygon class="g" points="34.7 16.51 33.594 15.908 33.594 13.438 34.7 14.04 34.7 16.51"/><polygon class="e" points="47.925 16.414 49.984 16.128 49.984 18.717 47.925 19.002 47.925 16.414"/><rect class="l" x="72.4825" y="23.6577" width="6.9518" height="9.8683" rx="3.4759" ry="3.4759"/><rect class="m" x="75.8271" y="26.5804" width="0.2626" height="9.3869"/><rect class="m" x="75.3247" y="30.2493" width="0.2626" height="2.5" transform="translate(-6.2963 33.0374) rotate(-23.736)"/><rect class="m" x="75.161" y="29.3229" width="2.5" height="0.2626" transform="translate(21.2754 90.0038) rotate(-68.7596)"/></g><g class="q"><g class="k"><polygon class="f" points="79.678 167.531 86.386 171.499 86.37 180.183 72.937 182.071 72.953 173.387 79.678 167.531"/><polygon class="e" points="72.937 182.071 66.501 178.57 66.517 169.886 72.953 173.387 72.937 182.071"/><polygon class="g" points="72.953 173.387 66.517 169.886 73.242 164.03 79.678 167.531 72.953 173.387"/></g><polygon class="g" points="72.009 181.572 70.903 180.97 70.903 176.225 72.009 176.827 72.009 181.572"/><polygon class="g" points="68.901 174.923 67.795 174.321 67.795 171.851 68.901 172.453 68.901 174.923"/><rect class="h" x="76.1588" y="121.9975" width="6.5511" height="9.2995" rx="3.2755" ry="3.2755"/><rect class="i" x="79.3106" y="124.7518" width="0.2474" height="8.8458"/><rect class="i" x="78.7298" y="129.2634" width="2.3559" height="0.2474" transform="translate(-70.6992 150.454) rotate(-66.264)"/><rect class="i" x="78.8841" y="126.282" width="0.2475" height="2.3559" transform="translate(-40.8092 37.2816) rotate(-21.2404)"/><polygon class="d" points="39.036 127.798 47.21 131.593 47.181 147.181 26.603 150.073 26.622 139.805 39.036 127.798"/><polygon class="e" points="46.895 131.447 47.21 131.593 40.774 128.092 32.6 124.296 37.434 126.926 37.119 126.78 43.555 130.281 51.729 134.077 46.895 131.447"/><polygon class="f" points="43.555 130.281 51.729 134.077 51.7 149.667 31.122 152.559 31.141 142.291 43.555 130.281"/><polygon class="e" points="26.622 139.832 26.622 139.805 20.186 136.304 20.167 146.572 24.686 149.03 24.686 149.058 31.122 152.559 31.141 142.291 26.622 139.832"/><polygon class="g" points="39.019 127.814 39.036 127.798 32.6 124.296 20.186 136.304 24.723 138.772 24.705 138.79 31.141 142.291 43.555 130.281 39.019 127.814"/><polygon class="g" points="22.489 141.818 21.383 141.217 21.383 138.747 22.489 139.348 22.489 141.818"/><polygon class="g" points="25.018 147.027 23.912 146.426 23.912 143.956 25.018 144.557 25.018 147.027"/><polygon class="g" points="28.171 148.563 27.065 147.961 27.065 145.491 28.171 146.093 28.171 148.563"/><polygon class="e" points="36.195 147.769 38.254 147.484 38.254 151.56 36.195 151.846 36.195 147.769"/><polygon class="e" points="36.195 143.163 38.254 142.878 38.254 145.466 36.195 145.752 36.195 143.163"/><polygon class="e" points="42.164 136.59 44.223 136.304 44.223 138.892 42.164 139.178 42.164 136.59"/><polygon class="f" points="4.036 71.064 3.962 110.612 -13.797 113.108 -13.724 73.56 4.036 71.064"/><polygon class="g" points="-13.724 73.56 -20.16 70.059 -2.4 67.563 4.036 71.064 -13.724 73.56"/><polygon class="e" points="-0.191 82.343 1.868 82.057 1.868 86.796 -0.191 87.082 -0.191 82.343"/><rect class="l" x="16.697" y="28.5476" width="9.6871" height="13.7512" rx="4.8436" ry="4.8436"/><rect class="m" x="21.3576" y="32.6204" width="0.3659" height="13.0805"/><rect class="m" x="20.6575" y="37.7328" width="0.3659" height="3.4837" transform="translate(-14.1266 11.728) rotate(-23.736)"/><rect class="m" x="20.4293" y="36.442" width="3.4837" height="0.3659" transform="translate(-19.998 44.0214) rotate(-68.7596)"/><rect class="l" x="19.6799" y="135.2712" width="6.9518" height="9.8683" rx="3.4759" ry="3.4759"/><rect class="m" x="23.0245" y="138.1939" width="0.2626" height="9.3869"/><rect class="m" x="22.5221" y="141.8628" width="0.2626" height="2.5" transform="translate(-55.69 21.2245) rotate(-23.736)"/><rect class="m" x="22.3583" y="140.9364" width="2.5" height="0.2626" transform="translate(-116.4294 111.9661) rotate(-68.7596)"/><rect class="l" x="39.8925" y="107.1587" width="6.9518" height="9.8683" rx="3.4759" ry="3.4759"/><rect class="m" x="43.2371" y="110.0814" width="0.2626" height="9.3869"/><rect class="m" x="42.7347" y="113.7503" width="0.2626" height="2.5" transform="translate(-42.6643 26.9825) rotate(-23.736)"/><rect class="m" x="42.5709" y="112.8239" width="2.5" height="0.2626" transform="translate(-77.3366 112.8778) rotate(-68.7596)"/><rect class="h" x="6.6588" y="134.4016" width="9.8968" height="14.0489" rx="4.9484" ry="4.9484"/><rect class="i" x="11.4203" y="138.5625" width="0.3738" height="13.3636"/><rect class="i" x="10.5429" y="145.3783" width="3.5591" height="0.3738" transform="translate(-125.8894 98.2518) rotate(-66.264)"/><rect class="i" x="10.7761" y="140.8742" width="0.3738" height="3.5591" transform="translate(-50.9361 13.6623) rotate(-21.2404)"/><rect class="h" x="13.8428" y="37.2002" width="6.5511" height="9.2995" rx="3.2755" ry="3.2755"/><rect class="i" x="16.9946" y="39.9545" width="0.2474" height="8.8458"/><rect class="i" x="16.4138" y="44.4661" width="2.3559" height="0.2474" transform="translate(-30.3073 42.745) rotate(-66.264)"/><rect class="i" x="16.5681" y="41.4847" width="0.2475" height="2.3559" transform="translate(-14.322 8.9453) rotate(-21.2404)"/><rect class="h" x="22.3717" y="42.3428" width="6.5511" height="9.2995" rx="3.2755" ry="3.2755"/><rect class="i" x="25.5235" y="45.097" width="0.2474" height="8.8458"/><rect class="i" x="24.9427" y="49.6086" width="2.3559" height="0.2474" transform="translate(-29.919 53.625) rotate(-66.264)"/><rect class="i" x="25.097" y="46.6272" width="0.2475" height="2.3559" transform="translate(-15.6057 12.3845) rotate(-21.2404)"/><rect class="h" x="49.1626" y="145.3469" width="6.5511" height="9.2995" rx="3.2755" ry="3.2755"/><rect class="i" x="52.3144" y="148.1012" width="0.2474" height="8.8458"/><rect class="i" x="51.7336" y="152.6128" width="2.3559" height="0.2474" transform="translate(-108.203 139.6922) rotate(-66.264)"/><rect class="i" x="51.888" y="149.6314" width="0.2475" height="2.3559" transform="translate(-51.1022 29.0875) rotate(-21.2404)"/></g></g><rect class="r" x="96.6663" y="-24.4624" width="55.6247" height="36.5626"/><rect class="r" x="213.7273" y="161.5068" width="35.6995" height="24.0764"/><rect class="r" x="58.4761" y="161.5068" width="38.1901" height="31.5484"/><rect class="r" x="-37.4143" y="58.1445" width="49.3981" height="55.2096"/></svg>