<svg xmlns="http://www.w3.org/2000/svg" viewBox="0 0 29 28.9945"><defs><style>.a{fill:#788ea2;}.b{fill:#fff;}</style></defs><title>logo-reseaux</title><circle class="a" cx="14.5" cy="14.5" r="14.5"/><path class="b" d="M9.78,25.2284a9.668,9.668,0,0,1-.3044-3.9067c.2-1.4068.5827-2.7886.9044-4.177.2254-.9724.4944-1.9348.7155-2.9081a1.3844,1.3844,0,0,0-.0476-.6779,4.7232,4.7232,0,0,1-.0324-2.9943,2.4862,2.4862,0,0,1,2.2495-1.7627A1.5219,1.5219,0,0,1,14.92,10.38a13.0782,13.0782,0,0,1-.43,2.3681c-.15.6306-.374,1.2439-.5743,1.8619-.6167,1.9026.9856,2.92,2.46,2.6609a3.7889,3.7889,0,0,0,2.5561-1.6781,6.6239,6.6239,0,0,0,.8336-6.1688,4.7119,4.7119,0,0,0-3.6241-3.1787,6.7507,6.7507,0,0,0-5.3494.841C8.26,8.7276,7.3907,12.4556,9.2771,14.66a.58.58,0,0,1,.091.4362c-.0878.4342-.2254.858-.3251,1.29-.0856.371-.2812.4111-.5886.2487a4.8887,4.8887,0,0,1-2.305-2.969,7.3651,7.3651,0,0,1,4.4713-9.1019,21.3166,21.3166,0,0,1,2.8956-.7112c.1212-.0288.2431-.0545.3648-.0816h1.7165c.1531.03.3052.0671.4595.0877a8.4025,8.4025,0,0,1,5.5707,2.9589c2.8027,3.3582,1.6152,8.86-1.4562,11.1759A6.1179,6.1179,0,0,1,15.026,19.218a3.553,3.553,0,0,1-2.0684-1.3407,16.8891,16.8891,0,0,1-3.0818,7.3511Z"/></svg>