<svg xmlns="http://www.w3.org/2000/svg" viewBox="0 0 29 28.9945"><defs><style>.a{fill:#4c6c55;}.b{fill:#fff;}</style></defs><title>logo-reseaux</title><circle class="a" cx="14.5" cy="14.5" r="14.5"/><path class="b" d="M20.2277,20.6559l-.0012.0314h-.2276a.2306.2306,0,0,0-.0011-.0322A.1513.1513,0,0,1,20.2277,20.6559Z"/><path class="b" d="M14.5979,15.0593a1.9032,1.9032,0,0,0-1.6648-1.235,1.8794,1.8794,0,0,0,1.2991-.9851,2.8,2.8,0,0,0,.28-1.5647,3.0711,3.0711,0,0,0-.61-1.7452,3.0325,3.0325,0,0,0-2.471-1.2011C9.2829,8.3,7.1338,8.3193,4.985,8.32a.2737.2737,0,0,0-.2.0372V20.4217a.4379.4379,0,0,0,.31.0544q2.8629.002,5.7259,0a5.281,5.281,0,0,0,2.074-.3807A3.0239,3.0239,0,0,0,14.5824,18.54,4.2452,4.2452,0,0,0,14.5979,15.0593Zm-6.902-4.5621c.55.0034,1.0994.0017,1.6492.0017.4928,0,.9867.02,1.4783-.005a.9267.9267,0,0,1,1.0341.8309,2.5139,2.5139,0,0,1-.0692,1.2342.8171.8171,0,0,1-.85.6147c-1.0868.0056-2.1737.0012-3.2605.0049-.0983,0-.1269-.0252-.1264-.1253q.0061-1.2132,0-2.4264C7.55,10.5086,7.5992,10.4966,7.6959,10.4972Zm4.5223,6.889a1.2641,1.2641,0,0,1-1.3079.8654c-1.0808.0189-2.1622.0048-3.2433.0084-.0927,0-.1156-.0282-.1153-.1175q.0043-1.4889-.0009-2.9778c-.0006-.1183.0475-.1292.1445-.1286.55.0037,1.1.0018,1.65.0018h1.5174a1.334,1.334,0,0,1,1.4344,1.3172A2.5183,2.5183,0,0,1,12.2182,17.3862Z"/><path class="b" d="M19.8575,10.5543c-.764,0-1.5281-.0048-2.2921.004-.1544.0018-.1881-.0449-.1844-.19.01-.3849.0075-.77.0009-1.1554-.002-.1179.0218-.1648.1533-.1644q2.3394.0066,4.6789,0c.1307,0,.1586.043.1566.1631-.0065.3914-.01.7832.0015,1.1743.0046.1525-.0523.1722-.1847.1712C21.4109,10.5513,20.6342,10.5543,19.8575,10.5543Z"/><path class="b" d="M23.7456,13.6093a3.4332,3.4332,0,0,0-2.2444-1.9876,5.5708,5.5708,0,0,0-2.6226-.1073A3.8515,3.8515,0,0,0,16.0964,13.44a5.2984,5.2984,0,0,0-.4852,4.3893A3.7365,3.7365,0,0,0,17.9225,20.31a5.8468,5.8468,0,0,0,2.0753.3452l.23.0007a5.5912,5.5912,0,0,0,2.0779-.42,2.817,2.817,0,0,0,1.7985-2.6672c.0005-.0772.0052-.1334-.1017-.1329-.6384.0034-1.2768.0023-1.9153.0008-.0767,0-.1075.0228-.1167.1063a1.1542,1.1542,0,0,1-.6713.9406,2.8939,2.8939,0,0,1-1.5681.2357,1.8662,1.8662,0,0,1-1.7851-1.8724c-.0053-.16.036-.1941.1926-.1936,1.9468.0059,3.8937.0012,5.8406.0085.1664.0006.22-.0477.2264-.2048A6.2089,6.2089,0,0,0,23.7456,13.6093Zm-2.0211,1.4259q-.9669-.0009-1.9337,0h-1.876a2.1587,2.1587,0,0,1,1.1815-1.6426,1.9919,1.9919,0,0,1,2.1262.1856,1.8663,1.8663,0,0,1,.6369,1.3459C21.875,15.0491,21.8016,15.0353,21.7245,15.0352Z"/></svg>