<svg xmlns="http://www.w3.org/2000/svg" width="93.56mm" height="14.6509mm" viewBox="0 0 265.2095 41.5301"><defs><style>.a{fill:#576775;}</style></defs><title>Texte</title><path class="a" d="M30.971,22.8427h-.9844v-.959a1.9714,1.9714,0,0,1-.5938.7315,1.91,1.91,0,0,1-1.2422.36,1.7621,1.7621,0,0,1-1.4824-.6777,2.8085,2.8085,0,0,1-.5215-1.7588V17.2031h.9961V20.3a2.1364,2.1364,0,0,0,.33,1.2295,1.1178,1.1178,0,0,0,.99.4853,1.3309,1.3309,0,0,0,1.127-.5215,2.2537,2.2537,0,0,0,.3965-1.3984V17.2031h.9844Z"/><path class="a" d="M32.2913,22.8427v-5.64h.9951v1.0088a2.0694,2.0694,0,0,1,.6963-.8164,1.9821,1.9821,0,0,1,1.1035-.2764,1.3963,1.3963,0,0,1,.4443.0723v.9834a2.0122,2.0122,0,0,0-.48-.06q-1.7637,0-1.7646,2.22v2.5078Z"/><path class="a" d="M36.3108,14.3232h.9961v3.8281a1.9515,1.9515,0,0,1,1.8-1.0918,2.6047,2.6047,0,0,1,1.4033.3955,2.7636,2.7636,0,0,1,.9961,1.0743,3.1091,3.1091,0,0,1,.36,1.4814,3.0766,3.0766,0,0,1-.36,1.4531,2.9145,2.9145,0,0,1-.9892,1.0977,2.5179,2.5179,0,0,1-1.41.414,1.9556,1.9556,0,0,1-1.8-1.0918v.959h-.9961Zm4.08,7.1162a2.1723,2.1723,0,0,0,.48-1.44,2.0854,2.0854,0,0,0-.4863-1.4219,1.6538,1.6538,0,0,0-1.3144-.5586,1.5944,1.5944,0,0,0-1.3018.5586,2.2128,2.2128,0,0,0-.4619,1.458A2.17,2.17,0,0,0,37.762,21.47a1.8229,1.8229,0,0,0,2.6289-.03Z"/><path class="a" d="M47.2913,22.8427v-.959a1.956,1.956,0,0,1-1.8008,1.0918,2.5179,2.5179,0,0,1-1.41-.414,2.9253,2.9253,0,0,1-.99-1.0977,3.0756,3.0756,0,0,1-.3594-1.4531,3.1083,3.1083,0,0,1,.3594-1.4814,2.7785,2.7785,0,0,1,.9961-1.0743,2.6081,2.6081,0,0,1,1.4043-.3955,1.9519,1.9519,0,0,1,1.8008,1.0918v-.9482h.9834v5.64Zm-.4629-1.373a2.1427,2.1427,0,0,0,.4629-1.4346,2.2078,2.2078,0,0,0-.4629-1.458,1.61,1.61,0,0,0-1.3145-.5586,1.6547,1.6547,0,0,0-1.3135.5586,2.09,2.09,0,0,0-.4853,1.4219,2.1765,2.1765,0,0,0,.48,1.44,1.8286,1.8286,0,0,0,2.6338.03Z"/><path class="a" d="M49.594,17.2031H50.59v.96a1.9491,1.9491,0,0,1,.5937-.7441A1.91,1.91,0,0,1,52.426,17.06a1.76,1.76,0,0,1,1.4825.6778,2.8034,2.8034,0,0,1,.5214,1.7578v3.3476h-.9961V19.7353a2.14,2.14,0,0,0-.33-1.23,1.1148,1.1148,0,0,0-.9893-.4863,1.33,1.33,0,0,0-1.1279.5235,2.2564,2.2564,0,0,0-.3965,1.3974v2.9033H49.594Z"/><path class="a" d="M55.8577,15.5947a.7437.7437,0,0,1,.5283-1.2715.7025.7025,0,0,1,.5225.2158.7713.7713,0,0,1,0,1.0557.7.7,0,0,1-.5225.2168A.7185.7185,0,0,1,55.8577,15.5947Zm.0244,1.5967h.9961v5.6513h-.9961Z"/><path class="a" d="M60.37,22.9755a2.6982,2.6982,0,0,1-.9307-.1562,2.1562,2.1562,0,0,1-.7256-.4316,1.9333,1.9333,0,0,1-.4619-.6368,1.86,1.86,0,0,1-.1621-.7675h.9726a1.0118,1.0118,0,0,0,.3956.84,1.3964,1.3964,0,0,0,.8994.2881,1.3082,1.3082,0,0,0,.7988-.2276.6742.6742,0,0,0,.3057-.5527.7552.7552,0,0,0-.3838-.624,1.88,1.88,0,0,0-.3965-.1738c-.16-.0518-.32-.1026-.48-.1495a8.0874,8.0874,0,0,1-1.0742-.3671,1.5629,1.5629,0,0,1-.624-.48,1.2962,1.2962,0,0,1-.2344-.81,1.4854,1.4854,0,0,1,.5586-1.2188A2.1971,2.1971,0,0,1,60.25,17.06a2.1473,2.1473,0,0,1,1.5479.5391,1.7306,1.7306,0,0,1,.39.5469,1.4913,1.4913,0,0,1,.1387.6172h-.9726a.7539.7539,0,0,0-.3174-.5938,1.207,1.207,0,0,0-.7862-.2578,1.0932,1.0932,0,0,0-.708.2226.709.709,0,0,0-.2763.5821.5293.5293,0,0,0,.15.39.8936.8936,0,0,0,.33.2158c.1192.044.3438.1133.6719.21a4.14,4.14,0,0,1,1.3555.5166,1.5442,1.5442,0,0,1,.51.5508,1.42,1.42,0,0,1,.1748.6846,1.5222,1.5222,0,0,1-.1563.6718,1.5564,1.5564,0,0,1-.4443.5518A2.34,2.34,0,0,1,60.37,22.9755Z"/><path class="a" d="M63.61,17.2031h.9961v.96a1.9537,1.9537,0,0,1,.5947-.7441,1.9052,1.9052,0,0,1,1.2413-.3594,1.677,1.677,0,0,1,1.11.3535,1.9282,1.9282,0,0,1,.6065.9786c.0478-.1289.0878-.2246.1191-.2891a1.9015,1.9015,0,0,1,1.8359-1.043,1.5826,1.5826,0,0,1,1.4043.666,3.0714,3.0714,0,0,1,.4571,1.77v3.3476h-.9961V19.7353q0-1.7167-1.1768-1.7168a1.3523,1.3523,0,0,0-1.0322.4082,1.8937,1.8937,0,0,0-.4678,1.1045v3.3115h-.9951V19.7353q0-1.7167-1.1768-1.7168a1.3315,1.3315,0,0,0-1.1279.5235,2.2564,2.2564,0,0,0-.3965,1.3974v2.9033H63.61Z"/><path class="a" d="M73.0667,20.0351a3.3972,3.3972,0,0,1,.33-1.5,2.6134,2.6134,0,0,1,.9356-1.08,2.52,2.52,0,0,1,1.41-.3955,2.5523,2.5523,0,0,1,2.3516,1.4336,3.2356,3.2356,0,0,1,.3359,1.4824,2.5852,2.5852,0,0,1-.0361.4317H74.05a2.126,2.126,0,0,0,.5341,1.1875,1.5929,1.5929,0,0,0,1.2422.48,1.4173,1.4173,0,0,0,1.5352-1.1036h.9726a2.2166,2.2166,0,0,1-.7861,1.44,2.57,2.57,0,0,1-1.7217.5644,2.5964,2.5964,0,0,1-1.4277-.3906,2.7,2.7,0,0,1-.9551-1.0429,3.3719,3.3719,0,0,1-.3769-1.4229Zm4.3671-.5283a1.8935,1.8935,0,0,0-.54-1.1211,1.5931,1.5931,0,0,0-1.1514-.4141,1.5448,1.5448,0,0,0-1.1347.42,1.9364,1.9364,0,0,0-.5332,1.1152Z"/><path class="a" d="M86.1819,20.5146H82.1135v-.959h4.0684Z"/><path class="a" d="M90.19,15.5947a.7437.7437,0,0,1,.5273-1.2715.6984.6984,0,0,1,.5215.2158.7657.7657,0,0,1,0,1.0557.6955.6955,0,0,1-.5215.2168A.7148.7148,0,0,1,90.19,15.5947Zm.0234,1.5967h.9961v5.6513h-.9961Z"/><path class="a" d="M92.721,14.3232h.996v6.4561a1.6325,1.6325,0,0,0,.1983.9306.802.802,0,0,0,.69.27,3.9967,3.9967,0,0,0,.5762-.0606v.9121a3.9491,3.9491,0,0,1-.8047.084,1.6481,1.6481,0,0,1-1.2178-.4258,1.9375,1.9375,0,0,1-.4384-1.3867Z"/><path class="a" d="M96.2249,14.3232h.9961v6.4561a1.6327,1.6327,0,0,0,.1982.9306.802.802,0,0,0,.69.27,3.9967,3.9967,0,0,0,.5762-.0606v.9121a3.9491,3.9491,0,0,1-.8047.084,1.6481,1.6481,0,0,1-1.2178-.4258,1.938,1.938,0,0,1-.4384-1.3867Z"/><path class="a" d="M104.4924,22.8427h-.9834v-.959a1.9648,1.9648,0,0,1-.5947.7315,1.9015,1.9015,0,0,1-1.2412.36,1.7613,1.7613,0,0,1-1.4814-.6777,2.802,2.802,0,0,1-.5225-1.7588V17.2031h.9951V20.3a2.151,2.151,0,0,0,.33,1.2295,1.12,1.12,0,0,0,.99.4853,1.3343,1.3343,0,0,0,1.1289-.5215,2.2593,2.2593,0,0,0,.3955-1.3984V17.2031h.9834Z"/><path class="a" d="M107.8538,22.9755a2.6982,2.6982,0,0,1-.9307-.1562,2.1367,2.1367,0,0,1-.7256-.4316,1.9363,1.9363,0,0,1-.4629-.6368,1.86,1.86,0,0,1-.1621-.7675h.9727a1.0125,1.0125,0,0,0,.3965.84,1.3945,1.3945,0,0,0,.8994.2881,1.303,1.303,0,0,0,.7978-.2276.6728.6728,0,0,0,.3067-.5527.7562.7562,0,0,0-.3848-.624,1.8673,1.8673,0,0,0-.3955-.1738c-.16-.0518-.32-.1026-.48-.1495a8.0416,8.0416,0,0,1-1.0742-.3671,1.5662,1.5662,0,0,1-.625-.48,1.3022,1.3022,0,0,1-.2334-.81,1.4874,1.4874,0,0,1,.5576-1.2188,2.1991,2.1991,0,0,1,1.4219-.4492,2.1513,2.1513,0,0,1,1.5488.5391,1.7465,1.7465,0,0,1,.39.5469,1.49,1.49,0,0,1,.1377.6172h-.9716a.7568.7568,0,0,0-.3174-.5938,1.2114,1.2114,0,0,0-.7871-.2578,1.09,1.09,0,0,0-.7071.2226.709.709,0,0,0-.2763.5821.5286.5286,0,0,0,.1494.39.9013.9013,0,0,0,.33.2158c.12.044.3437.1133.6718.21a4.1468,4.1468,0,0,1,1.3565.5166,1.5623,1.5623,0,0,1,.51.5508,1.43,1.43,0,0,1,.1748.6846,1.536,1.536,0,0,1-.1563.6718,1.5564,1.5564,0,0,1-.4443.5518A2.34,2.34,0,0,1,107.8538,22.9755Z"/><path class="a" d="M110.5413,17.2031h.2519a.7929.7929,0,0,0,.6358-.2041.9014.9014,0,0,0,.1679-.5879v-1.044h.9121v1.836h1.3916v.8994H112.509v2.6768a1.582,1.582,0,0,0,.2041.9365.86.86,0,0,0,.7207.2637,4.82,4.82,0,0,0,.6592-.0606v.9238a5.1481,5.1481,0,0,1-.84.0723,1.7321,1.7321,0,0,1-1.3135-.4492,2.0738,2.0738,0,0,1-.4268-1.459V18.1025h-.9716Z"/><path class="a" d="M115.1135,22.8427v-5.64h.9961v1.0088a2.0675,2.0675,0,0,1,.6953-.8164,1.9858,1.9858,0,0,1,1.1045-.2764,1.4061,1.4061,0,0,1,.4444.0723v.9834a2.0211,2.0211,0,0,0-.4805-.06q-1.7637,0-1.7637,2.22v2.5078Z"/><path class="a" d="M123.346,22.8427v-.959a1.956,1.956,0,0,1-1.8008,1.0918,2.5176,2.5176,0,0,1-1.41-.414,2.9253,2.9253,0,0,1-.99-1.0977,3.0744,3.0744,0,0,1-.3594-1.4531,3.1072,3.1072,0,0,1,.3594-1.4814,2.7778,2.7778,0,0,1,.9961-1.0743,2.6081,2.6081,0,0,1,1.4043-.3955,1.9519,1.9519,0,0,1,1.8008,1.0918v-.9482h.9834v5.64Zm-.4629-1.373a2.1427,2.1427,0,0,0,.4629-1.4346,2.2078,2.2078,0,0,0-.4629-1.458,1.61,1.61,0,0,0-1.3145-.5586,1.6547,1.6547,0,0,0-1.3135.5586,2.09,2.09,0,0,0-.4853,1.4219,2.1765,2.1765,0,0,0,.48,1.44,1.8286,1.8286,0,0,0,2.6338.03Z"/><path class="a" d="M125.11,17.2031h.252a.79.79,0,0,0,.6347-.2041.8957.8957,0,0,0,.168-.5879v-1.044h.9121v1.836h1.3926v.8994h-1.3926v2.6768a1.5809,1.5809,0,0,0,.2051.9365.8566.8566,0,0,0,.72.2637,4.8065,4.8065,0,0,0,.6592-.0606v.9238a5.1389,5.1389,0,0,1-.84.0723,1.7351,1.7351,0,0,1-1.3135-.4492,2.0787,2.0787,0,0,1-.4268-1.459V18.1025H125.11Z"/><path class="a" d="M129.7893,15.5947a.7437.7437,0,0,1,.5274-1.2715.6983.6983,0,0,1,.5214.2158.7657.7657,0,0,1,0,1.0557.6955.6955,0,0,1-.5214.2168A.7149.7149,0,0,1,129.7893,15.5947Zm.0234,1.5967h.9961v5.6513h-.9961Z"/><path class="a" d="M133.3889,22.5673a2.867,2.867,0,0,1-.9961-1.0859,3.0348,3.0348,0,0,1-.3593-1.4463,3.1676,3.1676,0,0,1,.3535-1.4931,2.7492,2.7492,0,0,1,.9961-1.08,2.6621,2.6621,0,0,1,1.4453-.4024,2.6176,2.6176,0,0,1,1.4218.3955,2.7491,2.7491,0,0,1,.9844,1.0743,3.1484,3.1484,0,0,1,.3535,1.4814,3.1151,3.1151,0,0,1-.3535,1.4531,2.8779,2.8779,0,0,1-.9844,1.0977,2.535,2.535,0,0,1-1.4218.414A2.6133,2.6133,0,0,1,133.3889,22.5673Zm2.7363-1.1279a2.2118,2.2118,0,0,0,.4678-1.44,2.1337,2.1337,0,0,0-.4678-1.4278,1.6124,1.6124,0,0,0-1.2968-.5527,1.641,1.641,0,0,0-1.3262.5645,2.1847,2.1847,0,0,0-.4727,1.4521,2.1058,2.1058,0,0,0,.4795,1.416,1.6394,1.6394,0,0,0,1.3194.5635A1.5792,1.5792,0,0,0,136.1252,21.4394Z"/><path class="a" d="M138.6809,17.2031h.9951v.96a1.953,1.953,0,0,1,.5948-.7441,1.9057,1.9057,0,0,1,1.2421-.3594,1.7589,1.7589,0,0,1,1.4815.6778,2.8038,2.8038,0,0,1,.5225,1.7578v3.3476h-.9961V19.7353a2.1474,2.1474,0,0,0-.33-1.23,1.1157,1.1157,0,0,0-.9893-.4863,1.3321,1.3321,0,0,0-1.1289.5235,2.2564,2.2564,0,0,0-.3965,1.3974v2.9033h-.9951Z"/><path class="a" d="M151.4846,20.5146h-4.0683v-.959h4.0683Z"/><path class="a" d="M155.3958,17.2031h.9961v.96a1.9422,1.9422,0,0,1,.5947-.7441,1.9014,1.9014,0,0,1,1.2412-.3594,1.6786,1.6786,0,0,1,1.11.3535,1.9262,1.9262,0,0,1,.6055.9786c.0488-.1289.0879-.2246.12-.2891A1.9,1.9,0,0,1,161.9,17.06a1.5839,1.5839,0,0,1,1.4043.666,3.0791,3.0791,0,0,1,.456,1.77v3.3476h-.9961V19.7353q0-1.7167-1.1758-1.7168a1.3525,1.3525,0,0,0-1.0322.4082,1.888,1.888,0,0,0-.4678,1.1045v3.3115h-.9961V19.7353q0-1.7167-1.1757-1.7168a1.3332,1.3332,0,0,0-1.1289.5235,2.2562,2.2562,0,0,0-.3955,1.3974v2.9033h-.9961Z"/><path class="a" d="M164.8518,20.0351a3.3972,3.3972,0,0,1,.33-1.5,2.62,2.62,0,0,1,.9355-1.08,2.5231,2.5231,0,0,1,1.41-.3955,2.5523,2.5523,0,0,1,2.3516,1.4336,3.2356,3.2356,0,0,1,.3359,1.4824,2.6826,2.6826,0,0,1-.0352.4317h-4.3437a2.1318,2.1318,0,0,0,.5332,1.1875,1.5956,1.5956,0,0,0,1.2422.48,1.419,1.419,0,0,0,1.5361-1.1036h.9717a2.22,2.22,0,0,1-.7852,1.44,2.57,2.57,0,0,1-1.7226.5644,2.6013,2.6013,0,0,1-1.4278-.3906,2.6909,2.6909,0,0,1-.9541-1.0429,3.3728,3.3728,0,0,1-.3779-1.4229Zm.8516-4.56L168.68,13.831l.4678.8281-2.9756,1.6563Zm3.5156,4.0313a1.8932,1.8932,0,0,0-.5391-1.1211,1.5936,1.5936,0,0,0-1.1523-.4141,1.5425,1.5425,0,0,0-1.1338.42,1.9319,1.9319,0,0,0-.5342,1.1152Z"/><path class="a" d="M175.6516,22.8427v-.959a1.9556,1.9556,0,0,1-1.8,1.0918,2.5152,2.5152,0,0,1-1.41-.414,2.9255,2.9255,0,0,1-.99-1.0977,3.0756,3.0756,0,0,1-.3594-1.4531,3.1083,3.1083,0,0,1,.3594-1.4814,2.7793,2.7793,0,0,1,.9961-1.0743,2.6081,2.6081,0,0,1,1.4043-.3955,1.9515,1.9515,0,0,1,1.8,1.0918V14.3232h.9834v8.52ZM175.19,21.47a2.1475,2.1475,0,0,0,.4619-1.4346,2.2128,2.2128,0,0,0-.4619-1.458,1.6112,1.6112,0,0,0-1.3145-.5586,1.6552,1.6552,0,0,0-1.3144.5586,2.09,2.09,0,0,0-.4854,1.4219,2.1771,2.1771,0,0,0,.48,1.44,1.83,1.83,0,0,0,2.6348.03Z"/><path class="a" d="M178.0627,15.5947a.7437.7437,0,0,1,.5284-1.2715.7021.7021,0,0,1,.5224.2158.7711.7711,0,0,1,0,1.0557.6992.6992,0,0,1-.5224.2168A.7189.7189,0,0,1,178.0627,15.5947Zm.0245,1.5967h.9961v5.6513h-.9961Z"/><path class="a" d="M184.8674,22.8427v-.959a1.9557,1.9557,0,0,1-1.8007,1.0918,2.5144,2.5144,0,0,1-1.4092-.414,2.9181,2.9181,0,0,1-.99-1.0977,3.0765,3.0765,0,0,1-.36-1.4531,3.109,3.109,0,0,1,.36-1.4814,2.7718,2.7718,0,0,1,.9961-1.0743,2.6051,2.6051,0,0,1,1.4034-.3955,1.9516,1.9516,0,0,1,1.8007,1.0918v-.9482h.9844v5.64Zm-.4629-1.373a2.1427,2.1427,0,0,0,.4629-1.4346,2.2078,2.2078,0,0,0-.4629-1.458,1.6064,1.6064,0,0,0-1.3134-.5586,1.6532,1.6532,0,0,0-1.3135.5586,2.0854,2.0854,0,0,0-.4863,1.4219,2.1723,2.1723,0,0,0,.48,1.44,1.8274,1.8274,0,0,0,2.6328.03Z"/><path class="a" d="M186.6311,17.2031h.252a.7927.7927,0,0,0,.6357-.2041.9014.9014,0,0,0,.168-.5879v-1.044h.9121v1.836h1.3916v.8994h-1.3916v2.6768a1.582,1.582,0,0,0,.2041.9365.86.86,0,0,0,.7207.2637,4.82,4.82,0,0,0,.6592-.0606v.9238a5.1484,5.1484,0,0,1-.84.0723,1.7321,1.7321,0,0,1-1.3135-.4492,2.0743,2.0743,0,0,1-.4267-1.459V18.1025h-.9717Z"/><path class="a" d="M191.3108,15.5947a.7437.7437,0,0,1,.5283-1.2715.7023.7023,0,0,1,.5225.2158.7711.7711,0,0,1,0,1.0557.6994.6994,0,0,1-.5225.2168A.7185.7185,0,0,1,191.3108,15.5947Zm.0244,1.5967h.9961v5.6513h-.9961Z"/><path class="a" d="M194.9114,22.5673a2.8583,2.8583,0,0,1-.9961-1.0859,3.0359,3.0359,0,0,1-.36-1.4463,3.1694,3.1694,0,0,1,.3545-1.4931,2.7361,2.7361,0,0,1,.9961-1.08,2.6612,2.6612,0,0,1,1.4463-.4024,2.62,2.62,0,0,1,1.4219.3955,2.7407,2.7407,0,0,1,.9834,1.0743,3.15,3.15,0,0,1,.3545,1.4814,3.1173,3.1173,0,0,1-.3545,1.4531,2.8689,2.8689,0,0,1-.9834,1.0977,2.5374,2.5374,0,0,1-1.4219.414A2.6117,2.6117,0,0,1,194.9114,22.5673Zm2.7353-1.1279a2.2074,2.2074,0,0,0,.4688-1.44,2.13,2.13,0,0,0-.4688-1.4278,1.61,1.61,0,0,0-1.2949-.5527,1.64,1.64,0,0,0-1.3262.5645,2.18,2.18,0,0,0-.4746,1.4521,2.1064,2.1064,0,0,0,.4805,1.416,1.6412,1.6412,0,0,0,1.32.5635A1.5766,1.5766,0,0,0,197.6467,21.4394Z"/><path class="a" d="M200.2034,17.2031H201.2v.96a1.94,1.94,0,0,1,.5937-.7441,1.9062,1.9062,0,0,1,1.2422-.3594,1.7618,1.7618,0,0,1,1.4824.6778,2.8029,2.8029,0,0,1,.5215,1.7578v3.3476h-.9961V19.7353a2.14,2.14,0,0,0-.33-1.23,1.1174,1.1174,0,0,0-.99-.4863,1.3313,1.3313,0,0,0-1.1279.5235,2.2562,2.2562,0,0,0-.3955,1.3974v2.9033h-.9961Z"/></svg>