<svg xmlns="http://www.w3.org/2000/svg" width="420mm" height="267.8695mm" viewBox="0 0 1190.5512 759.315"><defs><style>.a,.b,.i,.k{fill:none;}.a,.i{stroke:#fbf2ef;stroke-width:9px;}.a,.i,.k{stroke-miterlimit:10;}.b{stroke:#814828;stroke-linejoin:round;}.c{fill:#45624d;}.d{fill:#fff;}.e{isolation:isolate;}.f{fill:#fbf2ef;}.g{fill:#814828;}.h{fill:#b78d7b;}.i{stroke-linecap:round;}.j{fill:#c16c44;}.k{stroke:#c16c44;}</style></defs><title>About-quoi</title><path class="a" d="M-9.3333,727.84a365.9622,365.9622,0,0,0,116.6666-12.6666c53.9307-14.9357,90.8448-38.6706,117.3334-56,57.2782-37.4728,68.8138-60.17,106.4369-89.2017,36.6772-28.3016,81.2794-49.6076,191.9905-71.9964,187.983-38.0154,252.5832-15.6575,352.4823-35.9982,85.1491-17.3374,202.4469-67.02,328.4835-215.9892"/><line class="b" x1="671.8831" y1="457.4153" x2="671.8831" y2="592.3325"/><polygon class="c" points="784.159 366.062 756.739 396.094 784.239 394.425 671.349 459.602 671.268 431.239 784.159 366.062"/><path class="d" d="M684.1683,433.55a3.2289,3.2289,0,0,1,2.6626-.4912c.1533.0326.24.1587.26.3566a1.1414,1.1414,0,0,1-.1227.6434,1.3839,1.3839,0,0,1-.4488.5454.995.995,0,0,1-.1022.0684.4777.4777,0,0,1-.3957.0649,2.4776,2.4776,0,0,0-1.9537.4013,5.7233,5.7233,0,0,0-1.9967,2.1217,5.5635,5.5635,0,0,0-.8735,2.85,1.86,1.86,0,0,0,.8868,1.8223,2.134,2.134,0,0,0,2.1074-.2477,5.8259,5.8259,0,0,0,1.5962-1.4281l-.0052-1.8468-1.6741.9666a.4071.4071,0,0,1-.6624-.3884,1.1994,1.1994,0,0,1,.19-.6381,1.3219,1.3219,0,0,1,.4682-.49l2.3341-1.3477a.5.5,0,0,1,.4791-.0563c.1343.0656.1921.2083.1927.4282l.0085,2.968-.0565.33a1.2506,1.2506,0,0,1-.2192.4568,8.1642,8.1642,0,0,1-2.647,2.5853,3.0625,3.0625,0,0,1-3.0557.3548,2.771,2.771,0,0,1-1.2725-2.69,8.24,8.24,0,0,1,1.2531-4.17A8.5693,8.5693,0,0,1,684.1683,433.55Z"/><path class="d" d="M692.4614,431.7242c.2584-.1382.45-.1826.5747-.1226a.4172.4172,0,0,1,.1736.3953,1.3639,1.3639,0,0,1-.61,1.068c-.7271.42-1.2992,1.4328-1.7163,3.0279l.0073,2.55a1.1567,1.1567,0,0,1-.19.6162,1.2937,1.2937,0,0,1-.449.4684.45.45,0,0,1-.4406.0452.4177.4177,0,0,1-.1832-.4007l-.015-5.2985a1.13,1.13,0,0,1,.18-.6,1.2518,1.2518,0,0,1,.4394-.4519.4646.4646,0,0,1,.45-.0617c.1344.0546.1922.1863.1928.3842l0,.0989a4.2981,4.2981,0,0,1,.735-1.0079A3.8089,3.8089,0,0,1,692.4614,431.7242Z"/><path class="d" d="M699.5125,427.8626a.4558.4558,0,0,1,.1831.4007l.015,5.2876a1.3685,1.3685,0,0,1-.6006,1.0624.4375.4375,0,0,1-.4022.0671.39.39,0,0,1-.2308-.2853,5.0831,5.0831,0,0,1-1.5482,1.4775,1.7944,1.7944,0,0,1-1.9831.1541,2.0821,2.0821,0,0,1-.81-1.8995,5.8336,5.8336,0,0,1,.7968-2.85,5.3,5.3,0,0,1,1.9775-2.1326,2.063,2.063,0,0,1,1.5515-.3013,1.5917,1.5917,0,0,1,.2284-.55,1.168,1.168,0,0,1,.4012-.4077A.405.405,0,0,1,699.5125,427.8626Zm-1.4892,5.3851a3.3262,3.3262,0,0,0,.4363-1.6171,1.2472,1.2472,0,0,0-.444-1.109.9783.9783,0,0,0-1.1113.0689,2.8815,2.8815,0,0,0-1.089,1.19,3.392,3.392,0,0,0-.4265,1.6226,1.295,1.295,0,0,0,.4247,1.12.9886.9886,0,0,0,1.1017-.0855,2.9616,2.9616,0,0,0,1.1081-1.19"/><path class="d" d="M706.8332,424.4177a2.0433,2.0433,0,0,1,.8391,1.894,5.6972,5.6972,0,0,1-.8257,2.844,5.5,5.5,0,0,1-1.9966,2.1217,2.0952,2.0952,0,0,1-1.5609.3506l.0067,2.3635a1.224,1.224,0,0,1-.2.6216,1.2008,1.2008,0,0,1-.4489.4794.4048.4048,0,0,1-.45.04.4239.4239,0,0,1-.1929-.395l-.0222-7.8049a1.1977,1.1977,0,0,1,.18-.6106,1.2861,1.2861,0,0,1,.43-.4575.5532.5532,0,0,1,.4405-.0892.3184.3184,0,0,1,.2115.2743,5.3626,5.3626,0,0,1,1.5866-1.4775A1.8685,1.8685,0,0,1,706.8332,424.4177Zm-.8887,4.2348a3.26,3.26,0,0,0,.4555-1.5952,1.2554,1.2554,0,0,0-.4632-1.098,1.0162,1.0162,0,0,0-1.1114.0911,2.985,2.985,0,0,0-1.0985,1.1848,3.332,3.332,0,0,0-.4456,1.6556c.0016.55.1462.9064.4532,1.0376a.9547.9547,0,0,0,1.0924-.0582,3.04,3.04,0,0,0,1.1176-1.2177"/><path class="d" d="M710.3339,418.7079a.4515.4515,0,0,1,.46-.0562.4271.4271,0,0,1,.1929.4171l.0067,2.3415a4.9293,4.9293,0,0,1,1.252-1.1192,1.5674,1.5674,0,0,1,2.5627,1.4713l.0086,3.034a1.4365,1.4365,0,0,1-.6484,1.1231.3962.3962,0,0,1-.6431-.3774l-.0086-3.0341a.8487.8487,0,0,0-.3664-.8015.89.89,0,0,0-.9.08A2.8555,2.8555,0,0,0,711,423.9606l.0086,3.0341a1.1987,1.1987,0,0,1-.19.6381,1.2779,1.2779,0,0,1-.449.4794.446.446,0,0,1-.46.0453.44.44,0,0,1-.1928-.4172l-.0224-7.9258a1.2694,1.2694,0,0,1,.18-.6326A1.249,1.249,0,0,1,710.3339,418.7079Z"/><path class="d" d="M717.9494,414.52a.4259.4259,0,0,1,.1832.4116l.0008.286a1.2327,1.2327,0,0,1-.18.6215,1.2088,1.2088,0,0,1-.4394.4739.4383.4383,0,0,1-.45.04.4322.4322,0,0,1-.1928-.4061l-.0008-.286a1.3026,1.3026,0,0,1,.19-.627,1.2415,1.2415,0,0,1,.4492-.4685A.4128.4128,0,0,1,717.9494,414.52Z"/><path class="d" d="M717.5069,417.2753a.4211.4211,0,0,1,.45-.0507c.1248.06.1827.2028.1833.4228l.0148,5.2436a1.2328,1.2328,0,0,1-.18.6215,1.2542,1.2542,0,0,1-.44.4629.4383.4383,0,0,1-.45.04.4247.4247,0,0,1-.1927-.3951l-.0149-5.2436a1.2583,1.2583,0,0,1,.18-.6327A1.2117,1.2117,0,0,1,717.5069,417.2753Z"/><path class="d" d="M725.2658,412.9939a.4282.4282,0,0,1,.1832.4007l.0221,7.7939a1.2251,1.2251,0,0,1-.18.6106,1.2514,1.2514,0,0,1-.4585.4739.444.444,0,0,1-.45.0508.4288.4288,0,0,1-.1832-.4007l-.0067-2.3634a5.2324,5.2324,0,0,1-1.5673,1.4774,1.891,1.891,0,0,1-2.0117.1705,2.0112,2.0112,0,0,1-.8391-1.8828,5.7721,5.7721,0,0,1,.8256-2.8661,5.5279,5.5279,0,0,1,2.0061-2.1491,2.414,2.414,0,0,1,1.59-.3454,1.3214,1.3214,0,0,1,.2092-.5282,1.2513,1.2513,0,0,1,.42-.4079A.4307.4307,0,0,1,725.2658,412.9939Zm-1.5562,5.4019a3.0706,3.0706,0,0,0,.4746-1.6172,1.0819,1.0819,0,0,0-.4822-1.0651.9185.9185,0,0,0-1.0731.0361,3.168,3.168,0,0,0-1.1175,1.2287,3.3517,3.3517,0,0,0-.4746,1.6174,1.1672,1.1672,0,0,0,.4724,1.07,1.0639,1.0639,0,0,0,1.14-.0858,2.6925,2.6925,0,0,0,1.06-1.1846"/><path class="d" d="M732.01,408.88a.4507.4507,0,0,1,.45-.04.4065.4065,0,0,1,.1927.3843l.0091,3.21a4.756,4.756,0,0,1-.7215,2.3874,4.933,4.933,0,0,1-1.7292,1.8352,1.6707,1.6707,0,0,1-1.7243.17,1.6477,1.6477,0,0,1-.7232-1.5644l-.0091-3.21a1.1906,1.1906,0,0,1,.18-.6,1.21,1.21,0,0,1,.44-.474.39.39,0,0,1,.4312-.0287.41.41,0,0,1,.183.39l.0091,3.21a.8253.8253,0,0,0,.3473.78.8491.8491,0,0,0,.8525-.0958,2.4263,2.4263,0,0,0,.86-.8929,2.329,2.329,0,0,0,.3608-1.1882l-.0091-3.21a1.2766,1.2766,0,0,1,.18-.6A1.168,1.168,0,0,1,732.01,408.88Z"/><path class="d" d="M739.4264,405.49a1.885,1.885,0,0,1,.8768,1.7291l0,.066a1.1113,1.1113,0,0,1-.1611.5665,1.211,1.211,0,0,1-.4588.4519l-3.7119,2.1431a.88.88,0,0,0,.3949.6639,1.1081,1.1081,0,0,0,1.1018-.0414,2.704,2.704,0,0,0,.262-.1328,3.1673,3.1673,0,0,0,.9806-.915,1.2028,1.2028,0,0,1,.4682-.48c.1915-.1105.3255-.1328.4118-.0727.2114.1645.2122.45.0025.88a5.8449,5.8449,0,0,1-2.0638,2.0725,1.9228,1.9228,0,0,1-2.05.1927,2.032,2.032,0,0,1-.8485-1.8776,5.8865,5.8865,0,0,1,.8351-2.86,5.4557,5.4557,0,0,1,1.987-2.1381A1.9868,1.9868,0,0,1,739.4264,405.49Zm-3.5154,3.8466,3.31-1.9111a.8615.8615,0,0,0-.5765-.581,1.4592,1.4592,0,0,0-1.1589.1625,3.6544,3.6544,0,0,0-1.5746,2.33"/><path class="d" d="M744.0255,401.9426a2.37,2.37,0,0,1,1.7432-.2577c.1438.0161.23.12.2692.296a1.0786,1.0786,0,0,1-.075.5829,1.4383,1.4383,0,0,1-.3914.5342,1.1011,1.1011,0,0,1-.121.082.4932.4932,0,0,1-.3576.0733,1.5508,1.5508,0,0,0-1.0825.1295,2.0114,2.0114,0,0,0-.6881.6395.8229.8229,0,0,0-.1906.3743l.0292.1483.1247.0491a1.8117,1.8117,0,0,0,.8524-.1728l.01.0164.0191-.011a4.121,4.121,0,0,1,1.13-.256.8421.8421,0,0,1,.7674.3057,1.2614,1.2614,0,0,1,.2418.7853,3.452,3.452,0,0,1-.7322,1.9863,5.0468,5.0468,0,0,1-1.5195,1.4168,2.4513,2.4513,0,0,1-2.0786.2641c-.1248-.0381-.2018-.1588-.2214-.3456a1.0469,1.0469,0,0,1,.1324-.594,1.2769,1.2769,0,0,1,.42-.5178c.0152-.01.03-.0188.0449-.0273a.478.478,0,0,1,.4147-.0729,1.3934,1.3934,0,0,0,1.25-.1264l.0341-.02a2.8453,2.8453,0,0,0,.8029-.7168,1.1635,1.1635,0,0,0,.2094-.4733l-.0388-.1647-.1535-.0765a1.93,1.93,0,0,0-.9386.1675,3.2685,3.2685,0,0,1-1.0917.2339.9278.9278,0,0,1-.7483-.3057,1.1664,1.1664,0,0,1-.2033-.7305,3.354,3.354,0,0,1,.6942-1.8762A4.7593,4.7593,0,0,1,744.0255,401.9426Z"/><g class="e"><polygon class="f" points="707.511 607.472 707.376 654.91 671.268 634.063 671.403 586.626 707.511 607.472"/><polygon class="g" points="707.511 607.472 733.061 592.624 732.927 640.061 707.376 654.91 707.511 607.472"/><polygon class="h" points="671.403 586.626 696.953 571.777 733.061 592.624 707.511 607.472 671.403 586.626"/></g><polygon class="h" points="684.84 607.155 684.814 631.082 677.842 627.057 677.869 603.13 684.84 607.155"/><line class="b" x1="963.4084" y1="457.5253" x2="963.4084" y2="584.3363"/><polygon class="c" points="1048.27 381.971 1020.85 412.003 1048.35 410.328 962.813 459.712 962.733 431.356 1048.27 381.971"/><path class="d" d="M977.291,432.6976a.5416.5416,0,0,1,.2523-.0781.29.29,0,0,1,.3455.1969.77.77,0,0,1,.0015.55l-2.8668,9.5169-.0476.1375-.162.2918-.0764.0991-.1528.1544-.1435.1048-.1149.0443-.1148.0443-.1342-.0216-.0864-.0163-.0383-.0328-.0385-.0329-.0289-.0384-.0384-.0549-2.8827-6.1973a.6969.6969,0,0,1-.0111-.5441,1.2933,1.2933,0,0,1,.3529-.6.97.97,0,0,1,.2433-.2081.5915.5915,0,0,1,.2349-.0791.32.32,0,0,1,.3551.1914l2.2945,4.9073,2.2688-7.5419a1.413,1.413,0,0,1,.3529-.6A1.069,1.069,0,0,1,977.291,432.6976Z"/><path class="d" d="M981.1116,430.6035a.4258.4258,0,0,1,.1832.4116l.0008.286a1.4021,1.4021,0,0,1-.62,1.0953.4581.4581,0,0,1-.46.0454.437.437,0,0,1-.1833-.4116l-.0008-.286a1.2645,1.2645,0,0,1,.18-.6215,1.2808,1.2808,0,0,1,.4587-.474A.4235.4235,0,0,1,981.1116,430.6035Z"/><path class="d" d="M980.6691,433.3584a.4318.4318,0,0,1,.45-.0507c.1247.06.1826.2027.1832.4228l.0149,5.2436a1.2343,1.2343,0,0,1-.18.6215,1.29,1.29,0,0,1-.4394.4629.4585.4585,0,0,1-.46.0453.4289.4289,0,0,1-.1832-.4007L980.04,434.46a1.1833,1.1833,0,0,1,.18-.6327A1.2124,1.2124,0,0,1,980.6691,433.3584Z"/><path class="d" d="M987.3577,429.5819a.5951.5951,0,0,1,.2381-.08.2972.2972,0,0,1,.336.1915.71.71,0,0,1,.0015.5276l-1.8986,6.3152-.0476.1266-.0476.0826-.0763.1321-.0763.1322-.0572.0881-.0287.0165-.0956.0883-.0192.011-.1147.0883-.1053.0387-.0287.0166-.0862.0277-.0287.0056c-.1342,0-.2108-.01-.23-.0543l-.0385-.0659-.0577-.0768-1.909-4.1169a.69.69,0,0,1-.0111-.5221,1.4768,1.4768,0,0,1,.3434-.5837.9219.9219,0,0,1,.221-.1854.5357.5357,0,0,1,.2286-.0741.317.317,0,0,1,.3359.2024l1.3593,2.8708,1.3481-4.4339a1.3283,1.3283,0,0,1,.3145-.578A1.0029,1.0029,0,0,1,987.3577,429.5819Z"/><path class="d" d="M994.8856,425.3487a.4611.4611,0,0,1,.1737.4061l.015,5.2877a1.2425,1.2425,0,0,1-.1708.605,1.2838,1.2838,0,0,1-.43.4574.4662.4662,0,0,1-.4023.0672.423.423,0,0,1-.2211-.291,5.1305,5.1305,0,0,1-1.5577,1.4831,1.8148,1.8148,0,0,1-1.9831.154,2.1162,2.1162,0,0,1-.8009-1.9048,5.8867,5.8867,0,0,1,.7874-2.8441,5.3589,5.3589,0,0,1,1.9775-2.1326,2.0909,2.0909,0,0,1,1.5611-.3068,1.688,1.688,0,0,1,.2187-.5447,1.24,1.24,0,0,1,.4013-.4078A.4119.4119,0,0,1,994.8856,425.3487Zm-1.4891,5.3851a3.3292,3.3292,0,0,0,.4363-1.6171,1.24,1.24,0,0,0-.4536-1.1035.9614.9614,0,0,0-1.1017.0633,2.8827,2.8827,0,0,0-1.089,1.19,3.4273,3.4273,0,0,0-.4363,1.6283,1.2866,1.2866,0,0,0,.4343,1.1144.9889.9889,0,0,0,1.1019-.0856,2.993,2.993,0,0,0,1.1081-1.19"/><path class="d" d="M999.7832,422.3007a1.65,1.65,0,0,1,1.734-.1643,1.6286,1.6286,0,0,1,.7231,1.5535l.0091,3.21a1.2791,1.2791,0,0,1-.18.6107,1.2107,1.2107,0,0,1-.42.4519.45.45,0,0,1-.4407.0452.4135.4135,0,0,1-.1927-.3953l-.0091-3.21a.7779.7779,0,0,0-.3567-.763.8611.8611,0,0,0-.8526.0958,2.3186,2.3186,0,0,0-.8408.8818,2.3465,2.3465,0,0,0-.332,1.1606l.0091,3.21a1.1923,1.1923,0,0,1-.1995.6217,1.3664,1.3664,0,0,1-.449.4685.43.43,0,0,1-.4312.04.4179.4179,0,0,1-.1832-.4007l-.015-5.2985a1.1962,1.1962,0,0,1,.18-.6107,1.2552,1.2552,0,0,1,.44-.4629c.2582-.1491.45-.1167.5751.0863A4.275,4.275,0,0,1,999.7832,422.3007Z"/><path class="d" d="M1005.5539,416.2824a.4517.4517,0,0,1,.46-.0563.4571.4571,0,0,1,.1833.4227l.0055,1.9458.2965-.1712a.4579.4579,0,0,1,.46-.0453.432.432,0,0,1,.1928.4062,1.34,1.34,0,0,1-.19.6381,1.3163,1.3163,0,0,1-.4585.485l-.2965.1712.0106,3.7485a.4465.4465,0,0,1,.46-.0453.457.457,0,0,1,.1833.4227,1.24,1.24,0,0,1-.18.6326,1.2834,1.2834,0,0,1-.4586.485.9159.9159,0,0,1-.92.0905.903.903,0,0,1-.3857-.8343l-.0106-3.7486-.3349.1934a.4462.4462,0,0,1-.46.0452.437.437,0,0,1-.1831-.4117,1.24,1.24,0,0,1,.18-.6326,1.2861,1.2861,0,0,1,.4586-.4849l.3349-.1934-.0055-1.9457a1.2628,1.2628,0,0,1,.1994-.6436A1.249,1.249,0,0,1,1005.5539,416.2824Z"/><path class="d" d="M1011.0623,415.7887a2.3767,2.3767,0,0,1,1.7528-.2632.32.32,0,0,1,.26.3015,1,1,0,0,1-.075.5829,1.3281,1.3281,0,0,1-.3914.5342,1.0143,1.0143,0,0,1-.117.08.4671.4671,0,0,1-.3521.07,1.5727,1.5727,0,0,0-1.0824.1294,2.0584,2.0584,0,0,0-.6977.645.8231.8231,0,0,0-.1906.3744l.0387.1428.1152.0546a1.8164,1.8164,0,0,0,.8618-.1783l.01.0164a4.167,4.167,0,0,1,1.1491-.267.827.827,0,0,1,.7579.3112,1.2516,1.2516,0,0,1,.2514.78,3.5066,3.5066,0,0,1-.7322,1.9863,5.0476,5.0476,0,0,1-1.52,1.4169,2.4758,2.4758,0,0,1-2.0882.27c-.1246-.0382-.1921-.1644-.2118-.3512a.9838.9838,0,0,1,.1325-.5941,1.2005,1.2005,0,0,1,.42-.5178l.0425-.026a.4712.4712,0,0,1,.4076-.0687,1.3992,1.3992,0,0,0,1.2583-.1315l.0348-.02a2.7482,2.7482,0,0,0,.7934-.7113,1.0673,1.0673,0,0,0,.2095-.4733l-.0389-.1647-.1535-.0765a1.8734,1.8734,0,0,0-.9291.162l-.0191.011a3.388,3.388,0,0,1-1.0821.2284.8834.8834,0,0,1-.7387-.3113,1.1646,1.1646,0,0,1-.2034-.73,3.32,3.32,0,0,1,.6847-1.8707A4.7593,4.7593,0,0,1,1011.0623,415.7887Z"/><g class="e"><polygon class="h" points="969.86 536.216 1020.961 506.519 1035.574 530.003 984.473 559.699 969.86 536.216"/><polygon class="h" points="999.347 553.241 1050.449 523.544 1063.437 546.089 1012.336 575.786 999.347 553.241"/><polygon class="g" points="984.473 559.699 1035.574 530.003 1050.449 523.544 999.347 553.241 984.473 559.699"/><polygon class="g" points="1012.336 575.786 1063.437 546.089 1078.566 539.778 1027.465 569.475 1012.336 575.786"/><polygon class="h" points="1027.465 569.475 1078.566 539.778 1093.272 563.315 1042.171 593.012 1027.465 569.475"/><polygon class="g" points="1049.212 597.077 1100.313 567.38 1100.149 625.323 1049.048 655.02 1049.212 597.077"/><polygon class="h" points="1042.171 593.012 1093.272 563.315 1100.313 567.38 1049.212 597.077 1042.171 593.012"/><polygon class="f" points="1027.465 569.475 1042.171 593.012 1049.212 597.077 1049.048 655.02 961.871 604.688 962.035 546.745 969.86 536.216 984.473 559.699 999.347 553.241 1012.336 575.786 1027.465 569.475"/></g><polygon class="h" points="1027.465 597.632 1027.438 621.558 1020.466 617.533 1020.493 593.606 1027.465 597.632"/><polygon class="h" points="996.81 582.492 996.783 606.418 989.811 602.393 989.838 578.467 996.81 582.492"/><line class="b" x1="381.7608" y1="457.4153" x2="381.7608" y2="584.2263"/><polygon class="c" points="494.414 365.754 466.994 395.786 494.494 394.11 381.059 459.602 380.978 431.246 494.414 365.754"/><path class="d" d="M394.5849,440.59a.9809.9809,0,0,1-.065.72,1.3,1.3,0,0,1-.5732.6613c-.2773.16-.46.1-.5561-.1524l-.5789-1.4164-2.8412,1.64-.5692,2.0793a1.3066,1.3066,0,0,1-.5727.8042q-.4017.2319-.5748.0015a.7152.7152,0,0,1-.0689-.643l2.56-9.406a1.5281,1.5281,0,0,1,.2478-.4953,1.1331,1.1331,0,0,1,.3254-.3107c.0125-.0072.0252-.0141.0377-.02l.0292-.0173c.2813-.1624.4822-.1238.5939.1311Zm-4.16-.2961,1.9039-1.0992-.9649-2.3276-.939,3.4268"/><path class="d" d="M398.4815,432.6149a1.4913,1.4913,0,0,1,2.4475,1.3947l.0091,3.21a1.2418,1.2418,0,0,1-.1708.6051,1.2153,1.2153,0,0,1-.43.4574.4627.4627,0,0,1-.4406.0452.4178.4178,0,0,1-.1833-.4007l-.0091-3.21a.7734.7734,0,0,0-.3662-.7575.8376.8376,0,0,0-.8526.0959,2.58,2.58,0,0,0-1.1728,2.0424l.0091,3.21a1.2317,1.2317,0,0,1-.19.6161,1.4034,1.4034,0,0,1-.449.4685.45.45,0,0,1-.4407.0452.4432.4432,0,0,1-.1832-.4007l-.015-5.2985a1.3626,1.3626,0,0,1,.62-1.0736c.2678-.1546.46-.1222.5752.0864A4.3231,4.3231,0,0,1,398.4815,432.6149Z"/><path class="d" d="M407.9817,427.35a.456.456,0,0,1,.1832.4007l.015,5.2876a1.3686,1.3686,0,0,1-.6007,1.0625.4382.4382,0,0,1-.4023.0672.39.39,0,0,1-.2306-.2855,5.0842,5.0842,0,0,1-1.5482,1.4775,1.7942,1.7942,0,0,1-1.9831.1541,2.082,2.082,0,0,1-.81-1.8994,5.8341,5.8341,0,0,1,.7969-2.85,5.3009,5.3009,0,0,1,1.9775-2.1326,2.0634,2.0634,0,0,1,1.5515-.3013,1.591,1.591,0,0,1,.2283-.55,1.1677,1.1677,0,0,1,.4014-.4077A.4046.4046,0,0,1,407.9817,427.35Zm-1.4891,5.3852a3.33,3.33,0,0,0,.4363-1.6171,1.2478,1.2478,0,0,0-.4441-1.1091.9783.9783,0,0,0-1.1112.0689,2.882,2.882,0,0,0-1.089,1.1905,3.3941,3.3941,0,0,0-.4268,1.6228,1.33,1.33,0,0,0,.4248,1.12.9891.9891,0,0,0,1.1019-.0856,2.9643,2.9643,0,0,0,1.1081-1.19"/><path class="d" d="M411.1688,422.6033a.4517.4517,0,0,1,.46-.0563.4272.4272,0,0,1,.1928.4172l.0225,7.9258a1.1981,1.1981,0,0,1-.19.6381,1.2849,1.2849,0,0,1-.4586.485.3916.3916,0,0,1-.643-.3775L410.53,423.71a1.27,1.27,0,0,1,.18-.6326A1.25,1.25,0,0,1,411.1688,422.6033Z"/><path class="d" d="M417.1365,421.8445a.4705.4705,0,0,1,.45-.0507.4175.4175,0,0,1,.1832.4007l.0144,5.0786A6.0893,6.0893,0,0,1,415,432.0958a2.4915,2.4915,0,0,1-1.2063.3662.3085.3085,0,0,1-.3264-.208.87.87,0,0,1,.0271-.5772,1.41,1.41,0,0,1,.3626-.5506,1.081,1.081,0,0,1,.1807-.1334.7012.7012,0,0,1,.3553-.099,1.61,1.61,0,0,0,.6987-.2493,2.8655,2.8655,0,0,0,.8218-.8268,3.434,3.434,0,0,0,.5428-1.1832,3.8978,3.8978,0,0,1-1.1088.9595,1.4991,1.4991,0,0,1-2.457-1.4l-.009-3.1769a1.3625,1.3625,0,0,1,.62-1.0735.4173.4173,0,0,1,.4312-.04c.1247.06.1825.1919.1831.4008l.009,3.1769a.7778.7778,0,0,0,.3567.763.87.87,0,0,0,.8622-.1014,2.617,2.617,0,0,0,1.2015-2.059l-.009-3.1769a1.1808,1.1808,0,0,1,.1708-.6051A1.2145,1.2145,0,0,1,417.1365,421.8445Z"/><path class="d" d="M421.2712,416.7707a.4517.4517,0,0,1,.46-.0563.4568.4568,0,0,1,.1833.4227l.0055,1.9457.2966-.1712a.4581.4581,0,0,1,.46-.0453.4326.4326,0,0,1,.1928.4062,1.3426,1.3426,0,0,1-.19.6381,1.3174,1.3174,0,0,1-.4586.485l-.2966.1713.0106,3.7485a.4462.4462,0,0,1,.46-.0452.4568.4568,0,0,1,.1833.4227,1.2392,1.2392,0,0,1-.18.6325,1.284,1.284,0,0,1-.4585.485.9161.9161,0,0,1-.92.09.903.903,0,0,1-.3857-.8343l-.0106-3.7485-.3348.1932a.446.446,0,0,1-.46.0453.437.437,0,0,1-.1833-.4117,1.2415,1.2415,0,0,1,.18-.6326,1.2849,1.2849,0,0,1,.4586-.485l.3348-.1933-.0055-1.9457a1.2631,1.2631,0,0,1,.1994-.6437A1.2494,1.2494,0,0,1,421.2712,416.7707Z"/><path class="d" d="M425.9977,414.2512a.4258.4258,0,0,1,.1832.4116l.0008.286a1.232,1.232,0,0,1-.18.6215,1.209,1.209,0,0,1-.44.4739.4381.4381,0,0,1-.45.04.4323.4323,0,0,1-.1928-.4061l-.0008-.286a1.3025,1.3025,0,0,1,.19-.627,1.2413,1.2413,0,0,1,.4489-.4684A.413.413,0,0,1,425.9977,414.2512Z"/><path class="d" d="M425.555,417.0062a.4214.4214,0,0,1,.45-.0508c.1247.06.1826.2027.1832.4228l.0149,5.2436a1.2337,1.2337,0,0,1-.18.6214,1.2559,1.2559,0,0,1-.44.4631.4383.4383,0,0,1-.45.04.425.425,0,0,1-.1927-.3952l-.0149-5.2436a1.258,1.258,0,0,1,.18-.6326A1.2413,1.2413,0,0,1,425.555,417.0062Z"/><path class="d" d="M433.3141,412.7247a.4286.4286,0,0,1,.1832.4006l.0221,7.794a1.2258,1.2258,0,0,1-.18.6105,1.2428,1.2428,0,0,1-.4489.4684.432.432,0,0,1-.45.0508.4017.4017,0,0,1-.1927-.3952L432.24,419.29a5.23,5.23,0,0,1-1.5673,1.4774,1.8918,1.8918,0,0,1-2.0119.1707,2.0115,2.0115,0,0,1-.8388-1.883,5.7712,5.7712,0,0,1,.8253-2.866,5.5309,5.5309,0,0,1,2.0063-2.1492,2.3929,2.3929,0,0,1,1.59-.3453,1.3267,1.3267,0,0,1,.2094-.5283,1.2858,1.2858,0,0,1,.4205-.4078A.4191.4191,0,0,1,433.3141,412.7247Zm-1.5561,5.4018a3.0718,3.0718,0,0,0,.4745-1.6172,1.0825,1.0825,0,0,0-.4821-1.0651.9188.9188,0,0,0-1.0732.0361,3.1717,3.1717,0,0,0-1.1177,1.2288,3.351,3.351,0,0,0-.4744,1.6173,1.167,1.167,0,0,0,.4725,1.0705,1.0635,1.0635,0,0,0,1.14-.0857,2.6927,2.6927,0,0,0,1.06-1.1847"/><path class="d" d="M440.0677,408.6051a.4435.4435,0,0,1,.4407-.0342.4064.4064,0,0,1,.1927.3842l.0091,3.21a4.6788,4.6788,0,0,1-.7215,2.3875,4.9,4.9,0,0,1-1.7292,1.8352,1.6711,1.6711,0,0,1-1.7243.17,1.6474,1.6474,0,0,1-.7231-1.5644l-.0091-3.21a1.1886,1.1886,0,0,1,.18-.6,1.24,1.24,0,0,1,.4394-.474.4193.4193,0,0,1,.4407-.0342.4358.4358,0,0,1,.1831.39l.0091,3.21a.7226.7226,0,0,0,1.19.6892,2.6963,2.6963,0,0,0,1.23-2.0866l-.0091-3.21a1.2359,1.2359,0,0,1,.1708-.594A1.1728,1.1728,0,0,1,440.0677,408.6051Z"/><path class="d" d="M447.4746,405.2206a1.86,1.86,0,0,1,.877,1.729l0,.066a1.04,1.04,0,0,1-.1614.5667,1.1971,1.1971,0,0,1-.449.4462l-3.7214,2.1486a.881.881,0,0,0,.3946.6641,1.1088,1.1088,0,0,0,1.102-.0416,2.6949,2.6949,0,0,0,.2621-.1328,3.1669,3.1669,0,0,0,.9805-.915,1.2026,1.2026,0,0,1,.4682-.48c.1913-.11.3351-.1384.4119-.0727.2113.1644.2121.45.0025.88a5.8456,5.8456,0,0,1-2.0639,2.0724,1.9222,1.9222,0,0,1-2.05.1927,2.0374,2.0374,0,0,1-.8391-1.883,5.85,5.85,0,0,1,.8256-2.855,5.4573,5.4573,0,0,1,1.9871-2.1381A1.9742,1.9742,0,0,1,447.4746,405.2206Zm-3.5153,3.8465,3.31-1.911a.8606.8606,0,0,0-.5766-.5809,1.4589,1.4589,0,0,0-1.159.1624,3.3329,3.3329,0,0,0-1.0892,1.1134,3.4329,3.4329,0,0,0-.4852,1.2161"/><path class="d" d="M452.0738,401.6734a2.37,2.37,0,0,1,1.7432-.2577c.1438.0161.23.12.2692.296a1,1,0,0,1-.075.5829,1.3826,1.3826,0,0,1-.3914.5342,1.1037,1.1037,0,0,1-.1209.0819.453.453,0,0,1-.3482.0678,1.597,1.597,0,0,0-1.0825.13,2.0267,2.0267,0,0,0-.6976.645.8233.8233,0,0,0-.1906.3743l.0291.1484.1248.0491a1.8114,1.8114,0,0,0,.8523-.1728l.0192.0109a4.08,4.08,0,0,1,1.14-.2615.8418.8418,0,0,1,.7674.3057,1.262,1.262,0,0,1,.2418.7853,3.4517,3.4517,0,0,1-.7322,1.9862,5.04,5.04,0,0,1-1.51,1.4114,2.46,2.46,0,0,1-2.0882.27c-.1247-.0381-.2017-.1588-.2214-.3456a1.0478,1.0478,0,0,1,.1325-.594,1.276,1.276,0,0,1,.42-.5178c.0152-.01.03-.0188.0449-.0273a.4783.4783,0,0,1,.4148-.073,1.4,1.4,0,0,0,1.2584-.1315l.0348-.02a2.8352,2.8352,0,0,0,.7933-.7113,1.1642,1.1642,0,0,0,.2095-.4733l-.0388-.1647-.1536-.0765a1.8772,1.8772,0,0,0-.9385.1675,3.2685,3.2685,0,0,1-1.0917.2339.9279.9279,0,0,1-.7484-.3057,1.2621,1.2621,0,0,1-.1937-.736,3.32,3.32,0,0,1,.6847-1.8707A4.7581,4.7581,0,0,1,452.0738,401.6734Z"/><g class="e"><polygon class="f" points="462.411 544.604 462.098 654.91 380.666 607.895 380.978 497.589 462.411 544.604"/><polygon class="g" points="462.411 544.604 487.961 529.755 487.648 640.061 462.098 654.91 462.411 544.604"/><polygon class="h" points="380.978 497.589 406.529 482.74 487.961 529.755 462.411 544.604 380.978 497.589"/></g><polygon class="f" points="471.081 625.853 479.001 621.251 478.978 634.584 471.058 639.186 471.081 625.853"/><polygon class="f" points="471.081 599.982 479.001 595.38 478.978 608.713 471.058 613.315 471.081 599.982"/><polygon class="f" points="471.081 571.884 479.001 567.282 478.978 580.615 471.058 585.217 471.081 571.884"/><path class="f" d="M1072.9866,75.4956a22.2542,22.2542,0,0,0-6.3407.9215A26.4256,26.4256,0,0,0,1020.19,91.6666a14.3726,14.3726,0,1,0-3.3234,28.3544c.1623,0,.32-.019.4808-.0243l-.017.0243h55.6567a22.2627,22.2627,0,0,0,0-44.5254Z"/><path class="f" d="M962.9692,164.6712a11.1387,11.1387,0,0,0-3.1741.4613,13.2286,13.2286,0,0,0-23.256,7.6339,7.1949,7.1949,0,1,0-1.6636,14.1941c.0812,0,.16-.01.2406-.0122l-.0085.0122h27.8616a11.1447,11.1447,0,1,0,0-22.2893Z"/><polygon class="c" points="195.327 370.673 167.908 400.705 195.408 399.036 90.503 459.602 90.423 431.239 195.327 370.673"/><path class="d" d="M103.6382,432.7705a.4433.4433,0,0,1,.45-.0508.4236.4236,0,0,1,.2024.4117,1.3,1.3,0,0,1-.1994.6546,1.2783,1.2783,0,0,1-.449.4795l-3.1666,1.8282.007,2.4514,2.7265-1.5742a.422.422,0,0,1,.45-.0287.432.432,0,0,1,.1928.4061,1.3029,1.3029,0,0,1-.18.6327,1.3162,1.3162,0,0,1-.4586.4849l-2.7265,1.5742.007,2.4734,3.1666-1.8282a.4385.4385,0,0,1,.45-.04.4131.4131,0,0,1,.2023.4117,1.5357,1.5357,0,0,1-.6484,1.1231l-3.7883,2.1872-.0192-.011a.4219.4219,0,0,1-.4694.0728.44.44,0,0,1-.1928-.4171l-.0225-7.9259a1.3073,1.3073,0,0,1,.19-.6381,1.2512,1.2512,0,0,1,.4586-.474Z"/><path class="d" d="M108.42,432.6966a1.4912,1.4912,0,0,1,2.4474,1.3947l.0091,3.21a1.2423,1.2423,0,0,1-.1707.605,1.2158,1.2158,0,0,1-.43.4575.4418.4418,0,0,1-.431.04.4133.4133,0,0,1-.1928-.3952l-.0091-3.21a.7777.7777,0,0,0-.3567-.7629.8611.8611,0,0,0-.8526.0958,2.3184,2.3184,0,0,0-.8407.8818,2.3464,2.3464,0,0,0-.3321,1.1607l.0091,3.21a1.1916,1.1916,0,0,1-.2.6217,1.4034,1.4034,0,0,1-.449.4685.3776.3776,0,0,1-.6143-.3611l-.015-5.2985a1.1951,1.1951,0,0,1,.18-.6106,1.254,1.254,0,0,1,.4394-.4629c.2583-.1492.45-.1167.5656.0918A4.323,4.323,0,0,1,108.42,432.6966Z"/><path class="d" d="M120.7142,425.7056a.5967.5967,0,0,1,.2381-.08.3227.3227,0,0,1,.336.1915.6846.6846,0,0,1-.0081.5331l-1.8986,6.3153-.0475.1265-.0477.0826-.0763.1321-.0762.1322-.0573.0881-.0191.011-.0956.0883-.0192.011-.1147.0883-.1149.0443-.019.011-.0958.0332h-.0192c-.1341,0-.2108-.01-.23-.0543l-.0481-.06-.0577-.0767-1.9089-4.117a.7091.7091,0,0,1-.0015-.5277,1.4756,1.4756,0,0,1,.3432-.5835.8445.8445,0,0,1,.2127-.1806.5332.5332,0,0,1,.2274-.0735.325.325,0,0,1,.3456.1969l1.35,2.8763,1.3481-4.4339a1.436,1.436,0,0,1,.3242-.5835A1,1,0,0,1,120.7142,425.7056Z"/><path class="d" d="M127.9765,422.4294a2.1435,2.1435,0,0,1,.82,1.9379,5.4015,5.4015,0,0,1-.8162,2.7837,5.0984,5.0984,0,0,1-1.9488,2.1489,1.8618,1.8618,0,0,1-2.0022.1651,2.1014,2.1014,0,0,1-.82-1.9159,5.798,5.798,0,0,1,.8158-2.8605,5.4563,5.4563,0,0,1,1.9775-2.1436A1.7651,1.7651,0,0,1,127.9765,422.4294Zm-.8692,4.29a3.6086,3.6086,0,0,0,.4454-1.6884,1.2941,1.2941,0,0,0-.4535-1.1368,1.1885,1.1885,0,0,0-1.1017.13,3.2631,3.2631,0,0,0-1.0987,1.1408,3.5392,3.5392,0,0,0-.4169,1.6392,1.4764,1.4764,0,0,0,.4249,1.1859,1.1327,1.1327,0,0,0,1.1016-.14,3.1153,3.1153,0,0,0,1.0989-1.13"/><path class="d" d="M131.4963,416.6866a.4759.4759,0,0,1,.46-.0563.4515.4515,0,0,1,.1929.4172l.0224,7.9259a1.2735,1.2735,0,0,1-.19.638,1.3516,1.3516,0,0,1-.4586.4851.4462.4462,0,0,1-.46.0452.44.44,0,0,1-.1928-.4172l-.0225-7.9258a1.3073,1.3073,0,0,1,.19-.6381A1.2507,1.2507,0,0,1,131.4963,416.6866Z"/><path class="d" d="M137.8274,415.718a.45.45,0,0,1,.45-.04.4063.4063,0,0,1,.1927.3842l.0091,3.21a4.6778,4.6778,0,0,1-.7215,2.3875,4.933,4.933,0,0,1-1.7292,1.8352,1.6711,1.6711,0,0,1-1.7243.17,1.6478,1.6478,0,0,1-.7231-1.5645l-.0091-3.21a1.19,1.19,0,0,1,.18-.6,1.2094,1.2094,0,0,1,.44-.474.39.39,0,0,1,.4311-.0287.41.41,0,0,1,.1831.39l.0091,3.21a.8251.8251,0,0,0,.3473.7794.8487.8487,0,0,0,.8525-.0958,2.425,2.425,0,0,0,.86-.8928,2.3281,2.3281,0,0,0,.3608-1.1883l-.0091-3.21a1.2753,1.2753,0,0,1,.18-.6A1.1673,1.1673,0,0,1,137.8274,415.718Z"/><path class="d" d="M146.887,410.4874a1.7214,1.7214,0,0,1,1.7913-.1974,1.6554,1.6554,0,0,1,.7232,1.5754l.009,3.1879a1.3626,1.3626,0,0,1-.62,1.0736.4708.4708,0,0,1-.45.0507.4175.4175,0,0,1-.1832-.4007l-.0091-3.1879a.7963.7963,0,0,0-.3567-.774.7808.7808,0,0,0-.8335.0738,2.3815,2.3815,0,0,0-.8407.8818,2.4992,2.4992,0,0,0-.37,1.1607l.0092,3.2319a1.1958,1.1958,0,0,1-.18.6106,1.2156,1.2156,0,0,1-.43.4575.4308.4308,0,0,1-.4407.0342.3821.3821,0,0,1-.2023-.3787l-.0091-3.2319a.7856.7856,0,0,0-.3567-.741.8408.8408,0,0,0-.843.09,2.2679,2.2679,0,0,0-.8311.8873,2.2944,2.2944,0,0,0-.3512,1.1827l.009,3.1879-.0093.0935V419.4l-.038.0991,0,.0659a1.329,1.329,0,0,1-.5824.7767l-.1148.0443a.3748.3748,0,0,1-.3643-.043.4125.4125,0,0,1-.1447-.3569l-.015-5.2875a1.32,1.32,0,0,1,.18-.6216,1.289,1.289,0,0,1,.4395-.4629c.2774-.16.46-.1222.5656.0808a4.5858,4.5858,0,0,1,1.2521-1.13,1.6027,1.6027,0,0,1,1.83-.1206A4.6949,4.6949,0,0,1,146.887,410.4874Z"/><path class="d" d="M156.37,405.9043a1.91,1.91,0,0,1,.877,1.729l0,.066a1.0689,1.0689,0,0,1-.1709.5721,1.1981,1.1981,0,0,1-.4492.4464l-3.7214,2.1486a.8753.8753,0,0,0,.4043.6584,1.0726,1.0726,0,0,0,1.0923-.0359,2.69,2.69,0,0,0,.2629-.1333,3.1247,3.1247,0,0,0,.98-.9146,1.2291,1.2291,0,0,1,.4682-.4795c.1913-.1105.3349-.1383.4117-.0726.2209.1589.2217.4447.0025.8794a5.8443,5.8443,0,0,1-2.0639,2.0725,1.9337,1.9337,0,0,1-2.05.1927,2.0645,2.0645,0,0,1-.839-1.8831,5.9385,5.9385,0,0,1,.8255-2.8549,5.4929,5.4929,0,0,1,1.9966-2.1436A1.9989,1.9989,0,0,1,156.37,405.9043Zm-3.525,3.8521,3.31-1.9112a.8552.8552,0,0,0-.5672-.5864,1.4875,1.4875,0,0,0-1.1685.168A3.3334,3.3334,0,0,0,153.33,408.54a3.434,3.434,0,0,0-.4852,1.2162"/><g class="e"><polygon class="g" points="90.175 584.226 128.501 561.954 155.655 549.931 117.329 572.204 90.175 584.226"/><polygon class="f" points="117.329 572.204 144.332 615.494 144.22 654.91 90.063 623.642 90.175 584.226 117.329 572.204"/><polygon class="h" points="117.329 572.204 155.655 549.931 182.658 593.221 144.332 615.494 117.329 572.204"/><polygon class="g" points="144.332 615.494 182.658 593.221 182.546 632.637 144.22 654.91 144.332 615.494"/></g><polygon class="h" points="111.604 620.356 111.559 636.31 99.781 629.51 99.827 613.557 111.604 620.356"/><line class="b" x1="91.2029" y1="457.4153" x2="91.2029" y2="584.2263"/><path class="i" d="M1014,736.8161a567.8341,567.8341,0,0,0-94.6667-137.6429c-33.4439-35.7985-68.85-72.89-128-96.6667-30.6327-12.3134-58.8094-26.3-78.1006-28.4329"/><polygon class="j" points="410.757 673.792 415.624 670.23 414.972 676.226 420.491 678.659 414.972 681.093 415.624 687.089 410.757 683.526 405.89 687.089 406.542 681.093 401.023 678.659 406.542 676.226 405.89 670.23 410.757 673.792"/><line class="k" x1="410.7569" y1="678.6591" x2="410.7569" y2="699.0887"/><polygon class="j" points="776.798 560.91 781.665 557.348 781.013 563.344 786.532 565.777 781.013 568.211 781.665 574.207 776.798 570.644 771.932 574.207 772.584 568.211 767.065 565.777 772.584 563.344 771.932 557.348 776.798 560.91"/><line class="k" x1="776.7984" y1="565.7772" x2="776.7984" y2="586.2067"/><polygon class="j" points="47.283 653.275 52.15 649.713 51.498 655.709 57.017 658.142 51.498 660.576 52.15 666.572 47.283 663.009 42.416 666.572 43.068 660.576 37.549 658.142 43.068 655.709 42.416 649.713 47.283 653.275"/><line class="k" x1="47.2829" y1="658.1423" x2="47.2829" y2="678.5718"/><line class="k" x1="737.566" y1="529.2504" x2="737.566" y2="565.7479"/><polygon class="j" points="737.566 510.546 745.338 501.937 744.747 513.52 756.33 512.928 747.721 520.701 756.33 528.473 744.747 527.882 745.338 539.465 737.566 530.856 729.794 539.465 730.385 527.882 718.802 528.473 727.411 520.701 718.802 512.928 730.385 513.52 729.794 501.937 737.566 510.546"/><line class="k" x1="1104.8192" y1="682.4969" x2="1104.8192" y2="718.9943"/><polygon class="j" points="1104.819 663.792 1112.592 655.183 1112 666.767 1123.584 666.175 1114.974 673.947 1123.584 681.72 1112 681.128 1112.592 692.712 1104.819 684.102 1097.047 692.712 1097.638 681.128 1086.055 681.72 1094.664 673.947 1086.055 666.175 1097.638 666.767 1097.047 655.183 1104.819 663.792"/><line class="k" x1="1146.8192" y1="526.3134" x2="1146.8192" y2="562.8109"/><polygon class="j" points="1146.819 507.609 1154.592 499 1154 510.583 1165.584 509.991 1156.974 517.764 1165.584 525.536 1154 524.945 1154.592 536.528 1146.819 527.919 1139.047 536.528 1139.638 524.945 1128.055 525.536 1136.664 517.764 1128.055 509.991 1139.638 510.583 1139.047 499 1146.819 507.609"/><line class="k" x1="230.8192" y1="548.3346" x2="230.8192" y2="584.832"/><polygon class="j" points="230.819 529.63 238.592 521.021 238 532.604 249.584 532.013 240.974 539.785 249.584 547.557 238 546.966 238.592 558.549 230.819 549.94 223.047 558.549 223.638 546.966 212.055 547.557 220.664 539.785 212.055 532.013 223.638 532.604 223.047 521.021 230.819 529.63"/></svg>