<svg xmlns="http://www.w3.org/2000/svg" width="420mm" height="83.6167mm" viewBox="0 0 1190.5512 237.0237"><defs><style>.a{fill:none;stroke:#fff;stroke-linecap:round;stroke-linejoin:round;stroke-width:9px;}.b{fill:#4c6c55;}.c{fill:#fff;}.d{fill:#c16d44;}.e{fill:#fbf2ef;}.f{fill:#b78d7b;}.g{fill:#814828;}.h{fill:#c16c44;}.i{fill:#203a37;}.j{fill:#a37e2f;}.k{fill:#e2b097;}.l{fill:#37543e;}.m{fill:#d08b6f;}.n{fill:#6d7455;}</style></defs><title>About-pourquoi</title><path class="a" d="M128,697.0237c54.9351-22.8711,91.5629-52.0331,113-72,15.4757-14.4143,29.4057-27.3889,43-49,25.8011-41.0163,16.6255-59.4619,38-87,26.9335-34.7,52.37-19.4139,79-50,31.3021-35.9526,34.21-100.7807,7-149-24.3065-43.0739-65.033-59.4026-78-64"/><path class="b" d="M602.0839,94.7643h-9.7867l29.9792,28.5-39.9792-28.5h-79.66a12.0353,12.0353,0,0,1-12-12v-24a12.0353,12.0353,0,0,1,12-12h99.4471a12.0353,12.0353,0,0,1,12,12v24A12.0353,12.0353,0,0,1,602.0839,94.7643Z"/><path class="c" d="M507.644,59.8836a.582.582,0,0,1,.1763.4287.5921.5921,0,0,1-.1816.4345.58.58,0,0,1-.4234.1817h-1.749v5.874a.605.605,0,1,1-1.21,0v-5.874h-1.7382a.574.574,0,0,1-.4287-.1817.6006.6006,0,0,1-.1763-.4345.602.602,0,0,1,.605-.605h4.6972A.5838.5838,0,0,1,507.644,59.8836Z"/><path class="c" d="M511.9121,67.4407a2.4905,2.4905,0,0,1-1.8809-.814,2.8468,2.8468,0,0,1,.0054-3.9,2.4778,2.4778,0,0,1,1.8648-.8193,2.4269,2.4269,0,0,1,1.8535.8306,2.8181,2.8181,0,0,1,.7641,1.9746,2.5254,2.5254,0,0,1-.77,1.8916A2.3271,2.3271,0,0,1,511.9121,67.4407Zm-1.0557-3.916a1.6945,1.6945,0,0,0-.396,1.144,1.78,1.78,0,0,0,.396,1.1655,1.516,1.516,0,0,0,2.0679,0,1.6945,1.6945,0,0,0,.4287-1.1655,1.6155,1.6155,0,0,0-.4287-1.144,1.4878,1.4878,0,0,0-2.0679,0Z"/><path class="c" d="M520.8882,65.1194a2.185,2.185,0,0,1-.6875,1.6118,2.2443,2.2443,0,0,1-1.6279.6763,2.3,2.3,0,0,1-2.2935-2.2881V62.4905a.5681.5681,0,0,1,.17-.4072.5721.5721,0,0,1,.8252,0,.57.57,0,0,1,.17.4072v2.6289a1.108,1.108,0,0,0,1.1221,1.1221,1.119,1.119,0,0,0,.8081-.3247,1.1037,1.1037,0,0,0,.3467-.7974V62.4905a.5789.5789,0,0,1,.165-.4072.53.53,0,0,1,.4014-.1758.5825.5825,0,0,1,.4179.1758.5519.5519,0,0,1,.1817.4072Z"/><path class="c" d="M526.5308,62.5125a.5632.5632,0,0,1,.2475.3686.61.61,0,0,1-.0713.4453.5675.5675,0,0,1-.3686.2476.5571.5571,0,0,1-.4453-.0933,2.0026,2.0026,0,0,0-1.0176-.4072,1.0319,1.0319,0,0,0-.6548.1978c-.1172.081-.1758.1523-.1758.2148a.2661.2661,0,0,0,.0274.1372.3574.3574,0,0,0,.1157.0991,2.1569,2.1569,0,0,0,.8027.2642l.0113.0107h.0107a4.6923,4.6923,0,0,1,1.0674.33,1.5531,1.5531,0,0,1,.7148.605,1.4717,1.4717,0,0,1,.231.7593,1.5251,1.5251,0,0,1-.6929,1.2759,2.461,2.461,0,0,1-1.43.44,3.1508,3.1508,0,0,1-1.958-.7588.5624.5624,0,0,1-.2036-.3906.5289.5289,0,0,1,.1265-.4239.5213.5213,0,0,1,.396-.22.5518.5518,0,0,1,.4292.1319,1.83,1.83,0,0,0,1.21.4843,1.3668,1.3668,0,0,0,.7481-.2094c.1318-.11.1982-.2032.1982-.28a.28.28,0,0,0-.0332-.16.3605.3605,0,0,0-.143-.1318,2.3974,2.3974,0,0,0-.88-.3081h-.0113a4.1092,4.1092,0,0,1-1.0175-.3189,1.7152,1.7152,0,0,1-.6983-.6049,1.3046,1.3046,0,0,1-.187-.6929,1.4767,1.4767,0,0,1,.6489-1.21,2.3444,2.3444,0,0,1,1.3584-.4072A2.951,2.951,0,0,1,526.5308,62.5125Z"/><path class="c" d="M532.0142,66.6043a2.8847,2.8847,0,0,1,0-3.8882,2.4467,2.4467,0,0,1,1.8647-.8086,2.483,2.483,0,0,1,1.4629.4839.6881.6881,0,0,1,.209-.3462.548.548,0,0,1,.3794-.1377.5356.5356,0,0,1,.396.1758.581.581,0,0,1,.17.4184v4.3228a.5617.5617,0,0,1-.17.4126.5427.5427,0,0,1-.396.17.5631.5631,0,0,1-.3794-.1318.6583.6583,0,0,1-.209-.3414,2.4856,2.4856,0,0,1-1.4629.4732A2.454,2.454,0,0,1,532.0142,66.6043Zm.4238-1.9414a1.6164,1.6164,0,0,0,.4014,1.1167,1.3209,1.3209,0,0,0,1.0341.4511,1.3557,1.3557,0,0,0,1.045-.4511,1.5853,1.5853,0,0,0,.4121-1.1109,1.6107,1.6107,0,0,0-.418-1.122,1.3442,1.3442,0,0,0-1.0391-.4625,1.32,1.32,0,0,0-1.0288.4566A1.6255,1.6255,0,0,0,532.438,64.6629Z"/><path class="c" d="M539.0928,66.5989a2.6911,2.6911,0,0,1,0-3.8774,2.7665,2.7665,0,0,1,1.9692-.814,2.8163,2.8163,0,0,1,1.749.605.5649.5649,0,0,1,.22.3906.5551.5551,0,0,1-.1153.4346.5773.5773,0,0,1-.3852.22.5242.5242,0,0,1-.4234-.1211,1.8167,1.8167,0,0,0-1.0947-.3521,1.5287,1.5287,0,0,0-1.0942.4732,1.5172,1.5172,0,0,0-.0054,2.2168,1.5228,1.5228,0,0,0,1.0942.4673,1.8219,1.8219,0,0,0,1.1-.3521.5227.5227,0,0,1,.418-.11.5812.5812,0,0,1,.3906.22.538.538,0,0,1,.1153.4238.64.64,0,0,1-.22.4014,2.9476,2.9476,0,0,1-1.749.583A2.7158,2.7158,0,0,1,539.0928,66.5989Z"/><path class="c" d="M546.7925,61.9075a.6025.6025,0,0,1,.4346.1758.57.57,0,0,1,.1816.4238.5853.5853,0,0,1-.1816.4287.5926.5926,0,0,1-.4346.1817h-.2749v3.0688a.5761.5761,0,0,1,.4292.1816.6034.6034,0,0,1,.1758.4346.6.6,0,0,1-.605.605,1.22,1.22,0,0,1-1.2207-1.2212V63.1175h-.3194a.605.605,0,1,1,0-1.21h.3194V60.3123a.5736.5736,0,0,1,.1811-.4287.603.603,0,0,1,.4346-.1763.6011.6011,0,0,1,.605.605v1.5952Z"/><path class="c" d="M554.2837,64.5144a.5085.5085,0,0,1-.16.3907.596.596,0,0,1-.4233.1484h-3.4981a1.32,1.32,0,0,0,.3741.7261,1.5441,1.5441,0,0,0,1.0283.4892,1.61,1.61,0,0,0,1.1714-.2695.5754.5754,0,0,1,.44-.1758.4586.4586,0,0,1,.3853.1431.4921.4921,0,0,1,0,.7148,2.7488,2.7488,0,0,1-1.9414.7207,2.5883,2.5883,0,0,1-1.9253-.8086,2.7834,2.7834,0,0,1,0-3.8774,2.5033,2.5033,0,0,1,1.8755-.8086,2.5794,2.5794,0,0,1,1.8535.7207,2.6543,2.6543,0,0,1,.82,1.831Zm-2.6514-1.562a1.5551,1.5551,0,0,0-1.0229.396,1.4352,1.4352,0,0,0-.4619.77h3.1132a1.5051,1.5051,0,0,0-.5336-.748A1.9078,1.9078,0,0,0,551.6323,62.9524Z"/><path class="c" d="M560.5312,65.1194a2.1849,2.1849,0,0,1-.6874,1.6118,2.2444,2.2444,0,0,1-1.628.6763,2.3,2.3,0,0,1-2.2934-2.2881V62.4905a.5681.5681,0,0,1,.17-.4072.5721.5721,0,0,1,.8252,0,.5706.5706,0,0,1,.17.4072v2.6289a1.108,1.108,0,0,0,1.122,1.1221,1.1192,1.1192,0,0,0,.8082-.3247,1.1033,1.1033,0,0,0,.3466-.7974V62.4905a.579.579,0,0,1,.1651-.4072.5292.5292,0,0,1,.4013-.1758.5825.5825,0,0,1,.418.1758.5518.5518,0,0,1,.1816.4072Z"/><path class="c" d="M563.9629,62.5676a1.7811,1.7811,0,0,1,.6929-.4785,2.0464,2.0464,0,0,1,.8032-.1762.7633.7633,0,0,1,.5337.17.54.54,0,0,1,.17.4018.5759.5759,0,0,1-.17.4126.5543.5543,0,0,1-.4126.1758q-1.0233,0-1.6172,1.6611v2.09a.5535.5535,0,0,1-.1758.4126.5875.5875,0,0,1-.4238.17.5678.5678,0,0,1-.418-.17.5613.5613,0,0,1-.17-.4126v-4.334a.5447.5447,0,0,1,.17-.4072.5783.5783,0,0,1,.418-.1646.5986.5986,0,0,1,.4238.1646.5373.5373,0,0,1,.1758.4072Z"/><path class="c" d="M571.0029,62.5125a.5629.5629,0,0,1,.2476.3686.61.61,0,0,1-.0713.4453.5677.5677,0,0,1-.3687.2476.5571.5571,0,0,1-.4453-.0933,2.0023,2.0023,0,0,0-1.0175-.4072,1.0319,1.0319,0,0,0-.6548.1978c-.1172.081-.1758.1523-.1758.2148a.2672.2672,0,0,0,.0273.1372.3591.3591,0,0,0,.1158.0991,2.1569,2.1569,0,0,0,.8027.2642l.0112.0107h.0108a4.6915,4.6915,0,0,1,1.0673.33,1.5529,1.5529,0,0,1,.7149.605,1.4716,1.4716,0,0,1,.2309.7593,1.525,1.525,0,0,1-.6928,1.2759,2.4613,2.4613,0,0,1-1.43.44,3.1506,3.1506,0,0,1-1.958-.7588.562.562,0,0,1-.2036-.3906.5292.5292,0,0,1,.1264-.4239.5217.5217,0,0,1,.396-.22.5516.5516,0,0,1,.4292.1319,1.83,1.83,0,0,0,1.21.4843,1.3665,1.3665,0,0,0,.748-.2094c.1319-.11.1983-.2032.1983-.28a.28.28,0,0,0-.0332-.16.361.361,0,0,0-.1431-.1318,2.3967,2.3967,0,0,0-.88-.3081h-.0112a4.11,4.11,0,0,1-1.0176-.3189,1.7156,1.7156,0,0,1-.6982-.6049,1.3046,1.3046,0,0,1-.187-.6929,1.4767,1.4767,0,0,1,.6489-1.21,2.3442,2.3442,0,0,1,1.3584-.4072A2.95,2.95,0,0,1,571.0029,62.5125Z"/><path class="c" d="M572.895,63.9866a.3631.3631,0,1,1,.7261,0v.2969a.3631.3631,0,1,1-.7261,0Z"/><path class="c" d="M576.7451,60.3015v.231a.5932.5932,0,0,1-.1709.4292.56.56,0,0,1-.418.1758.577.577,0,0,1-.4233-.1758.584.584,0,0,1-.1758-.4292v-.231a.5713.5713,0,0,1,.1758-.4179.5775.5775,0,0,1,.4233-.1763.5683.5683,0,0,1,.418.1709A.575.575,0,0,1,576.7451,60.3015Zm-1.0176,1.7876a.6111.6111,0,0,1,.8467,0,.5883.5883,0,0,1,.1709.4346v4.29a.5753.5753,0,0,1-.1709.4238.5678.5678,0,0,1-.418.17.6.6,0,0,1-.5991-.5942v-4.29A.5883.5883,0,0,1,575.7275,62.0891Z"/><path class="c" d="M579.0767,66.5989a2.6911,2.6911,0,0,1,0-3.8774,2.7665,2.7665,0,0,1,1.9692-.814,2.8163,2.8163,0,0,1,1.749.605.5645.5645,0,0,1,.22.3906.555.555,0,0,1-.1152.4346.5773.5773,0,0,1-.3852.22.5241.5241,0,0,1-.4234-.1211,1.8167,1.8167,0,0,0-1.0947-.3521,1.5287,1.5287,0,0,0-1.0942.4732,1.5172,1.5172,0,0,0-.0054,2.2168,1.5228,1.5228,0,0,0,1.0942.4673,1.8219,1.8219,0,0,0,1.1-.3521.5227.5227,0,0,1,.418-.11.5812.5812,0,0,1,.3906.22.538.538,0,0,1,.1152.4238.639.639,0,0,1-.22.4014,2.9478,2.9478,0,0,1-1.749.583A2.7158,2.7158,0,0,1,579.0767,66.5989Z"/><path class="c" d="M589.8677,64.5144a.5085.5085,0,0,1-.16.3907.5962.5962,0,0,1-.4233.1484h-3.4981a1.32,1.32,0,0,0,.374.7261,1.5446,1.5446,0,0,0,1.0284.4892,1.61,1.61,0,0,0,1.1714-.2695.5754.5754,0,0,1,.44-.1758.4582.4582,0,0,1,.3852.1431.492.492,0,0,1,0,.7148,2.7484,2.7484,0,0,1-1.9414.7207,2.5883,2.5883,0,0,1-1.9253-.8086,2.7837,2.7837,0,0,1,0-3.8774,2.5033,2.5033,0,0,1,1.8755-.8086,2.58,2.58,0,0,1,1.8536.7207,2.6543,2.6543,0,0,1,.82,1.831Zm-2.6514-1.562a1.5551,1.5551,0,0,0-1.0229.396,1.4361,1.4361,0,0,0-.462.77h3.1133a1.5047,1.5047,0,0,0-.5337-.748A1.9075,1.9075,0,0,0,587.2163,62.9524Z"/><path class="c" d="M595.0151,62.5125a.5629.5629,0,0,1,.2476.3686.61.61,0,0,1-.0713.4453.5677.5677,0,0,1-.3686.2476.5573.5573,0,0,1-.4454-.0933,2.0023,2.0023,0,0,0-1.0175-.4072,1.0319,1.0319,0,0,0-.6548.1978c-.1172.081-.1758.1523-.1758.2148a.2672.2672,0,0,0,.0273.1372.3591.3591,0,0,0,.1158.0991,2.1569,2.1569,0,0,0,.8027.2642l.0112.0107h.0108a4.6939,4.6939,0,0,1,1.0674.33,1.5531,1.5531,0,0,1,.7148.605,1.4717,1.4717,0,0,1,.231.7593,1.5251,1.5251,0,0,1-.6929,1.2759,2.4613,2.4613,0,0,1-1.43.44,3.1506,3.1506,0,0,1-1.958-.7588.562.562,0,0,1-.2036-.3906.5289.5289,0,0,1,.1265-.4239.5213.5213,0,0,1,.3959-.22.5516.5516,0,0,1,.4292.1319,1.83,1.83,0,0,0,1.21.4843,1.3671,1.3671,0,0,0,.7481-.2094c.1318-.11.1982-.2032.1982-.28a.28.28,0,0,0-.0332-.16.361.361,0,0,0-.1431-.1318,2.3967,2.3967,0,0,0-.88-.3081h-.0112a4.11,4.11,0,0,1-1.0176-.3189,1.7156,1.7156,0,0,1-.6982-.6049,1.3046,1.3046,0,0,1-.187-.6929,1.4767,1.4767,0,0,1,.6489-1.21,2.3442,2.3442,0,0,1,1.3584-.4072A2.95,2.95,0,0,1,595.0151,62.5125Z"/><path class="c" d="M507.3691,80.013a.5727.5727,0,0,1-.1757.4184.56.56,0,0,1-.4073.1758.5755.5755,0,0,1-.39-.1377.6049.6049,0,0,1-.2036-.3354,2.6027,2.6027,0,0,1-1.4961.4731,2.533,2.533,0,0,1-1.8921-.8086,2.7973,2.7973,0,0,1,0-3.8774,2.5964,2.5964,0,0,1,3.3662-.3521V73.5012a.5713.5713,0,0,1,.1758-.4179.597.597,0,0,1,.8472,0,.5716.5716,0,0,1,.1757.4179Zm-2.6728-.605a1.3859,1.3859,0,0,0,1.0395-.4561,1.5263,1.5263,0,0,0,.4346-1.0893,1.5544,1.5544,0,0,0-.4292-1.0943,1.4128,1.4128,0,0,0-2.09,0,1.554,1.554,0,0,0-.4292,1.0943,1.5266,1.5266,0,0,0,.4345,1.0893A1.3855,1.3855,0,0,0,504.6963,79.408Z"/><path class="c" d="M514.5962,77.7141a.5083.5083,0,0,1-.16.3907.596.596,0,0,1-.4233.1484h-3.4981a1.32,1.32,0,0,0,.3741.7261,1.5437,1.5437,0,0,0,1.0283.4892,1.61,1.61,0,0,0,1.1714-.27.5754.5754,0,0,1,.44-.1758.4586.4586,0,0,1,.3853.1431.4921.4921,0,0,1,0,.7148,2.7488,2.7488,0,0,1-1.9414.7207,2.5883,2.5883,0,0,1-1.9253-.8086,2.7834,2.7834,0,0,1,0-3.8774,2.5033,2.5033,0,0,1,1.8755-.8086,2.58,2.58,0,0,1,1.8535.7207,2.6543,2.6543,0,0,1,.82,1.8311Zm-2.6514-1.562a1.5551,1.5551,0,0,0-1.0229.396,1.4352,1.4352,0,0,0-.4619.77h3.1132a1.5051,1.5051,0,0,0-.5336-.748A1.9078,1.9078,0,0,0,511.9448,76.1521Z"/><path class="c" d="M520.8325,80.0242a.5387.5387,0,0,1-.187.4126.61.61,0,0,1-.4233.17.5558.5558,0,0,1-.4073-.17.5617.5617,0,0,1-.17-.4126V75.69a.5884.5884,0,0,1,1.1221-.2422,2.1431,2.1431,0,0,1,1.166-.3408,2.3,2.3,0,0,1,2.2988,2.2881v2.6289a.57.57,0,0,1-.165.4126.5365.5365,0,0,1-.4014.17.5732.5732,0,0,1-.4126-.17.5538.5538,0,0,1-.1757-.4126V77.3953a1.0539,1.0539,0,0,0-.3355-.7866,1.1162,1.1162,0,0,0-.8032-.3247,1.0606,1.0606,0,0,0-.7866.3247,1.0815,1.0815,0,0,0-.3189.7866Z"/><path class="c" d="M528.7852,80.64a2.49,2.49,0,0,1-1.8809-.814,2.8468,2.8468,0,0,1,.0054-3.9,2.4776,2.4776,0,0,1,1.8647-.8193,2.427,2.427,0,0,1,1.8535.8306,2.8182,2.8182,0,0,1,.7642,1.9746,2.5254,2.5254,0,0,1-.77,1.8916A2.3271,2.3271,0,0,1,528.7852,80.64Zm-1.0557-3.916a1.6942,1.6942,0,0,0-.396,1.144,1.78,1.78,0,0,0,.396,1.1656,1.5163,1.5163,0,0,0,2.0679,0,1.695,1.695,0,0,0,.4287-1.1656,1.6157,1.6157,0,0,0-.4287-1.144,1.4878,1.4878,0,0,0-2.0679,0Z"/><path class="c" d="M536.6611,75.7122a.5629.5629,0,0,1,.2476.3686.61.61,0,0,1-.0713.4453.5677.5677,0,0,1-.3686.2476.5569.5569,0,0,1-.4454-.0933,2.0032,2.0032,0,0,0-1.0175-.4072,1.0319,1.0319,0,0,0-.6548.1978c-.1172.081-.1758.1523-.1758.2148a.2672.2672,0,0,0,.0273.1372.3591.3591,0,0,0,.1158.0991,2.1569,2.1569,0,0,0,.8027.2642l.0112.0107h.0108a4.6915,4.6915,0,0,1,1.0673.33,1.5534,1.5534,0,0,1,.7149.605,1.4716,1.4716,0,0,1,.2309.7593,1.5249,1.5249,0,0,1-.6928,1.2759,2.4613,2.4613,0,0,1-1.43.44,3.1506,3.1506,0,0,1-1.958-.7588.562.562,0,0,1-.2036-.3906.5289.5289,0,0,1,.1264-.4238.5215.5215,0,0,1,.396-.22.5516.5516,0,0,1,.4292.1319,1.83,1.83,0,0,0,1.21.4843,1.3665,1.3665,0,0,0,.748-.2094c.1319-.11.1983-.2032.1983-.28a.28.28,0,0,0-.0332-.16.361.361,0,0,0-.1431-.1318,2.3967,2.3967,0,0,0-.88-.3081h-.0112a4.11,4.11,0,0,1-1.0176-.3189,1.7156,1.7156,0,0,1-.6982-.6049,1.3046,1.3046,0,0,1-.187-.6929,1.4767,1.4767,0,0,1,.6489-1.21,2.3442,2.3442,0,0,1,1.3584-.4072A2.95,2.95,0,0,1,536.6611,75.7122Z"/><path class="c" d="M543.833,75.1072a.6024.6024,0,0,1,.4346.1758.57.57,0,0,1,.1816.4238.585.585,0,0,1-.1816.4287.5925.5925,0,0,1-.4346.1817h-.2749V79.386a.5763.5763,0,0,1,.4292.1816.6034.6034,0,0,1,.1758.4346.6.6,0,0,1-.605.605,1.22,1.22,0,0,1-1.2207-1.2212V76.3172h-.3193a.605.605,0,1,1,0-1.21h.3193V73.512a.5737.5737,0,0,1,.1812-.4287.6026.6026,0,0,1,.4345-.1763.6011.6011,0,0,1,.605.605v1.5952Z"/><path class="c" d="M551.3242,77.7141a.5086.5086,0,0,1-.16.3907.5965.5965,0,0,1-.4234.1484h-3.498a1.32,1.32,0,0,0,.374.7261,1.5439,1.5439,0,0,0,1.0283.4892,1.61,1.61,0,0,0,1.1714-.27.5754.5754,0,0,1,.44-.1758.4586.4586,0,0,1,.3853.1431.492.492,0,0,1,0,.7148,2.7486,2.7486,0,0,1-1.9414.7207,2.5883,2.5883,0,0,1-1.9253-.8086,2.7837,2.7837,0,0,1,0-3.8774,2.5033,2.5033,0,0,1,1.8755-.8086,2.5792,2.5792,0,0,1,1.8535.7207,2.6539,2.6539,0,0,1,.82,1.8311Zm-2.6513-1.562a1.5554,1.5554,0,0,0-1.023.396,1.4365,1.4365,0,0,0-.4619.77h3.1133a1.5053,1.5053,0,0,0-.5337-.748A1.9078,1.9078,0,0,0,548.6729,76.1521Z"/><path class="c" d="M554.2607,75.7674a1.781,1.781,0,0,1,.6929-.4786,2.0486,2.0486,0,0,1,.8032-.1762.7631.7631,0,0,1,.5337.17.54.54,0,0,1,.17.4018.5757.5757,0,0,1-.17.4126.554.554,0,0,1-.4126.1758q-1.0231,0-1.6172,1.6611v2.09a.5538.5538,0,0,1-.1757.4126.5875.5875,0,0,1-.4239.17.5676.5676,0,0,1-.4179-.17.5613.5613,0,0,1-.17-.4126V75.69a.5447.5447,0,0,1,.17-.4072.5781.5781,0,0,1,.4179-.1646.5987.5987,0,0,1,.4239.1646.5376.5376,0,0,1,.1757.4072Z"/><path class="c" d="M559.09,75.7674a1.781,1.781,0,0,1,.6929-.4786,2.0489,2.0489,0,0,1,.8032-.1762.7631.7631,0,0,1,.5337.17.54.54,0,0,1,.17.4018.5757.5757,0,0,1-.17.4126.554.554,0,0,1-.4126.1758q-1.0231,0-1.6172,1.6611v2.09a.5538.5538,0,0,1-.1757.4126.5875.5875,0,0,1-.4239.17.5676.5676,0,0,1-.4179-.17.5613.5613,0,0,1-.17-.4126V75.69a.5447.5447,0,0,1,.17-.4072.5781.5781,0,0,1,.4179-.1646.5987.5987,0,0,1,.4239.1646.5376.5376,0,0,1,.1757.4072Z"/><path class="c" d="M563.93,73.5012v.231a.5936.5936,0,0,1-.1709.4292.56.56,0,0,1-.418.1758.577.577,0,0,1-.4233-.1758.584.584,0,0,1-.1758-.4292v-.231a.5713.5713,0,0,1,.1758-.4179.5775.5775,0,0,1,.4233-.1763.5684.5684,0,0,1,.418.1709A.5754.5754,0,0,1,563.93,73.5012Zm-1.0176,1.7876a.6111.6111,0,0,1,.8467,0,.5887.5887,0,0,1,.1709.4346v4.29a.5757.5757,0,0,1-.1709.4238.568.568,0,0,1-.418.17.6.6,0,0,1-.5991-.5942v-4.29A.5879.5879,0,0,1,562.9126,75.2888Z"/><path class="c" d="M567.6807,75.1072a.6023.6023,0,0,1,.4345.1758.57.57,0,0,1,.1817.4238.5851.5851,0,0,1-.1817.4287.5924.5924,0,0,1-.4345.1817h-.2749V79.386a.5764.5764,0,0,1,.4292.1816.6037.6037,0,0,1,.1757.4346.6.6,0,0,1-.6049.605,1.22,1.22,0,0,1-1.2207-1.2212V76.3172h-.3194a.605.605,0,1,1,0-1.21h.3194V73.512a.5736.5736,0,0,1,.1811-.4287.6028.6028,0,0,1,.4346-.1763.6011.6011,0,0,1,.605.605v1.5952Z"/><path class="c" d="M572.62,80.64a2.49,2.49,0,0,1-1.8808-.814,2.8469,2.8469,0,0,1,.0053-3.9,2.4778,2.4778,0,0,1,1.8648-.8193,2.4271,2.4271,0,0,1,1.8535.8306,2.8182,2.8182,0,0,1,.7642,1.9746,2.5255,2.5255,0,0,1-.77,1.8916A2.3268,2.3268,0,0,1,572.62,80.64Zm-1.0556-3.916a1.6942,1.6942,0,0,0-.396,1.144,1.78,1.78,0,0,0,.396,1.1656,1.5162,1.5162,0,0,0,2.0678,0,1.6945,1.6945,0,0,0,.4287-1.1656,1.6152,1.6152,0,0,0-.4287-1.144,1.4876,1.4876,0,0,0-2.0678,0Z"/><path class="c" d="M578.2959,73.5012v.231a.5932.5932,0,0,1-.1709.4292.56.56,0,0,1-.418.1758.577.577,0,0,1-.4233-.1758.584.584,0,0,1-.1758-.4292v-.231a.5713.5713,0,0,1,.1758-.4179.5775.5775,0,0,1,.4233-.1763.5683.5683,0,0,1,.418.1709A.575.575,0,0,1,578.2959,73.5012Zm-1.0176,1.7876a.6111.6111,0,0,1,.8467,0,.5883.5883,0,0,1,.1709.4346v4.29a.5753.5753,0,0,1-.1709.4238.5678.5678,0,0,1-.418.17.6.6,0,0,1-.5991-.5942v-4.29A.5883.5883,0,0,1,577.2783,75.2888Z"/><path class="c" d="M581.3755,75.7674a1.78,1.78,0,0,1,.6929-.4786,2.0482,2.0482,0,0,1,.8032-.1762.7633.7633,0,0,1,.5337.17.54.54,0,0,1,.17.4018.5757.5757,0,0,1-.17.4126.5543.5543,0,0,1-.4126.1758q-1.0233,0-1.6172,1.6611v2.09a.5535.5535,0,0,1-.1758.4126.5875.5875,0,0,1-.4238.17.5678.5678,0,0,1-.418-.17.5613.5613,0,0,1-.17-.4126V75.69a.5447.5447,0,0,1,.17-.4072.5783.5783,0,0,1,.418-.1646.5986.5986,0,0,1,.4238.1646.5373.5373,0,0,1,.1758.4072Z"/><path class="c" d="M589.9668,77.7141a.5083.5083,0,0,1-.16.3907.596.596,0,0,1-.4233.1484h-3.4981a1.32,1.32,0,0,0,.3741.7261,1.5437,1.5437,0,0,0,1.0283.4892,1.61,1.61,0,0,0,1.1714-.27.5754.5754,0,0,1,.44-.1758.4586.4586,0,0,1,.3853.1431.4921.4921,0,0,1,0,.7148,2.7488,2.7488,0,0,1-1.9414.7207,2.5883,2.5883,0,0,1-1.9253-.8086,2.7834,2.7834,0,0,1,0-3.8774,2.5033,2.5033,0,0,1,1.8755-.8086,2.5794,2.5794,0,0,1,1.8535.7207,2.6539,2.6539,0,0,1,.82,1.8311Zm-2.6514-1.562a1.5551,1.5551,0,0,0-1.0229.396,1.4352,1.4352,0,0,0-.4619.77h3.1132a1.5051,1.5051,0,0,0-.5336-.748A1.9078,1.9078,0,0,0,587.3154,76.1521Z"/><path class="c" d="M595.1143,75.7122a.5632.5632,0,0,1,.2475.3686.61.61,0,0,1-.0713.4453.5677.5677,0,0,1-.3686.2476.5567.5567,0,0,1-.4453-.0933,2.0035,2.0035,0,0,0-1.0176-.4072,1.0319,1.0319,0,0,0-.6548.1978c-.1172.081-.1758.1523-.1758.2148a.2661.2661,0,0,0,.0274.1372.3574.3574,0,0,0,.1157.0991,2.1569,2.1569,0,0,0,.8027.2642l.0112.0107h.0108a4.6923,4.6923,0,0,1,1.0674.33,1.5537,1.5537,0,0,1,.7148.605,1.4717,1.4717,0,0,1,.231.7593,1.525,1.525,0,0,1-.6929,1.2759,2.461,2.461,0,0,1-1.43.44,3.1508,3.1508,0,0,1-1.958-.7588.5624.5624,0,0,1-.2036-.3906.5286.5286,0,0,1,.1265-.4238.5211.5211,0,0,1,.396-.22.5518.5518,0,0,1,.4292.1319,1.83,1.83,0,0,0,1.21.4843,1.3668,1.3668,0,0,0,.7481-.2094c.1318-.11.1982-.2032.1982-.28a.28.28,0,0,0-.0332-.16.36.36,0,0,0-.1431-.1318,2.396,2.396,0,0,0-.88-.3081h-.0113a4.1092,4.1092,0,0,1-1.0175-.3189,1.7152,1.7152,0,0,1-.6983-.6049,1.3046,1.3046,0,0,1-.187-.6929,1.4767,1.4767,0,0,1,.6489-1.21,2.3444,2.3444,0,0,1,1.3584-.4072A2.951,2.951,0,0,1,595.1143,75.7122Z"/><path class="c" d="M601.4561,78.385a.5661.5661,0,0,1-.4239.1763.6011.6011,0,0,1-.6045-.605V73.512a.5741.5741,0,0,1,.1817-.4287.5891.5891,0,0,1,.4228-.1763.5719.5719,0,0,1,.418.1763.5844.5844,0,0,1,.1768.4287v4.4443A.5951.5951,0,0,1,601.4561,78.385Zm.1709,1.6172a.5963.5963,0,0,1-.1709.4292.5675.5675,0,0,1-.4239.1758.6.6,0,0,1-.6045-.605v-.22a.5741.5741,0,0,1,.1817-.4287.5891.5891,0,0,1,.4228-.1763.5719.5719,0,0,1,.418.1763.5844.5844,0,0,1,.1768.4287Z"/><path class="d" d="M821.541,186.7815a2.9925,2.9925,0,0,1-2.1279,5.11H817.69V194.93a.7291.7291,0,0,1-.23.5459.7675.7675,0,0,1-.5528.2241.766.766,0,0,1-.77-.77v-8.26a.7652.7652,0,0,1,.77-.77h2.5059A2.9006,2.9006,0,0,1,821.541,186.7815Zm-3.8506.6719v2.8843h1.7227a1.3883,1.3883,0,0,0,1.0215-.42,1.426,1.426,0,0,0,.4345-1.0079,1.4594,1.4594,0,0,0-.4345-1.0361,1.3894,1.3894,0,0,0-1.0215-.42Z"/><path class="d" d="M825.6572,189.5393a2.27,2.27,0,0,1,.8819-.6089,2.6079,2.6079,0,0,1,1.0214-.2241.9719.9719,0,0,1,.68.2173.6834.6834,0,0,1,.2168.5107.7286.7286,0,0,1-.2168.5249.7062.7062,0,0,1-.5254.2242q-1.3021,0-2.0576,2.1142v2.66a.7054.7054,0,0,1-.2246.5254.746.746,0,0,1-.539.2168.722.722,0,0,1-.5313-.2168.7137.7137,0,0,1-.2178-.5254v-5.5156a.6893.6893,0,0,1,.2178-.5181.7336.7336,0,0,1,.5313-.21.7583.7583,0,0,1,.539.21.6816.6816,0,0,1,.2246.5181Z"/><path class="d" d="M833.3428,195.7415a3.1681,3.1681,0,0,1-2.3936-1.0362,3.6211,3.6211,0,0,1,.0069-4.9628,3.1514,3.1514,0,0,1,2.373-1.043,3.0916,3.0916,0,0,1,2.3594,1.0571,3.5855,3.5855,0,0,1,.9726,2.5127,3.2152,3.2152,0,0,1-.98,2.4082A2.9615,2.9615,0,0,1,833.3428,195.7415Zm-1.3438-4.9839a2.16,2.16,0,0,0-.5039,1.456,2.2685,2.2685,0,0,0,.5039,1.4839,1.93,1.93,0,0,0,2.6319,0,2.1586,2.1586,0,0,0,.5459-1.4839,2.0581,2.0581,0,0,0-.5459-1.456,1.893,1.893,0,0,0-2.6319,0Z"/><path class="d" d="M842.6807,186.6624a.7771.7771,0,0,1-.7911.7773.6788.6788,0,0,0-.4267.084q-.0557,0-.0908.2378a3.246,3.246,0,0,0-.0352.4761v.1958h.42a.766.766,0,0,1,.77.7632.7582.7582,0,0,1-.2246.5459.7319.7319,0,0,1-.5459.2309h-.42v4.9419a.77.77,0,1,1-1.54,0v-4.9419h-.3643a.7658.7658,0,0,1-.5527-.2241.7617.7617,0,0,1,0-1.0918.7658.7658,0,0,1,.5527-.2241h.3643v-.1958q0-2.3518,2.1142-2.3521a.7883.7883,0,0,1,.77.7769Z"/><path class="d" d="M850.4092,192.0174a.6493.6493,0,0,1-.2031.497.761.761,0,0,1-.5391.189h-4.4522a1.6836,1.6836,0,0,0,.4756.9243,1.9713,1.9713,0,0,0,1.31.6226,2.0512,2.0512,0,0,0,1.4912-.3428.73.73,0,0,1,.56-.2241.5843.5843,0,0,1,.49.1821.627.627,0,0,1,0,.91,3.4967,3.4967,0,0,1-2.4707.9169,3.2918,3.2918,0,0,1-2.45-1.0292,3.5419,3.5419,0,0,1,0-4.9351,3.1854,3.1854,0,0,1,2.3867-1.0288,3.284,3.284,0,0,1,2.3594.917,3.3847,3.3847,0,0,1,1.043,2.331Zm-3.374-1.9878a1.9775,1.9775,0,0,0-1.3028.5039,1.8317,1.8317,0,0,0-.5879.98h3.9619a1.9039,1.9039,0,0,0-.6787-.9521A2.4313,2.4313,0,0,0,847.0352,190.03Z"/><path class="d" d="M856.9609,189.47a.7192.7192,0,0,1,.3145.4688.7787.7787,0,0,1-.0908.5673.7189.7189,0,0,1-.4688.315.71.71,0,0,1-.5674-.1192,2.5467,2.5467,0,0,0-1.2949-.518,1.3128,1.3128,0,0,0-.833.2519c-.1494.1031-.2236.1939-.2236.273a.3384.3384,0,0,0,.0351.1753.4627.4627,0,0,0,.1465.1259,2.744,2.744,0,0,0,1.0225.336l.0136.0141h.0137a5.9307,5.9307,0,0,1,1.3584.42,1.9745,1.9745,0,0,1,.91.77,1.8669,1.8669,0,0,1,.2939.9658,1.9405,1.9405,0,0,1-.8818,1.624,3.133,3.133,0,0,1-1.82.56,4.011,4.011,0,0,1-2.4922-.9658.7143.7143,0,0,1-.2588-.4971.7556.7556,0,0,1,.665-.8193.7013.7013,0,0,1,.5459.1684,2.329,2.329,0,0,0,1.54.6157,1.739,1.739,0,0,0,.9521-.2661q.252-.2094.252-.3569a.3532.3532,0,0,0-.042-.2031.4586.4586,0,0,0-.1817-.168,3.0544,3.0544,0,0,0-1.12-.3916h-.0146a5.2287,5.2287,0,0,1-1.2949-.4063,2.1869,2.1869,0,0,1-.8887-.77,1.66,1.66,0,0,1-.2383-.8818,1.8793,1.8793,0,0,1,.8262-1.54,2.9857,2.9857,0,0,1,1.73-.5181A3.7579,3.7579,0,0,1,856.9609,189.47Z"/><path class="d" d="M863.8486,189.47a.7192.7192,0,0,1,.3145.4688.7787.7787,0,0,1-.0908.5673.7189.7189,0,0,1-.4688.315.71.71,0,0,1-.5674-.1192,2.5467,2.5467,0,0,0-1.2949-.518,1.3126,1.3126,0,0,0-.833.2519c-.1494.1031-.2236.1939-.2236.273a.3384.3384,0,0,0,.0351.1753.4627.4627,0,0,0,.1465.1259,2.744,2.744,0,0,0,1.0225.336l.0136.0141h.0137a5.9307,5.9307,0,0,1,1.3584.42,1.9745,1.9745,0,0,1,.91.77,1.8669,1.8669,0,0,1,.2939.9658,1.9405,1.9405,0,0,1-.8818,1.624,3.133,3.133,0,0,1-1.82.56,4.011,4.011,0,0,1-2.4922-.9658.7143.7143,0,0,1-.2588-.4971.7556.7556,0,0,1,.665-.8193.7013.7013,0,0,1,.5459.1684,2.329,2.329,0,0,0,1.54.6157,1.739,1.739,0,0,0,.9521-.2661q.252-.2094.252-.3569a.3532.3532,0,0,0-.042-.2031.4586.4586,0,0,0-.1817-.168,3.0544,3.0544,0,0,0-1.12-.3916h-.0146a5.2309,5.2309,0,0,1-1.295-.4063,2.1872,2.1872,0,0,1-.8886-.77,1.66,1.66,0,0,1-.2383-.8818,1.8793,1.8793,0,0,1,.8262-1.54,2.9855,2.9855,0,0,1,1.73-.5181A3.7579,3.7579,0,0,1,863.8486,189.47Z"/><path class="d" d="M867.9365,186.6555v.294a.7555.7555,0,0,1-.2177.5459.71.71,0,0,1-.5313.2241.7335.7335,0,0,1-.5391-.2241.7421.7421,0,0,1-.2246-.5459v-.294a.7564.7564,0,1,1,1.5127,0Zm-1.2949,2.2749a.7774.7774,0,0,1,1.0772,0,.7513.7513,0,0,1,.2177.5533v5.46a.7334.7334,0,0,1-.2177.5391.7222.7222,0,0,1-.5313.2168.7661.7661,0,0,1-.7637-.7559v-5.46A.7475.7475,0,0,1,866.6416,188.93Z"/><path class="d" d="M873.3965,195.7415a3.1685,3.1685,0,0,1-2.3945-1.0362,3.6237,3.6237,0,0,1,.0068-4.9628,3.1514,3.1514,0,0,1,2.373-1.043,3.0886,3.0886,0,0,1,2.3594,1.0571,3.5856,3.5856,0,0,1,.9727,2.5127,3.2144,3.2144,0,0,1-.9795,2.4082A2.9628,2.9628,0,0,1,873.3965,195.7415Zm-1.3447-4.9839a2.1594,2.1594,0,0,0-.5039,1.456,2.2679,2.2679,0,0,0,.5039,1.4839,1.9314,1.9314,0,0,0,2.6328,0,2.1629,2.1629,0,0,0,.5459-1.4839,2.062,2.062,0,0,0-.5459-1.456,1.8942,1.8942,0,0,0-2.6328,0Z"/><path class="d" d="M880.6064,194.9573a.6876.6876,0,0,1-.2382.5254.7794.7794,0,0,1-.5391.2168.7418.7418,0,0,1-.7353-.7422v-5.5156a.7491.7491,0,0,1,1.4287-.3081,2.7251,2.7251,0,0,1,1.4834-.4341,2.9283,2.9283,0,0,1,2.9267,2.9121v3.3457a.73.73,0,0,1-.21.5254.6868.6868,0,0,1-.5118.2168.7289.7289,0,0,1-.5244-.2168.7054.7054,0,0,1-.2246-.5254v-3.3457a1.3391,1.3391,0,0,0-.4267-1.001,1.4182,1.4182,0,0,0-1.0215-.4131,1.3467,1.3467,0,0,0-1.001.4131,1.3721,1.3721,0,0,0-.4063,1.001Z"/><path class="d" d="M889.1885,194.9573a.6877.6877,0,0,1-.2383.5254.7794.7794,0,0,1-.5391.2168.742.742,0,0,1-.7353-.7422v-5.5156a.7491.7491,0,0,1,1.4287-.3081,2.7251,2.7251,0,0,1,1.4834-.4341,2.9281,2.9281,0,0,1,2.9267,2.9121v3.3457a.73.73,0,0,1-.21.5254.6865.6865,0,0,1-.5117.2168.7287.7287,0,0,1-.5244-.2168.7051.7051,0,0,1-.2247-.5254v-3.3457a1.3391,1.3391,0,0,0-.4267-1.001,1.4182,1.4182,0,0,0-1.0215-.4131,1.3467,1.3467,0,0,0-1.001.4131,1.372,1.372,0,0,0-.4062,1.001Z"/><path class="d" d="M902.5586,192.0174a.6493.6493,0,0,1-.2031.497.761.761,0,0,1-.5391.189h-4.4521a1.6829,1.6829,0,0,0,.4755.9243,1.9713,1.9713,0,0,0,1.31.6226,2.0512,2.0512,0,0,0,1.4912-.3428.73.73,0,0,1,.56-.2241.5843.5843,0,0,1,.49.1821.627.627,0,0,1,0,.91,3.4966,3.4966,0,0,1-2.4707.9169,3.2918,3.2918,0,0,1-2.45-1.0292,3.5421,3.5421,0,0,1,0-4.9351,3.1855,3.1855,0,0,1,2.3867-1.0288,3.284,3.284,0,0,1,2.3594.917,3.3843,3.3843,0,0,1,1.043,2.331Zm-3.374-1.9878a1.9775,1.9775,0,0,0-1.3028.5039,1.8324,1.8324,0,0,0-.5879.98h3.962a1.9047,1.9047,0,0,0-.6788-.9521A2.4313,2.4313,0,0,0,899.1846,190.03Z"/><path class="d" d="M904.8818,186.67a.7652.7652,0,0,1,.77-.77.7674.7674,0,0,1,.5528.2236.7318.7318,0,0,1,.2314.5464v8.26a.73.73,0,0,1-.2314.5459.7659.7659,0,0,1-.5528.2241.766.766,0,0,1-.77-.77Z"/><path class="d" d="M912.5957,189.47a.72.72,0,0,1,.3154.4688.7782.7782,0,0,1-.0908.5673.72.72,0,0,1-.47.315.7079.7079,0,0,1-.5664-.1192,2.55,2.55,0,0,0-1.2949-.518,1.3129,1.3129,0,0,0-.8331.2519c-.1494.1031-.2246.1939-.2246.273a.3383.3383,0,0,0,.0352.1753.4678.4678,0,0,0,.1475.1259,2.7438,2.7438,0,0,0,1.0214.336l.0147.0141h.0137a5.9477,5.9477,0,0,1,1.3584.42,1.9669,1.9669,0,0,1,.9091.77,1.8671,1.8671,0,0,1,.294.9658,1.9408,1.9408,0,0,1-.8818,1.624,3.128,3.128,0,0,1-1.8194.56,4.0091,4.0091,0,0,1-2.4922-.9658.7109.7109,0,0,1-.2588-.4971.7538.7538,0,0,1,.6651-.8193.7026.7026,0,0,1,.5459.1684,2.3271,2.3271,0,0,0,1.54.6157,1.7336,1.7336,0,0,0,.9512-.2661q.252-.2094.2519-.3569a.3524.3524,0,0,0-.042-.2031.4581.4581,0,0,0-.1816-.168,3.0479,3.0479,0,0,0-1.12-.3916H910.37a5.2045,5.2045,0,0,1-1.2949-.4063,2.191,2.191,0,0,1-.89-.77,1.6687,1.6687,0,0,1-.2373-.8818,1.8793,1.8793,0,0,1,.8262-1.54,2.9848,2.9848,0,0,1,1.7285-.5181A3.7556,3.7556,0,0,1,912.5957,189.47Z"/><path class="d" d="M820.6387,211.7439a.7265.7265,0,0,1-.2246.5318.71.71,0,0,1-.5176.2241.7332.7332,0,0,1-.4971-.1748.7707.7707,0,0,1-.2588-.4273,3.3117,3.3117,0,0,1-1.9043.6021,3.2256,3.2256,0,0,1-2.4082-1.0288,3.56,3.56,0,0,1,0-4.9351,3.3043,3.3043,0,0,1,4.2842-.4482v-2.6319a.7272.7272,0,0,1,.2236-.5322.7617.7617,0,0,1,1.0782,0,.7282.7282,0,0,1,.2246.5322Zm-3.4024-.77a1.7642,1.7642,0,0,0,1.3233-.5811,1.9423,1.9423,0,0,0,.5527-1.3862,1.9776,1.9776,0,0,0-.5459-1.3931,1.7988,1.7988,0,0,0-2.66,0,1.978,1.978,0,0,0-.5458,1.3931,1.9419,1.9419,0,0,0,.5527,1.3862A1.764,1.764,0,0,0,817.2363,210.9739Z"/><path class="d" d="M829.8359,208.8176a.6455.6455,0,0,1-.2031.4971.7574.7574,0,0,1-.539.189h-4.4512a1.6836,1.6836,0,0,0,.4756.9243,1.9706,1.9706,0,0,0,1.3086.6226,2.0513,2.0513,0,0,0,1.4912-.3428.7329.7329,0,0,1,.5605-.2241.5825.5825,0,0,1,.4893.1821.6254.6254,0,0,1,0,.91,3.4947,3.4947,0,0,1-2.4707.917,3.2915,3.2915,0,0,1-2.45-1.0293,3.5417,3.5417,0,0,1,0-4.935,3.1875,3.1875,0,0,1,2.3877-1.0288,3.2834,3.2834,0,0,1,2.3584.917,3.3761,3.3761,0,0,1,1.0429,2.331Zm-3.374-1.9877a1.9744,1.9744,0,0,0-1.3017.5039,1.8249,1.8249,0,0,0-.5879.98h3.9619a1.9113,1.9113,0,0,0-.6787-.9521A2.432,2.432,0,0,0,826.4619,206.83Z"/><path class="d" d="M836.3594,203.47a.7652.7652,0,0,1,.77-.77.7674.7674,0,0,1,.5527.2236.7317.7317,0,0,1,.2315.5464v8.26a.73.73,0,0,1-.2315.5459.7658.7658,0,0,1-.5527.2241.766.766,0,0,1-.77-.77Z"/><path class="d" d="M839.2715,206.2556a.3837.3837,0,0,1,.3223-.3779,1.1781,1.1781,0,0,0,.9521-1.26,1.1421,1.1421,0,0,1-.5674-.3291.8516.8516,0,0,1-.2314-.6088v-.1124a.9091.9091,0,0,1,.2666-.6718.955.955,0,0,1,.707-.2661.8765.8765,0,0,1,.7139.3359,1.3811,1.3811,0,0,1,.2734.896v.14a2.7288,2.7288,0,0,1-.6445,2.002,1.913,1.913,0,0,1-1.3584.644Q839.2715,206.6477,839.2715,206.2556Z"/><path class="d" d="M848.6934,209.5877a2.78,2.78,0,0,1-.875,2.0512,2.856,2.856,0,0,1-2.0723.8609,2.9285,2.9285,0,0,1-2.919-2.9121V206.242a.7227.7227,0,0,1,.2168-.5181.7279.7279,0,0,1,1.0508,0,.7223.7223,0,0,1,.2168.5181v3.3457a1.4108,1.4108,0,0,0,1.4278,1.4282,1.4282,1.4282,0,0,0,1.0293-.4131,1.4052,1.4052,0,0,0,.44-1.0151V206.242a.7361.7361,0,0,1,.21-.5181.676.676,0,0,1,.5118-.2241.74.74,0,0,1,.5312.2241.7.7,0,0,1,.2315.5181Z"/><path class="d" d="M853.0615,206.34a2.27,2.27,0,0,1,.8819-.6089,2.6079,2.6079,0,0,1,1.0214-.2241.9719.9719,0,0,1,.68.2173.6832.6832,0,0,1,.2168.5107.7286.7286,0,0,1-.2168.5249.7062.7062,0,0,1-.5254.2242q-1.3022,0-2.0576,2.1142v2.66a.7054.7054,0,0,1-.2246.5254.746.746,0,0,1-.539.2168.722.722,0,0,1-.5313-.2168.7137.7137,0,0,1-.2178-.5254V206.242a.6892.6892,0,0,1,.2178-.5181.7336.7336,0,0,1,.5313-.21.7583.7583,0,0,1,.539.21.6814.6814,0,0,1,.2246.5181Z"/><path class="d" d="M857.6953,211.7439v-8.2881a.7272.7272,0,0,1,.2236-.5322.7617.7617,0,0,1,1.0782,0,.7282.7282,0,0,1,.2246.5322v2.6319a3.3029,3.3029,0,0,1,4.2832.4482,3.56,3.56,0,0,1,0,4.9351,3.222,3.222,0,0,1-2.4072,1.0288,3.3115,3.3115,0,0,1-1.9043-.6021.777.777,0,0,1-.2588.4273.735.735,0,0,1-.4971.1748.7122.7122,0,0,1-.5186-.2241A.7255.7255,0,0,1,857.6953,211.7439Zm4.7324-4.13a1.7987,1.7987,0,0,0-2.66,0,1.9776,1.9776,0,0,0-.5459,1.3931,1.9381,1.9381,0,0,0,.5527,1.3862,1.796,1.796,0,0,0,2.6455,0,1.9386,1.9386,0,0,0,.5537-1.3862A1.982,1.982,0,0,0,862.4277,207.6135Z"/><path class="d" d="M867.1523,211.4778a3.6725,3.6725,0,0,1,0-4.9492,3.1117,3.1117,0,0,1,2.3731-1.0288,3.1551,3.1551,0,0,1,1.8613.6162.8807.8807,0,0,1,.2666-.4414.698.698,0,0,1,.4824-.1748.68.68,0,0,1,.5039.2241.74.74,0,0,1,.2178.5317v5.502a.7171.7171,0,0,1-.2178.5254.6912.6912,0,0,1-.5039.2168.7143.7143,0,0,1-.4824-.168.8374.8374,0,0,1-.2666-.4341,3.1623,3.1623,0,0,1-1.8613.6021A3.1223,3.1223,0,0,1,867.1523,211.4778Zm.5391-2.4712a2.0591,2.0591,0,0,0,.5107,1.4214,1.6807,1.6807,0,0,0,1.3155.5737,1.7226,1.7226,0,0,0,1.33-.5737,2.0158,2.0158,0,0,0,.5253-1.4141,2.0541,2.0541,0,0,0-.5322-1.4282,1.7113,1.7113,0,0,0-1.3232-.5879,1.6782,1.6782,0,0,0-1.3086.5811A2.0659,2.0659,0,0,0,867.6914,209.0066Z"/><path class="d" d="M877.1133,211.7576a.6877.6877,0,0,1-.2383.5254.7794.7794,0,0,1-.5391.2168.742.742,0,0,1-.7353-.7422V206.242a.7491.7491,0,0,1,1.4287-.3081,2.7251,2.7251,0,0,1,1.4834-.4341,2.9283,2.9283,0,0,1,2.9268,2.9121v3.3457a.73.73,0,0,1-.21.5254.6865.6865,0,0,1-.5117.2168.7287.7287,0,0,1-.5244-.2168.705.705,0,0,1-.2246-.5254v-3.3457a1.3392,1.3392,0,0,0-.4268-1.001,1.4182,1.4182,0,0,0-1.0215-.4131,1.3467,1.3467,0,0,0-1.001.4131,1.372,1.372,0,0,0-.4062,1.001Z"/><path class="d" d="M885.709,203.4558v.294a.7549.7549,0,0,1-.2168.5459.7122.7122,0,0,1-.5322.2241.7643.7643,0,0,1-.7627-.77v-.294a.7272.7272,0,0,1,.2236-.5322.7364.7364,0,0,1,.5391-.2236.7238.7238,0,0,1,.5322.2168A.7326.7326,0,0,1,885.709,203.4558Zm-1.2949,2.2749a.7785.7785,0,0,1,1.0781,0,.7506.7506,0,0,1,.2168.5533v5.46a.7327.7327,0,0,1-.2168.5391.7242.7242,0,0,1-.5322.2168.735.735,0,0,1-.5391-.2241.7255.7255,0,0,1-.2236-.5318v-5.46A.75.75,0,0,1,884.4141,205.7307Z"/><path class="d" d="M892.4434,206.27a.7194.7194,0,0,1,.3144.4687.7789.7789,0,0,1-.0908.5674.7186.7186,0,0,1-.4688.315.71.71,0,0,1-.5673-.1192,2.547,2.547,0,0,0-1.295-.518,1.3122,1.3122,0,0,0-.833.2519c-.1494.103-.2236.1939-.2236.273a.3375.3375,0,0,0,.0352.1753.4609.4609,0,0,0,.1464.1259,2.744,2.744,0,0,0,1.0225.336l.0137.0141h.0136a5.9292,5.9292,0,0,1,1.3584.42,1.9745,1.9745,0,0,1,.91.77,1.8669,1.8669,0,0,1,.2939.9658,1.9405,1.9405,0,0,1-.8818,1.624,3.1328,3.1328,0,0,1-1.82.56,4.0113,4.0113,0,0,1-2.4922-.9658.7149.7149,0,0,1-.2588-.4971.7556.7556,0,0,1,.6651-.8193.7011.7011,0,0,1,.5459.1684,2.3288,2.3288,0,0,0,1.54.6157,1.7388,1.7388,0,0,0,.9521-.2661q.252-.2094.252-.3569a.3532.3532,0,0,0-.042-.2031.4589.4589,0,0,0-.1816-.168,3.055,3.055,0,0,0-1.12-.3916h-.0146a5.23,5.23,0,0,1-1.2949-.4063,2.1869,2.1869,0,0,1-.8887-.77,1.66,1.66,0,0,1-.2383-.8818,1.88,1.88,0,0,1,.8262-1.54,2.9864,2.9864,0,0,1,1.73-.518A3.7584,3.7584,0,0,1,892.4434,206.27Z"/><path class="d" d="M895.7471,212.5l-.1407-.0142a.838.838,0,0,1-.4335-.2656.6861.6861,0,0,1-.168-.4624v-5.502a.733.733,0,0,1,.2168-.539.7146.7146,0,0,1,.5254-.2168.6693.6693,0,0,1,.6718.42,2.9128,2.9128,0,0,1,1.4981-.42,2.8007,2.8007,0,0,1,2.1982.9658,2.6543,2.6543,0,0,1,2.1133-.9658,2.8941,2.8941,0,0,1,2.1426.8608,2.8447,2.8447,0,0,1,.8535,2.0791v3.3179a.74.74,0,0,1-.7422.7422.736.736,0,0,1-.5312-.2168.7054.7054,0,0,1-.2246-.5254V208.44a1.39,1.39,0,0,0-.42-1.022,1.3658,1.3658,0,0,0-1.0009-.42,1.3923,1.3923,0,0,0-1.001.4058,1.4288,1.4288,0,0,0-.4483.9941v3.36a.7162.7162,0,0,1-.2168.5254.7069.7069,0,0,1-.5175.2168.7422.7422,0,0,1-.5323-.2241.7.7,0,0,1-.2314-.5181v-3.36a1.4466,1.4466,0,0,0-1.4346-1.4,1.3673,1.3673,0,0,0-1.0009.42,1.39,1.39,0,0,0-.42,1.022v3.3179l-.0136.0981v.042l-.042.084v.07A.7371.7371,0,0,1,895.7471,212.5Z"/><path class="d" d="M914.6191,208.8176a.649.649,0,0,1-.2031.4971.7606.7606,0,0,1-.539.189h-4.4522a1.6836,1.6836,0,0,0,.4756.9243,1.9709,1.9709,0,0,0,1.31.6226,2.0513,2.0513,0,0,0,1.4912-.3428.7292.7292,0,0,1,.56-.2241.5847.5847,0,0,1,.49.1821.6271.6271,0,0,1,0,.91,3.4964,3.4964,0,0,1-2.4707.917,3.2915,3.2915,0,0,1-2.45-1.0293,3.5417,3.5417,0,0,1,0-4.935,3.1854,3.1854,0,0,1,2.3867-1.0288,3.2841,3.2841,0,0,1,2.3594.917,3.3846,3.3846,0,0,1,1.0429,2.331Zm-3.374-1.9877a1.9771,1.9771,0,0,0-1.3027.5039,1.8311,1.8311,0,0,0-.5879.98h3.9619a1.9051,1.9051,0,0,0-.6787-.9521A2.4314,2.4314,0,0,0,911.2451,206.83Z"/><polygon class="e" points="919.907 88.651 864.268 32.794 808.628 88.651 808.628 171.667 919.907 171.667 919.907 88.651"/><path class="f" d="M843.8878,111.2165a3.5613,3.5613,0,1,0,0,7.1225"/><path class="f" d="M880.5484,118.0379a3.5613,3.5613,0,1,0,0-7.1225"/><path class="f" d="M869.5669,133.5581v-3.92a20.2947,20.2947,0,0,1-14.4525.26v4.6192a2.2385,2.2385,0,0,1-1.59,2.1377,36.6292,36.6292,0,0,0-25.87,35.0114h73.2261a36.62,36.62,0,0,0-29.4977-35.916A2.2389,2.2389,0,0,1,869.5669,133.5581Z"/><path class="g" d="M877.8687,137.6767a25.7027,25.7027,0,0,1-15.6928,9.0266h-.012a26.3,26.3,0,0,1-14.5288-7.6545,36.6055,36.6055,0,0,0-19.9805,32.6182h73.2262A36.6123,36.6123,0,0,0,877.8687,137.6767Z"/><path class="h" d="M855.1144,127.4466v5.8211a20.9379,20.9379,0,0,0,14.4525-3.322v-2.4991Z"/><path class="i" d="M882.5742,110.7135a20.156,20.156,0,0,1-.52,4.5718,20.24,20.24,0,0,0-39.4265,0,20.2349,20.2349,0,1,1,39.9468-4.5718Z"/><path class="f" d="M882.0539,115.2853v.01a20.24,20.24,0,0,1-39.4265,0v-.01A20.2636,20.2636,0,0,1,866.48,100.0566c.18.0375,1.0221-3.7374,1.2006-3.6952s-.3063,3.9015-.13,3.9485A20.2622,20.2622,0,0,1,882.0539,115.2853Z"/><circle class="i" cx="854.9538" cy="111.7237" r="1.6036"/><rect class="i" x="850.9234" y="104.9616" width="4.678" height="1.7664" rx="0.8832" ry="0.8832" transform="translate(0.888 218.6176) rotate(-14.608)"/><circle class="i" cx="869.4086" cy="111.7237" r="1.6036"/><rect class="i" x="868.761" y="104.9616" width="4.678" height="1.7664" rx="0.8832" ry="0.8832" transform="matrix(-0.9677, -0.2522, 0.2522, -0.9677, 1687.3465, 427.963)"/><path class="i" d="M854.7945,118.0174a5.0316,5.0316,0,1,1,5.0316-5.0316A5.0374,5.0374,0,0,1,854.7945,118.0174Zm0-9.5814a4.55,4.55,0,1,0,4.55,4.55A4.5549,4.5549,0,0,0,854.7945,108.436Z"/><path class="i" d="M869.5679,118.0174a5.0316,5.0316,0,1,1,5.0316-5.0316A5.0375,5.0375,0,0,1,869.5679,118.0174Zm0-9.5814a4.55,4.55,0,1,0,4.55,4.55A4.5548,4.5548,0,0,0,869.5679,108.436Z"/><path class="i" d="M864.7245,113.29a4.6268,4.6268,0,0,0-4.9873-.0654l-.2588-.406a5.0339,5.0339,0,0,1,5.5162.0725Z"/><path class="i" d="M862.2861,124.9026a5.0047,5.0047,0,0,1-2.8133-.86.2408.2408,0,0,1,.27-.3989,4.6258,4.6258,0,0,0,4.9874.0654.2407.2407,0,1,1,.2587.406A5.015,5.015,0,0,1,862.2861,124.9026Z"/><path class="i" d="M862.3684,120.022a2.7681,2.7681,0,0,1-1.5534-.4744.2411.2411,0,0,1,.27-.4,2.334,2.334,0,0,0,2.517.0332.2407.2407,0,1,1,.2587.406A2.7682,2.7682,0,0,1,862.3684,120.022Z"/><circle class="i" cx="848.2896" cy="96.361" r="6.1825"/><circle class="i" cx="853.9502" cy="90.48" r="6.1825"/><circle class="i" cx="861.6672" cy="89.8778" r="6.1825"/><circle class="i" cx="871.0122" cy="90.48" r="6.1825"/><circle class="i" cx="875.7494" cy="95.0383" r="6.1825"/><circle class="i" cx="879.6787" cy="98.96" r="6.1825"/><circle class="i" cx="868.3655" cy="97.7858" r="4.5043"/><circle class="i" cx="875.1218" cy="100.1476" r="4.5043"/><circle class="i" cx="861.0617" cy="96.956" r="4.5043"/><circle class="i" cx="853.9502" cy="97.5582" r="4.5043"/><path class="d" d="M675.3672,188.7234a3.4185,3.4185,0,0,0-1.0225,2.4639,3.2253,3.2253,0,0,0,1.043,2.415,3.3816,3.3816,0,0,0,2.415,1.001,3.63,3.63,0,0,0,2.3379-.77.7551.7551,0,0,1,.5742-.14.8156.8156,0,0,1,.5459.294.799.799,0,0,1,.1543.5947.7619.7619,0,0,1-.2939.5254,5.1122,5.1122,0,0,1-3.2344,1.0918,4.9889,4.9889,0,0,1-3.6123-1.4771,4.9073,4.9073,0,0,1,0-7.1118,5.04,5.04,0,0,1,3.6123-1.4912,5.1126,5.1126,0,0,1,3.2344,1.0923.8064.8064,0,0,1,.2939.5317.8051.8051,0,0,1-.7.896.7241.7241,0,0,1-.5742-.1538,3.6653,3.6653,0,0,0-4.7734.2378Z"/><path class="d" d="M686.875,196.2415a3.1685,3.1685,0,0,1-2.3945-1.0362,3.6237,3.6237,0,0,1,.0068-4.9628A3.1515,3.1515,0,0,1,686.86,189.2a3.0884,3.0884,0,0,1,2.3593,1.0571,3.5852,3.5852,0,0,1,.9727,2.5127,3.2144,3.2144,0,0,1-.98,2.4082A2.9628,2.9628,0,0,1,686.875,196.2415Zm-1.3447-4.9839a2.1594,2.1594,0,0,0-.5039,1.456,2.2679,2.2679,0,0,0,.5039,1.4839,1.9314,1.9314,0,0,0,2.6328,0,2.1629,2.1629,0,0,0,.5459-1.4839,2.062,2.062,0,0,0-.5459-1.456,1.8942,1.8942,0,0,0-2.6328,0Z"/><path class="d" d="M692.6709,187.17a.7635.7635,0,0,1,.7695-.77.77.77,0,0,1,.5537.2236.7342.7342,0,0,1,.2305.5464v8.26a.7325.7325,0,0,1-.2305.5459.7679.7679,0,0,1-.5537.2241.7643.7643,0,0,1-.7695-.77Z"/><path class="d" d="M696.1562,187.17a.7654.7654,0,0,1,.7706-.77.7674.7674,0,0,1,.5527.2236.7318.7318,0,0,1,.2314.5464v8.26a.73.73,0,0,1-.2314.5459.7658.7658,0,0,1-.5527.2241.7662.7662,0,0,1-.7706-.77Z"/><path class="d" d="M705.8447,192.5174a.649.649,0,0,1-.2031.497.7607.7607,0,0,1-.5391.189H700.65a1.6836,1.6836,0,0,0,.4756.9243,1.9709,1.9709,0,0,0,1.31.6226,2.0514,2.0514,0,0,0,1.4913-.3428.7292.7292,0,0,1,.56-.2241.5847.5847,0,0,1,.49.1821.6272.6272,0,0,1,0,.91,3.4967,3.4967,0,0,1-2.4707.9169,3.2918,3.2918,0,0,1-2.45-1.0292,3.5419,3.5419,0,0,1,0-4.9351,3.1854,3.1854,0,0,1,2.3867-1.0288,3.2841,3.2841,0,0,1,2.3594.917,3.3846,3.3846,0,0,1,1.0429,2.331Zm-3.374-1.9878a1.9771,1.9771,0,0,0-1.3027.5039,1.8311,1.8311,0,0,0-.5879.98h3.9619a1.9051,1.9051,0,0,0-.6787-.9521A2.4316,2.4316,0,0,0,702.4707,190.53Z"/><path class="d" d="M708.63,195.1707a3.4249,3.4249,0,0,1,0-4.9351,3.5207,3.5207,0,0,1,2.5068-1.0361,3.583,3.583,0,0,1,2.2256.77.7225.7225,0,0,1,.28.4971.7058.7058,0,0,1-.1475.5527.7324.7324,0,0,1-.49.28.6675.6675,0,0,1-.5381-.1543,2.3126,2.3126,0,0,0-1.3936-.4478,1.9419,1.9419,0,0,0-1.3925.6021,1.9306,1.9306,0,0,0-.0078,2.8208,1.9392,1.9392,0,0,0,1.3935.5952,2.322,2.322,0,0,0,1.4-.4482.6624.6624,0,0,1,.5312-.14.7382.7382,0,0,1,.4971.28.6849.6849,0,0,1,.1475.5391.8169.8169,0,0,1-.28.5107,3.7468,3.7468,0,0,1-2.2256.7422A3.456,3.456,0,0,1,708.63,195.1707Z"/><path class="d" d="M718.4307,189.2a.7658.7658,0,0,1,.5527.2241.7234.7234,0,0,1,.2314.5391.7462.7462,0,0,1-.2314.5459.7548.7548,0,0,1-.5527.2309H718.08v3.9058a.732.732,0,0,1,.5459.2309.7683.7683,0,0,1,.2246.5533.766.766,0,0,1-.77.77,1.5536,1.5536,0,0,1-1.5537-1.5542V190.74H716.12a.77.77,0,1,1,0-1.54h.4063v-2.03a.7318.7318,0,0,1,.2314-.5464.7657.7657,0,0,1,.5527-.2236.7637.7637,0,0,1,.77.77v2.03Z"/><path class="d" d="M723.19,187.1555v.294a.7543.7543,0,0,1-.2168.5459.712.712,0,0,1-.5322.2241.7643.7643,0,0,1-.7627-.77v-.294a.7272.7272,0,0,1,.2236-.5322.7366.7366,0,0,1,.5391-.2236.7237.7237,0,0,1,.5322.2168A.7322.7322,0,0,1,723.19,187.1555Zm-1.2949,2.2749a.7785.7785,0,0,1,1.0781,0,.75.75,0,0,1,.2168.5533v5.46a.7323.7323,0,0,1-.2168.5391.724.724,0,0,1-.5322.2168.7351.7351,0,0,1-.5391-.2241.7255.7255,0,0,1-.2236-.5318v-5.46A.7506.7506,0,0,1,721.8955,189.43Z"/><path class="d" d="M727.8662,196.1433q-.2373-.1113-.2724-.1889a.46.46,0,0,0-.0489-.0909c-.0283-.0092-.0517-.0468-.07-.1123L725.207,190.32a.6564.6564,0,0,1-.0078-.5532.7573.7573,0,0,1,.4131-.3989.5931.5931,0,0,1,.5322,0,.7837.7837,0,0,1,.4063.4062l1.6094,3.8076,1.624-3.8076a.73.73,0,0,1,.3857-.4062.6527.6527,0,0,1,.56,0,.7537.7537,0,0,1,.4062.3989.6563.6563,0,0,1-.0068.5532l-2.2959,5.4316a.3166.3166,0,0,1-.0566.0982c-.0186.019-.0371.04-.0557.063a.8213.8213,0,0,1-.0908.0913.7758.7758,0,0,0-.0908.0908.15.15,0,0,1-.07.0488H728.44v.0142a.2476.2476,0,0,0-.1113.0278h-.0283a.53.53,0,0,1-.1328.0142.5387.5387,0,0,1-.1338-.0142h-.0274a.4711.4711,0,0,0-.1123-.0278v-.0142Z"/><path class="d" d="M735.2725,187.1555v.294a.7547.7547,0,0,1-.2168.5459.7124.7124,0,0,1-.5323.2241.7645.7645,0,0,1-.7627-.77v-.294a.7273.7273,0,0,1,.2237-.5322.7364.7364,0,0,1,.539-.2236.724.724,0,0,1,.5323.2168A.7326.7326,0,0,1,735.2725,187.1555Zm-1.295,2.2749a.7787.7787,0,0,1,1.0782,0,.7506.7506,0,0,1,.2168.5533v5.46a.7327.7327,0,0,1-.2168.5391.7244.7244,0,0,1-.5323.2168.7349.7349,0,0,1-.539-.2241.7256.7256,0,0,1-.2237-.5318v-5.46A.7506.7506,0,0,1,733.9775,189.43Z"/><path class="d" d="M740.0469,189.2a.7658.7658,0,0,1,.5527.2241.7235.7235,0,0,1,.2315.5391.7463.7463,0,0,1-.2315.5459.7548.7548,0,0,1-.5527.2309h-.3506v3.9058a.732.732,0,0,1,.5459.2309.7683.7683,0,0,1,.2246.5533.766.766,0,0,1-.7705.77,1.5538,1.5538,0,0,1-1.5537-1.5542V190.74h-.4063a.77.77,0,1,1,0-1.54h.4063v-2.03a.7318.7318,0,0,1,.2314-.5464.7658.7658,0,0,1,.5528-.2236.7635.7635,0,0,1,.7695.77v2.03Z"/><path class="d" d="M749.5811,192.5174a.649.649,0,0,1-.2032.497.7606.7606,0,0,1-.539.189h-4.4522a1.6836,1.6836,0,0,0,.4756.9243,1.9711,1.9711,0,0,0,1.31.6226,2.0512,2.0512,0,0,0,1.4912-.3428.7294.7294,0,0,1,.56-.2241.5845.5845,0,0,1,.49.1821.6272.6272,0,0,1,0,.91,3.4967,3.4967,0,0,1-2.4707.9169,3.2918,3.2918,0,0,1-2.45-1.0292,3.5419,3.5419,0,0,1,0-4.9351,3.1854,3.1854,0,0,1,2.3867-1.0288,3.2841,3.2841,0,0,1,2.3594.917,3.3847,3.3847,0,0,1,1.043,2.331ZM746.207,190.53a1.9771,1.9771,0,0,0-1.3027.5039,1.8311,1.8311,0,0,0-.5879.98h3.9619a1.9045,1.9045,0,0,0-.6787-.9521A2.4314,2.4314,0,0,0,746.207,190.53Zm1.7354-2.688a1.3014,1.3014,0,0,1-.9092.3779q-.5054,0-.5049-.2939a.5723.5723,0,0,1,.1123-.3081l.7979-1.232a.7394.7394,0,0,1,.6377-.4062,1.5,1.5,0,0,1,.7138.1753c.2188.1167.3291.2426.3291.3779a.58.58,0,0,1-.2382.4131Z"/><path class="d" d="M756.1328,189.97a.7192.7192,0,0,1,.3145.4688.7782.7782,0,0,1-.0909.5673.7184.7184,0,0,1-.4687.315.71.71,0,0,1-.5674-.1192,2.5467,2.5467,0,0,0-1.2949-.518,1.3126,1.3126,0,0,0-.833.2519c-.1494.1031-.2236.1939-.2236.273a.3384.3384,0,0,0,.0351.1753.4627.4627,0,0,0,.1465.1259,2.744,2.744,0,0,0,1.0225.336l.0136.0141H754.2a5.9307,5.9307,0,0,1,1.3584.42,1.9745,1.9745,0,0,1,.91.77,1.8679,1.8679,0,0,1,.2939.9658,1.9405,1.9405,0,0,1-.8818,1.624,3.1331,3.1331,0,0,1-1.82.56,4.011,4.011,0,0,1-2.4921-.9658.7139.7139,0,0,1-.2588-.4971.7556.7556,0,0,1,.665-.8193.7013.7013,0,0,1,.5459.1684,2.329,2.329,0,0,0,1.54.6157,1.7394,1.7394,0,0,0,.9522-.2661q.252-.2094.2519-.3569a.3533.3533,0,0,0-.0419-.2031.4586.4586,0,0,0-.1817-.168,3.0544,3.0544,0,0,0-1.12-.3916h-.0147a5.2314,5.2314,0,0,1-1.2949-.4063,2.1872,2.1872,0,0,1-.8886-.77,1.66,1.66,0,0,1-.2383-.8818,1.8794,1.8794,0,0,1,.8261-1.54A2.9859,2.9859,0,0,1,754.04,189.2,3.7581,3.7581,0,0,1,756.1328,189.97Z"/><polygon class="e" points="770.175 88.932 714.536 33.075 658.896 88.932 658.896 171.947 770.175 171.947 770.175 88.932"/><path class="j" d="M736.1344,109.4281a83.3129,83.3129,0,0,0,.843,15.8978c.6119,4.0815,2.8781,12.1673,3.8139,15.3759-3.1285.9878-6.4218,1.9209-9.8759,2.77-9.76,2.3995-31.7455-.6793-39.8673-.1139"/><path class="j" d="M677.2805,139.2565a23.9385,23.9385,0,0,0,5.1387-4.3357,25.1144,25.1144,0,0,0,5.9416-12.8467l2.2648-13.4982,22.6256-14.7645v44.321c-1.6733.8551-11.495,5.759-21.5583,5.2592A29.2408,29.2408,0,0,1,678.806,140.14C678.1532,139.7906,677.629,139.4744,677.2805,139.2565Z"/><path class="k" d="M720.4775,133.8384v-3.92a20.2951,20.2951,0,0,1-14.4526.26v4.6192a2.2384,2.2384,0,0,1-1.59,2.1377,36.6292,36.6292,0,0,0-25.87,35.0114h73.2262a36.62,36.62,0,0,0-29.4978-35.916A2.2388,2.2388,0,0,1,720.4775,133.8384Z"/><path class="h" d="M706.0249,127.7269v5.8211a20.938,20.938,0,0,0,14.4526-3.322v-2.4991Z"/><path class="k" d="M733.4847,110.9938a20.15,20.15,0,0,1-.52,4.5718,20.24,20.24,0,0,0-39.4264,0,20.2348,20.2348,0,1,1,39.9467-4.5718Z"/><path class="j" d="M733.4847,110.9938a20.15,20.15,0,0,1-.52,4.5718,20.24,20.24,0,0,0-39.4264,0,20.2348,20.2348,0,1,1,39.9467-4.5718Z"/><path class="j" d="M736.1344,112.0193a22.7888,22.7888,0,0,1-.5885,5.1705,22.8905,22.8905,0,0,0-44.5894,0,22.8847,22.8847,0,1,1,45.1779-5.1705Z"/><path class="k" d="M732.9644,115.5656v.01a20.24,20.24,0,0,1-39.4264,0v-.01a20.2635,20.2635,0,0,1,23.852-15.2287c.18.0375,1.0222-3.7374,1.2006-3.6952s-.3063,3.9016-.13,3.9485A20.2622,20.2622,0,0,1,732.9644,115.5656Z"/><circle class="i" cx="705.8644" cy="112.004" r="1.6036"/><circle class="h" cx="702.9761" cy="118.7041" r="2.8882"/><path class="h" d="M712.9276,125.8089a3.1328,3.1328,0,0,1-3.129-3.1293.2409.2409,0,0,1,.4817,0,2.6473,2.6473,0,1,0,5.2946,0,.2409.2409,0,0,1,.4817,0A3.1328,3.1328,0,0,1,712.9276,125.8089Z"/><path class="k" d="M694.9209,111.4968a3.5613,3.5613,0,1,0,0,7.1225"/><path class="k" d="M731.5815,118.3182a3.5613,3.5613,0,1,0,0-7.1225"/><rect class="j" x="701.8339" y="105.2419" width="4.678" height="1.7664" rx="0.8832" ry="0.8832" transform="translate(-4.0022 181.0257) rotate(-14.608)"/><circle class="i" cx="720.3192" cy="112.004" r="1.6036"/><circle class="h" cx="723.2074" cy="118.7041" r="2.8882"/><rect class="j" x="719.6716" y="105.2419" width="4.678" height="1.7664" rx="0.8832" ry="0.8832" transform="translate(1393.9163 390.9136) rotate(-165.392)"/><path class="b" d="M691.0481,171.9473h48.26c-3.689-4.7532-6.4307-12.9385-7.41-22.6835v-.0167a67.7,67.7,0,0,1,1.511-9.0459A36.4436,36.4436,0,0,0,729.07,138.07c-2.3824,7.0426-7.7034,11.946-13.8916,11.946s-11.5092-4.9034-13.8916-11.946a36.4436,36.4436,0,0,0-4.3394,2.1316,67.6838,67.6838,0,0,1,1.511,9.0459v.0167C697.4788,159.0088,694.7371,167.1941,691.0481,171.9473Z"/><path class="i" d="M722.2865,110.1021a.24.24,0,0,1-.1346-.0411,2.3353,2.3353,0,0,0-2.5174-.0332.2407.2407,0,1,1-.2588-.406,2.8238,2.8238,0,0,1,3.0453.04.2408.2408,0,0,1-.1345.44Z"/><path class="i" d="M706.6107,110.1021a.24.24,0,0,1-.1345-.0411,2.3338,2.3338,0,0,0-2.5165-.0332.241.241,0,0,1-.26-.406,2.8238,2.8238,0,0,1,3.0453.04.2408.2408,0,0,1-.1346.44Z"/><path class="l" d="M693.0178,121.8333a2.9318,2.9318,0,1,1,2.9314-2.9317A2.9352,2.9352,0,0,1,693.0178,121.8333Zm0-5.3818a2.45,2.45,0,1,0,2.45,2.45A2.4529,2.4529,0,0,0,693.0178,116.4515Z"/><path class="l" d="M733.4848,121.8333a2.9318,2.9318,0,1,1,2.9315-2.9317A2.9352,2.9352,0,0,1,733.4848,121.8333Zm0-5.3818a2.45,2.45,0,1,0,2.45,2.45A2.4529,2.4529,0,0,0,733.4848,116.4515Z"/><path class="d" d="M981.8281,186.7815a2.9925,2.9925,0,0,1-2.1279,5.11h-1.7217V194.93a.73.73,0,0,1-.2314.5459.7642.7642,0,0,1-.5528.2241.7643.7643,0,0,1-.7695-.77v-8.26a.7635.7635,0,0,1,.7695-.77H979.7A2.8992,2.8992,0,0,1,981.8281,186.7815Zm-3.85.6719v2.8843H979.7a1.3921,1.3921,0,0,0,1.0225-.42,1.4209,1.4209,0,0,0,.4335-1.0079,1.4543,1.4543,0,0,0-.4335-1.0361,1.3932,1.3932,0,0,0-1.0225-.42Z"/><path class="d" d="M984.6494,194.6775a3.6722,3.6722,0,0,1,0-4.9492,3.1147,3.1147,0,0,1,2.3731-1.0288,3.1589,3.1589,0,0,1,1.8623.6162.8776.8776,0,0,1,.2656-.4414.7021.7021,0,0,1,.4834-.1748.68.68,0,0,1,.5039.2241.739.739,0,0,1,.2168.5317v5.502a.7166.7166,0,0,1-.2168.5254.6912.6912,0,0,1-.5039.2168.7186.7186,0,0,1-.4834-.168.8346.8346,0,0,1-.2656-.4341,3.1657,3.1657,0,0,1-1.8623.6021A3.1253,3.1253,0,0,1,984.6494,194.6775Zm.5391-2.4712a2.0591,2.0591,0,0,0,.5107,1.4214,1.6811,1.6811,0,0,0,1.3164.5737,1.7238,1.7238,0,0,0,1.33-.5737,2.02,2.02,0,0,0,.5254-1.4141,2.0541,2.0541,0,0,0-.5322-1.4282,1.7128,1.7128,0,0,0-1.3233-.5879,1.6771,1.6771,0,0,0-1.3086.5811A2.0666,2.0666,0,0,0,985.1885,192.2063Z"/><path class="d" d="M994.61,189.5393a2.2688,2.2688,0,0,1,.8818-.6089,2.6161,2.6161,0,0,1,1.0224-.2241.9694.9694,0,0,1,.6788.2173.6837.6837,0,0,1,.2168.5107.729.729,0,0,1-.2168.5249.7028.7028,0,0,1-.5245.2242q-1.3022,0-2.0585,2.1142v2.66a.7045.7045,0,0,1-.2237.5254.7476.7476,0,0,1-.539.2168.7244.7244,0,0,1-.5323-.2168.7166.7166,0,0,1-.2168-.5254v-5.5156a.6921.6921,0,0,1,.2168-.5181.7361.7361,0,0,1,.5323-.21.76.76,0,0,1,.539.21.6807.6807,0,0,1,.2237.5181Z"/><path class="d" d="M1001.61,188.7a.7681.7681,0,0,1,.5537.2241.7262.7262,0,0,1,.23.5391.7491.7491,0,0,1-.23.5459.757.757,0,0,1-.5537.2309h-.35v3.9058a.7319.7319,0,0,1,.5459.2309.7671.7671,0,0,1,.2237.5533.7645.7645,0,0,1-.77.77,1.5538,1.5538,0,0,1-1.5537-1.5542V190.24h-.4062a.77.77,0,1,1,0-1.54h.4062v-2.03a.7309.7309,0,0,1,.2305-.5464.7674.7674,0,0,1,.5527-.2236.7635.7635,0,0,1,.7705.77v2.03Z"/><path class="d" d="M1006.3711,186.6555v.294a.7551.7551,0,0,1-.2178.5459.71.71,0,0,1-.5312.2241.7334.7334,0,0,1-.5391-.2241.7421.7421,0,0,1-.2246-.5459v-.294a.7564.7564,0,1,1,1.5127,0Zm-1.2949,2.2749a.7773.7773,0,0,1,1.0771,0,.751.751,0,0,1,.2178.5533v5.46a.7331.7331,0,0,1-.2178.5391.722.722,0,0,1-.5312.2168.7661.7661,0,0,1-.7637-.7559v-5.46A.7475.7475,0,0,1,1005.0762,188.93Z"/><path class="d" d="M1009.3389,194.6707a3.4249,3.4249,0,0,1,0-4.9351,3.52,3.52,0,0,1,2.5058-1.0361,3.5858,3.5858,0,0,1,2.2266.77.7181.7181,0,0,1,.2793.4971.7014.7014,0,0,1-.1465.5527.7346.7346,0,0,1-.49.28.6687.6687,0,0,1-.5391-.1543,2.3117,2.3117,0,0,0-1.3926-.4478,1.9441,1.9441,0,0,0-1.3935.6021,1.93,1.93,0,0,0-.0069,2.8208,1.9376,1.9376,0,0,0,1.3926.5952,2.32,2.32,0,0,0,1.4-.4482.6647.6647,0,0,1,.5322-.14.7382.7382,0,0,1,.4971.28.6805.6805,0,0,1,.1465.5391.8113.8113,0,0,1-.2793.5107,3.7519,3.7519,0,0,1-2.2266.7422A3.4553,3.4553,0,0,1,1009.3389,194.6707Z"/><path class="d" d="M1022.499,192.7874a2.78,2.78,0,0,1-.875,2.0512,2.8558,2.8558,0,0,1-2.0722.8609,2.9283,2.9283,0,0,1-2.919-2.9121v-3.3457a.7227.7227,0,0,1,.2168-.5181.7279.7279,0,0,1,1.0508,0,.7227.7227,0,0,1,.2168.5181v3.3457a1.4108,1.4108,0,0,0,1.4277,1.4282,1.4278,1.4278,0,0,0,1.0293-.4131,1.4044,1.4044,0,0,0,.44-1.0151v-3.3457a.7362.7362,0,0,1,.21-.5181.6758.6758,0,0,1,.5117-.2241.74.74,0,0,1,.5313.2241.7.7,0,0,1,.2314.5181Z"/><path class="d" d="M1025.4531,186.67a.7637.7637,0,0,1,.77-.77.77.77,0,0,1,.5537.2236.7345.7345,0,0,1,.23.5464v8.26a.7328.7328,0,0,1-.23.5459.7681.7681,0,0,1-.5537.2241.7645.7645,0,0,1-.77-.77Z"/><path class="d" d="M1030.3672,186.6555v.294a.7556.7556,0,0,1-.2178.5459.71.71,0,0,1-.5312.2241.7334.7334,0,0,1-.5391-.2241.7421.7421,0,0,1-.2246-.5459v-.294a.7564.7564,0,1,1,1.5127,0Zm-1.2949,2.2749a.7773.7773,0,0,1,1.0771,0,.7514.7514,0,0,1,.2178.5533v5.46a.7335.7335,0,0,1-.2178.5391.722.722,0,0,1-.5312.2168.7661.7661,0,0,1-.7637-.7559v-5.46A.7475.7475,0,0,1,1029.0723,188.93Z"/><path class="d" d="M1039.0752,192.0174a.6493.6493,0,0,1-.2031.497.761.761,0,0,1-.5391.189h-4.4521a1.6829,1.6829,0,0,0,.4755.9243,1.9713,1.9713,0,0,0,1.31.6226,2.0512,2.0512,0,0,0,1.4912-.3428.73.73,0,0,1,.56-.2241.5843.5843,0,0,1,.49.1821.627.627,0,0,1,0,.91,3.4966,3.4966,0,0,1-2.4707.9169,3.2918,3.2918,0,0,1-2.45-1.0292,3.5421,3.5421,0,0,1,0-4.9351,3.1856,3.1856,0,0,1,2.3868-1.0288,3.2839,3.2839,0,0,1,2.3593.917,3.3843,3.3843,0,0,1,1.043,2.331Zm-3.374-1.9878a1.9775,1.9775,0,0,0-1.3028.5039,1.8324,1.8324,0,0,0-.5879.98h3.962a1.9051,1.9051,0,0,0-.6787-.9521A2.4319,2.4319,0,0,0,1035.7012,190.03Z"/><path class="d" d="M1042.8125,189.5393a2.27,2.27,0,0,1,.8818-.6089,2.6169,2.6169,0,0,1,1.0225-.2241.9691.9691,0,0,1,.6787.2173.6837.6837,0,0,1,.2168.5107.729.729,0,0,1-.2168.5249.7025.7025,0,0,1-.5244.2242q-1.3023,0-2.0586,2.1142v2.66a.7044.7044,0,0,1-.2236.5254.7477.7477,0,0,1-.5391.2168.724.724,0,0,1-.5322-.2168.7162.7162,0,0,1-.2168-.5254v-5.5156a.6917.6917,0,0,1,.2168-.5181.7357.7357,0,0,1,.5322-.21.76.76,0,0,1,.5391.21.6807.6807,0,0,1,.2236.5181Z"/><path class="d" d="M1051.7725,189.47a.7207.7207,0,0,1,.3154.4688.7787.7787,0,0,1-.0908.5673.7207.7207,0,0,1-.47.315.708.708,0,0,1-.5664-.1192,2.55,2.55,0,0,0-1.2949-.518,1.3128,1.3128,0,0,0-.833.2519c-.1494.1031-.2246.1939-.2246.273a.3373.3373,0,0,0,.0352.1753.4672.4672,0,0,0,.1474.1259,2.7444,2.7444,0,0,0,1.0215.336l.0146.0141h.0137a5.9446,5.9446,0,0,1,1.3584.42,1.9667,1.9667,0,0,1,.9092.77,1.8669,1.8669,0,0,1,.2939.9658,1.9405,1.9405,0,0,1-.8818,1.624,3.1277,3.1277,0,0,1-1.8193.56,4.0091,4.0091,0,0,1-2.4922-.9658.7109.7109,0,0,1-.2588-.4971.7539.7539,0,0,1,.665-.8193.7025.7025,0,0,1,.5459.1684,2.3272,2.3272,0,0,0,1.54.6157,1.7333,1.7333,0,0,0,.9511-.2661q.252-.2094.252-.3569a.3532.3532,0,0,0-.042-.2031.4581.4581,0,0,0-.1816-.168,3.0486,3.0486,0,0,0-1.12-.3916h-.0136a5.2032,5.2032,0,0,1-1.2949-.4063,2.19,2.19,0,0,1-.89-.77,1.6687,1.6687,0,0,1-.2373-.8818,1.8793,1.8793,0,0,1,.8262-1.54,2.9846,2.9846,0,0,1,1.7285-.5181A3.7558,3.7558,0,0,1,1051.7725,189.47Z"/><polygon class="e" points="1069.639 89.379 1014 33.523 958.361 89.379 958.361 172.395 1069.639 172.395 1069.639 89.379"/><path class="m" d="M1050.6126,171.667H977.3865a36.5354,36.5354,0,0,1,13.33-28.2547,34.38,34.38,0,0,1,2.982-2.2161,36.33,36.33,0,0,1,9.5579-4.5429,2.23,2.23,0,0,0,1.59-2.1341v-4.62a20.296,20.296,0,0,0,14.4526-.26v3.9214a2.2425,2.2425,0,0,0,1.8162,2.192,36.4838,36.4838,0,0,1,13.1854,5.4437c1.0311.6938,2.0282,1.4308,2.9821,2.2209A36.5183,36.5183,0,0,1,1050.6126,171.667Z"/><path class="m" d="M1034.3,141.1962c-1.002.6311-2.0329,1.2189-3.0928,1.7488a37.27,37.27,0,0,1-6.494,2.5725h-.0144a38.1469,38.1469,0,0,1-21.4042,0h-.01a37.2669,37.2669,0,0,1-6.494-2.5725q-1.597-.802-3.0929-1.7488a36.33,36.33,0,0,1,9.5579-4.5429,2.23,2.23,0,0,0,1.59-2.1341v-4.62a20.296,20.296,0,0,0,14.4526-.26v3.9214a2.2425,2.2425,0,0,0,1.8162,2.192,36.4838,36.4838,0,0,1,13.1854,5.4437Z"/><path class="n" d="M1037.2825,143.4171v28.25h-46.566V143.4123a34.38,34.38,0,0,1,2.982-2.2161,36.3345,36.3345,0,0,1,5.7232-3.1265h29.1363a36.7046,36.7046,0,0,1,5.7424,3.1265C1035.3315,141.89,1036.3286,142.627,1037.2825,143.4171Z"/><path class="m" d="M993.62,111.2165a3.5613,3.5613,0,1,0,0,7.1225"/><path class="m" d="M1030.2807,118.0379a3.5613,3.5613,0,1,0,0-7.1225"/><path class="h" d="M1004.8467,127.4466v5.8211a20.9375,20.9375,0,0,0,14.4525-3.322v-2.4991Z"/><path class="i" d="M1032.306,110.7159a20.1566,20.1566,0,0,1-.52,4.5718c-.106-.4529-.2264-.9057-.3613-1.3489s-.2842-.8768-.4528-1.3055c-.0868-.2361-.1831-.4674-.28-.6938s-.2023-.4576-.3082-.6793a.1305.1305,0,0,0-.0242-.0529c-.0674-.1542-.1445-.3084-.2215-.4577-.0964-.1975-.1976-.3854-.2988-.5733-.0529-.1011-.106-.1975-.1638-.289-.0915-.159-.183-.3228-.2794-.477a19.7342,19.7342,0,0,0-1.32-1.927c-.082-.106-.1639-.2119-.2506-.3131-.1349-.1686-.2746-.3372-.4191-.501-.0819-.0964-.1638-.1879-.2457-.2794-.1445-.1639-.2938-.3228-.4432-.4818-.0771-.0819-.1541-.1638-.2312-.2409-.2794-.2842-.5637-.5588-.8624-.8238-.12-.1156-.2505-.2264-.3758-.3276a.1045.1045,0,0,0-.0433-.0385c-.1542-.1349-.3132-.265-.4721-.39-.0048-.01-.0144-.0145-.0193-.0193-.0819-.0626-.1541-.12-.236-.1831-.2312-.183-.4625-.3564-.7034-.525-.13-.0916-.26-.1831-.39-.27-.3372-.2313-.6841-.4481-1.0358-.6552-.1975-.1205-.39-.2313-.5926-.3372-.2312-.13-.4673-.2506-.7081-.3662-.1975-.1011-.395-.1927-.5974-.2842a.6791.6791,0,0,0-.0867-.0386c-.1494-.0722-.2987-.14-.4576-.2023-.212-.0915-.424-.1782-.6408-.2553-.1782-.0723-.3565-.1349-.5395-.1975-.0771-.0289-.159-.053-.2361-.0771a.2777.2777,0,0,0-.0674-.0241c-.13-.0482-.27-.0867-.4047-.13-.0289-.01-.0626-.0193-.0916-.0289-.053-.0193-.1059-.0337-.1589-.0482h-.01c-.1541-.0481-.3131-.0915-.4721-.1348-.52-.1349-1.055-.2554-1.59-.3517q-.3542-.0651-.7082-.1157c-.1879-.024-.3758-.0529-.5589-.0722-.0818-.01-.1686-.0193-.2553-.0289-.2071-.0193-.4191-.0385-.6311-.053-.2409-.0193-.4866-.0289-.7322-.0385-.12-.0049-.2409-.01-.3661-.01-.12-.0048-.2457-.0048-.371-.0048-.2264,0-.448.0048-.67.01-.077.0049-.1493.0049-.2264.01-.2071.01-.4142.0192-.6167.0385-.1637.01-.3323.0241-.4961.0434-.1541.0144-.3083.0337-.4625.0481-.2072.0242-.4143.0531-.6166.0868-.2891.0433-.5733.0915-.8576.1493-.5925.1156-1.1706.26-1.7439.4239h-.0048c-.1108.0338-.2264.0675-.3372.106-.13.0386-.26.0819-.39.1253l-.4191.1445c-.1348.0434-.27.0964-.4.1494-.13.0481-.26.1011-.39.1541-.077.0337-.1589.0627-.236.0964-.1156.053-.2313.1011-.3469.1541-.1638.0723-.3227.1446-.4817.2216-.159.0723-.318.1542-.4721.2313-.1253.0578-.25.1252-.3758.1927-.12.0674-.2457.1349-.3661.2023s-.2457.1349-.3662.212c-.2119.12-.4191.2457-.6215.3806-.2649.1686-.525.3468-.78.5251-.1639.1156-.3181.2312-.4721.3468-.28.212-.5541.4288-.8239.6552-.1686.1349-.3324.2746-.4914.424-.13.1156-.2649.236-.395.3613-.1059.0963-.2071.1975-.3083.2938-.0626.0627-.13.13-.1927.1976-.0963.0963-.1879.1878-.2795.2842-.183.1927-.3613.3854-.5395.5877-.0771.0867-.1542.1735-.2215.26-.1061.12-.2073.2408-.3084.3661-.12.1445-.2361.2939-.3517.4432-.0819.1012-.159.2072-.2361.318-.1349.183-.27.3661-.395.554-.1445.2023-.2842.4143-.4143.6262-.1493.2313-.2939.4674-.4288.7082l-.0722.13c-.106.1831-.2119.3661-.3035.554-.0385.0723-.0819.1494-.1156.2264-.0675.12-.1253.2409-.1831.3662-.1638.3324-.318.67-.4625,1.0165-.1059.2505-.2071.501-.2987.7563,0,.0048-.0048.01-.0048.0145-.1012.2649-.1927.5347-.2794.8045-.0675.2119-.1349.4239-.1927.6407-.0289.0915-.053.1831-.0771.2746-.0674.2409-.13.4914-.1879.7371a20.1566,20.1566,0,0,1-.52-4.5718c0-.4625.0144-.92.0481-1.373A20.2733,20.2733,0,0,1,1002.4615,92.91a19.5345,19.5345,0,0,1,3.9167-1.6139,20.3193,20.3193,0,0,1,11.3886,0,19.5336,19.5336,0,0,1,3.9166,1.6139,20.2726,20.2726,0,0,1,10.5744,16.4325C1032.2916,109.7957,1032.306,110.2534,1032.306,110.7159Z"/><path class="i" d="M1032.2578,109.3429a19.5754,19.5754,0,0,1-.4721,3.2084,20.26,20.26,0,0,0-10.57-13.4745,20.0094,20.0094,0,0,0-3.4493-1.3682c-.12-.0337-.2409-.0674-.3613-.0964v-.0048a.5757.5757,0,0,0-.0964-.0241c-.0963-.0289-.1975-.0529-.3035-.0819a20.4469,20.4469,0,0,0-10.17.0819c-.1541.0386-.3082.082-.4576.1253a20.003,20.003,0,0,0-3.4493,1.3682,20.26,20.26,0,0,0-10.57,13.4745,19.5969,19.5969,0,0,1-.4721-3.2084A20.2733,20.2733,0,0,1,1002.4615,92.91a19.5345,19.5345,0,0,1,3.9167-1.6139,20.3193,20.3193,0,0,1,11.3886,0,19.5336,19.5336,0,0,1,3.9166,1.6139,20.2726,20.2726,0,0,1,10.5744,16.4325Z"/><path class="m" d="M1031.7862,115.2853v.01a20.24,20.24,0,0,1-39.4264,0v-.01a20.2635,20.2635,0,0,1,23.852-15.2287c.18.0375,1.0222-3.7374,1.2006-3.6952s-.3063,3.9015-.13,3.9485A20.2622,20.2622,0,0,1,1031.7862,115.2853Z"/><circle class="i" cx="1004.6861" cy="111.7237" r="1.6036"/><path class="h" d="M1022.4735,90.6172a10.078,10.078,0,0,1-.79,2.2932,19.5336,19.5336,0,0,0-3.9166-1.6139,20.3193,20.3193,0,0,0-11.3886,0,19.5345,19.5345,0,0,0-3.9167,1.6139,10.3208,10.3208,0,0,1-.79-2.2932,20.2593,20.2593,0,0,1,20.802,0Z"/><path class="i" d="M1017.7668,91.2965a19.5336,19.5336,0,0,1,3.9166,1.6139,10.6116,10.6116,0,0,1-4.2731,4.6151.5386.5386,0,0,1-.1012.0578,4.245,4.245,0,0,1-.3854.2072,10.6384,10.6384,0,0,1-10.0879-.2072,10.683,10.683,0,0,1-4.3743-4.6729,19.5345,19.5345,0,0,1,3.9167-1.6139,20.3193,20.3193,0,0,1,11.3886,0Z"/><path class="i" d="M1022.7288,88.3048a10.4358,10.4358,0,0,1-.2553,2.3124,20.2593,20.2593,0,0,0-20.802,0,10.4358,10.4358,0,0,1-.2554-2.3124,10.6564,10.6564,0,0,1,21.3127,0Z"/><rect class="i" x="1000.6557" y="104.9616" width="4.678" height="1.7664" rx="0.8832" ry="0.8832" transform="matrix(0.9677, -0.2522, 0.2522, 0.9677, 5.7282, 256.3807)"/><circle class="i" cx="1019.1409" cy="111.7237" r="1.6036"/><rect class="i" x="1018.4933" y="104.9616" width="4.678" height="1.7664" rx="0.8832" ry="0.8832" transform="translate(1981.9709 465.7261) rotate(-165.392)"/><path class="i" d="M1012.101,120.022a2.7628,2.7628,0,0,1-1.5535-.4747.2409.2409,0,0,1,.27-.3989,2.3331,2.3331,0,0,0,2.5164.0329.2407.2407,0,1,1,.2588.406A2.7678,2.7678,0,0,1,1012.101,120.022Z"/><path class="i" d="M1025.8169,95.8731a20.2467,20.2467,0,0,1-8.05,4.5718h-.01a20.2686,20.2686,0,0,1-11.3741,0h-.0048a20.2467,20.2467,0,0,1-8.05-4.5718,19.9688,19.9688,0,0,1,4.1334-2.9627,19.5345,19.5345,0,0,1,3.9167-1.6139,20.4374,20.4374,0,0,0,11.3886,0,19.5336,19.5336,0,0,1,3.9166,1.6139A19.9694,19.9694,0,0,1,1025.8169,95.8731Z"/><path class="h" d="M1001.6378,87.6162a4.9319,4.9319,0,0,1,1.2774,4.7657,4.93,4.93,0,0,1-6.0431-6.0431A4.9315,4.9315,0,0,1,1001.6378,87.6162Z"/><path class="h" d="M1001.6378,87.6162a4.9319,4.9319,0,0,1,1.2774,4.7657,4.93,4.93,0,0,1-6.0431-6.0431A4.9315,4.9315,0,0,1,1001.6378,87.6162Z"/><path class="h" d="M999.882,91.4523a3.11,3.11,0,0,1,3.0047-.8054,3.1082,3.1082,0,0,1-3.81,3.81A3.11,3.11,0,0,1,999.882,91.4523Z"/><path class="h" d="M999.882,91.4523a3.11,3.11,0,0,1,3.0047-.8054,3.1082,3.1082,0,0,1-3.81,3.81A3.11,3.11,0,0,1,999.882,91.4523Z"/><circle class="f" cx="1002.1812" cy="117.7979" r="2.8882"/><path class="h" d="M1012.133,124.9026a3.1329,3.1329,0,0,1-3.1291-3.1293.2409.2409,0,1,1,.4818,0,2.6473,2.6473,0,1,0,5.2945,0,.2409.2409,0,1,1,.4818,0A3.1329,3.1329,0,0,1,1012.133,124.9026Z"/><circle class="f" cx="1022.4124" cy="117.7979" r="2.8882"/><path class="i" d="M1021.4913,109.196a.2424.2424,0,0,1-.135-.0411,2.3325,2.3325,0,0,0-2.516-.0332.241.241,0,0,1-.26-.406,2.8234,2.8234,0,0,1,3.0458.04.2411.2411,0,0,1-.1351.4406Z"/><path class="i" d="M1005.8156,109.196a.24.24,0,0,1-.135-.0414,2.3347,2.3347,0,0,0-2.5165-.0329.2407.2407,0,1,1-.2587-.406,2.8224,2.8224,0,0,1,3.0453.04.2409.2409,0,0,1-.1351.44Z"/></svg>