<svg xmlns="http://www.w3.org/2000/svg" width="167.6667" height="141.1284" viewBox="0 0 167.6667 141.1284"><defs><style>.\31 5b45c39-6b91-4330-9a3d-1c7b9b5450f7{fill:#d6e9d7;}.c93960f8-a9b3-4eba-94f9-6f5400aa9861{fill:#1f3936;}.c5f10c0c-719a-4e06-ba29-380129ff97da{fill:#e0af96;}.\34 f40c9b7-b2bd-4a09-aa38-73717f635ba9{fill:#c06c44;}.\33 454431a-2db7-4bd4-9c0b-4f82290b22e4{fill:#f3cf3a;}.\35 e296296-01de-43d5-b503-66110d7b3b84{fill:#f3d2d2;}.\36 6709dbc-55b7-451a-91d5-3ee2e3648205{fill:#08795b;}</style></defs><title>Nour</title><g id="295a286e-4604-431b-8c58-2c3dcd1d443b" data-name="Dessins"><path class="15b45c39-6b91-4330-9a3d-1c7b9b5450f7" d="M129.7541,149.472q-.5887,0-1.1764-.0211a25.0162,25.0162,0,0,1-13.3277-4.0472,20.74,20.74,0,0,1-4.0047-3.5347,46.0275,46.0275,0,0,1-23.91-.9376,14.5793,14.5793,0,0,1-5.33-24.6168l5.6906-5.2094a14.5914,14.5914,0,0,1,4.16-23.0123,66.2484,66.2484,0,0,1,32.1479-6.8593,14.5791,14.5791,0,0,1,13.7537,12.0092,17.577,17.577,0,0,1,.21,4.6362,79.6415,79.6415,0,0,1,7.7513-3.0733A14.5823,14.5823,0,0,1,164.89,107.6481a14.5135,14.5135,0,0,1,1.3908,6.8044,37.2985,37.2985,0,0,1-36.5268,35.02Z"/><circle class="c93960f8-a9b3-4eba-94f9-6f5400aa9861" cx="114.0867" cy="120.1027" r="2.585"/><circle class="c93960f8-a9b3-4eba-94f9-6f5400aa9861" cx="113.34" cy="121.988" r="2.585"/><circle class="c93960f8-a9b3-4eba-94f9-6f5400aa9861" cx="114.9421" cy="122.6877" r="2.585"/><circle class="c93960f8-a9b3-4eba-94f9-6f5400aa9861" cx="116.6717" cy="122.331" r="2.585"/><circle class="c93960f8-a9b3-4eba-94f9-6f5400aa9861" cx="116.9747" cy="122.8694" r="2.585"/><circle class="c93960f8-a9b3-4eba-94f9-6f5400aa9861" cx="118.7945" cy="123.2061" r="2.585"/><circle class="c93960f8-a9b3-4eba-94f9-6f5400aa9861" cx="128.929" cy="119.4438" r="2.585"/><circle class="c93960f8-a9b3-4eba-94f9-6f5400aa9861" cx="129.314" cy="120.9842" r="2.585"/><circle class="c93960f8-a9b3-4eba-94f9-6f5400aa9861" cx="130.3094" cy="121.5049" r="2.585"/><circle class="c93960f8-a9b3-4eba-94f9-6f5400aa9861" cx="129.7707" cy="122.331" r="2.585"/><circle class="c93960f8-a9b3-4eba-94f9-6f5400aa9861" cx="120.7255" cy="107.4318" r="2.3206"/><circle class="c93960f8-a9b3-4eba-94f9-6f5400aa9861" cx="119.6532" cy="108.1428" r="2.3206"/><circle class="c93960f8-a9b3-4eba-94f9-6f5400aa9861" cx="123.7939" cy="107.4318" r="2.3206"/><circle class="c93960f8-a9b3-4eba-94f9-6f5400aa9861" cx="122.3107" cy="106.756" r="2.3206"/><circle class="c93960f8-a9b3-4eba-94f9-6f5400aa9861" cx="124.956" cy="108.6449" r="2.3206"/><circle class="c93960f8-a9b3-4eba-94f9-6f5400aa9861" cx="128.3683" cy="122.6877" r="2.585"/><circle class="c93960f8-a9b3-4eba-94f9-6f5400aa9861" cx="127.1857" cy="123.2061" r="2.585"/><circle class="c93960f8-a9b3-4eba-94f9-6f5400aa9861" cx="125.461" cy="123.2061" r="2.585"/><path class="c93960f8-a9b3-4eba-94f9-6f5400aa9861" d="M131.2026,117.0689a9.8068,9.8068,0,0,1-.2423,2.1775,9.38,9.38,0,0,0-18.3609,0,9.8068,9.8068,0,0,1-.2423-2.1775,9.4251,9.4251,0,1,1,18.8455,0Z"/><path class="c5f10c0c-719a-4e06-ba29-380129ff97da" d="M114.0867,116.693a1.4934,1.4934,0,1,0,0,2.9867"/><path class="c5f10c0c-719a-4e06-ba29-380129ff97da" d="M129.46,119.68a1.4934,1.4934,0,1,0,0-2.9867"/><path class="c5f10c0c-719a-4e06-ba29-380129ff97da" d="M124.855,126.0617V124.418a8.51,8.51,0,0,1-6.0605.1091v1.937a.9388.9388,0,0,1-.6668.8965A15.36,15.36,0,0,0,107.28,142.0422h30.7066a15.3563,15.3563,0,0,0-12.37-15.061A.9387.9387,0,0,1,124.855,126.0617Z"/><path class="4f40c9b7-b2bd-4a09-aa38-73717f635ba9" d="M118.7945,123.4989v2.441a8.78,8.78,0,0,0,6.0605-1.3931v-1.0479Z"/><path class="c93960f8-a9b3-4eba-94f9-6f5400aa9861" d="M130.3094,116.482a8.4481,8.4481,0,0,1-.2182,1.9172,8.4874,8.4874,0,0,0-16.533,0,8.4853,8.4853,0,1,1,16.7512-1.9172Z"/><path class="c5f10c0c-719a-4e06-ba29-380129ff97da" d="M130.0912,118.3992v.004a8.4874,8.4874,0,0,1-16.533,0v-.004a8.4968,8.4968,0,0,1,10.0021-6.386c.0756.0157.4286-1.5673.5034-1.55s-.1284,1.6361-.0543,1.6558A8.4967,8.4967,0,0,1,130.0912,118.3992Z"/><circle class="c93960f8-a9b3-4eba-94f9-6f5400aa9861" cx="118.7271" cy="116.9056" r="0.6724"/><rect class="c93960f8-a9b3-4eba-94f9-6f5400aa9861" x="117.037" y="114.07" width="1.9617" height="0.7407" rx="0.3704" ry="0.3704" transform="translate(-25.0473 33.4639) rotate(-14.608)"/><circle class="c93960f8-a9b3-4eba-94f9-6f5400aa9861" cx="124.7886" cy="116.9056" r="0.6724"/><rect class="c93960f8-a9b3-4eba-94f9-6f5400aa9861" x="124.517" y="114.07" width="1.9617" height="0.7407" rx="0.3704" ry="0.3704" transform="translate(218.0766 256.8325) rotate(-165.392)"/><path class="c93960f8-a9b3-4eba-94f9-6f5400aa9861" d="M118.66,119.5448a2.11,2.11,0,1,1,2.11-2.11A2.1124,2.1124,0,0,1,118.66,119.5448Zm0-4.0178a1.9079,1.9079,0,1,0,1.9079,1.9079A1.91,1.91,0,0,0,118.66,115.527Z"/><path class="c93960f8-a9b3-4eba-94f9-6f5400aa9861" d="M124.8554,119.5448a2.11,2.11,0,1,1,2.11-2.11A2.1124,2.1124,0,0,1,124.8554,119.5448Zm0-4.0178a1.9079,1.9079,0,1,0,1.9079,1.9079A1.91,1.91,0,0,0,124.8554,115.527Z"/><path class="c93960f8-a9b3-4eba-94f9-6f5400aa9861" d="M122.8243,117.5623a1.94,1.94,0,0,0-2.0913-.0274l-.1085-.17a2.1117,2.1117,0,0,1,2.3131.0306Z"/><path class="c93960f8-a9b3-4eba-94f9-6f5400aa9861" d="M121.8018,122.432a2.0994,2.0994,0,0,1-1.18-.36.101.101,0,0,1,.1132-.1673,1.9391,1.9391,0,0,0,2.0914.0274.101.101,0,0,1,.1085.17A2.1031,2.1031,0,0,1,121.8018,122.432Z"/><path class="c93960f8-a9b3-4eba-94f9-6f5400aa9861" d="M121.8364,120.3854a1.16,1.16,0,0,1-.6513-.199.1009.1009,0,0,1,.1129-.1673.98.98,0,0,0,1.0556.0138.101.101,0,1,1,.1085.17A1.16,1.16,0,0,1,121.8364,120.3854Z"/><circle class="c93960f8-a9b3-4eba-94f9-6f5400aa9861" cx="124.1315" cy="111.0609" r="1.8888"/><circle class="c93960f8-a9b3-4eba-94f9-6f5400aa9861" cx="126.729" cy="112.0513" r="1.8888"/><circle class="c93960f8-a9b3-4eba-94f9-6f5400aa9861" cx="121.0687" cy="110.713" r="1.8888"/><circle class="c93960f8-a9b3-4eba-94f9-6f5400aa9861" cx="118.0866" cy="110.9655" r="1.8888"/><path class="4f40c9b7-b2bd-4a09-aa38-73717f635ba9" d="M124.4854,108.0579a2.1121,2.1121,0,0,1-.1657.4808,4.1,4.1,0,0,0-.8212-.3384,4.2605,4.2605,0,0,0-2.3878,0,4.1,4.1,0,0,0-.8212.3384,2.1667,2.1667,0,0,1-.1657-.4808,4.2479,4.2479,0,0,1,4.3616,0Z"/><path class="4f40c9b7-b2bd-4a09-aa38-73717f635ba9" d="M119.6373,106.1936a2.0681,2.0681,0,0,1,.5357,1.9985,2.0673,2.0673,0,0,1-2.5341-2.5341A2.0679,2.0679,0,0,1,119.6373,106.1936Z"/><path class="4f40c9b7-b2bd-4a09-aa38-73717f635ba9" d="M118.9379,108.3625a.7535.7535,0,1,1-.3377,1.26A1.3039,1.3039,0,0,1,118.9379,108.3625Z"/><path class="c93960f8-a9b3-4eba-94f9-6f5400aa9861" d="M119.3812,116.3171a.1.1,0,0,1-.0576-.0182,1.6212,1.6212,0,0,0-1.7915-.024l-.0407.0268-.5482-.18a.101.101,0,1,1,.0631-.1918l.4563.15a1.8259,1.8259,0,0,1,1.9762.0537.101.101,0,0,1-.0576.1839Z"/><path class="c93960f8-a9b3-4eba-94f9-6f5400aa9861" d="M124.1436,116.3171a.101.101,0,0,1-.0576-.1839,1.8256,1.8256,0,0,1,1.9763-.0537l.4564-.15a.101.101,0,0,1,.0631.1918l-.5483.18-.0406-.0268a1.6223,1.6223,0,0,0-1.7917.024A.1.1,0,0,1,124.1436,116.3171Z"/><path class="3454431a-2db7-4bd4-9c0b-4f82290b22e4" d="M125.2736,126.0617v-.99a11.6443,11.6443,0,0,1-2.7883.5757,9.8749,9.8749,0,0,1-3.9987-.4666v1.2837a.9388.9388,0,0,1-.6668.8965,15.0915,15.0915,0,0,0-10.54,14.6816h30.7066a14.9962,14.9962,0,0,0-11.951-15.061A.9387.9387,0,0,1,125.2736,126.0617Z"/><rect class="c93960f8-a9b3-4eba-94f9-6f5400aa9861" x="121.892" y="125.7884" width="0.202" height="0.101"/><path class="c93960f8-a9b3-4eba-94f9-6f5400aa9861" d="M122.094,141.7381h-.202v-.2032h.202Zm0-.4064h-.202v-.2032h.202Zm0-.4064h-.202v-.2032h.202Zm0-.4064h-.202v-.2032h.202Zm0-.4064h-.202v-.203h.202Zm0-.4062h-.202v-.2032h.202Zm0-.4064h-.202v-.2032h.202Zm0-.4064h-.202V138.69h.202Zm0-.4064h-.202v-.2032h.202Zm0-.4064h-.202v-.2032h.202Zm0-.4064h-.202v-.2032h.202Zm0-.4064h-.202v-.2032h.202Zm0-.4062h-.202v-.2032h.202Zm0-.4064h-.202v-.2032h.202Zm0-.4064h-.202v-.2032h.202Zm0-.4064h-.202v-.2032h.202Zm0-.4064h-.202v-.2033h.202Zm0-.4065h-.202v-.2032h.202Zm0-.4064h-.202V134.22h.202Zm0-.4064h-.202v-.203h.202Zm0-.4062h-.202v-.2032h.202Zm0-.4064h-.202v-.2032h.202Zm0-.4064h-.202v-.2032h.202Zm0-.4064h-.202v-.2032h.202Zm0-.4064h-.202v-.2032h.202Zm0-.4064h-.202v-.2032h.202Zm0-.4064h-.202v-.2032h.202Zm0-.4064h-.202v-.203h.202Zm0-.4062h-.202v-.2032h.202Zm0-.4064h-.202V129.75h.202Zm0-.4064h-.202v-.2032h.202Zm0-.4064h-.202v-.2032h.202Zm0-.4064h-.202v-.2032h.202Zm0-.4064h-.202v-.2032h.202Zm0-.4064h-.202v-.2032h.202Zm0-.4062h-.202v-.2032h.202Zm0-.4064h-.202v-.2032h.202Zm0-.4064h-.202v-.2032h.202Zm0-.4064h-.202v-.2032h.202Z"/><path class="3454431a-2db7-4bd4-9c0b-4f82290b22e4" d="M113.2164,121.0518a.995.995,0,1,1,0-1.99v.4639a.53.53,0,1,0,.33.1141l.2881-.3633a.9952.9952,0,0,1-.6179,1.7753Z"/><path class="3454431a-2db7-4bd4-9c0b-4f82290b22e4" d="M130.3093,121.0518a.9949.9949,0,0,1-.6174-1.7753l.2881.3633a.5316.5316,0,1,0,.3293-.1141v-.4639a.995.995,0,1,1,0,1.99Z"/><path class="5e296296-01de-43d5-b503-66110d7b3b84" d="M57.4211,119.1787a9.5081,9.5081,0,0,1-8.33-4.9094,12.0247,12.0247,0,0,1-14.8162-.8566,10.8659,10.8659,0,0,1-7.4955.4625q-.2419-.0707-.4743-.15A9.51,9.51,0,0,1,10.55,103.4425c.4312-1.0568,1.59-4.9846,2.216-7.1046.6618-2.2414,1.0831-3.6615,1.402-4.5747a9.5089,9.5089,0,0,1,17.2288-1.5945l.2514.439q.1569-.0523.3175-.1011a11.5014,11.5014,0,0,1,10.5387,2.0389,12.0329,12.0329,0,0,1,13.0971-1.7512,13.8035,13.8035,0,0,1,6.1533,6.5008l4.1194,8.0341a9.5125,9.5125,0,0,1-8.4535,13.85Zm-46.829-15.8259-.0213.0458Z"/><path class="66709dbc-55b7-451a-91d5-3ee2e3648205" d="M22.9268,99.7285a1.24,1.24,0,0,1,.7,1.1868,1.93,1.93,0,0,1-.1857.8163,1.8018,1.8018,0,0,1-1.4369,1.0708c-.2364,0-.3619-.0607-.4221-.2971a5.2763,5.2763,0,0,1-.0925-1.21c0-.2645.0091-.5336.0186-.7972a5.186,5.186,0,0,1,.0231-.6632.3451.3451,0,0,1,.3524-.2319c.0553,0,.1065.009.1622.009.1019,0,.2039-.009.3058-.009A1.44,1.44,0,0,1,22.9268,99.7285Zm-.5748,2.3455a1.549,1.549,0,0,0,.5426-1.1678c0-.38-.1671-.7791-.6029-.7791-.0371,0-.0326.0834-.0326.1069,0,.5327-.0553,1.0663-.0136,1.6507C22.2455,101.9309,22.236,102.1483,22.352,102.074Z"/><path class="66709dbc-55b7-451a-91d5-3ee2e3648205" d="M25.9283,102.7091a3.5545,3.5545,0,0,1-1.1452.2555c-.5055,0-.4543-.2827-.4543-.6813,0-.8027.13-1.6045.1531-2.4062a.3174.3174,0,0,1,.0738-.2229.8214.8214,0,0,1,.5658-.1758c.1346,0,.2641-.0326.3941-.0326h.0276a.453.453,0,0,1,.1948-.0371c.1486,0,.3665.0924.3665.269,0,.2691-.5748.3289-.77.3289-.0512,0-.1069-.0281-.1069.0507,0,.0653.0049.126,0,.19-.0091.1395-.0136.2781-.0277.4177-.0095.0969-.0281.1993-.0281.2962,0,.0326.005.0652.0422.0652.0693,0,.1481-.0462.2315-.0462.144,0,.3664.097.3664.2691,0,.2265-.4127.38-.5934.4258a.1488.1488,0,0,0-.116.125c-.014.1531-.014.3108-.014.4639a.0862.0862,0,0,0,.0833.0933c.1948,0,.3434-.1631.5332-.1631.1531,0,.385.0743.385.26A.3281.3281,0,0,1,25.9283,102.7091Z"/><path class="66709dbc-55b7-451a-91d5-3ee2e3648205" d="M28.3123,101.8c0,.617-.626.7982-1.1356.7982-.1486,0-.3755-.0517-.3755-.2365a.28.28,0,0,1,.125-.2183c.19-.1341.6441.0145.6441-.3062,0-.43-.5327-1.0754-.5327-1.6036,0-.5381.5839-.6767,1.0152-.6767.1531,0,.38.0507.38.2455a.2967.2967,0,0,1-.2179.25c-.1114.0372-.4448,0-.4448.1577C27.77,100.5348,28.3123,101.2632,28.3123,101.8Z"/><path class="66709dbc-55b7-451a-91d5-3ee2e3648205" d="M31.3645,99.6406a2.4931,2.4931,0,0,1,.6075.0969,1.2089,1.2089,0,0,1,.9454,1.224,1.473,1.473,0,0,1-1.4093,1.5211,1.314,1.314,0,0,1-1.2887-1.4323A1.2713,1.2713,0,0,1,31.3645,99.6406Zm.4313.607a.8194.8194,0,0,0-.2831-.0417c-.06,0-.1155-.0181-.1758-.0181a.1223.1223,0,0,0-.0788.0227,1.0621,1.0621,0,0,0-.3017.8208,1.6684,1.6684,0,0,0,.0236.3062c.0462.2364.2595.64.5376.64a.3612.3612,0,0,0,.2039-.07,1.13,1.13,0,0,0,.4684-.9549A.72.72,0,0,0,31.7958,100.2476Z"/><path class="66709dbc-55b7-451a-91d5-3ee2e3648205" d="M33.5452,101.0358c0-.1431.0091-.2872.0186-.4312.0231-.3289.0367-.7882.4774-.7882.1622,0,.3755.0561.3755.2554a2.6178,2.6178,0,0,1-.0883.3661,3.9181,3.9181,0,0,0-.0371.57c0,.1486.0326.9141.2364.9141a.1229.1229,0,0,0,.0788-.0326,3.1237,3.1237,0,0,0,.6446-1.7114c.0091-.13-.0185-.2545.0974-.3469a.4483.4483,0,0,1,.2827-.0934c.2038,0,.371.0979.371.32a3.6384,3.6384,0,0,1-.1486.858c-.1667.6351-.5236,1.5528-1.3118,1.5528C33.7164,102.4681,33.5452,101.7035,33.5452,101.0358Z"/><path class="66709dbc-55b7-451a-91d5-3ee2e3648205" d="M38.5258,99.4784c.139,0,.4217.0789.4217.2546,0,.3388-.5563.2872-.7742.3153a.0892.0892,0,0,0-.0878.0933c0,.482.0135.9313.0462,1.3952.0231.3524.0557.7139.0557,1.0935a.3386.3386,0,0,1-.38.38c-.1671,0-.3941-.0788-.3941-.2781,0-.7321-.0235-1.4414-.0371-2.1925a2.35,2.35,0,0,0-.0045-.3569.1418.1418,0,0,0-.1532-.116c-.1857,0-.635.0372-.635-.26,0-.2365.2872-.2827.4634-.2827C37.5383,99.5246,38.0252,99.4784,38.5258,99.4784Z"/><path class="66709dbc-55b7-451a-91d5-3ee2e3648205" d="M39.5332,99.4549c-.01-.1993.19-.2917.3615-.3008s.385.0643.3941.2636c.009.2039-.19.3017-.366.3108C39.7511,99.733,39.5423,99.6542,39.5332,99.4549Zm.7972.8806c.0231.4358,0,.8117-.0045,1.252-.0045.1948-.0371.3343-.0281.492a.36.36,0,0,1-.3615.2781c-.2319.0136-.3755-.0607-.3845-.3107a2.65,2.65,0,0,1,.009-.2691c.01-.3524.0046-.4077.0186-.76.0045-.1993.014-.32.0045-.5146-.0136-.2926.0186-.44.3479-.4548C40.1357,100.0392,40.3214,100.1045,40.33,100.3355Z"/><path class="66709dbc-55b7-451a-91d5-3ee2e3648205" d="M41.8149,101.8521l.009.0833a.1.1,0,0,0,.0974.0834h.7651c.1391,0,.366.0878.366.26a.1812.1812,0,0,1-.0136.0643c-.0743.2138-.385.1993-.5657.1993-.1667,0-.3294-.0045-.4915-.0045-.111,0-.2224.009-.3339.009a1.1274,1.1274,0,0,1-.2455-.0226c-.2038-.0462-.2365-.1576-.2691-.3479a8.9075,8.9075,0,0,1-.0924-1.4514c0-.2174.0046-.44.0046-.6577,0-.0516-.0046-.1024-.0046-.1531,0-.241.1391-.3388.3706-.3388.2088,0,.371.0933.371.32,0,.0562-.0091.1114-.0091.1676A12.2456,12.2456,0,0,0,41.8149,101.8521Z"/><path class="66709dbc-55b7-451a-91d5-3ee2e3648205" d="M44.7045,99.4549c.1481,0,.3614.0652.3614.2509a.2735.2735,0,0,1-.1947.241c-.0508.0181-.0974.0136-.1482.0272-.1762.0417-.2088.2736-.2088.4222,0,.5327.246,1.0337.246,1.5673,0,.4675-.2274.6858-.7.6858-.1667,0-.4263-.0607-.4263-.2736,0-.1993.2038-.2274.3474-.2546.0467-.01.0512-.0516.0512-.0933,0-.5191-.26-1.0708-.26-1.6135A.8858.8858,0,0,1,44.7045,99.4549Z"/><path class="66709dbc-55b7-451a-91d5-3ee2e3648205" d="M24.3732,105.5448a5.5749,5.5749,0,0,1-.3615,2.0448.3135.3135,0,0,1-.3058.19.58.58,0,0,1-.399-.1667c-.2872-.2881-.5332-.645-.82-.9186a.0709.0709,0,0,0-.0512-.0272c-.0276,0-.0367.0326-.0417.0553a7.0761,7.0761,0,0,0-.1345.8806c-.0276.2464.0141.5662-.2967.63a.591.591,0,0,1-.0969.01c-.1441,0-.3479-.0517-.371-.2229a.5066.5066,0,0,1-.0046-.0833,3.7739,3.7739,0,0,1,.0462-.3941,9.4655,9.4655,0,0,1,.2737-1.4885.3405.3405,0,0,1,.3524-.2456c.44,0,.987.6723,1.27.9785a.0714.0714,0,0,0,.0462.0281c.0281,0,.0372-.0281.0417-.0471a9.3215,9.3215,0,0,0,.1346-1.4088c.0095-.2093.0045-.3851.2409-.4548a.4911.4911,0,0,1,.1391-.0181c.2179,0,.371.1014.371.3334C24.4058,105.3274,24.3827,105.4343,24.3732,105.5448Z"/><path class="66709dbc-55b7-451a-91d5-3ee2e3648205" d="M25.1034,106.6021c0-.1432.0091-.2872.0186-.4313.0231-.3288.0367-.7882.4774-.7882.1622,0,.3755.0562.3755.2555a2.6165,2.6165,0,0,1-.0883.366,3.9185,3.9185,0,0,0-.0371.57c0,.1486.0326.9141.2364.9141a.1229.1229,0,0,0,.0788-.0326,3.124,3.124,0,0,0,.6446-1.7114c.0091-.13-.0185-.2546.0974-.347a.4488.4488,0,0,1,.2827-.0933c.2038,0,.371.0979.371.32a3.6393,3.6393,0,0,1-.1486.858c-.1667.635-.5236,1.5528-1.3118,1.5528C25.2746,108.0344,25.1034,107.27,25.1034,106.6021Z"/><path class="66709dbc-55b7-451a-91d5-3ee2e3648205" d="M30.0563,106.236a2.3249,2.3249,0,0,1,.6025-.9132,1.0551,1.0551,0,0,1,.5794-.241.3417.3417,0,0,1,.3247.1994,4.7455,4.7455,0,0,1,.3058,2.0393c0,.2229-.0045.44-.0045.6632,0,.2364-.1717.3288-.39.3288-.2364,0-.3755-.106-.3755-.347,0-.2926.014-.58.014-.8715a4.2747,4.2747,0,0,0-.0833-1.0573c-.0045-.019-.0141-.0507-.0372-.0507-.0185,0-.0326.0226-.0416.0371a5.6057,5.6057,0,0,0-.3525.8616c-.1064.2691-.2038.58-.5472.6034h-.0231c-.32,0-.4448-.3479-.5562-.5889a7.1207,7.1207,0,0,0-.3479-.742c-.0091-.0136-.0186-.0371-.0417-.0371-.0693,0-.0738.3751-.0738.4358,0,.4176.06.83.06,1.2475,0,.231-.1486.3288-.371.3288-.32,0-.4036-.1667-.4036-.4548,0-.3424-.0367-.6812-.0367-1.0192,0-.4412.0186-.9739.4775-1.1868a.7568.7568,0,0,1,.32-.0743c.4684,0,.7279.4865.9177.8435.0095.0136.0186.0371.0417.0371S30.0468,106.2542,30.0563,106.236Z"/><path class="66709dbc-55b7-451a-91d5-3ee2e3648205" d="M34.2682,107.9655c-.1577.2918-.7325.3244-1.0247.3244h-.2088c-.4589,0-.4263-.598-.4494-.9178-.014-.1857-.0185-.3714-.0185-.5562a11.3722,11.3722,0,0,1,.0973-1.4378.3919.3919,0,0,1,.2782-.3425.8646.8646,0,0,1,.2686-.0326c.0833,0,.1717.0046.26.0046.1857,0,.371.009.57.009.1436,0,.3248.0607.3248.2365,0,.3152-.6723.2645-.8856.2781a.1192.1192,0,0,0-.116.1024c-.0186.1105-.0462.4539-.0462.57a.0964.0964,0,0,0,.0969.1024h.2415c.0924,0,.1853-.01.2826-.01.1532,0,.343.07.343.2555,0,.2546-.3475.2736-.5282.2736h-.1717c-.0929,0-.2827-.0371-.2827.106a6.47,6.47,0,0,0,.0417.6723v.028c0,.0607-.014.14.0693.14.1857,0,.3384-.1577.5241-.1577.1391,0,.3615.0834.3615.25A.2.2,0,0,1,34.2682,107.9655Zm-.6492-3.2778c-.1716.097-.371.2872-.5748.1387-.2319-.1622.1481-.3425.2641-.4077.1717-.0979.371-.2827.5748-.1395C34.1151,104.4468,33.735,104.6225,33.619,104.6877Z"/><path class="66709dbc-55b7-451a-91d5-3ee2e3648205" d="M36.5036,106.9916c.1627.1622.2646.3706.4177.5427.0924.1015.2364.1114.2917.2546.0838.2038-.2038.3288-.37.3288-.4965,0-.867-.8063-.96-.8063-.0231,0-.0231.0372-.0231.0508,0,.1993.0045.404-.0045.6033a.327.327,0,0,1-.1255.3008.4783.4783,0,0,1-.2641.0743.3173.3173,0,0,1-.357-.3524c0-.2546.0091-.6306,0-.9-.014-.598-.0462-1.1262-.0462-1.7241a.2755.2755,0,0,1,.0277-.135c.1159-.2174.621-.3153.8439-.3153a.9958.9958,0,0,1,1.0708.9785,1.266,1.266,0,0,1-.496.983.0757.0757,0,0,0-.0371.0552A.0867.0867,0,0,0,36.5036,106.9916Zm-.5608-1.5619c-.0647,0-.1481.0091-.1481.0879l.0091.3379c.0045.2093.014.4222.0276.6306.005.0371.0186.07.0607.07a.11.11,0,0,0,.0367-.0091.6988.6988,0,0,0,.3479-.6025C36.2767,105.74,36.1933,105.43,35.9428,105.43Z"/><path class="66709dbc-55b7-451a-91d5-3ee2e3648205" d="M37.9518,106.978v-1.0065c0-.1948.2084-.2691.371-.2691.3751,0,.3846.2419.3846.5427,0,.2781-.014.3941-.014.6722v1.1733c0,.1947-.2084.2736-.3756.2736-.4172,0-.3845-.3108-.3845-.6215C37.9333,107.4881,37.9518,107.2326,37.9518,106.978Zm.3891-1.7014c-.4819,0-.5979-.6586.0186-.6586C38.8374,104.618,38.9484,105.2766,38.3409,105.2766Z"/><path class="66709dbc-55b7-451a-91d5-3ee2e3648205" d="M40.6878,108.5263c-.8715,0-1.2515-.7229-1.2515-1.5111,0-.8353.38-1.966,1.3444-2.0638a4.0012,4.0012,0,0,1,.5377-.0507c.8249,0,1.0478.7972,1.0478,1.474a2.5006,2.5006,0,0,1-.501,1.5763,1.9225,1.9225,0,0,1-.3058.2827.1016.1016,0,0,0-.0417.0843c0,.1014.0879.2174.0879.3379,0,.1857-.2084.2555-.3615.2555-.4729,0-.3012-.39-.4684-.39C40.7481,108.5218,40.7155,108.5263,40.6878,108.5263ZM40.6,105.6472a2.16,2.16,0,0,0-.4262,1.3725c0,.241.0928.8571.3614.95.0046,0,.0231.0045.0281.0045a.0419.0419,0,0,0,.0417-.0417c0-.144-.2088-.3243-.2088-.4684,0-.1712.2459-.2455.385-.2455.38,0,.3937.39.491.39.0236,0,.0327-.0145.0467-.0326a1.7227,1.7227,0,0,0,.0322-1.9895A.638.638,0,0,0,40.6,105.6472Z"/><path class="66709dbc-55b7-451a-91d5-3ee2e3648205" d="M45.6041,106.2777c-.1481.8344-.482,1.6036-1.4559,1.6036a.9755.9755,0,0,1-.9037-.5418,3.4383,3.4383,0,0,1-.1762-1.474c0-.2736.0879-.4358.3941-.4358.2641,0,.38.1205.38.3842,0,.1069-.0185.2183-.0185.33,0,.2782-.0327,1.2.3845,1.2.4594,0,.6958-1.1125.6958-1.4649,0-.3062-.0235-.5979.3846-.5979.2179,0,.385.0924.385.3288A4.0262,4.0262,0,0,1,45.6041,106.2777Z"/><path class="66709dbc-55b7-451a-91d5-3ee2e3648205" d="M48.0724,107.9655c-.1577.2918-.7325.3244-1.0247.3244h-.2088c-.4589,0-.4262-.598-.4493-.9178-.0141-.1857-.0186-.3714-.0186-.5562a11.3723,11.3723,0,0,1,.0974-1.4378.3918.3918,0,0,1,.2781-.3425.865.865,0,0,1,.2686-.0326c.0834,0,.1717.0046.26.0046.1857,0,.371.009.57.009.1436,0,.3248.0607.3248.2365,0,.3152-.6722.2645-.8856.2781a.1192.1192,0,0,0-.116.1024c-.0185.1105-.0462.4539-.0462.57a.0964.0964,0,0,0,.097.1024H47.46c.0924,0,.1853-.01.2827-.01.1531,0,.3429.07.3429.2555,0,.2546-.3475.2736-.5282.2736h-.1717c-.0928,0-.2826-.0371-.2826.106a6.47,6.47,0,0,0,.0416.6723v.028c0,.0607-.014.14.0693.14.1858,0,.3384-.1577.5241-.1577.1391,0,.3615.0834.3615.25A.1992.1992,0,0,1,48.0724,107.9655Z"/><path class="66709dbc-55b7-451a-91d5-3ee2e3648205" d="M49.9373,105.0211c.1481,0,.3615.0653.3615.251a.2737.2737,0,0,1-.1948.241c-.0507.0181-.0974.0136-.1481.0272-.1762.0416-.2088.2736-.2088.4221,0,.5328.2459,1.0338.2459,1.5674,0,.4674-.2274.6858-.7.6858-.1667,0-.4262-.0607-.4262-.2736,0-.1993.2038-.2274.3474-.2546.0467-.01.0512-.0516.0512-.0933,0-.5191-.26-1.0709-.26-1.6135A.8858.8858,0,0,1,49.9373,105.0211Z"/><path class="5e296296-01de-43d5-b503-66110d7b3b84" d="M23.6226,67.1562a9.5085,9.5085,0,0,1-7.7773-4.0347A9.5106,9.5106,0,0,1,3.762,48.6845a36.2822,36.2822,0,0,1,12.6563-9.1127,9.5131,9.5131,0,0,1,5.8666-.5237,9.5093,9.5093,0,0,1,16.543-.0724l.2514.4389q.1569-.0523.3175-.101a11.4989,11.4989,0,0,1,10.5383,2.0389,12.0348,12.0348,0,0,1,13.0984-1.7508,13.8032,13.8032,0,0,1,6.1525,6.5l1.228,2.3954A9.5091,9.5091,0,0,1,58.3157,61.6221,12.2034,12.2034,0,0,1,47.0206,64.933,11.84,11.84,0,0,1,41.7062,62.22a10.8652,10.8652,0,0,1-7.4956.4625,10.9972,10.9972,0,0,1-1.9935-.8q-.3473.5375-.7035,1.0681A9.51,9.51,0,0,1,23.6226,67.1562Z"/><path class="66709dbc-55b7-451a-91d5-3ee2e3648205" d="M16.33,48.5359a1.24,1.24,0,0,1,.7,1.1868,1.9228,1.9228,0,0,1-.1857.8154,1.8018,1.8018,0,0,1-1.4369,1.0708c-.2364,0-.3619-.06-.4221-.2962a5.28,5.28,0,0,1-.0925-1.21c0-.2636.0091-.5327.0186-.7972a5.1918,5.1918,0,0,1,.0231-.6632.3451.3451,0,0,1,.3524-.2319c.0553,0,.1065.01.1622.01.1019,0,.2039-.01.3058-.01A1.4412,1.4412,0,0,1,16.33,48.5359Zm-.5748,2.3455a1.5524,1.5524,0,0,0,.5426-1.1687c0-.38-.1671-.7782-.6029-.7782-.0371,0-.0326.0834-.0326.106,0,.5336-.0553,1.0663-.0136,1.6507C15.6487,50.7374,15.6392,50.9557,15.7552,50.8814Z"/><path class="66709dbc-55b7-451a-91d5-3ee2e3648205" d="M19.3315,51.5165a3.5773,3.5773,0,0,1-1.1452.2546c-.5055,0-.4543-.2827-.4543-.6813,0-.8018.13-1.6035.1531-2.4062a.3138.3138,0,0,1,.0738-.222.8176.8176,0,0,1,.5658-.1767c.1346,0,.2641-.0326.3941-.0326h.0276a.4662.4662,0,0,1,.1948-.0362c.1486,0,.3665.0924.3665.2682,0,.269-.5748.33-.77.33-.0512,0-.1069-.0281-.1069.0508,0,.0652.0049.125,0,.19-.0091.1386-.0136.2781-.0277.4168-.0095.0978-.0281.1993-.0281.2971,0,.0326.005.0643.0422.0643.0693,0,.1481-.0462.2315-.0462.144,0,.3664.0979.3664.2691,0,.2274-.4127.38-.5934.4267a.1468.1468,0,0,0-.116.125c-.014.1531-.014.3108-.014.4639a.0854.0854,0,0,0,.0833.0924c.1948,0,.3434-.1622.5332-.1622.1531,0,.385.0743.385.26A.33.33,0,0,1,19.3315,51.5165Z"/><path class="66709dbc-55b7-451a-91d5-3ee2e3648205" d="M21.7155,50.6078c0,.617-.626.7973-1.1356.7973-.1486,0-.3755-.0507-.3755-.2365a.28.28,0,0,1,.125-.2174c.19-.135.6441.0136.6441-.3062,0-.4313-.5327-1.0754-.5327-1.6045,0-.5372.5839-.6767,1.0152-.6767.1531,0,.38.0516.38.2455a.2967.2967,0,0,1-.2179.2509c-.1114.0372-.4448,0-.4448.1577C21.1733,49.3422,21.7155,50.07,21.7155,50.6078Z"/><path class="66709dbc-55b7-451a-91d5-3ee2e3648205" d="M23.7617,49.2724c.028-.1431.1852-.1947.3152-.1947.1717,0,.3941.0887.3941.2881,0,.38-.0416.7039-.0416,1.0844a1.05,1.05,0,0,0,.0276.4312.1727.1727,0,0,1,.0231.0834.402.402,0,0,1-.0276.125.3557.3557,0,0,1-.3665.2319c-.32,0-.3936-.1857-.3936-.4683,0-.0743.0045-.1486.0045-.222A7.0236,7.0236,0,0,1,23.7617,49.2724Zm-.0277-.876A.3279.3279,0,0,1,24.1,48.1c.1808,0,.371.097.371.2963a.3759.3759,0,0,1-.737,0Z"/><path class="66709dbc-55b7-451a-91d5-3ee2e3648205" d="M28.5465,48.5305c0,.5381-.009,1.0808.0141,1.618a2.1745,2.1745,0,0,0,.0276.39c.0186.0833.0838.1621.0838.2455,0,.1857-.246.2972-.4036.2972-.4729,0-.4263-.5337-.44-.8625-.0095-.232-.0045-.4684-.0186-.7,0-.0136,0-.0508-.0231-.0508-.06,0-.3479.64-.7741.64-.357,0-.7792-.7093-.9042-.7093-.0648,0-.0788.241-.0833.2926a13.52,13.52,0,0,0-.0834,1.4369c0,.2554-.1069.38-.371.38a.3365.3365,0,0,1-.38-.3851,8.5215,8.5215,0,0,1,.3383-2.4705.3675.3675,0,0,1,.2551-.0934,1.77,1.77,0,0,1,1.0011.5844c.0557.06.1254.1812.2133.1812.2039,0,.6768-1.1506,1.1959-1.1506A.32.32,0,0,1,28.5465,48.5305Z"/><path class="66709dbc-55b7-451a-91d5-3ee2e3648205" d="M31.4832,49.36a1.2381,1.2381,0,0,1-.8946,1.0573c-.111.0417-.2224.0607-.3384.0933-.0276.0091-.0507.0181-.0507.0507,0,.2546.009.51.009.7647,0,.2274-.1717.3107-.38.3107-.1577,0-.362-.0652-.3851-.2455a1.9214,1.9214,0,0,1-.009-.2274c0-.6441.014-1.2838-.0231-1.9288l-.0231-.4122c-.005-.0562-.0186-.1115-.0186-.1667,0-.3108.5051-.3062.723-.3062C30.7045,48.35,31.4832,48.6238,31.4832,49.36Zm-1.1868.5572a.6465.6465,0,0,0,.4267-.5617.4783.4783,0,0,0-.4869-.4584c-.0553,0-.0789.0507-.0789.0969a7.4456,7.4456,0,0,0,.0327.8534c.0045.0417.0276.0789.07.0789A.0881.0881,0,0,0,30.2964,49.9175Z"/><path class="66709dbc-55b7-451a-91d5-3ee2e3648205" d="M32.9867,48.5078c.5241,0,1.1963.2591,1.1963.8761,0,.4077-.3293.5979-.6677.7139-.0231.009-.0557.019-.0557.0462,0,.0743.5146.4457.5984.501.1019.0652.2872.125.2872.2872a.3165.3165,0,0,1-.3339.2781c-.4031,0-.9875-.6161-1.0568-.6161-.0281,0-.0281.0372-.0281.0553,0,.0743.0141.1486.0141.2229,0,.2636-.102.4122-.3846.4122-.2415,0-.3755-.1015-.3755-.3479,0-.4539.0045-.9087.0045-1.3626,0-.3714-.0372-.9367.1993-1.0246A3.0343,3.0343,0,0,1,32.9867,48.5078Zm.0416.5327c-.1481,0-.139.116-.139.2274,0,.1069-.0091.2184-.0091.3243,0,.0562.0834.0417.125.0417.1622,0,.4313-.0317.4313-.25A.3957.3957,0,0,0,33.0283,49.0405Z"/><path class="66709dbc-55b7-451a-91d5-3ee2e3648205" d="M36.7437,51.2058c-.1576.2917-.7325.3243-1.0246.3243H35.51c-.4588,0-.4262-.5979-.4493-.9177-.0141-.1858-.0186-.3706-.0186-.5563a11.372,11.372,0,0,1,.0974-1.4369.3917.3917,0,0,1,.2781-.3433.8623.8623,0,0,1,.2687-.0326c.0833,0,.1716.0045.2595.0045.1857,0,.371.01.57.01.1436,0,.3248.06.3248.2364,0,.3153-.6722.2637-.8856.2781a.1192.1192,0,0,0-.1159.1015c-.0186.1115-.0462.4548-.0462.5708a.0955.0955,0,0,0,.0969.1014h.2414c.0924,0,.1853-.009.2827-.009.1531,0,.3429.07.3429.2546,0,.2554-.3474.2736-.5282.2736h-.1717c-.0928,0-.2826-.0372-.2826.1069a6.4839,6.4839,0,0,0,.0417.6722v.0281c0,.06-.0141.1386.0693.1386.1857,0,.3383-.1576.5241-.1576.139,0,.3614.0833.3614.2509A.1987.1987,0,0,1,36.7437,51.2058Z"/><path class="66709dbc-55b7-451a-91d5-3ee2e3648205" d="M38.6087,48.2623c.1481,0,.3614.0643.3614.25a.2724.2724,0,0,1-.1948.241c-.0507.019-.0973.0136-.1481.0281-.1762.0417-.2088.2736-.2088.4213,0,.5336.246,1.0346.246,1.5673,0,.4684-.2274.6858-.7.6858-.1667,0-.4263-.06-.4263-.2727,0-.2.2038-.2274.3474-.2555.0467-.009.0512-.0507.0512-.0924,0-.5191-.2595-1.0708-.2595-1.6135A.8858.8858,0,0,1,38.6087,48.2623Z"/><path class="66709dbc-55b7-451a-91d5-3ee2e3648205" d="M41.1825,48.3547c-.1667.2781-.6677.0371-.6677.6813,0,.7836.6541,1.5211.6541,2.2722,0,.5607-.4407.7972-.9508.7972-.1807,0-.5513-.0145-.5513-.2691,0-.2129.2365-.2736.4077-.2736.1672,0,.3293.0372.3293-.1948,0-.7048-.6491-1.502-.6491-2.3319A1.166,1.166,0,0,1,40.8441,47.98C41.0294,47.98,41.3125,48.1418,41.1825,48.3547Z"/><path class="66709dbc-55b7-451a-91d5-3ee2e3648205" d="M41.9209,48.2623c-.01-.1993.19-.2926.3614-.3017s.3851.0652.3941.2645c.0091.2039-.19.3008-.366.3108C42.1388,48.54,41.93,48.4616,41.9209,48.2623Zm.7972.8806c.0231.4358,0,.8108-.0045,1.252-.0045.1948-.0372.3334-.0281.4911a.3584.3584,0,0,1-.3615.2781c-.2319.0136-.3755-.06-.3846-.3107-.0045-.0879.0046-.18.0091-.2691.0095-.3524.0045-.4077.0186-.76.0045-.1993.014-.32.0045-.5146-.0136-.2917.0186-.44.3479-.4539C42.5233,48.8457,42.7091,48.911,42.7181,49.1429Z"/><path class="66709dbc-55b7-451a-91d5-3ee2e3648205" d="M44.5038,48.4471a2.49,2.49,0,0,1,.6074.0979,1.2079,1.2079,0,0,1,.9454,1.2239,1.4721,1.4721,0,0,1-1.4092,1.52,1.3141,1.3141,0,0,1-1.2888-1.4323A1.2719,1.2719,0,0,1,44.5038,48.4471Zm.4312.6079a.8191.8191,0,0,0-.2831-.0417c-.06,0-.1155-.019-.1758-.019a.1182.1182,0,0,0-.0788.0236,1.0609,1.0609,0,0,0-.3017.8208,1.7034,1.7034,0,0,0,.0231.3053c.0467.2364.26.64.5382.64a.36.36,0,0,0,.2038-.0689,1.13,1.13,0,0,0,.4684-.9548A.7192.7192,0,0,0,44.935,49.055Z"/><path class="66709dbc-55b7-451a-91d5-3ee2e3648205" d="M48.4461,51.4613a1.0454,1.0454,0,0,1-.2319-.4639A9.4255,9.4255,0,0,0,47.57,49.421c-.0186,0-.0231.0326-.0277.0462a6.84,6.84,0,0,0-.0973,1.27c0,.3107.0462.626-.3846.626-.232,0-.3756-.1114-.3756-.3524,0-.0879.0136-.1712.0186-.2591a10.7005,10.7005,0,0,1,.2084-1.92c.0371-.1712.06-.3243.2455-.3895a.4386.4386,0,0,1,.1531-.0272.6742.6742,0,0,1,.3108.0879c.7093.375.9317,1.4414,1.0151,1.493.0186-.0054.0186-.0371.0186-.0471.06-.3941.0883-.7927.1159-1.1868.0141-.1667-.0231-.3986.1251-.5146a.443.443,0,0,1,.269-.0834c.227,0,.3756.0934.3756.33,0,.1622-.0277.32-.0417.482a11.4624,11.4624,0,0,1-.2782,1.9052,1.6816,1.6816,0,0,1-.1671.5237.35.35,0,0,1-.31.1486A.4925.4925,0,0,1,48.4461,51.4613Z"/><path class="66709dbc-55b7-451a-91d5-3ee2e3648205" d="M51.7533,48.3547c-.1667.2781-.6677.0371-.6677.6813,0,.7836.6541,1.5211.6541,2.2722,0,.5607-.4407.7972-.9508.7972-.1807,0-.5513-.0145-.5513-.2691,0-.2129.2365-.2736.4077-.2736.1672,0,.3294.0372.3294-.1948,0-.7048-.6492-1.502-.6492-2.3319a1.166,1.166,0,0,1,1.09-1.0564C51.6,47.98,51.8833,48.1418,51.7533,48.3547Z"/><path class="66709dbc-55b7-451a-91d5-3ee2e3648205" d="M15.2918,54.2181a4.0262,4.0262,0,0,1,1.0382-.33.359.359,0,0,1,.0974-.009c.1531,0,.3615.0833.3615.2645,0,.12-.13.2039-.2315.2365-.1993.0643-.4036.0924-.6029.1576-.0276.0091-.06.0181-.0879.0272a.1465.1465,0,0,0-.0833.12c0,.1024.0045.2093.0045.3107a.0791.0791,0,0,0,.0788.0834c.0091,0,.014-.0045.0231-.0045a2.4266,2.4266,0,0,1,.5146-.0834c.1576,0,.39.0652.39.26,0,.1386-.1486.2365-.2691.2546a6.6361,6.6361,0,0,0-.6677.12.0652.0652,0,0,0-.06.0743c0,.0371.01.07.01.1069.009.1757.009.3479.0135.5236.005.1486.0186.3017.0186.4494,0,.1993-.1807.2736-.3569.2736-.1482,0-.3475-.06-.3756-.2365a2.4854,2.4854,0,0,1-.0185-.37c0-.2129-.0046-.4267-.0136-.64,0-.0236.0045-.0417.0045-.0652,0-.0924-.1853-.097-.1853-.2736,0-.1622.1667-.1622.1667-.2782,0-.13-.0045-.2591-.0045-.3895,0-.097-.1114-.1432-.1114-.2456C14.9439,54.4075,15.1758,54.2779,15.2918,54.2181Z"/><path class="66709dbc-55b7-451a-91d5-3ee2e3648205" d="M19.7759,56.1134a.8575.8575,0,0,1,.1019.2736c0,.1721-.2365.26-.38.26a.3942.3942,0,0,1-.38-.241,1.887,1.887,0,0,1-.0743-.2083.1252.1252,0,0,0-.12-.0843c-.1436,0-.2922.0236-.4634.0236-.0652,0-.1069-.0236-.13.0552l-.0879.3207c-.0743.2727-.0929.5192-.45.5192-.1486,0-.371-.0743-.371-.2555,0-.07.19-.7049.2224-.83a6.0431,6.0431,0,0,1,.8715-1.8174.3208.3208,0,0,1,.4313-.106C19.41,54.25,19.5906,55.6505,19.7759,56.1134Zm-.9133-.5282a.0439.0439,0,0,0,.0417-.0507,1.1362,1.1362,0,0,0-.0231-.12c-.0186-.1395-.0371-.2827-.07-.4222-.0046-.0136-.0091-.0462-.0322-.0462-.0186,0-.0281.0236-.0372.0372a3.3692,3.3692,0,0,0-.2133.5607.0664.0664,0,0,0,.0743.0653A1.2,1.2,0,0,0,18.8626,55.5852Z"/><path class="66709dbc-55b7-451a-91d5-3ee2e3648205" d="M20.8857,53.9862c-.1622,0-.38-.0788-.38-.2736s.2179-.2691.38-.2691.38.0743.38.2691S21.0478,53.9862,20.8857,53.9862Zm.06.6677c.1667,0,.38.0788.38.2781,0,.8109.0326,1.0754.0326,1.8862,0,.1994-.2134.2782-.38.2782s-.38-.0788-.38-.2782c0-.8108-.0321-1.0753-.0321-1.8862C20.5659,54.7327,20.7788,54.6539,20.9459,54.6539Z"/><path class="66709dbc-55b7-451a-91d5-3ee2e3648205" d="M22.7316,55.905c-.0186-.4539-.0186-.9087-.0417-1.3625a.1028.1028,0,0,0-.1114-.1024c-.0974,0-.19-.0045-.2872-.0045-.1812,0-.3524-.0046-.3524-.2365,0-.2455.139-.2963.3569-.2963.5191,0,1.0382-.028,1.5578-.028a.3.3,0,0,1,.31.3152c0,.1713-.1948.2274-.3384.2274-.0743,0-.1436-.01-.2179-.01-.0693,0-.1667-.0046-.1667.0933,0,.7556.0648,1.5066.0648,2.2622,0,.1993-.2179.2736-.385.2736-.2039,0-.366-.0933-.366-.3153C22.7547,56.4477,22.7406,56.1786,22.7316,55.905Z"/><path class="66709dbc-55b7-451a-91d5-3ee2e3648205" d="M26.4465,56.772c-.1576.2918-.7325.3244-1.0247.3244H25.213c-.4589,0-.4262-.598-.4493-.9178-.0141-.1857-.0186-.37-.0186-.5562a11.37,11.37,0,0,1,.0974-1.4369.3919.3919,0,0,1,.2781-.3434.865.865,0,0,1,.2686-.0326c.0834,0,.1717.0046.26.0046.1857,0,.371.01.57.01.1436,0,.3248.06.3248.2365,0,.3153-.6722.2636-.8856.2781a.1193.1193,0,0,0-.116.1015c-.0185.1114-.0462.4548-.0462.5707a.0957.0957,0,0,0,.097.1015h.2414c.0924,0,.1853-.0091.2827-.0091.1531,0,.3429.07.3429.2546,0,.2555-.3475.2736-.5282.2736H25.76c-.0928,0-.2826-.0371-.2826.1069a6.4858,6.4858,0,0,0,.0416.6723v.028c0,.06-.014.1387.0693.1387.1858,0,.3384-.1577.5241-.1577.1391,0,.3615.0834.3615.251A.1984.1984,0,0,1,26.4465,56.772Z"/><path class="66709dbc-55b7-451a-91d5-3ee2e3648205" d="M28.3114,53.8286c.1482,0,.3615.0643.3615.25a.2727.2727,0,0,1-.1948.241c-.0507.019-.0974.0136-.1481.0281-.1762.0416-.2088.2736-.2088.4212,0,.5337.2459,1.0347.2459,1.5674,0,.4684-.2274.6858-.7.6858-.1667,0-.4262-.06-.4262-.2727,0-.2.2038-.2274.3474-.2555.0467-.0091.0512-.0507.0512-.0924,0-.5191-.26-1.0709-.26-1.6135A.8858.8858,0,0,1,28.3114,53.8286Z"/><path class="66709dbc-55b7-451a-91d5-3ee2e3648205" d="M33.4406,54.2181c.1667.4956.3383,1.4459.5146,2.1182.0416.1531.1345.1766.1345.3759,0,.241-.1486.3425-.3755.3425-.25,0-.32-.0924-.3851-.2962-.1481-.4875-.2455-1.0809-.3846-1.5583-.014-.0417-.0466-.0643-.0652-.0045-.1019.2228-.1481.44-.2546.6867a.2959.2959,0,0,1-.3107.1576.3846.3846,0,0,1-.0788-.0054c-.2274-.0363-.2967-.2365-.3941-.4168-.1065-.1947-.1948-.4031-.3013-.6024-.0185-.0372-.0652-.0517-.0652.009-.0186.1069-.0231.2175-.0322.3244-.0231.269-.0557.51-.0788.7746a4.0265,4.0265,0,0,1-.0928.5744.3165.3165,0,0,1-.1622.2509.4822.4822,0,0,1-.2088.0462c-.1577,0-.3706-.0743-.3706-.26a.3808.3808,0,0,1,.0091-.07,2.9721,2.9721,0,0,0,.0879-.4955,7.3212,7.3212,0,0,1,.3991-2.1327.3644.3644,0,0,1,.3338-.1667.4639.4639,0,0,1,.357.1713,4.5394,4.5394,0,0,1,.5145.8534c.0231.0507.06.0552.0879,0a3.988,3.988,0,0,1,.4775-.8344.3961.3961,0,0,1,.2459-.0888A.419.419,0,0,1,33.4406,54.2181Z"/><path class="66709dbc-55b7-451a-91d5-3ee2e3648205" d="M37.0726,56.1134a.8575.8575,0,0,1,.1019.2736c0,.1721-.2365.26-.38.26a.3944.3944,0,0,1-.38-.241,1.887,1.887,0,0,1-.0743-.2083.1252.1252,0,0,0-.12-.0843c-.1436,0-.2922.0236-.4634.0236-.0652,0-.1069-.0236-.13.0552l-.0879.3207c-.0743.2727-.0928.5192-.45.5192-.1486,0-.371-.0743-.371-.2555,0-.07.19-.7049.2224-.83a6.0432,6.0432,0,0,1,.8716-1.8174.3207.3207,0,0,1,.4312-.106C36.7066,54.25,36.8873,55.6505,37.0726,56.1134Zm-.9132-.5282a.0439.0439,0,0,0,.0416-.0507,1.1115,1.1115,0,0,0-.0231-.12c-.0185-.1395-.0371-.2827-.07-.4222-.0045-.0136-.0091-.0462-.0322-.0462-.0186,0-.0281.0236-.0371.0372a3.3611,3.3611,0,0,0-.2134.5607.0664.0664,0,0,0,.0743.0653A1.2011,1.2011,0,0,0,36.1594,55.5852Z"/><path class="66709dbc-55b7-451a-91d5-3ee2e3648205" d="M38.1824,53.9862c-.1622,0-.38-.0788-.38-.2736s.2179-.2691.38-.2691.38.0743.38.2691S38.3446,53.9862,38.1824,53.9862Zm.06.6677c.1667,0,.38.0788.38.2781,0,.8109.0326,1.0754.0326,1.8862,0,.1994-.2133.2782-.38.2782s-.38-.0788-.38-.2782c0-.8108-.0321-1.0753-.0321-1.8862C37.8626,54.7327,38.0755,54.6539,38.2426,54.6539Z"/><path class="66709dbc-55b7-451a-91d5-3ee2e3648205" d="M40.8627,56.1741c0,.617-.626.7973-1.1356.7973-.1486,0-.3756-.0508-.3756-.2365a.28.28,0,0,1,.1251-.2174c.19-.135.6441.0136.6441-.3063,0-.4312-.5327-1.0753-.5327-1.6044,0-.5373.5839-.6768,1.0151-.6768.1531,0,.38.0517.38.2455a.2969.2969,0,0,1-.2179.251c-.1114.0371-.4448,0-.4448.1576C40.3205,54.9085,40.8627,55.636,40.8627,56.1741Z"/><path class="66709dbc-55b7-451a-91d5-3ee2e3648205" d="M42.7553,54.0134a2.4945,2.4945,0,0,1,.6074.0978,1.2081,1.2081,0,0,1,.9454,1.224,1.4721,1.4721,0,0,1-1.4092,1.52A1.3141,1.3141,0,0,1,41.61,55.4231,1.2719,1.2719,0,0,1,42.7553,54.0134Zm.4312.6079a.8191.8191,0,0,0-.2831-.0417c-.06,0-.1155-.019-.1758-.019a.1185.1185,0,0,0-.0788.0235,1.061,1.061,0,0,0-.3017.8208,1.702,1.702,0,0,0,.0231.3053c.0467.2365.26.64.5382.64a.36.36,0,0,0,.2038-.0689,1.13,1.13,0,0,0,.4684-.9549A.7191.7191,0,0,0,43.1865,54.6213Z"/><path class="66709dbc-55b7-451a-91d5-3ee2e3648205" d="M46.6976,57.0275a1.0456,1.0456,0,0,1-.2319-.4638,9.43,9.43,0,0,0-.6446-1.5764c-.0186,0-.0231.0326-.0277.0462a6.8389,6.8389,0,0,0-.0974,1.27c0,.3107.0462.626-.3845.626-.232,0-.3756-.1115-.3756-.3524,0-.0879.0136-.1713.0186-.2591a10.7005,10.7005,0,0,1,.2084-1.92c.0371-.1712.06-.3243.2455-.39a.4382.4382,0,0,1,.1531-.0271.6745.6745,0,0,1,.3107.0878c.7094.3751.9318,1.4414,1.0152,1.4931.0186-.0055.0186-.0372.0186-.0471.06-.3941.0883-.7928.1159-1.1869.0141-.1667-.0231-.3986.125-.5145a.4435.4435,0,0,1,.2691-.0834c.227,0,.3755.0933.3755.33,0,.1621-.0276.32-.0416.482a11.4624,11.4624,0,0,1-.2782,1.9052,1.6816,1.6816,0,0,1-.1671.5237.35.35,0,0,1-.31.1485A.4925.4925,0,0,1,46.6976,57.0275Z"/><path class="5e296296-01de-43d5-b503-66110d7b3b84" d="M143.9831,33.7917a9.5084,9.5084,0,0,1-8.3295-4.9094,12.0258,12.0258,0,0,1-14.8162-.8561,10.8693,10.8693,0,0,1-7.4937.4629,11.0362,11.0362,0,0,1-1.9949-.8013q-.3466.5381-.704,1.069a9.5093,9.5093,0,0,1-15.6687.1708A9.51,9.51,0,0,1,82.8937,14.49,36.2844,36.2844,0,0,1,95.55,5.3779a9.5061,9.5061,0,0,1,5.8661-.5237,9.51,9.51,0,0,1,16.5434-.072l.2514.4389q.1577-.0522.3194-.1014a11.4919,11.4919,0,0,1,10.5368,2.0389,12.0332,12.0332,0,0,1,13.099-1.75,13.8,13.8,0,0,1,6.1528,6.5026l4.1177,8.03a9.512,9.512,0,0,1-8.4536,13.85Z"/><path class="66709dbc-55b7-451a-91d5-3ee2e3648205" d="M98.16,13.6525a1.24,1.24,0,0,1,.7,1.1868,1.9263,1.9263,0,0,1-.1857.8159,1.802,1.802,0,0,1-1.4369,1.0708c-.2364,0-.3619-.06-.4222-.2967a5.2836,5.2836,0,0,1-.0924-1.21c0-.2641.0091-.5332.0186-.7973a5.1876,5.1876,0,0,1,.0231-.6631.3451.3451,0,0,1,.3524-.232c.0553,0,.1065.01.1622.01.1019,0,.2038-.01.3058-.01A1.4408,1.4408,0,0,1,98.16,13.6525Zm-.5748,2.3456a1.5512,1.5512,0,0,0,.5426-1.1683c0-.38-.1671-.7786-.6029-.7786-.0371,0-.0326.0833-.0326.1064,0,.5332-.0553,1.0663-.0136,1.6507C97.4784,15.8545,97.4689,16.0724,97.5849,15.9981Z"/><path class="66709dbc-55b7-451a-91d5-3ee2e3648205" d="M100.6185,16.62c-1.0337,0-1.0247-1.15-1.0337-1.9057,0-.1155,0-.2315-.0091-.3475-.005-.0557-.0185-.1159-.0185-.1717,0-.19.2083-.2736.366-.2736.4217,0,.4312.32.4312.6446,0,.3475-.0371,1.1773.19,1.4464.0929.12.19-.0186.255-.1114a4.04,4.04,0,0,0,.5472-1.7893c0-.1531-.0462-.38.07-.5a.4071.4071,0,0,1,.3012-.121c.4358,0,.4077.38.4077.6958a8.7994,8.7994,0,0,0,.116,1.5623c.0281.12.1531.1944.1531.3153,0,.1807-.255.2686-.4081.2686-.2872,0-.4077-.241-.4494-.241A1.2929,1.2929,0,0,1,100.6185,16.62Z"/><path class="66709dbc-55b7-451a-91d5-3ee2e3648205" d="M107.1627,13.7685c.1667.496.3384,1.4464.5146,2.1186.0417.1526.1346.1762.1346.3755,0,.241-.1486.3429-.3755.3429-.2505,0-.32-.0928-.3851-.2967-.1481-.4869-.2455-1.08-.3846-1.5578-.014-.0417-.0466-.0648-.0652-.0045-.1019.2224-.1481.44-.2546.6863a.2959.2959,0,0,1-.3107.1576.4148.4148,0,0,1-.0788-.005c-.2274-.0367-.2967-.2365-.3941-.4172-.1065-.1943-.1948-.4031-.3013-.6025-.0185-.0371-.0652-.0511-.0652.0091-.0186.1069-.0231.2179-.0322.3248-.0231.2686-.0557.51-.0788.7741a4.0475,4.0475,0,0,1-.0928.5749.3151.3151,0,0,1-.1622.25.4765.4765,0,0,1-.2088.0462c-.1577,0-.3706-.0743-.3706-.26a.37.37,0,0,1,.0091-.07,2.98,2.98,0,0,0,.0879-.4961,7.3212,7.3212,0,0,1,.399-2.1326.3655.3655,0,0,1,.3339-.1667.464.464,0,0,1,.3569.1717,4.5338,4.5338,0,0,1,.5146.8529c.0231.0508.06.0558.0879,0a3.9974,3.9974,0,0,1,.4775-.8343.3981.3981,0,0,1,.2459-.0884A.4184.4184,0,0,1,107.1627,13.7685Z"/><path class="66709dbc-55b7-451a-91d5-3ee2e3648205" d="M110.7948,15.6642a.8531.8531,0,0,1,.1019.2736c0,.1717-.2365.26-.38.26a.3945.3945,0,0,1-.38-.241,1.8249,1.8249,0,0,1-.0743-.2084.1254.1254,0,0,0-.12-.0838c-.1436,0-.2922.0236-.4634.0236-.0652,0-.1069-.0236-.13.0552l-.0879.32c-.0743.2732-.0928.5191-.45.5191-.1486,0-.371-.0743-.371-.255,0-.07.19-.7048.2224-.83a6.0274,6.0274,0,0,1,.8716-1.8173.32.32,0,0,1,.4312-.1065C110.4288,13.8007,110.61,15.2008,110.7948,15.6642Zm-.9132-.5282a.0445.0445,0,0,0,.0416-.0511,1.1069,1.1069,0,0,0-.0231-.12c-.0185-.1391-.0371-.2827-.07-.4218-.0046-.014-.0091-.0466-.0322-.0466-.0186,0-.0281.0235-.0371.0371a3.3633,3.3633,0,0,0-.2134.5613.066.066,0,0,0,.0743.0647A1.2261,1.2261,0,0,0,109.8816,15.136Z"/><path class="66709dbc-55b7-451a-91d5-3ee2e3648205" d="M113.351,13.402c.139,0,.4217.0788.4217.2551,0,.3383-.5563.2871-.7742.3152a.0892.0892,0,0,0-.0878.0929c0,.482.0135.9318.0462,1.3952.0231.3524.0557.7139.0557,1.0939a.3388.3388,0,0,1-.38.38c-.1671,0-.3941-.0788-.3941-.2781,0-.7325-.0235-1.4418-.0371-2.1929a2.35,2.35,0,0,0-.0045-.3569.1418.1418,0,0,0-.1532-.116c-.1857,0-.635.0371-.635-.26,0-.2364.2872-.2831.4634-.2831C112.3635,13.4482,112.85,13.402,113.351,13.402Z"/><path class="66709dbc-55b7-451a-91d5-3ee2e3648205" d="M116.0553,16.3229c-.1577.2917-.7325.3243-1.0247.3243h-.2088c-.4589,0-.4263-.5979-.4494-.9177-.014-.1858-.0185-.371-.0185-.5563a11.464,11.464,0,0,1,.0969-1.4373.3928.3928,0,0,1,.2786-.3429.8616.8616,0,0,1,.2686-.0326c.0834,0,.1717.0045.26.0045.1857,0,.371.0095.57.0095.1436,0,.3248.06.3248.2365,0,.3152-.6723.264-.8856.2781a.1192.1192,0,0,0-.116.1019c-.0186.111-.0462.4543-.0462.57a.096.096,0,0,0,.0969.1019h.2415c.0924,0,.1853-.0095.2827-.0095.1531,0,.3429.07.3429.255,0,.2551-.3475.2737-.5282.2737h-.1717c-.0929,0-.2827-.0372-.2827.1064a6.4753,6.4753,0,0,0,.0417.6722v.0281c0,.06-.014.1391.0693.1391.1857,0,.3384-.1577.5241-.1577.1391,0,.3615.0834.3615.2505A.2.2,0,0,1,116.0553,16.3229Zm-.6492-3.2778c-.1716.0974-.3709.2876-.5748.139-.2319-.1621.1481-.3429.2641-.4081.1717-.0974.371-.2827.5748-.1391C115.9022,12.8041,115.5221,12.98,115.4061,13.0451Z"/><path class="66709dbc-55b7-451a-91d5-3ee2e3648205" d="M118.2907,15.3489c.1627.1627.2646.371.4177.5427.0924.1019.2365.1115.2917.2551.0838.2038-.2038.3288-.3705.3288-.496,0-.867-.8063-.96-.8063-.0231,0-.0231.0372-.0231.0507,0,.1994.0045.4037-.0045.603a.3277.3277,0,0,1-.1255.3012.4824.4824,0,0,1-.2641.0743.3172.3172,0,0,1-.3569-.3524c0-.2551.009-.6306,0-.9-.0141-.5979-.0462-1.1265-.0462-1.7245a.2723.2723,0,0,1,.0276-.1345c.1159-.2179.621-.3153.8439-.3153a.9955.9955,0,0,1,1.0708.9785,1.2665,1.2665,0,0,1-.496.9829.0754.0754,0,0,0-.0371.0553A.0857.0857,0,0,0,118.2907,15.3489Zm-.5607-1.5618c-.0648,0-.1482.009-.1482.0878l.0091.3384c.0045.2088.014.4217.0276.6306.005.0371.0186.0693.0607.0693a.11.11,0,0,0,.0367-.0091.6986.6986,0,0,0,.3479-.6024C118.0638,14.0974,117.9805,13.7871,117.73,13.7871Z"/><path class="66709dbc-55b7-451a-91d5-3ee2e3648205" d="M119.7389,15.3354V14.3293c0-.1948.2084-.2691.3706-.2691.3755,0,.385.2415.385.5427,0,.2781-.014.3941-.014.6722v1.1728c0,.1948-.2084.2736-.3756.2736-.4172,0-.3845-.3108-.3845-.6215C119.72,15.8454,119.7389,15.59,119.7389,15.3354Zm.3891-1.7014c-.4819,0-.5979-.6587.0186-.6587C120.6245,12.9753,120.7355,13.634,120.128,13.634Z"/><path class="66709dbc-55b7-451a-91d5-3ee2e3648205" d="M122.8274,16.6332a3.5671,3.5671,0,0,1-1.1452.255c-.5055,0-.4543-.2827-.4543-.6813,0-.8022.1295-1.604.1531-2.4062a.3158.3158,0,0,1,.0738-.2225.82.82,0,0,1,.5658-.1762c.1345,0,.2641-.0326.3941-.0326h.0276a.46.46,0,0,1,.1948-.0367c.1486,0,.3665.0924.3665.2686,0,.2691-.5748.3294-.77.3294-.0512,0-.1069-.0281-.1069.0507,0,.0652.0049.1255,0,.19-.0091.1391-.0136.2782-.0277.4172-.01.0974-.0281.1994-.0281.2967,0,.0327.005.0648.0422.0648.0693,0,.1481-.0462.2314-.0462.1441,0,.3665.0974.3665.2691,0,.2269-.4127.38-.5934.4262a.1479.1479,0,0,0-.116.1251c-.014.1531-.014.3107-.014.4638a.0858.0858,0,0,0,.0833.0929c.1948,0,.3434-.1626.5332-.1626.1531,0,.385.0743.385.26A.3291.3291,0,0,1,122.8274,16.6332Z"/><path class="66709dbc-55b7-451a-91d5-3ee2e3648205" d="M125.3365,15.8685c.1531,0,.3755.0834.3755.2641,0,.2319-.2967.2736-.4729.2736-.2782,0-.5608.0045-.839.0276-.1159.01-.2319.0372-.3479.0372-.1762,0-.3519-.0788-.3519-.2781a1.6371,1.6371,0,0,1,.0231-.2134,7.5685,7.5685,0,0,0,.0507-1.0242c0-.3665-.0186-.7325-.0186-1.0989,0-.227.1672-.3294.3756-.3294.2505,0,.38.1115.38.362,0,.38.0136.7646.0136,1.1451,0,.26-.0277.5146-.0277.7742,0,.0462.0508.0738.0929.0738C124.84,15.8821,125.0864,15.8685,125.3365,15.8685Z"/><path class="66709dbc-55b7-451a-91d5-3ee2e3648205" d="M128.2405,13.4161a1.475,1.475,0,0,1,1.4514,1.5854,1.4543,1.4543,0,0,1-1.4464,1.5528,1.5489,1.5489,0,0,1-.3248-.0321c-.1852-.0417-.3012-.116-.32-.32-.0186-.2229-.0417-.4408-.0648-.6632a9.0114,9.0114,0,0,1-.0833-1.0015,1.9761,1.9761,0,0,1,.06-.5468.263.263,0,0,0,.0277-.0974c0-.06-.0372-.1064-.0372-.1671C127.5035,13.4718,128.0553,13.4161,128.2405,13.4161Zm.2043,2.596a1.0562,1.0562,0,0,0,.5146-1.0151,1.1867,1.1867,0,0,0-.3755-.9413.5159.5159,0,0,0-.2274-.1065.2639.2639,0,0,0-.1205.116,1.2212,1.2212,0,0,0-.0507.4077,12.8258,12.8258,0,0,0,.125,1.46c.0045.0417.0231.0974.0743.0974A.3194.3194,0,0,0,128.4448,16.0121Z"/><path class="66709dbc-55b7-451a-91d5-3ee2e3648205" d="M131.6221,13.9211c-.12,0-.2365-.009-.357-.009a.0953.0953,0,0,0-.1069.0974c-.0091.0924-.0045.1852-.0091.2781-.0045.1065-.014.2179-.014.3243,0,.0372.014.0743.0557.0743.0557,0,.26-.1436.44-.1436.1531,0,.357.0834.357.2641,0,.2641-.5885.3987-.7928.4589a.11.11,0,0,0-.0738.1069,7.816,7.816,0,0,0,.0507.8018c.0046.0512-.014.1114.06.1114.1019,0,.2088-.0281.3107-.0281.1577,0,.3846.07.3846.2646,0,.2826-.491.2922-.6858.2922s-.5889,0-.7139-.1672a.7718.7718,0,0,1-.0743-.3429,8.55,8.55,0,0,1-.0648-1.0342c0-.4819.0277-.9594.0322-1.4414.0045-.2228.014-.4126.2645-.4267.2872-.014.3615-.009.7461-.009a.985.985,0,0,1,.385.0462.26.26,0,0,1,.1762.2269C131.993,13.8473,131.77,13.9211,131.6221,13.9211Z"/><path class="66709dbc-55b7-451a-91d5-3ee2e3648205" d="M97.5106,18.9823a1.475,1.475,0,0,1,1.4513,1.5855,1.4542,1.4542,0,0,1-1.4463,1.5528,1.5491,1.5491,0,0,1-.3248-.0322c-.1853-.0416-.3013-.1159-.32-.32-.0186-.2228-.0417-.4407-.0648-.6631a8.9894,8.9894,0,0,1-.0834-1.0016,1.9721,1.9721,0,0,1,.06-.5467.2639.2639,0,0,0,.0276-.0974c0-.06-.0371-.1065-.0371-.1672C96.7736,19.038,97.3253,18.9823,97.5106,18.9823Zm.2043,2.5961a1.0564,1.0564,0,0,0,.5146-1.0152,1.1867,1.1867,0,0,0-.3756-.9413.5142.5142,0,0,0-.2274-.1064.2644.2644,0,0,0-.12.116,1.2206,1.2206,0,0,0-.0507.4076,12.8275,12.8275,0,0,0,.125,1.46c.0046.0416.0231.0974.0743.0974A.318.318,0,0,0,97.7149,21.5784Z"/><path class="66709dbc-55b7-451a-91d5-3ee2e3648205" d="M100.8921,19.4874c-.12,0-.2365-.0091-.357-.0091a.0954.0954,0,0,0-.1069.0974c-.009.0924-.0045.1853-.009.2782-.0045.1064-.0141.2179-.0141.3243,0,.0372.0141.0743.0558.0743.0557,0,.26-.1436.44-.1436.1531,0,.3569.0834.3569.2641,0,.2641-.5884.3986-.7927.4589a.11.11,0,0,0-.0739.1069,7.8143,7.8143,0,0,0,.0508.8017c.0045.0512-.0141.1115.06.1115.102,0,.2089-.0281.3108-.0281.1576,0,.3846.07.3846.2645,0,.2827-.4911.2922-.6859.2922s-.5888,0-.7139-.1671a.77.77,0,0,1-.0742-.3429,8.55,8.55,0,0,1-.0648-1.0342c0-.482.0276-.9594.0321-1.4414.0046-.2229.0141-.4127.2646-.4267.2872-.0141.3615-.0091.746-.0091a.9858.9858,0,0,1,.3851.0462.26.26,0,0,1,.1762.227C101.2631,19.4136,101.04,19.4874,100.8921,19.4874Z"/><path class="66709dbc-55b7-451a-91d5-3ee2e3648205" d="M103.4755,19.038c-.1667.2782-.6677.0367-.6677.6813,0,.7837.6541,1.5207.6541,2.2717,0,.5608-.4408.7973-.9508.7973-.1808,0-.5513-.014-.5513-.2686,0-.2134.2364-.2736.4077-.2736.1671,0,.3293.0371.3293-.1948,0-.7048-.6491-1.5021-.6491-2.332a1.1678,1.1678,0,0,1,1.0894-1.0568C103.3224,18.6625,103.6055,18.8247,103.4755,19.038Z"/><path class="66709dbc-55b7-451a-91d5-3ee2e3648205" d="M105.72,21.2907c0,.617-.626.7977-1.1356.7977-.1486,0-.3755-.0511-.3755-.2364a.2805.2805,0,0,1,.125-.2179c.19-.1345.6442.014.6442-.3062,0-.4308-.5327-1.0754-.5327-1.604,0-.5377.5838-.6768,1.0151-.6768.1531,0,.38.0512.38.2455a.2967.2967,0,0,1-.2178.25c-.1115.0372-.4449,0-.4449.1577C105.1782,20.0251,105.72,20.753,105.72,21.2907Z"/><path class="66709dbc-55b7-451a-91d5-3ee2e3648205" d="M106.6069,19.9558c.0281-.1436.1853-.1948.3153-.1948.1717,0,.3941.0883.3941.2877,0,.38-.0417.7043-.0417,1.0849a1.0483,1.0483,0,0,0,.0277.4307.1742.1742,0,0,1,.0231.0838.4.4,0,0,1-.0277.1251.3556.3556,0,0,1-.3664.2319c-.32,0-.3937-.1857-.3937-.4684,0-.0743.0046-.1486.0046-.2224A7.0279,7.0279,0,0,1,106.6069,19.9558Zm-.0276-.8761a.3282.3282,0,0,1,.366-.2967c.1808,0,.371.0974.371.2967,0,.2039-.19.3013-.371.3013A.3286.3286,0,0,1,106.5793,19.08Z"/><path class="66709dbc-55b7-451a-91d5-3ee2e3648205" d="M109.7973,22.1442a1.0454,1.0454,0,0,1-.2319-.4639,9.4573,9.4573,0,0,0-.6446-1.5764c-.0186,0-.0231.0326-.0277.0467a6.8358,6.8358,0,0,0-.0973,1.27c0,.3108.0462.6261-.3846.6261-.232,0-.3756-.1115-.3756-.3525,0-.0883.0136-.1716.0186-.2595a10.7,10.7,0,0,1,.2084-1.9193c.0371-.1717.06-.3248.2455-.39a.43.43,0,0,1,.1531-.0276.68.68,0,0,1,.3108.0879c.7093.3755.9318,1.4418,1.0151,1.493.0186-.005.0186-.0371.0186-.0466.06-.3941.0883-.7928.1159-1.1869.0141-.1667-.0231-.3986.1251-.5146a.44.44,0,0,1,.269-.0833c.227,0,.3756.0929.3756.3293,0,.1622-.0277.32-.0417.482a11.4574,11.4574,0,0,1-.2781,1.9052,1.6859,1.6859,0,0,1-.1672.5241.3507.3507,0,0,1-.31.1482A.49.49,0,0,1,109.7973,22.1442Z"/><path class="66709dbc-55b7-451a-91d5-3ee2e3648205" d="M112.7485,20.7811a2.0515,2.0515,0,0,1,.37-1.1777,1.3282,1.3282,0,0,1,1.1221-.57c.2088,0,.6677.0466.6677.3383,0,.1486-.2089.246-.3384.246s-.241-.0743-.3665-.0743a.19.19,0,0,0-.0507.0046c-.4639.0928-.6772.8529-.6772,1.2656,0,.2691.1024.742.45.742.1993,0,.3755-.12.57-.12.1436,0,.357.0788.357.25v.0186c-.0277.1857-.2134.2319-.3665.2781a2.0365,2.0365,0,0,1-.5513.0884A1.1485,1.1485,0,0,1,112.7485,20.7811Z"/><path class="66709dbc-55b7-451a-91d5-3ee2e3648205" d="M116.5191,21.4624c.1482,0,.2967-.0417.4449-.0417.139,0,.4172.0879.4172.26,0,.3062-.6768.3107-.8806.3107a1.7568,1.7568,0,0,1-.7837-.13.3044.3044,0,0,1-.111-.264,19.1857,19.1857,0,0,1,.227-1.9936c.014-.1531-.0091-.38.1064-.496a.4454.4454,0,0,1,.3017-.1065c.1948,0,.3755.0924.3755.31a2.9622,2.9622,0,0,1-.0466.3479,15.1459,15.1459,0,0,0-.2039,1.6969C116.366,21.4579,116.44,21.4624,116.5191,21.4624Z"/><path class="66709dbc-55b7-451a-91d5-3ee2e3648205" d="M120.03,19.9929c.0974.5794.1532,1.1683.2782,1.7431a1.9929,1.9929,0,0,1,.0974.4082c0,.1993-.2134.2826-.3846.2826-.6075,0-.3062-.8022-.6075-.8022h-.4683c-.2365,0-.2134.6446-.6673.6446-.1576,0-.385-.0834-.385-.2736,0-.1622.2088-.3846.2088-.5749,0-.0928-.014-.12.0507-.2038a1.2469,1.2469,0,0,0,.1762-.4408c.13-.4122.5006-1.6687.9133-1.8169a.566.566,0,0,1,.1762-.0326C119.8631,18.9266,119.974,19.6591,120.03,19.9929Zm-.9177.7651a1.3755,1.3755,0,0,0-.0743.25.0792.0792,0,0,0,.0834.0788h.2038a.0853.0853,0,0,0,.0883-.0879,6.9815,6.9815,0,0,0-.1205-.7374A3.3207,3.3207,0,0,0,119.112,20.758Z"/><path class="66709dbc-55b7-451a-91d5-3ee2e3648205" d="M122.5443,21.2907c0,.617-.6261.7977-1.1357.7977-.1485,0-.3755-.0511-.3755-.2364a.2805.2805,0,0,1,.125-.2179c.19-.1345.6442.014.6442-.3062,0-.4308-.5327-1.0754-.5327-1.604,0-.5377.5839-.6768,1.0151-.6768.1531,0,.38.0512.38.2455a.2968.2968,0,0,1-.2179.25c-.1115.0372-.4449,0-.4449.1577C122.002,20.0251,122.5443,20.753,122.5443,21.2907Z"/><path class="66709dbc-55b7-451a-91d5-3ee2e3648205" d="M124.78,19.0657a2.29,2.29,0,0,1,.2551.014.2828.2828,0,0,1,.26.26c0,.1807-.2038.2455-.3524.2455a1.03,1.03,0,0,0-.3751.0231.3639.3639,0,0,0-.2043.38c0,.5979.5518.82.5518,1.34a.7817.7817,0,0,1-.8575.7094c-.2089,0-.6954-.102-.6954-.3756,0-.1712.0925-.3383.2365-.3383.1853,0,.2872.2038.4543.1947.0879-.0045.1391-.125.1391-.1993,0-.1852-.3479-.5889-.4407-.7882a1.36,1.36,0,0,1-.116-.5422C123.6346,19.3162,124.1727,19.0657,124.78,19.0657Z"/><path class="66709dbc-55b7-451a-91d5-3ee2e3648205" d="M126.0146,20.9016V19.8955c0-.1947.2083-.269.37-.269.3755,0,.385.2414.385.5426,0,.2782-.014.3941-.014.6723v1.1728c0,.1947-.2084.2736-.3755.2736-.4172,0-.3846-.3108-.3846-.6215C125.996,21.4117,126.0146,21.1567,126.0146,20.9016Zm.3891-1.7014c-.482,0-.598-.6586.0186-.6586C126.9,18.5416,127.0111,19.2,126.4037,19.2Z"/><path class="66709dbc-55b7-451a-91d5-3ee2e3648205" d="M128.7506,22.45c-.8715,0-1.2516-.7229-1.2516-1.5111,0-.8349.38-1.966,1.3445-2.0634a3.9332,3.9332,0,0,1,.5376-.0507c.8249,0,1.0478.7972,1.0478,1.474a2.5006,2.5006,0,0,1-.501,1.5764,1.9133,1.9133,0,0,1-.3058.2826.1.1,0,0,0-.0416.0838c0,.102.0878.2179.0878.3384,0,.1853-.2083.2551-.3614.2551-.473,0-.3013-.39-.4684-.39C128.8108,22.4454,128.7782,22.45,128.7506,22.45Zm-.0883-2.8787a2.1591,2.1591,0,0,0-.4263,1.3721c0,.241.0929.8575.3615.95.0045,0,.0231.0045.0281.0045a.0415.0415,0,0,0,.0416-.0417c0-.1436-.2088-.3243-.2088-.4684,0-.1712.246-.2455.3851-.2455.38,0,.3936.39.491.39.0235,0,.0326-.0141.0466-.0326a1.7221,1.7221,0,0,0,.0322-1.9891A.6373.6373,0,0,0,128.6623,19.5712Z"/><path class="66709dbc-55b7-451a-91d5-3ee2e3648205" d="M133.6668,20.2013c-.1481.8349-.482,1.604-1.4559,1.604a.9761.9761,0,0,1-.9037-.5422,3.4389,3.4389,0,0,1-.1762-1.474c0-.2736.0879-.4358.3941-.4358.2641,0,.38.12.38.3846,0,.1065-.0186.2179-.0186.3293,0,.2782-.0326,1.2.3846,1.2.4593,0,.6958-1.1125.6958-1.4649,0-.3058-.0236-.598.3845-.598.2179,0,.3851.0929.3851.3294A4.0109,4.0109,0,0,1,133.6668,20.2013Z"/><path class="66709dbc-55b7-451a-91d5-3ee2e3648205" d="M136.1351,21.8891c-.1576.2917-.7324.3244-1.0246.3244h-.2088c-.4589,0-.4263-.598-.4494-.9178-.014-.1857-.0186-.371-.0186-.5562a11.4481,11.4481,0,0,1,.097-1.4374.3928.3928,0,0,1,.2785-.3429.8623.8623,0,0,1,.2687-.0326c.0833,0,.1716.0045.26.0045.1858,0,.371.01.57.01.1436,0,.3248.06.3248.2364,0,.3153-.6722.2641-.8856.2781a.1192.1192,0,0,0-.1159.102c-.0186.1109-.0462.4543-.0462.57a.096.096,0,0,0,.0969.1019h.2415c.0924,0,.1852-.0095.2826-.0095.1531,0,.3429.07.3429.255,0,.255-.3474.2736-.5282.2736h-.1716c-.0929,0-.2827-.0371-.2827.1065a6.4753,6.4753,0,0,0,.0417.6722v.0281c0,.06-.0141.139.0693.139.1857,0,.3384-.1576.5241-.1576.139,0,.3615.0834.3615.25A.1989.1989,0,0,1,136.1351,21.8891Z"/></g></svg>