<svg xmlns="http://www.w3.org/2000/svg" width="506.6667" height="426.9137" viewBox="0 0 506.6667 426.9137"><defs><style>.\36 5005ff7-917b-4db0-9148-63510d9ec1a7{fill:#d6e9d7;}.a5fd3a64-a119-4705-89ad-2b6031e8a700{fill:#1f3936;}.aade816b-8800-47a6-baf4-a81460dd6031{fill:#e0af96;}.c3d2e85c-b963-431b-8ca6-1d3f6d27b66b{fill:#c06c44;}.faabd6d5-c498-4764-84d5-8eee2b93c03f{fill:#f3cf3a;}.\39 def5ef7-b8f8-4f4c-a8a6-cef5391eb556{fill:#f3d2d2;}.\32 5e5fa3a-f2a8-4840-b55d-6cecdce54b26{fill:#08795b;}</style></defs><title>Nour-21</title><g id="0a79e60d-951c-42c7-900b-6645827baf9c" data-name="Dessins"><path class="65005ff7-917b-4db0-9148-63510d9ec1a7" d="M392.4184,453.0593q-1.7844,0-3.5657-.0638c-15.5866-.5617-29.1768-4.69-40.3973-12.2675a62.8568,62.8568,0,0,1-12.1385-10.7138c-25.8864,5.3713-50.1254,4.4332-72.4718-2.842A44.1908,44.1908,0,0,1,247.69,352.557l17.2484-15.79a44.2275,44.2275,0,0,1,12.61-69.7517,200.8021,200.8021,0,0,1,97.4426-20.791,44.19,44.19,0,0,1,41.6882,36.4007,53.2731,53.2731,0,0,1,.636,14.0525,241.4584,241.4584,0,0,1,23.4947-9.3154,44.2,44.2,0,0,1,58.108,38.9263,43.9942,43.9942,0,0,1,4.2154,20.6245c-1.0807,28.0874-14.1618,55.7644-35.89,75.9337C446.434,442.1641,419.3468,453.0593,392.4184,453.0593Z"/><circle class="a5fd3a64-a119-4705-89ad-2b6031e8a700" cx="344.9294" cy="364.0392" r="7.8354"/><circle class="a5fd3a64-a119-4705-89ad-2b6031e8a700" cx="342.6662" cy="369.7534" r="7.8354"/><circle class="a5fd3a64-a119-4705-89ad-2b6031e8a700" cx="347.5223" cy="371.8745" r="7.8354"/><circle class="a5fd3a64-a119-4705-89ad-2b6031e8a700" cx="352.7648" cy="370.7933" r="7.8354"/><circle class="a5fd3a64-a119-4705-89ad-2b6031e8a700" cx="353.6833" cy="372.4252" r="7.8354"/><circle class="a5fd3a64-a119-4705-89ad-2b6031e8a700" cx="359.199" cy="373.4457" r="7.8354"/><circle class="a5fd3a64-a119-4705-89ad-2b6031e8a700" cx="389.9174" cy="362.042" r="7.8354"/><circle class="a5fd3a64-a119-4705-89ad-2b6031e8a700" cx="391.0845" cy="366.711" r="7.8354"/><circle class="a5fd3a64-a119-4705-89ad-2b6031e8a700" cx="394.1016" cy="368.2894" r="7.8354"/><circle class="a5fd3a64-a119-4705-89ad-2b6031e8a700" cx="392.4687" cy="370.7933" r="7.8354"/><circle class="a5fd3a64-a119-4705-89ad-2b6031e8a700" cx="365.0522" cy="325.6328" r="7.034"/><circle class="a5fd3a64-a119-4705-89ad-2b6031e8a700" cx="361.802" cy="327.788" r="7.034"/><circle class="a5fd3a64-a119-4705-89ad-2b6031e8a700" cx="374.3527" cy="325.6328" r="7.034"/><circle class="a5fd3a64-a119-4705-89ad-2b6031e8a700" cx="369.8569" cy="323.5845" r="7.034"/><circle class="a5fd3a64-a119-4705-89ad-2b6031e8a700" cx="377.875" cy="329.3097" r="7.034"/><circle class="a5fd3a64-a119-4705-89ad-2b6031e8a700" cx="388.2179" cy="371.8745" r="7.8354"/><circle class="a5fd3a64-a119-4705-89ad-2b6031e8a700" cx="384.6334" cy="373.4457" r="7.8354"/><circle class="a5fd3a64-a119-4705-89ad-2b6031e8a700" cx="379.4058" cy="373.4457" r="7.8354"/><path class="a5fd3a64-a119-4705-89ad-2b6031e8a700" d="M396.8089,354.8434a29.7294,29.7294,0,0,1-.7344,6.6,28.4318,28.4318,0,0,0-55.6531,0,29.7294,29.7294,0,0,1-.7344-6.6c0-16.1354,12.7844-29.2106,28.561-29.2106S396.8089,338.708,396.8089,354.8434Z"/><path class="aade816b-8800-47a6-baf4-a81460dd6031" d="M344.9294,353.704a4.5265,4.5265,0,1,0,0,9.053"/><path class="aade816b-8800-47a6-baf4-a81460dd6031" d="M391.5267,362.757a4.5265,4.5265,0,1,0,0-9.053"/><path class="aade816b-8800-47a6-baf4-a81460dd6031" d="M377.5688,382.1012v-4.982a25.7961,25.7961,0,0,1-18.37.3307v5.8711a2.8453,2.8453,0,0,1-2.0211,2.7172,46.5574,46.5574,0,0,0-32.8816,44.5011H417.37a46.546,46.546,0,0,0-37.4929-45.6509A2.8457,2.8457,0,0,1,377.5688,382.1012Z"/><path class="c3d2e85c-b963-431b-8ca6-1d3f6d27b66b" d="M359.199,374.3331v7.3989a26.6119,26.6119,0,0,0,18.37-4.2225v-3.1764Z"/><path class="a5fd3a64-a119-4705-89ad-2b6031e8a700" d="M394.1016,353.0646a25.6138,25.6138,0,0,1-.6613,5.811,25.7261,25.7261,0,0,0-50.1128,0,25.7194,25.7194,0,1,1,50.7741-5.811Z"/><path class="aade816b-8800-47a6-baf4-a81460dd6031" d="M393.44,358.8756v.0123a25.7261,25.7261,0,0,1-50.1128,0v-.0123a25.7555,25.7555,0,0,1,30.317-19.3564c.2291.0476,1.2992-4.75,1.526-4.6968s-.3893,4.9591-.1646,5.0187A25.7544,25.7544,0,0,1,393.44,358.8756Z"/><circle class="a5fd3a64-a119-4705-89ad-2b6031e8a700" cx="358.9949" cy="354.3486" r="2.0382"/><rect class="a5fd3a64-a119-4705-89ad-2b6031e8a700" x="353.872" y="345.7537" width="5.946" height="2.2452" rx="0.3704" ry="0.3704" transform="translate(-75.9482 101.2108) rotate(-14.608)"/><circle class="a5fd3a64-a119-4705-89ad-2b6031e8a700" cx="377.3676" cy="354.3486" r="2.0382"/><rect class="a5fd3a64-a119-4705-89ad-2b6031e8a700" x="376.5444" y="345.7537" width="5.946" height="2.2452" rx="0.3704" ry="0.3704" transform="matrix(-0.9677, -0.2522, 0.2522, -0.9677, 659.2831, 778.2554)"/><path class="a5fd3a64-a119-4705-89ad-2b6031e8a700" d="M358.7924,362.3481a6.3954,6.3954,0,1,1,6.3953-6.3954A6.4028,6.4028,0,0,1,358.7924,362.3481Zm0-12.1784a5.7831,5.7831,0,1,0,5.783,5.783A5.7893,5.7893,0,0,0,358.7924,350.17Z"/><path class="a5fd3a64-a119-4705-89ad-2b6031e8a700" d="M377.57,362.3481a6.3954,6.3954,0,1,1,6.3953-6.3954A6.4028,6.4028,0,0,1,377.57,362.3481Zm0-12.1784a5.7831,5.7831,0,1,0,5.783,5.783A5.7892,5.7892,0,0,0,377.57,350.17Z"/><path class="a5fd3a64-a119-4705-89ad-2b6031e8a700" d="M371.4138,356.339a5.88,5.88,0,0,0-6.3391-.0831l-.3289-.5166a6.4,6.4,0,0,1,7.0113.0927Z"/><path class="a5fd3a64-a119-4705-89ad-2b6031e8a700" d="M368.3145,371.1a6.3654,6.3654,0,0,1-3.5759-1.0925.3062.3062,0,1,1,.3433-.5071,5.8778,5.8778,0,0,0,6.3391.0831.3062.3062,0,1,1,.3289.5167A6.3754,6.3754,0,0,1,368.3145,371.1Z"/><path class="a5fd3a64-a119-4705-89ad-2b6031e8a700" d="M368.4192,364.8961a3.5136,3.5136,0,0,1-1.9739-.6034.3058.3058,0,1,1,.342-.5071,2.9714,2.9714,0,0,0,3.2.0419.3062.3062,0,0,1,.3289.5166A3.5178,3.5178,0,0,1,368.4192,364.8961Z"/><circle class="a5fd3a64-a119-4705-89ad-2b6031e8a700" cx="375.376" cy="336.6329" r="5.7252"/><circle class="a5fd3a64-a119-4705-89ad-2b6031e8a700" cx="383.2492" cy="339.6349" r="5.7252"/><circle class="a5fd3a64-a119-4705-89ad-2b6031e8a700" cx="366.0925" cy="335.5783" r="5.7252"/><circle class="a5fd3a64-a119-4705-89ad-2b6031e8a700" cx="357.0534" cy="336.3437" r="5.7252"/><path class="c3d2e85c-b963-431b-8ca6-1d3f6d27b66b" d="M376.4486,327.5306a6.405,6.405,0,0,1-.5021,1.4573,12.4168,12.4168,0,0,0-2.4891-1.0256,12.9147,12.9147,0,0,0-7.2378,0,12.4168,12.4168,0,0,0-2.4891,1.0256,6.5638,6.5638,0,0,1-.5021-1.4573,12.8751,12.8751,0,0,1,13.22,0Z"/><path class="c3d2e85c-b963-431b-8ca6-1d3f6d27b66b" d="M361.7537,321.88a6.2686,6.2686,0,0,1,1.6237,6.0574,6.266,6.266,0,0,1-7.681-7.681A6.268,6.268,0,0,1,361.7537,321.88Z"/><path class="c3d2e85c-b963-431b-8ca6-1d3f6d27b66b" d="M359.6338,328.4538a2.2838,2.2838,0,1,1-1.0237,3.8191A3.9523,3.9523,0,0,1,359.6338,328.4538Z"/><path class="a5fd3a64-a119-4705-89ad-2b6031e8a700" d="M360.9774,352.5646a.3044.3044,0,0,1-.1746-.055,4.9146,4.9146,0,0,0-5.43-.073l-.1231.0814-1.6618-.5472a.3059.3059,0,1,1,.1913-.5812l1.3832.4551a5.5336,5.5336,0,0,1,5.99.1626.3061.3061,0,0,1-.1746.5573Z"/><path class="a5fd3a64-a119-4705-89ad-2b6031e8a700" d="M375.4125,352.5646a.3061.3061,0,0,1-.1746-.5573,5.5334,5.5334,0,0,1,5.99-.1626l1.3831-.4551a.306.306,0,1,1,.1914.5812l-1.6618.5472-.1232-.0814a4.9177,4.9177,0,0,0-5.4308.073A.3044.3044,0,0,1,375.4125,352.5646Z"/><path class="faabd6d5-c498-4764-84d5-8eee2b93c03f" d="M378.8377,382.1012v-3.0021a35.292,35.292,0,0,1-8.4515,1.7452,29.9274,29.9274,0,0,1-12.12-1.4145v3.8912a2.8454,2.8454,0,0,1-2.0212,2.7172c-19.0382,5.8348-31.9483,23.5513-31.9483,44.5011H417.37c0-22.6063-14.8523-41.441-36.2241-45.6509A2.8456,2.8456,0,0,1,378.8377,382.1012Z"/><rect class="a5fd3a64-a119-4705-89ad-2b6031e8a700" x="368.5878" y="381.2728" width="0.6123" height="0.3062"/><path class="a5fd3a64-a119-4705-89ad-2b6031e8a700" d="M369.2,429.6174h-.6123v-.616H369.2Zm0-1.2319h-.6123V427.77H369.2Zm0-1.2318h-.6123v-.6159H369.2Zm0-1.2318h-.6123v-.616H369.2Zm0-1.2319h-.6123v-.6153H369.2Zm0-1.2312h-.6123v-.6159H369.2Zm0-1.2318h-.6123v-.6159H369.2Zm0-1.2319h-.6123v-.6159H369.2Zm0-1.2318h-.6123v-.6159H369.2Zm0-1.2318h-.6123v-.6159H369.2Zm0-1.2318h-.6123v-.616H369.2Zm0-1.2319h-.6123v-.6159H369.2Zm0-1.2312h-.6123v-.6159H369.2Zm0-1.2318h-.6123v-.616H369.2Zm0-1.2319h-.6123v-.6159H369.2Zm0-1.2318h-.6123v-.6159H369.2Zm0-1.2318h-.6123v-.6159H369.2Zm0-1.2319h-.6123v-.6159H369.2Zm0-1.2318h-.6123V406.83H369.2Zm0-1.2318h-.6123v-.6153H369.2Zm0-1.2312h-.6123v-.616H369.2Zm0-1.2319h-.6123v-.6159H369.2Zm0-1.2318h-.6123v-.6159H369.2Zm0-1.2318h-.6123v-.616H369.2Zm0-1.2319h-.6123v-.6159H369.2Zm0-1.2318h-.6123v-.6159H369.2Zm0-1.2318h-.6123v-.6159H369.2Zm0-1.2319h-.6123v-.6153H369.2Zm0-1.2312h-.6123v-.6159H369.2Zm0-1.2318h-.6123v-.6159H369.2Zm0-1.2318h-.6123v-.616H369.2Zm0-1.2319h-.6123v-.6159H369.2Zm0-1.2318h-.6123v-.6159H369.2Zm0-1.2318h-.6123v-.6159H369.2Zm0-1.2319h-.6123v-.6159H369.2Zm0-1.2312h-.6123V385.89H369.2Zm0-1.2318h-.6123v-.6159H369.2Zm0-1.2319h-.6123v-.6159H369.2Zm0-1.2318h-.6123v-.6159H369.2Z"/><path class="faabd6d5-c498-4764-84d5-8eee2b93c03f" d="M342.2916,366.9158a3.0159,3.0159,0,1,1,0-6.0317v1.406a1.6071,1.6071,0,1,0,1,.346l.8732-1.1011a3.0162,3.0162,0,0,1-1.8728,5.3808Z"/><path class="faabd6d5-c498-4764-84d5-8eee2b93c03f" d="M394.1012,366.9158a3.0155,3.0155,0,0,1-1.8714-5.3808l.8733,1.1011a1.6111,1.6111,0,1,0,.9981-.346v-1.406a3.0159,3.0159,0,1,1,0,6.0317Z"/><path class="9def5ef7-b8f8-4f4c-a8a6-cef5391eb556" d="M173.1722,361.2384a28.8191,28.8191,0,0,1-25.2471-14.8808,36.4469,36.4469,0,0,1-44.9089-2.5964,32.9334,32.9334,0,0,1-22.7194,1.4018q-.7332-.2142-1.4375-.4558a28.8269,28.8269,0,0,1-47.7551-31.1663c1.3071-3.2032,4.8206-15.1087,6.7168-21.5345,2.006-6.7937,3.2829-11.0981,4.25-13.8661a28.822,28.822,0,0,1,52.2216-4.8331l.762,1.33q.4758-.1585.9625-.3062c11.3329-3.4229,22.7619-.9226,31.9434,6.18,12.7883-10.575,28.1263-10.9512,39.6982-5.3081,11.3961,5.5594,16.48,15.4712,18.6511,19.7042l12.4863,24.352a28.8328,28.8328,0,0,1-25.6234,41.9788ZM31.2305,313.2691c-.0206.0439-.0426.0906-.0645.1387C31.1879,313.3611,31.2085,313.3158,31.2305,313.2691Z"/><path class="25e5fa3a-f2a8-4840-b55d-6cecdce54b26" d="M68.6179,302.2835a3.76,3.76,0,0,1,2.1227,3.5973,5.8487,5.8487,0,0,1-.5629,2.4742c-.758,1.5872-2.5,3.2459-4.3553,3.2459-.7167,0-1.097-.184-1.28-.9007a16.0074,16.0074,0,0,1-.28-3.666c0-.8019.0274-1.6174.0563-2.4165a15.6581,15.6581,0,0,1,.07-2.01,1.0458,1.0458,0,0,1,1.0682-.703c.1675,0,.3227.0274.4915.0274.309,0,.6179-.0274.9268-.0274A4.3643,4.3643,0,0,1,68.6179,302.2835Zm-1.7424,7.1095a4.6957,4.6957,0,0,0,1.6449-3.54c0-1.1534-.5066-2.3616-1.8275-2.3616-.1126,0-.0988.2526-.0988.324,0,1.6147-.1675,3.2321-.0412,5.0033C66.5529,308.9592,66.524,309.6182,66.8755,309.393Z"/><path class="25e5fa3a-f2a8-4840-b55d-6cecdce54b26" d="M77.7156,311.318a10.773,10.773,0,0,1-3.4711.7744c-1.5322,0-1.3771-.8568-1.3771-2.065,0-2.433.3927-4.8633.4641-7.2935a.962.962,0,0,1,.2238-.6756,2.4892,2.4892,0,0,1,1.7149-.5327c.4078,0,.8-.0988,1.1945-.0988h.0838a1.3718,1.3718,0,0,1,.59-.1126c.45,0,1.1108.28,1.1108.8155,0,.8156-1.7424.9969-2.3328.9969-.1552,0-.324-.0852-.324.1537,0,.1978.0151.3817,0,.5767-.0275.4229-.0412.843-.0838,1.2659-.0288.2939-.0851.6042-.0851.898,0,.0989.0151.1977.1277.1977.21,0,.4489-.14.7016-.14.4366,0,1.1108.2938,1.1108.8155,0,.6865-1.2509,1.1506-1.7987,1.2907a.4505.4505,0,0,0-.3515.3789c-.0426.4641-.0426.9419-.0426,1.406a.2615.2615,0,0,0,.2527.2829c.59,0,1.0407-.4943,1.616-.4943.4641,0,1.1671.2251,1.1671.7881A.9946.9946,0,0,1,77.7156,311.318Z"/><path class="25e5fa3a-f2a8-4840-b55d-6cecdce54b26" d="M84.9418,308.5637c0,1.87-1.8975,2.4193-3.4422,2.4193-.45,0-1.1382-.1565-1.1382-.7167a.85.85,0,0,1,.3789-.6618c.5767-.4064,1.9525.0439,1.9525-.9282,0-1.3044-1.6147-3.26-1.6147-4.8605,0-1.6311,1.77-2.0513,3.0769-2.0513.4641,0,1.152.1538,1.152.7442a.9.9,0,0,1-.66.7579c-.3378.1126-1.3483,0-1.3483.4778C83.2983,304.7275,84.9418,306.9353,84.9418,308.5637Z"/><path class="25e5fa3a-f2a8-4840-b55d-6cecdce54b26" d="M94.1932,302.0172a7.5507,7.5507,0,0,1,1.8412.2938,3.6636,3.6636,0,0,1,2.8655,3.71,4.4646,4.4646,0,0,1-4.2715,4.6106c-2.4728,0-3.9062-2.01-3.9062-4.3415C90.7222,304.236,91.8893,302.0172,94.1932,302.0172Zm1.3071,1.84a2.4832,2.4832,0,0,0-.8581-.1263c-.1826,0-.35-.0549-.5328-.0549a.3725.3725,0,0,0-.2389.0686,3.22,3.22,0,0,0-.9144,2.4879,5.0622,5.0622,0,0,0,.0714.9282c.14.7167.7867,1.9387,1.63,1.9387a1.0948,1.0948,0,0,0,.6178-.2114,3.4256,3.4256,0,0,0,1.42-2.8944A2.1823,2.1823,0,0,0,95.5,303.857Z"/><path class="25e5fa3a-f2a8-4840-b55d-6cecdce54b26" d="M100.8029,306.2461c0-.4339.0275-.87.0563-1.3071.07-.9969.1112-2.3891,1.4472-2.3891.4915,0,1.1382.17,1.1382.7744a7.9456,7.9456,0,0,1-.2677,1.1094,11.8566,11.8566,0,0,0-.1126,1.7272c0,.45.0989,2.7708.7167,2.7708a.3717.3717,0,0,0,.2389-.0989c1.0971-.8567,1.8412-3.8087,1.9538-5.1872.0275-.3927-.0563-.7717.2952-1.0518a1.36,1.36,0,0,1,.8568-.2828c.6179,0,1.1245.2966,1.1245.9693a11.0361,11.0361,0,0,1-.45,2.6005c-.5053,1.925-1.5873,4.7068-3.9763,4.7068C101.3219,310.5876,100.8029,308.27,100.8029,306.2461Z"/><path class="25e5fa3a-f2a8-4840-b55d-6cecdce54b26" d="M115.8993,301.5256c.4215,0,1.2783.2389,1.2783.7717,0,1.027-1.6861.87-2.3465.9556a.2705.2705,0,0,0-.2664.2828c0,1.4609.0412,2.823.14,4.2289.07,1.0682.1689,2.1639.1689,3.3145a1.0263,1.0263,0,0,1-1.152,1.1534c-.5066,0-1.1945-.239-1.1945-.8431,0-2.2188-.0714-4.3689-.1126-6.6454a7.12,7.12,0,0,0-.0137-1.082.43.43,0,0,0-.4641-.3515c-.563,0-1.925.1126-1.925-.7881,0-.7167.8705-.8567,1.4046-.8567C112.9061,301.6657,114.3821,301.5256,115.8993,301.5256Z"/><path class="25e5fa3a-f2a8-4840-b55d-6cecdce54b26" d="M118.9529,301.4542c-.0288-.6041.5753-.8842,1.0957-.9117.52-.03,1.1671.195,1.1945.7991.0275.6179-.5766.9145-1.1094.9419C119.6133,302.2973,118.98,302.0583,118.9529,301.4542Zm2.4165,2.6692c.07,1.3208,0,2.46-.0137,3.795-.0137.59-.1126,1.0133-.0851,1.4911a1.0919,1.0919,0,0,1-1.0957.8431c-.703.0411-1.1382-.184-1.1657-.9419a8.0534,8.0534,0,0,1,.0275-.8156c.0288-1.0682.0137-1.2357.0563-2.304.0137-.6041.0425-.9693.0137-1.56-.0412-.887.0563-1.3346,1.0545-1.3785C120.779,303.2254,121.342,303.4231,121.3694,304.1234Z"/><path class="25e5fa3a-f2a8-4840-b55d-6cecdce54b26" d="M125.8688,308.72l.0275.2526a.3033.3033,0,0,0,.2952.2526h2.319c.4216,0,1.1094.2664,1.1094.7881a.5513.5513,0,0,1-.0412.195c-.2251.6481-1.167.6041-1.7149.6041-.5052,0-.9981-.0137-1.49-.0137-.3364,0-.6741.0275-1.0119.0275a3.4159,3.4159,0,0,1-.7442-.0687c-.6178-.14-.7167-.4778-.8156-1.0545a26.994,26.994,0,0,1-.28-4.3991c0-.6591.0138-1.3346.0138-1.9937,0-.1565-.0138-.31-.0138-.464,0-.7305.4216-1.0271,1.1232-1.0271.6329,0,1.1245.2829,1.1245.9694,0,.17-.0275.3378-.0275.508A37.151,37.151,0,0,0,125.8688,308.72Z"/><path class="25e5fa3a-f2a8-4840-b55d-6cecdce54b26" d="M134.6274,301.4542c.4489,0,1.0956.1977,1.0956.7607a.8292.8292,0,0,1-.59.73c-.1538.0549-.2952.0412-.449.0824-.5341.1263-.6329.8293-.6329,1.28,0,1.6146.7455,3.1332.7455,4.7506,0,1.417-.6892,2.0788-2.1227,2.0788-.5052,0-1.292-.184-1.292-.8293,0-.6042.6179-.6893,1.0531-.7717.1415-.03.1552-.1565.1552-.2828,0-1.5735-.7868-3.2458-.7868-4.8907A2.6849,2.6849,0,0,1,134.6274,301.4542Z"/><path class="25e5fa3a-f2a8-4840-b55d-6cecdce54b26" d="M73.002,319.9131a16.8958,16.8958,0,0,1-1.0957,6.1979.95.95,0,0,1-.9268.5766,1.7592,1.7592,0,0,1-1.21-.5052c-.8705-.8733-1.6161-1.9552-2.4866-2.7845a.2151.2151,0,0,0-.1551-.0824c-.0838,0-.1112.0988-.1263.1675a21.3831,21.3831,0,0,0-.4078,2.6692c-.0838.7469.0425,1.7162-.8994,1.9112a1.7746,1.7746,0,0,1-.2938.03c-.4366,0-1.0545-.1565-1.1245-.6755a1.5625,1.5625,0,0,1-.0137-.2527,11.4332,11.4332,0,0,1,.14-1.1945,28.689,28.689,0,0,1,.8293-4.5117A1.0323,1.0323,0,0,1,66.3,320.715c1.3346,0,2.9919,2.0376,3.85,2.9657a.2156.2156,0,0,0,.14.0851c.0852,0,.1126-.0851.1264-.1428a28.2716,28.2716,0,0,0,.4077-4.27c.0289-.6343.0138-1.167.7305-1.3785a1.4881,1.4881,0,0,1,.4215-.0549c.66,0,1.1245.3076,1.1245,1.0106C73.1008,319.2541,73.0308,319.5781,73.002,319.9131Z"/><path class="25e5fa3a-f2a8-4840-b55d-6cecdce54b26" d="M75.2153,323.1178c0-.4339.0274-.87.0563-1.3071.07-.9969.1112-2.3891,1.4471-2.3891.4916,0,1.1383.17,1.1383.7744a7.9461,7.9461,0,0,1-.2678,1.1094,11.8706,11.8706,0,0,0-.1126,1.7272c0,.45.0989,2.7708.7168,2.7708a.3725.3725,0,0,0,.2389-.0988c1.097-.8568,1.8412-3.8088,1.9538-5.1873.0274-.3927-.0563-.7717.2952-1.0518a1.3594,1.3594,0,0,1,.8567-.2828c.6179,0,1.1246.2966,1.1246.9693a11.038,11.038,0,0,1-.45,2.6006c-.5053,1.9249-1.5872,4.7067-3.9763,4.7067C75.7343,327.4593,75.2153,325.1416,75.2153,323.1178Z"/><path class="25e5fa3a-f2a8-4840-b55d-6cecdce54b26" d="M90.2279,322.0084a7.0435,7.0435,0,0,1,1.8261-2.768A3.1977,3.1977,0,0,1,93.81,318.51a1.0358,1.0358,0,0,1,.9845.6041c.8993,1.8124.9268,4.1878.9268,6.1814,0,.6755-.0138,1.3346-.0138,2.01,0,.7167-.52.9968-1.1808.9968-.7167,0-1.1382-.3213-1.1382-1.0517,0-.887.0426-1.7575.0426-2.6417a12.9579,12.9579,0,0,0-.2527-3.2047c-.0137-.0576-.0425-.1537-.1126-.1537-.0562,0-.0988.0686-.1263.1126a16.9724,16.9724,0,0,0-1.0682,2.6114c-.3226.8156-.6178,1.7575-1.6586,1.8289h-.07c-.9694,0-1.3483-1.0545-1.6861-1.7849a21.5114,21.5114,0,0,0-1.0545-2.249c-.0274-.0412-.0563-.1126-.1263-.1126-.21,0-.2238,1.1368-.2238,1.3208,0,1.266.1826,2.5154.1826,3.7813,0,.7-.45.9968-1.1245.9968-.9693,0-1.2234-.5052-1.2234-1.3785,0-1.038-.1112-2.065-.1112-3.0893,0-1.3373.0563-2.952,1.4472-3.5973a2.2942,2.2942,0,0,1,.9694-.2252c1.42,0,2.2064,1.4747,2.7817,2.5566.0288.0412.0563.1126.1263.1126S90.1991,322.0633,90.2279,322.0084Z"/><path class="25e5fa3a-f2a8-4840-b55d-6cecdce54b26" d="M102.9943,327.2506c-.4778.8842-2.22.9831-3.1058.9831h-.633c-1.3908,0-1.292-1.8124-1.362-2.7818-.0426-.5629-.0563-1.1259-.0563-1.6861a34.467,34.467,0,0,1,.2952-4.3579,1.1869,1.1869,0,0,1,.843-1.038,2.6118,2.6118,0,0,1,.8142-.0989c.2527,0,.52.0137.7868.0137.5629,0,1.1245.0275,1.7286.0275.4353,0,.9845.184.9845.7167,0,.9556-2.0376.8019-2.6843.8431a.3613.3613,0,0,0-.3515.31c-.0563.335-.14,1.3757-.14,1.7272a.2921.2921,0,0,0,.2938.31h.7318c.28,0,.5616-.03.8568-.03.4641,0,1.0394.2115,1.0394.7744,0,.7716-1.0531.8293-1.601.8293h-.52c-.2814,0-.8567-.1126-.8567.3213a19.6129,19.6129,0,0,0,.1263,2.0376v.0851c0,.184-.0426.4229.21.4229.5629,0,1.0256-.4778,1.5886-.4778.4215,0,1.0956.2526,1.0956.7579A.6053.6053,0,0,1,102.9943,327.2506Zm-1.9676-9.9352c-.52.2938-1.1245.87-1.7423.42-.703-.4915.4489-1.038.8-1.2357.52-.2966,1.1245-.8568,1.7424-.4229C102.53,316.5849,101.3782,317.1177,101.0267,317.3154Z"/><path class="25e5fa3a-f2a8-4840-b55d-6cecdce54b26" d="M109.77,324.2986c.493.4915.8019,1.1231,1.266,1.6449.28.3075.7167.3377.8842.7716.254.6179-.6179.9968-1.1231.9968-1.5049,0-2.628-2.444-2.91-2.444-.07,0-.07.1126-.07.1538,0,.6041.0137,1.2247-.0137,1.8289a.9908.9908,0,0,1-.38.9117,1.4514,1.4514,0,0,1-.8.2251.9615.9615,0,0,1-1.082-1.0682c0-.7716.0275-1.9112,0-2.7268-.0425-1.8124-.14-3.4133-.14-5.2257a.8348.8348,0,0,1,.0837-.4092c.3515-.659,1.8825-.9556,2.558-.9556a3.0183,3.0183,0,0,1,3.2458,2.9657,3.8375,3.8375,0,0,1-1.5035,2.9795.23.23,0,0,0-.1125.1675A.2636.2636,0,0,0,109.77,324.2986Zm-1.7-4.7342c-.1963,0-.4489.0275-.4489.2664l.0274,1.0242c.0138.6344.0426,1.28.0838,1.9113.0151.1126.0563.2114.184.2114a.331.331,0,0,0,.1112-.0274,2.1181,2.1181,0,0,0,1.0545-1.8262C109.0823,320.5035,108.83,319.5644,108.07,319.5644Z"/><path class="25e5fa3a-f2a8-4840-b55d-6cecdce54b26" d="M114.16,324.2574v-3.0509c0-.59.6316-.8155,1.1245-.8155,1.1369,0,1.1657.7331,1.1657,1.6448,0,.8431-.0426,1.1946-.0426,2.0376V327.63c0,.59-.6316.8293-1.1382.8293-1.2646,0-1.1657-.9419-1.1657-1.8838C114.1034,325.8034,114.16,325.029,114.16,324.2574Zm1.1794-5.1571c-1.4609,0-1.8124-1.9964.0563-1.9964C116.844,317.1039,117.18,319.1,115.3391,319.1Z"/><path class="25e5fa3a-f2a8-4840-b55d-6cecdce54b26" d="M122.4528,328.95c-2.6417,0-3.7937-2.1914-3.7937-4.58,0-2.5319,1.152-5.9589,4.0751-6.2555a12.1183,12.1183,0,0,1,1.63-.1538c2.5,0,3.1758,2.4165,3.1758,4.4678a7.5782,7.5782,0,0,1-1.5186,4.7781,5.8181,5.8181,0,0,1-.9267.8568.3074.3074,0,0,0-.1264.2554c0,.3075.2664.659.2664,1.0243,0,.5629-.6316.7743-1.0957.7743-1.4334,0-.913-1.1808-1.42-1.1808C122.6354,328.9366,122.5365,328.95,122.4528,328.95Zm-.2678-8.727a6.5485,6.5485,0,0,0-1.292,4.16c0,.7305.2815,2.5978,1.0957,2.8806.0137,0,.07.0137.0851.0137a.1268.1268,0,0,0,.1263-.1263c0-.4366-.6329-.9831-.6329-1.42,0-.519.7455-.7442,1.167-.7442,1.152,0,1.1932,1.1808,1.4884,1.1808.0714,0,.0988-.0439.1414-.0988,1.1657-1.6724,1.49-4.4541.0975-6.03A1.9339,1.9339,0,0,0,122.185,320.2234Z"/><path class="25e5fa3a-f2a8-4840-b55d-6cecdce54b26" d="M137.3542,322.1347c-.449,2.5291-1.4609,4.8605-4.4129,4.8605a2.9569,2.9569,0,0,1-2.7392-1.6421,10.424,10.424,0,0,1-.5341-4.4679c0-.8293.2664-1.3208,1.1945-1.3208.8,0,1.152.3652,1.152,1.1643,0,.3241-.0563.6618-.0563,1,0,.843-.0989,3.6385,1.1657,3.6385,1.3922,0,2.109-3.3722,2.109-4.44,0-.9281-.0714-1.8124,1.1657-1.8124.66,0,1.167.28,1.167.9969A12.19,12.19,0,0,1,137.3542,322.1347Z"/><path class="25e5fa3a-f2a8-4840-b55d-6cecdce54b26" d="M144.8358,327.2506c-.4778.8842-2.22.9831-3.1058.9831h-.633c-1.3908,0-1.292-1.8124-1.362-2.7818-.0426-.5629-.0563-1.1259-.0563-1.6861a34.467,34.467,0,0,1,.2952-4.3579,1.1869,1.1869,0,0,1,.843-1.038,2.6118,2.6118,0,0,1,.8142-.0989c.2527,0,.52.0137.7868.0137.5629,0,1.1245.0275,1.7286.0275.4353,0,.9845.184.9845.7167,0,.9556-2.0376.8019-2.6843.8431a.3613.3613,0,0,0-.3515.31c-.0563.335-.14,1.3757-.14,1.7272a.2921.2921,0,0,0,.2938.31h.7318c.28,0,.5616-.03.8568-.03.4641,0,1.0394.2115,1.0394.7744,0,.7716-1.0531.8293-1.601.8293h-.52c-.2815,0-.8568-.1126-.8568.3213a19.6129,19.6129,0,0,0,.1263,2.0376v.0851c0,.184-.0426.4229.21.4229.5629,0,1.0256-.4778,1.5886-.4778.4215,0,1.0956.2526,1.0956.7579A.6053.6053,0,0,1,144.8358,327.2506Z"/><path class="25e5fa3a-f2a8-4840-b55d-6cecdce54b26" d="M150.4885,318.3259c.449,0,1.0957.1977,1.0957.7607a.8293.8293,0,0,1-.59.73c-.1538.055-.2952.0412-.449.0824-.5341.1263-.633.8293-.633,1.28,0,1.6146.7456,3.1332.7456,4.7506,0,1.417-.6893,2.0788-2.1227,2.0788-.5053,0-1.292-.184-1.292-.8293,0-.6042.6179-.6893,1.0531-.7717.1414-.03.1551-.1565.1551-.2828,0-1.5735-.7867-3.2458-.7867-4.8907A2.6849,2.6849,0,0,1,150.4885,318.3259Z"/><path class="9def5ef7-b8f8-4f4c-a8a6-cef5391eb556" d="M70.7269,203.5549a28.8219,28.8219,0,0,1-23.5735-12.23,28.8274,28.8274,0,0,1-36.6254-43.76A109.9788,109.9788,0,0,1,48.89,119.9447a28.8318,28.8318,0,0,1,17.782-1.5872,28.8233,28.8233,0,0,1,50.1428-.22l.7621,1.3305q.4757-.1587.9624-.3062a34.8535,34.8535,0,0,1,31.9421,6.18c12.791-10.5722,28.125-10.9526,39.7023-5.3067,11.3933,5.558,16.4776,15.47,18.6484,19.7029l3.7222,7.2605a28.8226,28.8226,0,0,1-36.6707,39.782c-9.6,9.1691-21.9752,12.8254-34.2363,10.0354a35.8885,35.8885,0,0,1-16.1083-8.2244,32.9319,32.9319,0,0,1-22.7194,1.4019,33.3482,33.3482,0,0,1-6.0427-2.4234q-1.0524,1.6291-2.1323,3.2376A28.8249,28.8249,0,0,1,70.7269,203.5549Z"/><path class="25e5fa3a-f2a8-4840-b55d-6cecdce54b26" d="M48.6226,147.1154a3.758,3.758,0,0,1,2.1227,3.5974,5.8276,5.8276,0,0,1-.563,2.4714c-.7579,1.5872-2.5,3.2458-4.3552,3.2458-.7167,0-1.0971-.1812-1.28-.8979a16.0192,16.0192,0,0,1-.28-3.6687c0-.7991.0275-1.6147.0563-2.4166a15.6941,15.6941,0,0,1,.07-2.01,1.0458,1.0458,0,0,1,1.0682-.703c.1675,0,.3226.03.4915.03.3089,0,.6179-.03.9268-.03A4.3679,4.3679,0,0,1,48.6226,147.1154Zm-1.7424,7.11a4.7064,4.7064,0,0,0,1.6449-3.5424c0-1.1506-.5067-2.3589-1.8275-2.3589-.1126,0-.0989.2526-.0989.3213,0,1.6174-.1675,3.2321-.0412,5.0033C46.5575,153.7883,46.5287,154.45,46.88,154.225Z"/><path class="25e5fa3a-f2a8-4840-b55d-6cecdce54b26" d="M57.72,156.15a10.84,10.84,0,0,1-3.471.7717c-1.5323,0-1.3771-.8568-1.3771-2.065,0-2.43.3927-4.86.4641-7.2935a.95.95,0,0,1,.2238-.6728,2.4774,2.4774,0,0,1,1.7149-.5355c.4078,0,.8-.0989,1.1945-.0989h.0837a1.4149,1.4149,0,0,1,.59-.11c.45,0,1.1108.28,1.1108.8128,0,.8156-1.7423,1-2.3327,1-.1552,0-.3241-.0851-.3241.1538,0,.1977.0151.3789,0,.5766-.0274.42-.0412.8431-.0837,1.2632-.0289.2966-.0852.6041-.0852.9007,0,.0989.0151.195.1277.195.21,0,.449-.14.7016-.14.4367,0,1.1108.2966,1.1108.8156,0,.6893-1.2508,1.1534-1.7986,1.2934a.4445.4445,0,0,0-.3515.379c-.0426.464-.0426.9418-.0426,1.4059a.259.259,0,0,0,.2526.28c.59,0,1.0408-.4915,1.6161-.4915.4641,0,1.1671.2252,1.1671.7881A.9988.9988,0,0,1,57.72,156.15Z"/><path class="25e5fa3a-f2a8-4840-b55d-6cecdce54b26" d="M64.9464,153.3957c0,1.87-1.8975,2.4165-3.4421,2.4165-.45,0-1.1383-.1538-1.1383-.7167a.85.85,0,0,1,.379-.6591c.5767-.4092,1.9524.0412,1.9524-.9282,0-1.3071-1.6147-3.2595-1.6147-4.8632,0-1.6284,1.77-2.0513,3.077-2.0513.4641,0,1.152.1565,1.152.7442a.9.9,0,0,1-.66.7606c-.3377.1126-1.3483,0-1.3483.4778C63.3029,149.5594,64.9464,151.7645,64.9464,153.3957Z"/><path class="25e5fa3a-f2a8-4840-b55d-6cecdce54b26" d="M71.1484,149.348c.0851-.4339.5615-.59.9556-.59.52,0,1.1945.2691,1.1945.8732,0,1.1506-.1263,2.1337-.1263,3.287a3.1871,3.1871,0,0,0,.0838,1.3072.5214.5214,0,0,1,.07.2526,1.2154,1.2154,0,0,1-.0838.379,1.078,1.078,0,0,1-1.1107.7029c-.9694,0-1.1932-.5629-1.1932-1.42,0-.2251.0137-.45.0137-.6727A21.29,21.29,0,0,1,71.1484,149.348Zm-.0838-2.6554a.9937.9937,0,0,1,1.1094-.898c.5479,0,1.1245.2938,1.1245.898a1.1394,1.1394,0,0,1-2.2339,0Z"/><path class="25e5fa3a-f2a8-4840-b55d-6cecdce54b26" d="M85.6516,147.099c0,1.6311-.0274,3.276.0426,4.9044a6.5926,6.5926,0,0,0,.0837,1.1808c.0563.2526.2541.4916.2541.7442,0,.5629-.7456.9007-1.2234.9007-1.4334,0-1.292-1.6174-1.3346-2.6142-.0288-.703-.0137-1.42-.0563-2.1227,0-.0412,0-.1538-.07-.1538-.1826,0-1.0545,1.9387-2.3465,1.9387-1.0819,0-2.3616-2.15-2.7406-2.15-.1963,0-.2389.7305-.2526.887a40.9994,40.9994,0,0,0-.2526,4.3552c0,.7744-.3241,1.1534-1.1245,1.1534a1.02,1.02,0,0,1-1.152-1.1671c0-1.1533.35-6.8569,1.0256-7.4885a1.1141,1.1141,0,0,1,.7731-.2828,5.3648,5.3648,0,0,1,3.0343,1.7712c.1689.1812.38.5492.6467.5492.6179,0,2.0513-3.4875,3.6248-3.4875A.9685.9685,0,0,1,85.6516,147.099Z"/><path class="25e5fa3a-f2a8-4840-b55d-6cecdce54b26" d="M94.5529,149.6144a3.7529,3.7529,0,0,1-2.7117,3.2046c-.3364.1263-.6741.184-1.0256.2828-.0838.0275-.1538.0549-.1538.1538,0,.7716.0274,1.546.0274,2.3177,0,.6892-.52.9419-1.1519.9419-.4778,0-1.0971-.1978-1.1671-.7442a5.7781,5.7781,0,0,1-.0275-.6893c0-1.9524.0426-3.8911-.07-5.8463l-.07-1.25c-.0151-.17-.0563-.3377-.0563-.5052,0-.9419,1.5309-.9282,2.1914-.9282C92.1927,146.5525,94.5529,147.3818,94.5529,149.6144Zm-3.5973,1.6888a1.9594,1.9594,0,0,0,1.2934-1.7026,1.45,1.45,0,0,0-1.476-1.3895c-.1675,0-.2389.1538-.2389.2938a22.6212,22.6212,0,0,0,.0989,2.5868c.0137.1263.0837.2389.2114.2389A.2653.2653,0,0,0,90.9556,151.3032Z"/><path class="25e5fa3a-f2a8-4840-b55d-6cecdce54b26" d="M99.11,147.03c1.5886,0,3.6261.7854,3.6261,2.6554,0,1.2358-.9981,1.8124-2.0238,2.1639-.07.0275-.1689.0577-.1689.14,0,.2252,1.56,1.351,1.8138,1.5185.3089.1978.87.379.87.8705a.9593.9593,0,0,1-1.0119.8431c-1.222,0-2.9932-1.8673-3.2033-1.8673-.0851,0-.0851.1126-.0851.1675,0,.2251.0425.45.0425.6755,0,.7991-.3089,1.25-1.1656,1.25-.7319,0-1.1383-.3076-1.1383-1.0545,0-1.3758.0137-2.7543.0137-4.13,0-1.1259-.1125-2.8394.6042-3.1058A9.1972,9.1972,0,0,1,99.11,147.03Zm.1263,1.6147c-.449,0-.4215.3515-.4215.6893,0,.324-.0275.6618-.0275.983,0,.17.2527.1264.379.1264.4915,0,1.3071-.0962,1.3071-.758A1.2,1.2,0,0,0,99.2363,148.645Z"/><path class="25e5fa3a-f2a8-4840-b55d-6cecdce54b26" d="M110.4978,155.208c-.4778.8843-2.22.9831-3.1057.9831h-.633c-1.3909,0-1.292-1.8124-1.362-2.7817-.0426-.563-.0563-1.1231-.0563-1.6861a34.4586,34.4586,0,0,1,.2952-4.3552,1.1875,1.1875,0,0,1,.843-1.0408,2.6144,2.6144,0,0,1,.8142-.0988c.2526,0,.52.0137.7868.0137.5629,0,1.1245.03,1.7286.03.4352,0,.9844.1813.9844.7167,0,.9557-2.0375.7991-2.6842.8431a.3614.3614,0,0,0-.3515.3075c-.0563.3378-.14,1.3785-.14,1.73a.29.29,0,0,0,.2939.3076h.7318c.28,0,.5616-.0275.8568-.0275.464,0,1.0393.2115,1.0393.7717,0,.7744-1.0531.8293-1.6009.8293h-.52c-.2815,0-.8567-.1126-.8567.324a19.6316,19.6316,0,0,0,.1263,2.0376v.0851c0,.1812-.0426.42.21.42.563,0,1.0257-.4778,1.5886-.4778.4215,0,1.0957.2527,1.0957.7607A.6025.6025,0,0,1,110.4978,155.208Z"/><path class="25e5fa3a-f2a8-4840-b55d-6cecdce54b26" d="M116.1506,146.2861c.449,0,1.0957.195,1.0957.758a.8264.8264,0,0,1-.59.73c-.1538.0577-.2952.0412-.449.0851-.5341.1263-.633.8293-.633,1.2769,0,1.6175.7456,3.136.7456,4.7507,0,1.42-.6893,2.0788-2.1227,2.0788-.5053,0-1.292-.1813-1.292-.8266,0-.6069.6178-.6893,1.0531-.7744.1414-.0275.1551-.1538.1551-.28,0-1.5735-.7867-3.2458-.7867-4.8907A2.6849,2.6849,0,0,1,116.1506,146.2861Z"/><path class="25e5fa3a-f2a8-4840-b55d-6cecdce54b26" d="M123.9521,146.5662c-.5053.8431-2.0238.1126-2.0238,2.0651,0,2.3753,1.9826,4.6106,1.9826,6.887,0,1.7-1.3359,2.4166-2.882,2.4166-.5478,0-1.6709-.044-1.6709-.8156,0-.6453.7167-.8293,1.2357-.8293.5066,0,.9982.1126.9982-.59,0-2.1364-1.9676-4.553-1.9676-7.0683a3.5337,3.5337,0,0,1,3.3022-3.2019C123.488,145.4294,124.3462,145.9209,123.9521,146.5662Z"/><path class="25e5fa3a-f2a8-4840-b55d-6cecdce54b26" d="M126.19,146.2861c-.0288-.6041.5753-.8869,1.0957-.9144s1.1671.1977,1.1945.8019c.0275.6178-.5766.9116-1.1094.9418C126.8506,147.1292,126.2176,146.89,126.19,146.2861Zm2.4165,2.6692c.07,1.3208,0,2.4577-.0137,3.795-.0137.59-.1126,1.0106-.0851,1.4884a1.0862,1.0862,0,0,1-1.0957.843c-.703.0412-1.1382-.1812-1.1657-.9419a8.1374,8.1374,0,0,1,.0275-.8155c.0288-1.0683.0137-1.2358.0563-2.304.0137-.6041.0425-.9693.0137-1.56-.0412-.8843.0563-1.3346,1.0545-1.3758C128.0162,148.0546,128.5792,148.2523,128.6066,148.9553Z"/><path class="25e5fa3a-f2a8-4840-b55d-6cecdce54b26" d="M134.0191,146.8463a7.555,7.555,0,0,1,1.8412.2966,3.6616,3.6616,0,0,1,2.8655,3.71,4.4622,4.4622,0,0,1-4.2714,4.6079c-2.4729,0-3.9063-2.01-3.9063-4.3415C130.5481,149.0679,131.7152,146.8463,134.0191,146.8463Zm1.3071,1.8426a2.4832,2.4832,0,0,0-.8581-.1263c-.1826,0-.35-.0577-.5327-.0577a.36.36,0,0,0-.239.0714,3.2159,3.2159,0,0,0-.9144,2.488,5.1572,5.1572,0,0,0,.07.9254c.1415.7167.7882,1.9387,1.6312,1.9387a1.0919,1.0919,0,0,0,.6178-.2087,3.4255,3.4255,0,0,0,1.42-2.8943A2.18,2.18,0,0,0,135.3262,148.6889Z"/><path class="25e5fa3a-f2a8-4840-b55d-6cecdce54b26" d="M145.9685,155.9824a3.1694,3.1694,0,0,1-.703-1.4059c-.2526-.6756-1.5734-4.6107-1.9538-4.7782-.0563,0-.07.0989-.0837.14a20.7263,20.7263,0,0,0-.2952,3.85c0,.9419.14,1.8976-1.1657,1.8976-.703,0-1.1383-.3378-1.1383-1.0683,0-.2663.0412-.519.0563-.7853a32.452,32.452,0,0,1,.6316-5.8189c.1126-.519.1826-.9831.7442-1.1808a1.3278,1.3278,0,0,1,.4641-.0824,2.0454,2.0454,0,0,1,.9419.2664c2.15,1.1369,2.8243,4.369,3.0769,4.5255.0563-.0165.0563-.1126.0563-.1428.1826-1.1945.2678-2.4028.3515-3.5973.0426-.5053-.07-1.2083.379-1.56a1.3432,1.3432,0,0,1,.8155-.2526c.6879,0,1.1383.2828,1.1383,1,0,.4916-.0838.9694-.1263,1.4609a34.7669,34.7669,0,0,1-.8431,5.775,5.1017,5.1017,0,0,1-.5066,1.5872,1.061,1.061,0,0,1-.9405.45A1.493,1.493,0,0,1,145.9685,155.9824Z"/><path class="25e5fa3a-f2a8-4840-b55d-6cecdce54b26" d="M155.993,146.5662c-.5053.8431-2.0239.1126-2.0239,2.0651,0,2.3753,1.9827,4.6106,1.9827,6.887,0,1.7-1.336,2.4166-2.882,2.4166-.5478,0-1.671-.044-1.671-.8156,0-.6453.7167-.8293,1.2358-.8293.5066,0,.9981.1126.9981-.59,0-2.1364-1.9675-4.553-1.9675-7.0683a3.5336,3.5336,0,0,1,3.3021-3.2019C155.5289,145.4294,156.387,145.9209,155.993,146.5662Z"/><path class="25e5fa3a-f2a8-4840-b55d-6cecdce54b26" d="M45.4756,164.3386a12.1928,12.1928,0,0,1,3.147-1,1.08,1.08,0,0,1,.2952-.0275c.464,0,1.0956.2527,1.0956.8019,0,.3652-.3926.6178-.7016.7167-.6041.195-1.2233.28-1.8275.4778-.0837.0275-.1826.0549-.2663.0824a.4441.4441,0,0,0-.2527.3652c0,.31.0138.6343.0138.9419a.24.24,0,0,0,.2389.2526c.0274,0,.0425-.0137.07-.0137a7.3632,7.3632,0,0,1,1.56-.2526c.4779,0,1.1808.1977,1.1808.7881,0,.42-.45.7167-.8155.7716a20.1424,20.1424,0,0,0-2.0239.3653.1973.1973,0,0,0-.1826.2251c0,.1126.0289.2115.0289.3241.0274.5327.0274,1.0544.0411,1.5872.0151.45.0563.9144.0563,1.362,0,.6041-.5478.8293-1.0819.8293-.449,0-1.0531-.1812-1.1382-.7167a7.5067,7.5067,0,0,1-.0563-1.1231c0-.6454-.0138-1.2934-.0412-1.9387,0-.0714.0137-.1264.0137-.1978,0-.28-.5616-.2938-.5616-.8293,0-.4915.5053-.4915.5053-.843,0-.3927-.0137-.7854-.0137-1.1808,0-.2938-.3378-.4339-.3378-.7442C44.4211,164.9126,45.1241,164.52,45.4756,164.3386Z"/><path class="25e5fa3a-f2a8-4840-b55d-6cecdce54b26" d="M59.0672,170.0834a2.5981,2.5981,0,0,1,.3089.8293c0,.5217-.7167.7881-1.152.7881a1.1955,1.1955,0,0,1-1.152-.73,5.7263,5.7263,0,0,1-.2251-.6316.38.38,0,0,0-.3653-.2554c-.4352,0-.8856.0714-1.4046.0714-.1977,0-.324-.0714-.394.1675l-.2664.9721c-.2252.8265-.2814,1.5735-1.3634,1.5735-.45,0-1.1245-.2252-1.1245-.7744,0-.2115.5767-2.1364.6742-2.5154a18.31,18.31,0,0,1,2.6417-5.5086.972.972,0,0,1,1.3071-.3213C57.9577,164.4348,58.5056,168.68,59.0672,170.0834Zm-2.7681-1.601a.1332.1332,0,0,0,.1264-.1537,3.4007,3.4007,0,0,0-.07-.3653c-.0563-.4229-.1126-.8567-.2114-1.28-.0137-.0412-.0275-.14-.0975-.14-.0563,0-.0851.0714-.1126.1126a10.195,10.195,0,0,0-.6467,1.7.2013.2013,0,0,0,.2252.1977A3.63,3.63,0,0,0,56.2991,168.4824Z"/><path class="25e5fa3a-f2a8-4840-b55d-6cecdce54b26" d="M62.4311,163.6357c-.4916,0-1.152-.2389-1.152-.8293s.66-.8156,1.152-.8156,1.1519.2252,1.1519.8156S62.9226,163.6357,62.4311,163.6357Zm.1826,2.0238c.5052,0,1.1519.2389,1.1519.843,0,2.4577.0989,3.26.0989,5.7173,0,.6041-.6467.843-1.1533.843s-1.152-.2389-1.152-.843c0-2.4577-.0975-3.26-.0975-5.7173C61.4617,165.8984,62.107,165.66,62.6137,165.66Z"/><path class="25e5fa3a-f2a8-4840-b55d-6cecdce54b26" d="M68.0261,169.4518c-.0563-1.3758-.0563-2.7543-.1263-4.13a.3117.3117,0,0,0-.3378-.31c-.2952,0-.5766-.0137-.87-.0137-.5492,0-1.0682-.0137-1.0682-.7167,0-.7442.4216-.898,1.082-.898,1.5735,0,3.1469-.0851,4.7218-.0851a.91.91,0,0,1,.9405.9556c0,.519-.59.6893-1.0256.6893-.2252,0-.4353-.03-.66-.03-.21,0-.5053-.0138-.5053.2828,0,2.29.1963,4.5667.1963,6.8569,0,.6041-.66.8293-1.167.8293-.6179,0-1.1094-.2828-1.1094-.9556C68.0962,171.0967,68.0536,170.2811,68.0261,169.4518Z"/><path class="25e5fa3a-f2a8-4840-b55d-6cecdce54b26" d="M79.2863,172.08c-.4778.8842-2.22.983-3.1058.983h-.633c-1.3908,0-1.292-1.8124-1.362-2.7817-.0426-.5629-.0563-1.1231-.0563-1.6861a34.46,34.46,0,0,1,.2952-4.3552,1.1875,1.1875,0,0,1,.8431-1.0408,2.614,2.614,0,0,1,.8142-.0988c.2526,0,.52.0137.7867.0137.5629,0,1.1245.03,1.7286.03.4353,0,.9845.1813.9845.7167,0,.9557-2.0376.7991-2.6843.8431a.3614.3614,0,0,0-.3515.3075c-.0563.3378-.14,1.3785-.14,1.73a.29.29,0,0,0,.2938.3076h.7318c.28,0,.5616-.0275.8568-.0275.4641,0,1.0394.2115,1.0394.7717,0,.7744-1.0531.8293-1.601.8293h-.52c-.2815,0-.8568-.1126-.8568.324a19.6576,19.6576,0,0,0,.1263,2.0376v.0851c0,.1812-.0426.42.21.42.5629,0,1.0256-.4779,1.5886-.4779.4215,0,1.0956.2527,1.0956.7607A.603.603,0,0,1,79.2863,172.08Z"/><path class="25e5fa3a-f2a8-4840-b55d-6cecdce54b26" d="M84.939,163.1578c.449,0,1.0957.195,1.0957.758a.8263.8263,0,0,1-.59.73c-.1538.0577-.2952.0412-.449.0851-.5341.1264-.6329.8293-.6329,1.2769,0,1.6175.7455,3.136.7455,4.7507,0,1.42-.6893,2.0788-2.1227,2.0788-.5053,0-1.292-.1813-1.292-.8266,0-.6069.6179-.6893,1.0531-.7744.1414-.0274.1552-.1538.1552-.28,0-1.5735-.7868-3.2458-.7868-4.8907A2.6849,2.6849,0,0,1,84.939,163.1578Z"/><path class="25e5fa3a-f2a8-4840-b55d-6cecdce54b26" d="M100.4858,164.3386c.5052,1.5021,1.0256,4.3827,1.56,6.42.1263.4641.4078.5355.4078,1.14,0,.73-.45,1.038-1.1382,1.038-.7593,0-.9708-.28-1.1671-.8979-.449-1.4774-.7442-3.2761-1.1657-4.7232-.0426-.1264-.1414-.195-.1977-.0138-.3089.6756-.449,1.3346-.7717,2.0815a.8967.8967,0,0,1-.9418.4778,1.1655,1.1655,0,0,1-.239-.0164c-.6892-.11-.8993-.7167-1.1945-1.2632-.3226-.59-.59-1.222-.913-1.8261-.0563-.1126-.1978-.1566-.1978.0274-.0562.3241-.07.6591-.0974.9831-.07.8156-.1689,1.546-.2389,2.3479a12.24,12.24,0,0,1-.2815,1.741.9589.9589,0,0,1-.4916.7606,1.4607,1.4607,0,0,1-.6329.14c-.4778,0-1.1232-.2252-1.1232-.7881a1.1476,1.1476,0,0,1,.0275-.2115,9.007,9.007,0,0,0,.2664-1.5021c.1689-1.8261.45-5.0307,1.21-6.4642a1.1043,1.1043,0,0,1,1.0119-.5052,1.4055,1.4055,0,0,1,1.082.519,13.766,13.766,0,0,1,1.56,2.5867c.07.1538.1826.1676.2664,0a12.088,12.088,0,0,1,1.4472-2.5291,1.202,1.202,0,0,1,.7455-.2691A1.27,1.27,0,0,1,100.4858,164.3386Z"/><path class="25e5fa3a-f2a8-4840-b55d-6cecdce54b26" d="M111.4947,170.0834a2.5981,2.5981,0,0,1,.3089.8293c0,.5217-.7167.7881-1.152.7881a1.1953,1.1953,0,0,1-1.1519-.73,5.7067,5.7067,0,0,1-.2252-.6316.38.38,0,0,0-.3652-.2554c-.4353,0-.8856.0714-1.4046.0714-.1978,0-.3241-.0714-.3941.1675l-.2664.9721c-.2251.8265-.2814,1.5735-1.3634,1.5735-.45,0-1.1245-.2252-1.1245-.7744,0-.2115.5767-2.1364.6742-2.5154a18.31,18.31,0,0,1,2.6417-5.5086.972.972,0,0,1,1.3071-.3213C110.3853,164.4348,110.9331,168.68,111.4947,170.0834Zm-2.7681-1.601a.1332.1332,0,0,0,.1264-.1537,3.4007,3.4007,0,0,0-.07-.3653c-.0563-.4229-.1125-.8567-.2114-1.28-.0137-.0412-.0275-.14-.0975-.14-.0563,0-.0851.0714-.1126.1126a10.195,10.195,0,0,0-.6467,1.7.2013.2013,0,0,0,.2252.1977A3.63,3.63,0,0,0,108.7266,168.4824Z"/><path class="25e5fa3a-f2a8-4840-b55d-6cecdce54b26" d="M114.8586,163.6357c-.4916,0-1.152-.2389-1.152-.8293s.66-.8156,1.152-.8156,1.1519.2252,1.1519.8156S115.35,163.6357,114.8586,163.6357Zm.1826,2.0238c.5053,0,1.1519.2389,1.1519.843,0,2.4577.0989,3.26.0989,5.7173,0,.6041-.6467.843-1.1533.843s-1.152-.2389-1.152-.843c0-2.4577-.0975-3.26-.0975-5.7173C113.8892,165.8984,114.5345,165.66,115.0412,165.66Z"/><path class="25e5fa3a-f2a8-4840-b55d-6cecdce54b26" d="M122.9827,170.2674c0,1.87-1.8975,2.4165-3.4421,2.4165-.45,0-1.1383-.1538-1.1383-.7167a.85.85,0,0,1,.379-.6591c.5767-.4091,1.9524.0412,1.9524-.9281,0-1.3072-1.6146-3.26-1.6146-4.8633,0-1.6284,1.77-2.0513,3.0769-2.0513.4641,0,1.152.1565,1.152.7442a.9.9,0,0,1-.66.7606c-.3377.1126-1.3483,0-1.3483.4779C121.3392,166.4311,122.9827,168.6362,122.9827,170.2674Z"/><path class="25e5fa3a-f2a8-4840-b55d-6cecdce54b26" d="M128.7192,163.718a7.5566,7.5566,0,0,1,1.8413.2966,3.6617,3.6617,0,0,1,2.8655,3.71,4.4622,4.4622,0,0,1-4.2715,4.6079c-2.4728,0-3.9063-2.01-3.9063-4.3415C125.2482,165.94,126.4153,163.718,128.7192,163.718Zm1.3072,1.8426a2.4842,2.4842,0,0,0-.8582-.1263c-.1826,0-.35-.0576-.5327-.0576a.3588.3588,0,0,0-.2389.0714,3.2153,3.2153,0,0,0-.9145,2.4879,5.1481,5.1481,0,0,0,.07.9254c.1414.7167.7881,1.9387,1.6311,1.9387a1.0922,1.0922,0,0,0,.6179-.2087,3.4257,3.4257,0,0,0,1.42-2.8943A2.18,2.18,0,0,0,130.0264,165.5606Z"/><path class="25e5fa3a-f2a8-4840-b55d-6cecdce54b26" d="M140.6687,172.8541a3.1673,3.1673,0,0,1-.703-1.4059c-.2527-.6756-1.5735-4.6106-1.9538-4.7782-.0563,0-.07.0989-.0838.14a20.7263,20.7263,0,0,0-.2952,3.85c0,.9419.14,1.8976-1.1657,1.8976-.703,0-1.1382-.3378-1.1382-1.0682,0-.2664.0412-.519.0563-.7854a32.4338,32.4338,0,0,1,.6316-5.8189c.1125-.519.1826-.9831.7441-1.1808a1.3282,1.3282,0,0,1,.4641-.0824,2.0454,2.0454,0,0,1,.9419.2664c2.15,1.1369,2.8243,4.369,3.077,4.5255.0562-.0165.0562-.1126.0562-.1428.1827-1.1945.2678-2.4028.3515-3.5973.0426-.5053-.07-1.2083.379-1.56a1.3433,1.3433,0,0,1,.8156-.2526c.6879,0,1.1382.2828,1.1382,1,0,.4916-.0837.9694-.1263,1.4609a34.7652,34.7652,0,0,1-.843,5.775,5.1045,5.1045,0,0,1-.5067,1.5872,1.061,1.061,0,0,1-.94.45A1.4925,1.4925,0,0,1,140.6687,172.8541Z"/><path class="9def5ef7-b8f8-4f4c-a8a6-cef5391eb556" d="M435.5473,102.4249A28.8208,28.8208,0,0,1,410.3,87.5441a36.4511,36.4511,0,0,1-44.9089-2.595,32.9448,32.9448,0,0,1-22.7139,1.4032,33.4291,33.4291,0,0,1-6.0468-2.4289q-1.05,1.6313-2.1337,3.24a28.8232,28.8232,0,0,1-47.4928.5176A28.8269,28.8269,0,0,1,250.3814,43.92a109.9831,109.9831,0,0,1,38.3623-27.62,28.812,28.812,0,0,1,17.7806-1.5872,28.8239,28.8239,0,0,1,50.1442-.2183l.762,1.33q.4779-.1585.968-.3075c11.3206-3.4271,22.7551-.9268,31.9379,6.18,12.7925-10.575,28.1291-10.9512,39.7037-5.304,11.3961,5.558,16.479,15.4754,18.65,19.71l12.4808,24.34a28.8318,28.8318,0,0,1-25.6234,41.9815Z"/><path class="25e5fa3a-f2a8-4840-b55d-6cecdce54b26" d="M296.6537,41.3817a3.7592,3.7592,0,0,1,2.1227,3.5973,5.8371,5.8371,0,0,1-.563,2.4728c-.7579,1.5872-2.5,3.2459-4.3552,3.2459-.7167,0-1.097-.1827-1.28-.8994a16.0187,16.0187,0,0,1-.28-3.6673c0-.8.0274-1.6161.0562-2.4165a15.6845,15.6845,0,0,1,.07-2.01,1.0458,1.0458,0,0,1,1.0682-.703c.1675,0,.3226.0288.4915.0288.309,0,.6179-.0288.9268-.0288A4.3661,4.3661,0,0,1,296.6537,41.3817Zm-1.7424,7.1095a4.7009,4.7009,0,0,0,1.6449-3.541c0-1.152-.5066-2.36-1.8275-2.36-.1126,0-.0989.2526-.0989.3226,0,1.6161-.1675,3.2321-.0411,5.0033C294.5887,48.056,294.56,48.7164,294.9113,48.4912Z"/><path class="25e5fa3a-f2a8-4840-b55d-6cecdce54b26" d="M304.1064,50.375c-3.1332,0-3.1057-3.4847-3.1332-5.7763,0-.35,0-.7016-.0274-1.0531-.0152-.1689-.0563-.3515-.0563-.52,0-.5753.6315-.8293,1.1094-.8293,1.2782,0,1.3071.9693,1.3071,1.9538,0,1.0531-.1126,3.5685.5753,4.3841.2814.3652.5766-.0563.773-.3378a12.2471,12.2471,0,0,0,1.6586-5.4234c0-.4641-.14-1.152.2114-1.5172a1.2351,1.2351,0,0,1,.9131-.3666c1.3209,0,1.2357,1.1533,1.2357,2.1089a26.6709,26.6709,0,0,0,.3515,4.7356c.0851.3652.4641.589.4641.9556,0,.5479-.773.8142-1.2371.8142-.87,0-1.2357-.73-1.362-.73C306.7344,48.7727,305.9051,50.375,304.1064,50.375Z"/><path class="25e5fa3a-f2a8-4840-b55d-6cecdce54b26" d="M323.9425,41.7332c.5053,1.5034,1.0257,4.384,1.56,6.4216.1263.4627.4078.5341.4078,1.1383,0,.73-.45,1.0393-1.1383,1.0393-.7593,0-.9707-.2814-1.1671-.8993-.4489-1.476-.7441-3.2747-1.1656-4.7218-.0426-.1263-.1415-.1964-.1978-.0138-.3089.6742-.4489,1.3346-.7716,2.08a.8968.8968,0,0,1-.9419.4778,1.2634,1.2634,0,0,1-.2389-.0151c-.6893-.1112-.8993-.7167-1.1945-1.2646-.3227-.589-.59-1.222-.9131-1.8261-.0563-.1126-.1977-.1551-.1977.0275-.0563.324-.07.66-.0975.9844-.07.8142-.1689,1.546-.2389,2.3465a12.245,12.245,0,0,1-.2815,1.7424.9543.9543,0,0,1-.4915.7593,1.4413,1.4413,0,0,1-.633.14c-.4778,0-1.1231-.2252-1.1231-.7867a1.1116,1.1116,0,0,1,.0275-.2115,9.0067,9.0067,0,0,0,.2663-1.5034c.1689-1.8262.45-5.0308,1.21-6.4642a1.1072,1.1072,0,0,1,1.0119-.5053,1.4065,1.4065,0,0,1,1.0819.52,13.7561,13.7561,0,0,1,1.56,2.5854c.07.1538.1826.1689.2663,0a12.1233,12.1233,0,0,1,1.4472-2.5291,1.2086,1.2086,0,0,1,.7456-.2678A1.2685,1.2685,0,0,1,323.9425,41.7332Z"/><path class="25e5fa3a-f2a8-4840-b55d-6cecdce54b26" d="M334.9514,47.4793a2.5835,2.5835,0,0,1,.3089.8293c0,.52-.7167.7867-1.1519.7867a1.1955,1.1955,0,0,1-1.152-.73,5.5487,5.5487,0,0,1-.2252-.6316.38.38,0,0,0-.3652-.254c-.4352,0-.8856.0714-1.4046.0714-.1977,0-.324-.0714-.3941.1675l-.2663.9707c-.2252.828-.2815,1.5735-1.3634,1.5735-.45,0-1.1245-.2252-1.1245-.773,0-.2115.5766-2.1364.6741-2.5154a18.2817,18.2817,0,0,1,2.6417-5.5086.9712.9712,0,0,1,1.3071-.3226C333.842,41.8307,334.39,46.0747,334.9514,47.4793Zm-2.768-1.601a.1351.1351,0,0,0,.1263-.1551,3.4279,3.4279,0,0,0-.07-.3652c-.0563-.4216-.1126-.8568-.2115-1.2783-.0137-.0426-.0274-.1414-.0974-.1414-.0563,0-.0852.0714-.1126.1125a10.2112,10.2112,0,0,0-.6467,1.7012.2.2,0,0,0,.2252.1964A3.7184,3.7184,0,0,0,332.1834,45.8783Z"/><path class="25e5fa3a-f2a8-4840-b55d-6cecdce54b26" d="M342.6994,40.6224c.4215,0,1.2783.2389,1.2783.773,0,1.0257-1.6861.87-2.3465.9556a.27.27,0,0,0-.2664.2815c0,1.4609.0412,2.8243.14,4.2289.07,1.0682.1688,2.1639.1688,3.3159a1.0267,1.0267,0,0,1-1.1519,1.1533c-.5067,0-1.1946-.2389-1.1946-.843,0-2.22-.0714-4.37-.1126-6.6468a7.12,7.12,0,0,0-.0137-1.082.43.43,0,0,0-.4641-.3515c-.5629,0-1.9249.1126-1.9249-.7867,0-.7167.87-.8581,1.4046-.8581C339.7062,40.7625,341.1822,40.6224,342.6994,40.6224Z"/><path class="25e5fa3a-f2a8-4840-b55d-6cecdce54b26" d="M350.8963,49.4757c-.4778.8842-2.22.983-3.1057.983h-.633c-1.3909,0-1.292-1.8123-1.3621-2.7817-.0425-.5629-.0562-1.1245-.0562-1.6861a34.7264,34.7264,0,0,1,.2938-4.3566,1.19,1.19,0,0,1,.8444-1.0393,2.6115,2.6115,0,0,1,.8142-.0989c.2526,0,.52.0137.7867.0137.563,0,1.1245.0289,1.7287.0289.4352,0,.9844.1826.9844.7167,0,.9556-2.0375.8-2.6842.843a.3613.3613,0,0,0-.3515.3089c-.0563.3364-.14,1.3772-.14,1.7287a.291.291,0,0,0,.2939.3089h.7318c.28,0,.5615-.0288.8567-.0288.4641,0,1.0394.2114,1.0394.773,0,.773-1.0531.8293-1.6009.8293h-.52c-.2815,0-.8568-.1126-.8568.3227a19.6056,19.6056,0,0,0,.1264,2.0375v.0851c0,.1827-.0426.4216.21.4216.563,0,1.0257-.4778,1.5886-.4778.4215,0,1.0957.2526,1.0957.7592A.6044.6044,0,0,1,350.8963,49.4757Zm-1.9675-9.9352c-.52.2952-1.1245.8718-1.7424.4215-.703-.4916.449-1.0394.8-1.2371.52-.2952,1.1245-.8568,1.7424-.4215C350.4322,38.81,349.28,39.3441,348.9288,39.5405Z"/><path class="25e5fa3a-f2a8-4840-b55d-6cecdce54b26" d="M357.6722,46.5237c.4929.4929.8018,1.1245,1.2659,1.6448.28.309.7167.3378.8843.7731.254.6178-.6179.9968-1.1232.9968-1.5034,0-2.6279-2.444-2.9094-2.444-.07,0-.07.1126-.07.1538,0,.6041.0137,1.2233-.0138,1.8275a.993.993,0,0,1-.38.913,1.4624,1.4624,0,0,1-.8.2252.9614.9614,0,0,1-1.0819-1.0682c0-.773.0274-1.9113,0-2.7268-.0426-1.8124-.14-3.4147-.14-5.2271a.8263.8263,0,0,1,.0838-.4078c.3515-.66,1.8824-.9556,2.5579-.9556a3.0175,3.0175,0,0,1,3.2459,2.9657,3.84,3.84,0,0,1-1.5035,2.9794.2279.2279,0,0,0-.1126.1676A.26.26,0,0,0,357.6722,46.5237Zm-1.7-4.7342c-.1963,0-.449.0274-.449.2663l.0275,1.0257c.0137.633.0425,1.2783.0837,1.9112.0151.1126.0563.21.184.21a.331.331,0,0,0,.1112-.0274,2.1181,2.1181,0,0,0,1.0545-1.8262C356.9843,42.73,356.7317,41.79,355.9724,41.79Z"/><path class="25e5fa3a-f2a8-4840-b55d-6cecdce54b26" d="M362.0618,46.4825v-3.05c0-.59.6315-.8156,1.1231-.8156,1.1382,0,1.1671.7318,1.1671,1.6449,0,.843-.0426,1.1945-.0426,2.0376v3.5547c0,.59-.6316.8293-1.1382.8293-1.2646,0-1.1657-.9419-1.1657-1.8838C362.0055,48.0285,362.0618,47.2555,362.0618,46.4825Zm1.1794-5.1571c-1.4609,0-1.8124-1.9964.0563-1.9964C364.746,39.329,365.0824,41.3254,363.2412,41.3254Z"/><path class="25e5fa3a-f2a8-4840-b55d-6cecdce54b26" d="M371.423,50.4162a10.8071,10.8071,0,0,1-3.471.773c-1.5323,0-1.3771-.8568-1.3771-2.065,0-2.4317.3927-4.8619.4641-7.2935a.9563.9563,0,0,1,.2238-.6742,2.4834,2.4834,0,0,1,1.7149-.5341c.4078,0,.8-.0988,1.1945-.0988h.0838a1.3918,1.3918,0,0,1,.59-.1113c.45,0,1.1107.28,1.1107.8142,0,.8156-1.7423.9982-2.3327.9982-.1552,0-.3241-.0851-.3241.1538,0,.1977.0151.38,0,.5767-.0274.4215-.0412.843-.0837,1.2645-.0289.2952-.0852.6042-.0852.8994,0,.0988.0152.1963.1277.1963.21,0,.449-.14.7017-.14.4366,0,1.1107.2952,1.1107.8155,0,.6879-1.2508,1.152-1.7986,1.292a.4476.4476,0,0,0-.3515.379c-.0426.4641-.0426.9419-.0426,1.406a.26.26,0,0,0,.2526.2814c.59,0,1.0408-.4929,1.6161-.4929.4641,0,1.1671.2252,1.1671.7881A.9967.9967,0,0,1,371.423,50.4162Z"/><path class="25e5fa3a-f2a8-4840-b55d-6cecdce54b26" d="M379.0282,48.0985c.4641,0,1.1382.2527,1.1382.8,0,.703-.8993.8293-1.4334.8293-.843,0-1.7.0137-2.5428.0838-.3515.0288-.703.1125-1.0545.1125-.5341,0-1.0669-.2389-1.0669-.843a4.94,4.94,0,0,1,.07-.6467,22.9448,22.9448,0,0,0,.1537-3.1044c0-1.1108-.0563-2.22-.0563-3.3309,0-.6879.5067-.9982,1.1383-.9982.7593,0,1.1533.3377,1.1533,1.097,0,1.152.0412,2.3177.0412,3.471,0,.7868-.0837,1.56-.0837,2.3465,0,.14.1537.2238.2814.2238C377.5247,48.14,378.27,48.0985,379.0282,48.0985Z"/><path class="25e5fa3a-f2a8-4840-b55d-6cecdce54b26" d="M387.8306,40.665c2.7131,0,4.3992,2.2064,4.3992,4.8056a4.408,4.408,0,0,1-4.384,4.7067,4.6958,4.6958,0,0,1-.9845-.0975c-.5616-.1263-.9131-.3515-.9694-.9694-.0563-.6755-.1263-1.3359-.1963-2.01a27.2817,27.2817,0,0,1-.2526-3.0357,5.9782,5.9782,0,0,1,.1826-1.6573.7981.7981,0,0,0,.0837-.2952c0-.1826-.1126-.3226-.1126-.5066C385.5967,40.8339,387.2691,40.665,387.8306,40.665Zm.6193,7.8688c1.1657-.4778,1.56-1.925,1.56-3.077a3.5971,3.5971,0,0,0-1.1382-2.8531,1.5645,1.5645,0,0,0-.6893-.3227.8.8,0,0,0-.3652.3515,3.702,3.702,0,0,0-.1538,1.2357,38.8593,38.8593,0,0,0,.379,4.4267c.0137.1263.07.2952.2252.2952A.9641.9641,0,0,0,388.45,48.5338Z"/><path class="25e5fa3a-f2a8-4840-b55d-6cecdce54b26" d="M398.08,42.1959c-.3653,0-.7168-.0275-1.082-.0275a.2891.2891,0,0,0-.324.2952c-.0275.28-.0137.5616-.0275.8431-.0137.3226-.0425.66-.0425.9831,0,.1125.0425.2251.1688.2251.1689,0,.7868-.4352,1.3346-.4352.4641,0,1.082.2526,1.082.8,0,.8-1.7836,1.2082-2.4028,1.3908a.3337.3337,0,0,0-.2238.3241,23.6488,23.6488,0,0,0,.1538,2.43c.0137.1552-.0426.3378.1826.3378.3089,0,.6329-.0852.9419-.0852.4778,0,1.1657.2115,1.1657.8019,0,.8568-1.4884.8856-2.0788.8856s-1.7849,0-2.1639-.5067a2.3356,2.3356,0,0,1-.2252-1.0393,25.9339,25.9339,0,0,1-.1963-3.1346c0-1.4609.0837-2.9081.0975-4.369.0137-.6755.0425-1.2508.8018-1.2934.87-.0426,1.0957-.0274,2.2614-.0274a2.9867,2.9867,0,0,1,1.1671.14.7878.7878,0,0,1,.5341.6879C399.2048,41.9721,398.5292,42.1959,398.08,42.1959Z"/><path class="25e5fa3a-f2a8-4840-b55d-6cecdce54b26" d="M294.6861,57.5367c2.7131,0,4.3992,2.2064,4.3992,4.8056a4.408,4.408,0,0,1-4.3841,4.7067,4.6955,4.6955,0,0,1-.9844-.0975c-.5616-.1263-.9131-.3515-.9694-.9694-.0563-.6755-.1263-1.3359-.1963-2.01a27.2817,27.2817,0,0,1-.2526-3.0357,5.9782,5.9782,0,0,1,.1826-1.6573.7981.7981,0,0,0,.0837-.2952c0-.1826-.1126-.3226-.1126-.5066C292.4522,57.7056,294.1246,57.5367,294.6861,57.5367Zm.6193,7.8688c1.1657-.4778,1.56-1.925,1.56-3.077a3.5971,3.5971,0,0,0-1.1382-2.8531,1.5579,1.5579,0,0,0-.6893-.3227.8.8,0,0,0-.3652.3515,3.702,3.702,0,0,0-.1538,1.2357,38.8593,38.8593,0,0,0,.379,4.4267c.0137.1263.07.2952.2252.2952A.9641.9641,0,0,0,295.3054,65.4055Z"/><path class="25e5fa3a-f2a8-4840-b55d-6cecdce54b26" d="M304.9358,59.0676c-.3653,0-.7168-.0275-1.082-.0275a.2891.2891,0,0,0-.324.2952c-.0275.28-.0137.5616-.0275.8431-.0137.3226-.0425.66-.0425.9831,0,.1125.0425.2251.1688.2251.1689,0,.7868-.4352,1.3346-.4352.4641,0,1.082.2526,1.082.8,0,.8-1.7836,1.2082-2.4028,1.3908a.3337.3337,0,0,0-.2238.3241,23.6769,23.6769,0,0,0,.1537,2.43c.0138.1552-.0425.3378.1827.3378.3089,0,.6329-.0851.9418-.0851.4779,0,1.1657.2114,1.1657.8018,0,.8568-1.4883.8856-2.0787.8856s-1.7849,0-2.1639-.5066a2.3363,2.3363,0,0,1-.2252-1.0394,25.9339,25.9339,0,0,1-.1963-3.1346c0-1.4609.0837-2.9081.0975-4.369.0137-.6755.0425-1.2508.8018-1.2934.8705-.0425,1.0957-.0274,2.2614-.0274a2.9888,2.9888,0,0,1,1.1671.14.7878.7878,0,0,1,.5341.6879C306.06,58.8438,305.3847,59.0676,304.9358,59.0676Z"/><path class="25e5fa3a-f2a8-4840-b55d-6cecdce54b26" d="M312.7661,57.7056c-.5053.843-2.0238.1112-2.0238,2.065,0,2.3753,1.9826,4.6092,1.9826,6.8857,0,1.7-1.3359,2.4165-2.882,2.4165-.5478,0-1.6709-.0425-1.6709-.8142,0-.6467.7167-.8293,1.2357-.8293.5066,0,.9982.1126.9982-.59,0-2.1364-1.9676-4.5529-1.9676-7.0683a3.54,3.54,0,0,1,3.3022-3.2033C312.302,56.5673,313.16,57.0589,312.7661,57.7056Z"/><path class="25e5fa3a-f2a8-4840-b55d-6cecdce54b26" d="M319.5708,64.5336c0,1.87-1.8975,2.4179-3.4422,2.4179-.45,0-1.1382-.1552-1.1382-.7167a.85.85,0,0,1,.379-.66c.5766-.4078,1.9524.0425,1.9524-.9282,0-1.3058-1.6147-3.26-1.6147-4.8619,0-1.63,1.77-2.0513,3.077-2.0513.464,0,1.1519.1552,1.1519.7442a.9.9,0,0,1-.66.7593c-.3378.1126-1.3483,0-1.3483.4778C317.9273,60.6974,319.5708,62.9038,319.5708,64.5336Z"/><path class="25e5fa3a-f2a8-4840-b55d-6cecdce54b26" d="M322.2578,60.4873c.0851-.4352.5616-.59.9556-.59.52,0,1.1946.2677,1.1946.8719,0,1.1519-.1263,2.135-.1263,3.2884a3.1813,3.1813,0,0,0,.0837,1.3057.5259.5259,0,0,1,.07.254,1.2174,1.2174,0,0,1-.0837.379,1.0782,1.0782,0,0,1-1.1108.703c-.9694,0-1.1932-.563-1.1932-1.42,0-.2252.0138-.45.0138-.6742A21.2806,21.2806,0,0,1,322.2578,60.4873Zm-.0837-2.6554a.9947.9947,0,0,1,1.1094-.8993c.5478,0,1.1245.2952,1.1245.8993,0,.6178-.5767.913-1.1245.913A.9959.9959,0,0,1,322.1741,57.8319Z"/><path class="25e5fa3a-f2a8-4840-b55d-6cecdce54b26" d="M331.928,67.12a3.1692,3.1692,0,0,1-.703-1.406c-.2526-.6741-1.5735-4.6092-1.9538-4.7781-.0563,0-.07.0988-.0837.1414a20.7175,20.7175,0,0,0-.2952,3.85c0,.9419.14,1.8975-1.1657,1.8975-.703,0-1.1383-.3378-1.1383-1.0682,0-.2678.0412-.52.0563-.7868a32.4414,32.4414,0,0,1,.6316-5.8175c.1126-.52.1826-.9844.7442-1.1808a1.2976,1.2976,0,0,1,.4641-.0837,2.0623,2.0623,0,0,1,.9419.2663c2.15,1.1383,2.8243,4.37,3.0769,4.5255.0563-.0151.0563-.1126.0563-.1414.1826-1.1945.2677-2.4028.3515-3.5973.0426-.5053-.07-1.2083.379-1.56a1.3341,1.3341,0,0,1,.8155-.2526c.6879,0,1.1383.2815,1.1383.9982,0,.4915-.0838.9693-.1264,1.4609a34.7123,34.7123,0,0,1-.843,5.7749,5.1083,5.1083,0,0,1-.5066,1.5886,1.063,1.063,0,0,1-.9406.449A1.4841,1.4841,0,0,1,331.928,67.12Z"/><path class="25e5fa3a-f2a8-4840-b55d-6cecdce54b26" d="M340.8733,62.989a6.2185,6.2185,0,0,1,1.1231-3.57,4.0259,4.0259,0,0,1,3.401-1.7286c.6329,0,2.0238.1414,2.0238,1.0256,0,.45-.633.7456-1.0256.7456s-.7305-.2252-1.1108-.2252a.5849.5849,0,0,0-.1538.0137c-1.406.2815-2.0527,2.5854-2.0527,3.8362,0,.8156.31,2.2491,1.3634,2.2491.6042,0,1.1383-.3653,1.7287-.3653.4352,0,1.0819.2389,1.0819.7579v.0563c-.0837.563-.6467.703-1.1108.8431a6.1747,6.1747,0,0,1-1.6709.2677C342.0953,66.8952,340.8733,65.25,340.8733,62.989Z"/><path class="25e5fa3a-f2a8-4840-b55d-6cecdce54b26" d="M352.3023,65.054c.449,0,.8993-.1263,1.3483-.1263.4215,0,1.2646.2663,1.2646.7867,0,.9282-2.0513.9419-2.6692.9419a5.326,5.326,0,0,1-2.3753-.3941.923.923,0,0,1-.3364-.8,58.2339,58.2339,0,0,1,.6879-6.0427c.0425-.4641-.0275-1.152.3226-1.5035a1.35,1.35,0,0,1,.9145-.3226c.59,0,1.1382.28,1.1382.94a8.9654,8.9654,0,0,1-.1414,1.0545,45.9089,45.9089,0,0,0-.6179,5.1433C351.8382,65.04,352.0634,65.054,352.3023,65.054Z"/><path class="25e5fa3a-f2a8-4840-b55d-6cecdce54b26" d="M362.9432,60.6c.2952,1.7561.4641,3.541.8431,5.2834a6.0437,6.0437,0,0,1,.2952,1.2371c0,.6041-.6467.8567-1.1657.8567-1.8413,0-.9282-2.4316-1.8413-2.4316h-1.42c-.7167,0-.6467,1.9538-2.0224,1.9538-.4778,0-1.1671-.2526-1.1671-.8293,0-.4915.633-1.1657.633-1.7423,0-.2815-.0426-.3653.1538-.6179a3.7838,3.7838,0,0,0,.5341-1.3359c.394-1.2495,1.5171-5.0583,2.768-5.5072a1.7108,1.7108,0,0,1,.5341-.0989C362.438,57.3678,362.7744,59.588,362.9432,60.6Zm-2.7817,2.319a4.1706,4.1706,0,0,0-.2252.7579.24.24,0,0,0,.2526.2389h.6179a.2585.2585,0,0,0,.2677-.2663,21.19,21.19,0,0,0-.3652-2.2353A10.0431,10.0431,0,0,0,360.1615,62.9189Z"/><path class="25e5fa3a-f2a8-4840-b55d-6cecdce54b26" d="M370.5649,64.5336c0,1.87-1.8975,2.4179-3.4422,2.4179-.45,0-1.1382-.1552-1.1382-.7167a.85.85,0,0,1,.3789-.66c.5767-.4078,1.9525.0425,1.9525-.9282,0-1.3058-1.6147-3.26-1.6147-4.8619,0-1.63,1.77-2.0513,3.0769-2.0513.4641,0,1.152.1552,1.152.7442a.9.9,0,0,1-.66.7593c-.3378.1126-1.3483,0-1.3483.4778C368.9214,60.6974,370.5649,62.9038,370.5649,64.5336Z"/><path class="25e5fa3a-f2a8-4840-b55d-6cecdce54b26" d="M377.3408,57.7893a6.9116,6.9116,0,0,1,.773.0426.8571.8571,0,0,1,.7867.7867c0,.5479-.6179.7442-1.0682.7442a3.1211,3.1211,0,0,0-1.1369.07,1.1028,1.1028,0,0,0-.6192,1.1534c0,1.8124,1.6723,2.4865,1.6723,4.06a2.369,2.369,0,0,1-2.5991,2.15c-.633,0-2.1076-.3089-2.1076-1.1382,0-.519.28-1.0256.7167-1.0256.5616,0,.87.6178,1.3772.59.2663-.0138.4215-.379.4215-.6042,0-.5615-1.0545-1.7849-1.336-2.389a4.1261,4.1261,0,0,1-.3515-1.6435C373.87,58.5486,375.5009,57.7893,377.3408,57.7893Z"/><path class="25e5fa3a-f2a8-4840-b55d-6cecdce54b26" d="M381.0836,63.3542v-3.05c0-.59.6316-.8156,1.1231-.8156,1.1383,0,1.1671.7318,1.1671,1.6449,0,.843-.0425,1.1945-.0425,2.0376v3.5547c0,.59-.6316.8293-1.1383.8293-1.2645,0-1.1657-.9419-1.1657-1.8838C381.0273,64.9,381.0836,64.1272,381.0836,63.3542Zm1.1794-5.1571c-1.4609,0-1.8124-1.9964.0563-1.9964C383.7679,56.2007,384.1043,58.1971,382.263,58.1971Z"/><path class="25e5fa3a-f2a8-4840-b55d-6cecdce54b26" d="M389.3767,68.0472c-2.6417,0-3.7937-2.1914-3.7937-4.58,0-2.53,1.152-5.959,4.0751-6.2542a11.91,11.91,0,0,1,1.63-.1537c2.5,0,3.1758,2.4165,3.1758,4.4678a7.5789,7.5789,0,0,1-1.5185,4.7781,5.8187,5.8187,0,0,1-.9268.8568.3031.3031,0,0,0-.1264.254c0,.3089.2664.66.2664,1.0256,0,.5616-.6316.773-1.0957.773-1.4334,0-.913-1.1808-1.42-1.1808C389.5593,68.0334,389.46,68.0472,389.3767,68.0472Zm-.2678-8.7256a6.5445,6.5445,0,0,0-1.292,4.1589c0,.73.2815,2.5991,1.0957,2.8806.0137,0,.07.0137.0851.0137a.126.126,0,0,0,.1263-.1263c0-.4352-.6329-.9831-.6329-1.42,0-.519.7455-.7442,1.167-.7442,1.152,0,1.1932,1.1808,1.4884,1.1808.0714,0,.0989-.0425.1414-.0988,1.1657-1.6724,1.49-4.4541.0975-6.029A1.9319,1.9319,0,0,0,389.1089,59.3216Z"/><path class="25e5fa3a-f2a8-4840-b55d-6cecdce54b26" d="M404.2781,61.2315c-.449,2.5305-1.4609,4.8619-4.4129,4.8619A2.9581,2.9581,0,0,1,397.126,64.45a10.4214,10.4214,0,0,1-.5341-4.4679c0-.8293.2664-1.3208,1.1945-1.3208.8,0,1.152.3652,1.152,1.1657,0,.3226-.0563.66-.0563.9982,0,.843-.0988,3.6385,1.1657,3.6385,1.3923,0,2.109-3.3722,2.109-4.44,0-.9268-.0714-1.8124,1.1657-1.8124.66,0,1.167.2815,1.167.9982A12.1738,12.1738,0,0,1,404.2781,61.2315Z"/><path class="25e5fa3a-f2a8-4840-b55d-6cecdce54b26" d="M411.76,66.3474c-.4778.8842-2.22.9831-3.1058.9831h-.6329c-1.3909,0-1.2921-1.8124-1.3621-2.7818-.0426-.5629-.0563-1.1245-.0563-1.6861a34.7264,34.7264,0,0,1,.2938-4.3566,1.19,1.19,0,0,1,.8445-1.0393,2.6111,2.6111,0,0,1,.8142-.0989c.2526,0,.52.0137.7867.0137.5629,0,1.1245.0289,1.7286.0289.4353,0,.9845.1826.9845.7167,0,.9556-2.0376.8-2.6843.843a.3614.3614,0,0,0-.3515.3089c-.0563.3364-.14,1.3772-.14,1.7287a.291.291,0,0,0,.2938.3089h.7318c.28,0,.5616-.0288.8568-.0288.4641,0,1.0394.2114,1.0394.773,0,.773-1.0531.8293-1.601.8293h-.52c-.2815,0-.8568-.1126-.8568.3227a19.6333,19.6333,0,0,0,.1263,2.0375v.0852c0,.1826-.0425.4215.21.4215.5629,0,1.0256-.4778,1.5886-.4778.4215,0,1.0956.2526,1.0956.7592A.604.604,0,0,1,411.76,66.3474Z"/></g></svg>