<svg xmlns="http://www.w3.org/2000/svg" width="300" height="300" viewBox="0 0 300 300"><defs><style>.\30 4a77b69-3daf-468c-b6d3-385fe5a5218f{fill:#f7d5d4;}.e072cdba-307d-4827-8c2c-6e656ac9c0b8{fill:#df6762;}.ef23e37e-5fad-4853-a9c1-8fcd1dd2bc08{fill:#e1dd76;}.\39 67cfe74-9247-482a-a968-23dabe0e37c8{fill:#08795b;}</style></defs><title>Outils</title><g id="62bcc43d-6d14-4c24-abc5-eeef84be06b2" data-name="Dessins"><path class="04a77b69-3daf-468c-b6d3-385fe5a5218f" d="M114.6125,264.7812a14.82,14.82,0,0,1-13.7777-9.3522l-1.0626-2.6747q-1.1471,1.0341-2.2152,2.1476a14.8216,14.8216,0,1,1-21.4-20.5123,73.0088,73.0088,0,0,1,25.4258-17.15,14.8217,14.8217,0,0,1,13.461,1.2611q.4044-1.02.7876-2.0475a14.8219,14.8219,0,0,1,26.5258-2.5637l3.2839,5.3608a19.6566,19.6566,0,0,1,5.18-2.3068c7.7721-2.1983,15.5466.5223,21.1,6.9133,7.0224-7.8843,16.6876-10.6482,25.3884-6.6787,6.4621,2.9479,9.4511,8.4,10.887,11.0209l2.6277,4.7934a14.824,14.824,0,0,1-22.17,18.7719c-4.7083,5.6974-11.8489,10.7537-21.7282,8.6555a20.6616,20.6616,0,0,1-11.8688-7.2992,17.9435,17.9435,0,0,1-15.5556,2.8243,18.7632,18.7632,0,0,1-8.0091-4.5582q-2.304,3.6837-4.844,7.22A14.8239,14.8239,0,0,1,114.6125,264.7812Z"/><path class="e072cdba-307d-4827-8c2c-6e656ac9c0b8" d="M99.0786,243.8442c-.5765,1.0687-2.68,1.1875-3.7482,1.1875h-.7635c-1.679,0-1.56-2.188-1.6452-3.3586-.0513-.6785-.0682-1.3569-.0682-2.0354A41.8575,41.8575,0,0,1,93.21,234.38a1.4393,1.4393,0,0,1,1.0175-1.2556,3.2122,3.2122,0,0,1,.9842-.1188c.3052,0,.6272.0175.95.0175.6785,0,1.3569.0337,2.0861.0337.5259,0,1.1875.22,1.1875.8649,0,1.1537-2.4594.9667-3.24,1.018a.4365.4365,0,0,0-.424.3733c-.0682.4065-.1695,1.6621-.1695,2.0861a.3521.3521,0,0,0,.3558.3733H96.84c.3389,0,.6784-.0344,1.0343-.0344.56,0,1.2556.2545,1.2556.933,0,.933-1.2725,1.0011-1.9341,1.0011h-.6272c-.34,0-1.0349-.1356-1.0349.39a23.7509,23.7509,0,0,0,.1525,2.46v.1013c0,.2207-.0506.509.2545.509.6785,0,1.2382-.5766,1.9167-.5766.509,0,1.3232.3052,1.3232.9161A.72.72,0,0,1,99.0786,243.8442Z"/><path class="e072cdba-307d-4827-8c2c-6e656ac9c0b8" d="M108.4242,244.7772a3.815,3.815,0,0,1-.848-1.6959c-.3058-.8141-1.9-5.5635-2.3581-5.7673-.0675,0-.0844.1188-.1013.17a24.9683,24.9683,0,0,0-.3564,4.6475c0,1.1362.1694,2.29-1.4082,2.29-.848,0-1.3739-.4071-1.3739-1.2894,0-.3221.0513-.6278.0682-.95a39.259,39.259,0,0,1,.7629-7.0224c.1363-.6272.2207-1.1869.8992-1.4245a1.5532,1.5532,0,0,1,.56-.1019,2.4983,2.4983,0,0,1,1.1369.3226c2.5951,1.3739,3.4093,5.2747,3.7144,5.4616.0682-.0168.0682-.1357.0682-.17.22-1.4414.322-2.9.4239-4.3423.0507-.61-.085-1.4583.4578-1.8822a1.6079,1.6079,0,0,1,.9836-.3058c.8311,0,1.3739.34,1.3739,1.2044,0,.594-.1013,1.1706-.1526,1.764a41.8759,41.8759,0,0,1-1.0174,6.9718,6.175,6.175,0,0,1-.611,1.9166,1.2843,1.2843,0,0,1-1.1362.5428A1.7912,1.7912,0,0,1,108.4242,244.7772Z"/><path class="e072cdba-307d-4827-8c2c-6e656ac9c0b8" d="M124.0786,240.5875a17.219,17.219,0,0,0,1.3232-4.2234c.0682-.3389.1188-.6954.1526-1.0343a2.3736,2.3736,0,0,1,.1695-.9161,1.402,1.402,0,0,1,1.2212-.5766c.5772,0,1.34.2883,1.34.9668,0,.2032-.0507.39-.0676.5934-.0512.4071-.1019.7973-.17,1.2044a18.1788,18.1788,0,0,1-2.3913,6.3608,2.6088,2.6088,0,0,1-1.34,1.2551,1.6284,1.6284,0,0,1-.4921.0681c-1.1024,0-1.764-1.1875-2.1536-2.07a45.6918,45.6918,0,0,1-1.5777-4.6643c-.1188-.3733-.2376-.7467-.3733-1.1025s-.509-.6616-.509-1.0518c0-.6272.73-.9667,1.2725-.9667a1.8328,1.8328,0,0,1,.9836.2714,2.886,2.886,0,0,1,.9837,1.679c.3057.8992.5771,1.8153.8485,2.7139.1526.4921.3052,1.0011.4915,1.4758.0169.0512.0682.1525.1357.1525C124.0111,240.7232,124.0449,240.6388,124.0786,240.5875Z"/><path class="e072cdba-307d-4827-8c2c-6e656ac9c0b8" d="M130.5745,239.4344c0-2.5951,1.4921-5.4278,4.2235-5.8861a10.6354,10.6354,0,0,1,1.6452-.1526c2.7984,0,4.2235,1.8828,4.2235,4.563,0,3.2567-2.0017,6.14-5.4616,6.14A4.3628,4.3628,0,0,1,130.5745,239.4344Zm2.7139-.1019c0,1.2719.424,2.85,1.9673,2.85,1.8322,0,2.7139-2.612,2.7139-4.1384,0-.6785-.2713-2.5782-1.1706-2.5782-.2032,0-.39.0506-.5934.0506-.2376,0-.4746-.0506-.7122-.0506C134.0514,235.4655,133.2884,238.1794,133.2884,239.3325Z"/><path class="e072cdba-307d-4827-8c2c-6e656ac9c0b8" d="M149.435,244.3026c0,.78-1.0174,1.0174-1.6283,1.0174-.95,0-1.9-.22-2.85-.2714a2.683,2.683,0,0,1-1.6959-.39.9533.9533,0,0,1-.3058-.78c0-.39.1188-.7635.1526-1.1537a40.3642,40.3642,0,0,0,.2889-4.2916,12.6528,12.6528,0,0,0-.3733-3.2905,1.3074,1.3074,0,0,1-.0338-.2545c0-.7122.8311-1.0174,1.4245-1.0174a1.557,1.557,0,0,1,1.018.3221c.5935.509.7629,3.24.7629,4.0539,0,1.5265-.22,3.0022-.3051,4.5118v.1019C145.89,243.726,149.435,242.6742,149.435,244.3026Z"/><path class="e072cdba-307d-4827-8c2c-6e656ac9c0b8" d="M160.85,237.67c-.5428,3.0528-1.7641,5.8687-5.3259,5.8687a3.5744,3.5744,0,0,1-3.308-1.9842c-.78-1.5946-.6441-3.6644-.6441-5.3941,0-1.0011.322-1.5945,1.4414-1.5945.9667,0,1.3907.4408,1.3907,1.4076,0,.39-.0675.7973-.0675,1.2044,0,1.018-.1188,4.3935,1.4076,4.3935,1.68,0,2.5444-4.0709,2.5444-5.36,0-1.1193-.085-2.188,1.4077-2.188.7972,0,1.4082.3389,1.4082,1.2044A14.73,14.73,0,0,1,160.85,237.67Z"/><path class="e072cdba-307d-4827-8c2c-6e656ac9c0b8" d="M174.3,234.4987c.61,1.8147,1.2382,5.2916,1.8829,7.7516.1526.56.4915.6441.4915,1.3738,0,.8817-.5428,1.255-1.3738,1.255-.9161,0-1.17-.3389-1.4077-1.0855-.5427-1.7809-.8992-3.9521-1.4082-5.6992-.0506-.1526-.1694-.2377-.237-.0169-.3733.8141-.5428,1.6114-.933,2.51a1.0805,1.0805,0,0,1-1.1362.5772,1.6018,1.6018,0,0,1-.2889-.0175c-.831-.1351-1.0855-.8648-1.4414-1.5264-.39-.7123-.7122-1.4758-1.1024-2.2049-.0682-.1357-.2376-.1864-.2376.0338-.0682.39-.0851.7972-.1189,1.1874-.085.9837-.2038,1.866-.2882,2.8328a14.6661,14.6661,0,0,1-.34,2.103,1.1494,1.1494,0,0,1-.5934.916,1.7251,1.7251,0,0,1-.7635.1695c-.5766,0-1.357-.2714-1.357-.95a1.3108,1.3108,0,0,1,.0344-.2539,10.9767,10.9767,0,0,0,.322-1.8153c.2039-2.2049.5428-6.0725,1.4589-7.8022a1.3342,1.3342,0,0,1,1.2213-.6109,1.6983,1.6983,0,0,1,1.3057.6278,16.5845,16.5845,0,0,1,1.8828,3.121c.0851.1864.2208.2033.3227,0a14.67,14.67,0,0,1,1.7465-3.0534,1.46,1.46,0,0,1,.8993-.3221A1.53,1.53,0,0,1,174.3,234.4987Z"/><path class="e072cdba-307d-4827-8c2c-6e656ac9c0b8" d="M183.73,235.0584c-.4415,0-.8655-.0344-1.3063-.0344a.3479.3479,0,0,0-.39.3564c-.0338.339-.0169.6785-.0338,1.0181-.0169.39-.0513.7966-.0513,1.1869,0,.1356.0513.2713.2039.2713.2038,0,.95-.5259,1.6115-.5259.56,0,1.3063.3058,1.3063.9674,0,.9668-2.1543,1.4583-2.9009,1.679a.4026.4026,0,0,0-.2714.39,28.352,28.352,0,0,0,.1869,2.9341c.0169.1869-.0512.407.22.407.3733,0,.7635-.1013,1.1368-.1013.5766,0,1.4076.2539,1.4076.9668,0,1.0343-1.7978,1.0687-2.5107,1.0687s-2.1536,0-2.6119-.611a2.8219,2.8219,0,0,1-.2714-1.255,31.2507,31.2507,0,0,1-.2377-3.7826c0-1.764.102-3.5112.1189-5.2752.0168-.8142.0512-1.51.9667-1.56,1.0518-.0513,1.3232-.0344,2.7308-.0344a3.6088,3.6088,0,0,1,1.4082.17.95.95,0,0,1,.6447.8311C185.0868,234.787,184.2727,235.0584,183.73,235.0584Z"/><path class="ef23e37e-5fad-4853-a9c1-8fcd1dd2bc08" d="M119.9029,178.66a17.5789,17.5789,0,0,1-14.3024-7.5652,23.2312,23.2312,0,0,1-3.8422-9.3547,47.9334,47.9334,0,0,1-.5178-12.5361,24.8025,24.8025,0,0,1-19.9539-2.5775,14.27,14.27,0,0,1-6.5413-13.9174,51.556,51.556,0,0,1,8.4675-21.6772q-.5382-.1959-1.0644-.4369a14.2694,14.2694,0,0,1-8.1016-10.4588c-1.6561-9.257,2.9039-16.488,6.8347-21.0736a14.275,14.275,0,0,1-2.9989-17.131,43.9542,43.9542,0,0,1,30.69-22.681,14.2693,14.2693,0,0,1,14.9613,6.8856,29.0327,29.0327,0,0,1,11.4687-6.9181,14.27,14.27,0,0,1,17.2337,7.753,50.8015,50.8015,0,0,1,9.8757-9.18,14.2693,14.2693,0,0,1,22.1635,8.8947c2.2614,11.2883-1.1327,21.6405-5.7089,30.0746a110.48,110.48,0,0,1,21.1026-10.1537,14.2693,14.2693,0,0,1,19.0237,13.4627c-.0088,14.9275-9.2489,26.352-15.3634,33.9118L192.6784,127.15a19.5567,19.5567,0,0,1,2.8376.5466,14.2711,14.2711,0,0,1,.1025,27.5243c-.0105.0377-.0211.0746-.0311.1113a46.9533,46.9533,0,0,1-2.1176,6.2961c-4.0864,9.4205-12.9723,15.1552-22.1045,14.27a21.76,21.76,0,0,1-15.5031-9.3665,30.3667,30.3667,0,0,1-5.5713-16.7479c-4.5883,8.3632-9.8361,17.75-18.9471,24.7131a19.0794,19.0794,0,0,1-10.0772,4.1076Q120.5826,178.66,119.9029,178.66Z"/><path class="967cfe74-9247-482a-a968-23dabe0e37c8" d="M95.3441,94.2278a.6018.6018,0,0,1,.6055-.6054.6022.6022,0,0,1,.4345.1757.5773.5773,0,0,1,.1817.43v6.4893a.5757.5757,0,0,1-.1817.43.6022.6022,0,0,1-.4345.1757.6018.6018,0,0,1-.6055-.6054Z"/><path class="967cfe74-9247-482a-a968-23dabe0e37c8" d="M102.9564,98.43a.5056.5056,0,0,1-.1592.39.594.594,0,0,1-.4238.1494H98.8753a1.3332,1.3332,0,0,0,.3741.7256,1.5486,1.5486,0,0,0,1.0293.4893,1.6106,1.6106,0,0,0,1.1709-.27.5761.5761,0,0,1,.44-.1757.46.46,0,0,1,.3848.1425.4934.4934,0,0,1,0,.7159,2.75,2.75,0,0,1-1.9414.72,2.5793,2.5793,0,0,1-1.9248-.8086,2.78,2.78,0,0,1,0-3.877,2.5018,2.5018,0,0,1,1.875-.8086,2.5786,2.5786,0,0,1,1.8535.7208,2.6563,2.6563,0,0,1,.8193,1.831Zm-2.65-1.5625a1.5553,1.5553,0,0,0-1.0234.3965,1.4318,1.4318,0,0,0-.4619.77h3.1132a1.5013,1.5013,0,0,0-.5341-.7481A1.9067,1.9067,0,0,0,100.306,96.8675Z"/><path class="967cfe74-9247-482a-a968-23dabe0e37c8" d="M108.1048,96.428a.5651.5651,0,0,1,.2481.3682.6133.6133,0,0,1-.0723.4453.579.579,0,0,1-.8135.1543,2.0023,2.0023,0,0,0-1.0175-.4072,1.03,1.03,0,0,0-.6543.1982c-.1182.08-.1768.1524-.1768.2139a.2642.2642,0,0,0,.0283.1377.3627.3627,0,0,0,.1153.1,2.1785,2.1785,0,0,0,.8027.2637l.0107.0107h.0118a4.6479,4.6479,0,0,1,1.0664.33,1.5411,1.5411,0,0,1,.7148.6054,1.4679,1.4679,0,0,1,.2315.7588,1.5234,1.5234,0,0,1-.6934,1.2754,2.4536,2.4536,0,0,1-1.43.44,3.1459,3.1459,0,0,1-1.958-.7587.5591.5591,0,0,1-.2031-.3907.5918.5918,0,0,1,.5224-.6435.5519.5519,0,0,1,.4288.1318,1.8319,1.8319,0,0,0,1.21.4844,1.3744,1.3744,0,0,0,.7481-.209c.1318-.11.1982-.2041.1982-.28a.285.285,0,0,0-.0332-.16.3689.3689,0,0,0-.1426-.1319,2.3814,2.3814,0,0,0-.8808-.3076h-.0108a4.0889,4.0889,0,0,1-1.0176-.3193,1.7138,1.7138,0,0,1-.6982-.6055,1.3029,1.3029,0,0,1-.1875-.6924,1.4778,1.4778,0,0,1,.6494-1.21,2.3454,2.3454,0,0,1,1.3584-.4073A2.9528,2.9528,0,0,1,108.1048,96.428Z"/><path class="967cfe74-9247-482a-a968-23dabe0e37c8" d="M114.0013,101.3225l-.11-.0107a.6575.6575,0,0,1-.3408-.209.54.54,0,0,1-.1319-.3633V96.4163a.5754.5754,0,0,1,.17-.4229.56.56,0,0,1,.4131-.1709.5257.5257,0,0,1,.5274.33,2.2909,2.2909,0,0,1,1.1767-.33,2.2013,2.2013,0,0,1,1.7276.7588,2.0877,2.0877,0,0,1,1.6611-.7588,2.2712,2.2712,0,0,1,1.6826.6768,2.2342,2.2342,0,0,1,.6709,1.6328V100.74a.5816.5816,0,0,1-.583.583.5786.5786,0,0,1-.418-.1708.5528.5528,0,0,1-.1757-.4122V98.1321a1.0945,1.0945,0,0,0-.33-.8027,1.0748,1.0748,0,0,0-.7862-.33,1.0943,1.0943,0,0,0-.7871.3193,1.1235,1.1235,0,0,0-.3515.7813v2.64a.5592.5592,0,0,1-.1709.4122.5522.5522,0,0,1-.4063.1708.5807.5807,0,0,1-.4179-.1757.5507.5507,0,0,1-.1817-.4073V98.1a1.14,1.14,0,0,0-1.1279-1.1006,1.0731,1.0731,0,0,0-.7861.33,1.0907,1.0907,0,0,0-.33.8027V100.74l-.0108.0772v.0332l-.0332.0654v.0557A.5789.5789,0,0,1,114.0013,101.3225Z"/><path class="967cfe74-9247-482a-a968-23dabe0e37c8" d="M124.0492,100.52a2.8868,2.8868,0,0,1,0-3.8887,2.446,2.446,0,0,1,1.8642-.8086,2.4814,2.4814,0,0,1,1.4639.4844.6783.6783,0,0,1,.209-.3467.5467.5467,0,0,1,.3789-.1377.5375.5375,0,0,1,.3965.1758.5814.5814,0,0,1,.17.418V100.74a.5617.5617,0,0,1-.17.4122.5435.5435,0,0,1-.3965.1708.5612.5612,0,0,1-.3789-.1318.65.65,0,0,1-.209-.3408,2.4893,2.4893,0,0,1-1.4639.4726A2.4539,2.4539,0,0,1,124.0492,100.52Zm.4238-1.9414a1.6182,1.6182,0,0,0,.4014,1.1162,1.3208,1.3208,0,0,0,1.0342.4512,1.3559,1.3559,0,0,0,1.0449-.4512,1.5878,1.5878,0,0,0,.4121-1.1113,1.612,1.612,0,0,0-.418-1.1221,1.3449,1.3449,0,0,0-1.039-.4619,1.3156,1.3156,0,0,0-1.0284.457A1.6226,1.6226,0,0,0,124.473,98.5784Z"/><path class="967cfe74-9247-482a-a968-23dabe0e37c8" d="M135.4945,103.2034a.5976.5976,0,0,1-.8467,0,.556.556,0,0,1-.1767-.4072v-1.9356a2.61,2.61,0,0,1-3.3653-.3408,2.81,2.81,0,0,1,0-3.8887,2.5315,2.5315,0,0,1,1.8916-.8086,2.7548,2.7548,0,0,1,1.4961.462.5184.5184,0,0,1,.1983-.33.6114.6114,0,0,1,.3955-.1319.5589.5589,0,0,1,.4072.1758.5715.5715,0,0,1,.1758.418v6.38A.5589.5589,0,0,1,135.4945,103.2034Zm-2.48-6.1924a1.41,1.41,0,0,0-1.0508.4727,1.5732,1.5732,0,0,0-.0107,2.1943,1.4108,1.4108,0,0,0,1.0674.4678,1.2239,1.2239,0,0,0,1.001-.4619,1.5692,1.5692,0,0,0,0-2.2A1.2771,1.2771,0,0,0,133.014,97.011Z"/><path class="967cfe74-9247-482a-a968-23dabe0e37c8" d="M142.4466,99.0345a2.1848,2.1848,0,0,1-.6875,1.6113,2.2438,2.2438,0,0,1-1.6289.6767,2.3,2.3,0,0,1-2.2929-2.288V96.4056a.5654.5654,0,0,1,.1709-.4073.5709.5709,0,0,1,.8242,0,.5658.5658,0,0,1,.1709.4073v2.6289a1.1072,1.1072,0,0,0,1.122,1.122,1.1228,1.1228,0,0,0,.8086-.3242,1.1074,1.1074,0,0,0,.3467-.7978V96.4056a.5756.5756,0,0,1,.1651-.4073.5277.5277,0,0,1,.4013-.1758.5842.5842,0,0,1,.418.1758.5506.5506,0,0,1,.1816.4073Z"/><path class="967cfe74-9247-482a-a968-23dabe0e37c8" d="M149.64,98.43a.5056.5056,0,0,1-.1592.39.5942.5942,0,0,1-.4238.1494h-3.4981a1.3319,1.3319,0,0,0,.3741.7256,1.5486,1.5486,0,0,0,1.0293.4893,1.6106,1.6106,0,0,0,1.1709-.27.5761.5761,0,0,1,.44-.1757.46.46,0,0,1,.3848.1425.4934.4934,0,0,1,0,.7159,2.75,2.75,0,0,1-1.9414.72,2.5794,2.5794,0,0,1-1.9249-.8086,2.7807,2.7807,0,0,1,0-3.877,2.5018,2.5018,0,0,1,1.875-.8086,2.5789,2.5789,0,0,1,1.8536.7208,2.6563,2.6563,0,0,1,.8193,1.831Zm-2.65-1.5625a1.5553,1.5553,0,0,0-1.0234.3965,1.4318,1.4318,0,0,0-.4619.77h3.1132a1.5013,1.5013,0,0,0-.5341-.7481A1.9067,1.9067,0,0,0,146.99,96.8675Z"/><path class="967cfe74-9247-482a-a968-23dabe0e37c8" d="M153.2484,95.8225a.6025.6025,0,0,1,.4346.1758.569.569,0,0,1,.1816.4239.5858.5858,0,0,1-.1816.4287.5925.5925,0,0,1-.4346.1816h-.2744v3.0693a.5749.5749,0,0,1,.4287.1817.6.6,0,0,1,.1758.4336.6.6,0,0,1-.6045.6054,1.22,1.22,0,0,1-1.2217-1.2207V97.0325h-.3184a.605.605,0,1,1,0-1.21h.3184V94.2278a.5772.5772,0,0,1,.1816-.43.6024.6024,0,0,1,.4346-.1757.6018.6018,0,0,1,.6055.6054v1.5947Z"/><path class="967cfe74-9247-482a-a968-23dabe0e37c8" d="M157.6488,95.8225a.6025.6025,0,0,1,.4346.1758.569.569,0,0,1,.1816.4239.5858.5858,0,0,1-.1816.4287.5925.5925,0,0,1-.4346.1816h-.2744v3.0693a.5751.5751,0,0,1,.4287.1817.6.6,0,0,1,.1758.4336.6.6,0,0,1-.6045.6054,1.22,1.22,0,0,1-1.2217-1.2207V97.0325h-.3184a.605.605,0,1,1,0-1.21h.3184V94.2278a.5772.5772,0,0,1,.1816-.43.6024.6024,0,0,1,.4346-.1757.6018.6018,0,0,1,.6055.6054v1.5947Z"/><path class="967cfe74-9247-482a-a968-23dabe0e37c8" d="M165.14,98.43a.5056.5056,0,0,1-.1592.39.5942.5942,0,0,1-.4238.1494h-3.4981a1.3319,1.3319,0,0,0,.3741.7256,1.5486,1.5486,0,0,0,1.0293.4893,1.6106,1.6106,0,0,0,1.1709-.27.5761.5761,0,0,1,.44-.1757.46.46,0,0,1,.3848.1425.4934.4934,0,0,1,0,.7159,2.75,2.75,0,0,1-1.9414.72,2.5794,2.5794,0,0,1-1.9249-.8086,2.7807,2.7807,0,0,1,0-3.877,2.5018,2.5018,0,0,1,1.875-.8086,2.5789,2.5789,0,0,1,1.8536.7208,2.6563,2.6563,0,0,1,.8193,1.831Zm-2.65-1.5625a1.5553,1.5553,0,0,0-1.0234.3965,1.4318,1.4318,0,0,0-.4619.77h3.1132a1.5013,1.5013,0,0,0-.5341-.7481A1.9067,1.9067,0,0,0,162.49,96.8675Z"/><path class="967cfe74-9247-482a-a968-23dabe0e37c8" d="M170.2884,96.428a.5651.5651,0,0,1,.2481.3682.6133.6133,0,0,1-.0723.4453.579.579,0,0,1-.8135.1543,2.0023,2.0023,0,0,0-1.0175-.4072,1.03,1.03,0,0,0-.6543.1982c-.1182.08-.1768.1524-.1768.2139a.2642.2642,0,0,0,.0283.1377.3627.3627,0,0,0,.1153.1,2.1785,2.1785,0,0,0,.8027.2637l.0107.0107h.0118a4.6479,4.6479,0,0,1,1.0664.33,1.5411,1.5411,0,0,1,.7148.6054,1.4679,1.4679,0,0,1,.2315.7588,1.5234,1.5234,0,0,1-.6934,1.2754,2.4536,2.4536,0,0,1-1.43.44,3.1457,3.1457,0,0,1-1.958-.7587.5591.5591,0,0,1-.2031-.3907.5916.5916,0,0,1,.5224-.6435.5516.5516,0,0,1,.4287.1318,1.8324,1.8324,0,0,0,1.21.4844,1.3744,1.3744,0,0,0,.7481-.209c.1318-.11.1982-.2041.1982-.28a.285.285,0,0,0-.0332-.16.3689.3689,0,0,0-.1426-.1319,2.3814,2.3814,0,0,0-.8808-.3076h-.0108a4.0889,4.0889,0,0,1-1.0176-.3193,1.7138,1.7138,0,0,1-.6982-.6055,1.3029,1.3029,0,0,1-.1875-.6924,1.4778,1.4778,0,0,1,.6494-1.21,2.3454,2.3454,0,0,1,1.3584-.4073A2.9528,2.9528,0,0,1,170.2884,96.428Z"/><path class="967cfe74-9247-482a-a968-23dabe0e37c8" d="M171.8724,102.61a.281.281,0,0,1,.2529-.2969.9347.9347,0,0,0,.7481-.99.9451.9451,0,0,1-.4453-.2753.6743.6743,0,0,1-.1817-.4727v-.0879a.7193.7193,0,0,1,.209-.5283.7615.7615,0,0,1,.5616-.209.6856.6856,0,0,1,.56.2588,1.0956,1.0956,0,0,1,.209.709v.1211a2.2264,2.2264,0,0,1-.5391,1.6064,1.4911,1.4911,0,0,1-1.0342.4727C171.9867,102.9173,171.8724,102.8147,171.8724,102.61Z"/><path class="967cfe74-9247-482a-a968-23dabe0e37c8" d="M178.2084,94.2278a.6016.6016,0,0,1,.6054-.6054.6023.6023,0,0,1,.4346.1757.5772.5772,0,0,1,.1816.43v6.4893a.5756.5756,0,0,1-.1816.43.6023.6023,0,0,1-.4346.1757.6016.6016,0,0,1-.6054-.6054Z"/><path class="967cfe74-9247-482a-a968-23dabe0e37c8" d="M185.8207,98.43a.5059.5059,0,0,1-.1592.39.5943.5943,0,0,1-.4238.1494H181.74a1.3324,1.3324,0,0,0,.374.7256,1.549,1.549,0,0,0,1.0293.4893,1.6106,1.6106,0,0,0,1.1709-.27.5764.5764,0,0,1,.4405-.1757.46.46,0,0,1,.3847.1425.4932.4932,0,0,1,0,.7159,2.75,2.75,0,0,1-1.9414.72,2.5793,2.5793,0,0,1-1.9248-.8086,2.7807,2.7807,0,0,1,0-3.877,2.5018,2.5018,0,0,1,1.875-.8086,2.5785,2.5785,0,0,1,1.8535.7208,2.6564,2.6564,0,0,1,.8194,1.831Zm-2.65-1.5625a1.5557,1.5557,0,0,0-1.0235.3965,1.4331,1.4331,0,0,0-.4619.77h3.1133a1.501,1.501,0,0,0-.5342-.7481A1.9064,1.9064,0,0,0,183.17,96.8675Z"/><path class="967cfe74-9247-482a-a968-23dabe0e37c8" d="M190.9691,96.428a.5654.5654,0,0,1,.248.3682.6132.6132,0,0,1-.0722.4453.5791.5791,0,0,1-.8135.1543,2.0022,2.0022,0,0,0-1.0176-.4072,1.03,1.03,0,0,0-.6543.1982c-.1181.08-.1767.1524-.1767.2139a.2632.2632,0,0,0,.0283.1377.3621.3621,0,0,0,.1152.1,2.1791,2.1791,0,0,0,.8028.2637l.0107.0107h.0117a4.6448,4.6448,0,0,1,1.0664.33,1.5409,1.5409,0,0,1,.7149.6054,1.4677,1.4677,0,0,1,.2314.7588,1.5233,1.5233,0,0,1-.6933,1.2754,2.4536,2.4536,0,0,1-1.43.44,3.1455,3.1455,0,0,1-1.958-.7587.5592.5592,0,0,1-.2032-.3907.5918.5918,0,0,1,.5225-.6435.5517.5517,0,0,1,.4287.1318,1.8322,1.8322,0,0,0,1.21.4844,1.3738,1.3738,0,0,0,.748-.209c.1319-.11.1983-.2041.1983-.28a.2858.2858,0,0,0-.0332-.16.3689.3689,0,0,0-.1426-.1319,2.382,2.382,0,0,0-.8809-.3076H189.22a4.0875,4.0875,0,0,1-1.0176-.3193,1.7132,1.7132,0,0,1-.6982-.6055,1.3029,1.3029,0,0,1-.1875-.6924,1.4778,1.4778,0,0,1,.6494-1.21,2.3454,2.3454,0,0,1,1.3584-.4073A2.953,2.953,0,0,1,190.9691,96.428Z"/><path class="967cfe74-9247-482a-a968-23dabe0e37c8" d="M100.2171,111.63a.5058.5058,0,0,1-.1591.39.5944.5944,0,0,1-.4239.1494h-3.498a1.3324,1.3324,0,0,0,.374.7256,1.5488,1.5488,0,0,0,1.0293.4893,1.6106,1.6106,0,0,0,1.1709-.27.5762.5762,0,0,1,.44-.1757.46.46,0,0,1,.3848.1425.4932.4932,0,0,1,0,.7159,2.75,2.75,0,0,1-1.9414.72,2.5793,2.5793,0,0,1-1.9248-.8086,2.7807,2.7807,0,0,1,0-3.877,2.5018,2.5018,0,0,1,1.875-.8086,2.5788,2.5788,0,0,1,1.8535.7207,2.6563,2.6563,0,0,1,.8193,1.8311Zm-2.65-1.5625a1.5557,1.5557,0,0,0-1.0235.3965,1.4331,1.4331,0,0,0-.4619.7695h3.1133a1.5012,1.5012,0,0,0-.5342-.7481A1.906,1.906,0,0,0,97.5668,110.0677Z"/><path class="967cfe74-9247-482a-a968-23dabe0e37c8" d="M105.3822,109.1048a.5572.5572,0,0,1,.4287.1.5506.5506,0,0,1,.2314.374.5.5,0,0,1-.1045.4121l-1.3095,1.8047,1.31,1.8145a.5412.5412,0,0,1,.1045.4287.5165.5165,0,0,1-.2148.3633.6613.6613,0,0,1-.3848.121.6758.6758,0,0,1-.4511-.2421l-1.1-1.5069-1.1006,1.5069a.5517.5517,0,0,1-.8028.1211.5045.5045,0,0,1-.2256-.3682.5162.5162,0,0,1,.1045-.4238l1.32-1.8145-1.32-1.8047a.4977.4977,0,0,1-.1045-.4121.5476.5476,0,0,1,.2315-.374.5386.5386,0,0,1,.418-.1.618.618,0,0,1,.3789.2256l1.1006,1.4746,1.1-1.4746A.6237.6237,0,0,1,105.3822,109.1048Z"/><path class="967cfe74-9247-482a-a968-23dabe0e37c8" d="M109.265,116.41a.588.588,0,0,1-.43.1816.5666.5666,0,0,1-.4228-.1816.5783.5783,0,0,1-.1758-.4131v-6.3906a.5617.5617,0,0,1,.17-.4122.5529.5529,0,0,1,.4072-.1709.6485.6485,0,0,1,.4073.1319.5083.5083,0,0,1,.2031.3193,2.6907,2.6907,0,0,1,1.4961-.4512,2.5115,2.5115,0,0,1,1.8808.8145,2.7127,2.7127,0,0,1,.7813,1.9463,2.6578,2.6578,0,0,1-.7813,1.9307,2.5352,2.5352,0,0,1-1.8808.7978,2.4562,2.4562,0,0,1-1.4737-.4512v1.9356A.5692.5692,0,0,1,109.265,116.41Zm2.6895-5.7364a1.3888,1.3888,0,0,0-1.045-.4511,1.3648,1.3648,0,0,0-1.04.456,1.6121,1.6121,0,0,0-.4229,1.1387,1.36,1.36,0,0,0,.4287,1.0674,1.3331,1.3331,0,0,0,1.0284.4619,1.385,1.385,0,0,0,1.0449-.4619,1.5438,1.5438,0,0,0,.4346-1.0948A1.6308,1.6308,0,0,0,111.9545,110.6731Z"/><path class="967cfe74-9247-482a-a968-23dabe0e37c8" d="M117.8939,114.5559a2.4891,2.4891,0,0,1-1.8809-.8144,2.8441,2.8441,0,0,1,.0059-3.8994,2.4753,2.4753,0,0,1,1.8643-.8194,2.4309,2.4309,0,0,1,1.8535.83,2.8185,2.8185,0,0,1,.7646,1.9746,2.5268,2.5268,0,0,1-.77,1.8926A2.33,2.33,0,0,1,117.8939,114.5559Zm-1.0557-3.916a1.693,1.693,0,0,0-.3964,1.1436,1.7779,1.7779,0,0,0,.3964,1.166,1.5157,1.5157,0,0,0,2.0674,0,1.6954,1.6954,0,0,0,.43-1.166,1.6165,1.6165,0,0,0-.43-1.1436,1.4874,1.4874,0,0,0-2.0674,0Z"/><path class="967cfe74-9247-482a-a968-23dabe0e37c8" d="M125.77,109.6282a.5654.5654,0,0,1,.248.3682.6132.6132,0,0,1-.0722.4453.5791.5791,0,0,1-.8135.1543,2.0022,2.0022,0,0,0-1.0176-.4072,1.03,1.03,0,0,0-.6543.1982c-.1182.08-.1767.1523-.1767.2139a.2632.2632,0,0,0,.0283.1377.3621.3621,0,0,0,.1152.1,2.1787,2.1787,0,0,0,.8027.2636l.0108.0108h.0117a4.6463,4.6463,0,0,1,1.0664.33,1.5414,1.5414,0,0,1,.7149.6054,1.4686,1.4686,0,0,1,.2314.7588,1.5232,1.5232,0,0,1-.6934,1.2754,2.4533,2.4533,0,0,1-1.43.44,3.146,3.146,0,0,1-1.9581-.7587.56.56,0,0,1-.2031-.3907.5918.5918,0,0,1,.5225-.6435.5518.5518,0,0,1,.4287.1318,1.8322,1.8322,0,0,0,1.21.4844,1.3738,1.3738,0,0,0,.748-.209c.1318-.11.1982-.2041.1982-.28a.285.285,0,0,0-.0332-.16.3684.3684,0,0,0-.1425-.1319,2.3827,2.3827,0,0,0-.8809-.3076h-.0107a4.0875,4.0875,0,0,1-1.0176-.3193,1.7135,1.7135,0,0,1-.6983-.6055,1.3029,1.3029,0,0,1-.1875-.6924,1.4775,1.4775,0,0,1,.6495-1.21,2.3451,2.3451,0,0,1,1.3583-.4073A2.9531,2.9531,0,0,1,125.77,109.6282Z"/><path class="967cfe74-9247-482a-a968-23dabe0e37c8" d="M128.9818,107.4163v.2314a.5932.5932,0,0,1-.17.4288.5582.5582,0,0,1-.418.1767.5755.5755,0,0,1-.4238-.1767.5829.5829,0,0,1-.1758-.4288v-.2314a.5938.5938,0,1,1,1.1875,0Zm-1.0176,1.7881a.611.611,0,0,1,.8477,0,.59.59,0,0,1,.17.4346v4.29a.5732.5732,0,0,1-.17.4228.5673.5673,0,0,1-.418.1709.578.578,0,0,1-.4238-.1757.5715.5715,0,0,1-.1758-.418v-4.29A.59.59,0,0,1,127.9642,109.2044Z"/><path class="967cfe74-9247-482a-a968-23dabe0e37c8" d="M132.7328,109.0227a.6023.6023,0,0,1,.4345.1758.569.569,0,0,1,.1817.4239.5859.5859,0,0,1-.1817.4287.5923.5923,0,0,1-.4345.1816h-.2744v3.0693a.5751.5751,0,0,1,.4287.1817.6.6,0,0,1,.1757.4336.6.6,0,0,1-.6044.6054,1.22,1.22,0,0,1-1.2217-1.2207v-3.0693h-.3184a.605.605,0,1,1,0-1.21h.3184V107.428a.5772.5772,0,0,1,.1816-.43.6024.6024,0,0,1,.4346-.1758.602.602,0,0,1,.6055.6055v1.5947Z"/><path class="967cfe74-9247-482a-a968-23dabe0e37c8" d="M136.473,107.4163v.2314a.5932.5932,0,0,1-.17.4288.5581.5581,0,0,1-.418.1767.5755.5755,0,0,1-.4238-.1767.5829.5829,0,0,1-.1758-.4288v-.2314a.5938.5938,0,1,1,1.1875,0Zm-1.0176,1.7881a.611.611,0,0,1,.8477,0,.59.59,0,0,1,.17.4346v4.29a.5732.5732,0,0,1-.17.4228.5671.5671,0,0,1-.418.1709.578.578,0,0,1-.4238-.1757.5715.5715,0,0,1-.1758-.418v-4.29A.59.59,0,0,1,135.4554,109.2044Z"/><path class="967cfe74-9247-482a-a968-23dabe0e37c8" d="M140.763,114.5559a2.4889,2.4889,0,0,1-1.8808-.8144,2.8443,2.8443,0,0,1,.0058-3.8994,2.4753,2.4753,0,0,1,1.8643-.8194,2.4306,2.4306,0,0,1,1.8535.83,2.8181,2.8181,0,0,1,.7647,1.9746,2.5272,2.5272,0,0,1-.77,1.8926A2.33,2.33,0,0,1,140.763,114.5559Zm-1.0556-3.916a1.6926,1.6926,0,0,0-.3965,1.1436,1.7775,1.7775,0,0,0,.3965,1.166,1.5157,1.5157,0,0,0,2.0674,0,1.6959,1.6959,0,0,0,.43-1.166,1.617,1.617,0,0,0-.43-1.1436,1.4874,1.4874,0,0,0-2.0674,0Z"/><path class="967cfe74-9247-482a-a968-23dabe0e37c8" d="M146.4281,113.94a.5386.5386,0,0,1-.1865.4121.6116.6116,0,0,1-.4239.1709.5525.5525,0,0,1-.4072-.1709.5613.5613,0,0,1-.17-.4121v-4.3339a.5877.5877,0,0,1,1.1211-.2422,2.1466,2.1466,0,0,1,1.166-.3409,2.3007,2.3007,0,0,1,2.3,2.2881V113.94a.5729.5729,0,0,1-.165.4121.5369.5369,0,0,1-.4014.1709.5719.5719,0,0,1-.4131-.1709.5521.5521,0,0,1-.1758-.4121v-2.6289a1.0532,1.0532,0,0,0-.3359-.7861,1.1126,1.1126,0,0,0-.8027-.3252,1.0566,1.0566,0,0,0-.7862.3252,1.0787,1.0787,0,0,0-.3193.7861Z"/><path class="967cfe74-9247-482a-a968-23dabe0e37c8" d="M155.3822,109.6282a.5654.5654,0,0,1,.248.3682.6132.6132,0,0,1-.0722.4453.5791.5791,0,0,1-.8135.1543,2.0022,2.0022,0,0,0-1.0176-.4072,1.03,1.03,0,0,0-.6543.1982c-.1181.08-.1767.1523-.1767.2139a.2632.2632,0,0,0,.0283.1377.3621.3621,0,0,0,.1152.1,2.1787,2.1787,0,0,0,.8027.2636l.0108.0108h.0117a4.6463,4.6463,0,0,1,1.0664.33,1.5414,1.5414,0,0,1,.7149.6054,1.4677,1.4677,0,0,1,.2314.7588,1.5232,1.5232,0,0,1-.6934,1.2754,2.4533,2.4533,0,0,1-1.43.44,3.146,3.146,0,0,1-1.9581-.7587.56.56,0,0,1-.2031-.3907.5918.5918,0,0,1,.5225-.6435.5517.5517,0,0,1,.4287.1318,1.8322,1.8322,0,0,0,1.21.4844,1.3738,1.3738,0,0,0,.748-.209c.1318-.11.1982-.2041.1982-.28a.285.285,0,0,0-.0332-.16.3684.3684,0,0,0-.1425-.1319,2.3827,2.3827,0,0,0-.8809-.3076h-.0107a4.0875,4.0875,0,0,1-1.0176-.3193,1.7135,1.7135,0,0,1-.6983-.6055,1.3029,1.3029,0,0,1-.1875-.6924,1.4775,1.4775,0,0,1,.6495-1.21,2.3452,2.3452,0,0,1,1.3584-.4073A2.953,2.953,0,0,1,155.3822,109.6282Z"/><path class="967cfe74-9247-482a-a968-23dabe0e37c8" d="M156.9662,115.81a.281.281,0,0,1,.2529-.2969.9347.9347,0,0,0,.748-.99.9456.9456,0,0,1-.4453-.2753.6742.6742,0,0,1-.1816-.4727v-.0879a.7189.7189,0,0,1,.209-.5283.7611.7611,0,0,1,.5615-.209.6854.6854,0,0,1,.56.2588,1.095,1.095,0,0,1,.209.709v.1211a2.2268,2.2268,0,0,1-.539,1.6064,1.4911,1.4911,0,0,1-1.0342.4727C157.08,116.1175,156.9662,116.0149,156.9662,115.81Z"/><path class="967cfe74-9247-482a-a968-23dabe0e37c8" d="M168.1752,111.63a.5059.5059,0,0,1-.1592.39.5944.5944,0,0,1-.4239.1494h-3.498a1.3324,1.3324,0,0,0,.374.7256,1.5488,1.5488,0,0,0,1.0293.4893,1.6106,1.6106,0,0,0,1.1709-.27.5764.5764,0,0,1,.44-.1757.46.46,0,0,1,.3848.1425.4932.4932,0,0,1,0,.7159,2.75,2.75,0,0,1-1.9414.72,2.5793,2.5793,0,0,1-1.9248-.8086,2.7807,2.7807,0,0,1,0-3.877,2.5018,2.5018,0,0,1,1.875-.8086,2.5788,2.5788,0,0,1,1.8535.7207,2.6568,2.6568,0,0,1,.8194,1.8311Zm-2.65-1.5625a1.5557,1.5557,0,0,0-1.0235.3965,1.4331,1.4331,0,0,0-.4619.7695h3.1133a1.5006,1.5006,0,0,0-.5342-.7481A1.9057,1.9057,0,0,0,165.5248,110.0677Z"/><path class="967cfe74-9247-482a-a968-23dabe0e37c8" d="M171.7836,109.0227a.6023.6023,0,0,1,.4345.1758.569.569,0,0,1,.1817.4239.5859.5859,0,0,1-.1817.4287.5923.5923,0,0,1-.4345.1816h-.2745v3.0693a.5748.5748,0,0,1,.4287.1817.6.6,0,0,1,.1758.4336.6.6,0,0,1-.6045.6054,1.22,1.22,0,0,1-1.2216-1.2207v-3.0693h-.3184a.605.605,0,1,1,0-1.21h.3184V107.428a.5772.5772,0,0,1,.1816-.43.6024.6024,0,0,1,.4346-.1758.6018.6018,0,0,1,.6054.6055v1.5947Z"/><path class="967cfe74-9247-482a-a968-23dabe0e37c8" d="M174.765,113.7142a2.6895,2.6895,0,0,1,0-3.877,2.7639,2.7639,0,0,1,1.9687-.8145,2.8132,2.8132,0,0,1,1.7491.6055.5628.5628,0,0,1,.2207.39.5524.5524,0,0,1-.1162.4345.5753.5753,0,0,1-.3848.2207.5293.5293,0,0,1-.4238-.1211,1.81,1.81,0,0,0-1.0938-.3525,1.5268,1.5268,0,0,0-1.0947.4736,1.5156,1.5156,0,0,0-.0059,2.2159,1.5205,1.5205,0,0,0,1.0948.4677,1.8222,1.8222,0,0,0,1.1-.3515.52.52,0,0,1,.4179-.11.5787.5787,0,0,1,.3907.22.5364.5364,0,0,1,.1162.4239.6429.6429,0,0,1-.2207.4013,2.9437,2.9437,0,0,1-1.7491.583A2.7143,2.7143,0,0,1,174.765,113.7142Z"/><path class="967cfe74-9247-482a-a968-23dabe0e37c8" d="M180.722,114.3636a.7854.7854,0,0,1-.2363-.5782.8043.8043,0,0,1,.2363-.583.7752.7752,0,0,1,.5772-.2412.8252.8252,0,0,1,.8252.8242.78.78,0,0,1-.2422.5782.8051.8051,0,0,1-.583.2363A.7856.7856,0,0,1,180.722,114.3636Z"/></g></svg>