<svg xmlns="http://www.w3.org/2000/svg" width="576.1782" height="232.5342" viewBox="0 0 576.1782 232.5342"><defs><style>.bd6fcea7-a8d0-4011-9d20-54640b4b8f9f{isolation:isolate;}.aeef3d8a-b682-481b-aca6-85fce7eb7c62{fill:#fff;}.bd531ad0-1276-407f-bc68-604080f96270{fill:#d6e9d7;}.\31 a1174b2-6489-49aa-a953-bec79536f0e3{fill:#df6762;}.\30 68b70f7-f278-422a-8bbc-eed07003fc51,.f62c243c-8a23-4c81-b994-0e69518a06ea{fill:none;}.f62c243c-8a23-4c81-b994-0e69518a06ea{stroke:#1f9f7b;stroke-miterlimit:10;}.aa8acb81-152f-465d-88eb-076ddae15245{fill:#78a8c5;}.\39 ca14eb9-750f-4360-adee-29f804ea2971{fill:#1f9f7b;}.\31 f6b0da0-16eb-4689-850f-5d063ccff768{fill:#ea5958;}.\36 3f24361-3cc3-48d0-8529-a7bb756605a7{fill:#f9d6d6;}.\38 8f2faf6-a323-4a3f-98b8-408035999ba1{fill:#d9eae6;}.\30 68b70f7-f278-422a-8bbc-eed07003fc51{stroke:#fff;stroke-linecap:round;stroke-linejoin:round;stroke-width:3px;}</style></defs><title>Pourquoi</title><g id="b0d503f0-21d0-4423-a0e5-b1bcf9333157" data-name="Dessins"><g class="bd6fcea7-a8d0-4011-9d20-54640b4b8f9f"><polygon class="aeef3d8a-b682-481b-aca6-85fce7eb7c62" points="40.255 161.272 40.173 190.272 6.638 170.91 6.72 141.911 40.255 161.272"/><polygon class="bd531ad0-1276-407f-bc68-604080f96270" points="40.255 161.272 57.429 151.292 57.346 180.291 40.173 190.272 40.255 161.272"/><polygon class="1a1174b2-6489-49aa-a953-bec79536f0e3" points="6.72 141.911 23.893 131.931 57.429 151.292 40.255 161.272 6.72 141.911"/></g><g class="bd6fcea7-a8d0-4011-9d20-54640b4b8f9f"><polygon class="aeef3d8a-b682-481b-aca6-85fce7eb7c62" points="108.024 114.023 107.883 163.577 74.348 144.215 74.488 94.662 108.024 114.023"/><polygon class="bd531ad0-1276-407f-bc68-604080f96270" points="108.024 114.023 125.197 104.043 125.057 153.597 107.883 163.577 108.024 114.023"/><polygon class="1a1174b2-6489-49aa-a953-bec79536f0e3" points="74.488 94.662 91.662 84.681 125.197 104.043 108.024 114.023 74.488 94.662"/></g><g class="bd6fcea7-a8d0-4011-9d20-54640b4b8f9f"><polygon class="aeef3d8a-b682-481b-aca6-85fce7eb7c62" points="160.605 70.165 160.523 99.165 126.988 79.803 127.07 50.804 160.605 70.165"/><polygon class="bd531ad0-1276-407f-bc68-604080f96270" points="160.605 70.165 177.779 60.185 177.696 89.184 160.523 99.165 160.605 70.165"/><polygon class="1a1174b2-6489-49aa-a953-bec79536f0e3" points="127.07 50.804 144.243 40.823 177.779 60.185 160.605 70.165 127.07 50.804"/></g><g class="bd6fcea7-a8d0-4011-9d20-54640b4b8f9f"><polygon class="aeef3d8a-b682-481b-aca6-85fce7eb7c62" points="39.338 53.828 39.182 108.748 22.414 99.068 22.57 44.147 39.338 53.828"/><polygon class="bd531ad0-1276-407f-bc68-604080f96270" points="39.338 53.828 56.511 43.848 56.355 98.768 39.182 108.748 39.338 53.828"/><polygon class="aeef3d8a-b682-481b-aca6-85fce7eb7c62" points="46.645 55.192 50.218 53.116 50.185 64.541 46.613 66.617 46.645 55.192"/><polygon class="aeef3d8a-b682-481b-aca6-85fce7eb7c62" points="46.645 70.31 50.218 68.234 50.185 79.658 46.613 81.735 46.645 70.31"/><polygon class="aeef3d8a-b682-481b-aca6-85fce7eb7c62" points="46.645 85.255 50.218 83.179 50.185 94.603 46.613 96.68 46.645 85.255"/><polygon class="1a1174b2-6489-49aa-a953-bec79536f0e3" points="22.57 44.147 39.743 34.167 56.511 43.848 39.338 53.828 22.57 44.147"/></g><g class="bd6fcea7-a8d0-4011-9d20-54640b4b8f9f"><polygon class="aeef3d8a-b682-481b-aca6-85fce7eb7c62" points="177.62 160.219 177.483 208.69 152.246 194.119 152.383 145.648 177.62 160.219"/><polygon class="bd531ad0-1276-407f-bc68-604080f96270" points="177.62 160.219 211.967 140.259 211.83 188.729 177.483 208.69 177.62 160.219"/><polygon class="1a1174b2-6489-49aa-a953-bec79536f0e3" points="152.383 145.648 186.73 125.688 211.967 140.259 177.62 160.219 152.383 145.648"/></g><g class="bd6fcea7-a8d0-4011-9d20-54640b4b8f9f"><polygon class="aeef3d8a-b682-481b-aca6-85fce7eb7c62" points="242.978 75.377 242.841 123.85 205.541 102.315 205.678 53.841 242.978 75.377"/><polygon class="bd531ad0-1276-407f-bc68-604080f96270" points="242.978 75.377 277.325 55.416 277.188 103.89 242.841 123.85 242.978 75.377"/><polygon class="1a1174b2-6489-49aa-a953-bec79536f0e3" points="205.678 53.841 240.025 33.881 277.325 55.416 242.978 75.377 205.678 53.841"/></g><line class="f62c243c-8a23-4c81-b994-0e69518a06ea" x1="78.5873" y1="78.1235" x2="78.5873" y2="18.2834"/><path class="aa8acb81-152f-465d-88eb-076ddae15245" d="M86.9068,40.2652a3.7815,3.7815,0,0,1-.3023,3.0132c-.5847.8783-.83,2.2376-2.3709,1.25-1.4265-.9142-.4435-1.77.0925-2.6788A3.781,3.781,0,0,1,86.9068,40.2652Z"/><path class="9ca14eb9-750f-4360-adee-29f804ea2971" d="M70.675,62.0245a8.4042,8.4042,0,0,1,7.9123,4.5827,8.4044,8.4044,0,0,1-7.9123-4.5827Z"/><path class="9ca14eb9-750f-4360-adee-29f804ea2971" d="M70.675,41.4446a8.404,8.404,0,0,1,7.9123,4.5828,8.4043,8.4043,0,0,1-7.9123-4.5828Z"/><path class="9ca14eb9-750f-4360-adee-29f804ea2971" d="M86.5,49.1485a8.4043,8.4043,0,0,0-7.9123,4.5828A8.4043,8.4043,0,0,0,86.5,49.1485Z"/><line class="f62c243c-8a23-4c81-b994-0e69518a06ea" x1="78.5873" y1="53.5476" x2="84.3334" y2="44.5645"/><path class="aa8acb81-152f-465d-88eb-076ddae15245" d="M72.723,20.5775a3.7813,3.7813,0,0,0,.3023,3.0131c.5847.8784.83,2.2377,2.3709,1.25,1.4265-.9141.4435-1.77-.0925-2.6788A3.7809,3.7809,0,0,0,72.723,20.5775Z"/><line class="f62c243c-8a23-4c81-b994-0e69518a06ea" x1="78.6519" y1="30.1225" x2="75.2964" y2="24.8767"/><polygon class="aa8acb81-152f-465d-88eb-076ddae15245" points="16.307 153.605 16.273 165.293 10.188 161.779 10.221 150.092 16.307 153.605"/><polygon class="1f6b0da0-16eb-4689-850f-5d063ccff768" points="234.966 86.184 234.933 97.872 228.848 94.359 228.881 82.671 234.966 86.184"/><polygon class="1f6b0da0-16eb-4689-850f-5d063ccff768" points="166.073 190.396 166.04 202.084 159.954 198.571 159.987 186.883 163.014 181.676 166.073 190.396"/><polygon class="1f6b0da0-16eb-4689-850f-5d063ccff768" points="166.073 170.848 166.04 177.169 159.954 173.656 159.987 167.334 163.014 162.128 166.073 170.848"/><line class="f62c243c-8a23-4c81-b994-0e69518a06ea" x1="78.8136" y1="206.1995" x2="78.8136" y2="158.9869"/><path class="9ca14eb9-750f-4360-adee-29f804ea2971" d="M84.3905,188.054a5.9236,5.9236,0,0,0-5.5769,3.23,5.9238,5.9238,0,0,0,5.5769-3.23Z"/><path class="9ca14eb9-750f-4360-adee-29f804ea2971" d="M84.3905,173.5487a5.9236,5.9236,0,0,0-5.5769,3.23,5.9238,5.9238,0,0,0,5.5769-3.23Z"/><path class="9ca14eb9-750f-4360-adee-29f804ea2971" d="M73.2368,178.9786a5.9236,5.9236,0,0,1,5.5768,3.23,5.9233,5.9233,0,0,1-5.5768-3.23Z"/><path class="9ca14eb9-750f-4360-adee-29f804ea2971" d="M73.2368,192.5952a5.9236,5.9236,0,0,1,5.5768,3.23,5.9238,5.9238,0,0,1-5.5768-3.23Z"/><line class="f62c243c-8a23-4c81-b994-0e69518a06ea" x1="78.8136" y1="182.0792" x2="71.5838" y2="170.6571"/><circle class="63f24361-3cc3-48d0-8529-a7bb756605a7" cx="78.83" cy="158.5333" r="2.0358"/><path class="aa8acb81-152f-465d-88eb-076ddae15245" d="M80.55,156.0856l.6249-2.6113a1.7179,1.7179,0,0,0-1.6708-2.1177H78.1562a1.7179,1.7179,0,0,0-1.6708,2.1177l.6249,2.6113a1.41,1.41,0,0,0,1.3709,1.0816h.6976A1.41,1.41,0,0,0,80.55,156.0856Z"/><path class="aa8acb81-152f-465d-88eb-076ddae15245" d="M81.7094,159.3443l2.6708-.2762a1.7179,1.7179,0,0,0,1.444-2.2784l-.4468-1.2715a1.7179,1.7179,0,0,0-2.5519-.8742l-2.2564,1.4553a1.41,1.41,0,0,0-.5659,1.652l.2313.6581A1.41,1.41,0,0,0,81.7094,159.3443Z"/><path class="aa8acb81-152f-465d-88eb-076ddae15245" d="M79.02,161.5186l1.146,2.4282a1.718,1.718,0,0,0,2.6283.6071l1.0514-.8432a1.7178,1.7178,0,0,0-.0213-2.6973l-2.121-1.6464a1.41,1.41,0,0,0-1.7462.0138l-.5442.4364A1.41,1.41,0,0,0,79.02,161.5186Z"/><path class="aa8acb81-152f-465d-88eb-076ddae15245" d="M75.9984,159.4977,73.955,161.24a1.7179,1.7179,0,0,0,.1023,2.6955l1.089.7941a1.7179,1.7179,0,0,0,2.5977-.7268l1.0335-2.4781a1.41,1.41,0,0,0-.4705-1.6817l-.5636-.411A1.41,1.41,0,0,0,75.9984,159.4977Z"/><path class="aa8acb81-152f-465d-88eb-076ddae15245" d="M77.0185,156.1527l-2.2992-1.3867a1.7179,1.7179,0,0,0-2.5244.9506l-.4084,1.2844a1.718,1.718,0,0,0,1.512,2.2339l2.6779.1956a1.41,1.41,0,0,0,1.4461-.9788l.2114-.6648A1.41,1.41,0,0,0,77.0185,156.1527Z"/><polygon class="88f2faf6-a323-4a3f-98b8-408035999ba1" points="78.622 158.129 78.414 158.129 78.311 158.309 78.414 158.489 78.622 158.489 78.726 158.309 78.622 158.129"/><polygon class="88f2faf6-a323-4a3f-98b8-408035999ba1" points="79.194 158.129 78.986 158.129 78.882 158.309 78.986 158.489 79.194 158.489 79.298 158.309 79.194 158.129"/><polygon class="88f2faf6-a323-4a3f-98b8-408035999ba1" points="78.622 158.627 78.414 158.627 78.311 158.807 78.414 158.987 78.622 158.987 78.726 158.807 78.622 158.627"/><polygon class="88f2faf6-a323-4a3f-98b8-408035999ba1" points="79.194 158.627 78.986 158.627 78.882 158.807 78.986 158.987 79.194 158.987 79.298 158.807 79.194 158.627"/><circle class="63f24361-3cc3-48d0-8529-a7bb756605a7" cx="71.8486" cy="170.3841" r="1.0296"/><path class="aa8acb81-152f-465d-88eb-076ddae15245" d="M72.7184,169.1462l.316-1.3208a.8687.8687,0,0,0-.845-1.071h-.6816a.8688.8688,0,0,0-.845,1.071l.316,1.3208a.7131.7131,0,0,0,.6934.547h.3528A.713.713,0,0,0,72.7184,169.1462Z"/><path class="aa8acb81-152f-465d-88eb-076ddae15245" d="M73.3049,170.7943l1.3508-.14a.8688.8688,0,0,0,.73-1.1523l-.2259-.6431a.869.869,0,0,0-1.2907-.4422l-1.1412.7361a.7128.7128,0,0,0-.2862.8355l.1169.3329A.7131.7131,0,0,0,73.3049,170.7943Z"/><path class="aa8acb81-152f-465d-88eb-076ddae15245" d="M71.9444,171.894l.58,1.2281a.8689.8689,0,0,0,1.3293.307l.5318-.4264a.869.869,0,0,0-.0107-1.3643l-1.0728-.8326a.7129.7129,0,0,0-.8832.007l-.2752.2207A.7131.7131,0,0,0,71.9444,171.894Z"/><path class="aa8acb81-152f-465d-88eb-076ddae15245" d="M70.4165,170.8719l-1.0335.8809a.8688.8688,0,0,0,.0517,1.3633l.5508.4016a.8688.8688,0,0,0,1.3138-.3676l.5228-1.2533a.713.713,0,0,0-.238-.8505l-.2851-.2079A.7129.7129,0,0,0,70.4165,170.8719Z"/><path class="aa8acb81-152f-465d-88eb-076ddae15245" d="M70.9324,169.18l-1.1629-.7013a.8688.8688,0,0,0-1.2767.4807l-.2065.65a.8688.8688,0,0,0,.7647,1.13l1.3543.099a.7129.7129,0,0,0,.7314-.495l.1069-.3363A.7128.7128,0,0,0,70.9324,169.18Z"/><polygon class="88f2faf6-a323-4a3f-98b8-408035999ba1" points="71.743 170.18 71.638 170.18 71.586 170.271 71.638 170.362 71.743 170.362 71.796 170.271 71.743 170.18"/><polygon class="88f2faf6-a323-4a3f-98b8-408035999ba1" points="72.033 170.18 71.928 170.18 71.875 170.271 71.928 170.362 72.033 170.362 72.085 170.271 72.033 170.18"/><polygon class="88f2faf6-a323-4a3f-98b8-408035999ba1" points="71.743 170.432 71.638 170.432 71.586 170.523 71.638 170.614 71.743 170.614 71.796 170.523 71.743 170.432"/><polygon class="88f2faf6-a323-4a3f-98b8-408035999ba1" points="72.033 170.432 71.928 170.432 71.875 170.523 71.928 170.614 72.033 170.614 72.085 170.523 72.033 170.432"/><line class="f62c243c-8a23-4c81-b994-0e69518a06ea" x1="224.6966" y1="201.4413" x2="224.6966" y2="171.0666"/><path class="9ca14eb9-750f-4360-adee-29f804ea2971" d="M221.1087,189.7672a3.8111,3.8111,0,0,1,3.5879,2.0781,3.8108,3.8108,0,0,1-3.5879-2.0781Z"/><path class="9ca14eb9-750f-4360-adee-29f804ea2971" d="M221.1087,180.4351a3.8111,3.8111,0,0,1,3.5879,2.0781,3.8108,3.8108,0,0,1-3.5879-2.0781Z"/><path class="9ca14eb9-750f-4360-adee-29f804ea2971" d="M228.2845,183.9285a3.8111,3.8111,0,0,0-3.5879,2.0781,3.8108,3.8108,0,0,0,3.5879-2.0781Z"/><path class="9ca14eb9-750f-4360-adee-29f804ea2971" d="M228.2845,192.6889a3.8111,3.8111,0,0,0-3.5879,2.0781,3.8112,3.8112,0,0,0,3.5879-2.0781Z"/><line class="f62c243c-8a23-4c81-b994-0e69518a06ea" x1="224.6966" y1="185.9233" x2="229.348" y2="178.5748"/><circle class="63f24361-3cc3-48d0-8529-a7bb756605a7" cx="224.686" cy="170.7747" r="1.3098"/><path class="aa8acb81-152f-465d-88eb-076ddae15245" d="M223.58,169.2l-.402-1.68a1.1052,1.1052,0,0,1,1.0749-1.3624h.8671a1.1053,1.1053,0,0,1,1.0749,1.3624l-.4021,1.68a.9068.9068,0,0,1-.882.6959h-.4488A.907.907,0,0,1,223.58,169.2Z"/><path class="aa8acb81-152f-465d-88eb-076ddae15245" d="M222.8336,171.2965l-1.7183-.1777a1.1053,1.1053,0,0,1-.9291-1.4658l.2875-.818a1.1052,1.1052,0,0,1,1.6418-.5624l1.4517.9362a.907.907,0,0,1,.3641,1.0629l-.1488.4234A.9069.9069,0,0,1,222.8336,171.2965Z"/><path class="aa8acb81-152f-465d-88eb-076ddae15245" d="M224.5641,172.6954l-.7373,1.5622a1.1053,1.1053,0,0,1-1.6909.3906l-.6765-.5425a1.1052,1.1052,0,0,1,.0138-1.7353l1.3646-1.0592a.9069.9069,0,0,1,1.1234.0088l.35.2808A.9068.9068,0,0,1,224.5641,172.6954Z"/><path class="aa8acb81-152f-465d-88eb-076ddae15245" d="M226.5078,171.3953l1.3146,1.1206a1.1051,1.1051,0,0,1-.0658,1.7341l-.7006.5109a1.1052,1.1052,0,0,1-1.6712-.4676l-.665-1.5943a.907.907,0,0,1,.3027-1.0819l.3627-.2644A.9068.9068,0,0,1,226.5078,171.3953Z"/><path class="aa8acb81-152f-465d-88eb-076ddae15245" d="M225.8515,169.2432l1.4792-.8921a1.1052,1.1052,0,0,1,1.6241.6115l.2627.8264a1.1052,1.1052,0,0,1-.9727,1.4371l-1.7228.1259a.9068.9068,0,0,1-.93-.63l-.136-.4277A.907.907,0,0,1,225.8515,169.2432Z"/><polygon class="88f2faf6-a323-4a3f-98b8-408035999ba1" points="224.82 170.515 224.953 170.515 225.02 170.63 224.953 170.746 224.82 170.746 224.753 170.63 224.82 170.515"/><polygon class="88f2faf6-a323-4a3f-98b8-408035999ba1" points="224.452 170.515 224.586 170.515 224.652 170.63 224.586 170.746 224.452 170.746 224.385 170.63 224.452 170.515"/><polygon class="88f2faf6-a323-4a3f-98b8-408035999ba1" points="224.82 170.835 224.953 170.835 225.02 170.951 224.953 171.067 224.82 171.067 224.753 170.951 224.82 170.835"/><polygon class="88f2faf6-a323-4a3f-98b8-408035999ba1" points="224.452 170.835 224.586 170.835 224.652 170.951 224.586 171.067 224.452 171.067 224.385 170.951 224.452 170.835"/><path class="aa8acb81-152f-465d-88eb-076ddae15245" d="M230.7863,176.2423a2.4326,2.4326,0,0,1-.1944,1.9385c-.3762.5651-.5339,1.44-1.5254.8043-.9178-.5881-.2853-1.1387.06-1.7234A2.4324,2.4324,0,0,1,230.7863,176.2423Z"/><line class="f62c243c-8a23-4c81-b994-0e69518a06ea" x1="95.7592" y1="77.827" x2="95.7592" y2="47.4523"/><path class="9ca14eb9-750f-4360-adee-29f804ea2971" d="M92.1713,66.1529a3.8108,3.8108,0,0,1,3.5879,2.0781,3.8108,3.8108,0,0,1-3.5879-2.0781Z"/><path class="9ca14eb9-750f-4360-adee-29f804ea2971" d="M92.1713,56.8207a3.8113,3.8113,0,0,1,3.5879,2.0781,3.8108,3.8108,0,0,1-3.5879-2.0781Z"/><path class="9ca14eb9-750f-4360-adee-29f804ea2971" d="M99.3471,60.3141a3.8114,3.8114,0,0,0-3.5879,2.0782,3.8111,3.8111,0,0,0,3.5879-2.0782Z"/><path class="9ca14eb9-750f-4360-adee-29f804ea2971" d="M99.3471,69.0745a3.8111,3.8111,0,0,0-3.5879,2.0781,3.8108,3.8108,0,0,0,3.5879-2.0781Z"/><line class="f62c243c-8a23-4c81-b994-0e69518a06ea" x1="95.7592" y1="62.309" x2="100.4106" y2="54.9604"/><circle class="63f24361-3cc3-48d0-8529-a7bb756605a7" cx="95.7486" cy="47.1604" r="1.3098"/><path class="aa8acb81-152f-465d-88eb-076ddae15245" d="M94.6422,45.5857l-.402-1.68a1.1053,1.1053,0,0,1,1.0749-1.3625h.8671a1.1053,1.1053,0,0,1,1.0749,1.3625l-.402,1.68a.907.907,0,0,1-.8821.6958h-.4488A.907.907,0,0,1,94.6422,45.5857Z"/><path class="aa8acb81-152f-465d-88eb-076ddae15245" d="M93.8962,47.6822l-1.7183-.1777a1.1052,1.1052,0,0,1-.929-1.4658l.2874-.8181a1.1053,1.1053,0,0,1,1.6418-.5624l1.4517.9363a.9069.9069,0,0,1,.3641,1.0628l-.1488.4234A.907.907,0,0,1,93.8962,47.6822Z"/><path class="aa8acb81-152f-465d-88eb-076ddae15245" d="M95.6268,49.0811,94.89,50.6433a1.1053,1.1053,0,0,1-1.691.39l-.6764-.5424a1.1052,1.1052,0,0,1,.0137-1.7354L93.9,47.6968a.9069.9069,0,0,1,1.1234.0089l.35.2808A.9069.9069,0,0,1,95.6268,49.0811Z"/><path class="aa8acb81-152f-465d-88eb-076ddae15245" d="M97.57,47.7809l1.3147,1.1206a1.1053,1.1053,0,0,1-.0658,1.7342l-.7007.5109a1.1052,1.1052,0,0,1-1.6712-.4676l-.665-1.5943a.9069.9069,0,0,1,.3027-1.0819l.3627-.2645A.907.907,0,0,1,97.57,47.7809Z"/><path class="aa8acb81-152f-465d-88eb-076ddae15245" d="M96.9141,45.6289l1.4792-.8922a1.1052,1.1052,0,0,1,1.6241.6116l.2628.8263a1.1053,1.1053,0,0,1-.9728,1.4372l-1.7228.1259a.9069.9069,0,0,1-.93-.63l-.136-.4277A.9069.9069,0,0,1,96.9141,45.6289Z"/><polygon class="88f2faf6-a323-4a3f-98b8-408035999ba1" points="95.882 46.9 96.016 46.9 96.083 47.016 96.016 47.132 95.882 47.132 95.816 47.016 95.882 46.9"/><polygon class="88f2faf6-a323-4a3f-98b8-408035999ba1" points="95.515 46.9 95.648 46.9 95.715 47.016 95.648 47.132 95.515 47.132 95.448 47.016 95.515 46.9"/><polygon class="88f2faf6-a323-4a3f-98b8-408035999ba1" points="95.882 47.221 96.016 47.221 96.083 47.337 96.016 47.452 95.882 47.452 95.816 47.337 95.882 47.221"/><polygon class="88f2faf6-a323-4a3f-98b8-408035999ba1" points="95.515 47.221 95.648 47.221 95.715 47.337 95.648 47.452 95.515 47.452 95.448 47.337 95.515 47.221"/><path class="aa8acb81-152f-465d-88eb-076ddae15245" d="M101.8489,52.6279a2.4329,2.4329,0,0,1-.1944,1.9386c-.3762.5651-.5339,1.44-1.5254.8042-.9178-.5881-.2853-1.1386.0595-1.7234A2.4331,2.4331,0,0,1,101.8489,52.6279Z"/><path class="068b70f7-f278-422a-8bbc-eed07003fc51" d="M574.6782,105.3021a261.79,261.79,0,0,1-58.9674,34.6007c-42.4628,17.9057-78.7563,19.8311-104.2894,20.9553-45.0989,1.9858-79.5995-4.91-111.1121-11.2086-27.2784-5.4523-50.6223-12.4372-62.866-16.082-23.3544-6.9524-45.6374-15.96-60.7479-21.6938"/><line class="f62c243c-8a23-4c81-b994-0e69518a06ea" x1="196.9003" y1="217.3259" x2="196.9003" y2="167.6974"/><line class="f62c243c-8a23-4c81-b994-0e69518a06ea" x1="196.9003" y1="185.6919" x2="191.1542" y2="176.7088"/><line class="f62c243c-8a23-4c81-b994-0e69518a06ea" x1="196.8357" y1="179.5364" x2="200.1912" y2="174.2907"/><path class="9ca14eb9-750f-4360-adee-29f804ea2971" d="M192.325,181.73a1.0448,1.0448,0,1,1-.4673,1.7462A1.8022,1.8022,0,0,1,192.325,181.73Z"/><circle class="aeef3d8a-b682-481b-aca6-85fce7eb7c62" cx="189.4768" cy="176.0378" r="2.3459"/><circle class="aeef3d8a-b682-481b-aca6-85fce7eb7c62" cx="193.2672" cy="176.0378" r="2.3459"/><circle class="aeef3d8a-b682-481b-aca6-85fce7eb7c62" cx="190.62" cy="173.6919" r="2.3459"/><circle class="aeef3d8a-b682-481b-aca6-85fce7eb7c62" cx="192.1241" cy="173.6919" r="2.3459"/><path class="9ca14eb9-750f-4360-adee-29f804ea2971" d="M191.778,175.7143a2.3327,2.3327,0,0,0-.424-1.0575,2.2255,2.2255,0,0,0-.4289,1.0623,1.9875,1.9875,0,0,0-.0243.2973v.0195a2.32,2.32,0,0,0,.4532,1.3841,2.348,2.348,0,0,0,.4483-1.3841v-.0195A2.0512,2.0512,0,0,0,191.778,175.7143Z"/><path class="aeef3d8a-b682-481b-aca6-85fce7eb7c62" d="M192.9659,173.2a2.4225,2.4225,0,0,0-1.6407.645,2.4395,2.4395,0,1,0,0,3.5891,2.4362,2.4362,0,1,0,1.6407-4.2341Z"/><path class="9ca14eb9-750f-4360-adee-29f804ea2971" d="M191.3223,177.448a2.3165,2.3165,0,0,1-1.8665.9357,2.346,2.346,0,0,1-2.344-2.3489,2.2579,2.2579,0,0,1,.151-.8139,1.96,1.96,0,0,0-.039.4142,2.4314,2.4314,0,0,0,4.079,1.7983C191.3077,177.4383,191.3175,177.4432,191.3223,177.448Z"/><path class="9ca14eb9-750f-4360-adee-29f804ea2971" d="M191.3516,177.448a2.3165,2.3165,0,0,0,1.8665.9357,2.346,2.346,0,0,0,2.344-2.3489,2.2579,2.2579,0,0,0-.151-.8139,1.96,1.96,0,0,1,.039.4142,2.4314,2.4314,0,0,1-4.079,1.7983C191.3662,177.4383,191.3564,177.4432,191.3516,177.448Z"/><path class="9ca14eb9-750f-4360-adee-29f804ea2971" d="M191.3045,177.4577a2.3165,2.3165,0,0,1-1.9266-.8047,2.346,2.346,0,0,1,.2519-3.3089,2.2568,2.2568,0,0,1,.7154-.4162,1.9528,1.9528,0,0,0-.3394.2406,2.4314,2.4314,0,0,0,1.297,4.2649C191.3023,177.44,191.305,177.4509,191.3045,177.4577Z"/><path class="9ca14eb9-750f-4360-adee-29f804ea2971" d="M191.3516,177.4577a2.3165,2.3165,0,0,0,1.9266-.8047,2.346,2.346,0,0,0-.2519-3.3089,2.2568,2.2568,0,0,0-.7154-.4162,1.9528,1.9528,0,0,1,.3394.2406,2.4314,2.4314,0,0,1-1.297,4.2649C191.3538,177.44,191.3511,177.4509,191.3516,177.4577Z"/><line class="f62c243c-8a23-4c81-b994-0e69518a06ea" x1="196.9003" y1="200.3002" x2="191.1542" y2="191.3171"/><path class="9ca14eb9-750f-4360-adee-29f804ea2971" d="M192.325,196.3382a1.0449,1.0449,0,1,1-.4673,1.7462A1.8024,1.8024,0,0,1,192.325,196.3382Z"/><circle class="aeef3d8a-b682-481b-aca6-85fce7eb7c62" cx="189.4768" cy="190.6461" r="2.3459"/><circle class="aeef3d8a-b682-481b-aca6-85fce7eb7c62" cx="193.2672" cy="190.6461" r="2.3459"/><circle class="aeef3d8a-b682-481b-aca6-85fce7eb7c62" cx="190.62" cy="188.3002" r="2.3459"/><circle class="aeef3d8a-b682-481b-aca6-85fce7eb7c62" cx="192.1241" cy="188.3002" r="2.3459"/><path class="9ca14eb9-750f-4360-adee-29f804ea2971" d="M191.778,190.3226a2.3331,2.3331,0,0,0-.424-1.0575,2.2254,2.2254,0,0,0-.4289,1.0624,1.9854,1.9854,0,0,0-.0243.2973v.0195a2.3194,2.3194,0,0,0,.4532,1.384,2.3479,2.3479,0,0,0,.4483-1.384v-.0195A2.0526,2.0526,0,0,0,191.778,190.3226Z"/><path class="aeef3d8a-b682-481b-aca6-85fce7eb7c62" d="M192.9659,187.8084a2.4225,2.4225,0,0,0-1.6407.645,2.44,2.44,0,1,0,0,3.5891,2.4362,2.4362,0,1,0,1.6407-4.2341Z"/><path class="9ca14eb9-750f-4360-adee-29f804ea2971" d="M191.3223,192.0564a2.3167,2.3167,0,0,1-1.8665.9356,2.346,2.346,0,0,1-2.344-2.3489,2.2574,2.2574,0,0,1,.151-.8138,1.9592,1.9592,0,0,0-.039.4142,2.4314,2.4314,0,0,0,4.079,1.7982C191.3077,192.0466,191.3175,192.0515,191.3223,192.0564Z"/><path class="9ca14eb9-750f-4360-adee-29f804ea2971" d="M191.3516,192.0564a2.3167,2.3167,0,0,0,1.8665.9356,2.346,2.346,0,0,0,2.344-2.3489,2.2574,2.2574,0,0,0-.151-.8138,1.9592,1.9592,0,0,1,.039.4142,2.4314,2.4314,0,0,1-4.079,1.7982C191.3662,192.0466,191.3564,192.0515,191.3516,192.0564Z"/><path class="9ca14eb9-750f-4360-adee-29f804ea2971" d="M191.3045,192.0661a2.3168,2.3168,0,0,1-1.9266-.8047,2.346,2.346,0,0,1,.2519-3.3089,2.2571,2.2571,0,0,1,.7154-.4163,1.9582,1.9582,0,0,0-.3394.2406,2.4314,2.4314,0,0,0,1.297,4.2649C191.3023,192.0486,191.305,192.0592,191.3045,192.0661Z"/><path class="9ca14eb9-750f-4360-adee-29f804ea2971" d="M191.3516,192.0661a2.3168,2.3168,0,0,0,1.9266-.8047,2.346,2.346,0,0,0-.2519-3.3089,2.2571,2.2571,0,0,0-.7154-.4163,1.9582,1.9582,0,0,1,.3394.2406,2.4314,2.4314,0,0,1-1.297,4.2649C191.3538,192.0486,191.3511,192.0592,191.3516,192.0661Z"/><line class="f62c243c-8a23-4c81-b994-0e69518a06ea" x1="196.9003" y1="194.294" x2="202.6464" y2="185.3109"/><path class="9ca14eb9-750f-4360-adee-29f804ea2971" d="M201.4756,190.3319a1.0449,1.0449,0,1,0,.4673,1.7463A1.8027,1.8027,0,0,0,201.4756,190.3319Z"/><circle class="aeef3d8a-b682-481b-aca6-85fce7eb7c62" cx="204.3238" cy="184.6399" r="2.3459"/><circle class="aeef3d8a-b682-481b-aca6-85fce7eb7c62" cx="200.5334" cy="184.6399" r="2.3459"/><circle class="aeef3d8a-b682-481b-aca6-85fce7eb7c62" cx="203.1806" cy="182.2939" r="2.3459"/><circle class="aeef3d8a-b682-481b-aca6-85fce7eb7c62" cx="201.6765" cy="182.2939" r="2.3459"/><path class="9ca14eb9-750f-4360-adee-29f804ea2971" d="M202.0226,184.3164a2.3335,2.3335,0,0,1,.424-1.0576,2.2263,2.2263,0,0,1,.4289,1.0624,1.9875,1.9875,0,0,1,.0243.2973v.0195a2.3192,2.3192,0,0,1-.4532,1.384,2.3477,2.3477,0,0,1-.4483-1.384v-.0195A2.0512,2.0512,0,0,1,202.0226,184.3164Z"/><path class="aeef3d8a-b682-481b-aca6-85fce7eb7c62" d="M200.8347,181.8022a2.4228,2.4228,0,0,1,1.6407.6449,2.44,2.44,0,1,1,0,3.5892,2.4362,2.4362,0,1,1-1.6407-4.2341Z"/><path class="9ca14eb9-750f-4360-adee-29f804ea2971" d="M202.4783,186.05a2.3165,2.3165,0,0,0,1.8665.9357,2.346,2.346,0,0,0,2.344-2.349,2.2578,2.2578,0,0,0-.151-.8138,1.9592,1.9592,0,0,1,.039.4142,2.4314,2.4314,0,0,1-4.079,1.7983C202.4929,186.04,202.4831,186.0452,202.4783,186.05Z"/><path class="9ca14eb9-750f-4360-adee-29f804ea2971" d="M202.449,186.05a2.3165,2.3165,0,0,1-1.8665.9357,2.346,2.346,0,0,1-2.344-2.349,2.2578,2.2578,0,0,1,.151-.8138,1.9592,1.9592,0,0,0-.039.4142,2.4314,2.4314,0,0,0,4.079,1.7983C202.4344,186.04,202.4442,186.0452,202.449,186.05Z"/><path class="9ca14eb9-750f-4360-adee-29f804ea2971" d="M202.4961,186.06a2.3168,2.3168,0,0,0,1.9266-.8047,2.346,2.346,0,0,0-.2519-3.3089,2.2549,2.2549,0,0,0-.7154-.4162,1.9528,1.9528,0,0,1,.3394.2406,2.4315,2.4315,0,0,1-1.297,4.2649C202.4983,186.0424,202.4956,186.0529,202.4961,186.06Z"/><path class="9ca14eb9-750f-4360-adee-29f804ea2971" d="M202.449,186.06a2.3168,2.3168,0,0,1-1.9266-.8047,2.346,2.346,0,0,1,.2519-3.3089,2.2549,2.2549,0,0,1,.7154-.4162,1.9528,1.9528,0,0,0-.3394.2406,2.4315,2.4315,0,0,0,1.297,4.2649C202.4468,186.0424,202.45,186.0529,202.449,186.06Z"/><circle class="aeef3d8a-b682-481b-aca6-85fce7eb7c62" cx="195.0147" cy="166.7046" r="2.3459"/><circle class="aeef3d8a-b682-481b-aca6-85fce7eb7c62" cx="198.8051" cy="166.7046" r="2.3459"/><circle class="aeef3d8a-b682-481b-aca6-85fce7eb7c62" cx="196.1578" cy="164.3586" r="2.3459"/><circle class="aeef3d8a-b682-481b-aca6-85fce7eb7c62" cx="197.6619" cy="164.3586" r="2.3459"/><path class="9ca14eb9-750f-4360-adee-29f804ea2971" d="M197.3158,166.3811a2.3334,2.3334,0,0,0-.4239-1.0576,2.2253,2.2253,0,0,0-.4289,1.0624,1.9875,1.9875,0,0,0-.0244.2973v.0195a2.3189,2.3189,0,0,0,.4533,1.3841,2.3487,2.3487,0,0,0,.4483-1.3841v-.0195A2.0376,2.0376,0,0,0,197.3158,166.3811Z"/><path class="aeef3d8a-b682-481b-aca6-85fce7eb7c62" d="M198.5037,163.8669a2.422,2.422,0,0,0-1.6406.645,2.4395,2.4395,0,1,0,0,3.5891,2.4362,2.4362,0,1,0,1.6406-4.2341Z"/><path class="9ca14eb9-750f-4360-adee-29f804ea2971" d="M196.86,168.1148a2.3167,2.3167,0,0,1-1.8665.9357,2.3461,2.3461,0,0,1-2.3441-2.349,2.2557,2.2557,0,0,1,.1511-.8138,1.9592,1.9592,0,0,0-.039.4142,2.4314,2.4314,0,0,0,4.079,1.7983C196.8456,168.1051,196.8553,168.11,196.86,168.1148Z"/><path class="9ca14eb9-750f-4360-adee-29f804ea2971" d="M196.8894,168.1148a2.3167,2.3167,0,0,0,1.8665.9357,2.3461,2.3461,0,0,0,2.3441-2.349,2.2557,2.2557,0,0,0-.1511-.8138,1.9527,1.9527,0,0,1,.039.4142,2.4314,2.4314,0,0,1-4.079,1.7983C196.9041,168.1051,196.8943,168.11,196.8894,168.1148Z"/><path class="9ca14eb9-750f-4360-adee-29f804ea2971" d="M196.8423,168.1245a2.3166,2.3166,0,0,1-1.9266-.8047,2.3461,2.3461,0,0,1,.2519-3.3089,2.2572,2.2572,0,0,1,.7155-.4162,1.9574,1.9574,0,0,0-.34.2406,2.4314,2.4314,0,0,0,1.2971,4.2649C196.84,168.1071,196.8428,168.1177,196.8423,168.1245Z"/><path class="9ca14eb9-750f-4360-adee-29f804ea2971" d="M196.89,168.1245a2.3166,2.3166,0,0,0,1.9266-.8047,2.3461,2.3461,0,0,0-.2519-3.3089,2.2572,2.2572,0,0,0-.7155-.4162,1.9574,1.9574,0,0,1,.3395.2406,2.4314,2.4314,0,0,1-1.2971,4.2649C196.8916,168.1071,196.889,168.1177,196.89,168.1245Z"/><path class="9ca14eb9-750f-4360-adee-29f804ea2971" d="M202.4531,172.9416c-.5751,1.1889-1.6649,1.8527-2.4326,1.4814s-.92-1.6357-.3445-2.8246a2.7628,2.7628,0,0,1,.1384-.2525c-.4367,1.1043-.2542,2.2157.4565,2.5594s1.6952-.2031,2.2942-1.2289A2.8,2.8,0,0,1,202.4531,172.9416Z"/><path class="aeef3d8a-b682-481b-aca6-85fce7eb7c62" d="M202.5651,172.6764c-.599,1.0258-1.5835,1.5727-2.2942,1.2289s-.8932-1.4551-.4565-2.5594c.5967-1.0322,1.5812-1.5792,2.2919-1.2354S203.0038,171.5677,202.5651,172.6764Z"/><path class="aeef3d8a-b682-481b-aca6-85fce7eb7c62" d="M202.7056,172.42q-.0638.1317-.1405.2569c-.599,1.0258-1.5835,1.5727-2.2942,1.2289s-.8932-1.4551-.4565-2.5594q.05-.1379.1141-.27c.5772-1.1932,1.6626-1.8592,2.43-1.4879S203.2827,171.2262,202.7056,172.42Z"/><line class="f62c243c-8a23-4c81-b994-0e69518a06ea" x1="249.8172" y1="222.9097" x2="249.8172" y2="180.7498"/><line class="f62c243c-8a23-4c81-b994-0e69518a06ea" x1="249.8172" y1="196.0363" x2="244.9359" y2="188.4051"/><line class="f62c243c-8a23-4c81-b994-0e69518a06ea" x1="249.7624" y1="190.8072" x2="252.6129" y2="186.3509"/><path class="9ca14eb9-750f-4360-adee-29f804ea2971" d="M245.9305,192.6706a.8876.8876,0,1,1-.397,1.4834A1.531,1.531,0,0,1,245.9305,192.6706Z"/><circle class="aeef3d8a-b682-481b-aca6-85fce7eb7c62" cx="243.5109" cy="187.8351" r="1.9929"/><circle class="aeef3d8a-b682-481b-aca6-85fce7eb7c62" cx="246.7308" cy="187.8351" r="1.9929"/><circle class="aeef3d8a-b682-481b-aca6-85fce7eb7c62" cx="244.482" cy="185.8422" r="1.9929"/><circle class="aeef3d8a-b682-481b-aca6-85fce7eb7c62" cx="245.7597" cy="185.8422" r="1.9929"/><path class="9ca14eb9-750f-4360-adee-29f804ea2971" d="M245.4657,187.56a1.9815,1.9815,0,0,0-.36-.8984,1.89,1.89,0,0,0-.3643.9025,1.6877,1.6877,0,0,0-.0207.2525v.0166a1.97,1.97,0,0,0,.385,1.1758,1.9953,1.9953,0,0,0,.3808-1.1758v-.0166A1.73,1.73,0,0,0,245.4657,187.56Z"/><path class="aeef3d8a-b682-481b-aca6-85fce7eb7c62" d="M246.4749,185.4245a2.058,2.058,0,0,0-1.3938.5478,2.0724,2.0724,0,1,0,0,3.049,2.07,2.07,0,1,0,1.3938-3.5968Z"/><path class="9ca14eb9-750f-4360-adee-29f804ea2971" d="M245.0787,189.0331a1.9681,1.9681,0,0,1-1.5856.7949,1.993,1.993,0,0,1-1.9913-1.9955,1.917,1.917,0,0,1,.1283-.6914,1.666,1.666,0,0,0-.0331.3519,2.0656,2.0656,0,0,0,3.4651,1.5277Z"/><path class="9ca14eb9-750f-4360-adee-29f804ea2971" d="M245.1035,189.0331a1.968,1.968,0,0,0,1.5856.7949,1.993,1.993,0,0,0,1.9913-1.9955,1.917,1.917,0,0,0-.1283-.6914,1.666,1.666,0,0,1,.0331.3519,2.0656,2.0656,0,0,1-3.4651,1.5277Z"/><path class="9ca14eb9-750f-4360-adee-29f804ea2971" d="M245.0635,189.0413a1.968,1.968,0,0,1-1.6367-.6835,1.9931,1.9931,0,0,1,.214-2.811,1.9167,1.9167,0,0,1,.6078-.3536,1.6623,1.6623,0,0,0-.2883.2044,2.0655,2.0655,0,0,0,1.1018,3.6231C245.0617,189.0265,245.0639,189.0355,245.0635,189.0413Z"/><path class="9ca14eb9-750f-4360-adee-29f804ea2971" d="M245.1036,189.0413a1.9678,1.9678,0,0,0,1.6366-.6835,1.9931,1.9931,0,0,0-.214-2.811,1.9156,1.9156,0,0,0-.6078-.3536,1.663,1.663,0,0,1,.2884.2044,2.0655,2.0655,0,0,1-1.1019,3.6231C245.1054,189.0265,245.1031,189.0355,245.1036,189.0413Z"/><line class="f62c243c-8a23-4c81-b994-0e69518a06ea" x1="249.8172" y1="208.4462" x2="244.9359" y2="200.815"/><path class="9ca14eb9-750f-4360-adee-29f804ea2971" d="M245.9305,205.0805a.8876.8876,0,1,1-.397,1.4834A1.531,1.531,0,0,1,245.9305,205.0805Z"/><circle class="aeef3d8a-b682-481b-aca6-85fce7eb7c62" cx="243.5109" cy="200.245" r="1.9929"/><circle class="aeef3d8a-b682-481b-aca6-85fce7eb7c62" cx="246.7308" cy="200.245" r="1.9929"/><circle class="aeef3d8a-b682-481b-aca6-85fce7eb7c62" cx="244.482" cy="198.2521" r="1.9929"/><circle class="aeef3d8a-b682-481b-aca6-85fce7eb7c62" cx="245.7597" cy="198.2521" r="1.9929"/><path class="9ca14eb9-750f-4360-adee-29f804ea2971" d="M245.4657,199.97a1.9815,1.9815,0,0,0-.36-.8984,1.89,1.89,0,0,0-.3643.9025,1.6877,1.6877,0,0,0-.0207.2525v.0166a1.97,1.97,0,0,0,.385,1.1758,1.9953,1.9953,0,0,0,.3808-1.1758v-.0166A1.73,1.73,0,0,0,245.4657,199.97Z"/><path class="aeef3d8a-b682-481b-aca6-85fce7eb7c62" d="M246.4749,197.8344a2.058,2.058,0,0,0-1.3938.5478,2.0724,2.0724,0,1,0,0,3.049,2.07,2.07,0,1,0,1.3938-3.5968Z"/><path class="9ca14eb9-750f-4360-adee-29f804ea2971" d="M245.0787,201.443a1.9681,1.9681,0,0,1-1.5856.7949,1.993,1.993,0,0,1-1.9913-1.9955,1.917,1.917,0,0,1,.1283-.6914,1.666,1.666,0,0,0-.0331.3519,2.0656,2.0656,0,0,0,3.4651,1.5277Z"/><path class="9ca14eb9-750f-4360-adee-29f804ea2971" d="M245.1035,201.443a1.968,1.968,0,0,0,1.5856.7949,1.993,1.993,0,0,0,1.9913-1.9955,1.917,1.917,0,0,0-.1283-.6914,1.666,1.666,0,0,1,.0331.3519,2.0656,2.0656,0,0,1-3.4651,1.5277Z"/><path class="9ca14eb9-750f-4360-adee-29f804ea2971" d="M245.0635,201.4512a1.968,1.968,0,0,1-1.6367-.6835,1.9931,1.9931,0,0,1,.214-2.811,1.9167,1.9167,0,0,1,.6078-.3536,1.6623,1.6623,0,0,0-.2883.2044,2.0655,2.0655,0,0,0,1.1018,3.6231C245.0617,201.4364,245.0639,201.4454,245.0635,201.4512Z"/><path class="9ca14eb9-750f-4360-adee-29f804ea2971" d="M245.1036,201.4512a1.9678,1.9678,0,0,0,1.6366-.6835,1.9931,1.9931,0,0,0-.214-2.811,1.9156,1.9156,0,0,0-.6078-.3536,1.663,1.663,0,0,1,.2884.2044,2.0655,2.0655,0,0,1-1.1019,3.6231C245.1054,201.4364,245.1031,201.4454,245.1036,201.4512Z"/><line class="f62c243c-8a23-4c81-b994-0e69518a06ea" x1="249.8172" y1="203.3438" x2="254.6985" y2="195.7126"/><path class="9ca14eb9-750f-4360-adee-29f804ea2971" d="M253.7039,199.9781a.8876.8876,0,1,0,.397,1.4834A1.5312,1.5312,0,0,0,253.7039,199.9781Z"/><circle class="aeef3d8a-b682-481b-aca6-85fce7eb7c62" cx="256.1235" cy="195.1426" r="1.9929"/><circle class="aeef3d8a-b682-481b-aca6-85fce7eb7c62" cx="252.9035" cy="195.1426" r="1.9929"/><circle class="aeef3d8a-b682-481b-aca6-85fce7eb7c62" cx="255.1524" cy="193.1497" r="1.9929"/><circle class="aeef3d8a-b682-481b-aca6-85fce7eb7c62" cx="253.8747" cy="193.1497" r="1.9929"/><path class="9ca14eb9-750f-4360-adee-29f804ea2971" d="M254.1686,194.8678a1.9832,1.9832,0,0,1,.36-.8984,1.89,1.89,0,0,1,.3643.9025,1.688,1.688,0,0,1,.0207.2526v.0165a1.97,1.97,0,0,1-.385,1.1758,1.9949,1.9949,0,0,1-.3808-1.1758v-.0165A1.7434,1.7434,0,0,1,254.1686,194.8678Z"/><path class="aeef3d8a-b682-481b-aca6-85fce7eb7c62" d="M253.16,192.732a2.0581,2.0581,0,0,1,1.3938.5479,2.0724,2.0724,0,1,1,0,3.049,2.07,2.07,0,1,1-1.3938-3.5969Z"/><path class="9ca14eb9-750f-4360-adee-29f804ea2971" d="M254.5557,196.3406a1.9681,1.9681,0,0,0,1.5856.7949,1.9929,1.9929,0,0,0,1.9913-1.9954,1.9166,1.9166,0,0,0-.1283-.6914,1.6648,1.6648,0,0,1,.0331.3519,2.0655,2.0655,0,0,1-3.4651,1.5276Z"/><path class="9ca14eb9-750f-4360-adee-29f804ea2971" d="M254.5309,196.3406a1.968,1.968,0,0,1-1.5856.7949,1.993,1.993,0,0,1-1.9913-1.9954,1.9166,1.9166,0,0,1,.1283-.6914,1.6648,1.6648,0,0,0-.0331.3519,2.0655,2.0655,0,0,0,3.4651,1.5276Z"/><path class="9ca14eb9-750f-4360-adee-29f804ea2971" d="M254.5709,196.3489a1.9683,1.9683,0,0,0,1.6367-.6836,1.9929,1.9929,0,0,0-.214-2.8109,1.917,1.917,0,0,0-.6078-.3537,1.6661,1.6661,0,0,1,.2883.2044,2.0655,2.0655,0,0,1-1.1018,3.6231C254.5727,196.3341,254.5705,196.343,254.5709,196.3489Z"/><path class="9ca14eb9-750f-4360-adee-29f804ea2971" d="M254.5308,196.3489a1.9681,1.9681,0,0,1-1.6366-.6836,1.9929,1.9929,0,0,1,.214-2.8109,1.9159,1.9159,0,0,1,.6078-.3537,1.663,1.663,0,0,0-.2884.2044,2.0655,2.0655,0,0,0,1.1019,3.6231C254.529,196.3341,254.5313,196.343,254.5308,196.3489Z"/><circle class="aeef3d8a-b682-481b-aca6-85fce7eb7c62" cx="248.2153" cy="179.9064" r="1.9929"/><circle class="aeef3d8a-b682-481b-aca6-85fce7eb7c62" cx="251.4353" cy="179.9064" r="1.9929"/><circle class="aeef3d8a-b682-481b-aca6-85fce7eb7c62" cx="249.1865" cy="177.9136" r="1.9929"/><circle class="aeef3d8a-b682-481b-aca6-85fce7eb7c62" cx="250.4642" cy="177.9136" r="1.9929"/><path class="9ca14eb9-750f-4360-adee-29f804ea2971" d="M250.17,179.6316a1.9812,1.9812,0,0,0-.36-.8983,1.89,1.89,0,0,0-.3643.9025,1.6877,1.6877,0,0,0-.0207.2525v.0166a1.97,1.97,0,0,0,.385,1.1757,1.9949,1.9949,0,0,0,.3809-1.1757v-.0166A1.7445,1.7445,0,0,0,250.17,179.6316Z"/><path class="aeef3d8a-b682-481b-aca6-85fce7eb7c62" d="M251.1793,177.4958a2.0581,2.0581,0,0,0-1.3937.5479,2.0724,2.0724,0,1,0,0,3.049,2.07,2.07,0,1,0,1.3937-3.5969Z"/><path class="9ca14eb9-750f-4360-adee-29f804ea2971" d="M249.7831,181.1045a1.9682,1.9682,0,0,1-1.5856.7948,1.993,1.993,0,0,1-1.9913-1.9954,1.917,1.917,0,0,1,.1283-.6914,1.6654,1.6654,0,0,0-.0331.3519,2.0656,2.0656,0,0,0,3.4652,1.5276Z"/><path class="9ca14eb9-750f-4360-adee-29f804ea2971" d="M249.808,181.1045a1.9682,1.9682,0,0,0,1.5856.7948,1.993,1.993,0,0,0,1.9913-1.9954,1.9171,1.9171,0,0,0-.1284-.6914,1.6589,1.6589,0,0,1,.0332.3519,2.0656,2.0656,0,0,1-3.4652,1.5276Z"/><path class="9ca14eb9-750f-4360-adee-29f804ea2971" d="M249.7679,181.1127a1.9678,1.9678,0,0,1-1.6366-.6836,1.9929,1.9929,0,0,1,.214-2.8109,1.9156,1.9156,0,0,1,.6078-.3536,1.6577,1.6577,0,0,0-.2884.2044,2.0654,2.0654,0,0,0,1.1019,3.623C249.7661,181.0979,249.7684,181.1069,249.7679,181.1127Z"/><path class="9ca14eb9-750f-4360-adee-29f804ea2971" d="M249.808,181.1127a1.968,1.968,0,0,0,1.6367-.6836,1.9929,1.9929,0,0,0-.214-2.8109,1.9167,1.9167,0,0,0-.6078-.3536,1.6607,1.6607,0,0,1,.2883.2044,2.0654,2.0654,0,0,1-1.1018,3.623C249.81,181.0979,249.8076,181.1069,249.808,181.1127Z"/><path class="9ca14eb9-750f-4360-adee-29f804ea2971" d="M254.5343,185.2048c-.4885,1.01-1.4143,1.574-2.0665,1.2585s-.7811-1.3895-.2926-2.4a2.3453,2.3453,0,0,1,.1175-.2145c-.3709.9381-.2159,1.8822.3878,2.1743s1.44-.1727,1.949-1.0441A2.34,2.34,0,0,1,254.5343,185.2048Z"/><path class="aeef3d8a-b682-481b-aca6-85fce7eb7c62" d="M254.63,184.98c-.5089.8714-1.3452,1.3361-1.949,1.0441s-.7587-1.2362-.3878-2.1743c.5069-.8769,1.3433-1.3415,1.947-1.0495S255.0022,184.0377,254.63,184.98Z"/><path class="aeef3d8a-b682-481b-aca6-85fce7eb7c62" d="M254.7488,184.7613a2.4687,2.4687,0,0,1-.1193.2182c-.5089.8714-1.3452,1.3361-1.949,1.0441s-.7587-1.2362-.3878-2.1743a2.4825,2.4825,0,0,1,.097-.229c.49-1.0137,1.4123-1.5795,2.0646-1.264S255.2391,183.7476,254.7488,184.7613Z"/><line class="f62c243c-8a23-4c81-b994-0e69518a06ea" x1="8.3154" y1="119.839" x2="8.3154" y2="77.6791"/><line class="f62c243c-8a23-4c81-b994-0e69518a06ea" x1="8.3154" y1="92.9656" x2="13.1968" y2="85.3344"/><line class="f62c243c-8a23-4c81-b994-0e69518a06ea" x1="8.3703" y1="87.7365" x2="5.5198" y2="83.2802"/><path class="9ca14eb9-750f-4360-adee-29f804ea2971" d="M12.2022,89.6a1.5312,1.5312,0,0,0-1.4834-.3969,1.5318,1.5318,0,0,0,1.88,1.88A1.5388,1.5388,0,0,0,12.2022,89.6Z"/><circle class="aeef3d8a-b682-481b-aca6-85fce7eb7c62" cx="14.6217" cy="84.7644" r="1.9929"/><circle class="aeef3d8a-b682-481b-aca6-85fce7eb7c62" cx="11.4018" cy="84.7644" r="1.9929"/><circle class="aeef3d8a-b682-481b-aca6-85fce7eb7c62" cx="13.6506" cy="82.7715" r="1.9929"/><circle class="aeef3d8a-b682-481b-aca6-85fce7eb7c62" cx="12.3729" cy="82.7715" r="1.9929"/><path class="9ca14eb9-750f-4360-adee-29f804ea2971" d="M12.6669,84.49a1.9816,1.9816,0,0,1,.36-.8984,1.89,1.89,0,0,1,.3643.9025,1.6877,1.6877,0,0,1,.0207.2525v.0166a1.97,1.97,0,0,1-.385,1.1757,1.9942,1.9942,0,0,1-.3809-1.1757v-.0166A1.742,1.742,0,0,1,12.6669,84.49Z"/><path class="aeef3d8a-b682-481b-aca6-85fce7eb7c62" d="M11.6578,82.3537a2.0581,2.0581,0,0,1,1.3937.5479,2.0724,2.0724,0,1,1,0,3.049,2.07,2.07,0,1,1-1.3937-3.5969Z"/><path class="9ca14eb9-750f-4360-adee-29f804ea2971" d="M13.054,85.9624a1.968,1.968,0,0,0,1.5856.7949,1.993,1.993,0,0,0,1.9913-1.9955,1.9171,1.9171,0,0,0-.1284-.6914,1.6589,1.6589,0,0,1,.0332.3519A2.0656,2.0656,0,0,1,13.0705,85.95Z"/><path class="9ca14eb9-750f-4360-adee-29f804ea2971" d="M13.0291,85.9624a1.968,1.968,0,0,1-1.5856.7949,1.993,1.993,0,0,1-1.9913-1.9955,1.9171,1.9171,0,0,1,.1284-.6914,1.6589,1.6589,0,0,0-.0332.3519A2.0656,2.0656,0,0,0,13.0126,85.95Z"/><path class="9ca14eb9-750f-4360-adee-29f804ea2971" d="M13.0691,85.9706a1.9678,1.9678,0,0,0,1.6367-.6836,1.9929,1.9929,0,0,0-.214-2.8109,1.9156,1.9156,0,0,0-.6078-.3536,1.663,1.663,0,0,1,.2884.2044A2.0655,2.0655,0,0,1,13.0705,85.95C13.071,85.9558,13.0687,85.9648,13.0691,85.9706Z"/><path class="9ca14eb9-750f-4360-adee-29f804ea2971" d="M13.0291,85.9706a1.9678,1.9678,0,0,1-1.6367-.6836,1.9929,1.9929,0,0,1,.214-2.8109,1.9167,1.9167,0,0,1,.6078-.3536,1.663,1.663,0,0,0-.2884.2044A2.0655,2.0655,0,0,0,13.0277,85.95C13.0273,85.9558,13.03,85.9648,13.0291,85.9706Z"/><line class="f62c243c-8a23-4c81-b994-0e69518a06ea" x1="8.3154" y1="105.3755" x2="13.1968" y2="97.7443"/><path class="9ca14eb9-750f-4360-adee-29f804ea2971" d="M12.2022,102.01a1.5312,1.5312,0,0,0-1.4834-.3969,1.5318,1.5318,0,0,0,1.88,1.88A1.5388,1.5388,0,0,0,12.2022,102.01Z"/><circle class="aeef3d8a-b682-481b-aca6-85fce7eb7c62" cx="14.6217" cy="97.1743" r="1.9929"/><circle class="aeef3d8a-b682-481b-aca6-85fce7eb7c62" cx="11.4018" cy="97.1743" r="1.9929"/><circle class="aeef3d8a-b682-481b-aca6-85fce7eb7c62" cx="13.6506" cy="95.1814" r="1.9929"/><circle class="aeef3d8a-b682-481b-aca6-85fce7eb7c62" cx="12.3729" cy="95.1814" r="1.9929"/><path class="9ca14eb9-750f-4360-adee-29f804ea2971" d="M12.6669,96.9a1.9812,1.9812,0,0,1,.36-.8984,1.89,1.89,0,0,1,.3643.9025,1.6877,1.6877,0,0,1,.0207.2525v.0166a1.97,1.97,0,0,1-.385,1.1757,1.9942,1.9942,0,0,1-.3809-1.1757v-.0166A1.742,1.742,0,0,1,12.6669,96.9Z"/><path class="aeef3d8a-b682-481b-aca6-85fce7eb7c62" d="M11.6578,94.7636a2.0581,2.0581,0,0,1,1.3937.5479,2.0724,2.0724,0,1,1,0,3.049,2.07,2.07,0,1,1-1.3937-3.5969Z"/><path class="9ca14eb9-750f-4360-adee-29f804ea2971" d="M13.054,98.3723a1.968,1.968,0,0,0,1.5856.7949,1.993,1.993,0,0,0,1.9913-1.9955,1.9171,1.9171,0,0,0-.1284-.6914,1.6589,1.6589,0,0,1,.0332.3519A2.0656,2.0656,0,0,1,13.0705,98.36Z"/><path class="9ca14eb9-750f-4360-adee-29f804ea2971" d="M13.0291,98.3723a1.968,1.968,0,0,1-1.5856.7949,1.993,1.993,0,0,1-1.9913-1.9955,1.9171,1.9171,0,0,1,.1284-.6914,1.6589,1.6589,0,0,0-.0332.3519A2.0656,2.0656,0,0,0,13.0126,98.36Z"/><path class="9ca14eb9-750f-4360-adee-29f804ea2971" d="M13.0691,98.3805a1.9678,1.9678,0,0,0,1.6367-.6836,1.9929,1.9929,0,0,0-.214-2.8109,1.9156,1.9156,0,0,0-.6078-.3536,1.663,1.663,0,0,1,.2884.2044A2.0655,2.0655,0,0,1,13.0705,98.36C13.071,98.3657,13.0687,98.3747,13.0691,98.3805Z"/><path class="9ca14eb9-750f-4360-adee-29f804ea2971" d="M13.0291,98.3805a1.9678,1.9678,0,0,1-1.6367-.6836,1.9929,1.9929,0,0,1,.214-2.8109,1.9167,1.9167,0,0,1,.6078-.3536,1.663,1.663,0,0,0-.2884.2044A2.0655,2.0655,0,0,0,13.0277,98.36C13.0273,98.3657,13.03,98.3747,13.0291,98.3805Z"/><line class="f62c243c-8a23-4c81-b994-0e69518a06ea" x1="8.3154" y1="100.2731" x2="3.4341" y2="92.6419"/><path class="9ca14eb9-750f-4360-adee-29f804ea2971" d="M4.4287,96.9074a1.531,1.531,0,0,1,1.4834-.397,1.5319,1.5319,0,0,1-1.88,1.88A1.5383,1.5383,0,0,1,4.4287,96.9074Z"/><circle class="aeef3d8a-b682-481b-aca6-85fce7eb7c62" cx="2.0091" cy="92.0719" r="1.9929"/><circle class="aeef3d8a-b682-481b-aca6-85fce7eb7c62" cx="5.2291" cy="92.0719" r="1.9929"/><circle class="aeef3d8a-b682-481b-aca6-85fce7eb7c62" cx="2.9802" cy="90.079" r="1.9929"/><circle class="aeef3d8a-b682-481b-aca6-85fce7eb7c62" cx="4.258" cy="90.079" r="1.9929"/><path class="9ca14eb9-750f-4360-adee-29f804ea2971" d="M3.964,91.7971a1.9821,1.9821,0,0,0-.36-.8984,1.89,1.89,0,0,0-.3643.9025,1.688,1.688,0,0,0-.0207.2526V92.07a1.9705,1.9705,0,0,0,.385,1.1758A1.9949,1.9949,0,0,0,3.9847,92.07v-.0165A1.7433,1.7433,0,0,0,3.964,91.7971Z"/><path class="aeef3d8a-b682-481b-aca6-85fce7eb7c62" d="M4.9731,89.6613a2.0574,2.0574,0,0,0-1.3937.5479,2.0723,2.0723,0,1,0,0,3.049,2.07,2.07,0,1,0,1.3937-3.5969Z"/><path class="9ca14eb9-750f-4360-adee-29f804ea2971" d="M3.5769,93.27a1.968,1.968,0,0,1-1.5856.7949A1.993,1.993,0,0,1,0,92.0693a1.9165,1.9165,0,0,1,.1283-.6913,1.6648,1.6648,0,0,0-.0331.3519A2.0655,2.0655,0,0,0,3.56,93.2575Z"/><path class="9ca14eb9-750f-4360-adee-29f804ea2971" d="M3.6017,93.27a1.9681,1.9681,0,0,0,1.5856.7949,1.9931,1.9931,0,0,0,1.9914-1.9955A1.9165,1.9165,0,0,0,7.05,91.378a1.6583,1.6583,0,0,1,.0331.3519,2.0655,2.0655,0,0,1-3.4651,1.5276Z"/><path class="9ca14eb9-750f-4360-adee-29f804ea2971" d="M3.5617,93.2782a1.9681,1.9681,0,0,1-1.6366-.6836,1.9931,1.9931,0,0,1,.214-2.811,1.9181,1.9181,0,0,1,.6077-.3536,1.6661,1.6661,0,0,0-.2883.2044A2.0656,2.0656,0,0,0,3.56,93.2575C3.56,93.2633,3.5622,93.2723,3.5617,93.2782Z"/><path class="9ca14eb9-750f-4360-adee-29f804ea2971" d="M3.6018,93.2782a1.9683,1.9683,0,0,0,1.6367-.6836,1.9931,1.9931,0,0,0-.214-2.811,1.9185,1.9185,0,0,0-.6078-.3536,1.6661,1.6661,0,0,1,.2883.2044,2.0656,2.0656,0,0,1-1.1018,3.6231C3.6036,93.2633,3.6014,93.2723,3.6018,93.2782Z"/><circle class="aeef3d8a-b682-481b-aca6-85fce7eb7c62" cx="9.9173" cy="76.8357" r="1.9929"/><circle class="aeef3d8a-b682-481b-aca6-85fce7eb7c62" cx="6.6973" cy="76.8357" r="1.9929"/><circle class="aeef3d8a-b682-481b-aca6-85fce7eb7c62" cx="8.9462" cy="74.8429" r="1.9929"/><circle class="aeef3d8a-b682-481b-aca6-85fce7eb7c62" cx="7.6684" cy="74.8429" r="1.9929"/><path class="9ca14eb9-750f-4360-adee-29f804ea2971" d="M7.9624,76.5609a1.9832,1.9832,0,0,1,.36-.8984,1.89,1.89,0,0,1,.3643.9025,1.69,1.69,0,0,1,.0207.2526v.0166a1.97,1.97,0,0,1-.385,1.1757,1.9949,1.9949,0,0,1-.3809-1.1757v-.0166A1.7445,1.7445,0,0,1,7.9624,76.5609Z"/><path class="aeef3d8a-b682-481b-aca6-85fce7eb7c62" d="M6.9533,74.4251a2.0577,2.0577,0,0,1,1.3937.5479,2.0724,2.0724,0,1,1,0,3.049,2.07,2.07,0,1,1-1.3937-3.5969Z"/><path class="9ca14eb9-750f-4360-adee-29f804ea2971" d="M8.35,78.0338a1.9682,1.9682,0,0,0,1.5856.7948,1.993,1.993,0,0,0,1.9913-1.9954,1.917,1.917,0,0,0-.1283-.6914,1.6648,1.6648,0,0,1,.0331.3519,2.0655,2.0655,0,0,1-3.4651,1.5276Z"/><path class="9ca14eb9-750f-4360-adee-29f804ea2971" d="M8.3247,78.0338a1.9682,1.9682,0,0,1-1.5856.7948,1.9929,1.9929,0,0,1-1.9913-1.9954,1.917,1.917,0,0,1,.1283-.6914,1.6648,1.6648,0,0,0-.0331.3519,2.0655,2.0655,0,0,0,3.4651,1.5276Z"/><path class="9ca14eb9-750f-4360-adee-29f804ea2971" d="M8.3647,78.042a1.9683,1.9683,0,0,0,1.6367-.6836,1.9929,1.9929,0,0,0-.214-2.8109,1.9167,1.9167,0,0,0-.6078-.3536,1.6655,1.6655,0,0,1,.2883.2043,2.0655,2.0655,0,0,1-1.1018,3.6231C8.3665,78.0272,8.3643,78.0362,8.3647,78.042Z"/><path class="9ca14eb9-750f-4360-adee-29f804ea2971" d="M8.3246,78.042a1.9681,1.9681,0,0,1-1.6366-.6836,1.9929,1.9929,0,0,1,.214-2.8109,1.9162,1.9162,0,0,1,.6077-.3536,1.6655,1.6655,0,0,0-.2883.2043,2.0655,2.0655,0,0,0,1.1018,3.6231C8.3228,78.0272,8.3251,78.0362,8.3246,78.042Z"/><path class="9ca14eb9-750f-4360-adee-29f804ea2971" d="M3.5983,82.1341c.4885,1.01,1.4143,1.574,2.0665,1.2585s.7812-1.3895.2927-2.4a2.3568,2.3568,0,0,0-.1176-.2145c.371.9381.216,1.8822-.3878,2.1742s-1.44-.1726-1.9489-1.044A2.3641,2.3641,0,0,0,3.5983,82.1341Z"/><path class="aeef3d8a-b682-481b-aca6-85fce7eb7c62" d="M3.5032,81.9088c.5088.8714,1.3452,1.3361,1.9489,1.044s.7588-1.2361.3878-2.1742c-.5069-.8769-1.3433-1.3415-1.947-1.0495S3.13,80.967,3.5032,81.9088Z"/><path class="aeef3d8a-b682-481b-aca6-85fce7eb7c62" d="M3.3838,81.6906q.0542.1119.1194.2182c.5088.8714,1.3452,1.3361,1.9489,1.044s.7588-1.2361.3878-2.1742q-.0429-.1171-.0969-.229c-.49-1.0137-1.4124-1.5795-2.0646-1.264S2.8935,80.6769,3.3838,81.6906Z"/><polygon class="aa8acb81-152f-465d-88eb-076ddae15245" points="118.649 115.165 122.221 113.088 122.189 124.513 118.616 126.589 118.649 115.165"/><polygon class="aa8acb81-152f-465d-88eb-076ddae15245" points="118.649 130.15 122.221 128.074 122.189 139.499 118.616 141.575 118.649 130.15"/><polygon class="aa8acb81-152f-465d-88eb-076ddae15245" points="111.911 149.844 115.483 147.768 115.451 159.193 111.878 161.269 111.911 149.844"/><path class="068b70f7-f278-422a-8bbc-eed07003fc51" d="M51.2818,231.0342a183.8167,183.8167,0,0,0,55.0687-35.088c7.5418-7.0246,14.33-13.3476,20.9553-23.8794,12.5738-19.9886,8.1022-28.9778,18.5187-42.398,13.1256-16.9106,25.5218-9.4611,38.4994-24.3667,15.2545-17.5209,16.6717-49.1139,3.4113-72.6127C175.89,11.698,156.0424,3.7405,149.7232,1.5"/></g></svg>