<svg xmlns="http://www.w3.org/2000/svg" width="116.2068mm" height="19.9871mm" viewBox="0 0 329.405 56.6563"><defs><style>.\33 a6e8a8a-4bf9-4888-bb17-327572e08afb{fill:none;stroke:#d7ead8;stroke-linecap:round;stroke-linejoin:round;stroke-width:24px;}.\34 8653c4d-36bc-4d02-a7b6-397f3c1c1626{fill:#0c795c;}</style></defs><title>Titres</title><g id="e3259713-160f-4951-b30a-b14581d5f417" data-name="Texte"><path class="3a6e8a8a-4bf9-4888-bb17-327572e08afb" d="M13.3479,36.7988A61.4177,61.4177,0,0,1,34.813,22.3205l7.9879,20.1177A128.6775,128.6775,0,0,0,58.8356,12.3763L69.6085,29.9612c.9375,1.53,2.0335,3.1844,3.7645,3.6586,5.6417,1.5456,6.51-9.4919,12.1392-11.0841,3.8682-1.0942,7.169,2.9649,8.7717,6.6516s3.373,8.131,7.3053,8.9662c4.9392,1.049,8.5746-4.3422,10.9395-8.8035s6.9144-9.4865,11.5082-7.39c2.0221.9227,3.2212,2.9969,4.29,4.9459L137.82,44.2219,168.8433,28.41a7.79,7.79,0,0,1,3.0319-1.0472c2.4395-.1328,4.3612,1.95,5.8968,3.85l9.5385,11.8023,9.9671-14.7686a6.2054,6.2054,0,0,1,2.6226-2.57c1.491-.5774,3.1373.0669,4.6806.485a16.8859,16.8859,0,0,0,19.1744-9.07,59.4974,59.4974,0,0,0,9.7476,15.9335,8.6258,8.6258,0,0,0,3.6121,2.858c2.096.6915,4.3538-.1792,6.3874-1.037l32.8228-13.8447,9.0842,17.1672L298.78,16.129c.5492-.9051,1.2906-1.923,2.3492-1.9074a2.8323,2.8323,0,0,1,1.9676,1.2588c4.6676,5.675,6.1469,15.14,13.32,16.7328"/><path class="48653c4d-36bc-4d02-a7b6-397f3c1c1626" d="M32.7493,21.5589c0,2.0888-.0361,4.1953.0537,6.2842a8.3558,8.3558,0,0,0,.1084,1.5117c.0713.3242.3233.6308.3233.9551,0,.72-.9541,1.1523-1.5664,1.1523-1.836,0-1.6563-2.0713-1.71-3.35-.0361-.9-.0185-1.8184-.0722-2.7188,0-.0537,0-.1982-.09-.1982-.2344,0-1.3506,2.4853-3.0068,2.4853-1.3867,0-3.0254-2.7548-3.5117-2.7548-.252,0-.3057.9355-.3233,1.1338a52.7036,52.7036,0,0,0-.3242,5.582c0,.99-.4141,1.4765-1.44,1.4765a1.3059,1.3059,0,0,1-1.4766-1.4951c0-1.4756.45-8.7861,1.3145-9.5967a1.4313,1.4313,0,0,1,.99-.3593c1.2783,0,3.043,1.35,3.8887,2.2685.2168.2334.4863.7022.8281.7022.793,0,2.6289-4.4658,4.6455-4.4658A1.24,1.24,0,0,1,32.7493,21.5589Z"/><path class="48653c4d-36bc-4d02-a7b6-397f3c1c1626" d="M42.5384,31.9475c-.6113,1.1348-2.8447,1.2608-3.9785,1.2608h-.8106c-1.7822,0-1.6562-2.3223-1.7461-3.5654-.0546-.72-.0722-1.44-.0722-2.16a44.4333,44.4333,0,0,1,.3779-5.582,1.5262,1.5262,0,0,1,1.08-1.3321,3.3858,3.3858,0,0,1,1.0449-.1259c.3232,0,.666.0175,1.0078.0175.7207,0,1.44.0362,2.2149.0362.5576,0,1.2607.2343,1.2607.9179,0,1.2247-2.6113,1.0264-3.4395,1.0811a.4634.4634,0,0,0-.45.3955c-.0723.4326-.18,1.7647-.18,2.2148a.3736.3736,0,0,0,.3779.3965h.9365c.3594,0,.72-.0361,1.0977-.0361.5947,0,1.333.27,1.333.99,0,.99-1.3506,1.0625-2.0528,1.0625h-.666c-.36,0-1.0986-.1445-1.0986.4141a25.1493,25.1493,0,0,0,.1621,2.61v.1084c0,.2344-.0537.54.2695.54.7207,0,1.3145-.6123,2.0352-.6123.54,0,1.4043.3242,1.4043.9726A.7673.7673,0,0,1,42.5384,31.9475ZM40.0179,19.2181c-.666.3779-1.44,1.1162-2.2324.54-.9-.63.5761-1.332,1.0263-1.584.666-.3789,1.4405-1.0986,2.2325-.54C41.9446,18.2815,40.4681,18.9661,40.0179,19.2181Z"/><path class="48653c4d-36bc-4d02-a7b6-397f3c1c1626" d="M46.5862,22.4954c-.5937,0-1.4218-.3066-1.4218-1.0088,0-.6484.7383-.9541,1.2959-.99,1.8008-.126,3.6015-.09,5.4023-.1621.3779-.0176.7559-.0723,1.1338-.0723.63,0,1.6025.2344,1.6025,1.0449a.7265.7265,0,0,1-.1621.45,2.0773,2.0773,0,0,1-1.6738.5576l-1.2607.0547c-.252.0176-.4141-.126-.4141.2334v9.1651c0,.4677.0176.8642-.3965,1.17a1.7706,1.7706,0,0,1-1.0439.3066,1.28,1.28,0,0,1-1.44-1.4228c0-.3242.0538-.6485.0538-.9717V22.8733a.4037.4037,0,0,0-.4141-.3965C47.4329,22.4768,47.0013,22.4954,46.5862,22.4954Z"/><path class="48653c4d-36bc-4d02-a7b6-397f3c1c1626" d="M56.9368,28.1126V24.2054c0-.7559.8106-1.044,1.4405-1.044,1.458,0,1.4941.9365,1.4941,2.1065,0,1.08-.0537,1.53-.0537,2.61v4.5557c0,.7568-.8106,1.0625-1.458,1.0625-1.6211,0-1.4951-1.2061-1.4951-2.4131C56.8646,30.0931,56.9368,29.1028,56.9368,28.1126ZM58.45,21.5052c-1.873,0-2.3232-2.5577.0713-2.5577C60.3763,18.9475,60.8079,21.5052,58.45,21.5052Z"/><path class="48653c4d-36bc-4d02-a7b6-397f3c1c1626" d="M68.5843,20.8743c-.6484,1.08-2.5928.1445-2.5928,2.6475,0,3.042,2.5391,5.9052,2.5391,8.8222,0,2.1787-1.711,3.0967-3.6914,3.0967-.7022,0-2.1426-.0537-2.1426-1.0439,0-.8282.918-1.0625,1.584-1.0625.6484,0,1.2783.1435,1.2783-.7559,0-2.7373-2.52-5.834-2.52-9.0566A4.5386,4.5386,0,0,1,67.27,19.4163C67.99,19.4163,69.0882,20.0462,68.5843,20.8743Z"/><path class="48653c4d-36bc-4d02-a7b6-397f3c1c1626" d="M81.4359,20.9827a9.1,9.1,0,0,1,.99.0537,1.1,1.1,0,0,1,1.0078,1.0088c0,.7022-.792.9541-1.3682.9541a4,4,0,0,0-1.458.09,1.4123,1.4123,0,0,0-.7929,1.4766c0,2.3223,2.1425,3.1865,2.1425,5.2031,0,1.8008-1.7285,2.7549-3.331,2.7549-.81,0-2.7-.3955-2.7-1.458,0-.666.36-1.3144.918-1.3144.7207,0,1.1162.7919,1.7646.7558.3418-.0176.54-.4863.54-.7734,0-.7207-1.3505-2.2871-1.71-3.0615a5.2659,5.2659,0,0,1-.45-2.1065C76.9886,21.9544,79.0765,20.9827,81.4359,20.9827Z"/><path class="48653c4d-36bc-4d02-a7b6-397f3c1c1626" d="M94.5042,22.387c-.5576,0-1.0439.09-1.71.09a.4156.4156,0,0,0-.4141.3965v8.6426c0,.4141.0351.8281.0351,1.26,0,1.0449-.3593,1.5488-1.4755,1.5488-1.6026,0-1.4952-1.08-1.4952-2.3047,0-.918.0547-.9.0547-1.8183V22.4954a.38.38,0,0,0-.414-.3789c-.5049,0-.3428.0547-.8467.0547-.63,0-2.5566,0-2.5566-.9727s.8457-1.1162,1.5664-1.1162c1.4941,0,2.3222-.0537,3.8173-.0537.9717,0,5.0049-.2168,5.0049,1.3145C96.0706,22.0628,95.1165,22.387,94.5042,22.387Z"/><path class="48653c4d-36bc-4d02-a7b6-397f3c1c1626" d="M102.4407,33.1c-4.0156,0-3.98-4.4649-4.0156-7.3994,0-.45,0-.9-.0351-1.3506-.0186-.2168-.0723-.45-.0723-.667,0-.7373.8105-1.0615,1.4219-1.0615,1.6386,0,1.6748,1.2422,1.6748,2.5029,0,1.35-.1436,4.5732.7383,5.6172.36.4678.7382-.0723.99-.4316a15.7,15.7,0,0,0,2.125-6.95c0-.5948-.1807-1.4766.27-1.9454a1.5929,1.5929,0,0,1,1.1709-.4677c1.6924,0,1.584,1.4765,1.584,2.7011a34.0218,34.0218,0,0,0,.45,6.0674c.1084.4678.5947.7559.5947,1.2246,0,.7022-.99,1.044-1.5849,1.044-1.1162,0-1.584-.9365-1.7461-.9365C105.8079,31.0472,104.7454,33.1,102.4407,33.1Z"/><path class="48653c4d-36bc-4d02-a7b6-397f3c1c1626" d="M120.7835,25.7005c0,3.6367-3.4023,5.8515-6.68,6.3017a3.909,3.909,0,0,1-.6484.0537,1.2559,1.2559,0,0,1-1.4219-1.3867c0-2.7363.0176-5.4736.0176-8.21,0-1.5664,1.8545-1.3506,2.9531-1.3506C117.8314,21.1087,120.7835,22.4768,120.7835,25.7005Zm-5.4375,3.7627a4.304,4.304,0,0,0,2.5215-3.7627,2.5954,2.5954,0,0,0-.6123-1.7471,2.9019,2.9019,0,0,0-1.8008-.7559c-.2881-.0722-.4863.0362-.4863.3956v5.6181A.2523.2523,0,0,0,115.346,29.4632Z"/><path class="48653c4d-36bc-4d02-a7b6-397f3c1c1626" d="M123.7513,24.44c.1084-.5586.7207-.7568,1.2246-.7568.666,0,1.53.3428,1.53,1.1172,0,1.4765-.1621,2.7363-.1621,4.2129a4.0774,4.0774,0,0,0,.1084,1.6748.6757.6757,0,0,1,.09.3242,1.5876,1.5876,0,0,1-.1074.4854,1.38,1.38,0,0,1-1.4229.9c-1.2422,0-1.53-.72-1.53-1.8183,0-.2881.0175-.5762.0175-.8643A27.2308,27.2308,0,0,1,123.7513,24.44Zm-.1074-3.4033a1.275,1.275,0,0,1,1.4218-1.1523c.7022,0,1.4405.3779,1.4405,1.1523a1.46,1.46,0,0,1-2.8623,0Z"/><path class="48653c4d-36bc-4d02-a7b6-397f3c1c1626" d="M129.0247,27.2669c0-2.7549,1.585-5.7617,4.4834-6.2481a11.2784,11.2784,0,0,1,1.7471-.1621c2.9707,0,4.4834,1.9981,4.4834,4.8438,0,3.457-2.125,6.5176-5.7979,6.5176A4.6316,4.6316,0,0,1,129.0247,27.2669Zm2.8809-.1084c0,1.3506.45,3.0244,2.0889,3.0244,1.9443,0,2.8808-2.7725,2.8808-4.3926,0-.7207-.2881-2.7373-1.2422-2.7373-.2158,0-.414.0537-.63.0537-.2529,0-.5048-.0537-.7568-.0537C132.7161,23.053,131.9056,25.9339,131.9056,27.1585Z"/><path class="48653c4d-36bc-4d02-a7b6-397f3c1c1626" d="M146.54,31.57c0,.09-.7744,1.3682-.9,1.6026-.4864.9541-.81,2.1425-2.1241,2.1425-.4326,0-1.3506-.2343-1.3506-.792a18.0539,18.0539,0,0,1,.8458-1.6211c.4863-.9355.8828-2.124,2.1611-2.124C145.6224,30.7776,146.54,30.9934,146.54,31.57Z"/><path class="48653c4d-36bc-4d02-a7b6-397f3c1c1626" d="M157.8626,33.5862a4.1215,4.1215,0,0,1-3.3125-2.0888,7.1377,7.1377,0,0,1-.81-3.6006,10.7141,10.7141,0,0,1,1.3867-5.5821,3.9308,3.9308,0,0,1,3.2588-1.8906,1.9138,1.9138,0,0,1,1.3857.4688c.1445.1621.0908.2158.3242.3056a4.2114,4.2114,0,0,1,.5039.2158,5.88,5.88,0,0,1,3.17,5.6358,7.8969,7.8969,0,0,1-.9551,3.8174,6.622,6.622,0,0,1-.8457,1.1347.4078.4078,0,0,0-.0723.252,4.7826,4.7826,0,0,0,.666,1.3144c.3067.3955.9366.3594.9366,1.044,0,.7021-.8643,1.0439-1.4581,1.0439-1.3144,0-1.9453-1.08-2.539-2.07a.1579.1579,0,0,0-.1621-.1084,1.5788,1.5788,0,0,0-.2881.0547,4.9718,4.9718,0,0,1-.9.0537Zm-.45-9.8847a9.844,9.844,0,0,0-.8467,4.123c0,1.0088.2891,3.5293,1.5489,3.7451h.0537a.2137.2137,0,0,0,.2168-.2344c0-.3232-.8281-1.5478-.8281-1.872,0-.5948.8994-.99,1.4218-.99.8828,0,1.333.7745,1.4766.7745.3242,0,.4863-1.8731.4863-2.1788a6.077,6.077,0,0,0-.3779-2.125c-.3428-.8818-1.333-2.1064-2.4131-2.1064C157.7728,22.8372,157.5384,23.4134,157.4124,23.7015Z"/><path class="48653c4d-36bc-4d02-a7b6-397f3c1c1626" d="M166.4652,26.6546c0-.5586.0361-1.1162.0722-1.6748.09-1.2783.1436-3.0606,1.8545-3.0606.63,0,1.458.2158,1.458.99a10.294,10.294,0,0,1-.3418,1.4218,15.043,15.043,0,0,0-.1445,2.2149c0,.5762.126,3.5469.9189,3.5469a.4675.4675,0,0,0,.3057-.126c1.4043-1.0987,2.3584-4.8789,2.5029-6.6436.0362-.5039-.0722-.99.378-1.3506a1.7485,1.7485,0,0,1,1.0986-.36c.792,0,1.44.3779,1.44,1.2422a14.2246,14.2246,0,0,1-.5761,3.331c-.6485,2.4668-2.0352,6.0323-5.0958,6.0323C167.1312,32.2181,166.4652,29.2474,166.4652,26.6546Z"/><path class="48653c4d-36bc-4d02-a7b6-397f3c1c1626" d="M184.9339,33.1546a13.9032,13.9032,0,0,1-4.4473.99c-1.9629,0-1.7646-1.0986-1.7646-2.6474,0-3.1143.5039-6.2295.5947-9.3448a1.2253,1.2253,0,0,1,.2881-.8642,3.1769,3.1769,0,0,1,2.1963-.6836c.5225,0,1.0264-.126,1.53-.126h.1084a1.7663,1.7663,0,0,1,.7558-.1445c.5762,0,1.4229.36,1.4229,1.0439,0,1.0449-2.2324,1.2793-2.9893,1.2793-.1982,0-.414-.1084-.414.1973,0,.2519.0185.4863,0,.7383-.0362.54-.0538,1.081-.1084,1.621-.0352.378-.1075.7735-.1075,1.1524,0,.126.0176.2519.1621.2519.27,0,.5762-.1806.9-.1806.5577,0,1.4219.3789,1.4219,1.0449,0,.8818-1.6025,1.4766-2.3047,1.6563a.5746.5746,0,0,0-.45.4863c-.0537.5937-.0537,1.206-.0537,1.8008a.3318.3318,0,0,0,.3242.3593c.7559,0,1.3321-.63,2.07-.63.5948,0,1.4942.288,1.4942,1.0087A1.2812,1.2812,0,0,1,184.9339,33.1546Z"/><path class="48653c4d-36bc-4d02-a7b6-397f3c1c1626" d="M194.6722,30.1829c.5947,0,1.459.3242,1.459,1.0264,0,.9-1.1524,1.0625-1.8369,1.0625-1.08,0-2.1788.0185-3.2588.1084-.45.0361-.9.1435-1.3506.1435-.6846,0-1.3682-.3056-1.3682-1.08a6.4331,6.4331,0,0,1,.09-.8281,29.3838,29.3838,0,0,0,.1982-3.98c0-1.4219-.0723-2.8447-.0723-4.2666,0-.8828.6485-1.2783,1.459-1.2783.9717,0,1.4756.4316,1.4756,1.4043,0,1.4766.0547,2.9707.0547,4.4473,0,1.0078-.1084,1.998-.1084,3.0068,0,.18.1982.2881.36.2881C192.7454,30.2376,193.7005,30.1829,194.6722,30.1829Z"/><path class="48653c4d-36bc-4d02-a7b6-397f3c1c1626" d="M203.888,20.9827a9.1,9.1,0,0,1,.99.0537,1.1,1.1,0,0,1,1.0079,1.0088c0,.7022-.792.9541-1.3682.9541a4,4,0,0,0-1.458.09,1.4123,1.4123,0,0,0-.793,1.4766c0,2.3223,2.1426,3.1865,2.1426,5.2031,0,1.8008-1.7285,2.7549-3.3311,2.7549-.8095,0-2.7-.3955-2.7-1.458,0-.666.36-1.3144.918-1.3144.7207,0,1.1162.7919,1.7647.7558.3418-.0176.54-.4863.54-.7734,0-.7207-1.3506-2.2871-1.71-3.0615a5.2659,5.2659,0,0,1-.45-2.1065C199.4407,21.9544,201.5286,20.9827,203.888,20.9827Z"/><path class="48653c4d-36bc-4d02-a7b6-397f3c1c1626" d="M218.5941,20.9827a9.1,9.1,0,0,1,.99.0537,1.1,1.1,0,0,1,1.0078,1.0088c0,.7022-.792.9541-1.3682.9541a4,4,0,0,0-1.458.09,1.4123,1.4123,0,0,0-.7929,1.4766c0,2.3223,2.1425,3.1865,2.1425,5.2031,0,1.8008-1.7285,2.7549-3.331,2.7549-.81,0-2.7-.3955-2.7-1.458,0-.666.36-1.3144.918-1.3144.7207,0,1.1162.7919,1.7646.7558.3418-.0176.54-.4863.54-.7734,0-.7207-1.3506-2.2871-1.71-3.0615a5.2659,5.2659,0,0,1-.45-2.1065C214.1468,21.9544,216.2347,20.9827,218.5941,20.9827Z"/><path class="48653c4d-36bc-4d02-a7b6-397f3c1c1626" d="M228.0794,22.6214c-.4678,0-.918-.0362-1.3867-.0362a.37.37,0,0,0-.4141.378c-.0351.36-.0175.72-.0351,1.08-.0186.4141-.0547.8467-.0547,1.2608,0,.1435.0547.2881.2168.2881.2158,0,1.0078-.5586,1.71-.5586.5948,0,1.3868.3242,1.3868,1.0264,0,1.0263-2.2871,1.5488-3.0791,1.7832a.4267.4267,0,0,0-.2881.414,30.0259,30.0259,0,0,0,.1982,3.1143c.0176.1982-.0547.4326.2334.4326.3965,0,.8106-.1084,1.207-.1084.6124,0,1.4942.2705,1.4942,1.0264,0,1.0986-1.9082,1.1347-2.6651,1.1347s-2.2861,0-2.7724-.6484a2.9994,2.9994,0,0,1-.2881-1.332,33.1624,33.1624,0,0,1-.252-4.0157c0-1.873.1075-3.7275.126-5.6.0176-.8642.0537-1.6025,1.0264-1.6562,1.1162-.0547,1.4043-.0362,2.8984-.0362a3.8378,3.8378,0,0,1,1.4951.18,1.01,1.01,0,0,1,.6836.8828C229.52,22.3333,228.6556,22.6214,228.0794,22.6214Z"/><path class="48653c4d-36bc-4d02-a7b6-397f3c1c1626" d="M239.7083,33.2444c-1.5488,0-3.6914-1.8906-3.9609-1.8906-.127,0-.1446.1436-.1446.2519,0,.4141.1622.8106.1622,1.2061,0,.6846-.8819.99-1.44.99-1.3506,0-1.5849-1.08-1.6748-2.1787-.2158-2.5927-.2881-5.2031-.3418-7.7959,0-.6845-.3056-1.6748.252-2.2685.54-.5762,2.8808-.8828,3.6914-.8828,1.8183,0,3.8349.9189,3.8349,3.0068,0,2.1787-1.6923,3.8359-3.2949,5.042a.2475.2475,0,0,0,0,.45c1.0987.6846,2.1787,1.4219,3.3125,2.0342.4688.2529.8643.2881.8643,1.1347C240.9681,33.01,240.2845,33.2444,239.7083,33.2444Zm-3.4756-10.4609c-.2158,0-1.0078.0176-1.0078.2881,0,1.08.0362,2.1963.1084,3.2763,0,.09.0352.2344.1612.2344.0546,0,.1083-.0537.1621-.09a4.5327,4.5327,0,0,0,1.4765-2.8448C237.1331,23.0169,236.845,22.7835,236.2327,22.7835Z"/><path class="48653c4d-36bc-4d02-a7b6-397f3c1c1626" d="M248.9769,27.8069a44.6928,44.6928,0,0,0,1.7461-4.2851c.3965-.9727.81-2.377,2.0888-2.377.5586,0,1.4942.3418,1.4942,1.0078a11.7248,11.7248,0,0,1-.72,1.8008c-.7744,1.9082-2.7373,8.085-5.1679,8.085a1.558,1.558,0,0,1-.5762-.1084c-1.0439-.36-1.6562-2.5752-1.9619-3.5655a19.5182,19.5182,0,0,0-1.6211-4.249c-.2158-.3418-.5938-.7021-.5938-1.1348,0-.6835.9542-.99,1.5127-.99,2.0166,0,2.9161,4.3037,3.4747,5.7979.0175.0722.0722.1806.1621.1806C248.887,27.969,248.9407,27.8606,248.9769,27.8069Z"/><path class="48653c4d-36bc-4d02-a7b6-397f3c1c1626" d="M257.2728,24.44c.1084-.5586.7207-.7568,1.2246-.7568.666,0,1.53.3428,1.53,1.1172,0,1.4765-.1622,2.7363-.1622,4.2129a4.0791,4.0791,0,0,0,.1084,1.6748.6747.6747,0,0,1,.09.3242,1.5876,1.5876,0,0,1-.1074.4854,1.38,1.38,0,0,1-1.4229.9c-1.2422,0-1.53-.72-1.53-1.8183,0-.2881.0176-.5762.0176-.8643A27.2308,27.2308,0,0,1,257.2728,24.44Zm-.1075-3.4033a1.2751,1.2751,0,0,1,1.4219-1.1523c.7022,0,1.44.3779,1.44,1.1523a1.46,1.46,0,0,1-2.8624,0Z"/><path class="48653c4d-36bc-4d02-a7b6-397f3c1c1626" d="M269.8753,33.55a5.2986,5.2986,0,0,1-2.2861.5224c-3.5117,0-4.7715-3.331-4.7715-6.32,0-3.15,1.3682-7.4355,5.167-7.4355a5.4579,5.4579,0,0,1,2.7373.81,1.25,1.25,0,0,1,.7383.9726c0,.6485-.8282.9727-1.3682.9727-.9912,0-1.4053-.7207-2.1611-.7207-.4864,0-1.0264.7744-1.2422,1.1709a8.97,8.97,0,0,0-.9541,4.2129c0,1.2246.18,3.3486,1.26,4.123a.9847.9847,0,0,0,.5947.1982c.8281,0,1.6562-.9179,2.5029-.9179.5576,0,1.3682.3418,1.3682,1.0078C271.46,32.92,270.47,33.2806,269.8753,33.55Z"/><path class="48653c4d-36bc-4d02-a7b6-397f3c1c1626" d="M280.387,33.1546a13.9026,13.9026,0,0,1-4.4472.99c-1.9629,0-1.7647-1.0986-1.7647-2.6474,0-3.1143.5039-6.2295.5947-9.3448a1.2257,1.2257,0,0,1,.2881-.8642,3.1769,3.1769,0,0,1,2.1963-.6836c.5225,0,1.0264-.126,1.53-.126h.1084a1.7663,1.7663,0,0,1,.7558-.1445c.5762,0,1.4229.36,1.4229,1.0439,0,1.0449-2.2324,1.2793-2.9893,1.2793-.1982,0-.414-.1084-.414.1973,0,.2519.0185.4863,0,.7383-.0362.54-.0537,1.081-.1084,1.621-.0352.378-.1074.7735-.1074,1.1524,0,.126.0175.2519.1621.2519.2695,0,.5761-.1806.9-.1806.5576,0,1.4218.3789,1.4218,1.0449,0,.8818-1.6025,1.4766-2.3047,1.6563a.5743.5743,0,0,0-.45.4863c-.0538.5937-.0538,1.206-.0538,1.8008a.3318.3318,0,0,0,.3243.3593c.7558,0,1.332-.63,2.07-.63.5947,0,1.4941.288,1.4941,1.0087A1.2812,1.2812,0,0,1,280.387,33.1546Z"/><path class="48653c4d-36bc-4d02-a7b6-397f3c1c1626" d="M289.638,29.6253c0,2.3945-2.4307,3.0967-4.4111,3.0967-.5762,0-1.458-.1983-1.458-.918a1.0958,1.0958,0,0,1,.4863-.8467c.7383-.5215,2.5019.0547,2.5019-1.1885,0-1.6738-2.07-4.1767-2.07-6.2295,0-2.0888,2.2686-2.6289,3.9434-2.6289.5937,0,1.4766.1983,1.4766.9541a1.1538,1.1538,0,0,1-.8467.9727c-.4317.1435-1.7285,0-1.7285.6123C287.5316,24.7093,289.638,27.5364,289.638,29.6253Z"/><path class="48653c4d-36bc-4d02-a7b6-397f3c1c1626" d="M297.305,23.4856a.7494.7494,0,0,1,.0723-.2881,3.8462,3.8462,0,0,1,3.4209-2.0351A2.7472,2.7472,0,0,1,303.679,23.99c0,1.7647-1.3691,3.7989-2.1787,5.3291a1.4821,1.4821,0,0,1-1.459.8829c-.5039,0-1.332-.3418-1.332-.9541,0-.8106,2.2324-3.2051,2.2324-5.33,0-.1983-.0537-.7559-.3242-.7559-.4854,0-.6123,1.2783-1.9268,1.2783C298.1693,24.44,297.305,24.0979,297.305,23.4856Zm4.1406,9.9746c0,.6846-.7734.9727-1.35.9727s-1.3691-.2881-1.3691-.9727c0-.666.81-.9541,1.3691-.9541S301.4456,32.7942,301.4456,33.46Z"/></g></svg>