<svg xmlns="http://www.w3.org/2000/svg" width="98.8132mm" height="23.1668mm" viewBox="0 0 280.1004 65.6696"><defs><style>.\30 127847f-7d09-45e4-8eaf-be1c08c76143{fill:none;stroke:#fff;stroke-linecap:round;stroke-linejoin:round;stroke-width:27px;}.\34 617de3f-d47c-49aa-9586-55d0f76e40f0{fill:#0c795c;}</style></defs><title>Titres</title><g id="ec2f61e6-2009-4335-92cf-19c8a18e5d0f" data-name="Texte"><path class="0127847f-7d09-45e4-8eaf-be1c08c76143" d="M14.4429,39.1723A61.4174,61.4174,0,0,1,35.908,24.6941l7.9879,20.1177A128.6777,128.6777,0,0,0,59.9306,14.75L70.7035,32.3348c.9375,1.53,2.0335,3.1843,3.7645,3.6585,5.6417,1.5456,6.51-9.4919,12.1392-11.0841,3.8682-1.0942,7.169,2.9649,8.7718,6.6516s3.3729,8.1311,7.3052,8.9662c4.9392,1.0491,8.5746-4.3421,10.9395-8.8035s6.9144-9.4865,11.5082-7.39c2.0221.9227,3.2212,2.9969,4.29,4.946l9.4932,17.3164,31.0235-15.8123a7.7914,7.7914,0,0,1,3.0319-1.0473c2.4395-.1327,4.3612,1.95,5.8969,3.85l9.5384,11.8023,9.9671-14.7686a6.2064,6.2064,0,0,1,2.6227-2.57c1.491-.5774,3.1372.0669,4.6805.4851a16.886,16.886,0,0,0,19.1744-9.07,59.4937,59.4937,0,0,0,9.7477,15.9335,8.625,8.625,0,0,0,3.612,2.8581c2.096.6914,4.3538-.1792,6.3874-1.037l13.9173-5.87"/><path class="4617de3f-d47c-49aa-9586-55d0f76e40f0" d="M21.1139,28.6615a3.2921,3.2921,0,0,1,1.6025-.99,5.7676,5.7676,0,0,1,1.9268-.3057A5.2264,5.2264,0,0,1,28.9645,29.22a2.7217,2.7217,0,0,1,.5039,1.5127c0,2.0879-2.8262,3.8711-4.627,4.3213-.1445.0352-.3066.0713-.45.1074-.1982.0547-.3779.1621-.3779.3965,0,1.458.0713,2.8985.1621,4.3574v.0538c0,.7021-.7568.9179-1.333.9179-1.2783,0-1.6025-.6123-1.6025-1.8V38.349c0-.955-.0538-1.9091-.0713-2.8632a4.2518,4.2518,0,0,0-.0186-.4864c-.0361-.5039-.3418-.72-.3418-1.0976,0-.4326.3242-.4688.3242-1.0088,0-.2158-.0361-.45-.0547-.666l-.0537-1.2784c-.0175-.4687-.09-.9179-.09-1.3867A1.7256,1.7256,0,0,1,21.1139,28.6615Zm3.2051,4.34c.8105-.3428,2.2871-1.1709,2.2871-2.1973a2.5721,2.5721,0,0,0-.0186-.3779.9377.9377,0,0,0-.2519-.45A2.0337,2.0337,0,0,0,24.7877,29.4c-.2529,0-.9551,0-.9551.3779,0,.4327.0186.8643.0362,1.2969l.0537,1.6563a.2973.2973,0,0,0,.2705.3066A.3419.3419,0,0,0,24.319,33.0014Z"/><path class="4617de3f-d47c-49aa-9586-55d0f76e40f0" d="M31.8961,34.64c0-2.7549,1.585-5.7618,4.4834-6.2481a11.2773,11.2773,0,0,1,1.7471-.1621c2.9707,0,4.4834,1.998,4.4834,4.8437,0,3.4571-2.125,6.5176-5.7979,6.5176A4.6316,4.6316,0,0,1,31.8961,34.64Zm2.8809-.1084c0,1.35.45,3.0244,2.0888,3.0244,1.9444,0,2.8809-2.7725,2.8809-4.3926,0-.7207-.2881-2.7373-1.2422-2.7373-.2158,0-.4141.0537-.6309.0537-.2519,0-.5039-.0537-.7558-.0537C35.5875,30.4262,34.777,33.307,34.777,34.5317Z"/><path class="4617de3f-d47c-49aa-9586-55d0f76e40f0" d="M49.1588,40.4731c-4.0156,0-3.98-4.4649-4.0156-7.4,0-.45,0-.9-.0352-1.3505-.0185-.2168-.0722-.45-.0722-.667,0-.7373.81-1.0616,1.4218-1.0616,1.6387,0,1.6748,1.2422,1.6748,2.503,0,1.35-.1435,4.5732.7383,5.6172.36.4677.7383-.0723.99-.4317a15.7,15.7,0,0,0,2.125-6.95c0-.5947-.1806-1.4765.27-1.9453a1.5928,1.5928,0,0,1,1.1709-.4678c1.6924,0,1.584,1.4766,1.584,2.7012a34.0225,34.0225,0,0,0,.45,6.0674c.1084.4678.5947.7559.5947,1.2246,0,.7022-.99,1.0439-1.585,1.0439-1.1162,0-1.584-.9365-1.7461-.9365C52.526,38.42,51.4635,40.4731,49.1588,40.4731Z"/><path class="4617de3f-d47c-49aa-9586-55d0f76e40f0" d="M61.8844,28.8422c2.0342,0,4.6455,1.0078,4.6455,3.4023,0,1.585-1.2783,2.3233-2.5928,2.7735-.09.0361-.2158.0713-.2158.18,0,.2881,1.998,1.7285,2.3223,1.9443.3964.252,1.1162.4863,1.1162,1.1172a1.2309,1.2309,0,0,1-1.2959,1.08c-1.5664,0-3.836-2.3946-4.1055-2.3946-.1084,0-.1084.1436-.1084.2159,0,.288.0547.5761.0547.8642,0,1.0264-.3965,1.6026-1.4951,1.6026-.9356,0-1.458-.3965-1.458-1.3506,0-1.7647.0176-3.5293.0176-5.294,0-1.44-.1436-3.6367.7744-3.9785A11.834,11.834,0,0,1,61.8844,28.8422Zm.1621,2.07c-.5762,0-.54.45-.54.8818,0,.4141-.0362.8467-.0362,1.2608,0,.2158.3242.1621.4864.1621.63,0,1.6738-.126,1.6738-.9727A1.5355,1.5355,0,0,0,62.0465,30.9125Z"/><path class="4617de3f-d47c-49aa-9586-55d0f76e40f0" d="M73.9811,40.9594a4.1215,4.1215,0,0,1-3.3125-2.0889A7.1363,7.1363,0,0,1,69.858,35.27a10.7135,10.7135,0,0,1,1.3867-5.582,3.9309,3.9309,0,0,1,3.2588-1.8906,1.9144,1.9144,0,0,1,1.3858.4687c.1445.1621.0908.2158.3242.3057a4.2114,4.2114,0,0,1,.5039.2158,5.88,5.88,0,0,1,3.17,5.6358,7.8954,7.8954,0,0,1-.9551,3.8173,6.6085,6.6085,0,0,1-.8457,1.1348.4077.4077,0,0,0-.0722.252,4.7826,4.7826,0,0,0,.666,1.3144c.3066.3955.9365.3594.9365,1.044,0,.7021-.8643,1.0439-1.458,1.0439-1.3145,0-1.9453-1.08-2.5391-2.07a.1577.1577,0,0,0-.1621-.1084,1.5735,1.5735,0,0,0-.2881.0547,4.9707,4.9707,0,0,1-.9.0537Zm-.45-9.8848a9.8429,9.8429,0,0,0-.8467,4.1231c0,1.0088.2891,3.5293,1.5488,3.7451h.0537a.2137.2137,0,0,0,.2168-.2344c0-.3232-.8281-1.5478-.8281-1.8721,0-.5947.8994-.99,1.4219-.99.8828,0,1.333.7744,1.4765.7744.3243,0,.4864-1.873.4864-2.1787a6.0743,6.0743,0,0,0-.378-2.125c-.3427-.8818-1.333-2.1064-2.413-2.1064C73.8912,30.21,73.6568,30.7865,73.5309,31.0746Z"/><path class="4617de3f-d47c-49aa-9586-55d0f76e40f0" d="M82.5836,34.0277c0-.5585.0361-1.1162.0723-1.6748.09-1.2783.1435-3.06,1.8545-3.06.63,0,1.458.2158,1.458.99a10.2919,10.2919,0,0,1-.3418,1.4219,15.0426,15.0426,0,0,0-.1446,2.2148c0,.5762.126,3.5469.919,3.5469a.4672.4672,0,0,0,.3057-.126c1.4042-1.0986,2.3583-4.8789,2.5029-6.6435.0361-.5039-.0723-.99.3779-1.3506a1.7487,1.7487,0,0,1,1.0986-.36c.792,0,1.4405.3779,1.4405,1.2421A14.2256,14.2256,0,0,1,91.55,33.559c-.6484,2.4668-2.0352,6.0322-5.0957,6.0322C83.25,39.5912,82.5836,36.6205,82.5836,34.0277Z"/><path class="4617de3f-d47c-49aa-9586-55d0f76e40f0" d="M104.7262,33.5776a6.0939,6.0939,0,0,1-5.7432,5.8515,4.42,4.42,0,0,1-4.43-4.5918,5.3932,5.3932,0,0,1,5.24-5.4912C102.026,29.3461,104.7262,31.0024,104.7262,33.5776Zm-2.9522.09c0-1.0625-1.1709-2.7725-2.5927-2.07A3.856,3.856,0,0,0,97.47,34.91c0,.8642.5039,2.4306,1.5664,2.4306C100.5133,37.34,101.774,34.9633,101.774,33.6674Z"/><path class="4617de3f-d47c-49aa-9586-55d0f76e40f0" d="M107.1705,27.8881c-.0361-.7744.7383-1.1348,1.4043-1.1709s1.4951.252,1.5313,1.0264c.0351.792-.7383,1.17-1.4229,1.206C108.0172,28.9682,107.2067,28.6615,107.1705,27.8881Zm3.0977,3.4209c.09,1.6924,0,3.15-.0186,4.8613-.0176.7559-.1435,1.2959-.1084,1.9082a1.3946,1.3946,0,0,1-1.4043,1.08c-.9.0547-1.458-.2334-1.4941-1.206a10.0889,10.0889,0,0,1,.0361-1.044c.0361-1.3691.0176-1.585.0723-2.9531.0176-.7744.0537-1.2422.0176-1.999-.0538-1.1338.0722-1.71,1.3505-1.7637C109.5113,30.1567,110.232,30.4086,110.2682,31.309Z"/><path class="4617de3f-d47c-49aa-9586-55d0f76e40f0" d="M130.5572,28.932c0,2.0889-.0361,4.1954.0537,6.2842a8.3551,8.3551,0,0,0,.1084,1.5117c.0713.3243.3233.6309.3233.9551,0,.72-.9541,1.1524-1.5664,1.1524-1.836,0-1.6563-2.0713-1.71-3.35-.0361-.9-.0185-1.8184-.0722-2.7188,0-.0537,0-.1982-.09-.1982-.2344,0-1.3506,2.4853-3.0068,2.4853-1.3867,0-3.0254-2.7549-3.5117-2.7549-.252,0-.3057.9356-.3233,1.1338a52.7071,52.7071,0,0,0-.3242,5.5821c0,.99-.4141,1.4765-1.44,1.4765a1.3059,1.3059,0,0,1-1.4766-1.4951c0-1.4756.45-8.7861,1.3145-9.5967a1.4314,1.4314,0,0,1,.99-.3594c1.2783,0,3.043,1.35,3.8887,2.2686.2168.2334.4863.7021.8281.7021.793,0,2.6289-4.4658,4.6455-4.4658A1.24,1.24,0,0,1,130.5572,28.932Z"/><path class="4617de3f-d47c-49aa-9586-55d0f76e40f0" d="M140.3463,39.3207c-.6113,1.1348-2.8447,1.2608-3.9785,1.2608h-.8106c-1.7822,0-1.6562-2.3223-1.7461-3.5655-.0546-.72-.0722-1.44-.0722-2.16a44.4362,44.4362,0,0,1,.3779-5.5821,1.5264,1.5264,0,0,1,1.08-1.332,3.3859,3.3859,0,0,1,1.0449-.126c.3232,0,.666.0176,1.0078.0176.7207,0,1.44.0361,2.2149.0361.5576,0,1.2607.2344,1.2607.918,0,1.2246-2.6113,1.0264-3.4394,1.0811a.4634.4634,0,0,0-.45.3955c-.0723.4326-.18,1.7646-.18,2.2148a.3736.3736,0,0,0,.3779.3965h.9365c.3594,0,.72-.0361,1.0977-.0361.5947,0,1.333.27,1.333.99,0,.99-1.3506,1.0625-2.0527,1.0625h-.6661c-.36,0-1.0986-.1445-1.0986.4141a25.1493,25.1493,0,0,0,.1621,2.61v.1084c0,.2344-.0537.54.2695.54.7207,0,1.3145-.6123,2.0352-.6123.54,0,1.4043.3242,1.4043.9726A.7676.7676,0,0,1,140.3463,39.3207Zm-2.5205-12.73c-.666.378-1.44,1.1162-2.2324.54-.9-.63.5761-1.3321,1.0263-1.584.6661-.3789,1.4405-1.0987,2.2325-.54C139.7525,25.6547,138.276,26.3393,137.8258,26.5912Z"/><path class="4617de3f-d47c-49aa-9586-55d0f76e40f0" d="M144.3942,29.8686c-.5938,0-1.4219-.3067-1.4219-1.0088,0-.6485.7383-.9541,1.2959-.99,1.8008-.1259,3.6015-.09,5.4023-.1621.3779-.0175.7559-.0722,1.1338-.0722.63,0,1.6025.2343,1.6025,1.0449a.7265.7265,0,0,1-.1621.45,2.0777,2.0777,0,0,1-1.6738.5576l-1.2607.0547c-.252.0176-.4141-.126-.4141.2334v9.165c0,.4678.0176.8643-.3965,1.17a1.7707,1.7707,0,0,1-1.0439.3067,1.28,1.28,0,0,1-1.4405-1.4229c0-.3242.0538-.6484.0538-.9716V30.2465a.4037.4037,0,0,0-.4141-.3965C145.2408,29.85,144.8092,29.8686,144.3942,29.8686Z"/><path class="4617de3f-d47c-49aa-9586-55d0f76e40f0" d="M154.7447,35.4858V31.5785c0-.7558.8106-1.0439,1.4405-1.0439,1.458,0,1.4941.9365,1.4941,2.1064,0,1.08-.0537,1.53-.0537,2.61V39.807c0,.7569-.8106,1.0625-1.458,1.0625-1.6211,0-1.4951-1.206-1.4951-2.413C154.6725,37.4662,154.7447,36.476,154.7447,35.4858Zm1.5127-6.6075c-1.873,0-2.3232-2.5576.0713-2.5576C158.1842,26.3207,158.6158,28.8783,156.2574,28.8783Z"/><path class="4617de3f-d47c-49aa-9586-55d0f76e40f0" d="M166.3922,28.2475c-.6484,1.08-2.5928.1445-2.5928,2.6474,0,3.042,2.5391,5.9053,2.5391,8.8223,0,2.1787-1.711,3.0967-3.6914,3.0967-.7022,0-2.1426-.0537-2.1426-1.044,0-.8281.918-1.0625,1.584-1.0625.6484,0,1.2783.1436,1.2783-.7558,0-2.7373-2.52-5.834-2.52-9.0567a4.5387,4.5387,0,0,1,4.2314-4.1054C165.7975,26.79,166.8961,27.4193,166.3922,28.2475Z"/><path class="4617de3f-d47c-49aa-9586-55d0f76e40f0" d="M179.2438,28.3559a9.0751,9.0751,0,0,1,.99.0537,1.1,1.1,0,0,1,1.0078,1.0088c0,.7021-.792.9541-1.3682.9541a3.9979,3.9979,0,0,0-1.458.09,1.4122,1.4122,0,0,0-.7929,1.4766c0,2.3222,2.1425,3.1865,2.1425,5.2031,0,1.8008-1.7285,2.7549-3.331,2.7549-.81,0-2.7-.3955-2.7-1.458,0-.666.36-1.3145.918-1.3145.7207,0,1.1162.792,1.7646.7559.3418-.0176.54-.4863.54-.7735,0-.7207-1.3506-2.2871-1.71-3.0615a5.2658,5.2658,0,0,1-.45-2.1064C174.7965,29.3276,176.8844,28.3559,179.2438,28.3559Z"/><path class="4617de3f-d47c-49aa-9586-55d0f76e40f0" d="M192.3121,29.76c-.5576,0-1.0439.09-1.71.09a.4156.4156,0,0,0-.4141.3965v8.6426c0,.414.0352.8281.0352,1.26,0,1.045-.3594,1.5489-1.4756,1.5489-1.6026,0-1.4952-1.08-1.4952-2.3047,0-.918.0547-.9.0547-1.8184v-7.706a.38.38,0,0,0-.414-.3789c-.5049,0-.3428.0546-.8467.0546-.63,0-2.5566,0-2.5566-.9726s.8457-1.1162,1.5664-1.1162c1.4941,0,2.3222-.0537,3.8173-.0537.9717,0,5.0049-.2168,5.0049,1.3144C193.8785,29.4359,192.9244,29.76,192.3121,29.76Z"/><path class="4617de3f-d47c-49aa-9586-55d0f76e40f0" d="M200.2486,40.4731c-4.0156,0-3.9794-4.4649-4.0156-7.4,0-.45,0-.9-.0351-1.3505-.0186-.2168-.0723-.45-.0723-.667,0-.7373.8105-1.0616,1.4219-1.0616,1.6386,0,1.6748,1.2422,1.6748,2.503,0,1.35-.1436,4.5732.7383,5.6172.36.4677.7382-.0723.99-.4317a15.7,15.7,0,0,0,2.125-6.95c0-.5947-.1807-1.4765.27-1.9453a1.5929,1.5929,0,0,1,1.1709-.4678c1.6924,0,1.584,1.4766,1.584,2.7012a34.0225,34.0225,0,0,0,.45,6.0674c.1084.4678.5947.7559.5947,1.2246,0,.7022-.99,1.0439-1.5849,1.0439-1.1162,0-1.584-.9365-1.7461-.9365C203.6158,38.42,202.5533,40.4731,200.2486,40.4731Z"/><path class="4617de3f-d47c-49aa-9586-55d0f76e40f0" d="M218.5914,33.0736c0,3.6368-3.4023,5.8516-6.68,6.3018a3.92,3.92,0,0,1-.6484.0537,1.2559,1.2559,0,0,1-1.4219-1.3867c0-2.7363.0176-5.4736.0176-8.21,0-1.5664,1.8545-1.3506,2.9531-1.3506C215.6393,28.4818,218.5914,29.85,218.5914,33.0736Zm-5.4375,3.7627a4.3039,4.3039,0,0,0,2.5215-3.7627,2.5953,2.5953,0,0,0-.6123-1.747,2.9019,2.9019,0,0,0-1.8008-.7559c-.2881-.0723-.4863.0361-.4863.3955v5.6182A.2522.2522,0,0,0,213.1539,36.8363Z"/><path class="4617de3f-d47c-49aa-9586-55d0f76e40f0" d="M221.5592,31.8129c.1084-.5586.7207-.7568,1.2246-.7568.666,0,1.53.3427,1.53,1.1172,0,1.4765-.1621,2.7363-.1621,4.2128a4.0772,4.0772,0,0,0,.1084,1.6748.6764.6764,0,0,1,.09.3243,1.5864,1.5864,0,0,1-.1074.4853,1.38,1.38,0,0,1-1.4229.9c-1.2422,0-1.53-.72-1.53-1.8183,0-.2881.0175-.5762.0175-.8643A27.2308,27.2308,0,0,1,221.5592,31.8129Zm-.1074-3.4033a1.2751,1.2751,0,0,1,1.4218-1.1524c.7022,0,1.44.378,1.44,1.1524a1.46,1.46,0,0,1-2.8623,0Z"/><path class="4617de3f-d47c-49aa-9586-55d0f76e40f0" d="M226.8326,34.64c0-2.7549,1.585-5.7618,4.4834-6.2481a11.2784,11.2784,0,0,1,1.7471-.1621c2.9707,0,4.4834,1.998,4.4834,4.8437,0,3.4571-2.125,6.5176-5.7979,6.5176A4.6316,4.6316,0,0,1,226.8326,34.64Zm2.8809-.1084c0,1.35.45,3.0244,2.0889,3.0244,1.9443,0,2.8808-2.7725,2.8808-4.3926,0-.7207-.2881-2.7373-1.2422-2.7373-.2158,0-.414.0537-.63.0537-.2529,0-.5048-.0537-.7568-.0537C230.524,30.4262,229.7135,33.307,229.7135,34.5317Z"/><path class="4617de3f-d47c-49aa-9586-55d0f76e40f0" d="M244.4733,30.8588a.7512.7512,0,0,1,.0722-.2881,3.8462,3.8462,0,0,1,3.4209-2.0351,2.7472,2.7472,0,0,1,2.8809,2.8271c0,1.7647-1.3692,3.7988-2.1787,5.3291a1.4822,1.4822,0,0,1-1.459.8828c-.5039,0-1.3321-.3418-1.3321-.9541,0-.81,2.2325-3.2051,2.2325-5.33,0-.1982-.0537-.7558-.3242-.7558-.4864,0-.6124,1.2783-1.9258,1.2783C245.3375,31.8129,244.4733,31.4711,244.4733,30.8588Zm4.1406,9.9746c0,.6846-.7735.9727-1.35.9727s-1.3692-.2881-1.3692-.9727c0-.666.8106-.9541,1.3692-.9541S248.6139,40.1674,248.6139,40.8334Z"/></g></svg>