<svg xmlns="http://www.w3.org/2000/svg" width="34.3076mm" height="33.6903mm" viewBox="0 0 97.25 95.5"><defs><style>.a{fill:#e15b2b;}</style></defs><title>Travail-EC-01</title><path class="a" d="M19.916,18.2637a.74.74,0,0,1,.5225.2734.7488.7488,0,0,1,.18.5713.739.739,0,0,1-.2637.5244l-1.7022,1.4326,4.815,5.7188a.77.77,0,1,1-1.1773.9922l-4.8154-5.7178-1.6924,1.4238a.7269.7269,0,0,1-.5664.1748.7614.7614,0,0,1-.5273-.2783.7632.7632,0,0,1,.0927-1.084l4.5723-3.8515A.7444.7444,0,0,1,19.916,18.2637Z"/><path class="a" d="M26.2041,18.5479a2.2643,2.2643,0,0,1,.4976-.9493,2.61,2.61,0,0,1,.8-.6738.9769.9769,0,0,1,.7021-.124.6866.6866,0,0,1,.43.3525.7289.7289,0,0,1,.0522.5655.7017.7017,0,0,1-.3608.4423q-1.1529.6051-.8394,2.8282l1.2369,2.3554a.7047.7047,0,0,1,.0459.5684.7469.7469,0,0,1-.377.4433.7228.7228,0,0,1-.5713.0557.7135.7135,0,0,1-.4365-.3652L24.82,19.1641a.6959.6959,0,0,1-.0488-.5606.7327.7327,0,0,1,.3735-.4326.7648.7648,0,0,1,.5752-.0645.6842.6842,0,0,1,.4385.3545Z"/><path class="a" d="M32.74,21.1006a3.6711,3.6711,0,0,1-1.3418-4.7627,3.11,3.11,0,0,1,2.0049-1.6338,3.1563,3.1563,0,0,1,1.959.0869.8806.8806,0,0,1,.1367-.4961.7034.7034,0,0,1,.418-.3.6841.6841,0,0,1,.5449.0791.7426.7426,0,0,1,.3535.4531l1.4922,5.2969a.7149.7149,0,0,1-.0664.5635.694.694,0,0,1-.4267.3457.7224.7224,0,0,1-.51-.03.8373.8373,0,0,1-.3735-.3457,3.1671,3.1671,0,0,1-1.6289,1.084A3.12,3.12,0,0,1,32.74,21.1006Zm-.1513-2.5244a2.0569,2.0569,0,0,0,.8769,1.23,1.6781,1.6781,0,0,0,1.4229.1953,1.7255,1.7255,0,0,0,1.1245-.9131,2.0154,2.0154,0,0,0,.1216-1.5029,2.0515,2.0515,0,0,0-.8994-1.2315,1.7224,1.7224,0,0,0-1.4327-.207,1.6865,1.6865,0,0,0-1.1025.914A2.0694,2.0694,0,0,0,32.5889,18.5762Z"/><path class="a" d="M42.9175,20.0781c-.1612-.0693-.2544-.1279-.2788-.1787a.4784.4784,0,0,0-.0528-.09c-.0283-.0078-.0527-.044-.0742-.1094l-2.4595-5.3477a.6542.6542,0,0,1-.0263-.5517.7539.7539,0,0,1,.3984-.4141.5936.5936,0,0,1,.5318-.0195.7885.7885,0,0,1,.42.3926l1.7451,3.748,1.4873-3.8633a.7368.7368,0,0,1,.37-.4209.659.659,0,0,1,.56-.0185.7552.7552,0,0,1,.42.3847.6543.6543,0,0,1,.0122.5518L43.87,19.6523a.2928.2928,0,0,1-.0532.1c-.0176.02-.0356.0419-.0532.0654a.8043.8043,0,0,1-.0874.0937.83.83,0,0,0-.0879.0948.1586.1586,0,0,1-.0684.0517l-.0278.001,0,.0127a.2787.2787,0,0,0-.1113.0322l-.0274.002a.56.56,0,0,1-.1328.0185.6128.6128,0,0,1-.1338-.01l-.0273.0019a.51.51,0,0,0-.1133-.0244l-.0005-.0147Z"/><path class="a" d="M48.6689,19.2041a3.6709,3.6709,0,0,1,1.004-4.8457,3.1085,3.1085,0,0,1,2.5322-.5264,3.1525,3.1525,0,0,1,1.6982.98.8888.8888,0,0,1,.35-.3789.6976.6976,0,0,1,.5088-.0732.6888.6888,0,0,1,.4483.3222.7384.7384,0,0,1,.1045.5645l-1.1153,5.3886a.7163.7163,0,0,1-.3193.47.69.69,0,0,1-.5376.11.7172.7172,0,0,1-.439-.2627.8274.8274,0,0,1-.1719-.4795,3.1642,3.1642,0,0,1-1.9458.2129A3.1288,3.1288,0,0,1,48.6689,19.2041Zm1.0289-2.3105A2.06,2.06,0,0,0,49.91,18.39a1.6822,1.6822,0,0,0,1.1723.8282,1.7268,1.7268,0,0,0,1.419-.293,2.0094,2.0094,0,0,0,.8-1.2783,2.0455,2.0455,0,0,0-.2315-1.5059,1.7089,1.7089,0,0,0-1.1758-.8437,1.6743,1.6743,0,0,0-1.3994.3047A2.0621,2.0621,0,0,0,49.6978,16.8936Z"/><path class="a" d="M58.9492,16.0283a.7787.7787,0,0,1,1,.4014.7494.7494,0,0,1-.0044.5947L57.9087,22.09a.7335.7335,0,0,1-.4019.419.7175.7175,0,0,1-.5747.0029.7342.7342,0,0,1-.417-.4082.7255.7255,0,0,1-.0092-.5771L58.542,16.46A.744.744,0,0,1,58.9492,16.0283Zm2.05-1.6289-.1094.2735a.7521.7521,0,0,1-.4052.4248.7078.7078,0,0,1-.5772.0087.73.73,0,0,1-.416-.4072.7417.7417,0,0,1-.0049-.5908l.11-.2725a.7559.7559,0,1,1,1.4028.5635Z"/><path class="a" d="M63.8994,15.791a.7634.7634,0,0,1,1.041-.3193.7664.7664,0,0,1,.3838.456.7311.7311,0,0,1-.0517.59l-3.8672,7.3a.7265.7265,0,0,1-.4595.374.7624.7624,0,0,1-.5933-.0605.7653.7653,0,0,1-.32-1.0411Z"/><path class="a" d="M72.5811,29.2363a.6468.6468,0,0,1-.4932.2129.7662.7662,0,0,1-.5166-.2431L68.3955,26.085a1.689,1.689,0,0,0-.3086.9931,1.97,1.97,0,0,0,.4976,1.3614,2.0538,2.0538,0,0,0,1.3042.8017.7278.7278,0,0,1,.5561.2324.582.582,0,0,1,.2222.4727.6251.6251,0,0,1-.6377.6484,3.4944,3.4944,0,0,1-2.4053-1.0761,3.2938,3.2938,0,0,1-1.0263-2.4512,3.5423,3.5423,0,0,1,3.458-3.52,3.1813,3.1813,0,0,1,2.4238.9385,3.28,3.28,0,0,1,1.04,2.3076,3.3806,3.3806,0,0,1-.8891,2.3935Zm-1.0137-3.7832A1.9784,1.9784,0,0,0,70.2861,24.9a1.8386,1.8386,0,0,0-1.1064.2871l2.8262,2.7764a1.9077,1.9077,0,0,0,.1826-1.1543A2.4294,2.4294,0,0,0,71.5674,25.4531Z"/><path class="a" d="M72.437,34.1084a.6818.6818,0,0,1-.5723.0713.7773.7773,0,0,1-.4663-.3467.7414.7414,0,0,1,.2491-1.0137l4.7041-2.8808a.7419.7419,0,0,1,1.02.2451.7132.7132,0,0,1-.0122.8125,2.7156,2.7156,0,0,1,1.145,1.0391,2.9272,2.9272,0,0,1-.9556,4.0156l-2.8535,1.7471a.7224.7224,0,0,1-.5571.0957.6849.6849,0,0,1-.4522-.3233.7277.7277,0,0,1-.0888-.5605.6986.6986,0,0,1,.3305-.4649l2.854-1.748a1.338,1.338,0,0,0,.63-.8867,1.4189,1.4189,0,0,0-.1807-1.0879,1.3482,1.3482,0,0,0-.875-.6368,1.3709,1.3709,0,0,0-1.0659.1768Z"/><path class="a" d="M77.3882,44.2363a3.4248,3.4248,0,0,1,4.8393-.9687,3.526,3.526,0,0,1,1.5079,2.2549,3.5877,3.5877,0,0,1-.3184,2.333.7236.7236,0,0,1-.4326.373.7116.7116,0,0,1-.5713-.0361.7336.7336,0,0,1-.3706-.4258.6677.6677,0,0,1,.0449-.5586,2.3055,2.3055,0,0,0,.166-1.4541,1.9423,1.9423,0,0,0-.8638-1.248,1.931,1.931,0,0,0-2.7675.5468,1.9423,1.9423,0,0,0-.31,1.4825,2.3115,2.3115,0,0,0,.7139,1.2851.666.666,0,0,1,.2412.4942.7409.7409,0,0,1-.1768.5429.6819.6819,0,0,1-.4995.249.8056.8056,0,0,1-.5561-.1738,3.7459,3.7459,0,0,1-1.1641-2.0371A3.4542,3.4542,0,0,1,77.3882,44.2363Z"/><path class="a" d="M77.3628,54.249a3.1682,3.1682,0,0,1,1.1333-2.35,3.62,3.62,0,0,1,4.9585.2119,3.15,3.15,0,0,1,.9443,2.4141,3.0852,3.0852,0,0,1-1.1528,2.3125,3.5774,3.5774,0,0,1-2.5513.8691,3.2191,3.2191,0,0,1-2.3657-1.0781A2.9613,2.9613,0,0,1,77.3628,54.249Zm5.0347-1.1367a2.153,2.153,0,0,0-1.4336-.5644A2.2626,2.2626,0,0,0,79.46,52.99a1.9308,1.9308,0,0,0-.1084,2.6289,2.153,2.153,0,0,0,1.46.6075,2.0573,2.0573,0,0,0,1.4776-.4864,1.8911,1.8911,0,0,0,.1084-2.6279Z"/><path class="a" d="M78.1016,65.6689a2.7832,2.7832,0,0,1-1.7188-1.42,2.8583,2.8583,0,0,1-.2388-2.2324,2.8192,2.8192,0,0,1,1.4029-1.73,2.7892,2.7892,0,0,1,2.2168-.2422l3.209.9483a.7214.7214,0,0,1,.4355.3545.7286.7286,0,0,1-.2978,1.0068.7291.7291,0,0,1-.5582.0615l-3.2084-.9482a1.41,1.41,0,0,0-1.7745.9648,1.46,1.46,0,0,0,.9532,1.8145l3.2085.9473a.74.74,0,0,1,.437.35.6727.6727,0,0,1,.07.5527.7463.7463,0,0,1-.3653.4473.7044.7044,0,0,1-.5625.0742Z"/><path class="a" d="M79.0112,71.2588a2.269,2.269,0,0,1,.1167,1.0654,2.6061,2.6061,0,0,1-.289,1.0059.9668.9668,0,0,1-.5137.4941.6838.6838,0,0,1-.5527-.0527.7292.7292,0,0,1-.3589-.44.709.709,0,0,1,.0527-.5684q.6189-1.144-.8813-2.8145l-2.3409-1.2646a.7055.7055,0,0,1-.3545-.4473.7436.7436,0,0,1,.0655-.5771.7389.7389,0,0,1,1.0088-.3057l4.8525,2.6221a.69.69,0,0,1,.3525.4365.7346.7346,0,0,1-.0683.5674.7561.7561,0,0,1-.4409.375.6757.6757,0,0,1-.562-.05Z"/><path class="a" d="M73.5762,79.2236a.7163.7163,0,0,1-.5625-.05.778.778,0,0,1-.3838-.4277.7184.7184,0,0,1,.05-.5625.7071.7071,0,0,1,.4492-.3662,2.5524,2.5524,0,0,0,1.2173-.6817,1.3071,1.3071,0,0,0,.3276-.8066c.0137-.18-.01-.2949-.0713-.3447a.34.34,0,0,0-.1582-.084.4859.4859,0,0,0-.19.0361,2.7212,2.7212,0,0,0-.9038.583l-.02.002-.0088.0117a5.8444,5.8444,0,0,1-1.1807.791,1.9784,1.9784,0,0,1-1.1709.2246,1.8862,1.8862,0,0,1-.9355-.3789,1.94,1.94,0,0,1-.708-1.707,3.1352,3.1352,0,0,1,.7085-1.7686,4.0162,4.0162,0,0,1,2.3178-1.33.716.716,0,0,1,.55.1113.672.672,0,0,1,.3179.4639.6626.6626,0,0,1-.0991.5673.7019.7019,0,0,1-.4736.32,2.33,2.33,0,0,0-1.4478.81,1.7385,1.7385,0,0,0-.3921.9082.5589.5589,0,0,0,.1192.42.3488.3488,0,0,0,.1845.0948.4477.4477,0,0,0,.2451-.0362,3.0507,3.0507,0,0,0,1.0088-.624l.0088-.0107a5.1584,5.1584,0,0,1,1.13-.752,2.1814,2.1814,0,0,1,1.1577-.207,1.6612,1.6612,0,0,1,.835.37,1.8773,1.8773,0,0,1,.6787,1.61,2.9927,2.9927,0,0,1-.6846,1.67A3.7508,3.7508,0,0,1,73.5762,79.2236Z"/><path class="a" d="M63.3345,80.8555a.7539.7539,0,0,1-.1421-.5694.7253.7253,0,0,1,.3076-.497.7623.7623,0,0,1,1.0742.1777l.1636.2275a.7291.7291,0,0,1,.13.5782.755.755,0,0,1-.3072.4961.73.73,0,0,1-.563.1269.7458.7458,0,0,1-.5-.3125ZM64.71,82.4023a.7234.7234,0,0,1,.3072-.497.767.767,0,0,1,1.0752.1767l3.2964,4.5957a.7322.7322,0,0,1,.13.5782.7478.7478,0,0,1-.3071.4961.7222.7222,0,0,1-.563.1279.7393.7393,0,0,1-.5-.3115l-3.2969-4.5977A.75.75,0,0,1,64.71,82.4023Z"/><circle class="a" cx="44.5916" cy="52.9373" r="20.4084"/></svg>