<svg xmlns="http://www.w3.org/2000/svg" width="361" height="58" viewBox="0 0 361 58"><defs><style>.e8b67a80-19b8-44a2-9933-460b727cb48c{fill:none;stroke:#d6e9d7;stroke-linecap:round;stroke-linejoin:round;stroke-width:24px;}</style></defs><title>Vertlong</title><g id="aeaa32d6-81f8-40bc-ab31-cd4242817344" data-name="Dessins"><path class="e8b67a80-19b8-44a2-9933-460b727cb48c" d="M13.3594,38.0976A61.4177,61.4177,0,0,1,34.8245,23.6193L42.8124,43.737A128.6734,128.6734,0,0,0,58.847,13.6751L69.62,31.26c.9376,1.53,2.0336,3.1844,3.7645,3.6586,5.6418,1.5455,6.5105-9.4919,12.1392-11.0841,3.8683-1.0942,7.1691,2.9649,8.7718,6.6516s3.3729,8.131,7.3053,8.9662c4.9392,1.049,8.5745-4.3422,10.9395-8.8035s6.9144-9.4865,11.5081-7.39c2.0222.9227,3.2213,2.9969,4.29,4.9459l9.4931,17.3164,31.0235-15.8123a7.79,7.79,0,0,1,3.032-1.0472c2.44-.1328,4.3612,1.95,5.8968,3.85l9.5384,11.8023,9.9672-14.7686a6.2054,6.2054,0,0,1,2.6226-2.57c1.491-.5774,3.1373.0668,4.68.485a16.8858,16.8858,0,0,0,19.1744-9.07,59.4978,59.4978,0,0,0,9.7477,15.9335,8.6252,8.6252,0,0,0,3.6121,2.858c2.096.6915,4.3537-.1792,6.3874-1.037L276.3365,22.3l9.0843,17.1672,13.37-22.0389c.5492-.9052,1.2906-1.9231,2.3492-1.9074a2.8321,2.8321,0,0,1,1.9676,1.2588c4.6675,5.675,6.1469,15.14,13.32,16.7328,6.2665,1.3915,11.4857-4.6238,15.0839-9.94,7.9448,9.2221,9.9954,10.8419,15.7754,21.5545"/></g></svg>