<svg xmlns="http://www.w3.org/2000/svg" width="69.4972mm" height="20.6375mm" viewBox="0 0 197 58.5"><defs><style>.\32 f4a291c-c940-4e52-a55c-952e9f264008{fill:none;stroke:#d7ead8;stroke-linecap:round;stroke-linejoin:round;stroke-width:24px;}</style></defs><title>Texte-fond</title><g id="7e5c6cdb-41f8-4abf-acec-3b1005e248e9" data-name="Texte"><path class="2f4a291c-c940-4e52-a55c-952e9f264008" d="M12.8111,38.3392A61.4168,61.4168,0,0,1,34.2762,23.8609l7.9879,20.1177A128.6734,128.6734,0,0,0,58.2987,13.9167L69.0716,31.5016c.9375,1.53,2.0336,3.1844,3.7645,3.6586,5.6418,1.5456,6.51-9.4919,12.1392-11.0841,3.8682-1.0942,7.1691,2.9649,8.7718,6.6516s3.3729,8.131,7.3052,8.9662c4.9392,1.049,8.5746-4.3422,10.9395-8.8035s6.9144-9.4865,11.5082-7.39c2.0221.9227,3.2213,2.9969,4.29,4.9459l9.4931,17.3164L168.3064,29.95a7.79,7.79,0,0,1,3.032-1.0472c2.4394-.1328,4.3611,1.95,5.8968,3.85l6.726,8.3225"/></g></svg>