<svg id="c6b1449f-fe58-4a64-add3-205f3b574c80" data-name="Layer 1" xmlns="http://www.w3.org/2000/svg" xmlns:xlink="http://www.w3.org/1999/xlink" width="180mm" height="180mm" viewBox="0 0 510.2362 510.2362"><defs><style>.f29368f3-0c9e-4eca-afbb-e051f54aa0ad{fill:#e3212a;}.aa79b0a7-c702-4b59-9727-b29bb7d47b95{fill:#d7dcee;}.\38 68763b8-5798-4e41-903f-ba6807b168fb{fill:#fff;}.\37 db87074-7f11-4a21-bec5-8b4567ec90d4{fill:#b99f12;}.\32 3eadfdb-6212-4095-9f3c-9f1bfefc3d68{isolation:isolate;}.\30 d877ae3-c0a0-46ed-826c-553f7f6502e3{fill:#f08a59;}.\35 243839c-937a-4cbb-a5fe-55aebeffb178{clip-path:url(#eb56b7bf-0923-4345-899b-ff9d3f6e982a);}.d42817ba-702d-4681-b56f-8518d7abfeb4{clip-path:url(#212b0148-561f-477b-b2a6-c5b2406265dd);}.c6bbb07a-d77a-48de-9b8f-b614a3bcfc8b{clip-path:url(#a54c238d-61f1-47de-82d0-8d69573e25d9);}.f0e0cf3e-bc0c-42e6-8f26-44eec6417acb{clip-path:url(#6c844183-a36e-4fee-815d-c7ff0329a4da);}.\32 0d1e1bc-4bdb-4620-8580-c451d7dca3e7{clip-path:url(#40e8a65b-fa4d-4988-93c0-35ac91f155c8);}.\31 9889139-4179-4811-b338-827ca117e1a4{clip-path:url(#ed3089e3-5147-4663-be65-bcd0e9e5992e);}.\32 e689d8d-bff7-4b19-ab16-366f8122f69d{clip-path:url(#a39ee326-5e8b-4928-a220-cf3cc12b8fb2);}.\39 1d47cf0-1ee7-4d00-b01e-4c200b268dbe{clip-path:url(#0e360c9d-0b98-4a04-bbb8-7c8fbe80a5f9);}.\32 6824279-557f-405b-bdaa-7861b3f09f16{clip-path:url(#65821662-2e8a-4af5-9ed8-8b7d88a5134b);}.\36 a7d8499-98f5-44a3-ac46-f1abb40bd8fb{clip-path:url(#1008c377-1fdb-4070-8a4f-8ed812de6b98);}.ffeaa58c-8c49-4a4a-8750-22ce700ade60{clip-path:url(#0706b618-5642-47a9-9e8a-8a37188dceaa);}.\31 696e5dc-b7d7-44fb-80f5-d74a468976ba{clip-path:url(#0db04216-b8e0-4770-b228-52598de4f563);}.\35 cde066a-2c11-42ad-aaaf-5f3259108723{clip-path:url(#f068f79e-66a3-4608-bcbe-e9b9825827d0);}.\33 6f2fd8b-4a80-49d8-aebd-eba3b11c02e6{fill:none;stroke:#f08a59;stroke-linecap:round;stroke-linejoin:round;stroke-width:2px;}</style><clipPath id="eb56b7bf-0923-4345-899b-ff9d3f6e982a"><path class="f29368f3-0c9e-4eca-afbb-e051f54aa0ad" d="M166.1462,206.9738l-.4171.2424a.437.437,0,0,0,.1825-.4009l.4171-.2424A.4374.4374,0,0,1,166.1462,206.9738Z"/></clipPath><clipPath id="212b0148-561f-477b-b2a6-c5b2406265dd"><path class="f29368f3-0c9e-4eca-afbb-e051f54aa0ad" d="M185.7342,218.377l-.4171.2424a.44.44,0,0,0,.1835-.4031l.417-.2424A.44.44,0,0,1,185.7342,218.377Z"/></clipPath><clipPath id="a54c238d-61f1-47de-82d0-8d69573e25d9"><path class="f29368f3-0c9e-4eca-afbb-e051f54aa0ad" d="M165.4326,112.5364l.4171-.2424a.4394.4394,0,0,1,.4441.0424,1.3836,1.3836,0,0,1,.632,1.0911l-.4171.2424a1.3835,1.3835,0,0,0-.6319-1.0911A.4393.4393,0,0,0,165.4326,112.5364Z"/></clipPath><clipPath id="6c844183-a36e-4fee-815d-c7ff0329a4da"><path class="f29368f3-0c9e-4eca-afbb-e051f54aa0ad" d="M185.0207,123.94l.417-.2423a.448.448,0,0,1,.4519.0442l-.417.2424A.4483.4483,0,0,0,185.0207,123.94Z"/></clipPath><clipPath id="40e8a65b-fa4d-4988-93c0-35ac91f155c8"><path class="f29368f3-0c9e-4eca-afbb-e051f54aa0ad" d="M185.4726,123.9838l.417-.2424a1.3811,1.3811,0,0,1,.6251,1.0871l-.417.2424A1.3813,1.3813,0,0,0,185.4726,123.9838Z"/></clipPath><clipPath id="ed3089e3-5147-4663-be65-bcd0e9e5992e"><path class="f29368f3-0c9e-4eca-afbb-e051f54aa0ad" d="M194.6316,232.4762l.8341.4847a.4451.4451,0,0,0-.449.0448l-.8342-.4848A.4452.4452,0,0,1,194.6316,232.4762Z"/></clipPath><clipPath id="a39ee326-5e8b-4928-a220-cf3cc12b8fb2"><path class="f29368f3-0c9e-4eca-afbb-e051f54aa0ad" d="M194.3916,234.0927l-.8342-.4847a1.3816,1.3816,0,0,1,.6251-1.0871l.8342.4848A1.3807,1.3807,0,0,0,194.3916,234.0927Z"/></clipPath><clipPath id="0e360c9d-0b98-4a04-bbb8-7c8fbe80a5f9"><path class="f29368f3-0c9e-4eca-afbb-e051f54aa0ad" d="M175.042,243.7874l.8341.4847a.4448.4448,0,0,0-.4487.0434,1.3816,1.3816,0,0,0-.6251,1.0871l-.8341-.4847a1.3813,1.3813,0,0,1,.6251-1.0871A.4445.4445,0,0,1,175.042,243.7874Z"/></clipPath><clipPath id="65821662-2e8a-4af5-9ed8-8b7d88a5134b"><path class="f29368f3-0c9e-4eca-afbb-e051f54aa0ad" d="M250.3056,262.7779l.8341.4847a.4452.4452,0,0,0-.4491.0448l-.8341-.4848A.4452.4452,0,0,1,250.3056,262.7779Z"/></clipPath><clipPath id="1008c377-1fdb-4070-8a4f-8ed812de6b98"><path class="f29368f3-0c9e-4eca-afbb-e051f54aa0ad" d="M250.0655,264.3944l-.8341-.4847a1.3813,1.3813,0,0,1,.6251-1.0871l.8341.4848A1.381,1.381,0,0,0,250.0655,264.3944Z"/></clipPath><clipPath id="0706b618-5642-47a9-9e8a-8a37188dceaa"><path class="f29368f3-0c9e-4eca-afbb-e051f54aa0ad" d="M230.7159,274.0891l.8341.4847a.4446.4446,0,0,0-.4486.0434,1.3811,1.3811,0,0,0-.6251,1.0871l-.8341-.4848a1.3807,1.3807,0,0,1,.6251-1.087A.4444.4444,0,0,1,230.7159,274.0891Z"/></clipPath><clipPath id="0db04216-b8e0-4770-b228-52598de4f563"><path class="aa79b0a7-c702-4b59-9727-b29bb7d47b95" d="M313.3935,133.5475l-20.8527-12.1183c2.4411,1.4186,5.8214,1.22,9.5519-.9342,6.4718-3.7365,11.86-12.1217,13.1091-19.857l20.8528,12.1183c-1.25,7.7353-6.6373,16.1205-13.1091,19.857C319.215,134.7671,315.8347,134.9661,313.3935,133.5475Z"/></clipPath><clipPath id="f068f79e-66a3-4608-bcbe-e9b9825827d0"><path class="f29368f3-0c9e-4eca-afbb-e051f54aa0ad" d="M313.4108,139.8735l-20.8527-12.1183c-2.4113-1.4013-3.9064-4.3813-3.9184-8.616a20.5192,20.5192,0,0,1,.2744-3.324l20.8527,12.1183a20.53,20.53,0,0,0-.2743,3.324C309.5045,135.4922,311,138.4722,313.4108,139.8735Z"/></clipPath></defs><title>inv-1</title><rect class="868763b8-5798-4e41-903f-ba6807b168fb" width="510.2362" height="510.2362"/><path class="aa79b0a7-c702-4b59-9727-b29bb7d47b95" d="M236.4776,289.84a78.67,78.67,0,0,1,27.0364,21.3889,75.3294,75.3294,0,0,1,5.1616,7.2359c1.569,2.4913,2.9907,5.039,4.2883,7.64a92.9065,92.9065,0,0,1,6.2608,16.3041,81.4142,81.4142,0,0,1,2.929,17.9186,60.2777,60.2777,0,0,1-2.2979,19.9137,48.84,48.84,0,0,1-4.4129,10.3278,44.1452,44.1452,0,0,1-7.4015,9.6149,42.1659,42.1659,0,0,1-10.4769,7.4476,54.4774,54.4774,0,0,1-10.68,3.9705c-3.3133.8734-6.3135,1.4333-9.0735,1.9116-2.76.4732-5.2932.8574-7.6709,1.2424a128.48,128.48,0,0,0-12.7531,2.5916c-1.9363.5108-3.788,1.0978-5.6054,1.7176-1.8.654-3.5714,1.3206-5.287,2.1034-1.7279.7463-3.406,1.6067-5.0713,2.4884-.8292.4484-1.6359.95-2.454,1.4132-.4047.2417-.8217.4544-1.2162.7154l-1.1851.7741c-12.6684,8.1462-22.7184,20.2392-30.5113,34.6325a26.8511,26.8511,0,1,1-45.2888-28.6363l.4569-.6128a160.09,160.09,0,0,1,23.7423-25.966,135.7879,135.7879,0,0,1,14.4-10.9036c1.2827-.814,2.5369-1.6547,3.8446-2.43l3.9414-2.2886c2.6875-1.4354,5.3647-2.8693,8.1521-4.1057l2.0718-.9513c.69-.3169,1.4058-.5842,2.1073-.8762,1.4138-.5644,2.8106-1.1534,4.2366-1.6794,2.8579-1.0367,5.7439-2.0092,8.6785-2.8175,2.9222-.8449,5.8837-1.5185,8.8321-2.1237,2.9509-.568,5.8985-1.048,8.8015-1.3953,5.8047-.71,11.4294-.9641,16.491-1.0927,5.0162-.1192,9.4979-.1841,12.4948-.4992a29.985,29.985,0,0,0,3.3345-.4994,6.9924,6.9924,0,0,0,1.8131-.5792,7.4565,7.4565,0,0,0,2.0009-1.6759,13.5249,13.5249,0,0,0,1.9375-2.9374,26.6708,26.6708,0,0,0,2.3971-9.0594,50.2063,50.2063,0,0,0-.26-11.3331,60.7468,60.7468,0,0,0-7.6145-22.55,54.822,54.822,0,0,0-16.75-17.3952l-.1849-.1236A10.8722,10.8722,0,0,1,236.4776,289.84Z"/><rect class="7db87074-7f11-4a21-bec5-8b4567ec90d4" x="214.3292" y="339.6723" width="0.3002" height="18.8967"/><rect class="7db87074-7f11-4a21-bec5-8b4567ec90d4" x="222.0444" y="350.1975" width="0.3002" height="18.8967"/><rect class="7db87074-7f11-4a21-bec5-8b4567ec90d4" x="204.3344" y="348.3815" width="0.3002" height="18.8967"/><g class="23eadfdb-6212-4095-9f3c-9f1bfefc3d68"><polygon class="0d877ae3-c0a0-46ed-826c-553f7f6502e3" points="255.115 266.78 255.197 296.04 184.945 336.601 184.862 307.34 255.115 266.78"/><polygon class="f29368f3-0c9e-4eca-afbb-e051f54aa0ad" points="184.945 336.601 164.092 324.482 164.009 295.222 184.862 307.34 184.945 336.601"/><polygon class="aa79b0a7-c702-4b59-9727-b29bb7d47b95" points="184.862 307.34 164.009 295.222 234.262 254.662 255.115 266.78 184.862 307.34"/></g><g class="23eadfdb-6212-4095-9f3c-9f1bfefc3d68"><polygon class="f29368f3-0c9e-4eca-afbb-e051f54aa0ad" points="164.126 254.146 164.009 295.631 120.837 270.706 120.955 229.221 164.126 254.146"/><polygon class="0d877ae3-c0a0-46ed-826c-553f7f6502e3" points="164.126 254.146 209.119 228.07 209.001 269.555 164.009 295.631 164.126 254.146"/><polygon class="aa79b0a7-c702-4b59-9727-b29bb7d47b95" points="120.955 229.221 165.947 203.144 209.119 228.07 164.126 254.146 120.955 229.221"/></g><g class="23eadfdb-6212-4095-9f3c-9f1bfefc3d68"><polygon class="f29368f3-0c9e-4eca-afbb-e051f54aa0ad" points="344.365 117.465 344.125 282.382 309.589 262.443 309.83 97.526 344.365 117.465"/><polygon class="0d877ae3-c0a0-46ed-826c-553f7f6502e3" points="344.365 117.465 365.218 105.347 364.977 270.264 344.125 282.382 344.365 117.465"/><polygon class="aa79b0a7-c702-4b59-9727-b29bb7d47b95" points="309.83 97.526 330.683 85.408 365.218 105.347 344.365 117.465 309.83 97.526"/></g><g class="23eadfdb-6212-4095-9f3c-9f1bfefc3d68"><polygon class="f29368f3-0c9e-4eca-afbb-e051f54aa0ad" points="345.729 73.828 345.675 110.298 338.038 105.888 338.091 69.418 345.729 73.828"/><polygon class="0d877ae3-c0a0-46ed-826c-553f7f6502e3" points="345.729 73.828 350.34 71.148 350.287 107.618 345.675 110.298 345.729 73.828"/><polygon class="aa79b0a7-c702-4b59-9727-b29bb7d47b95" points="338.091 69.418 342.703 66.739 350.34 71.148 345.729 73.828 338.091 69.418"/></g><polygon class="f29368f3-0c9e-4eca-afbb-e051f54aa0ad" points="323.336 209.989 323.272 214.399 163.974 122.428 164.038 118.018 323.336 209.989"/><polygon class="0d877ae3-c0a0-46ed-826c-553f7f6502e3" points="323.336 208.066 344.189 195.948 344.125 200.357 323.272 212.476 323.336 208.066"/><polygon class="aa79b0a7-c702-4b59-9727-b29bb7d47b95" points="164.038 118.018 184.891 105.9 344.189 197.871 323.336 209.989 164.038 118.018"/><g class="23eadfdb-6212-4095-9f3c-9f1bfefc3d68"><g class="23eadfdb-6212-4095-9f3c-9f1bfefc3d68"><path class="f29368f3-0c9e-4eca-afbb-e051f54aa0ad" d="M166.1462,206.9738l-.4171.2424a.437.437,0,0,0,.1825-.4009l.4171-.2424A.4374.4374,0,0,1,166.1462,206.9738Z"/><g class="5243839c-937a-4cbb-a5fe-55aebeffb178"><g class="23eadfdb-6212-4095-9f3c-9f1bfefc3d68"><polyline class="f29368f3-0c9e-4eca-afbb-e051f54aa0ad" points="165.912 206.815 166.329 206.573 166.329 206.575 165.912 206.817 165.912 206.815"/><path class="f29368f3-0c9e-4eca-afbb-e051f54aa0ad" d="M165.9116,206.8171l.4171-.2424-.0007.03-.4171.2424.0007-.03"/><path class="f29368f3-0c9e-4eca-afbb-e051f54aa0ad" d="M165.9109,206.8473l.4171-.2424-.0019.03-.417.2424.0018-.03"/><path class="f29368f3-0c9e-4eca-afbb-e051f54aa0ad" d="M165.9091,206.8768l.417-.2424-.0031.03-.417.2424.0031-.03"/><path class="f29368f3-0c9e-4eca-afbb-e051f54aa0ad" d="M165.906,206.9069l.417-.2424-.0044.03-.4171.2423.0045-.03"/><path class="f29368f3-0c9e-4eca-afbb-e051f54aa0ad" d="M165.9015,206.9367l.4171-.2423-.0062.0306-.417.2423.0061-.0306"/><path class="f29368f3-0c9e-4eca-afbb-e051f54aa0ad" d="M165.8954,206.9673l.417-.2423-.0083.0318-.417.2424.0083-.0319"/><path class="f29368f3-0c9e-4eca-afbb-e051f54aa0ad" d="M165.8871,206.9992l.417-.2424-.0108.0328-.4171.2424.0109-.0328"/><path class="f29368f3-0c9e-4eca-afbb-e051f54aa0ad" d="M165.8762,207.032l.4171-.2424q-.0069.0184-.015.0354l-.417.2424c.0053-.0113.01-.0232.0149-.0354"/><path class="f29368f3-0c9e-4eca-afbb-e051f54aa0ad" d="M165.8613,207.0674l.417-.2424a.3769.3769,0,0,1-.0235.0426l-.417.2424a.403.403,0,0,0,.0235-.0426"/><path class="f29368f3-0c9e-4eca-afbb-e051f54aa0ad" d="M165.8378,207.11l.417-.2424a.3181.3181,0,0,1-.1086.1062l-.4171.2424a.3184.3184,0,0,0,.1087-.1062"/></g></g></g><polygon class="f29368f3-0c9e-4eca-afbb-e051f54aa0ad" points="165.96 199.112 166.377 198.869 166.329 206.573 165.912 206.815 165.96 199.112"/><polygon class="f29368f3-0c9e-4eca-afbb-e051f54aa0ad" points="166.021 189.728 166.438 189.486 166.389 197.428 165.972 197.67 166.021 189.728"/><g class="23eadfdb-6212-4095-9f3c-9f1bfefc3d68"><path class="f29368f3-0c9e-4eca-afbb-e051f54aa0ad" d="M185.7342,218.377l-.4171.2424a.44.44,0,0,0,.1835-.4031l.417-.2424A.44.44,0,0,1,185.7342,218.377Z"/><g class="d42817ba-702d-4681-b56f-8518d7abfeb4"><g class="23eadfdb-6212-4095-9f3c-9f1bfefc3d68"><polyline class="f29368f3-0c9e-4eca-afbb-e051f54aa0ad" points="185.501 218.216 185.918 217.974 185.918 217.976 185.501 218.218 185.501 218.216"/><path class="f29368f3-0c9e-4eca-afbb-e051f54aa0ad" d="M185.5006,218.2181l.417-.2424-.0007.03-.417.2424.0007-.03"/><path class="f29368f3-0c9e-4eca-afbb-e051f54aa0ad" d="M185.5,218.2484l.417-.2424-.0018.03-.4171.2423.0019-.0295"/><path class="f29368f3-0c9e-4eca-afbb-e051f54aa0ad" d="M185.498,218.2779l.4171-.2423-.0031.03-.4171.2423.0031-.03"/><path class="f29368f3-0c9e-4eca-afbb-e051f54aa0ad" d="M185.4949,218.3081l.4171-.2423-.0045.03-.4171.2423.0045-.03"/><path class="f29368f3-0c9e-4eca-afbb-e051f54aa0ad" d="M185.49,218.3381l.4171-.2423-.0062.0307-.417.2423.0061-.0307"/><path class="f29368f3-0c9e-4eca-afbb-e051f54aa0ad" d="M185.4843,218.3688l.417-.2423-.0083.0321-.4171.2424.0084-.0322"/><path class="f29368f3-0c9e-4eca-afbb-e051f54aa0ad" d="M185.4759,218.401l.4171-.2424-.011.0331-.4171.2424.011-.0331"/><path class="f29368f3-0c9e-4eca-afbb-e051f54aa0ad" d="M185.4649,218.4341l.4171-.2424c-.0047.0125-.01.0244-.0152.0359l-.417.2424c.0054-.0115.01-.0235.0151-.0359"/><path class="f29368f3-0c9e-4eca-afbb-e051f54aa0ad" d="M185.45,218.47l.417-.2424a.3945.3945,0,0,1-.0237.0431l-.4171.2423a.411.411,0,0,0,.0238-.043"/><path class="f29368f3-0c9e-4eca-afbb-e051f54aa0ad" d="M185.426,218.513l.4171-.2423a.32.32,0,0,1-.1089.1063l-.4171.2423a.3192.3192,0,0,0,.1089-.1063"/></g></g></g><polygon class="f29368f3-0c9e-4eca-afbb-e051f54aa0ad" points="166.081 180.34 166.498 180.098 166.446 188.038 166.029 188.28 166.081 180.34"/><polygon class="f29368f3-0c9e-4eca-afbb-e051f54aa0ad" points="165.972 197.67 166.389 197.428 184.716 208.096 184.299 208.339 165.972 197.67"/><polygon class="f29368f3-0c9e-4eca-afbb-e051f54aa0ad" points="166.142 170.952 166.559 170.71 166.506 178.654 166.089 178.897 166.142 170.952"/><polygon class="f29368f3-0c9e-4eca-afbb-e051f54aa0ad" points="166.029 188.28 166.446 188.038 184.776 198.708 184.359 198.951 166.029 188.28"/><polygon class="f29368f3-0c9e-4eca-afbb-e051f54aa0ad" points="166.203 161.569 166.62 161.326 166.567 169.267 166.15 169.509 166.203 161.569"/><polygon class="f29368f3-0c9e-4eca-afbb-e051f54aa0ad" points="166.089 178.897 166.506 178.654 184.837 189.32 184.42 189.563 166.089 178.897"/><polygon class="f29368f3-0c9e-4eca-afbb-e051f54aa0ad" points="166.26 152.179 166.677 151.936 166.628 159.879 166.211 160.121 166.26 152.179"/><polygon class="f29368f3-0c9e-4eca-afbb-e051f54aa0ad" points="166.15 169.509 166.567 169.267 184.898 179.937 184.481 180.179 166.15 169.509"/><polygon class="f29368f3-0c9e-4eca-afbb-e051f54aa0ad" points="166.32 142.791 166.737 142.548 166.688 150.495 166.271 150.737 166.32 142.791"/><polygon class="f29368f3-0c9e-4eca-afbb-e051f54aa0ad" points="166.211 160.121 166.628 159.879 184.958 170.549 184.541 170.791 166.211 160.121"/><polygon class="f29368f3-0c9e-4eca-afbb-e051f54aa0ad" points="166.381 133.407 166.798 133.165 166.749 141.107 166.332 141.35 166.381 133.407"/><polygon class="f29368f3-0c9e-4eca-afbb-e051f54aa0ad" points="166.271 150.737 166.688 150.495 185.019 161.161 184.602 161.403 166.271 150.737"/><polygon class="f29368f3-0c9e-4eca-afbb-e051f54aa0ad" points="166.442 124.019 166.859 123.777 166.806 131.717 166.389 131.959 166.442 124.019"/><polygon class="f29368f3-0c9e-4eca-afbb-e051f54aa0ad" points="166.332 141.35 166.749 141.107 185.076 151.775 184.659 152.018 166.332 141.35"/><polygon class="f29368f3-0c9e-4eca-afbb-e051f54aa0ad" points="166.509 113.67 166.926 113.427 166.866 122.334 166.449 122.576 166.509 113.67"/><g class="23eadfdb-6212-4095-9f3c-9f1bfefc3d68"><path class="f29368f3-0c9e-4eca-afbb-e051f54aa0ad" d="M165.4326,112.5364l.4171-.2424a.4394.4394,0,0,1,.4441.0424,1.3836,1.3836,0,0,1,.632,1.0911l-.4171.2424a1.3835,1.3835,0,0,0-.6319-1.0911A.4393.4393,0,0,0,165.4326,112.5364Z"/><g class="c6bbb07a-d77a-48de-9b8f-b614a3bcfc8b"><g class="23eadfdb-6212-4095-9f3c-9f1bfefc3d68"><path class="f29368f3-0c9e-4eca-afbb-e051f54aa0ad" d="M165.4326,112.5364l.4171-.2424a.3094.3094,0,0,1,.0512-.0237l-.4171.2424a.2974.2974,0,0,0-.0512.0237"/><path class="f29368f3-0c9e-4eca-afbb-e051f54aa0ad" d="M165.4838,112.5127l.4171-.2424a.3207.3207,0,0,1,.044-.0121l-.417.2424a.3182.3182,0,0,0-.0441.0121"/><path class="f29368f3-0c9e-4eca-afbb-e051f54aa0ad" d="M165.5279,112.5006l.417-.2424a.3286.3286,0,0,1,.0362-.0052l-.4171.2423a.3268.3268,0,0,0-.0361.0053"/><path class="f29368f3-0c9e-4eca-afbb-e051f54aa0ad" d="M165.564,112.4953l.4171-.2423.0324-.0016-.417.2424-.0325.0015"/><path class="f29368f3-0c9e-4eca-afbb-e051f54aa0ad" d="M165.5965,112.4938l.417-.2424c.01,0,.02,0,.03.001l-.417.2423c-.01-.0006-.02-.001-.03-.0009"/><path class="f29368f3-0c9e-4eca-afbb-e051f54aa0ad" d="M165.626,112.4947l.417-.2423.0277.0028-.417.2424-.0277-.0029"/><path class="f29368f3-0c9e-4eca-afbb-e051f54aa0ad" d="M165.6537,112.4976l.417-.2424.0273.0045-.4171.2424-.0272-.0045"/><path class="f29368f3-0c9e-4eca-afbb-e051f54aa0ad" d="M165.6809,112.5021l.4171-.2424.0255.0057-.4171.2423-.0255-.0056"/><path class="f29368f3-0c9e-4eca-afbb-e051f54aa0ad" d="M165.7064,112.5077l.4171-.2423.0256.007-.417.2424-.0257-.0071"/><path class="f29368f3-0c9e-4eca-afbb-e051f54aa0ad" d="M165.7321,112.5148l.417-.2424.0249.0082-.4171.2423-.0248-.0081"/><path class="f29368f3-0c9e-4eca-afbb-e051f54aa0ad" d="M165.7569,112.5229l.4171-.2423.025.0094-.4171.2423-.025-.0094"/><path class="f29368f3-0c9e-4eca-afbb-e051f54aa0ad" d="M165.7819,112.5323l.4171-.2423.0248.01-.4171.2424-.0248-.0106"/><path class="f29368f3-0c9e-4eca-afbb-e051f54aa0ad" d="M165.8067,112.5429l.4171-.2424.025.0118-.417.2424-.0251-.0118"/><path class="f29368f3-0c9e-4eca-afbb-e051f54aa0ad" d="M165.8318,112.5547l.417-.2424.0253.0131-.417.2424-.0253-.0131"/><path class="f29368f3-0c9e-4eca-afbb-e051f54aa0ad" d="M165.8571,112.5678l.417-.2424.02.011.0063.0037-.4171.2423-.0062-.0036-.02-.011"/><path class="f29368f3-0c9e-4eca-afbb-e051f54aa0ad" d="M165.883,112.5824l.4171-.2423.0275.0168-.4171.2424-.0275-.0169"/><path class="f29368f3-0c9e-4eca-afbb-e051f54aa0ad" d="M165.9105,112.5993l.4171-.2424.0275.0182-.4171.2423-.0275-.0181"/><path class="f29368f3-0c9e-4eca-afbb-e051f54aa0ad" d="M165.938,112.6174l.4171-.2423.028.02-.4171.2424-.028-.02"/><path class="f29368f3-0c9e-4eca-afbb-e051f54aa0ad" d="M165.966,112.6374l.4171-.2424.0282.0215-.417.2424-.0283-.0215"/><path class="f29368f3-0c9e-4eca-afbb-e051f54aa0ad" d="M165.9943,112.6589l.417-.2424.0285.0233-.417.2424-.0285-.0233"/><path class="f29368f3-0c9e-4eca-afbb-e051f54aa0ad" d="M166.0228,112.6822l.417-.2424.0285.0248-.4171.2424-.0284-.0248"/><path class="f29368f3-0c9e-4eca-afbb-e051f54aa0ad" d="M166.0512,112.707l.4171-.2424.028.0261-.4171.2423-.028-.026"/><path class="f29368f3-0c9e-4eca-afbb-e051f54aa0ad" d="M166.0792,112.733l.4171-.2423.0268.0264-.4171.2424-.0268-.0265"/><path class="f29368f3-0c9e-4eca-afbb-e051f54aa0ad" d="M166.106,112.76l.4171-.2424.0259.0272-.4171.2423-.0259-.0271"/><path class="f29368f3-0c9e-4eca-afbb-e051f54aa0ad" d="M166.1319,112.7866l.4171-.2423.0246.0273-.417.2423-.0247-.0273"/><path class="f29368f3-0c9e-4eca-afbb-e051f54aa0ad" d="M166.1566,112.8139l.417-.2423.0244.0285-.4171.2424-.0243-.0286"/><path class="f29368f3-0c9e-4eca-afbb-e051f54aa0ad" d="M166.1809,112.8425l.4171-.2424.0242.03-.4171.2424-.0242-.03"/><path class="f29368f3-0c9e-4eca-afbb-e051f54aa0ad" d="M166.2051,112.8724l.4171-.2424.0279.0367-.417.2423-.028-.0366"/><path class="f29368f3-0c9e-4eca-afbb-e051f54aa0ad" d="M166.2331,112.909l.417-.2423q.0206.0277.04.0567l-.417.2423q-.0194-.0288-.04-.0567"/><path class="f29368f3-0c9e-4eca-afbb-e051f54aa0ad" d="M166.2729,112.9657l.417-.2423q.0245.0363.0466.0742l-.417.2424q-.0222-.0378-.0466-.0743"/><path class="f29368f3-0c9e-4eca-afbb-e051f54aa0ad" d="M166.32,113.04l.417-.2424q.016.0273.0309.055l-.417.2424c-.01-.0185-.02-.0369-.0309-.055"/><path class="f29368f3-0c9e-4eca-afbb-e051f54aa0ad" d="M166.35,113.095l.417-.2424.0195.0378-.417.2424-.0195-.0378"/><path class="f29368f3-0c9e-4eca-afbb-e051f54aa0ad" d="M166.37,113.1328l.417-.2424.016.0331-.417.2423-.016-.033"/><path class="f29368f3-0c9e-4eca-afbb-e051f54aa0ad" d="M166.3859,113.1658l.417-.2423.0139.03-.4171.2424-.0138-.03"/><path class="f29368f3-0c9e-4eca-afbb-e051f54aa0ad" d="M166.4,113.1963l.4171-.2424.0128.03-.417.2424-.0129-.03"/><path class="f29368f3-0c9e-4eca-afbb-e051f54aa0ad" d="M166.4126,113.2262l.417-.2424.0123.0306-.4171.2423-.0122-.03"/><path class="f29368f3-0c9e-4eca-afbb-e051f54aa0ad" d="M166.4248,113.2567l.4171-.2423.0116.0308-.4171.2424-.0116-.0309"/><path class="f29368f3-0c9e-4eca-afbb-e051f54aa0ad" d="M166.4364,113.2876l.4171-.2424.0111.032-.417.2424-.0112-.032"/><path class="f29368f3-0c9e-4eca-afbb-e051f54aa0ad" d="M166.4476,113.32l.417-.2424.0105.0326-.4171.2424-.01-.0326"/><path class="f29368f3-0c9e-4eca-afbb-e051f54aa0ad" d="M166.458,113.3522l.4171-.2424.01.0333-.4171.2424-.01-.0333"/><path class="f29368f3-0c9e-4eca-afbb-e051f54aa0ad" d="M166.4677,113.3855l.4171-.2424.0088.0335-.4171.2423-.0088-.0334"/><path class="f29368f3-0c9e-4eca-afbb-e051f54aa0ad" d="M166.4765,113.4189l.4171-.2423.0077.0331-.417.2423-.0078-.0331"/><path class="f29368f3-0c9e-4eca-afbb-e051f54aa0ad" d="M166.4843,113.452l.417-.2423.0067.0329-.4171.2424-.0066-.033"/><path class="f29368f3-0c9e-4eca-afbb-e051f54aa0ad" d="M166.4909,113.485l.4171-.2424.0055.032-.417.2424-.0056-.032"/><path class="f29368f3-0c9e-4eca-afbb-e051f54aa0ad" d="M166.4965,113.517l.417-.2424.0046.0318-.4171.2424-.0045-.0318"/><path class="f29368f3-0c9e-4eca-afbb-e051f54aa0ad" d="M166.501,113.5488l.4171-.2424.0034.031-.4171.2424-.0034-.031"/><path class="f29368f3-0c9e-4eca-afbb-e051f54aa0ad" d="M166.5044,113.58l.4171-.2424.0025.0308-.4171.2424-.0025-.0308"/><path class="f29368f3-0c9e-4eca-afbb-e051f54aa0ad" d="M166.5069,113.6106l.4171-.2424.0014.0307-.4171.2424-.0014-.0307"/><path class="f29368f3-0c9e-4eca-afbb-e051f54aa0ad" d="M166.5083,113.6413l.4171-.2424c0,.01,0,.0191,0,.0286l-.4171.2424c0-.01,0-.0191,0-.0286"/></g></g></g><polygon class="f29368f3-0c9e-4eca-afbb-e051f54aa0ad" points="166.389 131.959 166.806 131.717 185.137 142.387 184.72 142.63 166.389 131.959"/><polygon class="f29368f3-0c9e-4eca-afbb-e051f54aa0ad" points="166.449 122.576 166.866 122.334 185.197 133.004 184.78 133.246 166.449 122.576"/><polygon class="f29368f3-0c9e-4eca-afbb-e051f54aa0ad" points="186.098 125.071 186.515 124.829 185.918 217.974 185.501 218.216 186.098 125.071"/><g class="23eadfdb-6212-4095-9f3c-9f1bfefc3d68"><path class="f29368f3-0c9e-4eca-afbb-e051f54aa0ad" d="M185.0207,123.94l.417-.2423a.448.448,0,0,1,.4519.0442l-.417.2424A.4483.4483,0,0,0,185.0207,123.94Z"/><g class="f0e0cf3e-bc0c-42e6-8f26-44eec6417acb"><g class="23eadfdb-6212-4095-9f3c-9f1bfefc3d68"><path class="f29368f3-0c9e-4eca-afbb-e051f54aa0ad" d="M185.0207,123.94l.417-.2423a.2982.2982,0,0,1,.0516-.0238l-.4171.2423a.3129.3129,0,0,0-.0515.0238"/><path class="f29368f3-0c9e-4eca-afbb-e051f54aa0ad" d="M185.0722,123.9157l.4171-.2423a.3064.3064,0,0,1,.0442-.0122l-.417.2424a.3249.3249,0,0,0-.0443.0121"/><path class="f29368f3-0c9e-4eca-afbb-e051f54aa0ad" d="M185.1165,123.9036l.417-.2424a.3377.3377,0,0,1,.0367-.0053l-.4171.2424a.3324.3324,0,0,0-.0366.0053"/><path class="f29368f3-0c9e-4eca-afbb-e051f54aa0ad" d="M185.1531,123.8983l.4171-.2424.033-.0016-.4171.2424-.033.0016"/><path class="f29368f3-0c9e-4eca-afbb-e051f54aa0ad" d="M185.1861,123.8967l.4171-.2424c.01,0,.02,0,.03.001l-.417.2424c-.01-.0007-.02-.001-.03-.001"/><path class="f29368f3-0c9e-4eca-afbb-e051f54aa0ad" d="M185.2158,123.8977l.417-.2424.0284.0029-.4171.2424-.0283-.0029"/><path class="f29368f3-0c9e-4eca-afbb-e051f54aa0ad" d="M185.2441,123.9006l.4171-.2424.0277.0046-.417.2423-.0278-.0045"/><path class="f29368f3-0c9e-4eca-afbb-e051f54aa0ad" d="M185.2719,123.9051l.417-.2423.0261.0058-.417.2423-.0261-.0058"/><path class="f29368f3-0c9e-4eca-afbb-e051f54aa0ad" d="M185.298,123.9109l.417-.2423.0263.0072-.4171.2424-.0262-.0073"/><path class="f29368f3-0c9e-4eca-afbb-e051f54aa0ad" d="M185.3242,123.9182l.4171-.2424.0254.0083-.417.2424-.0255-.0083"/><path class="f29368f3-0c9e-4eca-afbb-e051f54aa0ad" d="M185.35,123.9265l.417-.2424.0257.01-.4171.2424-.0256-.01"/><path class="f29368f3-0c9e-4eca-afbb-e051f54aa0ad" d="M185.3753,123.9362l.4171-.2424.0254.0108-.4171.2423-.0254-.0107"/><path class="f29368f3-0c9e-4eca-afbb-e051f54aa0ad" d="M185.4007,123.9469l.4171-.2423.0257.0121-.4171.2423-.0257-.0121"/><path class="f29368f3-0c9e-4eca-afbb-e051f54aa0ad" d="M185.4264,123.959l.4171-.2423.026.0134-.4171.2424-.026-.0135"/><path class="f29368f3-0c9e-4eca-afbb-e051f54aa0ad" d="M185.4524,123.9725l.4171-.2424.02.0113-.417.2424-.02-.0113"/></g></g></g><g class="23eadfdb-6212-4095-9f3c-9f1bfefc3d68"><path class="f29368f3-0c9e-4eca-afbb-e051f54aa0ad" d="M185.4726,123.9838l.417-.2424a1.3811,1.3811,0,0,1,.6251,1.0871l-.417.2424A1.3813,1.3813,0,0,0,185.4726,123.9838Z"/><g class="20d1e1bc-4bdb-4620-8580-c451d7dca3e7"><g class="23eadfdb-6212-4095-9f3c-9f1bfefc3d68"><polyline class="f29368f3-0c9e-4eca-afbb-e051f54aa0ad" points="185.473 123.984 185.89 123.741 185.896 123.745 185.479 123.987 185.473 123.984"/><path class="f29368f3-0c9e-4eca-afbb-e051f54aa0ad" d="M185.4787,123.9874l.4171-.2424.0264.0162-.417.2424-.0265-.0162"/><path class="f29368f3-0c9e-4eca-afbb-e051f54aa0ad" d="M185.5052,124.0036l.417-.2424.0266.0176-.4171.2423-.0265-.0175"/><path class="f29368f3-0c9e-4eca-afbb-e051f54aa0ad" d="M185.5317,124.0211l.4171-.2423.0272.0193-.4171.2424-.0272-.0194"/><path class="f29368f3-0c9e-4eca-afbb-e051f54aa0ad" d="M185.5589,124.0405l.4171-.2424.0274.0209-.4171.2424-.0274-.0209"/><path class="f29368f3-0c9e-4eca-afbb-e051f54aa0ad" d="M185.5863,124.0614l.4171-.2424.0278.0227-.4171.2424-.0278-.0227"/><path class="f29368f3-0c9e-4eca-afbb-e051f54aa0ad" d="M185.6141,124.0841l.4171-.2424.0277.0242-.417.2424-.0278-.0242"/><path class="f29368f3-0c9e-4eca-afbb-e051f54aa0ad" d="M185.6419,124.1083l.417-.2424.0275.0255-.4171.2424-.0274-.0255"/><path class="f29368f3-0c9e-4eca-afbb-e051f54aa0ad" d="M185.6693,124.1338l.4171-.2424.0263.026-.4171.2424-.0263-.026"/><path class="f29368f3-0c9e-4eca-afbb-e051f54aa0ad" d="M185.6956,124.16l.4171-.2424.0255.0268-.417.2424-.0256-.0268"/><path class="f29368f3-0c9e-4eca-afbb-e051f54aa0ad" d="M185.7212,124.1866l.417-.2424.0243.0269-.4171.2423-.0242-.0268"/><path class="f29368f3-0c9e-4eca-afbb-e051f54aa0ad" d="M185.7454,124.2134l.4171-.2423.024.0281-.417.2424-.0241-.0282"/><path class="f29368f3-0c9e-4eca-afbb-e051f54aa0ad" d="M185.77,124.2416l.417-.2424.0242.03-.417.2424-.0242-.03"/><path class="f29368f3-0c9e-4eca-afbb-e051f54aa0ad" d="M185.7937,124.2715l.417-.2424.0278.0365-.4171.2423-.0277-.0364"/><path class="f29368f3-0c9e-4eca-afbb-e051f54aa0ad" d="M185.8214,124.3079l.4171-.2423q.02.0276.04.0564l-.417.2424q-.0194-.0288-.04-.0565"/><path class="f29368f3-0c9e-4eca-afbb-e051f54aa0ad" d="M185.8611,124.3644l.417-.2424c.016.0239.0314.0484.046.0733l-.417.2423c-.0147-.0248-.03-.0493-.046-.0732"/><path class="f29368f3-0c9e-4eca-afbb-e051f54aa0ad" d="M185.9071,124.4376l.417-.2423q.0164.0276.0315.056l-.4171.2424q-.0151-.0284-.0314-.0561"/><path class="f29368f3-0c9e-4eca-afbb-e051f54aa0ad" d="M185.9385,124.4937l.4171-.2424.02.0382-.417.2423-.02-.0381"/><path class="f29368f3-0c9e-4eca-afbb-e051f54aa0ad" d="M185.9583,124.5318l.417-.2423.0159.0329-.417.2424-.0159-.033"/><path class="f29368f3-0c9e-4eca-afbb-e051f54aa0ad" d="M185.9742,124.5648l.417-.2424.014.0307-.417.2424-.014-.0307"/><path class="f29368f3-0c9e-4eca-afbb-e051f54aa0ad" d="M185.9882,124.5955l.417-.2424.0129.03-.4171.2424-.0128-.03"/><path class="f29368f3-0c9e-4eca-afbb-e051f54aa0ad" d="M186.001,124.6255l.4171-.2424.0123.0307-.417.2424-.0124-.0307"/><path class="f29368f3-0c9e-4eca-afbb-e051f54aa0ad" d="M186.0134,124.6562l.417-.2424.0117.031-.4171.2424-.0116-.031"/><path class="f29368f3-0c9e-4eca-afbb-e051f54aa0ad" d="M186.025,124.6872l.4171-.2424.0112.0322-.417.2424-.0113-.0322"/><path class="f29368f3-0c9e-4eca-afbb-e051f54aa0ad" d="M186.0363,124.7194l.417-.2424.01.0328-.417.2424-.01-.0328"/><path class="f29368f3-0c9e-4eca-afbb-e051f54aa0ad" d="M186.0468,124.7522l.417-.2424.01.0335-.417.2424-.01-.0335"/><path class="f29368f3-0c9e-4eca-afbb-e051f54aa0ad" d="M186.0566,124.7857l.417-.2424.0088.0336-.417.2424-.0088-.0336"/><path class="f29368f3-0c9e-4eca-afbb-e051f54aa0ad" d="M186.0654,124.8193l.417-.2424.0078.0333-.4171.2424-.0077-.0333"/><path class="f29368f3-0c9e-4eca-afbb-e051f54aa0ad" d="M186.0731,124.8526l.4171-.2424.0067.0331-.417.2424-.0068-.0331"/><path class="f29368f3-0c9e-4eca-afbb-e051f54aa0ad" d="M186.08,124.8857l.417-.2424.0056.0321-.4171.2423-.0055-.032"/><path class="f29368f3-0c9e-4eca-afbb-e051f54aa0ad" d="M186.0854,124.9177l.4171-.2423.0045.0319-.4171.2423-.0045-.0319"/><path class="f29368f3-0c9e-4eca-afbb-e051f54aa0ad" d="M186.09,124.95l.4171-.2423.0035.031-.4171.2424-.0035-.0311"/><path class="f29368f3-0c9e-4eca-afbb-e051f54aa0ad" d="M186.0934,124.9807l.4171-.2424.0024.0309-.417.2424-.0025-.0309"/><path class="f29368f3-0c9e-4eca-afbb-e051f54aa0ad" d="M186.0959,125.0116l.417-.2424.0014.0307-.417.2424-.0014-.0307"/><path class="f29368f3-0c9e-4eca-afbb-e051f54aa0ad" d="M186.0973,125.0423l.417-.2424c0,.01.0005.0191,0,.0286l-.417.2424c0-.0095,0-.0191,0-.0286"/></g></g></g><path class="f29368f3-0c9e-4eca-afbb-e051f54aa0ad" d="M185.4726,123.9838a1.3813,1.3813,0,0,1,.6251,1.0871l-.5971,93.1454c-.0011.3968-.2817.5592-.6261.36a1.3769,1.3769,0,0,1-.632-1.0911l.0483-7.7035-18.3308-10.67-.0484,7.7035c-.0011.3994-.2853.5571-.6329.3564a1.3746,1.3746,0,0,1-.6251-1.0871l.5933-93.1476c.0048-.3946.2854-.5571.63-.3582a1.3835,1.3835,0,0,1,.6319,1.0911l-.0593,8.906,18.3309,10.67.0555-8.9082C184.8407,123.9408,185.125,123.7831,185.4726,123.9838Zm-.753,18.646.0528-7.94-18.3309-10.67-.0527,7.94L184.72,142.63m-.36,56.3209.0528-7.94-18.3309-10.67-.0528,7.94,18.3309,10.67m.0607-9.3879.0527-7.94-18.3308-10.67-.0528,7.9444,18.3309,10.666m.0606-9.3836.049-7.9466-18.3271-10.6638-.0528,7.94,18.3309,10.67m.0607-9.3879.049-7.9422-18.3309-10.67-.049,7.9423,18.3309,10.67m-.2427,37.5473.0528-7.9444-18.3309-10.666-.049,7.9423,18.3271,10.6681m.3034-46.9352.049-7.9423-18.3309-10.67-.049,7.9467,18.3309,10.6659m.0569-9.3857.0528-7.9445-18.3309-10.6659-.049,7.9422,18.3271,10.6682"/></g><g class="23eadfdb-6212-4095-9f3c-9f1bfefc3d68"><polygon class="f29368f3-0c9e-4eca-afbb-e051f54aa0ad" points="194.497 281.727 193.663 281.243 193.64 262.79 194.474 263.275 194.497 281.727"/><polygon class="f29368f3-0c9e-4eca-afbb-e051f54aa0ad" points="194.47 261.829 193.636 261.344 193.614 253.387 194.448 253.872 194.47 261.829"/><polygon class="f29368f3-0c9e-4eca-afbb-e051f54aa0ad" points="194.444 252.422 193.609 251.937 193.587 243.979 194.421 244.464 194.444 252.422"/><polygon class="f29368f3-0c9e-4eca-afbb-e051f54aa0ad" points="176.139 272.413 175.305 271.928 193.636 261.344 194.47 261.829 176.139 272.413"/><polygon class="f29368f3-0c9e-4eca-afbb-e051f54aa0ad" points="194.417 243.018 193.583 242.534 193.557 233.608 194.392 234.093 194.417 243.018"/><g class="23eadfdb-6212-4095-9f3c-9f1bfefc3d68"><path class="f29368f3-0c9e-4eca-afbb-e051f54aa0ad" d="M194.6316,232.4762l.8341.4847a.4451.4451,0,0,0-.449.0448l-.8342-.4848A.4452.4452,0,0,1,194.6316,232.4762Z"/><g class="19889139-4179-4811-b338-827ca117e1a4"><g class="23eadfdb-6212-4095-9f3c-9f1bfefc3d68"><path class="f29368f3-0c9e-4eca-afbb-e051f54aa0ad" d="M195.0167,233.0057l-.8342-.4848a.7958.7958,0,0,1,.0893-.0444l.8341.4848a.77.77,0,0,0-.0892.0444"/><path class="f29368f3-0c9e-4eca-afbb-e051f54aa0ad" d="M195.1059,232.9613l-.8341-.4848a.6237.6237,0,0,1,.0746-.0257l.8341.4847a.6075.6075,0,0,0-.0746.0258"/><path class="f29368f3-0c9e-4eca-afbb-e051f54aa0ad" d="M195.1805,232.9355l-.8341-.4847a.5112.5112,0,0,1,.0555-.0119l.8341.4848a.5154.5154,0,0,0-.0555.0118"/><path class="f29368f3-0c9e-4eca-afbb-e051f54aa0ad" d="M195.236,232.9237l-.8341-.4848a.4569.4569,0,0,1,.0469-.0047l.8341.4848a.43.43,0,0,0-.0469.0047"/><path class="f29368f3-0c9e-4eca-afbb-e051f54aa0ad" d="M195.2829,232.919l-.8341-.4848a.3831.3831,0,0,1,.0416,0l.8341.4847a.3835.3835,0,0,0-.0416,0"/><path class="f29368f3-0c9e-4eca-afbb-e051f54aa0ad" d="M195.3245,232.9193l-.8341-.4847a.3569.3569,0,0,1,.0379.0044l.8342.4847a.3588.3588,0,0,0-.038-.0044"/><path class="f29368f3-0c9e-4eca-afbb-e051f54aa0ad" d="M195.3625,232.9237l-.8342-.4847a.3356.3356,0,0,1,.0353.0081l.8341.4848a.3159.3159,0,0,0-.0352-.0082"/><path class="f29368f3-0c9e-4eca-afbb-e051f54aa0ad" d="M195.3977,232.9319l-.8341-.4848a.3088.3088,0,0,1,.0331.0117l.8341.4847a.3318.3318,0,0,0-.0331-.0116"/><path class="f29368f3-0c9e-4eca-afbb-e051f54aa0ad" d="M195.4308,232.9435l-.8341-.4847a.3057.3057,0,0,1,.0315.0154l.8341.4848a.2967.2967,0,0,0-.0315-.0155"/><polyline class="f29368f3-0c9e-4eca-afbb-e051f54aa0ad" points="195.462 232.959 194.628 232.474 194.632 232.476 195.466 232.961 195.462 232.959"/></g></g></g><g class="23eadfdb-6212-4095-9f3c-9f1bfefc3d68"><path class="f29368f3-0c9e-4eca-afbb-e051f54aa0ad" d="M194.3916,234.0927l-.8342-.4847a1.3816,1.3816,0,0,1,.6251-1.0871l.8342.4848A1.3807,1.3807,0,0,0,194.3916,234.0927Z"/><g class="2e689d8d-bff7-4b19-ab16-366f8122f69d"><g class="23eadfdb-6212-4095-9f3c-9f1bfefc3d68"><path class="f29368f3-0c9e-4eca-afbb-e051f54aa0ad" d="M194.3916,234.0927l-.8342-.4847a.9561.9561,0,0,1,.0081-.1241l.8342.4848a.9217.9217,0,0,0-.0081.124"/><path class="f29368f3-0c9e-4eca-afbb-e051f54aa0ad" d="M194.4,233.9687l-.8342-.4848c.0038-.0291.0089-.0586.0152-.0881l.8341.4847c-.0063.03-.0114.059-.0151.0882"/><path class="f29368f3-0c9e-4eca-afbb-e051f54aa0ad" d="M194.4148,233.8805l-.8341-.4847c.0051-.0242.0111-.0485.0178-.0728l.8341.4847c-.0067.0243-.0127.0486-.0178.0728"/><path class="f29368f3-0c9e-4eca-afbb-e051f54aa0ad" d="M194.4326,233.8077l-.8341-.4847c.006-.0215.0126-.0431.02-.0646l.8341.4848q-.0107.0323-.02.0645"/><path class="f29368f3-0c9e-4eca-afbb-e051f54aa0ad" d="M194.4523,233.7432l-.8341-.4848c.0067-.02.0138-.04.0215-.06l.8341.4848c-.0077.02-.0148.04-.0215.06"/><path class="f29368f3-0c9e-4eca-afbb-e051f54aa0ad" d="M194.4738,233.6835l-.8341-.4848c.0072-.0189.015-.0379.0231-.0567l.8341.4848q-.0122.0282-.0231.0567"/><path class="f29368f3-0c9e-4eca-afbb-e051f54aa0ad" d="M194.4969,233.6268l-.8341-.4848c.008-.0183.0164-.0366.0251-.0547l.8341.4847q-.0131.0272-.0251.0548"/><path class="f29368f3-0c9e-4eca-afbb-e051f54aa0ad" d="M194.522,233.572l-.8341-.4847q.013-.027.0271-.0536l.8342.4847c-.01.0177-.0185.0356-.0272.0536"/><path class="f29368f3-0c9e-4eca-afbb-e051f54aa0ad" d="M194.5492,233.5184l-.8342-.4847q.0143-.0267.03-.053l.8341.4847c-.01.0175-.02.0352-.0295.053"/><path class="f29368f3-0c9e-4eca-afbb-e051f54aa0ad" d="M194.5787,233.4654l-.8341-.4847c.01-.0179.0213-.0357.0324-.0531l.8342.4847q-.0168.0263-.0325.0531"/><path class="f29368f3-0c9e-4eca-afbb-e051f54aa0ad" d="M194.6112,233.4123l-.8342-.4847c.0118-.0184.0239-.0364.0363-.0542l.8341.4848c-.0124.0177-.0245.0358-.0362.0541"/><path class="f29368f3-0c9e-4eca-afbb-e051f54aa0ad" d="M194.6474,233.3582l-.8341-.4848q.02-.0288.0417-.0566l.8342.4848q-.0216.0276-.0418.0566"/><path class="f29368f3-0c9e-4eca-afbb-e051f54aa0ad" d="M194.6892,233.3016l-.8342-.4848c.0164-.0211.0334-.0417.0507-.0617l.8341.4848q-.026.03-.0506.0617"/><path class="f29368f3-0c9e-4eca-afbb-e051f54aa0ad" d="M194.74,233.24l-.8341-.4848q.033-.0378.0681-.0725l.8341.4848q-.0351.0345-.0681.0725"/><path class="f29368f3-0c9e-4eca-afbb-e051f54aa0ad" d="M194.8079,233.1674l-.8341-.4848a1.0469,1.0469,0,0,1,.2087-.1617l.8342.4848a1.041,1.041,0,0,0-.2088.1617"/></g></g></g><polygon class="f29368f3-0c9e-4eca-afbb-e051f54aa0ad" points="176.112 263.005 175.278 262.52 193.609 251.937 194.444 252.422 176.112 263.005"/><polygon class="f29368f3-0c9e-4eca-afbb-e051f54aa0ad" points="176.086 253.602 175.252 253.117 193.583 242.534 194.417 243.018 176.086 253.602"/><polygon class="f29368f3-0c9e-4eca-afbb-e051f54aa0ad" points="174.908 293.037 174.074 292.552 173.968 244.918 174.802 245.403 174.908 293.037"/><g class="23eadfdb-6212-4095-9f3c-9f1bfefc3d68"><path class="f29368f3-0c9e-4eca-afbb-e051f54aa0ad" d="M175.042,243.7874l.8341.4847a.4448.4448,0,0,0-.4487.0434,1.3816,1.3816,0,0,0-.6251,1.0871l-.8341-.4847a1.3813,1.3813,0,0,1,.6251-1.0871A.4445.4445,0,0,1,175.042,243.7874Z"/><g class="91d47cf0-1ee7-4d00-b01e-4c200b268dbe"><g class="23eadfdb-6212-4095-9f3c-9f1bfefc3d68"><path class="f29368f3-0c9e-4eca-afbb-e051f54aa0ad" d="M174.8023,245.4026l-.8341-.4847a.9561.9561,0,0,1,.0081-.1241l.8341.4847a.9561.9561,0,0,0-.0081.1241"/><path class="f29368f3-0c9e-4eca-afbb-e051f54aa0ad" d="M174.81,245.2785l-.8341-.4847c.0038-.0292.0089-.0586.0151-.0881l.8342.4847q-.0095.0442-.0152.0881"/><path class="f29368f3-0c9e-4eca-afbb-e051f54aa0ad" d="M174.8256,245.19l-.8342-.4847q.0078-.0365.0179-.0729l.8341.4848c-.0067.0243-.0127.0486-.0178.0728"/><path class="f29368f3-0c9e-4eca-afbb-e051f54aa0ad" d="M174.8434,245.1176l-.8341-.4848c.006-.0215.0125-.043.02-.0645l.8341.4847q-.0107.0323-.02.0646"/><path class="f29368f3-0c9e-4eca-afbb-e051f54aa0ad" d="M174.8631,245.053l-.8341-.4847q.01-.03.0214-.06l.8341.4847c-.0076.02-.0147.04-.0214.06"/><path class="f29368f3-0c9e-4eca-afbb-e051f54aa0ad" d="M174.8845,244.9933l-.8341-.4847c.0073-.019.0151-.0379.0232-.0567l.8341.4847c-.0081.0188-.0159.0377-.0232.0567"/><path class="f29368f3-0c9e-4eca-afbb-e051f54aa0ad" d="M174.9077,244.9366l-.8341-.4847c.008-.0184.0163-.0366.0251-.0548l.8341.4848c-.0088.0181-.0171.0364-.0251.0547"/><path class="f29368f3-0c9e-4eca-afbb-e051f54aa0ad" d="M174.9328,244.8819l-.8341-.4848q.0131-.027.0271-.0535l.8341.4847q-.0141.0265-.0271.0536"/><path class="f29368f3-0c9e-4eca-afbb-e051f54aa0ad" d="M174.96,244.8283l-.8341-.4847q.0143-.0268.03-.053l.8341.4847c-.01.0175-.02.0351-.03.053"/><path class="f29368f3-0c9e-4eca-afbb-e051f54aa0ad" d="M174.99,244.7753l-.8341-.4847c.01-.018.0213-.0357.0324-.0532l.8341.4847c-.0111.0175-.022.0352-.0324.0532"/><path class="f29368f3-0c9e-4eca-afbb-e051f54aa0ad" d="M175.0219,244.7221l-.8341-.4847c.0117-.0183.0238-.0364.0363-.0541l.8341.4847c-.0124.0177-.0245.0358-.0363.0541"/><path class="f29368f3-0c9e-4eca-afbb-e051f54aa0ad" d="M175.0582,244.668l-.8341-.4847q.02-.029.0417-.0566l.8341.4847c-.0143.0185-.0282.0373-.0417.0566"/><path class="f29368f3-0c9e-4eca-afbb-e051f54aa0ad" d="M175.1,244.6114l-.8341-.4847q.0246-.0318.0507-.0617l.8341.4847q-.0261.03-.0507.0617"/><path class="f29368f3-0c9e-4eca-afbb-e051f54aa0ad" d="M175.1506,244.55l-.8341-.4847q.033-.0379.0681-.0725l.8341.4847c-.0234.023-.0461.0473-.0681.0725"/><path class="f29368f3-0c9e-4eca-afbb-e051f54aa0ad" d="M175.2187,244.4772l-.8341-.4847a1.0432,1.0432,0,0,1,.2087-.1617.77.77,0,0,1,.0878-.0437l.8341.4848a.7527.7527,0,0,0-.0878.0436,1.0432,1.0432,0,0,0-.2087.1617"/><path class="f29368f3-0c9e-4eca-afbb-e051f54aa0ad" d="M175.5152,244.2719l-.8341-.4848a.6138.6138,0,0,1,.074-.0255l.8342.4847a.61.61,0,0,0-.0741.0256"/><path class="f29368f3-0c9e-4eca-afbb-e051f54aa0ad" d="M175.5893,244.2463l-.8342-.4847a.4923.4923,0,0,1,.0555-.0118l.8341.4847a.5086.5086,0,0,0-.0554.0118"/><path class="f29368f3-0c9e-4eca-afbb-e051f54aa0ad" d="M175.6447,244.2345l-.8341-.4847a.4329.4329,0,0,1,.047-.0048l.8341.4848a.4323.4323,0,0,0-.047.0047"/><path class="f29368f3-0c9e-4eca-afbb-e051f54aa0ad" d="M175.6917,244.23l-.8341-.4848a.3868.3868,0,0,1,.0418,0l.8342.4847a.3893.3893,0,0,0-.0419,0"/><path class="f29368f3-0c9e-4eca-afbb-e051f54aa0ad" d="M175.7336,244.23l-.8342-.4847a.3645.3645,0,0,1,.0383.0044l.8341.4848a.3406.3406,0,0,0-.0382-.0045"/><path class="f29368f3-0c9e-4eca-afbb-e051f54aa0ad" d="M175.7718,244.2346l-.8341-.4848c.0121.0022.024.0049.0355.0082l.8341.4848a.3159.3159,0,0,0-.0355-.0082"/><path class="f29368f3-0c9e-4eca-afbb-e051f54aa0ad" d="M175.8073,244.2428l-.8341-.4848a.34.34,0,0,1,.0335.0118l.8341.4848a.2952.2952,0,0,0-.0335-.0118"/><path class="f29368f3-0c9e-4eca-afbb-e051f54aa0ad" d="M175.8408,244.2546l-.8341-.4848a.312.312,0,0,1,.0318.0156l.8341.4847a.3112.3112,0,0,0-.0318-.0155"/><polyline class="f29368f3-0c9e-4eca-afbb-e051f54aa0ad" points="175.873 244.27 175.038 243.785 175.042 243.787 175.876 244.272 175.873 244.27"/></g></g></g><path class="f29368f3-0c9e-4eca-afbb-e051f54aa0ad" d="M195.0167,233.0057c.3513-.2029.6318-.0387.6329.3607l.1053,47.6346-1.258.7264-.0226-18.4526-18.3311,10.5835.0225,18.4525-1.2581.7264-.1053-47.6346a1.3816,1.3816,0,0,1,.6251-1.0871c.3476-.2007.6319-.0387.633.3607l.0253,8.9257,18.3312-10.5835-.0253-8.9257A1.3807,1.3807,0,0,1,195.0167,233.0057Zm-.5732,19.4159-.0225-7.9576L176.09,255.0475l.0226,7.9576,18.3311-10.5835m.0267,9.4075-.0226-7.9575-18.3311,10.5835.0226,7.9575L194.47,261.8291"/></g><g class="23eadfdb-6212-4095-9f3c-9f1bfefc3d68"><polygon class="f29368f3-0c9e-4eca-afbb-e051f54aa0ad" points="250.171 301.037 249.337 300.552 249.314 293.092 250.148 293.576 250.171 301.037"/><polygon class="f29368f3-0c9e-4eca-afbb-e051f54aa0ad" points="250.144 292.131 249.31 291.646 249.287 283.689 250.122 284.173 250.144 292.131"/><polygon class="f29368f3-0c9e-4eca-afbb-e051f54aa0ad" points="250.117 282.723 249.283 282.239 249.261 274.281 250.095 274.766 250.117 282.723"/><polygon class="f29368f3-0c9e-4eca-afbb-e051f54aa0ad" points="231.813 302.714 230.979 302.23 249.31 291.646 250.144 292.131 231.813 302.714"/><polygon class="f29368f3-0c9e-4eca-afbb-e051f54aa0ad" points="250.091 273.32 249.257 272.835 249.231 263.91 250.066 264.394 250.091 273.32"/><g class="23eadfdb-6212-4095-9f3c-9f1bfefc3d68"><path class="f29368f3-0c9e-4eca-afbb-e051f54aa0ad" d="M250.3056,262.7779l.8341.4847a.4452.4452,0,0,0-.4491.0448l-.8341-.4848A.4452.4452,0,0,1,250.3056,262.7779Z"/><g class="26824279-557f-405b-bdaa-7861b3f09f16"><g class="23eadfdb-6212-4095-9f3c-9f1bfefc3d68"><path class="f29368f3-0c9e-4eca-afbb-e051f54aa0ad" d="M250.6906,263.3074l-.8341-.4848a.77.77,0,0,1,.0892-.0444l.8342.4848a.7478.7478,0,0,0-.0893.0444"/><path class="f29368f3-0c9e-4eca-afbb-e051f54aa0ad" d="M250.78,263.263l-.8342-.4848a.6237.6237,0,0,1,.0746-.0257l.8341.4847a.6005.6005,0,0,0-.0745.0258"/><path class="f29368f3-0c9e-4eca-afbb-e051f54aa0ad" d="M250.8544,263.2372l-.8341-.4847a.5163.5163,0,0,1,.0555-.0119l.8342.4848a.512.512,0,0,0-.0556.0118"/><path class="f29368f3-0c9e-4eca-afbb-e051f54aa0ad" d="M250.91,263.2254l-.8342-.4848a.4587.4587,0,0,1,.047-.0047l.8341.4848a.4048.4048,0,0,0-.0469.0047"/><path class="f29368f3-0c9e-4eca-afbb-e051f54aa0ad" d="M250.9569,263.2207l-.8341-.4848a.3836.3836,0,0,1,.0416,0l.8341.4847a.36.36,0,0,0-.0416,0"/><path class="f29368f3-0c9e-4eca-afbb-e051f54aa0ad" d="M250.9985,263.221l-.8341-.4847a.36.36,0,0,1,.0379.0044l.8341.4847a.3569.3569,0,0,0-.0379-.0044"/><path class="f29368f3-0c9e-4eca-afbb-e051f54aa0ad" d="M251.0364,263.2254l-.8341-.4847a.3337.3337,0,0,1,.0352.0081l.8341.4848a.3108.3108,0,0,0-.0352-.0082"/><path class="f29368f3-0c9e-4eca-afbb-e051f54aa0ad" d="M251.0716,263.2336l-.8341-.4848a.3013.3013,0,0,1,.0331.0117l.8341.4847a.2814.2814,0,0,0-.0331-.0116"/><path class="f29368f3-0c9e-4eca-afbb-e051f54aa0ad" d="M251.1047,263.2452l-.8341-.4847a.2976.2976,0,0,1,.0316.0154l.8341.4847a.3182.3182,0,0,0-.0316-.0154"/><polyline class="f29368f3-0c9e-4eca-afbb-e051f54aa0ad" points="251.136 263.261 250.302 262.776 250.306 262.778 251.14 263.263 251.136 263.261"/></g></g></g><g class="23eadfdb-6212-4095-9f3c-9f1bfefc3d68"><path class="f29368f3-0c9e-4eca-afbb-e051f54aa0ad" d="M250.0655,264.3944l-.8341-.4847a1.3813,1.3813,0,0,1,.6251-1.0871l.8341.4848A1.381,1.381,0,0,0,250.0655,264.3944Z"/><g class="6a7d8499-98f5-44a3-ac46-f1abb40bd8fb"><g class="23eadfdb-6212-4095-9f3c-9f1bfefc3d68"><path class="f29368f3-0c9e-4eca-afbb-e051f54aa0ad" d="M250.0655,264.3944l-.8341-.4847a.9561.9561,0,0,1,.0081-.1241l.8341.4847a.9573.9573,0,0,0-.0081.1241"/><path class="f29368f3-0c9e-4eca-afbb-e051f54aa0ad" d="M250.0736,264.27l-.8341-.4847q.0057-.0438.0151-.0881l.8341.4847c-.0062.03-.0113.059-.0151.0881"/><path class="f29368f3-0c9e-4eca-afbb-e051f54aa0ad" d="M250.0887,264.1822l-.8341-.4847c.0052-.0242.0111-.0485.0179-.0728l.8341.4847c-.0068.0243-.0127.0486-.0179.0728"/><path class="f29368f3-0c9e-4eca-afbb-e051f54aa0ad" d="M250.1066,264.1094l-.8341-.4847c.0059-.0215.0125-.0431.02-.0646l.8341.4848c-.0072.0215-.0137.043-.02.0645"/><path class="f29368f3-0c9e-4eca-afbb-e051f54aa0ad" d="M250.1263,264.0449l-.8341-.4848c.0066-.02.0138-.04.0214-.06l.8341.4848c-.0076.02-.0148.04-.0214.06"/><path class="f29368f3-0c9e-4eca-afbb-e051f54aa0ad" d="M250.1477,263.9852l-.8341-.4848q.0109-.0285.0232-.0567l.8341.4848q-.0123.0282-.0232.0567"/><path class="f29368f3-0c9e-4eca-afbb-e051f54aa0ad" d="M250.1709,263.9285l-.8341-.4848c.0079-.0183.0163-.0366.025-.0547l.8342.4847q-.0132.0272-.0251.0548"/><path class="f29368f3-0c9e-4eca-afbb-e051f54aa0ad" d="M250.196,263.8737l-.8342-.4847q.013-.027.0272-.0536l.8341.4847c-.0094.0177-.0185.0356-.0271.0536"/><path class="f29368f3-0c9e-4eca-afbb-e051f54aa0ad" d="M250.2231,263.82l-.8341-.4847q.0143-.0267.0295-.053l.8341.4847q-.0153.0263-.03.053"/><path class="f29368f3-0c9e-4eca-afbb-e051f54aa0ad" d="M250.2526,263.7671l-.8341-.4847c.0105-.0179.0213-.0357.0325-.0532l.8341.4848q-.0168.0262-.0325.0531"/><path class="f29368f3-0c9e-4eca-afbb-e051f54aa0ad" d="M250.2851,263.714l-.8341-.4848q.0176-.0275.0363-.0541l.8341.4847c-.0125.0178-.0246.0358-.0363.0542"/><path class="f29368f3-0c9e-4eca-afbb-e051f54aa0ad" d="M250.3214,263.66l-.8341-.4847q.02-.0288.0417-.0566l.8341.4848c-.0143.0184-.0282.0373-.0417.0565"/><path class="f29368f3-0c9e-4eca-afbb-e051f54aa0ad" d="M250.3631,263.6033l-.8341-.4848q.0246-.0316.0507-.0617l.8341.4848q-.0261.03-.0507.0617"/><path class="f29368f3-0c9e-4eca-afbb-e051f54aa0ad" d="M250.4138,263.5416l-.8341-.4848q.033-.0378.068-.0725l.8341.4848q-.035.0345-.068.0725"/><path class="f29368f3-0c9e-4eca-afbb-e051f54aa0ad" d="M250.4818,263.4691l-.8341-.4848a1.0475,1.0475,0,0,1,.2088-.1617l.8341.4848a1.0438,1.0438,0,0,0-.2088.1617"/></g></g></g><polygon class="f29368f3-0c9e-4eca-afbb-e051f54aa0ad" points="231.786 293.307 230.952 292.822 249.283 282.239 250.117 282.723 231.786 293.307"/><polygon class="f29368f3-0c9e-4eca-afbb-e051f54aa0ad" points="231.76 283.904 230.926 283.419 249.257 272.835 250.091 273.32 231.76 283.904"/><polygon class="f29368f3-0c9e-4eca-afbb-e051f54aa0ad" points="230.582 312.347 229.747 311.862 229.642 275.22 230.476 275.704 230.582 312.347"/><g class="23eadfdb-6212-4095-9f3c-9f1bfefc3d68"><path class="f29368f3-0c9e-4eca-afbb-e051f54aa0ad" d="M230.7159,274.0891l.8341.4847a.4446.4446,0,0,0-.4486.0434,1.3811,1.3811,0,0,0-.6251,1.0871l-.8341-.4848a1.3807,1.3807,0,0,1,.6251-1.087A.4444.4444,0,0,1,230.7159,274.0891Z"/><g class="ffeaa58c-8c49-4a4a-8750-22ce700ade60"><g class="23eadfdb-6212-4095-9f3c-9f1bfefc3d68"><path class="f29368f3-0c9e-4eca-afbb-e051f54aa0ad" d="M230.4763,275.7043l-.8341-.4848a.9384.9384,0,0,1,.0081-.124l.8341.4847a.9388.9388,0,0,0-.0081.1241"/><path class="f29368f3-0c9e-4eca-afbb-e051f54aa0ad" d="M230.4844,275.58l-.8341-.4847q.0057-.0438.0151-.0882l.8341.4848q-.0095.0442-.0151.0881"/><path class="f29368f3-0c9e-4eca-afbb-e051f54aa0ad" d="M230.5,275.4921l-.8341-.4848c.0051-.0242.0111-.0485.0178-.0728l.8342.4848c-.0068.0243-.0127.0486-.0179.0728"/><path class="f29368f3-0c9e-4eca-afbb-e051f54aa0ad" d="M230.5174,275.4193l-.8342-.4848q.009-.0323.02-.0645l.8341.4847q-.0108.0322-.02.0646"/><path class="f29368f3-0c9e-4eca-afbb-e051f54aa0ad" d="M230.5371,275.3547l-.8341-.4847q.01-.03.0214-.06l.8341.4847c-.0076.02-.0148.04-.0214.06"/><path class="f29368f3-0c9e-4eca-afbb-e051f54aa0ad" d="M230.5585,275.295l-.8341-.4847q.0109-.0285.0232-.0567l.8341.4847q-.0123.0282-.0232.0567"/><path class="f29368f3-0c9e-4eca-afbb-e051f54aa0ad" d="M230.5817,275.2383l-.8341-.4847c.0079-.0184.0163-.0367.025-.0548l.8341.4848c-.0087.0181-.0171.0363-.025.0547"/><path class="f29368f3-0c9e-4eca-afbb-e051f54aa0ad" d="M230.6067,275.1836l-.8341-.4848q.013-.027.0272-.0536l.8341.4848c-.0094.0177-.0185.0355-.0272.0536"/><path class="f29368f3-0c9e-4eca-afbb-e051f54aa0ad" d="M230.6339,275.13l-.8341-.4848q.0143-.0267.0295-.053l.8341.4848q-.0153.0261-.0295.053"/><path class="f29368f3-0c9e-4eca-afbb-e051f54aa0ad" d="M230.6634,275.077l-.8341-.4848q.0158-.0269.0325-.0531l.8341.4847q-.0168.0262-.0325.0532"/><path class="f29368f3-0c9e-4eca-afbb-e051f54aa0ad" d="M230.6959,275.0238l-.8341-.4847c.0117-.0183.0238-.0364.0362-.0541l.8341.4847c-.0124.0177-.0245.0358-.0362.0541"/><path class="f29368f3-0c9e-4eca-afbb-e051f54aa0ad" d="M230.7321,274.97l-.8341-.4847c.0135-.0193.0275-.0382.0418-.0566l.8341.4847c-.0143.0185-.0282.0373-.0418.0566"/><path class="f29368f3-0c9e-4eca-afbb-e051f54aa0ad" d="M230.7739,274.9131l-.8341-.4847q.0246-.0318.0507-.0617l.8341.4847q-.0261.03-.0507.0617"/><path class="f29368f3-0c9e-4eca-afbb-e051f54aa0ad" d="M230.8246,274.8514l-.8341-.4847q.0329-.0379.068-.0725l.8341.4847c-.0233.023-.0461.0473-.068.0725"/><path class="f29368f3-0c9e-4eca-afbb-e051f54aa0ad" d="M230.8926,274.7789l-.8341-.4847a1.0438,1.0438,0,0,1,.2088-.1617.7608.7608,0,0,1,.0877-.0437l.8341.4848a.7438.7438,0,0,0-.0877.0436,1.0438,1.0438,0,0,0-.2088.1617"/><path class="f29368f3-0c9e-4eca-afbb-e051f54aa0ad" d="M231.1891,274.5736l-.8341-.4848a.5925.5925,0,0,1,.0741-.0255l.8341.4847a.61.61,0,0,0-.0741.0256"/><path class="f29368f3-0c9e-4eca-afbb-e051f54aa0ad" d="M231.2632,274.548l-.8341-.4847a.51.51,0,0,1,.0554-.0119l.8341.4848a.5086.5086,0,0,0-.0554.0118"/><path class="f29368f3-0c9e-4eca-afbb-e051f54aa0ad" d="M231.3186,274.5362l-.8341-.4848a.4579.4579,0,0,1,.0471-.0047l.8341.4848a.4082.4082,0,0,0-.0471.0047"/><path class="f29368f3-0c9e-4eca-afbb-e051f54aa0ad" d="M231.3657,274.5315l-.8341-.4848a.3871.3871,0,0,1,.0418,0l.8341.4847a.3633.3633,0,0,0-.0418,0"/><path class="f29368f3-0c9e-4eca-afbb-e051f54aa0ad" d="M231.4075,274.5318l-.8341-.4847a.3626.3626,0,0,1,.0382.0044l.8341.4848a.3379.3379,0,0,0-.0382-.0045"/><path class="f29368f3-0c9e-4eca-afbb-e051f54aa0ad" d="M231.4457,274.5363l-.8341-.4848a.3414.3414,0,0,1,.0356.0082l.8341.4848a.3177.3177,0,0,0-.0356-.0082"/><path class="f29368f3-0c9e-4eca-afbb-e051f54aa0ad" d="M231.4813,274.5445l-.8341-.4848a.3383.3383,0,0,1,.0334.0118l.8341.4848a.2937.2937,0,0,0-.0334-.0118"/><path class="f29368f3-0c9e-4eca-afbb-e051f54aa0ad" d="M231.5147,274.5563l-.8341-.4848a.2928.2928,0,0,1,.0318.0156l.8342.4847a.2845.2845,0,0,0-.0319-.0155"/><polyline class="f29368f3-0c9e-4eca-afbb-e051f54aa0ad" points="231.547 274.572 230.712 274.087 230.716 274.089 231.55 274.574 231.547 274.572"/></g></g></g><path class="f29368f3-0c9e-4eca-afbb-e051f54aa0ad" d="M250.6906,263.3074c.3514-.2029.6319-.0387.633.3607l.1053,36.6427-1.2581.7263-.0226-7.4606L231.8171,304.16l.0226,7.4607-1.2581.7264-.1053-36.6427a1.3811,1.3811,0,0,1,.6251-1.0871c.3476-.2007.6319-.0387.633.3607l.0253,8.9257L250.0908,273.32l-.0253-8.9257A1.381,1.381,0,0,1,250.6906,263.3074Zm-.5731,19.4159-.0226-7.9576-18.3311,10.5835.0225,7.9576,18.3312-10.5835m.0266,9.4075-.0225-7.9575-18.3311,10.5834.0225,7.9576,18.3311-10.5835"/></g><path class="7db87074-7f11-4a21-bec5-8b4567ec90d4" d="M325.1163,150.3989A13.9387,13.9387,0,0,1,331.439,161.35l-.0827,29.1733-12.6829-7.3225.0827-29.1733C318.7675,150.0034,321.6141,148.3769,325.1163,150.3989Z"/><g class="23eadfdb-6212-4095-9f3c-9f1bfefc3d68"><path class="aa79b0a7-c702-4b59-9727-b29bb7d47b95" d="M313.3935,133.5475l-20.8527-12.1183c2.4411,1.4186,5.8214,1.22,9.5519-.9342,6.4718-3.7365,11.86-12.1217,13.1091-19.857l20.8528,12.1183c-1.25,7.7353-6.6373,16.1205-13.1091,19.857C319.215,134.7671,315.8347,134.9661,313.3935,133.5475Z"/><g class="1696e5dc-b7d7-44fb-80f5-d74a468976ba"><g class="23eadfdb-6212-4095-9f3c-9f1bfefc3d68"><path class="aa79b0a7-c702-4b59-9727-b29bb7d47b95" d="M313.3935,133.5475l-20.8527-12.1183.0717.041,20.8528,12.1184-.0718-.0411"/><path class="aa79b0a7-c702-4b59-9727-b29bb7d47b95" d="M313.4653,133.5886,292.6125,121.47a6.4107,6.4107,0,0,0,.6759.3305l20.8527,12.1183a6.4376,6.4376,0,0,1-.6758-.33"/><path class="aa79b0a7-c702-4b59-9727-b29bb7d47b95" d="M314.1411,133.919l-20.8527-12.1183a6.6055,6.6055,0,0,0,.71.25L314.8512,134.17a6.6149,6.6149,0,0,1-.71-.25"/><path class="aa79b0a7-c702-4b59-9727-b29bb7d47b95" d="M314.8512,134.17l-20.8528-12.1183a6.9611,6.9611,0,0,0,.7535.1737l20.8528,12.1183a6.9611,6.9611,0,0,1-.7535-.1737"/><path class="aa79b0a7-c702-4b59-9727-b29bb7d47b95" d="M315.6047,134.3432l-20.8528-12.1183a7.51,7.51,0,0,0,.81.0948l20.8527,12.1183a7.5086,7.5086,0,0,1-.81-.0948"/><path class="aa79b0a7-c702-4b59-9727-b29bb7d47b95" d="M316.4146,134.438,295.5619,122.32a8.2308,8.2308,0,0,0,.8859.0075l20.8528,12.1183a8.2329,8.2329,0,0,1-.886-.0075"/><path class="aa79b0a7-c702-4b59-9727-b29bb7d47b95" d="M317.3006,134.4455l-20.8528-12.1183a9.2659,9.2659,0,0,0,.9938-.0988l20.8528,12.1183a9.2659,9.2659,0,0,1-.9938.0988"/><path class="aa79b0a7-c702-4b59-9727-b29bb7d47b95" d="M318.2944,134.3467l-20.8528-12.1183a10.7441,10.7441,0,0,0,1.1919-.2539l20.8528,12.1183a10.7262,10.7262,0,0,1-1.1919.2539"/><path class="aa79b0a7-c702-4b59-9727-b29bb7d47b95" d="M319.4863,134.0928l-20.8528-12.1183a12.9137,12.9137,0,0,0,1.5477-.5314l20.8528,12.1183a12.9257,12.9257,0,0,1-1.5477.5314"/><path class="aa79b0a7-c702-4b59-9727-b29bb7d47b95" d="M321.034,133.5614l-20.8528-12.1183a16.2254,16.2254,0,0,0,1.9115-.9481,22.4537,22.4537,0,0,0,4.4977-3.4867l20.8527,12.1183a22.45,22.45,0,0,1-4.4976,3.4867,16.2254,16.2254,0,0,1-1.9115.9481"/><path class="aa79b0a7-c702-4b59-9727-b29bb7d47b95" d="M327.4431,129.1266,306.59,117.0083q.7476-.7383,1.4521-1.5484l20.8528,12.1183q-.7037.8085-1.4522,1.5484"/><path class="aa79b0a7-c702-4b59-9727-b29bb7d47b95" d="M328.8953,127.5782,308.0425,115.46q.5608-.6442,1.0907-1.3283L329.986,126.25q-.5295.6831-1.0907,1.3283"/><path class="aa79b0a7-c702-4b59-9727-b29bb7d47b95" d="M329.986,126.25l-20.8528-12.1183q.4577-.59.89-1.2065l20.8528,12.1183q-.432.6156-.89,1.2065"/><path class="aa79b0a7-c702-4b59-9727-b29bb7d47b95" d="M330.8759,125.0434l-20.8528-12.1183q.4007-.5707.7778-1.1609l20.8528,12.1183q-.377.59-.7778,1.1609"/><path class="aa79b0a7-c702-4b59-9727-b29bb7d47b95" d="M331.6537,123.8825l-20.8528-12.1183q.3591-.5618.6958-1.1387L332.35,122.7438q-.3364.5766-.6958,1.1387"/><path class="aa79b0a7-c702-4b59-9727-b29bb7d47b95" d="M332.35,122.7438l-20.8528-12.1183q.3269-.56.6314-1.1329l20.8527,12.1183q-.3042.5721-.6313,1.1329"/><path class="aa79b0a7-c702-4b59-9727-b29bb7d47b95" d="M332.9808,121.6109l-20.8527-12.1183q.301-.5665.579-1.1428L333.56,120.4681q-.2777.576-.5791,1.1428"/><path class="aa79b0a7-c702-4b59-9727-b29bb7d47b95" d="M333.56,120.4681,312.7071,108.35q.279-.5784.5332-1.1648l20.8528,12.1184q-.2541.5859-.5332,1.1647"/><path class="aa79b0a7-c702-4b59-9727-b29bb7d47b95" d="M334.0931,119.3034,313.24,107.185q.26-.599.4924-1.204l20.8528,12.1183q-.2325.6046-.4924,1.2041"/><path class="aa79b0a7-c702-4b59-9727-b29bb7d47b95" d="M334.5855,118.0993,313.7327,105.981q.2427-.6313.4546-1.2668L335.04,116.8325q-.2117.6351-.4546,1.2668"/><path class="aa79b0a7-c702-4b59-9727-b29bb7d47b95" d="M335.04,116.8325l-20.8528-12.1183q.2271-.6816.417-1.3651l20.8528,12.1183q-.19.683-.417,1.3651"/><path class="aa79b0a7-c702-4b59-9727-b29bb7d47b95" d="M335.4571,115.4674l-20.8528-12.1183q.2115-.7623.3743-1.5225l20.8527,12.1183q-.1623.76-.3742,1.5225"/><path class="aa79b0a7-c702-4b59-9727-b29bb7d47b95" d="M335.8313,113.9449l-20.8527-12.1183q.1274-.5962.2232-1.1886l20.8528,12.1183q-.0957.5921-.2233,1.1886"/></g></g><path class="0d877ae3-c0a0-46ed-826c-553f7f6502e3" d="M336.0546,112.7563a15.0717,15.0717,0,0,1,.2923,2.9968c.0241,8.522-5.9672,18.9036-13.3835,23.1855s-13.4468.8409-13.4709-7.6811a20.53,20.53,0,0,1,.2743-3.324c1.2893,6.27,6.7069,8.4163,13.1787,4.68S334.805,120.4916,336.0546,112.7563Z"/><path class="f29368f3-0c9e-4eca-afbb-e051f54aa0ad" d="M313.4108,139.8735l-20.8527-12.1183c-2.4113-1.4013-3.9064-4.3813-3.9184-8.616a20.5192,20.5192,0,0,1,.2744-3.324l20.8527,12.1183a20.53,20.53,0,0,0-.2743,3.324C309.5045,135.4922,311,138.4722,313.4108,139.8735Z"/><g class="5cde066a-2c11-42ad-aaaf-5f3259108723"><g class="23eadfdb-6212-4095-9f3c-9f1bfefc3d68"><path class="f29368f3-0c9e-4eca-afbb-e051f54aa0ad" d="M313.4108,139.8735l-20.8527-12.1183c-2.4113-1.4013-3.9064-4.3813-3.9184-8.616a19.9828,19.9828,0,0,1,.1721-2.6227l20.8528,12.1183a19.9655,19.9655,0,0,0-.1721,2.6227c.012,4.2347,1.5071,7.2147,3.9183,8.616"/><path class="f29368f3-0c9e-4eca-afbb-e051f54aa0ad" d="M309.6646,128.6348l-20.8528-12.1183q.0455-.35.1023-.7013l20.8527,12.1183q-.0567.3515-.1022.7013"/></g></g></g><line class="36f2fd8b-4a80-49d8-aebd-eba3b11c02e6" x1="289.048" y1="115.9175" x2="271.3042" y2="275.8345"/><line class="36f2fd8b-4a80-49d8-aebd-eba3b11c02e6" x1="309.5893" y1="127.7898" x2="291.8456" y2="287.7068"/><polygon class="aa79b0a7-c702-4b59-9727-b29bb7d47b95" points="349.518 233.997 359.944 227.937 359.824 247.568 349.398 253.627 349.518 233.997"/><path class="f29368f3-0c9e-4eca-afbb-e051f54aa0ad" d="M343.1822,70.381a73.8327,73.8327,0,0,1,.3922-8.4563,22.0984,22.0984,0,0,1,.9585-4.2764,29.0974,29.0974,0,0,1,1.6823-4.0365,28.7563,28.7563,0,0,1,5.1752-7.0679,33.7782,33.7782,0,0,1,6.95-5.3442,42.6913,42.6913,0,0,1,7.98-3.57,51.455,51.455,0,0,1,8.4811-1.9946,65.1039,65.1039,0,0,1,17.33-.1655l.007.0008a2.8448,2.8448,0,1,1-.6713,5.65c-.0539-.0064-.1158-.0159-.1686-.0252a59.9427,59.9427,0,0,0-15.9332-.8043,47.0213,47.0213,0,0,0-7.8424,1.3539,38.76,38.76,0,0,0-7.41,2.7942A27.8839,27.8839,0,0,0,348.576,54.9126a26.5332,26.5332,0,0,0-1.7406,3.5616,19.7346,19.7346,0,0,0-1.0913,3.7954A72.22,72.22,0,0,0,344.88,70.44l0,.0068a.8494.8494,0,0,1-1.6968-.0662Z"/><rect class="7db87074-7f11-4a21-bec5-8b4567ec90d4" x="230.0169" y="339.0175" width="0.3002" height="25.7196"/><polygon class="f29368f3-0c9e-4eca-afbb-e051f54aa0ad" points="235.307 338.724 232.689 339.768 233.801 342.358 231.211 341.246 230.167 343.864 229.123 341.246 226.532 342.358 227.645 339.768 225.027 338.724 227.645 337.68 226.532 335.089 229.123 336.202 230.167 333.584 231.211 336.202 233.802 335.089 232.689 337.68 235.307 338.724"/><rect class="7db87074-7f11-4a21-bec5-8b4567ec90d4" x="235.4088" y="206.537" width="0.2255" height="19.3267"/><polygon class="f29368f3-0c9e-4eca-afbb-e051f54aa0ad" points="239.384 206.316 237.417 207.101 238.253 209.047 236.306 208.212 235.522 210.179 234.737 208.212 232.79 209.047 233.626 207.101 231.659 206.316 233.626 205.532 232.79 203.585 234.737 204.421 235.522 202.454 236.306 204.421 238.253 203.585 237.417 205.532 239.384 206.316"/><rect class="7db87074-7f11-4a21-bec5-8b4567ec90d4" x="243.5039" y="213.8603" width="0.2255" height="19.3267"/><polygon class="f29368f3-0c9e-4eca-afbb-e051f54aa0ad" points="247.479 213.64 245.512 214.424 246.348 216.371 244.401 215.535 243.617 217.502 242.832 215.535 240.886 216.371 241.721 214.424 239.754 213.64 241.721 212.855 240.886 210.908 242.832 211.744 243.617 209.777 244.401 211.744 246.348 210.908 245.512 212.855 247.479 213.64"/><rect class="7db87074-7f11-4a21-bec5-8b4567ec90d4" x="255.0959" y="201.1402" width="0.2255" height="19.3267"/><polygon class="f29368f3-0c9e-4eca-afbb-e051f54aa0ad" points="259.071 200.919 257.104 201.704 257.94 203.651 255.993 202.815 255.209 204.782 254.424 202.815 252.478 203.651 253.314 201.704 251.346 200.919 253.314 200.135 252.478 198.188 254.424 199.024 255.209 197.057 255.993 199.024 257.94 198.188 257.104 200.135 259.071 200.919"/><rect class="7db87074-7f11-4a21-bec5-8b4567ec90d4" x="264.3816" y="218.5059" width="0.2255" height="19.3267"/><polygon class="f29368f3-0c9e-4eca-afbb-e051f54aa0ad" points="268.357 218.285 266.39 219.07 267.226 221.016 265.279 220.18 264.494 222.148 263.71 220.18 261.763 221.016 262.599 219.07 260.632 218.285 262.599 217.501 261.763 215.554 263.71 216.39 264.494 214.423 265.279 216.39 267.226 215.554 266.39 217.501 268.357 218.285"/><rect class="7db87074-7f11-4a21-bec5-8b4567ec90d4" x="376.7333" y="270.3525" width="0.4511" height="19.3267"/><polygon class="f29368f3-0c9e-4eca-afbb-e051f54aa0ad" points="382.059 268.753 379.516 269.767 380.596 272.283 378.08 271.203 377.066 273.746 376.052 271.203 373.536 272.283 374.616 269.767 372.073 268.753 374.616 267.739 373.536 265.223 376.052 266.303 377.066 263.761 378.08 266.303 380.596 265.223 379.516 267.739 382.059 268.753"/><rect class="7db87074-7f11-4a21-bec5-8b4567ec90d4" x="362.3923" y="265.7575" width="0.4511" height="19.3267"/><polygon class="f29368f3-0c9e-4eca-afbb-e051f54aa0ad" points="367.718 264.158 365.175 265.172 366.255 267.688 363.739 266.608 362.725 269.151 361.711 266.608 359.195 267.688 360.275 265.172 357.733 264.158 360.275 263.144 359.195 260.628 361.711 261.708 362.725 259.166 363.739 261.708 366.255 260.628 365.175 263.144 367.718 264.158"/><rect class="7db87074-7f11-4a21-bec5-8b4567ec90d4" x="354.3384" y="272.1348" width="0.4511" height="19.3267"/><polygon class="f29368f3-0c9e-4eca-afbb-e051f54aa0ad" points="359.664 270.535 357.121 271.55 358.201 274.066 355.685 272.985 354.671 275.528 353.657 272.985 351.141 274.066 352.221 271.55 349.679 270.535 352.221 269.521 351.141 267.005 353.657 268.086 354.671 265.543 355.685 268.086 358.201 267.005 357.121 269.521 359.664 270.535"/><polygon class="f29368f3-0c9e-4eca-afbb-e051f54aa0ad" points="219.269 340.091 216.846 341.057 217.876 343.455 215.478 342.425 214.511 344.849 213.545 342.425 211.147 343.455 212.177 341.057 209.753 340.091 212.177 339.124 211.147 336.726 213.545 337.756 214.511 335.333 215.478 337.756 217.876 336.726 216.846 339.124 219.269 340.091"/><polygon class="aa79b0a7-c702-4b59-9727-b29bb7d47b95" points="209.372 347.647 207.224 349.128 208.761 351.237 206.194 350.766 205.79 353.343 204.309 351.195 202.2 352.732 202.671 350.165 200.094 349.761 202.242 348.28 200.705 346.171 203.272 346.642 203.676 344.065 205.157 346.213 207.266 344.676 206.795 347.243 209.372 347.647"/><polygon class="aa79b0a7-c702-4b59-9727-b29bb7d47b95" points="227.073 349.533 224.924 351.013 226.461 353.123 223.894 352.651 223.49 355.229 222.009 353.081 219.9 354.618 220.372 352.051 217.794 351.647 219.942 350.166 218.405 348.057 220.972 348.528 221.376 345.95 222.857 348.099 224.966 346.562 224.495 349.129 227.073 349.533"/><rect class="7db87074-7f11-4a21-bec5-8b4567ec90d4" x="130.8024" y="257.7951" width="0.4511" height="28.6594"/><rect class="7db87074-7f11-4a21-bec5-8b4567ec90d4" x="138.7718" y="278.1093" width="0.4511" height="19.3267"/><polygon class="aa79b0a7-c702-4b59-9727-b29bb7d47b95" points="143.992 274.759 141.678 276.354 143.333 278.626 140.569 278.118 140.133 280.895 138.538 278.581 136.266 280.236 136.774 277.471 133.998 277.036 136.312 275.441 134.656 273.169 137.421 273.677 137.856 270.9 139.451 273.214 141.723 271.559 141.216 274.324 143.992 274.759"/><rect class="7db87074-7f11-4a21-bec5-8b4567ec90d4" x="253.6605" y="228.9496" width="0.4511" height="19.3267"/><polygon class="aa79b0a7-c702-4b59-9727-b29bb7d47b95" points="258.881 225.599 256.567 227.194 258.222 229.466 255.457 228.959 255.022 231.735 253.427 229.421 251.155 231.076 251.663 228.312 248.886 227.876 251.2 226.281 249.545 224.009 252.31 224.517 252.745 221.741 254.34 224.055 256.612 222.399 256.104 225.164 258.881 225.599"/><rect class="7db87074-7f11-4a21-bec5-8b4567ec90d4" x="285.851" y="231.501" width="0.4511" height="19.3267"/><polygon class="aa79b0a7-c702-4b59-9727-b29bb7d47b95" points="291.071 228.151 288.757 229.746 290.413 232.018 287.648 231.51 287.213 234.286 285.618 231.973 283.346 233.628 283.853 230.863 281.077 230.428 283.391 228.833 281.736 226.561 284.5 227.069 284.936 224.292 286.531 226.606 288.803 224.951 288.295 227.715 291.071 228.151"/><polygon class="aa79b0a7-c702-4b59-9727-b29bb7d47b95" points="136.081 256.967 133.767 258.562 135.422 260.834 132.658 260.326 132.222 263.103 130.627 260.789 128.355 262.444 128.863 259.68 126.087 259.244 128.401 257.649 126.745 255.377 129.51 255.885 129.945 253.109 131.54 255.422 133.812 253.767 133.305 256.532 136.081 256.967"/></svg>