<svg xmlns="http://www.w3.org/2000/svg" width="426.2136mm" height="176.7328mm" viewBox="0 0 1208.1645 500.975"><defs><style>.a{isolation:isolate;}.b{fill:#37543e;}.c{fill:#4c6c55;}.d{fill:#6d7455;}.e{fill:#c16c44;}.f{fill:#d08b6f;}.g{fill:#e2b097;}.h{fill:none;stroke:#fbf1ee;stroke-linecap:round;stroke-linejoin:round;stroke-width:9px;}</style></defs><title>Contact</title><g class="a"><polygon class="b" points="1111.974 345.806 1112.143 405.312 1180.957 365.583 1180.788 306.077 1111.974 345.806"/><polygon class="c" points="1111.974 345.806 1076.735 325.327 1076.903 384.833 1112.143 405.312 1111.974 345.806"/><polygon class="d" points="1180.788 306.077 1145.549 285.597 1076.735 325.327 1111.974 345.806 1180.788 306.077"/></g><g class="a"><polygon class="b" points="972.915 248.852 973.203 350.535 1042.017 310.806 1041.729 209.122 972.915 248.852"/><polygon class="c" points="972.915 248.852 937.675 228.373 937.963 330.056 973.203 350.535 972.915 248.852"/><polygon class="d" points="1041.729 209.122 1006.489 188.643 937.675 228.373 972.915 248.852 1041.729 209.122"/></g><g class="a"><polygon class="e" points="865.018 158.856 865.187 218.362 934.001 178.633 933.832 119.127 865.018 158.856"/><polygon class="f" points="865.018 158.856 829.779 138.377 829.947 197.883 865.187 218.362 865.018 158.856"/><polygon class="g" points="933.832 119.127 898.592 98.647 829.779 138.377 865.018 158.856 933.832 119.127"/></g><g class="a"><polygon class="e" points="1113.857 125.333 1114.177 238.028 1148.583 218.163 1148.264 105.468 1113.857 125.333"/><polygon class="f" points="1113.857 125.333 1078.617 104.854 1078.937 217.549 1114.177 238.028 1113.857 125.333"/><polygon class="d" points="1098.862 128.131 1091.532 123.871 1091.598 147.315 1098.929 151.575 1098.862 128.131"/><polygon class="d" points="1098.862 159.153 1091.532 154.893 1091.598 178.336 1098.929 182.596 1098.862 159.153"/><polygon class="d" points="1098.862 189.819 1091.532 185.559 1091.598 209.003 1098.929 213.263 1098.862 189.819"/><polygon class="g" points="1148.264 105.468 1113.024 84.989 1078.617 104.854 1113.857 125.333 1148.264 105.468"/></g><g class="a"><polygon class="e" points="830.104 343.645 830.386 443.105 882.172 413.207 881.89 313.746 830.104 343.645"/><polygon class="f" points="830.104 343.645 759.624 302.687 759.906 402.147 830.386 443.105 830.104 343.645"/><polygon class="g" points="881.89 313.746 811.41 272.788 759.624 302.687 830.104 343.645 881.89 313.746"/></g><g class="a"><polygon class="e" points="695.99 169.55 696.272 269.017 772.811 224.827 772.529 125.36 695.99 169.55"/><polygon class="f" points="695.99 169.55 625.51 128.591 625.792 228.059 696.272 269.017 695.99 169.55"/><polygon class="g" points="772.529 125.36 702.05 84.401 625.51 128.591 695.99 169.55 772.529 125.36"/></g><polygon class="g" points="1161.116 330.073 1161.184 354.056 1173.672 346.847 1173.604 322.864 1161.116 330.073"/><polygon class="b" points="712.43 191.727 712.498 215.71 724.985 208.5 724.917 184.517 712.43 191.727"/><polygon class="b" points="853.798 405.568 853.866 429.551 866.354 422.342 866.286 398.359 860.076 387.675 853.798 405.568"/><polygon class="b" points="853.798 365.454 853.866 378.426 866.354 371.216 866.286 358.245 860.076 347.561 853.798 365.454"/><path class="h" d="M1089.3478,488.9564c-54.9351-22.8712-91.5628-52.0332-113-72-15.4757-14.4144-29.4057-27.389-43-49-25.801-41.0164-16.6255-59.462-38-87-26.9335-34.7-52.37-19.414-79-50-31.3021-35.9526-34.21-100.7808-7-149,24.3066-43.0739,65.0331-59.4026,78-64"/><path class="h" d="M15.3478,230.9564a537.2011,537.2011,0,0,0,121,71c87.1331,36.7422,161.6065,40.693,214,43,92.5423,4.0748,163.3367-10.0754,228-23,55.9748-11.1881,103.8761-25.521,129-33,47.9227-14.2661,93.6472-32.7494,124.6536-44.5153"/><path class="h" d="M199.2786,478.55a1280.6134,1280.6134,0,0,1,121.4939-67.5013c42.5125-20.6846,146.28-62.1313,183.5753-75.7777"/><polygon class="g" points="951.112 251.194 943.782 246.934 943.848 270.377 951.179 274.638 951.112 251.194"/><polygon class="g" points="951.112 281.944 943.782 277.684 943.848 301.127 951.179 305.388 951.112 281.944"/><polygon class="g" points="964.939 322.355 957.608 318.095 957.674 341.539 965.005 345.799 964.939 322.355"/></svg>