<svg xmlns="http://www.w3.org/2000/svg" width="65.6167mm" height="38.916mm" viewBox="0 0 186 110.3131"><defs><style>.a{fill:#fbf2ef;}.b{fill:#c16d44;}</style></defs><title>english</title><path class="a" d="M139.4031,19.9765a42.314,42.314,0,0,0-12.0562,1.7521A50.246,50.246,0,0,0,39.014,50.7243a27.3282,27.3282,0,1,0-6.3191,53.9134c.3087,0,.608-.0361.9141-.0462l-.0323.0462H139.4031a42.3306,42.3306,0,1,0,0-84.6612Z"/><path class="b" d="M64.4606,52.0989l-.1118.084h-.0142a.3252.3252,0,0,0-.1259.042h-.042a.6329.6329,0,0,1-.2657,0h-.042c-.0561-.0186-.0888-.03-.0981-.0347s-.0259-.0117-.0488-.021a.4869.4869,0,0,1-.1055-.07h-.0137a.76.76,0,0,1-.1123-.105c-.0371-.042-.0654-.0722-.084-.0908v-.0142a.2206.2206,0,0,1-.0346-.063.2284.2284,0,0,0-.0352-.0629L59.883,43.6009a.7734.7734,0,0,1,.0068-.5879.6949.6949,0,0,1,.4131-.4058A.72.72,0,0,1,60.884,42.6a.6978.6978,0,0,1,.413.4131l2.7437,6.4819,1.8061-4.2979a.7174.7174,0,0,1,.7212-.476.7434.7434,0,0,1,.7349.476l1.8061,4.2979,2.73-6.4819a.7462.7462,0,0,1,.42-.4131.7577.7577,0,0,1,.5878,0,.76.76,0,0,1,.4058,1.001l-3.43,8.1621a.4664.4664,0,0,1-.1543.2241.1061.1061,0,0,1-.0137.042.3684.3684,0,0,0-.0981.07h-.0142l-.1259.084H69.403a.0594.0594,0,0,0-.0283.0073c-.0093.0049-.042.0161-.0977.0347h-.0283a.6324.6324,0,0,1-.2656,0h-.0425c-.0557-.0186-.0884-.03-.0977-.0347a.2135.2135,0,0,0-.0493-.0142.2668.2668,0,0,1-.105-.0771H68.675a.512.512,0,0,1-.1822-.1958.2.2,0,0,1-.0839-.14l-1.834-4.34-1.834,4.34a1.0046,1.0046,0,0,1-.0562.1259l-.0976.0982a.1091.1091,0,0,1-.0142.042.388.388,0,0,0-.084.07Z"/><path class="b" d="M81.9186,48.5569a.6476.6476,0,0,1-.2031.4971.7591.7591,0,0,1-.5391.1889H76.7248a1.6843,1.6843,0,0,0,.4756.9244,1.97,1.97,0,0,0,1.309.6225,2.051,2.051,0,0,0,1.4913-.3428.7311.7311,0,0,1,.56-.2241.5836.5836,0,0,1,.49.1822.6263.6263,0,0,1,0,.91,3.496,3.496,0,0,1-2.4707.917,3.2923,3.2923,0,0,1-2.45-1.0293,3.5419,3.5419,0,0,1,0-4.9351,3.1864,3.1864,0,0,1,2.3872-1.0288,3.2842,3.2842,0,0,1,2.3589.917,3.3806,3.3806,0,0,1,1.0429,2.3311Zm-3.374-1.9878a1.9757,1.9757,0,0,0-1.3022.5039,1.8282,1.8282,0,0,0-.5879.98h3.9619a1.9078,1.9078,0,0,0-.6787-.9521A2.4319,2.4319,0,0,0,78.5446,46.5691Z"/><path class="b" d="M92.67,46.0091a.72.72,0,0,1,.3149.4687.7789.7789,0,0,1-.0908.5674.7193.7193,0,0,1-.4692.3149.709.709,0,0,1-.5669-.1191,2.549,2.549,0,0,0-1.2949-.5181,1.3123,1.3123,0,0,0-.8331.252q-.2241.1545-.2241.2729a.3373.3373,0,0,0,.0352.1753.4648.4648,0,0,0,.147.126,2.745,2.745,0,0,0,1.0219.3359l.0142.0142h.0137a5.9449,5.9449,0,0,1,1.3584.42,1.9714,1.9714,0,0,1,.91.77,1.8677,1.8677,0,0,1,.294.9659,1.9406,1.9406,0,0,1-.8819,1.624,3.1308,3.1308,0,0,1-1.82.56,4.009,4.009,0,0,1-2.4922-.9658.7128.7128,0,0,1-.2588-.4971.755.755,0,0,1,.6651-.8193.7021.7021,0,0,1,.5459.1685,2.3281,2.3281,0,0,0,1.54.6157,1.7373,1.7373,0,0,0,.9517-.2661q.2519-.21.2519-.357a.3534.3534,0,0,0-.042-.2031.4588.4588,0,0,0-.1816-.168,3.0533,3.0533,0,0,0-1.12-.3916H90.444a5.2166,5.2166,0,0,1-1.2949-.4062,2.189,2.189,0,0,1-.8892-.77,1.6649,1.6649,0,0,1-.2378-.8819,1.8793,1.8793,0,0,1,.8262-1.54,2.986,2.986,0,0,1,1.729-.5181A3.7573,3.7573,0,0,1,92.67,46.0091Z"/><path class="b" d="M96.5407,54.64a.7448.7448,0,0,1-.5459.231.7231.7231,0,0,1-.5391-.231.734.734,0,0,1-.2241-.5249V45.9812a.7155.7155,0,0,1,.2173-.5254.7074.7074,0,0,1,.5181-.2168.8231.8231,0,0,1,.518.168.6477.6477,0,0,1,.2588.4063,3.4232,3.4232,0,0,1,1.9038-.5743,3.1974,3.1974,0,0,1,2.3941,1.0362,3.4545,3.4545,0,0,1,.9941,2.478,3.3829,3.3829,0,0,1-.9941,2.457,3.2287,3.2287,0,0,1-2.3941,1.0147,3.1266,3.1266,0,0,1-1.876-.5738V54.115A.7221.7221,0,0,1,96.5407,54.64Zm3.4233-7.3008a1.7667,1.7667,0,0,0-1.33-.5742,1.7354,1.7354,0,0,0-1.3233.5811,2.05,2.05,0,0,0-.5391,1.4492,1.7307,1.7307,0,0,0,.5464,1.3579,1.6956,1.6956,0,0,0,1.3086.5879,1.7605,1.7605,0,0,0,1.33-.5879A1.9653,1.9653,0,0,0,100.51,48.76,2.0794,2.0794,0,0,0,99.964,47.3391Z"/><path class="b" d="M110.7716,48.5569a.6473.6473,0,0,1-.2031.4971.7589.7589,0,0,1-.539.1889h-4.4517a1.6843,1.6843,0,0,0,.4756.9244,1.97,1.97,0,0,0,1.3091.6225,2.0507,2.0507,0,0,0,1.4912-.3428.7311.7311,0,0,1,.56-.2241.5836.5836,0,0,1,.49.1822.6263.6263,0,0,1,0,.91,3.496,3.496,0,0,1-2.4707.917,3.2923,3.2923,0,0,1-2.45-1.0293,3.5419,3.5419,0,0,1,0-4.9351A3.1864,3.1864,0,0,1,107.37,45.239a3.2842,3.2842,0,0,1,2.3589.917,3.3806,3.3806,0,0,1,1.0429,2.3311Zm-3.374-1.9878a1.9757,1.9757,0,0,0-1.3022.5039,1.8282,1.8282,0,0,0-.5879.98h3.9619a1.9078,1.9078,0,0,0-.6787-.9521A2.4319,2.4319,0,0,0,107.3976,46.5691Z"/><path class="b" d="M113.2145,51.2171a3.6723,3.6723,0,0,1,0-4.9493,3.1132,3.1132,0,0,1,2.3731-1.0288,3.1573,3.1573,0,0,1,1.8618.6162.88.88,0,0,1,.2661-.4414.7.7,0,0,1,.4829-.1748.68.68,0,0,1,.5039.2242.7393.7393,0,0,1,.2173.5317v5.5019a.7171.7171,0,0,1-.2173.5254.6908.6908,0,0,1-.5039.2168.7165.7165,0,0,1-.4829-.1679.8364.8364,0,0,1-.2661-.4341,3.1641,3.1641,0,0,1-1.8618.602A3.124,3.124,0,0,1,113.2145,51.2171Zm.5391-2.4712a2.0594,2.0594,0,0,0,.5107,1.4214,1.6808,1.6808,0,0,0,1.3159.5737,1.723,1.723,0,0,0,1.33-.5737,2.0178,2.0178,0,0,0,.5254-1.4141,2.0539,2.0539,0,0,0-.5322-1.4282,1.7121,1.7121,0,0,0-1.3233-.5879,1.6777,1.6777,0,0,0-1.3086.581A2.0663,2.0663,0,0,0,113.7536,48.7459Z"/><path class="b" d="M122.9865,52.0149a.7661.7661,0,0,1-.5532.2241.7653.7653,0,0,1-.77-.77v-8.26a.7647.7647,0,0,1,.77-.77.7674.7674,0,0,1,.5532.2237.733.733,0,0,1,.2309.5464V48.053l2.87-2.87a.743.743,0,0,1,.5459-.2236.7685.7685,0,0,1,.5532.2236.733.733,0,0,1,.2309.5464.722.722,0,0,1-.2382.5459l-2.1,2.1,2.1562,2.59a.7231.7231,0,0,1,.084.833.6992.6992,0,0,1-.644.4409.7377.7377,0,0,1-.63-.28l-2.0581-2.4922-.77.77V51.469A.7311.7311,0,0,1,122.9865,52.0149Z"/><path class="b" d="M76.5285,65.3572a.6476.6476,0,0,1-.2031.4971.76.76,0,0,1-.5391.1889H71.3346a1.6843,1.6843,0,0,0,.4756.9244,1.97,1.97,0,0,0,1.3091.6225,2.0507,2.0507,0,0,0,1.4912-.3428.7314.7314,0,0,1,.56-.2241.5835.5835,0,0,1,.49.1821.6264.6264,0,0,1,0,.91,3.496,3.496,0,0,1-2.4707.917,3.2923,3.2923,0,0,1-2.45-1.0293,3.5419,3.5419,0,0,1,0-4.9351,3.1864,3.1864,0,0,1,2.3872-1.0288,3.284,3.284,0,0,1,2.3589.917,3.3805,3.3805,0,0,1,1.043,2.3311Zm-3.374-1.9878a1.9762,1.9762,0,0,0-1.3023.5039,1.83,1.83,0,0,0-.5879.98h3.9619a1.9072,1.9072,0,0,0-.6787-.9522A2.4322,2.4322,0,0,0,73.1545,63.3694Z"/><path class="b" d="M80.2663,68.2971a.6872.6872,0,0,1-.2378.5254.78.78,0,0,1-.5391.2168.7068.7068,0,0,1-.518-.2168.7147.7147,0,0,1-.2173-.5254V62.7815a.7488.7488,0,0,1,1.4282-.3081,2.7255,2.7255,0,0,1,1.4839-.4341,2.9276,2.9276,0,0,1,2.9262,2.9121v3.3457a.73.73,0,0,1-.21.5254.6851.6851,0,0,1-.5112.2168.7294.7294,0,0,1-.5249-.2168.7046.7046,0,0,1-.2242-.5254V64.9514a1.3407,1.3407,0,0,0-.4267-1.0009,1.4193,1.4193,0,0,0-1.022-.4131,1.3475,1.3475,0,0,0-1.001.4131,1.3737,1.3737,0,0,0-.4062,1.0009Z"/><path class="b" d="M87.8542,68.0315a3.3932,3.3932,0,0,1-.98-2.457,3.5125,3.5125,0,0,1,.98-2.4922,3.2583,3.2583,0,0,1,4.2563-.4551.7274.7274,0,0,1,.2656-.42.7731.7731,0,0,1,.4971-.168.6912.6912,0,0,1,.5039.2168.7151.7151,0,0,1,.2173.5254v5.4038a3.3692,3.3692,0,0,1-3.36,3.36,3.1345,3.1345,0,0,1-1.47-.35.6734.6734,0,0,1-.3779-.4268.74.74,0,0,1,.042-.581.7233.7233,0,0,1,.4267-.378.7849.7849,0,0,1,.5811.0279,1.9182,1.9182,0,0,0,.917.1963,1.6437,1.6437,0,0,0,1.064-.4273,1.8828,1.8828,0,0,0,.6513-1.0708,3.1533,3.1533,0,0,1-1.834.56A3.1176,3.1176,0,0,1,87.8542,68.0315Zm.5322-2.45a2.0349,2.0349,0,0,0,.5317,1.4141,1.7972,1.7972,0,0,0,2.646.0141,2.02,2.02,0,0,0,.5323-1.4282,2.0816,2.0816,0,0,0-.5391-1.4492,1.7322,1.7322,0,0,0-2.625.0142A2.0807,2.0807,0,0,0,88.3864,65.5813Z"/><path class="b" d="M96.674,60.01a.7645.7645,0,0,1,.77-.77.768.768,0,0,1,.5532.2237.733.733,0,0,1,.231.5463v8.26a.7312.7312,0,0,1-.231.5459.7668.7668,0,0,1-.5532.2241.7652.7652,0,0,1-.77-.77Z"/><path class="b" d="M101.5881,59.9954v.2939a.755.755,0,0,1-.2173.5459.7113.7113,0,0,1-.5318.2241.7341.7341,0,0,1-.539-.2241.7416.7416,0,0,1-.2242-.5459v-.2939a.7276.7276,0,0,1,.2242-.5322.7353.7353,0,0,1,.539-.2237.7233.7233,0,0,1,.5318.2168A.7331.7331,0,0,1,101.5881,59.9954Zm-1.295,2.2749a.778.778,0,0,1,1.0777,0,.7507.7507,0,0,1,.2173.5532v5.46a.733.733,0,0,1-.2173.539.7229.7229,0,0,1-.5318.2168.7341.7341,0,0,1-.539-.2241.7259.7259,0,0,1-.2242-.5317v-5.46A.7488.7488,0,0,1,100.2931,62.27Z"/><path class="b" d="M108.3219,62.8093a.72.72,0,0,1,.315.4688.7789.7789,0,0,1-.0908.5674.72.72,0,0,1-.4693.3149.709.709,0,0,1-.5669-.1191,2.5486,2.5486,0,0,0-1.2949-.5181,1.312,1.312,0,0,0-.833.252q-.2241.1545-.2241.2729a.3384.3384,0,0,0,.0351.1753.4671.4671,0,0,0,.147.126,2.7463,2.7463,0,0,0,1.022.3359l.0141.0142h.0137a5.9384,5.9384,0,0,1,1.3584.42,1.9712,1.9712,0,0,1,.91.77,1.8675,1.8675,0,0,1,.2939.9658,1.9406,1.9406,0,0,1-.8818,1.6241,3.131,3.131,0,0,1-1.82.56,4.0088,4.0088,0,0,1-2.4922-.9658.7124.7124,0,0,1-.2588-.4971.7548.7548,0,0,1,.665-.8193.7016.7016,0,0,1,.5459.1685,2.3281,2.3281,0,0,0,1.54.6157,1.737,1.737,0,0,0,.9516-.2661q.252-.21.252-.357a.3534.3534,0,0,0-.042-.2031.4593.4593,0,0,0-.1817-.168,3.0526,3.0526,0,0,0-1.12-.3916h-.0141a5.2175,5.2175,0,0,1-1.295-.4062,2.19,2.19,0,0,1-.8891-.77,1.6649,1.6649,0,0,1-.2378-.8819,1.8793,1.8793,0,0,1,.8262-1.54,2.9857,2.9857,0,0,1,1.729-.5181A3.7573,3.7573,0,0,1,108.3219,62.8093Z"/><path class="b" d="M112.2067,68.8152a.7769.7769,0,0,1-1.0918,0,.73.73,0,0,1-.2314-.5459V60.01a.7645.7645,0,0,1,.77-.77.7674.7674,0,0,1,.5532.2237.733.733,0,0,1,.231.5463v2.4356a3.204,3.204,0,0,1,1.498-.4058,2.9269,2.9269,0,0,1,2.1558.9029,2.9616,2.9616,0,0,1,.896,2.163v3.1641a.77.77,0,1,1-1.54,0V65.1052a1.4418,1.4418,0,0,0-.4414-1.0571,1.5078,1.5078,0,0,0-1.0708-.4546,1.4678,1.4678,0,0,0-1.05.4546,1.5054,1.5054,0,0,0-.4482,1.0571v3.1641A.7312.7312,0,0,1,112.2067,68.8152Z"/><path class="b" d="M100.6555,83.7858a5.028,5.028,0,0,0-7.1105,0,5.028,5.028,0,0,0-7.1107,7.1107l0,0,7.1108,7.1107h0l7.1107-7.1107,0,0A5.0278,5.0278,0,0,0,100.6555,83.7858Z"/></svg>