<svg xmlns="http://www.w3.org/2000/svg" width="112.1778mm" height="107.6086mm" viewBox="0 0 317.9843 305.0324"><defs><style>.a,.k{fill:#fbf2ef;}.a{stroke:#fff;stroke-linecap:round;stroke-width:3px;}.a,.c,.h{stroke-miterlimit:10;}.b{fill:#c16d44;}.c,.h,.l{fill:none;}.c{stroke:#757e34;}.d{fill:#757e34;}.e{fill:#a27e2e;}.f{fill:#8999b5;}.g{fill:#f2edec;}.h{stroke:#37543e;}.i{fill:#37543e;}.j{fill:#fff;}.l{stroke:#814828;stroke-linejoin:round;}</style></defs><title>lettre</title><polygon class="a" points="156.517 72.424 229.517 130.424 83.517 130.424 156.517 72.424"/><path class="b" d="M127.4322,256.8149l-.1118.084h-.0142a.327.327,0,0,0-.1259.042h-.042a.6285.6285,0,0,1-.2657,0h-.0419c-.0562-.0185-.0889-.03-.0982-.0347s-.0259-.0117-.0488-.0209a.4884.4884,0,0,1-.1055-.07h-.0137a.7588.7588,0,0,1-.1123-.1049c-.0371-.042-.0654-.0723-.084-.0909v-.0141a.2236.2236,0,0,1-.0346-.063.2311.2311,0,0,0-.0352-.063l-3.4438-8.1621a.7734.7734,0,0,1,.0068-.5879.6949.6949,0,0,1,.4131-.4058.72.72,0,0,1,.5811-.0073.6978.6978,0,0,1,.413.4131l2.7437,6.4819,1.8061-4.2978a.7174.7174,0,0,1,.7212-.4761.7434.7434,0,0,1,.7349.4761l1.8062,4.2978,2.73-6.4819a.7462.7462,0,0,1,.42-.4131.7577.7577,0,0,1,.5878,0,.76.76,0,0,1,.4058,1.001l-3.43,8.1621a.4664.4664,0,0,1-.1543.2241.1067.1067,0,0,1-.0136.042.37.37,0,0,0-.0982.07h-.0142l-.1259.084h-.0137a.0605.0605,0,0,0-.0283.0073c-.0093.0049-.042.0162-.0977.0347H132.22a.6281.6281,0,0,1-.2656,0h-.0425c-.0557-.0185-.0884-.03-.0977-.0347a.22.22,0,0,0-.0493-.0141.2685.2685,0,0,1-.105-.0772h-.0136a.512.512,0,0,1-.1822-.1958.1993.1993,0,0,1-.0839-.14l-1.834-4.34-1.834,4.34a1.0109,1.0109,0,0,1-.0562.126l-.0976.0981a.1086.1086,0,0,1-.0142.042.388.388,0,0,0-.084.07Z"/><path class="b" d="M144.89,253.2729a.6473.6473,0,0,1-.2031.4971.7592.7592,0,0,1-.5391.189h-4.4516a1.6836,1.6836,0,0,0,.4756.9243,1.9707,1.9707,0,0,0,1.309.6226,2.0514,2.0514,0,0,0,1.4913-.3428.7311.7311,0,0,1,.56-.2241.5836.5836,0,0,1,.49.1821.6263.6263,0,0,1,0,.91,3.4955,3.4955,0,0,1-2.4707.917,3.2915,3.2915,0,0,1-2.45-1.0293,3.5417,3.5417,0,0,1,0-4.935,3.1864,3.1864,0,0,1,2.3872-1.0288,3.2838,3.2838,0,0,1,2.3589.917,3.38,3.38,0,0,1,1.0429,2.331Zm-3.374-1.9877a1.9757,1.9757,0,0,0-1.3022.5039,1.828,1.828,0,0,0-.5879.98h3.9619a1.9082,1.9082,0,0,0-.6787-.9521A2.4318,2.4318,0,0,0,141.5162,251.2852Z"/><path class="b" d="M155.6417,250.7251a.72.72,0,0,1,.3149.4687.7789.7789,0,0,1-.0908.5674.7194.7194,0,0,1-.4692.315.709.709,0,0,1-.5669-.1192,2.5486,2.5486,0,0,0-1.2949-.518,1.3123,1.3123,0,0,0-.8331.2519q-.2241.1545-.2241.273a.3373.3373,0,0,0,.0352.1753.4635.4635,0,0,0,.147.1259,2.7436,2.7436,0,0,0,1.0219.336l.0142.0141h.0137a5.94,5.94,0,0,1,1.3584.42,1.9708,1.9708,0,0,1,.91.77,1.8671,1.8671,0,0,1,.294.9658,1.9406,1.9406,0,0,1-.8819,1.624,3.13,3.13,0,0,1-1.82.56,4.01,4.01,0,0,1-2.4922-.9658.713.713,0,0,1-.2588-.4971.7548.7548,0,0,1,.6651-.8193.7016.7016,0,0,1,.5459.1684,2.3281,2.3281,0,0,0,1.54.6157,1.7365,1.7365,0,0,0,.9517-.2661q.2519-.2094.2519-.3569a.3524.3524,0,0,0-.042-.2031.4581.4581,0,0,0-.1816-.168,3.0515,3.0515,0,0,0-1.12-.3916h-.0142a5.2166,5.2166,0,0,1-1.2949-.4063,2.1889,2.1889,0,0,1-.8892-.77,1.6645,1.6645,0,0,1-.2378-.8818,1.88,1.88,0,0,1,.8262-1.54,2.9859,2.9859,0,0,1,1.729-.518A3.7569,3.7569,0,0,1,155.6417,250.7251Z"/><path class="b" d="M159.5123,259.356a.7447.7447,0,0,1-.5459.2309.723.723,0,0,1-.5391-.2309.7341.7341,0,0,1-.2241-.5249v-8.1338a.7151.7151,0,0,1,.2173-.5254.707.707,0,0,1,.5181-.2168.823.823,0,0,1,.518.1679.648.648,0,0,1,.2588.4063,3.4239,3.4239,0,0,1,1.9038-.5742,3.1973,3.1973,0,0,1,2.3941,1.0361,3.4545,3.4545,0,0,1,.9941,2.478,3.3832,3.3832,0,0,1-.9941,2.4571,3.2289,3.2289,0,0,1-2.3941,1.0146,3.1272,3.1272,0,0,1-1.876-.5737v2.4639A.7223.7223,0,0,1,159.5123,259.356Zm3.4233-7.3008a1.7667,1.7667,0,0,0-1.33-.5742,1.7353,1.7353,0,0,0-1.3233.581,2.05,2.05,0,0,0-.5391,1.4492,1.7306,1.7306,0,0,0,.5464,1.3579,1.6957,1.6957,0,0,0,1.3086.5879,1.7605,1.7605,0,0,0,1.33-.5879,1.9651,1.9651,0,0,0,.5532-1.393A2.0792,2.0792,0,0,0,162.9356,252.0552Z"/><path class="b" d="M173.7432,253.2729a.6473.6473,0,0,1-.2031.4971.7589.7589,0,0,1-.539.189h-4.4517a1.6836,1.6836,0,0,0,.4756.9243,1.9707,1.9707,0,0,0,1.3091.6226,2.0512,2.0512,0,0,0,1.4912-.3428.7311.7311,0,0,1,.56-.2241.5836.5836,0,0,1,.49.1821.6263.6263,0,0,1,0,.91,3.4955,3.4955,0,0,1-2.4707.917,3.2915,3.2915,0,0,1-2.45-1.0293,3.5417,3.5417,0,0,1,0-4.935,3.1864,3.1864,0,0,1,2.3872-1.0288,3.2838,3.2838,0,0,1,2.3589.917,3.38,3.38,0,0,1,1.0429,2.331Zm-3.374-1.9877a1.9757,1.9757,0,0,0-1.3022.5039,1.828,1.828,0,0,0-.5879.98h3.9619a1.9082,1.9082,0,0,0-.6787-.9521A2.4315,2.4315,0,0,0,170.3692,251.2852Z"/><path class="b" d="M176.1861,255.9331a3.6722,3.6722,0,0,1,0-4.9492,3.1132,3.1132,0,0,1,2.3731-1.0288,3.1566,3.1566,0,0,1,1.8618.6162.8791.8791,0,0,1,.2661-.4414.7.7,0,0,1,.4829-.1748.68.68,0,0,1,.5039.2241.74.74,0,0,1,.2173.5317v5.502a.7171.7171,0,0,1-.2173.5254.6912.6912,0,0,1-.5039.2168.7165.7165,0,0,1-.4829-.168.836.836,0,0,1-.2661-.4341,3.1642,3.1642,0,0,1-1.8618.6021A3.1238,3.1238,0,0,1,176.1861,255.9331Zm.5391-2.4712a2.0591,2.0591,0,0,0,.5107,1.4214,1.6808,1.6808,0,0,0,1.3159.5737,1.723,1.723,0,0,0,1.33-.5737,2.0176,2.0176,0,0,0,.5254-1.4141,2.0541,2.0541,0,0,0-.5322-1.4282,1.7121,1.7121,0,0,0-1.3233-.5879,1.6778,1.6778,0,0,0-1.3086.5811A2.0662,2.0662,0,0,0,176.7252,253.4619Z"/><path class="b" d="M185.9581,256.731a.7661.7661,0,0,1-.5532.2241.7652.7652,0,0,1-.77-.77v-8.26a.7643.7643,0,0,1,.77-.77.7677.7677,0,0,1,.5532.2236.7331.7331,0,0,1,.231.5464v4.8437l2.87-2.87a.743.743,0,0,1,.5459-.2236.7685.7685,0,0,1,.5532.2236.7331.7331,0,0,1,.2309.5464.7218.7218,0,0,1-.2382.5459l-2.1,2.1,2.1562,2.59a.7231.7231,0,0,1,.084.833.6994.6994,0,0,1-.644.4409.7377.7377,0,0,1-.63-.28l-2.0581-2.4922-.77.77v1.232A.7315.7315,0,0,1,185.9581,256.731Z"/><path class="b" d="M139.5,270.0732a.6476.6476,0,0,1-.2031.4971.7593.7593,0,0,1-.5391.189h-4.4517a1.684,1.684,0,0,0,.4756.9243,1.9712,1.9712,0,0,0,1.3091.6226,2.0512,2.0512,0,0,0,1.4912-.3428.7314.7314,0,0,1,.56-.2241.5832.5832,0,0,1,.49.1821.6261.6261,0,0,1,0,.91,3.4955,3.4955,0,0,1-2.4707.917,3.2915,3.2915,0,0,1-2.45-1.0293,3.5417,3.5417,0,0,1,0-4.935,3.1861,3.1861,0,0,1,2.3872-1.0288,3.2836,3.2836,0,0,1,2.3589.917,3.38,3.38,0,0,1,1.043,2.331Zm-3.374-1.9878a1.9762,1.9762,0,0,0-1.3023.504,1.8292,1.8292,0,0,0-.5879.98h3.9619a1.907,1.907,0,0,0-.6787-.9521A2.4323,2.4323,0,0,0,136.1261,268.0854Z"/><path class="b" d="M143.2379,273.0132a.6872.6872,0,0,1-.2378.5254.78.78,0,0,1-.5391.2168.7072.7072,0,0,1-.518-.2168.7147.7147,0,0,1-.2173-.5254v-5.5156a.7488.7488,0,0,1,1.4282-.3081,2.7255,2.7255,0,0,1,1.4839-.4341,2.9276,2.9276,0,0,1,2.9263,2.9121v3.3457a.73.73,0,0,1-.21.5254.6854.6854,0,0,1-.5112.2168.73.73,0,0,1-.5249-.2168.7046.7046,0,0,1-.2242-.5254v-3.3457a1.3409,1.3409,0,0,0-.4267-1.001,1.4193,1.4193,0,0,0-1.022-.4131,1.3475,1.3475,0,0,0-1.001.4131,1.374,1.374,0,0,0-.4062,1.001Z"/><path class="b" d="M150.8258,272.7476a3.3936,3.3936,0,0,1-.98-2.4571,3.5127,3.5127,0,0,1,.98-2.4922,3.2584,3.2584,0,0,1,4.2563-.455.7276.7276,0,0,1,.2656-.42.773.773,0,0,1,.4971-.1679.6908.6908,0,0,1,.5039.2168.7151.7151,0,0,1,.2173.5254v5.4038a3.3692,3.3692,0,0,1-3.36,3.36,3.1345,3.1345,0,0,1-1.47-.35.6732.6732,0,0,1-.3779-.4267.74.74,0,0,1,.042-.5811.7228.7228,0,0,1,.4267-.3779.7848.7848,0,0,1,.5811.0278,1.917,1.917,0,0,0,.917.1963,1.6441,1.6441,0,0,0,1.064-.4272,1.8831,1.8831,0,0,0,.6513-1.0708,3.1539,3.1539,0,0,1-1.834.56A3.1178,3.1178,0,0,1,150.8258,272.7476Zm.5322-2.45a2.0348,2.0348,0,0,0,.5317,1.414,1.7973,1.7973,0,0,0,2.646.0142,2.02,2.02,0,0,0,.5323-1.4282,2.0817,2.0817,0,0,0-.5391-1.4493,1.7322,1.7322,0,0,0-2.625.0142A2.0811,2.0811,0,0,0,151.358,270.2974Z"/><path class="b" d="M159.6456,264.7256a.7643.7643,0,0,1,.77-.77.7684.7684,0,0,1,.5532.2236.7331.7331,0,0,1,.231.5464v8.26a.7311.7311,0,0,1-.231.5458.7665.7665,0,0,1-.5532.2242.7653.7653,0,0,1-.77-.77Z"/><path class="b" d="M164.56,264.7114v.294a.7553.7553,0,0,1-.2173.5459.7113.7113,0,0,1-.5318.2241.7341.7341,0,0,1-.539-.2241.7419.7419,0,0,1-.2242-.5459v-.294a.7276.7276,0,0,1,.2242-.5322.7356.7356,0,0,1,.539-.2236.7229.7229,0,0,1,.5318.2168A.733.733,0,0,1,164.56,264.7114Zm-1.295,2.2749a.778.778,0,0,1,1.0777,0,.7508.7508,0,0,1,.2173.5533V273a.7331.7331,0,0,1-.2173.5391.7233.7233,0,0,1-.5318.2168.7338.7338,0,0,1-.539-.2242.7257.7257,0,0,1-.2242-.5317v-5.46A.7489.7489,0,0,1,163.2647,266.9863Z"/><path class="b" d="M171.2935,267.5254a.72.72,0,0,1,.315.4687.7789.7789,0,0,1-.0908.5674.72.72,0,0,1-.4693.315.7091.7091,0,0,1-.5669-.1192,2.5483,2.5483,0,0,0-1.2949-.518,1.312,1.312,0,0,0-.833.2519q-.2241.1545-.2241.273a.3387.3387,0,0,0,.0351.1753.4658.4658,0,0,0,.147.1259,2.7442,2.7442,0,0,0,1.022.336l.0141.0141h.0137a5.9433,5.9433,0,0,1,1.3584.42,1.9713,1.9713,0,0,1,.91.77,1.8669,1.8669,0,0,1,.2939.9658,1.9405,1.9405,0,0,1-.8818,1.624,3.1311,3.1311,0,0,1-1.82.56,4.01,4.01,0,0,1-2.4922-.9658.7126.7126,0,0,1-.2588-.4971.7548.7548,0,0,1,.665-.8194.7019.7019,0,0,1,.5459.1685,2.3281,2.3281,0,0,0,1.54.6157,1.737,1.737,0,0,0,.9516-.2661q.252-.2094.252-.3569a.3532.3532,0,0,0-.042-.2031.4586.4586,0,0,0-.1817-.168,3.0508,3.0508,0,0,0-1.12-.3916h-.0141a5.2174,5.2174,0,0,1-1.295-.4063,2.1894,2.1894,0,0,1-.8891-.77,1.6645,1.6645,0,0,1-.2378-.8818,1.88,1.88,0,0,1,.8262-1.54,2.9857,2.9857,0,0,1,1.729-.518A3.7566,3.7566,0,0,1,171.2935,267.5254Z"/><path class="b" d="M175.1783,273.5312a.7767.7767,0,0,1-1.0918,0,.73.73,0,0,1-.2314-.5458v-8.26a.7643.7643,0,0,1,.77-.77.7677.7677,0,0,1,.5532.2236.7331.7331,0,0,1,.231.5464v2.4355a3.2038,3.2038,0,0,1,1.498-.4057,2.9272,2.9272,0,0,1,2.1558.9028,2.9619,2.9619,0,0,1,.896,2.1631v3.1641a.77.77,0,1,1-1.54,0v-3.1641a1.4415,1.4415,0,0,0-.4414-1.0571,1.507,1.507,0,0,0-1.0708-.4546,1.467,1.467,0,0,0-1.05.4546,1.505,1.505,0,0,0-.4482,1.0571v3.1641A.7311.7311,0,0,1,175.1783,273.5312Z"/><path class="b" d="M160.7087,284.8682a2.9645,2.9645,0,0,0-4.1922,0,2.9644,2.9644,0,0,0-4.1922,4.1923h0l4.1922,4.1923h0l4.1923-4.1923h0A2.9644,2.9644,0,0,0,160.7087,284.8682Z"/><line class="c" x1="188.5907" y1="147.448" x2="188.5907" y2="85.1196"/><path class="d" d="M181.2283,123.493a7.82,7.82,0,0,1,7.3624,4.2642,7.82,7.82,0,0,1-7.3624-4.2642Z"/><path class="d" d="M181.2283,104.3436a7.82,7.82,0,0,1,7.3624,4.2642,7.82,7.82,0,0,1-7.3624-4.2642Z"/><path class="d" d="M195.953,111.512a7.82,7.82,0,0,0-7.3623,4.2642,7.82,7.82,0,0,0,7.3623-4.2642Z"/><path class="d" d="M195.953,129.4881a7.82,7.82,0,0,0-7.3623,4.2643,7.82,7.82,0,0,0,7.3623-4.2643Z"/><line class="c" x1="188.5907" y1="115.6053" x2="198.1352" y2="100.5263"/><circle class="e" cx="188.569" cy="84.5208" r="2.6876"/><path class="f" d="M186.2986,81.29l-.8249-3.4474a2.2679,2.2679,0,0,1,2.2056-2.7957h1.7793a2.2679,2.2679,0,0,1,2.2057,2.7957l-.825,3.4474a1.8609,1.8609,0,0,1-1.81,1.4278h-.9209A1.861,1.861,0,0,1,186.2986,81.29Z"/><path class="f" d="M184.7677,85.5914l-3.5258-.3646a2.2679,2.2679,0,0,1-1.9064-3.0078l.59-1.6786a2.268,2.268,0,0,1,3.3689-1.1541l2.9788,1.9213a1.8609,1.8609,0,0,1,.7471,2.1808l-.3053.8689A1.8609,1.8609,0,0,1,184.7677,85.5914Z"/><path class="f" d="M188.3189,88.462l-1.513,3.2055a2.2679,2.2679,0,0,1-3.47.8014l-1.3881-1.113a2.2679,2.2679,0,0,1,.0281-3.561l2.8-2.1734a1.861,1.861,0,0,1,2.3053.0182l.7185.5761A1.8612,1.8612,0,0,1,188.3189,88.462Z"/><path class="f" d="M192.3072,85.7941l2.6976,2.2994a2.2679,2.2679,0,0,1-.135,3.5585L193.4322,92.7a2.2679,2.2679,0,0,1-3.4294-.96l-1.3645-3.2715a1.8611,1.8611,0,0,1,.6211-2.22l.7442-.5426A1.861,1.861,0,0,1,192.3072,85.7941Z"/><path class="f" d="M190.9605,81.3781l3.0353-1.8307a2.2679,2.2679,0,0,1,3.3326,1.2549l.5391,1.6956a2.2679,2.2679,0,0,1-1.996,2.9491l-3.5353.2583a1.861,1.861,0,0,1-1.9091-1.2921l-.279-.8777A1.8608,1.8608,0,0,1,190.9605,81.3781Z"/><polygon class="g" points="188.844 83.987 189.118 83.987 189.255 84.225 189.118 84.462 188.844 84.462 188.706 84.225 188.844 83.987"/><polygon class="g" points="188.089 83.987 188.363 83.987 188.5 84.225 188.363 84.462 188.089 84.462 187.952 84.225 188.089 83.987"/><polygon class="g" points="188.844 84.645 189.118 84.645 189.255 84.882 189.118 85.12 188.844 85.12 188.706 84.882 188.844 84.645"/><polygon class="g" points="188.089 84.645 188.363 84.645 188.5 84.882 188.363 85.12 188.089 85.12 187.952 84.882 188.089 84.645"/><path class="f" d="M201.0866,95.74a4.9918,4.9918,0,0,1-.399,3.9779c-.7719,1.16-1.0955,2.9541-3.13,1.65-1.8831-1.2068-.5854-2.3365.1222-3.5364A4.9919,4.9919,0,0,1,201.0866,95.74Z"/><line class="h" x1="121.8786" y1="145.3036" x2="121.8786" y2="58.7923"/><line class="h" x1="121.8786" y1="90.1599" x2="131.895" y2="74.5008"/><line class="h" x1="121.9912" y1="79.4299" x2="116.142" y2="70.2856"/><path class="i" d="M129.8542,83.2535a3.1419,3.1419,0,0,0-3.044-.8146,3.1433,3.1433,0,0,0,3.8586,3.8585A3.1571,3.1571,0,0,0,129.8542,83.2535Z"/><circle class="j" cx="134.8191" cy="73.3312" r="4.0894"/><circle class="j" cx="128.2118" cy="73.3312" r="4.0894"/><circle class="j" cx="132.8264" cy="69.2418" r="4.0894"/><circle class="j" cx="130.2045" cy="69.2418" r="4.0894"/><path class="i" d="M130.8077,72.7673a4.068,4.068,0,0,1,.7391-1.8435,3.8779,3.8779,0,0,1,.7476,1.8519,3.4692,3.4692,0,0,1,.0424.5182v.034a4.0426,4.0426,0,0,1-.79,2.4126,4.0932,4.0932,0,0,1-.7815-2.4126v-.034A3.5681,3.5681,0,0,1,130.8077,72.7673Z"/><path class="j" d="M128.737,68.3846a4.2222,4.2222,0,0,1,2.86,1.1243,4.2526,4.2526,0,1,1,0,6.2564,4.2467,4.2467,0,1,1-2.86-7.3807Z"/><path class="i" d="M131.602,75.79a4.0384,4.0384,0,0,0,3.2536,1.631,4.09,4.09,0,0,0,4.0862-4.0946,3.9337,3.9337,0,0,0-.2634-1.4187,3.41,3.41,0,0,1,.068.7221,4.2385,4.2385,0,0,1-7.11,3.1347C131.6275,75.7725,131.6105,75.781,131.602,75.79Z"/><path class="i" d="M131.5511,75.79a4.0386,4.0386,0,0,1-3.2537,1.631,4.09,4.09,0,0,1-4.0861-4.0946,3.9336,3.9336,0,0,1,.2633-1.4187,3.4162,3.4162,0,0,0-.0679.7221,4.2384,4.2384,0,0,0,7.11,3.1347C131.5255,75.7725,131.5426,75.781,131.5511,75.79Z"/><path class="i" d="M131.6332,75.8064a4.0387,4.0387,0,0,0,3.3584-1.4027,4.09,4.09,0,0,0-.4391-5.768,3.9346,3.9346,0,0,0-1.2472-.7256,3.4142,3.4142,0,0,1,.5917.4194,4.2385,4.2385,0,0,1-2.261,7.4345C131.6369,75.776,131.6323,75.7944,131.6332,75.8064Z"/><path class="i" d="M131.5509,75.8064a4.0385,4.0385,0,0,1-3.3583-1.4027,4.09,4.09,0,0,1,.439-5.768,3.9346,3.9346,0,0,1,1.2472-.7256,3.4142,3.4142,0,0,0-.5917.4194,4.2385,4.2385,0,0,0,2.261,7.4345C131.5472,75.776,131.5518,75.7944,131.5509,75.8064Z"/><line class="h" x1="121.8786" y1="115.6248" x2="131.895" y2="99.9657"/><path class="i" d="M129.8542,108.7184a3.1419,3.1419,0,0,0-3.044-.8146,3.1433,3.1433,0,0,0,3.8586,3.8585A3.1571,3.1571,0,0,0,129.8542,108.7184Z"/><circle class="j" cx="134.8191" cy="98.796" r="4.0894"/><circle class="j" cx="128.2118" cy="98.796" r="4.0894"/><circle class="j" cx="132.8264" cy="94.7067" r="4.0894"/><circle class="j" cx="130.2045" cy="94.7067" r="4.0894"/><path class="i" d="M130.8077,98.2321a4.0676,4.0676,0,0,1,.7391-1.8434,3.8779,3.8779,0,0,1,.7476,1.8519,3.4692,3.4692,0,0,1,.0424.5182v.034a4.0426,4.0426,0,0,1-.79,2.4126,4.0932,4.0932,0,0,1-.7815-2.4126v-.034A3.5705,3.5705,0,0,1,130.8077,98.2321Z"/><path class="j" d="M128.737,93.85a4.2226,4.2226,0,0,1,2.86,1.1242,4.2526,4.2526,0,1,1,0,6.2565,4.2467,4.2467,0,1,1-2.86-7.3807Z"/><path class="i" d="M131.602,101.2544a4.0384,4.0384,0,0,0,3.2536,1.631,4.09,4.09,0,0,0,4.0862-4.0946,3.9333,3.9333,0,0,0-.2634-1.4187,3.4091,3.4091,0,0,1,.068.7221,4.2385,4.2385,0,0,1-7.11,3.1347C131.6275,101.2374,131.6105,101.2459,131.602,101.2544Z"/><path class="i" d="M131.5511,101.2544a4.0386,4.0386,0,0,1-3.2537,1.631,4.09,4.09,0,0,1-4.0861-4.0946,3.9332,3.9332,0,0,1,.2633-1.4187,3.4156,3.4156,0,0,0-.0679.7221,4.2384,4.2384,0,0,0,7.11,3.1347C131.5255,101.2374,131.5426,101.2459,131.5511,101.2544Z"/><path class="i" d="M131.6332,101.2713a4.0387,4.0387,0,0,0,3.3584-1.4027,4.09,4.09,0,0,0-.4391-5.768,3.9327,3.9327,0,0,0-1.2472-.7256,3.4088,3.4088,0,0,1,.5917.4194,4.2385,4.2385,0,0,1-2.261,7.4345C131.6369,101.2408,131.6323,101.2593,131.6332,101.2713Z"/><path class="i" d="M131.5509,101.2713a4.0385,4.0385,0,0,1-3.3583-1.4027,4.09,4.09,0,0,1,.439-5.768,3.9327,3.9327,0,0,1,1.2472-.7256,3.4088,3.4088,0,0,0-.5917.4194,4.2385,4.2385,0,0,0,2.261,7.4345C131.5472,101.2408,131.5518,101.2593,131.5509,101.2713Z"/><line class="h" x1="121.8786" y1="105.1549" x2="111.8623" y2="89.4958"/><path class="i" d="M113.9031,98.2484a3.1423,3.1423,0,0,1,3.044-.8146,3.1433,3.1433,0,0,1-3.8586,3.8585A3.1571,3.1571,0,0,1,113.9031,98.2484Z"/><circle class="j" cx="108.9382" cy="88.3261" r="4.0894"/><circle class="j" cx="115.5455" cy="88.3261" r="4.0894"/><circle class="j" cx="110.9309" cy="84.2367" r="4.0894"/><circle class="j" cx="113.5528" cy="84.2367" r="4.0894"/><path class="i" d="M112.95,87.7622a4.0667,4.0667,0,0,0-.739-1.8435,3.8779,3.8779,0,0,0-.7476,1.8519,3.4584,3.4584,0,0,0-.0425.5183v.0339a4.0432,4.0432,0,0,0,.79,2.4127,4.0937,4.0937,0,0,0,.7815-2.4127v-.0339A3.5569,3.5569,0,0,0,112.95,87.7622Z"/><path class="j" d="M115.02,83.38a4.2226,4.2226,0,0,0-2.86,1.1243,4.2525,4.2525,0,1,0,0,6.2565,4.2467,4.2467,0,1,0,2.86-7.3808Z"/><path class="i" d="M112.1553,90.7844a4.0385,4.0385,0,0,1-3.2537,1.6311,4.09,4.09,0,0,1-4.0861-4.0947,3.9331,3.9331,0,0,1,.2634-1.4186,3.4088,3.4088,0,0,0-.068.722,4.2384,4.2384,0,0,0,7.11,3.1347C112.13,90.7674,112.1468,90.7759,112.1553,90.7844Z"/><path class="i" d="M112.2062,90.7844a4.0385,4.0385,0,0,0,3.2537,1.6311,4.09,4.09,0,0,0,4.0861-4.0947,3.931,3.931,0,0,0-.2634-1.4186,3.4088,3.4088,0,0,1,.068.722,4.2384,4.2384,0,0,1-7.11,3.1347C112.2317,90.7674,112.2147,90.7759,112.2062,90.7844Z"/><path class="i" d="M112.1241,90.8013a4.0384,4.0384,0,0,1-3.3584-1.4027,4.09,4.09,0,0,1,.4391-5.768,3.9335,3.9335,0,0,1,1.2472-.7256,3.41,3.41,0,0,0-.5917.4194,4.2384,4.2384,0,0,0,2.261,7.4345C112.12,90.7709,112.125,90.7893,112.1241,90.8013Z"/><path class="i" d="M112.2063,90.8013a4.0383,4.0383,0,0,0,3.3584-1.4027,4.09,4.09,0,0,0-.4391-5.768,3.9324,3.9324,0,0,0-1.2472-.7256,3.4066,3.4066,0,0,1,.5917.4194,4.2384,4.2384,0,0,1-2.2609,7.4345C112.21,90.7709,112.2054,90.7893,112.2063,90.8013Z"/><circle class="j" cx="125.1656" cy="57.0618" r="4.0894"/><circle class="j" cx="118.5583" cy="57.0618" r="4.0894"/><circle class="j" cx="123.1729" cy="52.9724" r="4.0894"/><circle class="j" cx="120.551" cy="52.9724" r="4.0894"/><path class="i" d="M121.1543,56.4978a4.0665,4.0665,0,0,1,.7391-1.8434,3.8788,3.8788,0,0,1,.7475,1.8519,3.4559,3.4559,0,0,1,.0425.5182v.034a4.0432,4.0432,0,0,1-.79,2.4126,4.0926,4.0926,0,0,1-.7816-2.4126v-.034A3.57,3.57,0,0,1,121.1543,56.4978Z"/><path class="j" d="M119.0836,52.1152a4.223,4.223,0,0,1,2.86,1.1242,4.2526,4.2526,0,1,1,0,6.2565,4.2467,4.2467,0,1,1-2.86-7.3807Z"/><path class="i" d="M121.9486,59.52a4.0384,4.0384,0,0,0,3.2536,1.631,4.09,4.09,0,0,0,4.0861-4.0946,3.9332,3.9332,0,0,0-.2633-1.4187,3.4156,3.4156,0,0,1,.0679.7221,4.2384,4.2384,0,0,1-7.11,3.1347C121.9741,59.5031,121.9571,59.5116,121.9486,59.52Z"/><path class="i" d="M121.8976,59.52a4.0384,4.0384,0,0,1-3.2536,1.631,4.09,4.09,0,0,1-4.0862-4.0946,3.9333,3.9333,0,0,1,.2634-1.4187,3.4091,3.4091,0,0,0-.068.7221,4.2385,4.2385,0,0,0,7.11,3.1347C121.8721,59.5031,121.8891,59.5116,121.8976,59.52Z"/><path class="i" d="M121.98,59.537a4.0386,4.0386,0,0,0,3.3584-1.4027,4.09,4.09,0,0,0-.4391-5.768,3.9306,3.9306,0,0,0-1.2472-.7256,3.4012,3.4012,0,0,1,.5917.4194,4.2384,4.2384,0,0,1-2.2609,7.4345C121.9835,59.5066,121.9788,59.525,121.98,59.537Z"/><path class="i" d="M121.8975,59.537a4.0386,4.0386,0,0,1-3.3584-1.4027,4.09,4.09,0,0,1,.4391-5.768,3.9316,3.9316,0,0,1,1.2472-.7256,3.4012,3.4012,0,0,0-.5917.4194,4.2384,4.2384,0,0,0,2.261,7.4345C121.8938,59.5066,121.8984,59.525,121.8975,59.537Z"/><path class="i" d="M112.1992,67.9339c1.0024,2.0725,2.9021,3.23,4.24,2.5824s1.6029-2.8512.6-4.9237a4.8213,4.8213,0,0,0-.2412-.44c.7612,1.925.4431,3.8623-.7958,4.4615s-2.9551-.3542-3.9992-2.1423A4.8208,4.8208,0,0,0,112.1992,67.9339Z"/><path class="j" d="M112.0039,67.4716c1.0441,1.7881,2.76,2.7415,3.9992,2.1423s1.557-2.5365.7958-4.4615c-1.04-1.7993-2.7564-2.7528-3.9953-2.1536S111.2391,65.5391,112.0039,67.4716Z"/><path class="j" d="M111.7591,67.0239q.1108.2294.2448.4477c1.0441,1.7881,2.76,2.7415,3.9992,2.1423s1.557-2.5365.7958-4.4615q-.0879-.24-.1989-.47c-1.0061-2.08-2.8982-3.241-4.2365-2.5937S110.753,64.9438,111.7591,67.0239Z"/><line class="c" x1="157.2727" y1="144.3004" x2="157.2727" y2="21.5096"/><path class="f" d="M174.3441,66.6158c.4066,1.5986.75,4.1253-.62,6.183-1.2,1.8024-1.7028,4.5917-4.8652,2.5651-2.9271-1.8757-.91-3.6316.19-5.4967C170.3042,67.738,172.728,66.9461,174.3441,66.6158Z"/><path class="d" d="M141.0368,111.2654a17.2451,17.2451,0,0,1,16.2359,9.4038,17.2456,17.2456,0,0,1-16.2359-9.4038Z"/><path class="d" d="M141.0368,69.0359A17.2451,17.2451,0,0,1,157.2727,78.44a17.2456,17.2456,0,0,1-16.2359-9.4038Z"/><path class="d" d="M173.5087,84.8442a17.2456,17.2456,0,0,0-16.236,9.4037,17.2453,17.2453,0,0,0,16.236-9.4037Z"/><line class="c" x1="157.2727" y1="93.871" x2="169.0636" y2="75.4379"/><path class="f" d="M145.2393,26.217c-.4066,1.5985-.7495,4.1252.62,6.1829,1.2,1.8024,1.7028,4.5917,4.8652,2.5652,2.9271-1.8758.91-3.6317-.19-5.4968C149.2792,27.3391,146.8554,26.5472,145.2393,26.217Z"/><line class="c" x1="157.4052" y1="45.8032" x2="150.5199" y2="35.039"/><rect class="k" x="83.5165" y="131.6341" width="146" height="93.3333"/><rect class="b" x="207.1832" y="157.8215" width="11.4167" height="15.3333"/><line class="l" x1="175.8499" y1="212.3333" x2="218.5999" y2="212.3333"/><line class="l" x1="175.8499" y1="197.8333" x2="218.5999" y2="197.8333"/><line class="l" x1="175.8499" y1="205.0833" x2="218.5999" y2="205.0833"/></svg>