<svg xmlns="http://www.w3.org/2000/svg" width="416.0272mm" height="61.1775mm" viewBox="0 0 1179.2898 173.4166"><defs><style>.\37 c0a56d7-ac04-4c5e-a06b-7d65b20a1b69{fill:#e2dd77;}.d1cc220f-8bcf-4dc2-9540-3bad2419c414{fill:#19a880;}.\36 a69c74a-bc25-4409-9302-b564385d28ef{fill:#d7ead8;}.\39 82df68a-55c5-45da-858d-fc75f8e72946{fill:#fad7d7;}.d9039c86-80c3-490a-9973-f2eb1501b005{fill:#fff;}.f7ea90c4-598f-4589-88d8-4d2685f8bf53{isolation:isolate;}.b408731f-c756-4518-a9d4-4ccb979c3985{fill:#335c72;}.\38 056c209-6f24-4cd8-831b-4dc322f27bb0{fill:#10669b;}.\35 00f8e71-22e7-4a59-9c4a-d6ebac96e508{fill:#2775a5;}.\36 d901297-5ce6-4ded-9686-850c2bfeb438{fill:none;stroke:#0c795c;stroke-miterlimit:10;}.\32 efb1e61-4409-41bc-8e57-433dc0cbe28f{fill:#0c795c;}</style></defs><title>Footer-39</title><g id="09382edc-9cdb-4b81-b83c-fee1cbbc713b" data-name="Dessin"><path class="7c0a56d7-ac04-4c5e-a06b-7d65b20a1b69" d="M871.8075,142.2958A907.2917,907.2917,0,0,0,1014.158,101.234,908.8746,908.8746,0,0,0,1194.1847,8.7877l2.0532,166.5918Z"/><path class="d1cc220f-8bcf-4dc2-9540-3bad2419c414" d="M1179.29,96.3082c-35.975,6.9082-84.2664,15.6331-141.5105,24.3672-156.949,23.947-276.5068,31.9929-303.6552,33.7395a3203.3611,3203.3611,0,0,1-376.69,1.8689v75.8623h805.9313l46.86,8.4919Z"/><path class="6a69c74a-bc25-4409-9302-b564385d28ef" d="M151.6931,123.4964c113.9758-21.2158,205.4863-20.1362,268.863-14.9641,88.3628,7.2112,145.2531,24.2722,274.9058,32.8428,61.6914,4.0781,112.5214,4.4268,146.13,4.0662L527.5991,175.38l-322.4138-6.9064Z"/><path class="982df68a-55c5-45da-858d-fc75f8e72946" d="M0,114.0167c44.1191.9575,90.9487,3.5286,140.1457,8.291,71.1048,6.8833,155.5325,22.9617,217.2881,33.9761,29.0013,5.1726,114.091,14.8606,159.4674,17.1328,35.5325,1.7793,12.0912,9.5407,31.7464,8.1814v13.4026H.015Z"/><path class="d1cc220f-8bcf-4dc2-9540-3bad2419c414" d="M-.0037,134.0375a332.0862,332.0862,0,0,1,46.6946,13.4309c12.8181,4.7446,14.6272,6.35,23.7984,8.913,18.5732,5.191,28.6709,3.5027,46.6782,5.066,24.1689,2.0979,50.1338,8.9719,49.935,11.9692-.2273,3.4258-34.8879,5.657-171.5156,1.9629"/><path class="d9039c86-80c3-490a-9973-f2eb1501b005" d="M.01,114.0166v59.4H-264v-516.04c15.22.14,28.35,1.28,38.69,1.88,53.35,3.11,128.23-2.5,225.31-39.57v494.33Z"/><path class="982df68a-55c5-45da-858d-fc75f8e72946" d="M.01,114.0166v59.4H-264v-93.87c92.88,34.14,164.88,39.33,216.63,36.31,12.26-.71,28.43-2.18,47.37-1.84Z"/><path class="d1cc220f-8bcf-4dc2-9540-3bad2419c414" d="M.01,134.0375V175.38H-245.0973c17.2722-4.2333,39.09-10.5831,60.7851-15.9154,45.1138-11.0851,61.07-19.7552,88.07-25.4537,22.9436-4.83,54.9914-7.7474,96.2383.0271Z"/><g class="f7ea90c4-598f-4589-88d8-4d2685f8bf53"><polygon class="d9039c86-80c3-490a-9973-f2eb1501b005" points="1065.417 113.368 1074.565 118.779 1074.543 130.62 1056.225 133.195 1056.247 121.353 1065.417 113.368"/><polygon class="d9039c86-80c3-490a-9973-f2eb1501b005" points="1056.225 133.195 1047.448 128.42 1047.47 116.579 1056.247 121.353 1056.225 133.195"/><polygon class="b408731f-c756-4518-a9d4-4ccb979c3985" points="1056.247 121.353 1047.47 116.579 1056.64 108.593 1065.417 113.368 1056.247 121.353"/></g><polygon class="8056c209-6f24-4cd8-831b-4dc322f27bb0" points="1054.96 132.514 1053.451 131.694 1053.451 125.224 1054.96 126.044 1054.96 132.514"/><polygon class="8056c209-6f24-4cd8-831b-4dc322f27bb0" points="1050.721 123.447 1049.213 122.627 1049.213 119.259 1050.721 120.079 1050.721 123.447"/><polygon class="8056c209-6f24-4cd8-831b-4dc322f27bb0" points="1068.755 123.317 1071.563 122.927 1071.563 126.457 1068.755 126.846 1068.755 123.317"/><g class="f7ea90c4-598f-4589-88d8-4d2685f8bf53"><polygon class="d9039c86-80c3-490a-9973-f2eb1501b005" points="433.038 108.86 442.187 114.271 442.165 126.112 423.846 128.687 423.868 116.845 433.038 108.86"/><polygon class="d9039c86-80c3-490a-9973-f2eb1501b005" points="423.846 128.687 415.07 123.912 415.092 112.071 423.868 116.845 423.846 128.687"/><polygon class="b408731f-c756-4518-a9d4-4ccb979c3985" points="423.868 116.845 415.092 112.071 424.262 104.086 433.038 108.86 423.868 116.845"/></g><polygon class="8056c209-6f24-4cd8-831b-4dc322f27bb0" points="420.223 122.473 418.715 121.653 418.715 118.284 420.223 119.105 420.223 122.473"/><polygon class="8056c209-6f24-4cd8-831b-4dc322f27bb0" points="431.137 119.146 433.944 118.756 433.944 122.286 431.137 122.675 431.137 119.146"/><g class="f7ea90c4-598f-4589-88d8-4d2685f8bf53"><polygon class="d9039c86-80c3-490a-9973-f2eb1501b005" points="494.785 132.856 503.934 138.267 503.912 150.109 485.593 152.683 485.615 140.842 494.785 132.856"/><polygon class="d9039c86-80c3-490a-9973-f2eb1501b005" points="485.593 152.683 476.817 147.909 476.839 136.067 485.615 140.842 485.593 152.683"/><polygon class="b408731f-c756-4518-a9d4-4ccb979c3985" points="485.615 140.842 476.839 136.067 486.009 128.082 494.785 132.856 485.615 140.842"/></g><polygon class="8056c209-6f24-4cd8-831b-4dc322f27bb0" points="498.124 142.805 500.931 142.416 500.931 145.945 498.124 146.335 498.124 142.805"/><g class="f7ea90c4-598f-4589-88d8-4d2685f8bf53"><polygon class="d9039c86-80c3-490a-9973-f2eb1501b005" points="322.733 116.835 331.882 122.246 331.86 134.087 313.541 136.662 313.563 124.82 322.733 116.835"/><polygon class="d9039c86-80c3-490a-9973-f2eb1501b005" points="313.541 136.662 304.765 131.887 304.787 120.046 313.563 124.82 313.541 136.662"/><polygon class="b408731f-c756-4518-a9d4-4ccb979c3985" points="313.563 124.82 304.787 120.046 313.957 112.06 322.733 116.835 313.563 124.82"/></g><polygon class="8056c209-6f24-4cd8-831b-4dc322f27bb0" points="312.276 135.981 310.768 135.161 310.768 128.691 312.276 129.511 312.276 135.981"/><polygon class="8056c209-6f24-4cd8-831b-4dc322f27bb0" points="308.037 126.914 306.529 126.094 306.529 122.726 308.037 123.546 308.037 126.914"/><polygon class="8056c209-6f24-4cd8-831b-4dc322f27bb0" points="326.072 126.784 328.879 126.394 328.879 129.924 326.072 130.313 326.072 126.784"/><g class="f7ea90c4-598f-4589-88d8-4d2685f8bf53"><polygon class="d9039c86-80c3-490a-9973-f2eb1501b005" points="31.673 135.992 42.376 142.323 42.351 156.177 20.918 159.189 20.944 145.335 31.673 135.992"/><polygon class="d9039c86-80c3-490a-9973-f2eb1501b005" points="20.918 159.189 10.65 153.604 10.676 139.749 20.944 145.335 20.918 159.189"/><polygon class="b408731f-c756-4518-a9d4-4ccb979c3985" points="20.944 145.335 10.676 139.749 21.404 130.406 31.673 135.992 20.944 145.335"/></g><polygon class="8056c209-6f24-4cd8-831b-4dc322f27bb0" points="19.438 158.394 17.673 157.434 17.673 149.863 19.438 150.823 19.438 158.394"/><polygon class="8056c209-6f24-4cd8-831b-4dc322f27bb0" points="14.479 147.785 12.714 146.825 12.714 142.885 14.479 143.844 14.479 147.785"/><polygon class="8056c209-6f24-4cd8-831b-4dc322f27bb0" points="35.579 147.632 38.864 147.177 38.864 151.306 35.579 151.762 35.579 147.632"/><polygon class="d9039c86-80c3-490a-9973-f2eb1501b005" points="1152.462 62.579 1152.326 135.871 1123.99 139.854 1124.126 66.561 1152.462 62.579"/><polygon class="b408731f-c756-4518-a9d4-4ccb979c3985" points="1124.126 66.561 1113.857 60.975 1142.193 56.993 1152.462 62.579 1124.126 66.561"/><polygon class="d9039c86-80c3-490a-9973-f2eb1501b005" points="1162.366 78.029 1162.248 141.128 1133.913 145.11 1134.03 82.011 1162.366 78.029"/><polygon class="d9039c86-80c3-490a-9973-f2eb1501b005" points="1134.03 82.011 1124.107 76.613 1124.126 66.561 1113.857 60.975 1113.721 134.268 1123.99 139.854 1123.99 139.713 1133.913 145.11 1134.03 82.011"/><polygon class="b408731f-c756-4518-a9d4-4ccb979c3985" points="1134.03 82.011 1123.761 76.425 1152.097 72.443 1162.366 78.029 1134.03 82.011"/><polygon class="500f8e71-22e7-4a59-9c4a-d6ebac96e508" points="1117.428 73.557 1115.664 72.597 1115.664 65.026 1117.428 65.986 1117.428 73.557"/><polygon class="500f8e71-22e7-4a59-9c4a-d6ebac96e508" points="1120.516 75.091 1118.751 74.132 1118.751 66.561 1120.516 67.521 1120.516 75.091"/><polygon class="500f8e71-22e7-4a59-9c4a-d6ebac96e508" points="1127.055 103.008 1125.29 102.048 1125.29 94.478 1127.055 95.438 1127.055 103.008"/><polygon class="500f8e71-22e7-4a59-9c4a-d6ebac96e508" points="1127.055 117.964 1125.29 117.004 1125.29 109.434 1127.055 110.393 1127.055 117.964"/><polygon class="500f8e71-22e7-4a59-9c4a-d6ebac96e508" points="1120.516 130.456 1118.751 129.496 1118.751 121.926 1120.516 122.886 1120.516 130.456"/><polygon class="500f8e71-22e7-4a59-9c4a-d6ebac96e508" points="1120.516 90.541 1118.751 89.581 1118.751 82.011 1120.516 82.971 1120.516 90.541"/><polygon class="500f8e71-22e7-4a59-9c4a-d6ebac96e508" points="1120.516 114.756 1118.751 113.796 1118.751 106.226 1120.516 107.186 1120.516 114.756"/><polygon class="500f8e71-22e7-4a59-9c4a-d6ebac96e508" points="1138.226 86.351 1141.511 85.895 1141.511 93.456 1138.226 93.912 1138.226 86.351"/><polygon class="500f8e71-22e7-4a59-9c4a-d6ebac96e508" points="1129.065 68.157 1132.35 67.701 1132.35 75.262 1129.065 75.718 1129.065 68.157"/><polygon class="500f8e71-22e7-4a59-9c4a-d6ebac96e508" points="1138.226 112.833 1141.511 112.378 1141.511 119.939 1138.226 120.394 1138.226 112.833"/><polygon class="500f8e71-22e7-4a59-9c4a-d6ebac96e508" points="1155.622 96.024 1158.907 95.568 1158.907 103.129 1155.622 103.585 1155.622 96.024"/><polygon class="500f8e71-22e7-4a59-9c4a-d6ebac96e508" points="1138.226 127.983 1141.511 127.527 1141.511 135.088 1138.226 135.544 1138.226 127.983"/><g class="f7ea90c4-598f-4589-88d8-4d2685f8bf53"><polygon class="d9039c86-80c3-490a-9973-f2eb1501b005" points="588.787 144.772 588.751 157.399 579.14 151.85 579.176 139.223 588.787 144.772"/><polygon class="d9039c86-80c3-490a-9973-f2eb1501b005" points="588.787 144.772 595.588 140.82 595.552 153.446 588.751 157.399 588.787 144.772"/><polygon class="b408731f-c756-4518-a9d4-4ccb979c3985" points="579.176 139.223 585.977 135.271 595.588 140.82 588.787 144.772 579.176 139.223"/></g><polygon class="8056c209-6f24-4cd8-831b-4dc322f27bb0" points="582.753 144.688 582.746 151.056 580.89 149.985 580.897 143.616 582.753 144.688"/><g class="f7ea90c4-598f-4589-88d8-4d2685f8bf53"><polygon class="d9039c86-80c3-490a-9973-f2eb1501b005" points="1099.289 149.494 1099.253 162.12 1089.642 156.571 1089.678 143.945 1099.289 149.494"/><polygon class="d9039c86-80c3-490a-9973-f2eb1501b005" points="1099.289 149.494 1106.09 145.541 1106.054 158.168 1099.253 162.12 1099.289 149.494"/><polygon class="b408731f-c756-4518-a9d4-4ccb979c3985" points="1089.678 143.945 1096.479 139.992 1106.09 145.541 1099.289 149.494 1089.678 143.945"/></g><polygon class="8056c209-6f24-4cd8-831b-4dc322f27bb0" points="1093.255 149.409 1093.248 155.778 1091.392 154.707 1091.399 148.338 1093.255 149.409"/><line class="6d901297-5ce6-4ded-9686-850c2bfeb438" x1="548.6476" y1="124.3403" x2="548.6476" y2="139.0521"/><polygon class="2efb1e61-4409-41bc-8e57-433dc0cbe28f" points="548.648 116.801 551.781 113.33 551.542 118 556.211 117.761 552.741 120.894 556.211 124.027 551.542 123.789 551.781 128.458 548.648 124.988 545.515 128.458 545.753 123.789 541.084 124.027 544.554 120.894 541.084 117.761 545.753 118 545.515 113.33 548.648 116.801"/><line class="6d901297-5ce6-4ded-9686-850c2bfeb438" x1="373.4758" y1="122.4894" x2="373.4758" y2="137.2011"/><polygon class="2efb1e61-4409-41bc-8e57-433dc0cbe28f" points="373.476 114.95 376.609 111.479 376.37 116.149 381.039 115.91 377.569 119.043 381.039 122.176 376.37 121.938 376.609 126.607 373.476 123.137 370.343 126.607 370.581 121.938 365.912 122.176 369.382 119.043 365.912 115.91 370.581 116.149 370.343 111.479 373.476 114.95"/></g><g id="451f80d5-2d9a-4476-a376-915493c3d134" data-name="Texte"><path class="d9039c86-80c3-490a-9973-f2eb1501b005" d="M917.1152,154.2647a4.3321,4.3321,0,0,1-7.416-3.0419v-.0245a4.3443,4.3443,0,1,1,8.6885-.0234v.0234A4.1943,4.1943,0,0,1,917.1152,154.2647Zm-5.8437-.288a3.9338,3.9338,0,0,0,5.5381-.0118,3.8122,3.8122,0,0,0,1.122-2.7666v-.0234a3.7791,3.7791,0,0,0-1.1162-2.7539,3.9314,3.9314,0,0,0-5.5381.0117,3.8086,3.8086,0,0,0-1.122,2.7656v.0245A3.7793,3.7793,0,0,0,911.2715,153.9767Zm4.5-1.1221a2.5132,2.5132,0,0,1-1.6983.6357,2.1867,2.1867,0,0,1-1.6259-.6718,2.27,2.27,0,0,1-.66-1.6563v-.0234a2.31,2.31,0,0,1,.66-1.668,2.1687,2.1687,0,0,1,1.6259-.6846,2.4616,2.4616,0,0,1,1.6016.5166.4.4,0,0,1,.1924.3418.4546.4546,0,0,1-.126.336.39.39,0,0,1-.2822.1259.5091.5091,0,0,1-.3115-.12,1.6955,1.6955,0,0,0-1.0625-.3838,1.2819,1.2819,0,0,0-.9776.4444,1.5346,1.5346,0,0,0-.4082,1.0791v.0244a1.5429,1.5429,0,0,0,.4082,1.0742,1.3058,1.3058,0,0,0,1.0078.45,1.6585,1.6585,0,0,0,1.1035-.4326.4443.4443,0,0,1,.2823-.1074.3839.3839,0,0,1,.2763.1259.4158.4158,0,0,1,.126.3057A.3538.3538,0,0,1,915.7715,152.8546Z"/><path class="d9039c86-80c3-490a-9973-f2eb1501b005" d="M924.375,155.3985l-.12-.0117a.7132.7132,0,0,1-.3721-.2285.5887.5887,0,0,1-.1435-.3955V150.047a.63.63,0,0,1,.1855-.4629.6169.6169,0,0,1,.45-.1856.5749.5749,0,0,1,.5762.36,2.4909,2.4909,0,0,1,1.2832-.36,2.4016,2.4016,0,0,1,1.8847.8282,2.2762,2.2762,0,0,1,1.8116-.8282,2.4789,2.4789,0,0,1,1.8359.7383,2.4372,2.4372,0,0,1,.7324,1.7813v2.8447a.635.635,0,0,1-.6357.6357.6315.6315,0,0,1-.4561-.1855.6013.6013,0,0,1-.1924-.45v-2.8447a1.1925,1.1925,0,0,0-.36-.876,1.1711,1.1711,0,0,0-.8574-.3594,1.1946,1.1946,0,0,0-.8584.3477,1.2241,1.2241,0,0,0-.3838.8525v2.88a.6142.6142,0,0,1-.1865.45.6046.6046,0,0,1-.4434.1855.633.633,0,0,1-.4561-.1923.6007.6007,0,0,1-.1982-.4434v-2.88a1.24,1.24,0,0,0-1.2295-1.2,1.1748,1.1748,0,0,0-.8584.3594,1.1925,1.1925,0,0,0-.36.876v2.8447l-.0118.084v.0361l-.0361.0713v.0605A.6315.6315,0,0,1,924.375,155.3985Z"/><path class="d9039c86-80c3-490a-9973-f2eb1501b005" d="M940.5508,152.2423a.5518.5518,0,0,1-.1738.4258.6506.6506,0,0,1-.462.1621h-3.8164a1.44,1.44,0,0,0,.4082.792,1.6829,1.6829,0,0,0,1.1221.5342,1.7588,1.7588,0,0,0,1.2783-.294.6254.6254,0,0,1,.48-.1914.5.5,0,0,1,.42.1553.5358.5358,0,0,1,0,.78,2.9961,2.9961,0,0,1-2.1181.7862,2.8208,2.8208,0,0,1-2.1-.8819,3.0352,3.0352,0,0,1,0-4.23,2.7321,2.7321,0,0,1,2.0459-.8819,2.8153,2.8153,0,0,1,2.0224.7862,2.8958,2.8958,0,0,1,.8936,1.998Zm-2.8916-1.7041a1.6953,1.6953,0,0,0-1.1162.4326,1.5607,1.5607,0,0,0-.5039.84h3.3955a1.6315,1.6315,0,0,0-.5821-.8164A2.08,2.08,0,0,0,937.6592,150.5382Zm1.4873-2.3037a1.1153,1.1153,0,0,1-.7793.3242q-.4321,0-.4326-.252a.4885.4885,0,0,1,.0966-.2646l.6836-1.0557a.6344.6344,0,0,1,.5459-.3476,1.29,1.29,0,0,1,.6123.1494c.1875.1006.2823.208.2823.3242a.4965.4965,0,0,1-.2041.3545Z"/><path class="d9039c86-80c3-490a-9973-f2eb1501b005" d="M944.4863,149.3985a.6594.6594,0,0,1,.4746.1924.619.619,0,0,1,.1973.4619.6393.6393,0,0,1-.1973.4678.6494.6494,0,0,1-.4746.1983h-.3v3.3476a.6281.6281,0,0,1,.4678.1982.6575.6575,0,0,1,.1924.4737.6568.6568,0,0,1-.66.66,1.33,1.33,0,0,1-1.332-1.332v-3.3476h-.3477a.66.66,0,1,1,0-1.32h.3477v-1.74a.6283.6283,0,0,1,.1982-.4678.6575.6575,0,0,1,.4737-.1924.6569.6569,0,0,1,.66.66v1.74Z"/><path class="d9039c86-80c3-490a-9973-f2eb1501b005" d="M948.5664,147.6466v.2519a.6454.6454,0,0,1-.1855.4678.6119.6119,0,0,1-.4561.1924.6569.6569,0,0,1-.6543-.66v-.2519a.6243.6243,0,0,1,.1924-.4561.6307.6307,0,0,1,.4619-.1924.6355.6355,0,0,1,.6416.6485Zm-1.1094,1.95a.6654.6654,0,0,1,.9239,0,.6417.6417,0,0,1,.1855.4736v4.68a.6279.6279,0,0,1-.1855.4629.62.62,0,0,1-.4561.1855.6568.6568,0,0,1-.6543-.6484v-4.68A.6424.6424,0,0,1,947.457,149.5968Z"/><path class="d9039c86-80c3-490a-9973-f2eb1501b005" d="M954.3389,150.0587a.6166.6166,0,0,1,.2695.4014.6662.6662,0,0,1-.0781.4863.63.63,0,0,1-.8877.168,2.1842,2.1842,0,0,0-1.11-.4434,1.12,1.12,0,0,0-.7138.2158c-.128.0879-.1924.166-.1924.2334a.2969.2969,0,0,0,.03.15.41.41,0,0,0,.126.1084,2.36,2.36,0,0,0,.876.2871l.0117.0127h.0127a5.1369,5.1369,0,0,1,1.1641.3594,1.695,1.695,0,0,1,.7793.66,1.6061,1.6061,0,0,1,.2519.8282,1.6611,1.6611,0,0,1-.7558,1.3916,2.6808,2.6808,0,0,1-1.56.48,3.4346,3.4346,0,0,1-2.1357-.8281.6135.6135,0,0,1-.2227-.4258.5756.5756,0,0,1,.1387-.4619.5661.5661,0,0,1,.4316-.24.602.602,0,0,1,.4678.1445,2,2,0,0,0,1.32.5274,1.4942,1.4942,0,0,0,.8154-.2276c.1446-.12.2168-.2226.2168-.3066a.309.309,0,0,0-.0361-.1738.3959.3959,0,0,0-.1563-.1436,2.6094,2.6094,0,0,0-.96-.3359h-.0117a4.4572,4.4572,0,0,1-1.11-.3487,1.8628,1.8628,0,0,1-.7617-.66,1.42,1.42,0,0,1-.2041-.7559,1.608,1.608,0,0,1,.708-1.3193,2.5583,2.5583,0,0,1,1.4814-.4444A3.22,3.22,0,0,1,954.3389,150.0587Z"/><path class="d9039c86-80c3-490a-9973-f2eb1501b005" d="M963.8428,150.0587a.6166.6166,0,0,1,.2695.4014.6662.6662,0,0,1-.0781.4863.63.63,0,0,1-.8877.168,2.1842,2.1842,0,0,0-1.11-.4434,1.12,1.12,0,0,0-.7138.2158c-.128.0879-.1924.166-.1924.2334a.2957.2957,0,0,0,.03.15.4091.4091,0,0,0,.1259.1084,2.36,2.36,0,0,0,.876.2871l.0117.0127h.0127a5.1369,5.1369,0,0,1,1.1641.3594,1.695,1.695,0,0,1,.7793.66,1.6061,1.6061,0,0,1,.2519.8282,1.6611,1.6611,0,0,1-.7558,1.3916,2.6808,2.6808,0,0,1-1.56.48,3.4346,3.4346,0,0,1-2.1357-.8281.6135.6135,0,0,1-.2227-.4258.5756.5756,0,0,1,.1387-.4619.5661.5661,0,0,1,.4316-.24.602.602,0,0,1,.4678.1445,2,2,0,0,0,1.32.5274,1.4942,1.4942,0,0,0,.8154-.2276c.1446-.12.2168-.2226.2168-.3066a.309.309,0,0,0-.0361-.1738.3959.3959,0,0,0-.1563-.1436,2.6094,2.6094,0,0,0-.96-.3359h-.0117a4.4572,4.4572,0,0,1-1.11-.3487,1.8628,1.8628,0,0,1-.7617-.66,1.42,1.42,0,0,1-.2041-.7559,1.608,1.608,0,0,1,.708-1.3193,2.5583,2.5583,0,0,1,1.4814-.4444A3.22,3.22,0,0,1,963.8428,150.0587Z"/><path class="d9039c86-80c3-490a-9973-f2eb1501b005" d="M968.0664,149.3985a.6571.6571,0,0,1,.4736.1924.62.62,0,0,1,.1983.4619.64.64,0,0,1-.1983.4678.6472.6472,0,0,1-.4736.1983h-.3v3.3476a.6283.6283,0,0,1,.4678.1982.6566.6566,0,0,1,.1914.4737.6551.6551,0,0,1-.6592.66,1.33,1.33,0,0,1-1.332-1.332v-3.3476h-.3487a.66.66,0,1,1,0-1.32h.3487v-1.74a.6274.6274,0,0,1,.1972-.4678.6581.6581,0,0,1,.4746-.1924.6569.6569,0,0,1,.66.66v1.74Z"/><path class="d9039c86-80c3-490a-9973-f2eb1501b005" d="M975.7461,152.9024a2.3822,2.3822,0,0,1-.75,1.7579,2.4467,2.4467,0,0,1-1.7764.7382,2.4163,2.4163,0,0,1-1.7636-.7324,2.3915,2.3915,0,0,1-.7383-1.7637v-2.8681a.6183.6183,0,0,1,.1865-.4434.6217.6217,0,0,1,.8994,0,.6183.6183,0,0,1,.1865.4434v2.8681a1.2073,1.2073,0,0,0,1.2237,1.2237,1.2214,1.2214,0,0,0,.8818-.3535,1.2047,1.2047,0,0,0,.3779-.87v-2.8681a.6286.6286,0,0,1,.1807-.4434.5763.5763,0,0,1,.4375-.1924.6368.6368,0,0,1,.456.1924.6.6,0,0,1,.1983.4434Z"/><path class="d9039c86-80c3-490a-9973-f2eb1501b005" d="M983.63,154.75a.6227.6227,0,0,1-.1924.4561.605.605,0,0,1-.4434.1923.6251.6251,0,0,1-.4257-.15.6616.6616,0,0,1-.2227-.3652,2.84,2.84,0,0,1-1.6318.5156,2.7646,2.7646,0,0,1-2.0645-.8818,3.0528,3.0528,0,0,1,0-4.23,2.8337,2.8337,0,0,1,3.6729-.3838v-2.2558a.6229.6229,0,0,1,.1914-.4561.6506.6506,0,0,1,.9238,0,.6243.6243,0,0,1,.1924.4561Zm-2.916-.6592a1.511,1.511,0,0,0,1.1338-.498,1.6637,1.6637,0,0,0,.4746-1.1885,1.6967,1.6967,0,0,0-.4688-1.1943,1.5407,1.5407,0,0,0-2.2793,0,1.6966,1.6966,0,0,0-.4687,1.1943,1.6637,1.6637,0,0,0,.4746,1.1885A1.5091,1.5091,0,0,0,980.7139,154.0909Z"/><path class="d9039c86-80c3-490a-9973-f2eb1501b005" d="M987.4219,147.6466v.2519a.6459.6459,0,0,1-.1866.4678.6093.6093,0,0,1-.455.1924.6552.6552,0,0,1-.6543-.66v-.2519a.6233.6233,0,0,1,.1914-.4561.6313.6313,0,0,1,.4629-.1924.6184.6184,0,0,1,.455.1866A.6278.6278,0,0,1,987.4219,147.6466Zm-1.11,1.95a.6652.6652,0,0,1,.9238,0,.6421.6421,0,0,1,.1866.4736v4.68a.6285.6285,0,0,1-.1866.4629.6178.6178,0,0,1-.455.1855.6551.6551,0,0,1-.6543-.6484v-4.68A.6417.6417,0,0,1,986.3115,149.5968Z"/><path class="d9039c86-80c3-490a-9973-f2eb1501b005" d="M992.1016,155.4347a2.7166,2.7166,0,0,1-2.0518-.8877,3.1067,3.1067,0,0,1,.0059-4.2549,2.7024,2.7024,0,0,1,2.0341-.8936,2.6483,2.6483,0,0,1,2.0225.9063,3.0731,3.0731,0,0,1,.834,2.1533,2.754,2.754,0,0,1-.8408,2.0645A2.5365,2.5365,0,0,1,992.1016,155.4347Zm-1.1514-4.2725a1.8505,1.8505,0,0,0-.4326,1.2481,1.9461,1.9461,0,0,0,.4326,1.2724,1.6564,1.6564,0,0,0,2.2559,0,1.8553,1.8553,0,0,0,.4677-1.2724,1.7665,1.7665,0,0,0-.4677-1.2481,1.623,1.623,0,0,0-2.2559,0Z"/><path class="d9039c86-80c3-490a-9973-f2eb1501b005" d="M1000.97,152.4347a.7139.7139,0,0,1,0-1.4278h2.2559a.6785.6785,0,0,1,.498.21.7139.7139,0,0,1-.498,1.2178Z"/><path class="d9039c86-80c3-490a-9973-f2eb1501b005" d="M1013.5088,154.0665a.63.63,0,0,1,.4687.1982.66.66,0,0,1,.1914.4737.6551.6551,0,0,1-.66.66h-4.2715a.6334.6334,0,0,1-.498-.21.6678.6678,0,0,1,.0419-.9424l3.5518-3.2158a1.4346,1.4346,0,0,0,.5039-1.1035,1.62,1.62,0,0,0-.4258-1.1221,1.3761,1.3761,0,0,0-1.0683-.4746,1.6187,1.6187,0,0,0-1.0977.3965l-.3721.3359a.6076.6076,0,0,1-.4736.1738.6747.6747,0,0,1-.4619-.2217.6685.6685,0,0,1,.0478-.9365l.3721-.3359a2.8086,2.8086,0,0,1,2.0039-.7442,2.6751,2.6751,0,0,1,2.0635.9483,2.8117,2.8117,0,0,1,.7441,2.0039,2.6766,2.6766,0,0,1-.9482,2.0644l-2.2676,2.0518Z"/><path class="d9039c86-80c3-490a-9973-f2eb1501b005" d="M1015.8252,151.1983a5.1093,5.1093,0,0,1,.8164-2.8681,2.5969,2.5969,0,0,1,2.2314-1.3321,2.281,2.281,0,0,1,1.2481.3663,3.2476,3.2476,0,0,1,.9717.9658,5.5137,5.5137,0,0,1,0,5.7363,3.2106,3.2106,0,0,1-.9776.9658,2.2924,2.2924,0,0,1-1.2422.3662,2.6179,2.6179,0,0,1-2.2314-1.332A5.1049,5.1049,0,0,1,1015.8252,151.1983Zm4.1641,2.1241a3.7368,3.7368,0,0,0,.5761-2.1182,3.8518,3.8518,0,0,0-.5761-2.1416,1.3442,1.3442,0,0,0-1.1163-.7324,1.3966,1.3966,0,0,0-1.14.7324,3.851,3.851,0,0,0-.5762,2.1416,3.736,3.736,0,0,0,.5762,2.1182,1.4234,1.4234,0,0,0,1.1338.7441A1.3959,1.3959,0,0,0,1019.9893,153.3224Z"/><path class="d9039c86-80c3-490a-9973-f2eb1501b005" d="M1029.1094,154.0665a.6279.6279,0,0,1,.4677.1982.6571.6571,0,0,1,.1924.4737.6568.6568,0,0,1-.66.66h-4.2725a.6334.6334,0,0,1-.498-.21.6676.6676,0,0,1,.042-.9424l3.5527-3.2158a1.4346,1.4346,0,0,0,.5039-1.1035,1.6208,1.6208,0,0,0-.4268-1.1221,1.3728,1.3728,0,0,0-1.0673-.4746,1.6213,1.6213,0,0,0-1.0987.3965l-.3711.3359a.611.611,0,0,1-.4746.1738.6767.6767,0,0,1-.4619-.2217.6684.6684,0,0,1,.0479-.9365l.372-.3359a2.8118,2.8118,0,0,1,2.0039-.7442,2.6771,2.6771,0,0,1,2.0645.9483,2.8117,2.8117,0,0,1,.7441,2.0039,2.6766,2.6766,0,0,1-.9482,2.0644l-2.2686,2.0518Z"/><path class="d9039c86-80c3-490a-9973-f2eb1501b005" d="M1036.19,154.0665a.6281.6281,0,0,1,.4677.1982.6571.6571,0,0,1,.1924.4737.6568.6568,0,0,1-.66.66h-4.2725a.6337.6337,0,0,1-.4981-.21.6679.6679,0,0,1,.042-.9424l3.5528-3.2158a1.4346,1.4346,0,0,0,.5039-1.1035,1.6208,1.6208,0,0,0-.4268-1.1221,1.3728,1.3728,0,0,0-1.0674-.4746,1.6212,1.6212,0,0,0-1.0986.3965l-.3711.3359a.611.611,0,0,1-.4746.1738.6767.6767,0,0,1-.4619-.2217.6685.6685,0,0,1,.0478-.9365l.3721-.3359a2.8118,2.8118,0,0,1,2.0039-.7442,2.6771,2.6771,0,0,1,2.0645.9483,2.8117,2.8117,0,0,1,.7441,2.0039,2.6766,2.6766,0,0,1-.9482,2.0644l-2.2686,2.0518Z"/></g></svg>