<svg xmlns="http://www.w3.org/2000/svg" xmlns:xlink="http://www.w3.org/1999/xlink" width="264" height="173.4172" viewBox="0 0 264 173.4172"><defs><style>.fe88b799-a935-4504-ac45-a505352ea240{fill:none;}.cad8d293-e1f7-4c51-b63d-59d3d84d689a{fill:#daefdb;}.\34 e8d8848-029e-49bc-b393-b66c7410df81{fill:#ffd9d9;}.\32 4b2fbde-0751-4644-a579-30323240c9e8{fill:#19a880;}.e1145c8d-d29a-4d12-9438-c2d1bf11dbf3{fill:#ff5959;}.b9463e3c-a000-45bf-a912-d4fe25b0e7dd{clip-path:url(#439cd8ba-0267-4208-bdd2-998b22cb2f70);}.\32 6e05098-f21b-47c4-af1d-67c838e58789{fill:#fff;}.\33 37f02b9-9d3f-4f1b-a9a0-54b130e907b9{fill:#345d74;}.\39 8c17b52-7a82-4e68-b412-b52169b488e9{isolation:isolate;}.\33 4451ff9-1132-442d-8c7a-09addc3aefca{fill:#086ba5;}.c0efa9d4-4c19-4673-a4a7-250ba675d5e0{fill:#237baf;}</style><clipPath id="439cd8ba-0267-4208-bdd2-998b22cb2f70"><polygon class="fe88b799-a935-4504-ac45-a505352ea240" points="192.622 89.293 186.962 89.293 184.133 89.293 178.473 89.293 174.699 145.317 184.133 145.317 186.962 145.317 196.396 145.317 192.622 89.293"/></clipPath></defs><title>Footer-1</title><g id="da630ed6-6ec5-4567-ae2c-978eb71ed17b" data-name="Layer 1"><circle class="cad8d293-e1f7-4c51-b63d-59d3d84d689a" cx="185.0319" cy="80.2071" r="17.97"/><path class="4e8d8848-029e-49bc-b393-b66c7410df81" d="M264.0025,114.0171v59.4H-.0075v-93.87c92.88,34.14,164.88,39.33,216.63,36.31,12.26-.71,28.43-2.18,47.37-1.84Z"/><path class="24b2fbde-0751-4644-a579-30323240c9e8" d="M264.0025,134.038V175.38H18.8952c17.2722-4.2332,39.09-10.5831,60.7851-15.9154,45.1138-11.0851,61.07-19.7551,88.07-25.4536,22.9436-4.83,54.9914-7.7474,96.2383.027Z"/><path class="e1145c8d-d29a-4d12-9438-c2d1bf11dbf3" d="M185.5475,70.5235a1.4489,1.4489,0,0,0-1.4489,1.4489v1.4489h2.8978V71.9724A1.4489,1.4489,0,0,0,185.5475,70.5235Z"/><g class="b9463e3c-a000-45bf-a912-d4fe25b0e7dd"><rect class="e1145c8d-d29a-4d12-9438-c2d1bf11dbf3" x="168.1782" y="89.293" width="34.6457" height="57.9899"/><rect class="26e05098-f21b-47c4-af1d-67c838e58789" x="169.859" y="89.293" width="46.0461" height="4.2749"/><rect class="26e05098-f21b-47c4-af1d-67c838e58789" x="169.859" y="97.9216" width="46.0461" height="4.2749"/><rect class="26e05098-f21b-47c4-af1d-67c838e58789" x="169.859" y="106.5499" width="46.0461" height="4.2749"/><rect class="26e05098-f21b-47c4-af1d-67c838e58789" x="169.859" y="115.1786" width="46.0461" height="4.2749"/><rect class="26e05098-f21b-47c4-af1d-67c838e58789" x="169.859" y="123.8073" width="46.0461" height="4.2749"/><rect class="26e05098-f21b-47c4-af1d-67c838e58789" x="169.859" y="132.4355" width="46.0461" height="4.2749"/><rect class="26e05098-f21b-47c4-af1d-67c838e58789" x="169.859" y="141.0642" width="46.0461" height="4.2749"/><rect class="4e8d8848-029e-49bc-b393-b66c7410df81" x="169.859" y="149.6924" width="46.0461" height="4.2749"/><rect class="4e8d8848-029e-49bc-b393-b66c7410df81" x="169.859" y="158.3211" width="46.0461" height="4.2749"/><rect class="4e8d8848-029e-49bc-b393-b66c7410df81" x="169.859" y="166.9494" width="46.0461" height="4.2749"/></g><path class="26e05098-f21b-47c4-af1d-67c838e58789" d="M185.5475,72.94a7.0529,7.0529,0,0,0-7.0529,7.0528v7.053H192.6v-7.053A7.0529,7.0529,0,0,0,185.5475,72.94Z"/><path class="26e05098-f21b-47c4-af1d-67c838e58789" d="M185.5475,77.5757a3.2288,3.2288,0,0,0-3.2288,3.2288v3.2289h6.4576V80.8045A3.2288,3.2288,0,0,0,185.5475,77.5757Z"/><rect class="e1145c8d-d29a-4d12-9438-c2d1bf11dbf3" x="175.9896" y="86.7173" width="19.1157" height="2.5757"/><path class="337f02b9-9d3f-4f1b-a9a0-54b130e907b9" d="M185.5475,138.7322a1.7627,1.7627,0,0,0-1.7627,1.7627v4.8226H187.31v-4.8226A1.7627,1.7627,0,0,0,185.5475,138.7322Z"/><path class="337f02b9-9d3f-4f1b-a9a0-54b130e907b9" d="M185.5475,125.1427a1.7627,1.7627,0,0,0-1.7627,1.7627v2.816H187.31v-2.816A1.7627,1.7627,0,0,0,185.5475,125.1427Z"/><path class="337f02b9-9d3f-4f1b-a9a0-54b130e907b9" d="M185.5475,110.7932a1.7626,1.7626,0,0,0-1.7627,1.7626v2.8161H187.31v-2.8161A1.7626,1.7626,0,0,0,185.5475,110.7932Z"/><path class="337f02b9-9d3f-4f1b-a9a0-54b130e907b9" d="M185.5475,96.4436a1.7627,1.7627,0,0,0-1.7627,1.7627v2.816H187.31v-2.816A1.7627,1.7627,0,0,0,185.5475,96.4436Z"/><path class="337f02b9-9d3f-4f1b-a9a0-54b130e907b9" d="M184.0822,80.6188a10.4792,10.4792,0,0,1-3.0477,1.8234,9.9434,9.9434,0,0,1-3.5432.65,10.6213,10.6213,0,0,1-3.57-.6257,12.2141,12.2141,0,0,1-3.214-1.7053l-.0066-.0049a.9736.9736,0,0,1,1.1716-1.5552c.0173.013.036.0283.0522.0422a10.3837,10.3837,0,0,0,2.618,1.62,9.0182,9.0182,0,0,0,2.995.737,8.5624,8.5624,0,0,0,3.082-.3534,9.3311,9.3311,0,0,0,2.8128-1.438l.0011-.0009a.52.52,0,0,1,.6488.8108Z"/><path class="337f02b9-9d3f-4f1b-a9a0-54b130e907b9" d="M182.3194,81.3672a13.8044,13.8044,0,0,1-4.2759-1.0238,14.2985,14.2985,0,0,1-3.7724-2.3256,17.5885,17.5885,0,0,1-2.9751-3.2867,20.93,20.93,0,0,1-2.15-3.8754.9733.9733,0,0,1,1.7905-.7638c.0073.017.0151.0375.0214.0547a19.1086,19.1086,0,0,0,1.75,3.6489,16.0241,16.0241,0,0,0,2.5266,3.1506,12.98,12.98,0,0,0,3.2976,2.3142,12.7412,12.7412,0,0,0,3.8874,1.1769.4678.4678,0,0,1-.0993.93Z"/><path class="337f02b9-9d3f-4f1b-a9a0-54b130e907b9" d="M168.0718,67.077a17.6117,17.6117,0,0,1-.6152-2.9264c-.0609-.5-.1039-1.005-.1205-1.5139s-.0124-1.0211.0132-1.5358l.0007-.0157a1.44,1.44,0,0,1,2.8755.1425,1.5081,1.5081,0,0,1-.0535.3235c-.1179.4135-.2206.8347-.3053,1.2626s-.1479.8626-.1953,1.3016a15.7,15.7,0,0,0-.0544,2.6736l.0005.0081a.7905.7905,0,0,1-1.5457.28Z"/><g class="98c17b52-7a82-4e68-b412-b52169b488e9"><polygon class="26e05098-f21b-47c4-af1d-67c838e58789" points="159.17 144.889 168.318 150.299 168.296 162.141 149.978 164.716 150 152.874 159.17 144.889"/><polygon class="26e05098-f21b-47c4-af1d-67c838e58789" points="149.978 164.716 141.201 159.941 141.223 148.1 150 152.874 149.978 164.716"/><polygon class="337f02b9-9d3f-4f1b-a9a0-54b130e907b9" points="150 152.874 141.223 148.1 150.393 140.114 159.17 144.889 150 152.874"/></g><polygon class="34451ff9-1132-442d-8c7a-09addc3aefca" points="148.713 164.035 147.205 163.215 147.205 156.744 148.713 157.565 148.713 164.035"/><polygon class="34451ff9-1132-442d-8c7a-09addc3aefca" points="144.474 154.968 142.966 154.148 142.966 150.78 144.474 151.6 144.474 154.968"/><polygon class="34451ff9-1132-442d-8c7a-09addc3aefca" points="162.508 154.837 165.316 154.448 165.316 157.978 162.508 158.367 162.508 154.837"/><polygon class="26e05098-f21b-47c4-af1d-67c838e58789" points="243.989 88.794 243.872 151.438 219.653 154.842 219.77 92.198 243.989 88.794"/><polygon class="337f02b9-9d3f-4f1b-a9a0-54b130e907b9" points="219.77 92.198 210.993 87.424 235.212 84.02 243.989 88.794 219.77 92.198"/><polygon class="26e05098-f21b-47c4-af1d-67c838e58789" points="252.454 101.999 252.353 155.931 228.135 159.335 228.235 105.403 252.454 101.999"/><polygon class="26e05098-f21b-47c4-af1d-67c838e58789" points="228.235 105.403 219.754 100.79 219.77 92.198 210.993 87.424 210.877 150.067 219.653 154.842 219.654 154.721 228.135 159.335 228.235 105.403"/><polygon class="337f02b9-9d3f-4f1b-a9a0-54b130e907b9" points="228.235 105.403 219.458 100.629 243.677 97.225 252.454 101.999 228.235 105.403"/><polygon class="c0efa9d4-4c19-4673-a4a7-250ba675d5e0" points="214.045 98.177 212.537 97.357 212.537 90.886 214.045 91.707 214.045 98.177"/><polygon class="c0efa9d4-4c19-4673-a4a7-250ba675d5e0" points="216.684 99.489 215.176 98.668 215.176 92.198 216.684 93.018 216.684 99.489"/><polygon class="c0efa9d4-4c19-4673-a4a7-250ba675d5e0" points="222.273 123.349 220.765 122.529 220.765 116.059 222.273 116.879 222.273 123.349"/><polygon class="c0efa9d4-4c19-4673-a4a7-250ba675d5e0" points="222.273 136.132 220.765 135.312 220.765 128.841 222.273 129.662 222.273 136.132"/><polygon class="c0efa9d4-4c19-4673-a4a7-250ba675d5e0" points="216.684 146.81 215.176 145.989 215.176 139.519 216.684 140.339 216.684 146.81"/><polygon class="c0efa9d4-4c19-4673-a4a7-250ba675d5e0" points="216.684 112.694 215.176 111.874 215.176 105.403 216.684 106.224 216.684 112.694"/><polygon class="c0efa9d4-4c19-4673-a4a7-250ba675d5e0" points="216.684 133.391 215.176 132.57 215.176 126.1 216.684 126.92 216.684 133.391"/><polygon class="c0efa9d4-4c19-4673-a4a7-250ba675d5e0" points="231.821 109.112 234.629 108.723 234.629 115.185 231.821 115.575 231.821 109.112"/><polygon class="c0efa9d4-4c19-4673-a4a7-250ba675d5e0" points="223.992 93.562 226.799 93.172 226.799 99.635 223.992 100.024 223.992 93.562"/><polygon class="c0efa9d4-4c19-4673-a4a7-250ba675d5e0" points="231.821 131.747 234.629 131.358 234.629 137.82 231.821 138.21 231.821 131.747"/><polygon class="c0efa9d4-4c19-4673-a4a7-250ba675d5e0" points="246.69 117.38 249.498 116.991 249.498 123.453 246.69 123.843 246.69 117.38"/><polygon class="c0efa9d4-4c19-4673-a4a7-250ba675d5e0" points="231.821 144.696 234.629 144.306 234.629 150.769 231.821 151.158 231.821 144.696"/></g><g id="8cb79aa7-808c-4a68-acb1-d339897f3736" data-name="Layer 4"><path class="cad8d293-e1f7-4c51-b63d-59d3d84d689a" d="M264.0025,173.4165c107.0263-42.4027,198.485-59.5109,260.5733-64.5968,82.3465-6.7455,152.4994-.6292,196.5913,3.3979a1361.3922,1361.3922,0,0,1,135.9807,19.3357c82.08,15.5432,215.5228,32.9431,441.8145,41.8632l6.0943,15.1411L246.69,217.3405Z"/></g><g id="a1f7176c-ac17-489e-a870-c4d4304eca3c" data-name="Layer 2"><path class="4e8d8848-029e-49bc-b393-b66c7410df81" d="M263.9925,114.0167c44.1191.9575,90.9487,3.5286,140.1457,8.291,71.1048,6.8833,155.5325,22.9617,217.2881,33.9761,29.0013,5.1726,114.091,14.8606,159.4674,17.1328,35.5325,1.7793,12.0912,9.5407,31.7464,8.1814v13.4026H264.0075Z"/><path class="24b2fbde-0751-4644-a579-30323240c9e8" d="M263.9888,134.0375a332.095,332.095,0,0,1,46.6946,13.4309c12.8181,4.7446,14.6272,6.35,23.7984,8.913,18.5732,5.191,28.6709,3.5027,46.6782,5.066,24.1689,2.0979,50.1338,8.9719,49.935,11.9692-.2273,3.4258-34.8879,5.657-171.5156,1.9629"/></g></svg>