<svg xmlns="http://www.w3.org/2000/svg" xmlns:xlink="http://www.w3.org/1999/xlink" width="210mm" height="138.9276mm" viewBox="0 0 595.2756 393.8106"><defs><style>.\31 112605a-0804-4a22-a525-07f7ef0a0dac,.e6d61396-68ed-4746-b316-3997718d751a{fill:none;}.\36 ec1a515-f19d-4c48-9731-d05d30793905{fill:#eb5958;}.\31 112605a-0804-4a22-a525-07f7ef0a0dac{stroke:#cbe0f3;stroke-miterlimit:10;stroke-width:0.75px;}.\31 2b52cee-0e5a-4113-8e63-24107c7249eb{clip-path:url(#ac47c00e-c9a5-4ffc-a573-2c4c7b412b5a);}.\32 5c9e54d-892a-4fe2-b1be-859bf0736077{fill:#cbe0f3;}.\32 186be16-cb82-454b-baf4-7a725935b102{fill:#efeff0;}.\32 fb94efa-ce14-4f7a-b491-323591539daf{fill:#383635;}.\37 6beedd9-7599-4cce-8c8a-e89bb8126dc2{fill:#656233;}.\38 27f3c1d-c64a-49a1-8296-48e5c2f47562{clip-path:url(#e04d8ba1-7a97-4b84-b8a9-ea6077bc7257);}</style><clipPath id="ac47c00e-c9a5-4ffc-a573-2c4c7b412b5a"><rect class="e6d61396-68ed-4746-b316-3997718d751a" x="215.4344" y="234.5051" width="165.085" height="115.3334"/></clipPath><clipPath id="e04d8ba1-7a97-4b84-b8a9-ea6077bc7257"><path class="e6d61396-68ed-4746-b316-3997718d751a" d="M286.1817,239.58l-30.3265,30.3265h80.1383L305.667,239.58a13.7778,13.7778,0,0,0-19.4853,0"/></clipPath></defs><title>ISL</title><g id="d943bc9a-50bc-4fbd-9796-e5fc7d1c476c" data-name="Textes"><path class="6ec1a515-f19d-4c48-9731-d05d30793905" d="M245.7993,115.2446v-.36a7.29,7.29,0,0,0,1.6743-.4683,3.5515,3.5515,0,0,0,1.314-.936,1.4539,1.4539,0,0,0,.27-.6118,7.8836,7.8836,0,0,0,.1441-.9361q.0542-.54.0717-1.1338t.0181-1.17q0-.5031.0181-1.3677t.0361-1.89q.0176-1.0262.0181-2.106V93.8608q0-.6481-.0542-1.206a7.3981,7.3981,0,0,0-.1621-1.0083,1.6576,1.6576,0,0,0-.3238-.7017,2.8574,2.8574,0,0,0-1.2422-.8823,7.3453,7.3453,0,0,0-1.6738-.3779v-.36h10.7637v.36a9.3374,9.3374,0,0,0-1.62.396,2.3178,2.3178,0,0,0-1.3321,1.1518,3.4307,3.4307,0,0,0-.3423,1.5484q-.0183.936-.0537,1.7636,0,.9009-.018,1.7823t-.0181,1.7817v12.06q0,1.0451.0361,2.0161a2.5741,2.5741,0,0,0,.3238,1.3681,2.68,2.68,0,0,0,1.3681.9361,7.3821,7.3821,0,0,0,1.6919.396v.36Z"/><path class="6ec1a515-f19d-4c48-9731-d05d30793905" d="M271.2329,112.4185a4.7907,4.7907,0,0,1-1.4941,1.6743,6.2985,6.2985,0,0,1-2.1421.936,10.8772,10.8772,0,0,1-2.5381.2876,14.8205,14.8205,0,0,1-2.9878-.2876,12.1423,12.1423,0,0,1-2.5918-.8281v-4.752h.2876a19.1239,19.1239,0,0,0,.7173,1.8179,9.26,9.26,0,0,0,1.0395,1.7642,5.19,5.19,0,0,0,1.4707,1.332,3.8647,3.8647,0,0,0,2.044.522,3.7724,3.7724,0,0,0,2.7427-.99,4.0622,4.0622,0,0,0,1.0219-3.042,2.5917,2.5917,0,0,0-.6992-1.854,3.5531,3.5531,0,0,0-1.9184-.99q-.969-.18-1.8648-.396a16.5215,16.5215,0,0,1-1.6133-.4683,4.4553,4.4553,0,0,1-2.2055-1.62,4.564,4.564,0,0,1-.8428-2.772,4.2976,4.2976,0,0,1,.4683-2.0156,4.907,4.907,0,0,1,1.26-1.5483,5.6507,5.6507,0,0,1,1.836-.99,7.1259,7.1259,0,0,1,2.2324-.3423,11.7651,11.7651,0,0,1,2.6636.27,17.4254,17.4254,0,0,1,2.1962.666l.4322,4.4643-.2881.0718q-.5046-1.08-1.0083-1.998a8.104,8.104,0,0,0-1.1157-1.584,4.3972,4.3972,0,0,0-1.3863-1.0259,4.1872,4.1872,0,0,0-1.7817-.36,3.5,3.5,0,0,0-1.2061.2159,3.0863,3.0863,0,0,0-1.0439.63,3.2148,3.2148,0,0,0-.7383,1.044,3.47,3.47,0,0,0-.2881,1.458,2.2487,2.2487,0,0,0,.7564,1.9082,5.1793,5.1793,0,0,0,1.9077.8638q.7917.1809,1.728.3779t1.62.3784a5.3348,5.3348,0,0,1,2.7539,1.6558,4.4611,4.4611,0,0,1,1.1343,3.0962A5.0151,5.0151,0,0,1,271.2329,112.4185Z"/><path class="6ec1a515-f19d-4c48-9731-d05d30793905" d="M272.51,115.2446v-.396a7.87,7.87,0,0,0,2.1962-.3418.8211.8211,0,0,0,.54-.81v-20.7a1.3037,1.3037,0,0,0-.0537-.4321.8325.8325,0,0,0-.3062-.3238q-.3237-.18-.9721-.5581a9.6343,9.6343,0,0,0-1.08-.5581v-.2158l5.1479-1.6919h.252v24.66a.782.782,0,0,0,.1621.54.8894.8894,0,0,0,.4858.252,4.6821,4.6821,0,0,0,.8281.09q.5033.0183,1.188.09v.396Z"/><path class="6ec1a515-f19d-4c48-9731-d05d30793905" d="M297.53,113.0488a4.4686,4.4686,0,0,1-.7559,1.17,3.1106,3.1106,0,0,1-1.0981.7919,3.6671,3.6671,0,0,1-3.564-.45,2.9658,2.9658,0,0,1-.9541-2.52l-.0718-.0361a8.88,8.88,0,0,1-.7739,1.0444,7.1152,7.1152,0,0,1-1.1523,1.08,5.8487,5.8487,0,0,1-1.4761.81,5.0016,5.0016,0,0,1-1.7817.3061,4.4361,4.4361,0,0,1-1.17-.1621,2.7733,2.7733,0,0,1-1.08-.5757,3.1128,3.1128,0,0,1-.792-1.062,3.69,3.69,0,0,1-.3062-1.584,2.95,2.95,0,0,1,.81-1.9443,9.0291,9.0291,0,0,1,1.998-1.6919q1.188-.7558,2.106-1.2959t1.602-.918q.6834-.3779,1.2061-.6479t.8818-.4863v-3.708a1.2116,1.2116,0,0,0-.126-.3418,1.914,1.914,0,0,0-.4321-.5581,2.9337,2.9337,0,0,0-.8457-.522,3.573,3.573,0,0,0-1.4043-.2339,3.3836,3.3836,0,0,0-1.1338.1977,4.0612,4.0612,0,0,0-.99.5044,3.5121,3.5121,0,0,0-.6836.6119.893.893,0,0,0-.2524.5219v1.62a1.1271,1.1271,0,0,1-.522.9,1.8373,1.8373,0,0,1-1.1338.3959,1.349,1.349,0,0,1-.99-.414,1.31,1.31,0,0,1-.4136-.9541,1.5106,1.5106,0,0,1,.2158-.792,2.7875,2.7875,0,0,1,.54-.648,4.1493,4.1493,0,0,1,.7022-.5039c.2519-.144.4736-.2754.666-.396q.9353-.54,1.9077-1.0439t1.854-.8643a17.0589,17.0589,0,0,1,1.62-.5756,4.4942,4.4942,0,0,1,1.2061-.2164,3.4281,3.4281,0,0,1,1.7637.4864,2.9312,2.9312,0,0,1,1.188,1.206,2.1787,2.1787,0,0,1,.18.8819q.0353.63.0362,1.2422,0,1.2956-.0181,2.34t-.0181,2.0161q0,.972-.018,1.9981t-.0181,2.25a2.9789,2.9789,0,0,0,.5581,2.1416,1.8169,1.8169,0,0,0,1.2778.5219,1.8379,1.8379,0,0,0,1.2242-.3418,1.72,1.72,0,0,0,.54-.8818h.2163A3.7507,3.7507,0,0,1,297.53,113.0488Zm-6.3721-7.5962a14.5621,14.5621,0,0,1-1.62.99q-.972.5221-1.89,1.1338a8.38,8.38,0,0,0-1.5839,1.35,2.43,2.43,0,0,0-.6661,1.6738,2.5327,2.5327,0,0,0,.648,1.6919,2.1215,2.1215,0,0,0,1.6919.7563,5.7666,5.7666,0,0,0,1.6558-.2163,3.1669,3.1669,0,0,0,1.332-.8281,1.3059,1.3059,0,0,0,.4321-1.0078Z"/><path class="6ec1a515-f19d-4c48-9731-d05d30793905" d="M308.33,115.2446v-.396a8.1569,8.1569,0,0,0,1.5478-.2339.7071.7071,0,0,0,.5762-.7382v-9.0718a6.3324,6.3324,0,0,0-.792-3.3662,2.8884,2.8884,0,0,0-2.6641-1.2779,3.623,3.623,0,0,0-1.98.504,10.8664,10.8664,0,0,0-1.7637,1.476v11.8081a.9248.9248,0,0,0,.252.522,1.0766,1.0766,0,0,0,.4316.2339,2.6052,2.6052,0,0,0,.5762.09,5.0134,5.0134,0,0,1,.6845.09v.36H298.25v-.36a4.6669,4.6669,0,0,0,1.4224-.3243.8545.8545,0,0,0,.5937-.8281V101.3486a1.3041,1.3041,0,0,0-.0537-.4321.8307.8307,0,0,0-.3057-.3237c-.2158-.12-.4687-.2578-.7558-.4141s-.5767-.2939-.8648-.4141v-.2158l4.7164-1.6924h.2158v3.8882l.0722.0362a12.9237,12.9237,0,0,1,.9864-1.314,8.5275,8.5275,0,0,1,1.3447-1.2783,7.5426,7.5426,0,0,1,1.65-.9536,4.7466,4.7466,0,0,1,1.8652-.3785,3.69,3.69,0,0,1,3.1924,1.5484,6.6832,6.6832,0,0,1,1.1133,3.9956v10.5845a.5283.5283,0,0,0,.2324.4316,1.6081,1.6081,0,0,0,.5586.27,5.6373,5.6373,0,0,0,.7031.1441c.252.0361.4844.0664.7012.09v.3242Z"/><path class="6ec1a515-f19d-4c48-9731-d05d30793905" d="M329.8574,115.3525h-.2168v-3.6h-.0351a7.3,7.3,0,0,1-2.4668,2.6641,6.72,6.72,0,0,1-3.5459.8643,6.5731,6.5731,0,0,1-2.5733-.522,6.1,6.1,0,0,1-2.2148-1.62,8.2158,8.2158,0,0,1-1.5479-2.7,10.8812,10.8812,0,0,1-.5761-3.69,9.085,9.085,0,0,1,.666-3.4917,8.4566,8.4566,0,0,1,4.7705-4.7163,9.9126,9.9126,0,0,1,3.7441-.6841,11.0083,11.0083,0,0,1,2.0342.18,14.9853,14.9853,0,0,1,1.7451.4322q-.0351-.5406-.0537-1.4761t-.0176-1.9082v-3.06l-2.9521-1.1157v-.2158l5.7236-1.5845h.2881v23.3643a8.1859,8.1859,0,0,0,1.08.5039q.791.3244,1.4765.6123v.2519Zm-.2519-13.5361a7.0224,7.0224,0,0,0-2.0166-2.376,3.9274,3.9274,0,0,0-2.2676-.9,4.2783,4.2783,0,0,0-2.3945.648,5.2608,5.2608,0,0,0-1.6377,1.728,8.1916,8.1916,0,0,0-.9541,2.4839,13.4832,13.4832,0,0,0-.3057,2.88,11.3172,11.3172,0,0,0,.3594,2.8618,7.8218,7.8218,0,0,0,1.08,2.4482,5.7679,5.7679,0,0,0,1.7822,1.71,4.6433,4.6433,0,0,0,2.4658.6479,3.5564,3.5564,0,0,0,2.5381-1.0083,4.5755,4.5755,0,0,0,1.3506-2.5556Z"/><path class="6ec1a515-f19d-4c48-9731-d05d30793905" d="M350.5928,111.5547a6.7777,6.7777,0,0,1-1.3682,1.8179,7.2275,7.2275,0,0,1-2.07,1.3681,6.4944,6.4944,0,0,1-2.6816.54,8.0335,8.0335,0,0,1-3.3487-.6841,7.2876,7.2876,0,0,1-2.5732-1.9263,8.8535,8.8535,0,0,1-1.6387-2.916,10.8238,10.8238,0,0,1-.5762-3.5459,9.058,9.058,0,0,1,2.07-5.688,7.7473,7.7473,0,0,1,2.4122-1.9258,6.74,6.74,0,0,1,3.15-.7383,9.4729,9.4729,0,0,1,2.6455.36,6.1416,6.1416,0,0,1,2.16,1.0977,5.7028,5.7028,0,0,1,1.4942,1.854,6.7346,6.7346,0,0,1,.6835,2.6279H339.3965c0,.1924-.0127.414-.0361.666s-.0362.51-.0362.7744a9.7113,9.7113,0,0,0,.4317,2.898,7.6172,7.6172,0,0,0,1.2607,2.4477,5.8293,5.8293,0,0,0,2.0879,1.6743,6.5927,6.5927,0,0,0,2.916.6119,5.4662,5.4662,0,0,0,3.1494-.918,4.3291,4.3291,0,0,0,1.7822-2.25l.2881.0718A6.65,6.65,0,0,1,350.5928,111.5547Zm-4.1221-12.1318a3.2657,3.2657,0,0,0-2.4668-.9541,2.9978,2.9978,0,0,0-1.8174.5937,6.7055,6.7055,0,0,0-1.4043,1.3862,7.0494,7.0494,0,0,0-.9179,1.6021,6.5883,6.5883,0,0,0-.3955,1.2417h1.4755q.6475,0,1.2784-.0181.6284-.0176,1.3134-.0356t1.5127-.0181q.5391,0,1.0078-.0361a2.7879,2.7879,0,0,0,.8282-.18,2.6866,2.6866,0,0,0,.3779-.54,1.77,1.77,0,0,0,.126-.7563A3.1825,3.1825,0,0,0,346.4707,99.4229Z"/><path class="6ec1a515-f19d-4c48-9731-d05d30793905" d="M226.4668,156.9932h-3.1924v5.5229a2.1922,2.1922,0,0,0,.4624,1.5537,1.58,1.58,0,0,0,1.1968.4834,2.2435,2.2435,0,0,0,1.0078-.2,1.8687,1.8687,0,0,0,.6934-.62l.1259.063a4.04,4.04,0,0,1-.3466.6616,2.4908,2.4908,0,0,1-.5879.63,2.7823,2.7823,0,0,1-.8614.4409,3.8459,3.8459,0,0,1-1.165.1577,2.6275,2.6275,0,0,1-.8467-.1367,2.1689,2.1689,0,0,1-.7163-.3989,2.3716,2.3716,0,0,1-.5078-.5879,1.26,1.26,0,0,1-.1973-.6616q0-1.9733.021-3.7486t.021-3.16h-1.5332v-.231l3.0259-2.8769h.166v1.8266h3.8853Z"/><path class="6ec1a515-f19d-4c48-9731-d05d30793905" d="M235.2861,163.4927a3.9552,3.9552,0,0,1-.7978,1.06,4.2238,4.2238,0,0,1-1.2075.7979,3.79,3.79,0,0,1-1.5645.3149,4.6829,4.6829,0,0,1-1.9531-.3989,4.2582,4.2582,0,0,1-1.5015-1.1235,5.1766,5.1766,0,0,1-.9555-1.7012,6.3064,6.3064,0,0,1-.336-2.0684,5.2832,5.2832,0,0,1,1.2075-3.3178,4.5153,4.5153,0,0,1,1.4073-1.1236,3.9264,3.9264,0,0,1,1.8374-.4306,5.5335,5.5335,0,0,1,1.5434.21,3.5821,3.5821,0,0,1,1.26.6406,3.3182,3.3182,0,0,1,.8716,1.0816,3.9207,3.9207,0,0,1,.3989,1.5327h-6.7407c0,.1123-.0074.2417-.021.3887s-.021.2978-.021.4516a5.6521,5.6521,0,0,0,.2519,1.6905,4.4415,4.4415,0,0,0,.7349,1.4277,3.3955,3.3955,0,0,0,1.2183.9766,3.8431,3.8431,0,0,0,1.7006.3569,3.19,3.19,0,0,0,1.8379-.5352,2.526,2.526,0,0,0,1.0391-1.3125l.168.042A3.8511,3.8511,0,0,1,235.2861,163.4927Zm-2.4043-7.0772a1.9053,1.9053,0,0,0-1.4384-.5566,1.75,1.75,0,0,0-1.0606.3467,3.895,3.895,0,0,0-.8188.8086,4.0966,4.0966,0,0,0-.5357.9345,3.8371,3.8371,0,0,0-.2309.7242h.8608c.252,0,.5005-.003.7456-.01l.7666-.021q.3984-.01.8818-.0107.315,0,.5879-.021a1.6181,1.6181,0,0,0,.4829-.105,1.5312,1.5312,0,0,0,.2208-.315,1.0236,1.0236,0,0,0,.0737-.4409A1.8563,1.8563,0,0,0,232.8818,156.4155Z"/><path class="6ec1a515-f19d-4c48-9731-d05d30793905" d="M243.14,157.3813a.8254.8254,0,0,1-.63.3047,1.0642,1.0642,0,0,1-.5357-.1157,1.65,1.65,0,0,1-.3467-.2622,2.291,2.291,0,0,0-.3149-.2627.8094.8094,0,0,0-.4619-.1152.8254.8254,0,0,0-.4937.1782,2.2966,2.2966,0,0,0-.4512.4517,3.5766,3.5766,0,0,0-.3784.62q-.1677.3464-.2939.6611v6.0484a.5083.5083,0,0,0,.2729.2939,1.6124,1.6124,0,0,0,.4727.147,4.4086,4.4086,0,0,0,.5459.0522,3.1873,3.1873,0,0,1,.4936.0528v.21h-4.7041v-.21a2.728,2.728,0,0,0,.83-.189.4991.4991,0,0,0,.3467-.4829V157.665a.76.76,0,0,0-.0317-.2519.4844.4844,0,0,0-.1783-.189q-.1889-.1047-.4414-.2627a3.4437,3.4437,0,0,0-.5039-.2622v-.126l2.751-1.0712h.126l-.042,2.9189h.042q.1047-.252.3359-.7349a6.3654,6.3654,0,0,1,.5884-.9765,3.69,3.69,0,0,1,.8608-.8506,1.9489,1.9489,0,0,1,1.1548-.3569,1.3249,1.3249,0,0,1,.8926.3149,1.0058,1.0058,0,0,1,.3677.7983A1.1048,1.1048,0,0,1,243.14,157.3813Z"/><path class="6ec1a515-f19d-4c48-9731-d05d30793905" d="M250.6372,157.3813a.8254.8254,0,0,1-.63.3047,1.064,1.064,0,0,1-.5356-.1157,1.6471,1.6471,0,0,1-.3467-.2622,2.291,2.291,0,0,0-.3149-.2627.81.81,0,0,0-.462-.1152.8251.8251,0,0,0-.4936.1782,2.2966,2.2966,0,0,0-.4512.4517,3.5766,3.5766,0,0,0-.3784.62q-.1677.3464-.2939.6611v6.0484a.508.508,0,0,0,.2729.2939,1.6115,1.6115,0,0,0,.4727.147,4.4086,4.4086,0,0,0,.5459.0522,3.1887,3.1887,0,0,1,.4936.0528v.21H243.812v-.21a2.7287,2.7287,0,0,0,.83-.189.4991.4991,0,0,0,.3467-.4829V157.665a.76.76,0,0,0-.0318-.2519.484.484,0,0,0-.1782-.189q-.189-.1047-.4414-.2627a3.4487,3.4487,0,0,0-.5039-.2622v-.126l2.751-1.0712h.126l-.042,2.9189h.042q.1047-.252.3359-.7349a6.3654,6.3654,0,0,1,.5884-.9765,3.69,3.69,0,0,1,.8608-.8506,1.9487,1.9487,0,0,1,1.1548-.3569,1.3249,1.3249,0,0,1,.8926.3149,1.0058,1.0058,0,0,1,.3677.7983A1.1053,1.1053,0,0,1,250.6372,157.3813Z"/><path class="6ec1a515-f19d-4c48-9731-d05d30793905" d="M259.415,163.4927a3.9531,3.9531,0,0,1-.7978,1.06,4.2238,4.2238,0,0,1-1.2075.7979,3.79,3.79,0,0,1-1.5645.3149,4.6829,4.6829,0,0,1-1.9531-.3989,4.2582,4.2582,0,0,1-1.5015-1.1235,5.1766,5.1766,0,0,1-.9555-1.7012,6.3064,6.3064,0,0,1-.336-2.0684,5.2832,5.2832,0,0,1,1.2075-3.3178,4.5153,4.5153,0,0,1,1.4073-1.1236,3.9264,3.9264,0,0,1,1.8374-.4306,5.5335,5.5335,0,0,1,1.5434.21,3.5821,3.5821,0,0,1,1.26.6406,3.3169,3.3169,0,0,1,.8716,1.0816,3.9207,3.9207,0,0,1,.3989,1.5327h-6.7407c0,.1123-.0073.2417-.021.3887s-.021.2978-.021.4516a5.6521,5.6521,0,0,0,.2519,1.6905,4.4415,4.4415,0,0,0,.7349,1.4277,3.3955,3.3955,0,0,0,1.2183.9766,3.8431,3.8431,0,0,0,1.7006.3569,3.19,3.19,0,0,0,1.8379-.5352,2.526,2.526,0,0,0,1.0391-1.3125l.168.042A3.8511,3.8511,0,0,1,259.415,163.4927Zm-2.4043-7.0772a1.9053,1.9053,0,0,0-1.4384-.5566,1.75,1.75,0,0,0-1.0606.3467,3.895,3.895,0,0,0-.8188.8086,4.0966,4.0966,0,0,0-.5357.9345,3.8371,3.8371,0,0,0-.2309.7242h.8608c.252,0,.5-.003.7456-.01l.7666-.021q.3984-.01.8819-.0107.3148,0,.5878-.021a1.62,1.62,0,0,0,.483-.105,1.5342,1.5342,0,0,0,.2207-.315,1.0236,1.0236,0,0,0,.0737-.4409A1.8563,1.8563,0,0,0,257.0107,156.4155Z"/><path class="6ec1a515-f19d-4c48-9731-d05d30793905" d="M272.33,165.708h-.126v-2.1h-.021a4.2627,4.2627,0,0,1-1.4385,1.5542,3.9223,3.9223,0,0,1-2.0683.5039,3.8343,3.8343,0,0,1-1.5015-.3047,3.5472,3.5472,0,0,1-1.2915-.9448,4.78,4.78,0,0,1-.9033-1.5752,6.3406,6.3406,0,0,1-.3359-2.1523,5.3021,5.3021,0,0,1,.3886-2.0371,4.9315,4.9315,0,0,1,2.7823-2.751,5.786,5.786,0,0,1,2.184-.3989,6.4155,6.4155,0,0,1,1.1866.1049,8.788,8.788,0,0,1,1.0185.252q-.0211-.315-.0312-.8609t-.0108-1.1127V152.1l-1.7221-.6509v-.126l3.3393-.9243h.168v13.6289a4.7213,4.7213,0,0,0,.63.294q.4614.19.8608.3574v.147Zm-.147-7.896a4.0968,4.0968,0,0,0-1.1758-1.3862,2.2921,2.2921,0,0,0-1.3232-.5249,2.4944,2.4944,0,0,0-1.3965.3779,3.0747,3.0747,0,0,0-.9556,1.0083,4.7726,4.7726,0,0,0-.5566,1.4487,7.8923,7.8923,0,0,0-.1782,1.68,6.6043,6.6043,0,0,0,.21,1.6694,4.5556,4.5556,0,0,0,.63,1.4283,3.3615,3.3615,0,0,0,1.04.9975,2.7056,2.7056,0,0,0,1.4385.378,2.0739,2.0739,0,0,0,1.48-.5884,2.6685,2.6685,0,0,0,.7876-1.4907Z"/><path class="6ec1a515-f19d-4c48-9731-d05d30793905" d="M284.4253,163.4927a3.9535,3.9535,0,0,1-.7979,1.06,4.221,4.221,0,0,1-1.2075.7979,3.7888,3.7888,0,0,1-1.5644.3149,4.6834,4.6834,0,0,1-1.9532-.3989,4.2587,4.2587,0,0,1-1.5014-1.1235,5.1768,5.1768,0,0,1-.9556-1.7012,6.309,6.309,0,0,1-.3359-2.0684,5.2817,5.2817,0,0,1,1.2075-3.3178,4.516,4.516,0,0,1,1.4072-1.1236,3.9267,3.9267,0,0,1,1.8374-.4306,5.5342,5.5342,0,0,1,1.5435.21,3.5816,3.5816,0,0,1,1.26.6406,3.3156,3.3156,0,0,1,.8716,1.0816,3.9207,3.9207,0,0,1,.399,1.5327h-6.7408c0,.1123-.0073.2417-.021.3887s-.021.2978-.021.4516a5.649,5.649,0,0,0,.252,1.6905,4.4415,4.4415,0,0,0,.7349,1.4277,3.3952,3.3952,0,0,0,1.2182.9766,3.8439,3.8439,0,0,0,1.7007.3569,3.19,3.19,0,0,0,1.8379-.5352,2.526,2.526,0,0,0,1.0391-1.3125l.1679.042A3.8471,3.8471,0,0,1,284.4253,163.4927Zm-2.4043-7.0772a1.9054,1.9054,0,0,0-1.4385-.5566,1.7494,1.7494,0,0,0-1.06.3467,3.8955,3.8955,0,0,0-.8189.8086,4.1,4.1,0,0,0-.5356.9345,3.8466,3.8466,0,0,0-.231.7242h.8609c.2519,0,.5005-.003.7456-.01l.7666-.021q.3984-.01.8818-.0107.315,0,.5879-.021a1.6188,1.6188,0,0,0,.4829-.105,1.5265,1.5265,0,0,0,.2207-.315,1.0236,1.0236,0,0,0,.0737-.4409A1.8566,1.8566,0,0,0,282.021,156.4155Z"/><path class="6ec1a515-f19d-4c48-9731-d05d30793905" d="M297.9487,163.8286a4.3938,4.3938,0,0,1-.9238.9868,4.0838,4.0838,0,0,1-1.2285.6617,4.5862,4.5862,0,0,1-1.4805.2309,4.4878,4.4878,0,0,1-1.8691-.3887,4.1971,4.1971,0,0,1-1.47-1.0918,5.2443,5.2443,0,0,1-.9556-1.6484,5.8107,5.8107,0,0,1-.3467-2.0161,5.2272,5.2272,0,0,1,.3569-1.9214,5.1485,5.1485,0,0,1,.9873-1.6064,4.859,4.859,0,0,1,1.5015-1.1133,4.3207,4.3207,0,0,1,1.9-.42,5.6131,5.6131,0,0,1,1.3647.1679,4.3856,4.3856,0,0,1,1.1973.4829,2.7671,2.7671,0,0,1,.8506.7774,1.8136,1.8136,0,0,1,.3252,1.0708,1.0889,1.0889,0,0,1-1.7324.8818.9416.9416,0,0,1-.3672-.5249,2.1364,2.1364,0,0,0,.105-.7139,2.0111,2.0111,0,0,0-.41-1.2915,1.5523,1.5523,0,0,0-1.2915-.5146,2.2424,2.2424,0,0,0-1.1968.3359,3.21,3.21,0,0,0-.9453.9033,4.6249,4.6249,0,0,0-.63,1.3228,5.4982,5.4982,0,0,0-.2309,1.6172,5.66,5.66,0,0,0,.2519,1.7324,3.9748,3.9748,0,0,0,.7139,1.3443,3.1541,3.1541,0,0,0,1.1235.8608,3.4981,3.4981,0,0,0,1.4805.3042,4.1661,4.1661,0,0,0,2.0581-.43,3.4813,3.4813,0,0,0,1.26-1.27l.1684.084A4.3191,4.3191,0,0,1,297.9487,163.8286Z"/><path class="6ec1a515-f19d-4c48-9731-d05d30793905" d="M308.26,162.5264a5.489,5.489,0,0,1-1.0713,1.6694,4.8235,4.8235,0,0,1-1.5645,1.1133,4.5514,4.5514,0,0,1-1.8789.3989,5.3625,5.3625,0,0,1-1.7012-.2939,4.8079,4.8079,0,0,1-2.8457-2.5728,5.4172,5.4172,0,0,1-.4726-2.3413,4.9028,4.9028,0,0,1,.3682-1.8691,4.9887,4.9887,0,0,1,4.6933-3.1289,5.023,5.023,0,0,1,3.2656,1.2495,4.849,4.849,0,0,1,1.1543,1.5542,4.9958,4.9958,0,0,1,.4522,2.1943A5.2126,5.2126,0,0,1,308.26,162.5264Zm-1.711-3.5806a5.6215,5.6215,0,0,0-.5146-1.5117,3.3713,3.3713,0,0,0-.9453-1.1445,2.3094,2.3094,0,0,0-1.4493-.4517,1.9763,1.9763,0,0,0-1.2382.42,3.6372,3.6372,0,0,0-.9346,1.1026,5.7256,5.7256,0,0,0-.5889,1.5332,7.57,7.57,0,0,0-.1992,1.7324,9.5089,9.5089,0,0,0,.168,1.8271,4.9674,4.9674,0,0,0,.5459,1.5225,3.0341,3.0341,0,0,0,.9668,1.05,2.4885,2.4885,0,0,0,1.4062.3887,1.9994,1.9994,0,0,0,1.376-.4937,3.7281,3.7281,0,0,0,.9023-1.2388,6.6141,6.6141,0,0,0,.5049-1.6064,8.956,8.956,0,0,0,.1573-1.5962A8.1914,8.1914,0,0,0,306.5488,158.9458Z"/><path class="6ec1a515-f19d-4c48-9731-d05d30793905" d="M315.5254,165.645v-.2309a4.7668,4.7668,0,0,0,.9033-.1368.412.412,0,0,0,.3359-.43v-5.292a3.6947,3.6947,0,0,0-.4619-1.9639,1.6847,1.6847,0,0,0-1.5537-.7451,2.1114,2.1114,0,0,0-1.1552.2939,6.2848,6.2848,0,0,0-1.0293.8609v6.8882a.54.54,0,0,0,.1474.3042.6331.6331,0,0,0,.252.1367,1.5046,1.5046,0,0,0,.3359.0522,2.89,2.89,0,0,1,.3984.0528v.21h-4.0527v-.21a2.7321,2.7321,0,0,0,.83-.189.5.5,0,0,0,.3467-.4829v-7.2241a.7448.7448,0,0,0-.0323-.252.4787.4787,0,0,0-.1777-.189q-.189-.1047-.4414-.2417a5.5211,5.5211,0,0,0-.5039-.2412v-.1259l2.75-.9873h.1269v2.268l.0411.021a7.7048,7.7048,0,0,1,.5761-.7666,4.9906,4.9906,0,0,1,.7842-.7456,4.3915,4.3915,0,0,1,.9629-.5561,2.7752,2.7752,0,0,1,1.0879-.2207,2.1556,2.1556,0,0,1,1.8633.9028,3.9093,3.9093,0,0,1,.6484,2.331V164.91a.3077.3077,0,0,0,.1367.2519.9259.9259,0,0,0,.3252.1572,3.226,3.226,0,0,0,.4092.084c.1475.021.2842.0391.41.0528v.1889Z"/><path class="6ec1a515-f19d-4c48-9731-d05d30793905" d="M326.6982,156.9932h-3.1923v5.5229a2.1946,2.1946,0,0,0,.4619,1.5537,1.5809,1.5809,0,0,0,1.1972.4834,2.2413,2.2413,0,0,0,1.0079-.2,1.8722,1.8722,0,0,0,.6933-.62l.126.063a4.003,4.003,0,0,1-.3467.6616,2.4908,2.4908,0,0,1-.5879.63,2.7817,2.7817,0,0,1-.8613.4409,3.8489,3.8489,0,0,1-1.1651.1577,2.6291,2.6291,0,0,1-.8466-.1367,2.1656,2.1656,0,0,1-.7158-.3989,2.3719,2.3719,0,0,1-.5088-.5879,1.2685,1.2685,0,0,1-.1973-.6616q0-1.9733.0215-3.7486t.0205-3.16h-1.5322v-.231l3.0254-2.8769h.166v1.8266h3.8847Z"/><path class="6ec1a515-f19d-4c48-9731-d05d30793905" d="M334.2363,157.3813a.8239.8239,0,0,1-.63.3047,1.0633,1.0633,0,0,1-.5351-.1157,1.65,1.65,0,0,1-.3467-.2622,2.2869,2.2869,0,0,0-.3144-.2627.8118.8118,0,0,0-.4629-.1152.8238.8238,0,0,0-.4932.1782,2.2966,2.2966,0,0,0-.4512.4517,3.4851,3.4851,0,0,0-.3779.62q-.1685.3464-.2939.6611v6.0484a.5071.5071,0,0,0,.2724.2939,1.6124,1.6124,0,0,0,.4727.147,4.4179,4.4179,0,0,0,.5459.0522,3.1957,3.1957,0,0,1,.4941.0528v.21h-4.7041v-.21a2.7317,2.7317,0,0,0,.8291-.189.4985.4985,0,0,0,.3467-.4829V157.665a.7755.7755,0,0,0-.0313-.2519.4893.4893,0,0,0-.1787-.189q-.1889-.1047-.4414-.2627a3.4437,3.4437,0,0,0-.5039-.2622v-.126l2.751-1.0712h.126l-.042,2.9189h.042c.07-.168.1816-.4126.3359-.7349a6.3608,6.3608,0,0,1,.5879-.9765,3.7021,3.7021,0,0,1,.8613-.8506,1.9491,1.9491,0,0,1,1.1553-.3569,1.3258,1.3258,0,0,1,.8926.3149,1.0084,1.0084,0,0,1,.3672.7983A1.101,1.101,0,0,1,334.2363,157.3813Z"/><path class="6ec1a515-f19d-4c48-9731-d05d30793905" d="M343.876,164.3643a2.6056,2.6056,0,0,1-.4414.6821,1.8036,1.8036,0,0,1-.6407.4619,2.0286,2.0286,0,0,1-.8085.1577,2.0528,2.0528,0,0,1-1.2706-.42,1.7309,1.7309,0,0,1-.5556-1.47l-.042-.021a5.1754,5.1754,0,0,1-.4522.6094,4.1405,4.1405,0,0,1-.6718.63,3.39,3.39,0,0,1-.8614.4722,2.9127,2.9127,0,0,1-1.039.1787,2.5913,2.5913,0,0,1-.6826-.0947,1.6237,1.6237,0,0,1-.63-.3359,1.811,1.811,0,0,1-.4619-.6192,2.1507,2.1507,0,0,1-.1788-.9243,1.7188,1.7188,0,0,1,.4727-1.1338,5.2864,5.2864,0,0,1,1.165-.9873q.6943-.4409,1.2286-.7559.5361-.3149.9345-.5356t.7041-.3779q.3033-.1575.5147-.2832v-2.1631a.7261.7261,0,0,0-.0742-.2,1.1,1.1,0,0,0-.252-.3252,1.7175,1.7175,0,0,0-.4932-.3047,2.0866,2.0866,0,0,0-.8193-.1362,1.9706,1.9706,0,0,0-.6611.1152,2.3564,2.3564,0,0,0-.5772.2939,2.0587,2.0587,0,0,0-.3994.357.5264.5264,0,0,0-.1474.3047v.9448a.6579.6579,0,0,1-.3038.5249,1.0717,1.0717,0,0,1-.6621.2314.7874.7874,0,0,1-.5771-.2417.7631.7631,0,0,1-.2412-.5566.8819.8819,0,0,1,.1259-.4619,1.6268,1.6268,0,0,1,.3145-.3779,2.4184,2.4184,0,0,1,.41-.294c.1464-.084.2753-.1606.3877-.231q.5463-.3149,1.1132-.6088t1.0821-.5044a9.8745,9.8745,0,0,1,.9443-.336,2.6245,2.6245,0,0,1,.7041-.1259,2.001,2.001,0,0,1,1.0283.2836,1.7139,1.7139,0,0,1,.6934.7037,1.2693,1.2693,0,0,1,.1045.5141q.0219.3677.0215.7246,0,.7558-.0108,1.3653t-.0107,1.1757q0,.567-.01,1.1656-.0117.5983-.0107,1.3125a1.7393,1.7393,0,0,0,.3252,1.25,1.06,1.06,0,0,0,.7461.3042,1.0732,1.0732,0,0,0,.7138-.1992,1.0045,1.0045,0,0,0,.3145-.5147h.126A2.1934,2.1934,0,0,1,343.876,164.3643Zm-3.7168-4.4312a8.5256,8.5256,0,0,1-.9453.5776q-.567.3048-1.1026.6612a4.8924,4.8924,0,0,0-.9238.7876,1.4154,1.4154,0,0,0-.3887.9765,1.4777,1.4777,0,0,0,.378.9869,1.2386,1.2386,0,0,0,.9873.4414,3.37,3.37,0,0,0,.9658-.1265,1.8479,1.8479,0,0,0,.7773-.4829.7616.7616,0,0,0,.252-.5879Z"/><path class="6ec1a515-f19d-4c48-9731-d05d30793905" d="M351.1318,163.9966a2.7962,2.7962,0,0,1-.872.9765,3.6671,3.6671,0,0,1-1.2491.5459,6.345,6.345,0,0,1-1.48.168,8.642,8.642,0,0,1-1.7432-.168,7.0667,7.0667,0,0,1-1.5117-.4829v-2.7719h.168a11.1226,11.1226,0,0,0,.4179,1.0605,5.3522,5.3522,0,0,0,.6065,1.0288,3.04,3.04,0,0,0,.8574.7769,2.2558,2.2558,0,0,0,1.1924.3047,2.2044,2.2044,0,0,0,1.6006-.5777,2.3691,2.3691,0,0,0,.5957-1.7744,1.5094,1.5094,0,0,0-.4082-1.0815,2.0715,2.0715,0,0,0-1.1192-.5777c-.376-.07-.7392-.1469-1.0869-.2309a9.7064,9.7064,0,0,1-.9414-.273,2.6026,2.6026,0,0,1-1.2871-.9448,2.6672,2.6672,0,0,1-.4912-1.6172,2.5041,2.5041,0,0,1,.2734-1.1758,2.8654,2.8654,0,0,1,.7344-.9033,3.2911,3.2911,0,0,1,1.0713-.5771,4.16,4.16,0,0,1,1.3017-.2,6.8618,6.8618,0,0,1,1.5547.1577,10.1526,10.1526,0,0,1,1.28.3882l.252,2.604-.168.0419q-.2944-.63-.5879-1.1655a4.753,4.753,0,0,0-.65-.9238,2.5689,2.5689,0,0,0-.8086-.5986,2.45,2.45,0,0,0-1.04-.21,2.0395,2.0395,0,0,0-.7032.126,1.7963,1.7963,0,0,0-.6093.3677,1.8846,1.8846,0,0,0-.4307.6088,2.0237,2.0237,0,0,0-.168.8506,1.3109,1.3109,0,0,0,.4414,1.1128,3.03,3.03,0,0,0,1.1133.5044q.4614.1047,1.0078.22t.9454.2207a3.1176,3.1176,0,0,1,1.6064.9658,2.6052,2.6052,0,0,1,.6611,1.8062A2.9264,2.9264,0,0,1,351.1318,163.9966Z"/><path class="6ec1a515-f19d-4c48-9731-d05d30793905" d="M358.4287,156.9932h-3.1924v5.5229a2.1946,2.1946,0,0,0,.4619,1.5537,1.5812,1.5812,0,0,0,1.1973.4834,2.2405,2.2405,0,0,0,1.0078-.2,1.8725,1.8725,0,0,0,.6934-.62l.126.063a4.0106,4.0106,0,0,1-.3467.6616,2.4908,2.4908,0,0,1-.5879.63,2.7817,2.7817,0,0,1-.8613.4409,3.8489,3.8489,0,0,1-1.1651.1577,2.63,2.63,0,0,1-.8467-.1367,2.1665,2.1665,0,0,1-.7158-.3989,2.3761,2.3761,0,0,1-.5088-.5879,1.2692,1.2692,0,0,1-.1972-.6616q0-1.9733.0214-3.7486t.0206-3.16h-1.5323v-.231l3.0254-2.8769h.166v1.8266h3.8848Z"/><path class="6ec1a515-f19d-4c48-9731-d05d30793905" d="M367.248,163.4927a3.9531,3.9531,0,0,1-.7978,1.06,4.22,4.22,0,0,1-1.207.7979,3.794,3.794,0,0,1-1.5655.3149,4.6786,4.6786,0,0,1-1.9521-.3989,4.2511,4.2511,0,0,1-1.502-1.1235,5.1667,5.1667,0,0,1-.955-1.7012,6.2933,6.2933,0,0,1-.336-2.0684,5.2789,5.2789,0,0,1,1.207-3.3178,4.5107,4.5107,0,0,1,1.4073-1.1236,3.9244,3.9244,0,0,1,1.8369-.4306,5.5345,5.5345,0,0,1,1.5439.21,3.5736,3.5736,0,0,1,1.26.6406,3.3247,3.3247,0,0,1,.8721,1.0816,3.9292,3.9292,0,0,1,.3984,1.5327h-6.7412q0,.1685-.02.3887c-.0147.1469-.0215.2978-.0215.4516a5.649,5.649,0,0,0,.252,1.6905,4.44,4.44,0,0,0,.7353,1.4277,3.3981,3.3981,0,0,0,1.2178.9766,3.8486,3.8486,0,0,0,1.7012.3569,3.19,3.19,0,0,0,1.8378-.5352,2.528,2.528,0,0,0,1.0391-1.3125l.168.042A3.8511,3.8511,0,0,1,367.248,163.4927Zm-2.4042-7.0772a1.9064,1.9064,0,0,0-1.4385-.5566,1.75,1.75,0,0,0-1.0606.3467,3.8975,3.8975,0,0,0-.8193.8086,4.1126,4.1126,0,0,0-.5352.9345,3.8926,3.8926,0,0,0-.2314.7242h.8613c.252,0,.5-.003.7451-.01l.7666-.021q.4-.01.8828-.0107c.21,0,.4053-.0069.5879-.021a1.62,1.62,0,0,0,.4825-.105,1.5342,1.5342,0,0,0,.2207-.315,1.0247,1.0247,0,0,0,.0732-.4409A1.8541,1.8541,0,0,0,364.8438,156.4155Z"/><path class="6ec1a515-f19d-4c48-9731-d05d30793905" d="M375.0918,163.9966a2.7965,2.7965,0,0,1-.8721.9765,3.6658,3.6658,0,0,1-1.249.5459,6.3459,6.3459,0,0,1-1.4805.168,8.641,8.641,0,0,1-1.7431-.168,7.0667,7.0667,0,0,1-1.5117-.4829v-2.7719h.1679a11.1246,11.1246,0,0,0,.418,1.0605,5.3518,5.3518,0,0,0,.6064,1.0288,3.04,3.04,0,0,0,.8575.7769,2.2555,2.2555,0,0,0,1.1923.3047,2.2041,2.2041,0,0,0,1.6006-.5777,2.3687,2.3687,0,0,0,.5957-1.7744,1.509,1.509,0,0,0-.4082-1.0815,2.0711,2.0711,0,0,0-1.1191-.5777c-.376-.07-.7393-.1469-1.0869-.2309a9.6981,9.6981,0,0,1-.9414-.273,2.6026,2.6026,0,0,1-1.2871-.9448,2.6673,2.6673,0,0,1-.4913-1.6172,2.5041,2.5041,0,0,1,.2735-1.1758,2.8627,2.8627,0,0,1,.7344-.9033,3.2916,3.2916,0,0,1,1.0712-.5771,4.1606,4.1606,0,0,1,1.3018-.2,6.8624,6.8624,0,0,1,1.5547.1577,10.1576,10.1576,0,0,1,1.28.3882l.2519,2.604-.168.0419q-.2943-.63-.5878-1.1655a4.753,4.753,0,0,0-.65-.9238,2.5689,2.5689,0,0,0-.8086-.5986,2.4506,2.4506,0,0,0-1.04-.21,2.0394,2.0394,0,0,0-.7031.126,1.7967,1.7967,0,0,0-.6094.3677,1.8843,1.8843,0,0,0-.4306.6088,2.0237,2.0237,0,0,0-.168.8506,1.3109,1.3109,0,0,0,.4414,1.1128,3.03,3.03,0,0,0,1.1133.5044q.4614.1047,1.0078.22t.9453.2207a3.1175,3.1175,0,0,1,1.6065.9658,2.6052,2.6052,0,0,1,.6611,1.8062A2.9264,2.9264,0,0,1,375.0918,163.9966Z"/><path class="1112605a-0804-4a22-a525-07f7ef0a0dac" d="M166.3323,299.3494c1.6209,0,1.6209,2.4179,3.2425,2.4179s1.6224-2.4179,3.244-2.4179,1.6216,2.4179,3.2432,2.4179,1.6224-2.4179,3.2448-2.4179,1.6224,2.4179,3.2455,2.4179"/><path class="1112605a-0804-4a22-a525-07f7ef0a0dac" d="M61.79,359.5821c1.6208,0,1.6208,2.4179,3.2425,2.4179s1.6223-2.4179,3.244-2.4179S69.8978,362,71.5194,362s1.6224-2.4179,3.2448-2.4179S76.3866,362,78.01,362"/><path class="1112605a-0804-4a22-a525-07f7ef0a0dac" d="M161.4563,339.6533c1.6209,0,1.6209,2.4179,3.2425,2.4179s1.6224-2.4179,3.244-2.4179,1.6217,2.4179,3.2433,2.4179,1.6224-2.4179,3.2447-2.4179,1.6224,2.4179,3.2456,2.4179"/><path class="1112605a-0804-4a22-a525-07f7ef0a0dac" d="M493.6549,304.3187c1.6209,0,1.6209,2.418,3.2425,2.418s1.6224-2.418,3.244-2.418,1.6216,2.418,3.2433,2.418,1.6223-2.418,3.2447-2.418,1.6224,2.418,3.2455,2.418"/><path class="1112605a-0804-4a22-a525-07f7ef0a0dac" d="M427.7,285.7389c1.6208,0,1.6208,2.418,3.2425,2.418s1.6224-2.418,3.244-2.418,1.6216,2.418,3.2432,2.418,1.6224-2.418,3.2448-2.418,1.6224,2.418,3.2455,2.418"/><path class="1112605a-0804-4a22-a525-07f7ef0a0dac" d="M435.81,332.8481c1.6209,0,1.6209,2.4179,3.2425,2.4179s1.6224-2.4179,3.244-2.4179,1.6216,2.4179,3.2432,2.4179,1.6224-2.4179,3.2448-2.4179,1.6224,2.4179,3.2455,2.4179"/><path class="1112605a-0804-4a22-a525-07f7ef0a0dac" d="M372.5,358.3731c1.6208,0,1.6208,2.4179,3.2424,2.4179s1.6224-2.4179,3.244-2.4179,1.6217,2.4179,3.2433,2.4179,1.6224-2.4179,3.2447-2.4179,1.6224,2.4179,3.2456,2.4179"/><path class="1112605a-0804-4a22-a525-07f7ef0a0dac" d="M485.5449,312.6667c1.6209,0,1.6209,2.4179,3.2425,2.4179s1.6224-2.4179,3.244-2.4179,1.6216,2.4179,3.2432,2.4179,1.6224-2.4179,3.2448-2.4179,1.6224,2.4179,3.2455,2.4179"/><path class="1112605a-0804-4a22-a525-07f7ef0a0dac" d="M38.123,257.9751c1.6209,0,1.6209,2.4179,3.2425,2.4179s1.6224-2.4179,3.244-2.4179,1.6216,2.4179,3.2432,2.4179,1.6224-2.4179,3.2448-2.4179,1.6224,2.4179,3.2455,2.4179"/><path class="1112605a-0804-4a22-a525-07f7ef0a0dac" d="M30.013,266.323c1.6209,0,1.6209,2.418,3.2425,2.418s1.6224-2.418,3.244-2.418,1.6216,2.418,3.2432,2.418,1.6224-2.418,3.2448-2.418,1.6224,2.418,3.2455,2.418"/><path class="1112605a-0804-4a22-a525-07f7ef0a0dac" d="M370.8783,267.4884c1.6208,0,1.6208,2.4179,3.2424,2.4179s1.6224-2.4179,3.244-2.4179,1.6217,2.4179,3.2433,2.4179,1.6224-2.4179,3.2447-2.4179,1.6224,2.4179,3.2456,2.4179"/><path class="1112605a-0804-4a22-a525-07f7ef0a0dac" d="M223.5636,255.143c1.6209,0,1.6209,2.418,3.2425,2.418s1.6224-2.418,3.244-2.418,1.6217,2.418,3.2433,2.418,1.6224-2.418,3.2447-2.418,1.6224,2.418,3.2456,2.418"/><path class="1112605a-0804-4a22-a525-07f7ef0a0dac" d="M320.8766,262.149c1.6209,0,1.6209,2.418,3.2425,2.418s1.6224-2.418,3.244-2.418,1.6216,2.418,3.2432,2.418,1.6224-2.418,3.2448-2.418,1.6224,2.418,3.2455,2.418"/><path class="1112605a-0804-4a22-a525-07f7ef0a0dac" d="M97.6159,305.5277c1.6217,0,1.6217,2.4172,3.2425,2.4172,1.6224,0,1.6224-2.4172,3.244-2.4172s1.6216,2.4172,3.2433,2.4172,1.6223-2.4172,3.2455-2.4172,1.6224,2.4172,3.2448,2.4172"/><path class="1112605a-0804-4a22-a525-07f7ef0a0dac" d="M84.9661,293.1718c1.6216,0,1.6216,2.4172,3.2424,2.4172,1.6224,0,1.6224-2.4172,3.244-2.4172s1.6217,2.4172,3.2433,2.4172,1.6224-2.4172,3.2455-2.4172,1.6224,2.4172,3.2448,2.4172"/><path class="1112605a-0804-4a22-a525-07f7ef0a0dac" d="M549.2246,337.8174c1.6217,0,1.6217,2.4172,3.2425,2.4172,1.6224,0,1.6224-2.4172,3.244-2.4172s1.6216,2.4172,3.2433,2.4172,1.6223-2.4172,3.2455-2.4172,1.6224,2.4172,3.2448,2.4172"/><path class="1112605a-0804-4a22-a525-07f7ef0a0dac" d="M541.1146,267.5324c1.6216,0,1.6216,2.4171,3.2425,2.4171,1.6224,0,1.6224-2.4171,3.244-2.4171s1.6216,2.4171,3.2432,2.4171,1.6224-2.4171,3.2456-2.4171,1.6224,2.4171,3.2447,2.4171"/><path class="1112605a-0804-4a22-a525-07f7ef0a0dac" d="M536.5747,325.4615c1.6217,0,1.6217,2.4172,3.2425,2.4172,1.6224,0,1.6224-2.4172,3.244-2.4172s1.6217,2.4172,3.2433,2.4172,1.6224-2.4172,3.2455-2.4172,1.6224,2.4172,3.2448,2.4172"/><g class="12b52cee-0e5a-4113-8e63-24107c7249eb"><path class="1112605a-0804-4a22-a525-07f7ef0a0dac" d="M256.7212,341.0521c1.6209,0,1.6209,2.418,3.2425,2.418s1.6224-2.418,3.244-2.418,1.6216,2.418,3.2433,2.418,1.6224-2.418,3.2447-2.418,1.6224,2.418,3.2456,2.418m-22.7271,3.76c1.6216,0,1.6216,2.4171,3.2424,2.4171,1.6224,0,1.6224-2.4171,3.2441-2.4171s1.6216,2.4171,3.2432,2.4171,1.6224-2.4171,3.2455-2.4171,1.6224,2.4171,3.2448,2.4171m-16.22-14.773c1.6216,0,1.6216,2.4172,3.2424,2.4172,1.6224,0,1.6224-2.4172,3.2441-2.4172s1.6216,2.4172,3.2432,2.4172,1.6224-2.4172,3.2455-2.4172,1.6224,2.4172,3.2448,2.4172"/></g><polygon class="25c9e54d-892a-4fe2-b1be-859bf0736077" points="335.994 286.948 255.855 281.341 255.855 269.906 335.994 269.906 335.994 286.948"/><g class="12b52cee-0e5a-4113-8e63-24107c7249eb"><path class="2186be16-cb82-454b-baf4-7a725935b102" d="M218.9264,278.5532h-3.4919l4.7863,12.6777a269.5455,269.5455,0,0,1,28.9085,2.045c16.368,2.0732,31.5827,5.2241,31.5827,5.2241,22.6806,4.6971,26.6545,7.5933,35.8564,8.0738,11.0081.5751,27.1252-2.4309,47.73-19.9469Z"/><path class="2fb94efa-ce14-4f7a-b491-323591539daf" d="M224.3748,280.7168l16.06-16.0595a7.2966,7.2966,0,0,1,10.3173,0l16.06,16.0595"/><path class="2fb94efa-ce14-4f7a-b491-323591539daf" d="M289.5441,289.288,303.572,275.26a6.3727,6.3727,0,0,1,9.0127,0l14.0279,14.0279"/><path class="76beedd9-7599-4cce-8c8a-e89bb8126dc2" d="M327.2306,277.8533l14.0279-14.0278a6.3727,6.3727,0,0,1,9.0127,0l14.0279,14.0278"/><path class="2fb94efa-ce14-4f7a-b491-323591539daf" d="M265.75,289.288,279.7775,275.26a6.3729,6.3729,0,0,1,9.0128,0l14.0278,14.0279"/><path class="2fb94efa-ce14-4f7a-b491-323591539daf" d="M255.855,269.906l30.3272-30.3272a13.7777,13.7777,0,0,1,19.4846,0l30.3265,30.3272"/><path class="25c9e54d-892a-4fe2-b1be-859bf0736077" d="M324.9382,287.1584a13.6386,13.6386,0,0,0-8.2,4.7252,13.08,13.08,0,0,0-2.0655,4.1525c-.5172,1.6178-.93,3.4263-1.3562,5.3027-.8383,3.7649-1.7917,7.7107-3.0365,11.555a98.1242,98.1242,0,0,1-4.39,11.3444l-.0069.0145a4.8988,4.8988,0,0,1-8.9067-4.0822c.07-.1526.1511-.3059.2342-.4478a89.1442,89.1442,0,0,0,5.0258-9.8411c1.4973-3.3889,2.7337-6.8686,3.9641-10.5527.6262-1.8421,1.2646-3.7612,2.1357-5.7542a19.4792,19.4792,0,0,1,3.76-5.8008,17.42,17.42,0,0,1,5.7-3.9282,22.2228,22.2228,0,0,1,6.3629-1.6315,2.5051,2.5051,0,0,1,.8161,4.9365Z"/><path class="6ec1a515-f19d-4c48-9731-d05d30793905" d="M244.6808,262.585l-.6331-27.0413a1.0148,1.0148,0,0,1,2.029-.0472c.0007.0145.0007.0328,0,.0472l-.6331,27.0413a.3815.3815,0,0,1-.7628,0"/><path class="6ec1a515-f19d-4c48-9731-d05d30793905" d="M246.1334,262.7051l6.2157-16.9a1.0154,1.0154,0,0,1,1.9062.7c-.0077.0222-.0176.0458-.0267.0664L246.84,262.9934a.3817.3817,0,0,1-.7063-.2883"/><path class="6ec1a515-f19d-4c48-9731-d05d30793905" d="M243.2848,262.9934l-7.3889-16.4214a1.0153,1.0153,0,1,1,1.852-.8329c.0092.0206.0191.045.0267.0663l6.2165,16.9a.3817.3817,0,0,1-.7063.2883"/></g><g class="827f3c1d-c64a-49a1-8296-48e5c2f47562"><polygon class="25c9e54d-892a-4fe2-b1be-859bf0736077" points="279.986 236.495 271.675 250.889 283.433 252.725 290.933 262.52 301.55 248.731 307.355 255.349 316.883 260.823 330.669 258.593 328.034 239.333 297.421 223.926 279.986 236.495"/></g><g class="12b52cee-0e5a-4113-8e63-24107c7249eb"><path class="2fb94efa-ce14-4f7a-b491-323591539daf" d="M320.7239,289.288,334.7518,275.26a6.3727,6.3727,0,0,1,9.0127,0l14.0279,14.0279"/></g><path class="76beedd9-7599-4cce-8c8a-e89bb8126dc2" d="M194.7239,293.1718l17.7247-17.7246a8.0521,8.0521,0,0,1,11.3878,0l17.7247,17.7246"/></g></svg>