<svg xmlns="http://www.w3.org/2000/svg" width="420mm" height="294.36mm" viewBox="0 0 1190.5512 834.4063"><defs><style>.a,.i{fill:none;}.a{stroke:#fff;stroke-linecap:round;stroke-linejoin:round;stroke-width:9px;}.b{fill:#fbf2ef;}.c{fill:#4c6c55;}.d{fill:#fff;}.e{fill:#203a37;}.f{fill:#e2b097;}.g{fill:#c16c44;}.h{fill:#f4d03a;}.i{stroke:#f4d03a;stroke-miterlimit:10;}</style></defs><title>About-qui</title><path class="a" d="M128,10.4062c54.9351-22.8711,91.5629-52.0331,113-72,15.4757-14.4143,29.4057-27.3889,43-49,25.8011-41.0163,16.6255-59.4619,38-87,26.9335-34.7,52.37-19.4139,79-50,31.3021-35.9525,34.21-100.7807,7-149-24.3065-43.0738-65.033-59.4025-78-64"/><path class="a" d="M1018.0693,0A1280.6036,1280.6036,0,0,0,896.5754-67.5013C854.0629-88.1859,750.2953-129.6326,713-143.279"/><polygon class="b" points="945.238 216.527 829.744 100.582 714.25 216.527 714.25 388.848 945.238 388.848 945.238 216.527"/><polygon class="b" points="714.81 550.435 618.453 453.702 522.097 550.435 522.097 694.203 714.81 694.203 714.81 550.435"/><polygon class="b" points="926.101 550.435 829.744 453.702 733.387 550.435 733.387 694.203 926.101 694.203 926.101 550.435"/><polygon class="b" points="1133.213 550.435 1036.856 453.702 940.499 550.435 940.499 694.203 1133.213 694.203 1133.213 550.435"/><path class="c" d="M779.0145,487.0172h-9.7866l29.9792,28.5-39.9792-28.5h-79.66a12.0353,12.0353,0,0,1-12-12v-24a12.0353,12.0353,0,0,1,12-12h99.447a12.0353,12.0353,0,0,1,12,12v24A12.0353,12.0353,0,0,1,779.0145,487.0172Z"/><path class="d" d="M686.9785,459.0557v-6.49a.6018.6018,0,0,1,.6055-.6054h1.2978a3.85,3.85,0,0,1,0,7.7H687.584a.6.6,0,0,1-.6055-.6045Zm1.2217-5.8741V458.44h.6816a2.5621,2.5621,0,0,0,1.8536-.7754,2.6261,2.6261,0,0,0-1.8536-4.4825Z"/><path class="d" d="M699.7168,456.7676a.5092.5092,0,0,1-.1592.3906.6.6,0,0,1-.4238.1484h-3.4981a1.319,1.319,0,0,0,.3741.7256,1.5438,1.5438,0,0,0,1.0283.4893,1.6083,1.6083,0,0,0,1.1719-.2695.575.575,0,0,1,.4394-.1758.4583.4583,0,0,1,.3858.1435.4922.4922,0,0,1,0,.7149,2.7549,2.7549,0,0,1-1.9414.7207,2.59,2.59,0,0,1-1.9258-.8086,2.784,2.784,0,0,1,0-3.8779,2.5048,2.5048,0,0,1,1.8759-.8086,2.58,2.58,0,0,1,1.8536.7207,2.6563,2.6563,0,0,1,.8193,1.831Zm-2.6514-1.5625a1.5546,1.5546,0,0,0-1.0224.3965,1.4327,1.4327,0,0,0-.4619.7695h3.1132a1.5051,1.5051,0,0,0-.5341-.7481A1.9133,1.9133,0,0,0,697.0654,455.2051Z"/><path class="d" d="M704.8643,454.7656a.5642.5642,0,0,1,.248.3682.6113.6113,0,0,1-.0713.4453.57.57,0,0,1-.3691.248.5557.5557,0,0,1-.4453-.0937,2.0026,2.0026,0,0,0-1.0176-.4072,1.0321,1.0321,0,0,0-.6543.1982c-.1172.0811-.1758.1524-.1758.2149a.2589.2589,0,0,0,.0273.1367.3631.3631,0,0,0,.1153.1,2.16,2.16,0,0,0,.8027.2637l.0117.0107h.0108a4.72,4.72,0,0,1,1.0674.33,1.5563,1.5563,0,0,1,.7148.6054,1.4756,1.4756,0,0,1,.2305.7588,1.5253,1.5253,0,0,1-.6924,1.2764,2.4653,2.4653,0,0,1-1.4307.4395,3.1467,3.1467,0,0,1-1.958-.7588.5611.5611,0,0,1-.2031-.3907.5273.5273,0,0,1,.126-.4238.522.522,0,0,1,.3965-.22.5506.5506,0,0,1,.4287.1318,1.829,1.829,0,0,0,1.21.4844,1.3635,1.3635,0,0,0,.7481-.209c.1318-.11.1982-.2031.1982-.28a.2788.2788,0,0,0-.0332-.16.3689.3689,0,0,0-.1426-.1319,2.412,2.412,0,0,0-.88-.3076h-.0118a4.088,4.088,0,0,1-1.0175-.3193,1.7175,1.7175,0,0,1-.6983-.6045,1.3057,1.3057,0,0,1-.1865-.6934,1.4767,1.4767,0,0,1,.6484-1.21,2.3455,2.3455,0,0,1,1.3584-.4072A2.9505,2.9505,0,0,1,704.8643,454.7656Z"/><path class="d" d="M711.377,452.5547v.23a.5964.5964,0,0,1-.1709.43.5607.5607,0,0,1-.418.1758.5778.5778,0,0,1-.4238-.1758.5847.5847,0,0,1-.1758-.43v-.23a.5715.5715,0,0,1,.1758-.418.5786.5786,0,0,1,.4238-.1767.5712.5712,0,0,1,.418.1709A.5781.5781,0,0,1,711.377,452.5547Zm-1.0176,1.7871a.6124.6124,0,0,1,.8467,0,.5922.5922,0,0,1,.1709.4346v4.29a.5781.5781,0,0,1-.1709.4238.57.57,0,0,1-.418.17.5778.5778,0,0,1-.4238-.1758.5715.5715,0,0,1-.1758-.418v-4.29A.5879.5879,0,0,1,710.3594,454.3418Z"/><path class="d" d="M713.8516,459.66l-.11-.0108a.6582.6582,0,0,1-.3408-.209.54.54,0,0,1-.1318-.3633v-4.3222a.5753.5753,0,0,1,.17-.4238.5661.5661,0,0,1,.4131-.1709.5246.5246,0,0,1,.5273.33,2.2916,2.2916,0,0,1,1.1777-.33,2.1992,2.1992,0,0,1,1.7266.7587,2.0876,2.0876,0,0,1,1.6611-.7587,2.2715,2.2715,0,0,1,1.6827.6767,2.2361,2.2361,0,0,1,.6718,1.6338v2.6064a.582.582,0,0,1-.583.5831.5833.5833,0,0,1-.4189-.17.5543.5543,0,0,1-.1758-.4131v-2.6064a1.0929,1.0929,0,0,0-.33-.8037,1.0747,1.0747,0,0,0-.7861-.33,1.09,1.09,0,0,0-.7861.3193,1.1224,1.1224,0,0,0-.3526.7813v2.64a.58.58,0,0,1-.5771.5831.5827.5827,0,0,1-.418-.1758.5506.5506,0,0,1-.1816-.4073v-2.64a1.1381,1.1381,0,0,0-1.128-1.1006,1.0747,1.0747,0,0,0-.7861.33,1.0968,1.0968,0,0,0-.33.8037v2.6064l-.0107.0772v.0332l-.0332.0654v.0557A.579.579,0,0,1,713.8516,459.66Z"/><path class="d" d="M724.7578,461.5469a.5858.5858,0,0,1-.4287.1816.5689.5689,0,0,1-.4238-.1816.5778.5778,0,0,1-.1758-.4121v-6.3916a.5818.5818,0,0,1,.5771-.583.6466.6466,0,0,1,.4073.1318.5109.5109,0,0,1,.2031.3193,2.6906,2.6906,0,0,1,1.4961-.4511,2.5114,2.5114,0,0,1,1.8808.8144,2.7146,2.7146,0,0,1,.7813,1.9473,2.6566,2.6566,0,0,1-.7813,1.93,2.5352,2.5352,0,0,1-1.8808.7978,2.4557,2.4557,0,0,1-1.4736-.4512v1.9366A.5689.5689,0,0,1,724.7578,461.5469Zm2.69-5.7364a1.3888,1.3888,0,0,0-1.045-.4511,1.3612,1.3612,0,0,0-1.039.456,1.6083,1.6083,0,0,0-.4238,1.1387,1.36,1.36,0,0,0,.4287,1.0674,1.3343,1.3343,0,0,0,1.0283.4619,1.3836,1.3836,0,0,0,1.0449-.4619,1.5421,1.5421,0,0,0,.4346-1.0947A1.6309,1.6309,0,0,0,727.4473,455.8105Z"/><path class="d" d="M732.1768,454.82a1.7864,1.7864,0,0,1,.6933-.4785,2.0351,2.0351,0,0,1,.8028-.1758.7681.7681,0,0,1,.5341.17.54.54,0,0,1,.17.4024.5745.5745,0,0,1-.17.4121.5558.5558,0,0,1-.4131.1758q-1.0224,0-1.6171,1.6611v2.09a.5543.5543,0,0,1-.1758.4131.5884.5884,0,0,1-.4239.17.57.57,0,0,1-.4179-.17.5636.5636,0,0,1-.17-.4131v-4.3339a.5463.5463,0,0,1,.17-.4073.5809.5809,0,0,1,.4179-.164.6.6,0,0,1,.4239.164.5375.5375,0,0,1,.1758.4073Z"/><path class="d" d="M740.7686,456.7676a.51.51,0,0,1-.16.3906.5973.5973,0,0,1-.4229.1484h-3.498a1.3125,1.3125,0,0,0,.374.7256,1.5442,1.5442,0,0,0,1.0283.4893,1.6046,1.6046,0,0,0,1.1709-.2695.5761.5761,0,0,1,.44-.1758.4558.4558,0,0,1,.3847.1435.4921.4921,0,0,1,0,.7149,2.7513,2.7513,0,0,1-1.9414.7207,2.5868,2.5868,0,0,1-1.9248-.8086,2.7843,2.7843,0,0,1,0-3.8779,2.5015,2.5015,0,0,1,1.875-.8086,2.5784,2.5784,0,0,1,1.8535.7207,2.6531,2.6531,0,0,1,.82,1.831Zm-2.6514-1.5625a1.5553,1.5553,0,0,0-1.0234.3965,1.44,1.44,0,0,0-.462.7695h3.1133a1.5084,1.5084,0,0,0-.5332-.7481A1.9157,1.9157,0,0,0,738.1172,455.2051Z"/><path class="d" d="M745.916,454.7656a.5626.5626,0,0,1,.2471.3682.6064.6064,0,0,1-.0713.4453.5675.5675,0,0,1-.3682.248.5543.5543,0,0,1-.4453-.0937,2.0022,2.0022,0,0,0-1.0176-.4072,1.0331,1.0331,0,0,0-.6552.1982c-.1172.0811-.1758.1524-.1758.2149a.2691.2691,0,0,0,.0273.1367.3584.3584,0,0,0,.1162.1,2.1612,2.1612,0,0,0,.8028.2637l.0107.0107h.0108a4.7037,4.7037,0,0,1,1.0673.33,1.551,1.551,0,0,1,.7149.6054,1.4677,1.4677,0,0,1,.2314.7588,1.5262,1.5262,0,0,1-.6933,1.2764,2.4622,2.4622,0,0,1-1.43.4395,3.1443,3.1443,0,0,1-1.958-.7588.5617.5617,0,0,1-.2041-.3907.5317.5317,0,0,1,.1269-.4238.52.52,0,0,1,.3955-.22.5528.5528,0,0,1,.43.1318,1.8255,1.8255,0,0,0,1.21.4844,1.3677,1.3677,0,0,0,.748-.209c.1319-.11.1983-.2031.1983-.28a.2873.2873,0,0,0-.0332-.16.367.367,0,0,0-.1436-.1319,2.4054,2.4054,0,0,0-.88-.3076h-.0107a4.0889,4.0889,0,0,1-1.0176-.3193,1.7115,1.7115,0,0,1-.6982-.6045,1.3064,1.3064,0,0,1-.1875-.6934,1.4778,1.4778,0,0,1,.6494-1.21,2.3431,2.3431,0,0,1,1.3584-.4072A2.9528,2.9528,0,0,1,745.916,454.7656Z"/><path class="d" d="M751.3281,454.7656a.5626.5626,0,0,1,.2471.3682.6064.6064,0,0,1-.0713.4453.5675.5675,0,0,1-.3682.248.5543.5543,0,0,1-.4453-.0937,2.0023,2.0023,0,0,0-1.0175-.4072,1.0332,1.0332,0,0,0-.6553.1982c-.1172.0811-.1758.1524-.1758.2149a.2691.2691,0,0,0,.0273.1367.3579.3579,0,0,0,.1163.1,2.16,2.16,0,0,0,.8027.2637l.0107.0107h.0108a4.7061,4.7061,0,0,1,1.0674.33,1.5513,1.5513,0,0,1,.7148.6054,1.4677,1.4677,0,0,1,.2314.7588,1.5262,1.5262,0,0,1-.6933,1.2764,2.4622,2.4622,0,0,1-1.43.4395,3.1443,3.1443,0,0,1-1.958-.7588.5617.5617,0,0,1-.2041-.3907.5317.5317,0,0,1,.1269-.4238.52.52,0,0,1,.3955-.22.5528.5528,0,0,1,.43.1318,1.8255,1.8255,0,0,0,1.21.4844,1.3677,1.3677,0,0,0,.748-.209c.1319-.11.1983-.2031.1983-.28a.2873.2873,0,0,0-.0332-.16.367.367,0,0,0-.1436-.1319,2.4054,2.4054,0,0,0-.88-.3076h-.0107a4.0889,4.0889,0,0,1-1.0176-.3193,1.7115,1.7115,0,0,1-.6982-.6045,1.3064,1.3064,0,0,1-.1875-.6934,1.4778,1.4778,0,0,1,.6494-1.21,2.3431,2.3431,0,0,1,1.3584-.4072A2.9526,2.9526,0,0,1,751.3281,454.7656Z"/><path class="d" d="M754.54,452.5547v.23a.5919.5919,0,0,1-.1709.43.5588.5588,0,0,1-.4179.1758.576.576,0,0,1-.4229-.1758.5847.5847,0,0,1-.1758-.43v-.23a.5938.5938,0,1,1,1.1875,0Zm-1.0175,1.7871a.6123.6123,0,0,1,.8466,0,.5879.5879,0,0,1,.1709.4346v4.29a.5938.5938,0,0,1-1.1875,0v-4.29A.5911.5911,0,0,1,753.5225,454.3418Z"/><path class="d" d="M758.83,459.6934a2.49,2.49,0,0,1-1.8809-.8135,2.8467,2.8467,0,0,1,.0049-3.9,2.4788,2.4788,0,0,1,1.8652-.8193,2.4285,2.4285,0,0,1,1.8536.831,2.82,2.82,0,0,1,.7636,1.9746,2.5275,2.5275,0,0,1-.7695,1.8916A2.3282,2.3282,0,0,1,758.83,459.6934Zm-1.0557-3.9161a1.6941,1.6941,0,0,0-.3965,1.1446,1.7772,1.7772,0,0,0,.3965,1.165,1.5157,1.5157,0,0,0,2.0674,0,1.6943,1.6943,0,0,0,.4287-1.165,1.6171,1.6171,0,0,0-.4287-1.1446,1.4874,1.4874,0,0,0-2.0674,0Z"/><path class="d" d="M764.4951,459.0771a.5382.5382,0,0,1-.1875.4131.6109.6109,0,0,1-.4228.17.582.582,0,0,1-.5782-.5831v-4.3339a.5884.5884,0,0,1,1.1221-.2422,2.1467,2.1467,0,0,1,1.166-.3408,2.3005,2.3005,0,0,1,2.2989,2.288v2.6289a.5708.5708,0,0,1-.1651.4131.5364.5364,0,0,1-.4014.17.5745.5745,0,0,1-.4121-.17.5546.5546,0,0,1-.1757-.4131v-2.6289a1.0529,1.0529,0,0,0-.336-.7861,1.1126,1.1126,0,0,0-.8027-.3252,1.06,1.06,0,0,0-.7871.3252,1.0819,1.0819,0,0,0-.3184.7861Z"/><path class="d" d="M773.4482,454.7656a.564.564,0,0,1,.2481.3682.6113.6113,0,0,1-.0713.4453.57.57,0,0,1-.3691.248.556.556,0,0,1-.4454-.0937,2.0023,2.0023,0,0,0-1.0175-.4072,1.0321,1.0321,0,0,0-.6543.1982c-.1172.0811-.1758.1524-.1758.2149a.2589.2589,0,0,0,.0273.1367.3631.3631,0,0,0,.1153.1,2.16,2.16,0,0,0,.8027.2637l.0117.0107h.0108a4.72,4.72,0,0,1,1.0673.33,1.5561,1.5561,0,0,1,.7149.6054,1.4756,1.4756,0,0,1,.2305.7588,1.5253,1.5253,0,0,1-.6924,1.2764,2.4653,2.4653,0,0,1-1.4307.4395,3.1467,3.1467,0,0,1-1.958-.7588.5607.5607,0,0,1-.2031-.3907.5273.5273,0,0,1,.126-.4238.522.522,0,0,1,.3964-.22.5507.5507,0,0,1,.4288.1318,1.8288,1.8288,0,0,0,1.21.4844,1.3635,1.3635,0,0,0,.7481-.209c.1318-.11.1982-.2031.1982-.28a.2788.2788,0,0,0-.0332-.16.3689.3689,0,0,0-.1426-.1319,2.4126,2.4126,0,0,0-.88-.3076h-.0117a4.0889,4.0889,0,0,1-1.0176-.3193,1.7179,1.7179,0,0,1-.6982-.6045,1.3057,1.3057,0,0,1-.1865-.6934,1.4767,1.4767,0,0,1,.6484-1.21,2.3453,2.3453,0,0,1,1.3584-.4072A2.95,2.95,0,0,1,773.4482,454.7656Z"/><path class="d" d="M689.7178,465.76a.61.61,0,0,1-.6211.61.5347.5347,0,0,0-.336.0664c-.0293,0-.0537.0615-.0712.1865a2.5317,2.5317,0,0,0-.0274.3741v.1543h.33a.5846.5846,0,0,1,.4287.1757.5782.5782,0,0,1,.1758.4239.5955.5955,0,0,1-.1758.4287.5748.5748,0,0,1-.4287.1816h-.33v3.8828a.605.605,0,1,1-1.21,0v-3.8828h-.2861a.6025.6025,0,0,1-.4346-.1758.598.598,0,0,1,0-.8584.6029.6029,0,0,1,.4346-.1757h.2861v-.1543q0-1.8488,1.66-1.8477a.6208.6208,0,0,1,.6055.61Z"/><path class="d" d="M691.01,472.0566a2.8855,2.8855,0,0,1,0-3.8877,2.448,2.448,0,0,1,1.8652-.8085,2.4835,2.4835,0,0,1,1.4629.4834.6856.6856,0,0,1,.209-.3458.5467.5467,0,0,1,.3789-.1376.5374.5374,0,0,1,.3965.1757.5818.5818,0,0,1,.17.418v4.3232a.5621.5621,0,0,1-.17.4122.5436.5436,0,0,1-.3965.1709.5613.5613,0,0,1-.3789-.1319.6582.6582,0,0,1-.209-.3418,2.4879,2.4879,0,0,1-1.4629.4737A2.4535,2.4535,0,0,1,691.01,472.0566Zm.4238-1.9414a1.619,1.619,0,0,0,.4014,1.1172,1.3206,1.3206,0,0,0,1.0341.4512,1.3547,1.3547,0,0,0,1.045-.4512,1.5833,1.5833,0,0,0,.4121-1.1113,1.6087,1.6087,0,0,0-.418-1.1221,1.3449,1.3449,0,0,0-1.0391-.4619,1.3205,1.3205,0,0,0-1.0283.4561A1.6258,1.6258,0,0,0,691.4336,470.1152Z"/><path class="d" d="M698.8477,465.7539v.2315a.59.59,0,0,1-.1709.4287.56.56,0,0,1-.418.1757.5764.5764,0,0,1-.4229-.1757.5832.5832,0,0,1-.1757-.4287v-.2315a.6.6,0,0,1,.5986-.5937.5657.5657,0,0,1,.418.1709A.572.572,0,0,1,698.8477,465.7539ZM697.83,467.542a.61.61,0,0,1,.8467,0,.5852.5852,0,0,1,.1709.4346v4.289a.5731.5731,0,0,1-.1709.4239.5661.5661,0,0,1-.418.1709.6.6,0,0,1-.5986-.5948v-4.289A.5879.5879,0,0,1,697.83,467.542Z"/><path class="d" d="M702.5986,467.36a.6023.6023,0,0,1,.4346.1757.569.569,0,0,1,.1816.4239.5858.5858,0,0,1-.1816.4287.5924.5924,0,0,1-.4346.1816h-.2754v3.0684a.5768.5768,0,0,1,.43.1816.604.604,0,0,1,.1758.4346.6.6,0,0,1-.6055.6055,1.2206,1.2206,0,0,1-1.2207-1.2217V468.57h-.3193a.605.605,0,1,1,0-1.21h.3193v-1.5958a.5751.5751,0,0,1,.1817-.4287.6027.6027,0,0,1,.4346-.1757.6.6,0,0,1,.6044.6044V467.36Z"/><path class="d" d="M710.09,469.9668a.5073.5073,0,0,1-.16.3906.593.593,0,0,1-.4229.1485h-3.498a1.3191,1.3191,0,0,0,.374.7265,1.5442,1.5442,0,0,0,1.0283.4893,1.6131,1.6131,0,0,0,1.1709-.27.5764.5764,0,0,1,.4405-.1757.4585.4585,0,0,1,.3847.1425.4921.4921,0,0,1,0,.7149,2.7425,2.7425,0,0,1-1.9414.7207,2.5864,2.5864,0,0,1-1.9248-.8086,2.7832,2.7832,0,0,1,0-3.877,2.5017,2.5017,0,0,1,1.875-.8085,2.5784,2.5784,0,0,1,1.8535.7207,2.6506,2.6506,0,0,1,.82,1.831Zm-2.6513-1.5615a1.5556,1.5556,0,0,0-1.0235.3955,1.439,1.439,0,0,0-.4619.7705h3.1133a1.5046,1.5046,0,0,0-.5332-.7481A1.9026,1.9026,0,0,0,707.4385,468.4053Z"/><path class="d" d="M715.2373,467.9648a.563.563,0,0,1,.2471.3692.6084.6084,0,0,1-.0713.4453.5666.5666,0,0,1-.3682.2471.558.558,0,0,1-.4453-.0928,2.0022,2.0022,0,0,0-1.0176-.4072,1.0327,1.0327,0,0,0-.6552.1972c-.1172.0811-.1758.1524-.1758.2149a.2749.2749,0,0,0,.0273.1377.3569.3569,0,0,0,.1162.0986,2.1581,2.1581,0,0,0,.8028.2647l.0107.0107h.0108a4.654,4.654,0,0,1,1.0673.33,1.55,1.55,0,0,1,.7149.6045,1.4677,1.4677,0,0,1,.2314.76,1.5246,1.5246,0,0,1-.6933,1.2754,2.4559,2.4559,0,0,1-1.43.4405,3.1559,3.1559,0,0,1-1.958-.7588.5635.5635,0,0,1-.2041-.3907.5306.5306,0,0,1,.1269-.4238.52.52,0,0,1,.3955-.22.5528.5528,0,0,1,.43.1318,1.83,1.83,0,0,0,1.21.4844,1.3685,1.3685,0,0,0,.748-.21c.1319-.1093.1983-.2031.1983-.28a.2821.2821,0,0,0-.0332-.1592.3529.3529,0,0,0-.1436-.1319,2.383,2.383,0,0,0-.88-.3085h-.0107a4.13,4.13,0,0,1-1.0176-.3184,1.7132,1.7132,0,0,1-.6982-.6055,1.3029,1.3029,0,0,1-.1875-.6924,1.4765,1.4765,0,0,1,.6494-1.21,2.3431,2.3431,0,0,1,1.3584-.4072A2.9508,2.9508,0,0,1,715.2373,467.9648Z"/><path class="d" d="M721.1328,472.86l-.1094-.0118a.6523.6523,0,0,1-.3418-.209.54.54,0,0,1-.1318-.3623v-4.3232a.574.574,0,0,1,.1709-.4238.5617.5617,0,0,1,.4121-.17.5254.5254,0,0,1,.5283.33,2.2815,2.2815,0,0,1,1.1768-.33,2.2009,2.2009,0,0,1,1.7275.7587,2.0878,2.0878,0,0,1,1.6612-.7587,2.2758,2.2758,0,0,1,1.6826.6757,2.2369,2.2369,0,0,1,.6709,1.6338v2.6074a.5835.5835,0,0,1-.583.5831.5785.5785,0,0,1-.418-.1709.5525.5525,0,0,1-.1758-.4122V469.67a1.0926,1.0926,0,0,0-.33-.8027,1.0753,1.0753,0,0,0-.7871-.33,1.0919,1.0919,0,0,0-.7861.3193,1.1236,1.1236,0,0,0-.3516.78v2.6406a.5626.5626,0,0,1-.1709.4122.5527.5527,0,0,1-.4072.1709.5844.5844,0,0,1-.418-.1758.5536.5536,0,0,1-.1816-.4073v-2.6406a1.1217,1.1217,0,0,0-2.2432.0332v2.6074l-.0117.0772v.0322l-.0332.0664v.0547A.5784.5784,0,0,1,721.1328,472.86Z"/><path class="d" d="M731.1816,472.0566a2.883,2.883,0,0,1,0-3.8877,2.4463,2.4463,0,0,1,1.8643-.8085,2.4813,2.4813,0,0,1,1.4629.4834.6925.6925,0,0,1,.209-.3458.5492.5492,0,0,1,.38-.1376.5338.5338,0,0,1,.3955.1757.5787.5787,0,0,1,.1709.418v4.3232a.5592.5592,0,0,1-.1709.4122.54.54,0,0,1-.3955.1709.5639.5639,0,0,1-.38-.1319.6647.6647,0,0,1-.209-.3418,2.4857,2.4857,0,0,1-1.4629.4737A2.4518,2.4518,0,0,1,731.1816,472.0566Zm.4239-1.9414a1.6147,1.6147,0,0,0,.4013,1.1172,1.3208,1.3208,0,0,0,1.0342.4512,1.3559,1.3559,0,0,0,1.0449-.4512,1.5874,1.5874,0,0,0,.4121-1.1113,1.6131,1.6131,0,0,0-.4179-1.1221,1.3464,1.3464,0,0,0-1.0391-.4619,1.3211,1.3211,0,0,0-1.0293.4561A1.6251,1.6251,0,0,0,731.6055,470.1152Z"/><path class="d" d="M739.02,465.7539v.2315a.594.594,0,0,1-.1709.4287.5606.5606,0,0,1-.4179.1757.6.6,0,0,1-.6-.6044v-.2315a.5714.5714,0,0,1,.1757-.418.5785.5785,0,0,1,.4239-.1757.5669.5669,0,0,1,.4179.1709A.5755.5755,0,0,1,739.02,465.7539Zm-1.0175,1.7881a.61.61,0,0,1,.8466,0,.5886.5886,0,0,1,.1709.4346v4.289a.5765.5765,0,0,1-.1709.4239.5673.5673,0,0,1-.4179.1709.6.6,0,0,1-.6-.5948v-4.289A.5848.5848,0,0,1,738.002,467.542Z"/><path class="d" d="M744.31,467.9648a.5639.5639,0,0,1,.248.3692.6128.6128,0,0,1-.0713.4453.5682.5682,0,0,1-.3691.2471.56.56,0,0,1-.4453-.0928,2.0026,2.0026,0,0,0-1.0176-.4072,1.0318,1.0318,0,0,0-.6543.1972c-.1172.0811-.1758.1524-.1758.2149a.2643.2643,0,0,0,.0274.1377.36.36,0,0,0,.1152.0986,2.1575,2.1575,0,0,0,.8027.2647l.0117.0107h.0108a4.67,4.67,0,0,1,1.0674.33,1.5547,1.5547,0,0,1,.7148.6045,1.4756,1.4756,0,0,1,.2305.76,1.5236,1.5236,0,0,1-.6924,1.2754,2.4588,2.4588,0,0,1-1.4307.4405,3.1583,3.1583,0,0,1-1.958-.7588.5629.5629,0,0,1-.2031-.3907.5918.5918,0,0,1,.5225-.6435.5506.5506,0,0,1,.4287.1318,1.834,1.834,0,0,0,1.21.4844,1.364,1.364,0,0,0,.7481-.21c.1318-.1093.1982-.2031.1982-.28a.2731.2731,0,0,0-.0332-.1592.3546.3546,0,0,0-.1426-.1319,2.3894,2.3894,0,0,0-.88-.3085h-.0118a4.1306,4.1306,0,0,1-1.0175-.3184,1.72,1.72,0,0,1-.6983-.6055,1.3022,1.3022,0,0,1-.1865-.6924,1.4754,1.4754,0,0,1,.6484-1.21,2.3455,2.3455,0,0,1,1.3584-.4072A2.9485,2.9485,0,0,1,744.31,467.9648Z"/><path class="d" d="M748.7207,472.8936a2.4907,2.4907,0,0,1-1.8809-.8145,2.8468,2.8468,0,0,1,.0059-3.8994,2.4768,2.4768,0,0,1,1.8643-.8193,2.4259,2.4259,0,0,1,1.8535.83,2.8168,2.8168,0,0,1,.7646,1.9746,2.5231,2.5231,0,0,1-.77,1.8916A2.3259,2.3259,0,0,1,748.7207,472.8936Zm-1.0557-3.9161a1.6958,1.6958,0,0,0-.3955,1.1436,1.7826,1.7826,0,0,0,.3955,1.166,1.5169,1.5169,0,0,0,2.0684,0,1.6951,1.6951,0,0,0,.4287-1.166,1.6147,1.6147,0,0,0-.4287-1.1436,1.4886,1.4886,0,0,0-2.0684,0Z"/><path class="d" d="M754.3857,472.2773a.5389.5389,0,0,1-.1865.4122.61.61,0,0,1-.4238.1709.5559.5559,0,0,1-.4072-.1709.5618.5618,0,0,1-.17-.4122v-4.3339a.58.58,0,0,1,.583-.583.5587.5587,0,0,1,.5391.3408,2.1383,2.1383,0,0,1,1.166-.3408,2.2988,2.2988,0,0,1,2.2989,2.288v2.6289a.5689.5689,0,0,1-.1651.4122.5369.5369,0,0,1-.4013.1709.5722.5722,0,0,1-.4131-.1709.5525.5525,0,0,1-.1758-.4122v-2.6289a1.0542,1.0542,0,0,0-.335-.7871,1.12,1.12,0,0,0-.8037-.3242,1.061,1.061,0,0,0-.7861.3242,1.0811,1.0811,0,0,0-.3194.7871Z"/><path class="c" d="M607.5417,713.0714h9.7867l-29.9793-28.5,39.9793,28.5h79.66a12.0353,12.0353,0,0,1,12,12v24a12.0353,12.0353,0,0,1-12,12H607.5417a12.0353,12.0353,0,0,1-12-12v-24A12.0353,12.0353,0,0,1,607.5417,713.0714Z"/><path class="d" d="M613.4268,733.2764v-6.49a.6016.6016,0,0,1,.6054-.6054H615.33a3.85,3.85,0,0,1,0,7.7h-1.2979a.6.6,0,0,1-.6054-.6045Zm1.2216-5.8741V732.66h.6817a2.5619,2.5619,0,0,0,1.8535-.7754,2.6261,2.6261,0,0,0-1.8535-4.4825Z"/><path class="d" d="M626.165,730.9883a.5095.5095,0,0,1-.1591.3906.6.6,0,0,1-.4239.1484h-3.498a1.3189,1.3189,0,0,0,.374.7256,1.5442,1.5442,0,0,0,1.0283.4893,1.6078,1.6078,0,0,0,1.1719-.2695.5753.5753,0,0,1,.44-.1758.4581.4581,0,0,1,.3857.1435.4921.4921,0,0,1,0,.7149,2.7547,2.7547,0,0,1-1.9414.7207,2.5905,2.5905,0,0,1-1.9258-.8086,2.7843,2.7843,0,0,1,0-3.8779,2.5052,2.5052,0,0,1,1.876-.8086,2.58,2.58,0,0,1,1.8535.7207,2.6559,2.6559,0,0,1,.8193,1.831Zm-2.6513-1.5625a1.5549,1.5549,0,0,0-1.0225.3965,1.434,1.434,0,0,0-.4619.7695h3.1133a1.5048,1.5048,0,0,0-.5342-.748A1.9126,1.9126,0,0,0,623.5137,729.4258Z"/><path class="d" d="M631.3125,728.9863a.5642.5642,0,0,1,.248.3682.6112.6112,0,0,1-.0712.4453.57.57,0,0,1-.3692.2481.5563.5563,0,0,1-.4453-.0938,2.0022,2.0022,0,0,0-1.0176-.4072,1.0323,1.0323,0,0,0-.6543.1982c-.1172.0811-.1758.1524-.1758.2149a.2578.2578,0,0,0,.0274.1367.36.36,0,0,0,.1152.1,2.1606,2.1606,0,0,0,.8028.2637l.0117.0107h.0107a4.7188,4.7188,0,0,1,1.0674.33,1.5553,1.5553,0,0,1,.7148.6054,1.4746,1.4746,0,0,1,.2305.7588,1.5253,1.5253,0,0,1-.6924,1.2764,2.4648,2.4648,0,0,1-1.4306.4395,3.1462,3.1462,0,0,1-1.958-.7588.5612.5612,0,0,1-.2032-.3907.528.528,0,0,1,.126-.4238.5222.5222,0,0,1,.3965-.22.5506.5506,0,0,1,.4287.1318,1.829,1.829,0,0,0,1.21.4844,1.363,1.363,0,0,0,.748-.209c.1319-.11.1983-.2031.1983-.28a.28.28,0,0,0-.0332-.16.3689.3689,0,0,0-.1426-.1318,2.41,2.41,0,0,0-.88-.3077h-.0117a4.0875,4.0875,0,0,1-1.0176-.3193,1.7166,1.7166,0,0,1-.6982-.6045,1.3058,1.3058,0,0,1-.1866-.6934,1.4768,1.4768,0,0,1,.6485-1.21,2.3453,2.3453,0,0,1,1.3584-.4072A2.95,2.95,0,0,1,631.3125,728.9863Z"/><path class="d" d="M639.0234,733.9141a2.493,2.493,0,0,1-1.8808-.8135,2.8479,2.8479,0,0,1,.0058-3.9,2.4768,2.4768,0,0,1,1.8643-.8193,2.4268,2.4268,0,0,1,1.8535.831,2.8164,2.8164,0,0,1,.7647,1.9746,2.525,2.525,0,0,1-.77,1.8916A2.3255,2.3255,0,0,1,639.0234,733.9141Zm-1.0556-3.9161a1.6979,1.6979,0,0,0-.3955,1.1446,1.7811,1.7811,0,0,0,.3955,1.165,1.5168,1.5168,0,0,0,2.0683,0,1.6937,1.6937,0,0,0,.4287-1.165,1.6167,1.6167,0,0,0-.4287-1.1446,1.4885,1.4885,0,0,0-2.0683,0Z"/><path class="d" d="M648,731.5928a2.1854,2.1854,0,0,1-.6875,1.6123,2.2466,2.2466,0,0,1-1.6279.6758,2.2169,2.2169,0,0,1-1.6172-.6709,2.1947,2.1947,0,0,1-.6768-1.6172v-2.6289a.5689.5689,0,0,1,.1709-.4073.5723.5723,0,0,1,.8252,0,.5716.5716,0,0,1,.17.4073v2.6289a1.1074,1.1074,0,0,0,1.1221,1.122,1.1188,1.1188,0,0,0,.8086-.3242,1.106,1.106,0,0,0,.3467-.7978v-2.6289a.5791.5791,0,0,1,.165-.4073.5283.5283,0,0,1,.4014-.1757.5847.5847,0,0,1,.418.1757.5536.5536,0,0,1,.1816.4073Z"/><path class="d" d="M652.1025,728.3809a.6027.6027,0,0,1,.4346.1757.5706.5706,0,0,1,.1817.4239.5843.5843,0,0,1-.1817.4287.5924.5924,0,0,1-.4346.1816h-.2754V732.66a.5768.5768,0,0,1,.43.1816.6024.6024,0,0,1,.1758.4346.6.6,0,0,1-.6055.6045,1.2206,1.2206,0,0,1-1.2207-1.2207v-3.0694h-.3193a.605.605,0,1,1,0-1.21h.3193v-1.5948a.5735.5735,0,0,1,.1817-.4287.6032.6032,0,0,1,.4346-.1767.6016.6016,0,0,1,.6044.6054v1.5948Z"/><path class="d" d="M655.8428,726.7754v.2305a.596.596,0,0,1-.1709.43.5607.5607,0,0,1-.418.1758.5781.5781,0,0,1-.4238-.1758.5847.5847,0,0,1-.1758-.43v-.2305a.5715.5715,0,0,1,.1758-.418.579.579,0,0,1,.4238-.1767.5712.5712,0,0,1,.418.1709A.5777.5777,0,0,1,655.8428,726.7754Zm-1.0176,1.7871a.6124.6124,0,0,1,.8467,0,.5918.5918,0,0,1,.1709.4346v4.29a.5777.5777,0,0,1-.1709.4238.57.57,0,0,1-.418.17.5781.5781,0,0,1-.4238-.1758.5715.5715,0,0,1-.1758-.418v-4.29A.5879.5879,0,0,1,654.8252,728.5625Z"/><path class="d" d="M657.8115,726.7861a.6018.6018,0,0,1,.6045-.6054.6032.6032,0,0,1,.4346.1767.5734.5734,0,0,1,.1816.4287v6.49a.5734.5734,0,0,1-.1816.4287.6024.6024,0,0,1-.4346.1758.6.6,0,0,1-.6045-.6045Z"/><path class="d" d="M663.8721,728.9863a.5629.5629,0,0,1,.247.3682.6069.6069,0,0,1-.0712.4453.5683.5683,0,0,1-.3682.2481.5546.5546,0,0,1-.4453-.0938,2.0026,2.0026,0,0,0-1.0176-.4072,1.0333,1.0333,0,0,0-.6553.1982c-.1172.0811-.1758.1524-.1758.2149a.2679.2679,0,0,0,.0274.1367.355.355,0,0,0,.1162.1,2.16,2.16,0,0,0,.8027.2637l.0108.0107h.0107a4.7046,4.7046,0,0,1,1.0674.33,1.5508,1.5508,0,0,1,.7148.6054,1.4679,1.4679,0,0,1,.2315.7588,1.5263,1.5263,0,0,1-.6934,1.2764,2.462,2.462,0,0,1-1.43.4395,3.1445,3.1445,0,0,1-1.958-.7588.5621.5621,0,0,1-.2041-.3907.5318.5318,0,0,1,.127-.4238.52.52,0,0,1,.3955-.22.5529.5529,0,0,1,.43.1318,1.8252,1.8252,0,0,0,1.21.4844,1.3678,1.3678,0,0,0,.7481-.209c.1318-.11.1982-.2031.1982-.28a.2873.2873,0,0,0-.0332-.16.3657.3657,0,0,0-.1435-.1318,2.404,2.404,0,0,0-.88-.3077h-.0108a4.088,4.088,0,0,1-1.0175-.3193,1.7111,1.7111,0,0,1-.6983-.6045,1.3064,1.3064,0,0,1-.1875-.6934,1.4778,1.4778,0,0,1,.6494-1.21,2.3433,2.3433,0,0,1,1.3584-.4072A2.9529,2.9529,0,0,1,663.8721,728.9863Z"/><path class="d" d="M614.4941,746.498a.5366.5366,0,0,1-.1875.4122.6079.6079,0,0,1-.4228.1709.5527.5527,0,0,1-.4072-.1709.5588.5588,0,0,1-.1709-.4122v-4.3339a.5883.5883,0,0,1,1.122-.2422,2.1384,2.1384,0,0,1,1.1661-.3408,2.2988,2.2988,0,0,1,2.2988,2.288v2.6289a.5689.5689,0,0,1-.1651.4122.5338.5338,0,0,1-.4013.1709.5714.5714,0,0,1-.4121-.1709.5525.5525,0,0,1-.1758-.4122v-2.6289a1.0551,1.0551,0,0,0-.336-.7871,1.1158,1.1158,0,0,0-.8027-.3242,1.0632,1.0632,0,0,0-.7871.3242,1.0842,1.0842,0,0,0-.3184.7871Z"/><path class="d" d="M624.5479,744.793a2.1848,2.1848,0,0,1-.6875,1.6113,2.2437,2.2437,0,0,1-1.628.6768,2.2171,2.2171,0,0,1-1.6172-.6709,2.195,2.195,0,0,1-.6767-1.6172v-2.6289a.5654.5654,0,0,1,.1709-.4073.5723.5723,0,0,1,.8252,0,.5684.5684,0,0,1,.17.4073v2.6289a1.1089,1.1089,0,0,0,1.1221,1.122,1.12,1.12,0,0,0,.8086-.3252,1.1037,1.1037,0,0,0,.3466-.7968v-2.6289a.5756.5756,0,0,1,.1651-.4073.5276.5276,0,0,1,.4013-.1757.5841.5841,0,0,1,.418.1757.5507.5507,0,0,1,.1817.4073Z"/><path class="d" d="M627.374,747.0811l-.1094-.0118a.6521.6521,0,0,1-.3417-.2089.54.54,0,0,1-.1319-.3624v-4.3232a.5744.5744,0,0,1,.1709-.4238.5617.5617,0,0,1,.4121-.17.5254.5254,0,0,1,.5283.33,2.2815,2.2815,0,0,1,1.1768-.33,2.2009,2.2009,0,0,1,1.7275.7587,2.088,2.088,0,0,1,1.6612-.7587,2.2758,2.2758,0,0,1,1.6826.6757,2.2365,2.2365,0,0,1,.6709,1.6338v2.6074a.5835.5835,0,0,1-.583.5831.5785.5785,0,0,1-.418-.1709.5525.5525,0,0,1-.1758-.4122v-2.6074a1.0929,1.0929,0,0,0-.33-.8027,1.0757,1.0757,0,0,0-.7872-.33,1.0919,1.0919,0,0,0-.7861.3193,1.1236,1.1236,0,0,0-.3516.78v2.6406a.5629.5629,0,0,1-.1708.4122.5531.5531,0,0,1-.4073.1709.584.584,0,0,1-.4179-.1758.5537.5537,0,0,1-.1817-.4073v-2.6406a1.1217,1.1217,0,0,0-2.2431.0332v2.6074l-.0118.0772v.0322l-.0332.0664v.0547A.5784.5784,0,0,1,627.374,747.0811Z"/><path class="d" d="M642.2021,744.1875a.5065.5065,0,0,1-.1591.3906.5956.5956,0,0,1-.4239.1485h-3.498a1.3256,1.3256,0,0,0,.374.7265,1.5442,1.5442,0,0,0,1.0283.4893,1.6172,1.6172,0,0,0,1.1719-.2695.5753.5753,0,0,1,.44-.1758.4606.4606,0,0,1,.3857.1425.4921.4921,0,0,1,0,.7149,2.7459,2.7459,0,0,1-1.9414.7207,2.59,2.59,0,0,1-1.9258-.8086,2.7832,2.7832,0,0,1,0-3.877,2.5054,2.5054,0,0,1,1.876-.8085,2.58,2.58,0,0,1,1.8535.7207,2.6539,2.6539,0,0,1,.8193,1.831Zm-2.6513-1.5615a1.555,1.555,0,0,0-1.0225.3955,1.4328,1.4328,0,0,0-.4619.7705H641.18a1.5016,1.5016,0,0,0-.5342-.7481A1.9,1.9,0,0,0,639.5508,742.626Zm1.3642-2.1123a1.0232,1.0232,0,0,1-.7148.2968q-.3955,0-.3955-.23a.439.439,0,0,1,.0879-.2422l.6269-.9678a.58.58,0,0,1,.5-.3193,1.1773,1.1773,0,0,1,.5616.1377c.1718.0918.2578.19.2578.2969a.45.45,0,0,1-.1866.3242Z"/><path class="d" d="M645.1387,742.2412a1.7872,1.7872,0,0,1,.6933-.4785,2.0555,2.0555,0,0,1,.8028-.1768.7632.7632,0,0,1,.5341.1709.54.54,0,0,1,.17.4014.5768.5768,0,0,1-.17.4131.5558.5558,0,0,1-.413.1758q-1.0226,0-1.6172,1.6611v2.09a.5525.5525,0,0,1-.1758.4122.5855.5855,0,0,1-.4238.1709.5675.5675,0,0,1-.418-.1709.5617.5617,0,0,1-.17-.4122v-4.3339a.5463.5463,0,0,1,.17-.4073.5779.5779,0,0,1,.418-.165.5964.5964,0,0,1,.4238.165.5375.5375,0,0,1,.1758.4073Z"/><path class="d" d="M649.98,739.9746v.2315a.594.594,0,0,1-.1709.4287.56.56,0,0,1-.418.1757.6.6,0,0,1-.6-.6044v-.2315a.5715.5715,0,0,1,.1758-.418.5784.5784,0,0,1,.4238-.1757.5671.5671,0,0,1,.418.1709A.5755.5755,0,0,1,649.98,739.9746Zm-1.0176,1.7881a.61.61,0,0,1,.8467,0,.5886.5886,0,0,1,.1709.4346v4.289a.5765.5765,0,0,1-.1709.4239.5675.5675,0,0,1-.418.1709.6.6,0,0,1-.6-.5948v-4.289A.5852.5852,0,0,1,648.9619,741.7627Z"/><path class="d" d="M656.6777,748.9619a.5975.5975,0,0,1-.8466,0,.5589.5589,0,0,1-.1758-.4072v-1.9356a2.6093,2.6093,0,0,1-3.3662-.3418,2.8088,2.8088,0,0,1,0-3.8877,2.5328,2.5328,0,0,1,1.8916-.8085,2.7449,2.7449,0,0,1,1.4961.4619.5221.5221,0,0,1,.1982-.33.6154.6154,0,0,1,.3955-.1318.5587.5587,0,0,1,.4072.1757.5715.5715,0,0,1,.1758.418v6.38A.5589.5589,0,0,1,656.6777,748.9619Zm-2.48-6.1933a1.4105,1.4105,0,0,0-1.0508.4736,1.5756,1.5756,0,0,0-.0108,2.1943,1.4125,1.4125,0,0,0,1.0674.4678,1.2218,1.2218,0,0,0,1.001-.4629,1.5655,1.5655,0,0,0,0-2.1992A1.2778,1.2778,0,0,0,654.1973,742.7686Z"/><path class="d" d="M663.63,744.793a2.1848,2.1848,0,0,1-.6875,1.6113,2.2436,2.2436,0,0,1-1.6279.6768,2.2168,2.2168,0,0,1-1.6172-.6709,2.1947,2.1947,0,0,1-.6768-1.6172v-2.6289a.5654.5654,0,0,1,.1709-.4073.5723.5723,0,0,1,.8252,0,.5684.5684,0,0,1,.17.4073v2.6289a1.1089,1.1089,0,0,0,1.1221,1.122,1.12,1.12,0,0,0,.8086-.3252,1.1038,1.1038,0,0,0,.3467-.7968v-2.6289a.5759.5759,0,0,1,.165-.4073.528.528,0,0,1,.4014-.1757.584.584,0,0,1,.4179.1757.5507.5507,0,0,1,.1817.4073Z"/><path class="d" d="M670.8232,744.1875a.5065.5065,0,0,1-.1591.3906.5956.5956,0,0,1-.4239.1485h-3.498a1.3256,1.3256,0,0,0,.374.7265,1.5442,1.5442,0,0,0,1.0283.4893,1.6172,1.6172,0,0,0,1.1719-.2695.5753.5753,0,0,1,.4395-.1758.4606.4606,0,0,1,.3857.1425.4921.4921,0,0,1,0,.7149,2.7459,2.7459,0,0,1-1.9414.7207,2.59,2.59,0,0,1-1.9258-.8086,2.7832,2.7832,0,0,1,0-3.877,2.5054,2.5054,0,0,1,1.876-.8085,2.58,2.58,0,0,1,1.8535.7207,2.6539,2.6539,0,0,1,.8193,1.831Zm-2.6513-1.5615a1.5548,1.5548,0,0,0-1.0225.3955,1.4328,1.4328,0,0,0-.4619.7705h3.1133a1.5016,1.5016,0,0,0-.5342-.7481A1.9,1.9,0,0,0,668.1719,742.626Z"/><path class="d" d="M675.9707,742.1855a.5643.5643,0,0,1,.2481.3692.6132.6132,0,0,1-.0713.4453.5686.5686,0,0,1-.3692.2471.56.56,0,0,1-.4453-.0928,2.0022,2.0022,0,0,0-1.0176-.4072,1.0321,1.0321,0,0,0-.6543.1972c-.1172.0811-.1757.1524-.1757.2149a.2644.2644,0,0,0,.0273.1377.36.36,0,0,0,.1152.0986,2.1563,2.1563,0,0,0,.8028.2647l.0117.0107h.0107a4.6687,4.6687,0,0,1,1.0674.33,1.5545,1.5545,0,0,1,.7149.6045,1.4754,1.4754,0,0,1,.23.76,1.5234,1.5234,0,0,1-.6924,1.2754,2.4585,2.4585,0,0,1-1.4306.4405,3.1579,3.1579,0,0,1-1.958-.7588.563.563,0,0,1-.2032-.3907.5918.5918,0,0,1,.5225-.6435.5506.5506,0,0,1,.4287.1318,1.8341,1.8341,0,0,0,1.21.4844,1.3637,1.3637,0,0,0,.748-.21c.1319-.1093.1983-.2031.1983-.28a.2738.2738,0,0,0-.0332-.1592.3553.3553,0,0,0-.1426-.1319,2.39,2.39,0,0,0-.88-.3085h-.0117a4.13,4.13,0,0,1-1.0176-.3184,1.7189,1.7189,0,0,1-.6982-.6055,1.3023,1.3023,0,0,1-.1866-.6924,1.4755,1.4755,0,0,1,.6485-1.21,2.3453,2.3453,0,0,1,1.3584-.4072A2.9483,2.9483,0,0,1,675.9707,742.1855Z"/><path class="c" d="M991.73,713.0714h9.7867l19.51-28.5-9.51,28.5h79.66a12.0353,12.0353,0,0,1,12,12v24a12.0353,12.0353,0,0,1-12,12H991.73a12.0353,12.0353,0,0,1-12-12v-24A12.0353,12.0353,0,0,1,991.73,713.0714Z"/><path class="d" d="M997.6152,733.2764v-6.49a.6018.6018,0,0,1,.6045-.6054h1.2979a3.85,3.85,0,0,1,0,7.7H998.22a.6.6,0,0,1-.6045-.6045Zm1.2207-5.8741V732.66h.6817a2.56,2.56,0,0,0,1.8535-.7754,2.6261,2.6261,0,0,0-1.8535-4.4825Z"/><path class="d" d="M1009.9023,731.5928a2.185,2.185,0,0,1-.6875,1.6123,2.2463,2.2463,0,0,1-1.6279.6758,2.2171,2.2171,0,0,1-1.6172-.6709,2.195,2.195,0,0,1-.6767-1.6172v-2.6289a.5685.5685,0,0,1,.1709-.4073.5723.5723,0,0,1,.8252,0,.572.572,0,0,1,.17.4073v2.6289a1.1072,1.1072,0,0,0,1.1221,1.122,1.1186,1.1186,0,0,0,.8085-.3242,1.1056,1.1056,0,0,0,.3467-.7978v-2.6289a.5788.5788,0,0,1,.1651-.4073.528.528,0,0,1,.4013-.1757.5845.5845,0,0,1,.418.1757.5536.5536,0,0,1,.1816.4073Z"/><path class="d" d="M1016.0283,733.8809l-.1094-.0108a.6651.6651,0,0,1-.3418-.209.5406.5406,0,0,1-.1318-.3632v-4.3223a.5727.5727,0,0,1,.1709-.4238.5626.5626,0,0,1,.4121-.1709.5267.5267,0,0,1,.5283.33,2.2911,2.2911,0,0,1,1.1768-.33,2.2009,2.2009,0,0,1,1.7275.7587,2.088,2.088,0,0,1,1.6612-.7587,2.2728,2.2728,0,0,1,1.6826.6767,2.2349,2.2349,0,0,1,.6709,1.6338v2.6065a.582.582,0,0,1-.583.583.5813.5813,0,0,1-.418-.17.5542.5542,0,0,1-.1758-.413v-2.6065a1.0967,1.0967,0,0,0-.33-.8037,1.0757,1.0757,0,0,0-.7872-.33,1.0915,1.0915,0,0,0-.7861.3194,1.1255,1.1255,0,0,0-.3516.7812v2.64a.5644.5644,0,0,1-.1709.413.5553.5553,0,0,1-.4072.17.584.584,0,0,1-.4179-.1758.5506.5506,0,0,1-.1817-.4072v-2.64a1.12,1.12,0,0,0-1.9141-.77,1.0959,1.0959,0,0,0-.3291.8037v2.6065l-.0117.0771v.0332l-.0332.0654v.0557A.579.579,0,0,1,1016.0283,733.8809Z"/><path class="d" d="M1026.0771,733.0781a2.8841,2.8841,0,0,1,0-3.8886,2.446,2.446,0,0,1,1.8643-.8086,2.483,2.483,0,0,1,1.4629.4843.691.691,0,0,1,.209-.3466.5493.5493,0,0,1,.38-.1377.534.534,0,0,1,.3955.1757.5809.5809,0,0,1,.1709.419v4.3223a.561.561,0,0,1-.1709.413.5423.5423,0,0,1-.3955.17.5639.5639,0,0,1-.38-.1319.6579.6579,0,0,1-.209-.3408,2.4847,2.4847,0,0,1-1.4629.4727A2.4544,2.4544,0,0,1,1026.0771,733.0781Zm.4239-1.9414a1.6139,1.6139,0,0,0,.4013,1.1162,1.3208,1.3208,0,0,0,1.0342.4512,1.3558,1.3558,0,0,0,1.0449-.4512,1.5867,1.5867,0,0,0,.4122-1.11,1.6131,1.6131,0,0,0-.418-1.1221,1.344,1.344,0,0,0-1.0391-.4629,1.319,1.319,0,0,0-1.0293.457A1.6253,1.6253,0,0,0,1026.501,731.1367Z"/><path class="d" d="M1034.5742,728.3809a.6027.6027,0,0,1,.4346.1757.5705.5705,0,0,1,.1816.4239.5842.5842,0,0,1-.1816.4287.5924.5924,0,0,1-.4346.1816H1034.3V732.66a.5748.5748,0,0,1,.4287.1816.6024.6024,0,0,1,.1758.4346.6.6,0,0,1-.6045.6045,1.22,1.22,0,0,1-1.2207-1.2207v-3.0694h-.3193a.605.605,0,1,1,0-1.21h.3193v-1.5948a.5726.5726,0,0,1,.1807-.4287.6031.6031,0,0,1,.4345-.1767.6018.6018,0,0,1,.6055.6054v1.5948Z"/><path class="d" d="M1042.0654,730.9883a.5092.5092,0,0,1-.1592.3906.6.6,0,0,1-.4238.1484h-3.498a1.3189,1.3189,0,0,0,.374.7256,1.544,1.544,0,0,0,1.0283.4893,1.6078,1.6078,0,0,0,1.1719-.2695.575.575,0,0,1,.4394-.1758.4583.4583,0,0,1,.3858.1435.4921.4921,0,0,1,0,.7149,2.7547,2.7547,0,0,1-1.9414.7207,2.5905,2.5905,0,0,1-1.9258-.8086,2.7843,2.7843,0,0,1,0-3.8779,2.5052,2.5052,0,0,1,1.876-.8086,2.58,2.58,0,0,1,1.8535.7207,2.6563,2.6563,0,0,1,.8193,1.831Zm-2.6513-1.5625a1.5549,1.5549,0,0,0-1.0225.3965,1.434,1.434,0,0,0-.4619.7695h3.1133a1.5048,1.5048,0,0,0-.5342-.748A1.9126,1.9126,0,0,0,1039.4141,729.4258Zm1.3642-2.1113a1.0277,1.0277,0,0,1-.7148.2968q-.3955,0-.3955-.2314a.4416.4416,0,0,1,.0879-.2422l.6269-.9678a.5783.5783,0,0,1,.5-.3183,1.1874,1.1874,0,0,1,.5615.1367c.1719.0918.2578.1914.2578.2969a.4531.4531,0,0,1-.1865.3252Z"/><path class="d" d="M1045.002,729.041a1.7864,1.7864,0,0,1,.6933-.4785,2.035,2.035,0,0,1,.8027-.1758.7682.7682,0,0,1,.5342.17.54.54,0,0,1,.17.4024.5744.5744,0,0,1-.17.4121.5558.5558,0,0,1-.4131.1758q-1.0224,0-1.6171,1.6611v2.09a.5542.5542,0,0,1-.1758.413.5884.5884,0,0,1-.4239.17.57.57,0,0,1-.4179-.17.5635.5635,0,0,1-.17-.413v-4.334a.5463.5463,0,0,1,.17-.4073.5809.5809,0,0,1,.4179-.164.6.6,0,0,1,.4239.164.5375.5375,0,0,1,.1758.4073Z"/><path class="d" d="M1049.8428,726.7754v.2305a.596.596,0,0,1-.1709.43.5607.5607,0,0,1-.418.1758.5781.5781,0,0,1-.4238-.1758.5847.5847,0,0,1-.1758-.43v-.2305a.5715.5715,0,0,1,.1758-.418.579.579,0,0,1,.4238-.1767.5712.5712,0,0,1,.418.1709A.5777.5777,0,0,1,1049.8428,726.7754Zm-1.0176,1.7871a.6124.6124,0,0,1,.8467,0,.5918.5918,0,0,1,.1709.4346v4.29a.5777.5777,0,0,1-.1709.4238.57.57,0,0,1-.418.17.5781.5781,0,0,1-.4238-.1758.5715.5715,0,0,1-.1758-.418v-4.29A.5879.5879,0,0,1,1048.8252,728.5625Z"/><path class="d" d="M1056.6846,730.9883a.51.51,0,0,1-.16.3906.5972.5972,0,0,1-.4228.1484h-3.4981a1.3125,1.3125,0,0,0,.374.7256,1.5442,1.5442,0,0,0,1.0284.4893,1.6043,1.6043,0,0,0,1.1709-.2695.5758.5758,0,0,1,.44-.1758.4562.4562,0,0,1,.3848.1435.4922.4922,0,0,1,0,.7149,2.7517,2.7517,0,0,1-1.9415.7207,2.5868,2.5868,0,0,1-1.9248-.8086,2.7843,2.7843,0,0,1,0-3.8779,2.5015,2.5015,0,0,1,1.875-.8086,2.5788,2.5788,0,0,1,1.8536.7207,2.6534,2.6534,0,0,1,.82,1.831Zm-2.6514-1.5625a1.5553,1.5553,0,0,0-1.0234.3965,1.4389,1.4389,0,0,0-.4619.7695h3.1132a1.5078,1.5078,0,0,0-.5332-.748A1.9151,1.9151,0,0,0,1054.0332,729.4258Z"/><path class="d" d="M1058.51,726.7861a.6016.6016,0,0,1,.6054-.6054.6049.6049,0,0,1,.4346.1767.5726.5726,0,0,1,.1807.4287v6.49a.5726.5726,0,0,1-.1807.4287.604.604,0,0,1-.4346.1758.6.6,0,0,1-.6054-.6045Z"/><path class="d" d="M1069.4541,733.2871a.5715.5715,0,0,1-.1758.418.5589.5589,0,0,1-.4072.1758.5745.5745,0,0,1-.39-.1377.605.605,0,0,1-.2041-.335,2.602,2.602,0,0,1-1.4961.4727,2.5332,2.5332,0,0,1-1.8916-.8086,2.7957,2.7957,0,0,1,0-3.877,2.596,2.596,0,0,1,3.3663-.3525v-2.0674a.5718.5718,0,0,1,.1757-.418.5955.5955,0,0,1,.8467,0,.5715.5715,0,0,1,.1758.418Zm-2.6729-.6055a1.3853,1.3853,0,0,0,1.04-.456,1.5273,1.5273,0,0,0,.4346-1.0889,1.5558,1.5558,0,0,0-.43-1.0947,1.4129,1.4129,0,0,0-2.09,0,1.5549,1.5549,0,0,0-.4287,1.0947,1.5231,1.5231,0,0,0,.4346,1.0889A1.3814,1.3814,0,0,0,1066.7812,732.6816Z"/><path class="d" d="M1076.6816,730.9883a.51.51,0,0,1-.16.3906.5974.5974,0,0,1-.4229.1484h-3.498a1.3125,1.3125,0,0,0,.374.7256,1.5442,1.5442,0,0,0,1.0283.4893,1.6041,1.6041,0,0,0,1.1709-.2695.5761.5761,0,0,1,.44-.1758.4558.4558,0,0,1,.3847.1435.4921.4921,0,0,1,0,.7149,2.7513,2.7513,0,0,1-1.9414.7207,2.5868,2.5868,0,0,1-1.9248-.8086,2.7843,2.7843,0,0,1,0-3.8779,2.5015,2.5015,0,0,1,1.875-.8086,2.5784,2.5784,0,0,1,1.8535.7207,2.6526,2.6526,0,0,1,.82,1.831Zm-2.6513-1.5625a1.5557,1.5557,0,0,0-1.0235.3965,1.44,1.44,0,0,0-.4619.7695h3.1133a1.5078,1.5078,0,0,0-.5332-.748A1.9151,1.9151,0,0,0,1074.03,729.4258Z"/><path class="d" d="M1002.4766,746.4863a.5737.5737,0,0,1-.1758.419.5589.5589,0,0,1-.4072.1758.5743.5743,0,0,1-.39-.1377.6072.6072,0,0,1-.2041-.336,2.6024,2.6024,0,0,1-1.4961.4737,2.533,2.533,0,0,1-1.8916-.8086,2.797,2.797,0,0,1,0-3.878,2.5972,2.5972,0,0,1,3.3662-.3515v-2.0684a.5715.5715,0,0,1,.1758-.418.5979.5979,0,0,1,.8467,0,.5715.5715,0,0,1,.1758.418Zm-2.6729-.6045a1.3891,1.3891,0,0,0,1.04-.456,1.53,1.53,0,0,0,.4345-1.09,1.553,1.553,0,0,0-.43-1.0937,1.4128,1.4128,0,0,0-2.09,0,1.5525,1.5525,0,0,0-.4287,1.0937,1.5258,1.5258,0,0,0,.4345,1.09A1.3854,1.3854,0,0,0,999.8037,745.8818Z"/><path class="d" d="M1009.7041,744.1875a.507.507,0,0,1-.16.3906.5926.5926,0,0,1-.4228.1485h-3.4981a1.32,1.32,0,0,0,.3741.7265,1.5438,1.5438,0,0,0,1.0283.4893,1.6135,1.6135,0,0,0,1.1709-.2695.5758.5758,0,0,1,.44-.1758.4588.4588,0,0,1,.3848.1425.4921.4921,0,0,1,0,.7149,2.7427,2.7427,0,0,1-1.9414.7207,2.5864,2.5864,0,0,1-1.9248-.8086,2.7829,2.7829,0,0,1,0-3.877,2.5017,2.5017,0,0,1,1.875-.8085,2.5785,2.5785,0,0,1,1.8535.7207,2.651,2.651,0,0,1,.82,1.831Zm-2.6514-1.5615a1.5553,1.5553,0,0,0-1.0234.3955,1.4384,1.4384,0,0,0-.4619.7705h3.1133a1.5052,1.5052,0,0,0-.5332-.7481A1.9029,1.9029,0,0,0,1007.0527,742.626Z"/><path class="d" d="M1014.8516,742.1855a.5625.5625,0,0,1,.247.3692.6079.6079,0,0,1-.0713.4453.5661.5661,0,0,1-.3681.2471.5579.5579,0,0,1-.4453-.0928,2.0026,2.0026,0,0,0-1.0176-.4072,1.033,1.033,0,0,0-.6553.1972c-.1172.0811-.1758.1524-.1758.2149a.2747.2747,0,0,0,.0274.1377.3547.3547,0,0,0,.1162.0986,2.1557,2.1557,0,0,0,.8027.2647l.0108.0107h.0107a4.6548,4.6548,0,0,1,1.0674.33,1.5492,1.5492,0,0,1,.7148.6045,1.4678,1.4678,0,0,1,.2315.76,1.5247,1.5247,0,0,1-.6934,1.2754,2.4557,2.4557,0,0,1-1.43.4405,3.1561,3.1561,0,0,1-1.958-.7588.5639.5639,0,0,1-.2041-.3907.53.53,0,0,1,.127-.4238.52.52,0,0,1,.3955-.22.5529.5529,0,0,1,.43.1318,1.83,1.83,0,0,0,1.21.4844,1.3686,1.3686,0,0,0,.7481-.21c.1318-.1093.1982-.2031.1982-.28a.2812.2812,0,0,0-.0332-.1592.3524.3524,0,0,0-.1435-.1319,2.3837,2.3837,0,0,0-.88-.3085h-.0108a4.1306,4.1306,0,0,1-1.0175-.3184,1.7135,1.7135,0,0,1-.6983-.6055,1.3029,1.3029,0,0,1-.1875-.6924,1.4765,1.4765,0,0,1,.6494-1.21,2.3433,2.3433,0,0,1,1.3584-.4072A2.9511,2.9511,0,0,1,1014.8516,742.1855Z"/><path class="d" d="M1020.2637,742.1855a.5625.5625,0,0,1,.247.3692.6083.6083,0,0,1-.0712.4453.5666.5666,0,0,1-.3682.2471.5579.5579,0,0,1-.4453-.0928,2.0026,2.0026,0,0,0-1.0176-.4072,1.033,1.033,0,0,0-.6553.1972c-.1172.0811-.1758.1524-.1758.2149a.2747.2747,0,0,0,.0274.1377.3547.3547,0,0,0,.1162.0986,2.1557,2.1557,0,0,0,.8027.2647l.0108.0107h.0107a4.6548,4.6548,0,0,1,1.0674.33,1.5492,1.5492,0,0,1,.7148.6045,1.4678,1.4678,0,0,1,.2315.76,1.5247,1.5247,0,0,1-.6934,1.2754,2.4557,2.4557,0,0,1-1.43.4405,3.1561,3.1561,0,0,1-1.958-.7588.5639.5639,0,0,1-.2041-.3907.5307.5307,0,0,1,.127-.4238.52.52,0,0,1,.3955-.22.5529.5529,0,0,1,.43.1318,1.83,1.83,0,0,0,1.21.4844,1.3686,1.3686,0,0,0,.7481-.21c.1318-.1093.1982-.2031.1982-.28a.2812.2812,0,0,0-.0332-.1592.3524.3524,0,0,0-.1435-.1319,2.3837,2.3837,0,0,0-.88-.3085h-.0108a4.1306,4.1306,0,0,1-1.0175-.3184,1.7135,1.7135,0,0,1-.6983-.6055,1.3029,1.3029,0,0,1-.1875-.6924,1.4765,1.4765,0,0,1,.6494-1.21,2.3433,2.3433,0,0,1,1.3584-.4072A2.9508,2.9508,0,0,1,1020.2637,742.1855Z"/><path class="d" d="M1023.4756,739.9746v.2315a.59.59,0,0,1-.1709.4287.5589.5589,0,0,1-.418.1757.5758.5758,0,0,1-.4228-.1757.5829.5829,0,0,1-.1758-.4287v-.2315a.6.6,0,0,1,.5986-.5937.5656.5656,0,0,1,.418.1709A.572.572,0,0,1,1023.4756,739.9746Zm-1.0176,1.7881a.61.61,0,0,1,.8467,0,.5852.5852,0,0,1,.1709.4346v4.289a.5731.5731,0,0,1-.1709.4239.5659.5659,0,0,1-.418.1709.6.6,0,0,1-.5986-.5948v-4.289A.5879.5879,0,0,1,1022.458,741.7627Z"/><path class="d" d="M1026.5557,746.498a.5366.5366,0,0,1-.1875.4122.6083.6083,0,0,1-.4229.1709.5529.5529,0,0,1-.4072-.1709.5588.5588,0,0,1-.1709-.4122v-4.3339a.5884.5884,0,0,1,1.1221-.2422,2.1378,2.1378,0,0,1,1.166-.3408,2.2988,2.2988,0,0,1,2.2988,2.288v2.6289a.5692.5692,0,0,1-.165.4122.5341.5341,0,0,1-.4014.1709.5717.5717,0,0,1-.4121-.1709.5525.5525,0,0,1-.1758-.4122v-2.6289a1.0554,1.0554,0,0,0-.3359-.7871,1.116,1.116,0,0,0-.8028-.3242,1.0632,1.0632,0,0,0-.7871.3242,1.0841,1.0841,0,0,0-.3183.7871Z"/><path class="d" d="M1035.85,746.2725a2.6929,2.6929,0,0,1,0-3.878,2.7663,2.7663,0,0,1,1.97-.8134,2.8161,2.8161,0,0,1,1.7491.6044.57.57,0,0,1,.22.3907.5567.5567,0,0,1-.1152.4345.5751.5751,0,0,1-.3858.22.52.52,0,0,1-.4228-.1211,1.8176,1.8176,0,0,0-1.0948-.3516,1.5309,1.5309,0,0,0-1.0947.4727,1.5177,1.5177,0,0,0-.0049,2.2168,1.5223,1.5223,0,0,0,1.0938.4677,1.8209,1.8209,0,0,0,1.1006-.3525.522.522,0,0,1,.4179-.1094.5791.5791,0,0,1,.3907.22.5393.5393,0,0,1,.1152.4238.6463.6463,0,0,1-.22.4013,2.9482,2.9482,0,0,1-1.7491.5831A2.7181,2.7181,0,0,1,1035.85,746.2725Z"/><path class="d" d="M1041.7676,739.9854a.6.6,0,0,1,.6054-.6045.6043.6043,0,0,1,.4346.1757.5742.5742,0,0,1,.1807.4288v6.49a.5763.5763,0,0,1-.1807.43.604.604,0,0,1-.4346.1758.6.6,0,0,1-.6054-.6055Z"/><path class="d" d="M1044.6,746.2773a2.8858,2.8858,0,0,1,0-3.8877,2.448,2.448,0,0,1,1.8652-.8085,2.4831,2.4831,0,0,1,1.4629.4834.6862.6862,0,0,1,.209-.3457.5469.5469,0,0,1,.3789-.1377.5372.5372,0,0,1,.3965.1757.5814.5814,0,0,1,.17.418v4.3232a.5617.5617,0,0,1-.17.4122.5434.5434,0,0,1-.3965.1709.5615.5615,0,0,1-.3789-.1319.6591.6591,0,0,1-.209-.3418,2.4868,2.4868,0,0,1-1.4629.4737A2.4535,2.4535,0,0,1,1044.6,746.2773Zm.4238-1.9414a1.619,1.619,0,0,0,.4014,1.1172,1.3208,1.3208,0,0,0,1.0342.4512,1.3545,1.3545,0,0,0,1.0449-.4512,1.5833,1.5833,0,0,0,.4121-1.1113,1.6087,1.6087,0,0,0-.418-1.1221,1.3449,1.3449,0,0,0-1.039-.4619,1.32,1.32,0,0,0-1.0283.4561A1.6259,1.6259,0,0,0,1045.0234,744.3359Z"/><path class="d" d="M1054.6377,742.1855a.563.563,0,0,1,.2471.3692.6084.6084,0,0,1-.0713.4453.5666.5666,0,0,1-.3682.2471.558.558,0,0,1-.4453-.0928,2.0022,2.0022,0,0,0-1.0176-.4072,1.0332,1.0332,0,0,0-.6553.1972c-.1171.0811-.1757.1524-.1757.2149a.2749.2749,0,0,0,.0273.1377.3569.3569,0,0,0,.1162.0986,2.1563,2.1563,0,0,0,.8028.2647l.0107.0107h.0107a4.6533,4.6533,0,0,1,1.0674.33,1.55,1.55,0,0,1,.7149.6045,1.4677,1.4677,0,0,1,.2314.76,1.5246,1.5246,0,0,1-.6933,1.2754,2.4562,2.4562,0,0,1-1.43.4405,3.1557,3.1557,0,0,1-1.958-.7588.5635.5635,0,0,1-.2041-.3907.5306.5306,0,0,1,.1269-.4238.52.52,0,0,1,.3955-.22.5528.5528,0,0,1,.43.1318,1.83,1.83,0,0,0,1.21.4844,1.3685,1.3685,0,0,0,.748-.21c.1318-.1093.1983-.2031.1983-.28a.2821.2821,0,0,0-.0332-.1592.3529.3529,0,0,0-.1436-.1319,2.3837,2.3837,0,0,0-.88-.3085h-.0107a4.13,4.13,0,0,1-1.0176-.3184,1.7132,1.7132,0,0,1-.6982-.6055,1.3029,1.3029,0,0,1-.1875-.6924,1.4762,1.4762,0,0,1,.6494-1.21,2.3431,2.3431,0,0,1,1.3584-.4072A2.9508,2.9508,0,0,1,1054.6377,742.1855Z"/><path class="d" d="M1060.05,742.1855a.563.563,0,0,1,.2471.3692.6084.6084,0,0,1-.0713.4453.5666.5666,0,0,1-.3682.2471.558.558,0,0,1-.4453-.0928,2.0022,2.0022,0,0,0-1.0176-.4072,1.0327,1.0327,0,0,0-.6552.1972c-.1172.0811-.1758.1524-.1758.2149a.2749.2749,0,0,0,.0273.1377.3569.3569,0,0,0,.1162.0986,2.1563,2.1563,0,0,0,.8028.2647l.0107.0107h.0107a4.6533,4.6533,0,0,1,1.0674.33,1.55,1.55,0,0,1,.7149.6045,1.4677,1.4677,0,0,1,.2314.76,1.5246,1.5246,0,0,1-.6933,1.2754,2.4559,2.4559,0,0,1-1.43.4405,3.1559,3.1559,0,0,1-1.958-.7588.5635.5635,0,0,1-.2041-.3907.5306.5306,0,0,1,.1269-.4238.52.52,0,0,1,.3955-.22.5528.5528,0,0,1,.43.1318,1.83,1.83,0,0,0,1.21.4844,1.3685,1.3685,0,0,0,.748-.21c.1319-.1093.1983-.2031.1983-.28a.2821.2821,0,0,0-.0332-.1592.3529.3529,0,0,0-.1436-.1319,2.383,2.383,0,0,0-.88-.3085h-.0107a4.13,4.13,0,0,1-1.0176-.3184,1.7132,1.7132,0,0,1-.6982-.6055,1.3029,1.3029,0,0,1-.1875-.6924,1.4765,1.4765,0,0,1,.6494-1.21,2.3431,2.3431,0,0,1,1.3584-.4072A2.9508,2.9508,0,0,1,1060.05,742.1855Z"/><path class="d" d="M1063.2617,739.9746v.2315a.59.59,0,0,1-.1709.4287.5589.5589,0,0,1-.4179.1757.5759.5759,0,0,1-.4229-.1757.5829.5829,0,0,1-.1758-.4287v-.2315a.6.6,0,0,1,.5987-.5937.5655.5655,0,0,1,.4179.1709A.5716.5716,0,0,1,1063.2617,739.9746Zm-1.0176,1.7881a.61.61,0,0,1,.8467,0,.5848.5848,0,0,1,.1709.4346v4.289a.5727.5727,0,0,1-.1709.4239.5659.5659,0,0,1-.4179.1709.6.6,0,0,1-.5987-.5948v-4.289A.5883.5883,0,0,1,1062.2441,741.7627Z"/><path class="d" d="M1069.9609,748.9619a.5987.5987,0,0,1-.8476,0,.5589.5589,0,0,1-.1758-.4072v-1.9356a2.6093,2.6093,0,0,1-3.3662-.3418,2.8114,2.8114,0,0,1,0-3.8877,2.5335,2.5335,0,0,1,1.8926-.8085,2.75,2.75,0,0,1,1.4961.4619.5211.5211,0,0,1,.1972-.33.6162.6162,0,0,1,.3965-.1318.56.56,0,0,1,.4072.1757.5715.5715,0,0,1,.1758.418v6.38A.5589.5589,0,0,1,1069.9609,748.9619Zm-2.48-6.1933a1.409,1.409,0,0,0-1.0508.4736,1.573,1.573,0,0,0-.0108,2.1943,1.41,1.41,0,0,0,1.0665.4678,1.22,1.22,0,0,0,1.0009-.4629,1.5655,1.5655,0,0,0,0-2.1992A1.2758,1.2758,0,0,0,1067.4805,742.7686Z"/><path class="d" d="M1076.9121,744.793a2.1848,2.1848,0,0,1-.6875,1.6113,2.242,2.242,0,0,1-1.6279.6768,2.299,2.299,0,0,1-2.293-2.2881v-2.6289a.5688.5688,0,0,1,.17-.4073.5723.5723,0,0,1,.8252,0,.5694.5694,0,0,1,.1709.4073v2.6289a1.1089,1.1089,0,0,0,1.1221,1.122,1.1191,1.1191,0,0,0,.8076-.3252,1.1,1.1,0,0,0,.3467-.7968v-2.6289a.58.58,0,0,1,.165-.4073.531.531,0,0,1,.4014-.1757.5809.5809,0,0,1,.418.1757.5506.5506,0,0,1,.1816.4073Z"/><path class="d" d="M1084.1064,744.1875a.5073.5073,0,0,1-.16.3906.593.593,0,0,1-.4229.1485h-3.498a1.3191,1.3191,0,0,0,.374.7265,1.5442,1.5442,0,0,0,1.0283.4893,1.6135,1.6135,0,0,0,1.1709-.2695.5761.5761,0,0,1,.44-.1758.4585.4585,0,0,1,.3847.1425.4921.4921,0,0,1,0,.7149,2.7425,2.7425,0,0,1-1.9414.7207,2.5864,2.5864,0,0,1-1.9248-.8086,2.7832,2.7832,0,0,1,0-3.877,2.5017,2.5017,0,0,1,1.875-.8085,2.5784,2.5784,0,0,1,1.8535.7207,2.6506,2.6506,0,0,1,.82,1.831Zm-2.6513-1.5615a1.5556,1.5556,0,0,0-1.0235.3955,1.439,1.439,0,0,0-.4619.7705h3.1133a1.5046,1.5046,0,0,0-.5332-.7481A1.9026,1.9026,0,0,0,1081.4551,742.626Z"/><polygon class="b" points="1070.4 306.471 1015.189 251.045 959.977 306.471 959.977 388.848 1070.4 388.848 1070.4 306.471"/><circle class="e" cx="994.9654" cy="336.9317" r="6.117"/><circle class="e" cx="993.1984" cy="341.3928" r="6.117"/><circle class="e" cx="996.9896" cy="343.0488" r="6.117"/><circle class="e" cx="1001.0824" cy="342.2047" r="6.117"/><circle class="e" cx="1001.7995" cy="343.4787" r="6.117"/><circle class="e" cx="1006.1056" cy="344.2754" r="6.117"/><circle class="e" cx="1030.0874" cy="335.3725" r="6.117"/><circle class="e" cx="1030.9986" cy="339.0176" r="6.117"/><circle class="e" cx="1033.354" cy="340.2498" r="6.117"/><circle class="e" cx="1032.0792" cy="342.2047" r="6.117"/><circle class="e" cx="1010.6752" cy="306.9479" r="5.4914"/><circle class="e" cx="1008.1377" cy="308.6305" r="5.4914"/><circle class="e" cx="1017.9361" cy="306.9479" r="5.4914"/><circle class="e" cx="1014.4262" cy="305.3488" r="5.4914"/><circle class="e" cx="1020.6859" cy="309.8185" r="5.4914"/><circle class="e" cx="1028.7606" cy="343.0488" r="6.117"/><circle class="e" cx="1025.9622" cy="344.2754" r="6.117"/><circle class="e" cx="1021.881" cy="344.2754" r="6.117"/><path class="e" d="M1035.4676,329.7526a23.2044,23.2044,0,0,1-.5734,5.1528,22.1966,22.1966,0,0,0-43.4482,0,23.2044,23.2044,0,0,1-.5734-5.1528,22.3031,22.3031,0,1,1,44.595,0Z"/><path class="f" d="M994.9654,328.863a3.5339,3.5339,0,1,0,0,7.0677"/><path class="f" d="M1031.3438,335.9307a3.5339,3.5339,0,1,0,0-7.0677"/><path class="f" d="M1020.4468,351.0327v-3.8894a20.1383,20.1383,0,0,1-14.3412.2581v4.5836a2.2212,2.2212,0,0,1-1.5779,2.1213,36.3474,36.3474,0,0,0-25.6706,34.7419H1051.52a36.3383,36.3383,0,0,0-29.2707-35.6395A2.2217,2.2217,0,0,1,1020.4468,351.0327Z"/><path class="g" d="M1006.1056,344.9682v5.7763a20.7757,20.7757,0,0,0,14.3412-3.2965v-2.48Z"/><path class="e" d="M1033.354,328.3639a19.999,19.999,0,0,1-.5163,4.5366,20.0843,20.0843,0,0,0-39.123,0,20.0791,20.0791,0,1,1,39.6393-4.5366Z"/><path class="f" d="M1032.8377,332.9005v.01a20.0843,20.0843,0,0,1-39.123,0v-.01a20.1068,20.1068,0,0,1,23.6685-15.1114c.1788.0371,1.0143-3.7087,1.1913-3.6669s-.3039,3.8716-.1285,3.9182A20.1061,20.1061,0,0,1,1032.8377,332.9005Z"/><circle class="e" cx="1005.9462" cy="329.3663" r="1.5912"/><rect class="e" x="1001.9468" y="322.6563" width="4.642" height="1.7528" rx="0.8587" ry="0.8587" transform="matrix(0.9677, -0.2522, 0.2522, 0.9677, -49.1324, 263.7387)"/><circle class="e" cx="1020.2898" cy="329.3663" r="1.5912"/><rect class="e" x="1019.6471" y="322.6563" width="4.642" height="1.7528" rx="0.8587" ry="0.8587" transform="translate(1929.3041 894.3513) rotate(-165.392)"/><path class="e" d="M1005.7881,335.6115a4.9929,4.9929,0,1,1,4.9929-4.9928A4.9986,4.9986,0,0,1,1005.7881,335.6115Zm0-9.5076a4.5148,4.5148,0,1,0,4.5148,4.5148A4.52,4.52,0,0,0,1005.7881,326.1039Z"/><path class="e" d="M1020.4478,335.6115a4.9929,4.9929,0,1,1,4.9928-4.9928A4.9987,4.9987,0,0,1,1020.4478,335.6115Zm0-9.5076a4.5148,4.5148,0,1,0,4.5148,4.5148A4.52,4.52,0,0,0,1020.4478,326.1039Z"/><path class="e" d="M1015.6417,330.92a4.5908,4.5908,0,0,0-4.949-.0649l-.2567-.4033a4.9961,4.9961,0,0,1,5.4736.0724Z"/><path class="e" d="M1013.2221,342.4437a4.969,4.969,0,0,1-2.7917-.8529.239.239,0,1,1,.2679-.3959,4.5888,4.5888,0,0,0,4.949.0649.239.239,0,1,1,.2567.4033A4.9767,4.9767,0,0,1,1013.2221,342.4437Z"/><path class="e" d="M1013.3038,337.6007a2.7436,2.7436,0,0,1-1.5411-.471.2388.2388,0,1,1,.2671-.3959,2.32,2.32,0,0,0,2.498.0327.2391.2391,0,1,1,.2568.4033A2.7464,2.7464,0,0,1,1013.3038,337.6007Z"/><circle class="e" cx="1018.7349" cy="315.5357" r="4.4697"/><circle class="e" cx="1024.8815" cy="317.8794" r="4.4697"/><circle class="e" cx="1011.4873" cy="314.7123" r="4.4697"/><circle class="e" cx="1004.4305" cy="315.3099" r="4.4697"/><path class="g" d="M1019.5723,308.43a4.9984,4.9984,0,0,1-.392,1.1378,9.6883,9.6883,0,0,0-1.9432-.8007,10.0808,10.0808,0,0,0-5.6505,0,9.6891,9.6891,0,0,0-1.9433.8007,5.1275,5.1275,0,0,1-.392-1.1378,10.0516,10.0516,0,0,1,10.321,0Z"/><path class="g" d="M1008.1,304.018a4.8939,4.8939,0,0,1,1.2676,4.729,4.8919,4.8919,0,0,1-5.9966-5.9966A4.8939,4.8939,0,0,1,1008.1,304.018Z"/><path class="g" d="M1006.445,309.15a1.7829,1.7829,0,1,1-.7992,2.9815A3.0856,3.0856,0,0,1,1006.445,309.15Z"/><path class="e" d="M1007.494,327.9736a.2385.2385,0,0,1-.1364-.043,3.8363,3.8363,0,0,0-4.2393-.0569l-.0962.0634-1.2973-.4271a.2389.2389,0,1,1,.1494-.4538l1.08.3553a4.32,4.32,0,0,1,4.6764.127.239.239,0,0,1-.1363.4351Z"/><path class="e" d="M1018.7634,327.9736a.239.239,0,0,1-.1363-.4351,4.32,4.32,0,0,1,4.6768-.127l1.08-.3553a.2389.2389,0,0,1,.1494.4538l-1.2974.4271-.0961-.0634a3.8391,3.8391,0,0,0-4.24.0569A.238.238,0,0,1,1018.7634,327.9736Z"/><path class="h" d="M1021.4374,351.0327V348.689a27.5581,27.5581,0,0,1-6.598,1.3625,23.3656,23.3656,0,0,1-9.4624-1.1043v3.0378a2.2212,2.2212,0,0,1-1.5779,2.1213c-14.8631,4.5553-24.942,18.3865-24.942,34.7419H1051.52c0-17.6487-11.5952-32.3529-28.28-35.6395A2.2217,2.2217,0,0,1,1021.4374,351.0327Z"/><rect class="e" x="1013.4354" y="350.386" width="0.478" height="0.239"/><path class="e" d="M1013.9134,388.1285h-.478v-.4809h.478Zm0-.9617h-.478v-.4808h.478Zm0-.9617h-.478v-.4808h.478Zm0-.9617h-.478v-.4808h.478Zm0-.9617h-.478v-.48h.478Zm0-.9612h-.478V382.84h.478Zm0-.9617h-.478v-.4808h.478Zm0-.9617h-.478v-.4808h.478Zm0-.9616h-.478v-.4809h.478Zm0-.9617h-.478v-.4809h.478Zm0-.9617h-.478v-.4809h.478Zm0-.9617h-.478V377.07h.478Zm0-.9612h-.478v-.4809h.478Zm0-.9617h-.478v-.4809h.478Zm0-.9617h-.478v-.4808h.478Zm0-.9617h-.478v-.4808h.478Zm0-.9617h-.478v-.4808h.478Zm0-.9617h-.478V371.3h.478Zm0-.9616h-.478v-.4809h.478Zm0-.9617h-.478v-.48h.478Zm0-.9613h-.478v-.4808h.478Zm0-.9616h-.478v-.4809h.478Zm0-.9617h-.478v-.4809h.478Zm0-.9617h-.478V365.53h.478Zm0-.9617h-.478v-.4808h.478Zm0-.9617h-.478v-.4808h.478Zm0-.9617h-.478v-.4808h.478Zm0-.9617h-.478v-.48h.478Zm0-.9612h-.478v-.4808h.478Zm0-.9617h-.478v-.4808h.478Zm0-.9617h-.478v-.4808h.478Zm0-.9616h-.478v-.4809h.478Zm0-.9617h-.478v-.4809h.478Zm0-.9617h-.478v-.4809h.478Zm0-.9617h-.478v-.4809h.478Zm0-.9612h-.478v-.4809h.478Zm0-.9617h-.478v-.4809h.478Zm0-.9617h-.478v-.4808h.478Zm0-.9617h-.478v-.4808h.478Z"/><rect class="e" x="1013.4354" y="388.6093" width="0.478" height="0.239"/><path class="i" d="M992.9063,335.0169a1.806,1.806,0,1,0,1.1207.39"/><path class="i" d="M1033.354,335.0169a1.806,1.806,0,1,1-1.1207.39"/></svg>