<svg xmlns="http://www.w3.org/2000/svg" width="688.3199" height="202.1647" viewBox="0 0 688.3199 202.1647"><defs><style>.\34 3b46d60-4666-4c23-aed8-858e43abb49d,.\34 6b2f5cf-ed5c-471e-88a2-98fcd1bea1a3{fill:none;stroke-linecap:round;stroke-linejoin:round;}.\34 3b46d60-4666-4c23-aed8-858e43abb49d{stroke:#f7d5d4;stroke-width:49px;}.\34 f23797d-18f4-4836-8084-4dcccf7ba9aa{fill:#df6762;}.\36 3bfac22-66fd-4312-bea9-c868ff4da1d2{fill:#b58c7a;}.\30 ab8f285-3541-404f-ae78-13b18784f153{fill:#804827;}.d481dbd8-0995-4042-895a-8ce767349da8{fill:#c06c44;}.\39 0ed5435-80b0-4d00-b632-b9a02c0a192c{fill:#1f3936;}.\31 00692ea-b11d-439d-85da-854133455f61{fill:#a27d2e;}.bd5fc77e-f84b-432b-a25b-d47bdbfb8300{fill:#e0af96;}.bf34e0c0-b918-465d-94db-f76977558ece{fill:#4b6c54;}.\31 15998bb-fafd-4c74-9c97-efed3028d049{fill:#36543d;}.e09850a3-8200-467e-8377-cab088cab206{fill:#cf896e;}.\37 59bb954-4cea-4e54-bf8a-3128b3e80e79{fill:#6d7354;}.\36 41de57c-397f-4936-931f-ab043b8a4fe9{fill:#fff;}.\34 6b2f5cf-ed5c-471e-88a2-98fcd1bea1a3{stroke:#d6e9d7;stroke-width:41px;}.a435d3db-645d-4b2e-a4b8-d6956e93d116{fill:#d6e9d7;}</style></defs><title>Gens</title><g id="259aeb59-7e81-40c1-a177-986d0287eb8f" data-name="Dessins"><path class="43b46d60-4666-4c23-aed8-858e43abb49d" d="M268.3224,43.4977a51.2367,51.2367,0,0,1,13.2128-9.1171,4.5975,4.5975,0,0,1,2.216-.6184c1.7825.1357,2.0334,2.2458,1.6623,3.8779-2.7237,11.981-26.1418,21.2267-30.9048,32.9716-.5911,1.4575-17.1014,41.5354,0,32.24,2.5274-1.3738,15.1187-27.42,18.061-29.2864a81.3212,81.3212,0,0,0,26.99-27.8291c2.6515-4.65,6.5244-10.587,11.9155-10.2037a7.0231,7.0231,0,0,1,4.9565,2.844c5.501,6.9539.6038,18.23-7.2862,25.2354s-18.0942,11.2517-27.1672,16.9169-17.7456,14.0283-18.2,23.1937c-.1347,2.7178.8089,5.6932,3.5912,6.4516a10.11,10.11,0,0,0,4.8881-.3214,56.8239,56.8239,0,0,0,29.0512-17.755c7.2139-8.4385,11.1563-18.5626,18.5585-26.8828a21.1962,21.1962,0,0,1,8.297-6.1885c3.3081-1.1925,7.2875-.7932,8.9505,1.5937,2.1321,3.06,1.3066,17.183-1.308,20.63-15.6857,20.68-42.13,24.8335-66.097,37.5614-4.1048,2.18-8.3664,4.4751-11.2292,7.92s-3.8313,8.3953-.9378,11.0147c4.1711,3.7758,12.1844.4175,17.809-3.1912,23.7529-15.24,63.183-9.88,58.0446-26.8192"/><path class="43b46d60-4666-4c23-aed8-858e43abb49d" d="M417.0061,35.2711l6.9393-1.7515c2.1179,17.4286-14.2141,30.5219-17.4947,47.6382C427.398,78.949,442.4775,59.0632,459.3,45.1014c1.8771-1.5579,4.4772-3.0721,6.4119-1.5445,1.1515.9092,1.57,2.594,1.73,4.1551.7744,7.5657-2.5811,14.8185-6.4822,20.9769-11.6993,18.4688-29.4446,31.9628-49.1331,37.3622-2.7518.7547-5.6161,1.393-7.9516,3.173s-4.0212,5.0733-3.2,8.1373c1.2556,4.6852,6.8215,5.5254,11.1463,5.1106,22.6056-2.1676,44.2534-13.9707,59.6112-32.5017,6.827-8.2376-2.5517-16.2809,7.5452-15.9273.9483.0332,3.2295,4.8042,2.775,5.7484-7.2422,15.0442,8.4151,19.91,8.1667,20.6922-7.9637,25.0932-20.8915,19.1653-44.4536,22.9928"/><path class="43b46d60-4666-4c23-aed8-858e43abb49d" d="M572.58,61.4793a37.4072,37.4072,0,0,1,11.9042-25.2377c-.756,28.4786-21.7609,52.7962-25.7106,81.01,2.15,1.152,4.6246-.78,6.194-2.6469,15.0566-17.9115,18.9876-43.5525,35.34-60.2894,3.1193,16.9721-14.143,32.0371-13.1619,49.2655,3.0447,1.3107,5.4762-2.773,6.302-5.9833l9.3555-36.3695c5.9693,18.3844-.4569,38.6272,2.9854,57.6475a4.5653,4.5653,0,0,0,1.2164,2.761c2.0218,1.7338,4.9191-.7892,6.1517-3.15,9.3183-17.8478,4.42-39.9136,10.4608-59.12a178.1155,178.1155,0,0,1,6.7,25.9263c.82,4.5663,1.5513,9.3824,4.3822,13.0579s8.582,5.576,12.1952,2.6661c3.005-2.42,3.251-6.8379,3.15-10.6949a229.9655,229.9655,0,0,0-2.3214-27.1208,43.8109,43.8109,0,0,0,12.5719,17.1757"/><path class="4f23797d-18f4-4836-8084-4dcccf7ba9aa" d="M394.245,157.94a4.5029,4.5029,0,0,1-2.8144,4.34,4.1623,4.1623,0,0,1-.9893.2334c-.165,0-.206-.0136-.206.1924,0,.6592.0136,1.3457.041,2.0049.0137.2744.0693.5488.0693.8232,0,.7422-.5224,1.0166-1.1953,1.0166a1.3228,1.3228,0,0,1-.6865-.1923c-.3428-.22-.3428-.5352-.3565-.9063-.0419-.9883-.0693-1.9775-.0693-2.9658,0-.3164-.2744-.5635-.2744-.8652,0-.2891.2744-.44.2744-.7559,0-1.5107.041-3.0215.041-4.5312a1.836,1.836,0,0,1,.083-.8243,1.1373,1.1373,0,0,1,1.0157-.5088c.248,0,.4814.0967.7285.0967.3427,0,.9336-.206,1.4551-.206A2.75,2.75,0,0,1,394.245,157.94Zm-3.7207,2.9385a3.0486,3.0486,0,0,0,1.5518-2.8018c0-.5762-.165-1.62-.9072-1.62-.2608,0-.9063.124-.9063.44,0,.5634-.0273,1.14-.0273,1.7031v2.0595c0,.11.0693.2471.1924.2471A.2054.2054,0,0,0,390.5243,160.8787Z"/><path class="4f23797d-18f4-4836-8084-4dcccf7ba9aa" d="M402.0175,164.8884c-1.1807,0-2.8145-1.4414-3.02-1.4414-.0967,0-.11.1094-.11.1924,0,.3154.1241.6182.1241.92,0,.5215-.6729.7549-1.0987.7549-1.03,0-1.209-.8232-1.2773-1.6611-.1651-1.9776-.22-3.9688-.2608-5.9463,0-.5225-.2334-1.2773.1924-1.73a5.9614,5.9614,0,0,1,2.8145-.6728c1.3877,0,2.9258.7,2.9258,2.2929,0,1.6622-1.2911,2.9258-2.5137,3.8458a.1888.1888,0,0,0,0,.3427c.8379.5225,1.6621,1.085,2.5273,1.5518.3565.1924.6592.22.6592.8652C402.9794,164.7107,402.457,164.8884,402.0175,164.8884Zm-2.65-7.9785c-.1641,0-.7685.0137-.7685.22,0,.8242.0273,1.6757.082,2.5,0,.0683.0273.1777.124.1777.041,0,.082-.041.1231-.0684a3.4532,3.4532,0,0,0,1.1269-2.17C400.0546,157.0886,399.8349,156.91,399.3671,156.91Z"/><path class="4f23797d-18f4-4836-8084-4dcccf7ba9aa" d="M412.44,159.7527a4.0959,4.0959,0,0,1-4.2159,3.8037,3.2617,3.2617,0,0,1-3.3916-3.5156,3.4861,3.4861,0,0,1,2.2383-3.4736,5.87,5.87,0,0,1,1.7022-.1651A3.4984,3.4984,0,0,1,412.44,159.7527Zm-2.211.124a1.6766,1.6766,0,0,0-1.5791-1.8818c-1.291,0-1.5928.8515-1.5928,2.0742,0,.4941.3018,1.9356,1.043,1.9356A2.2352,2.2352,0,0,0,410.2294,159.8767Z"/><path class="4f23797d-18f4-4836-8084-4dcccf7ba9aa" d="M415.4745,156.3338a11.9786,11.9786,0,0,1,3.0762-.9756,1.0356,1.0356,0,0,1,.2891-.0274c.4531,0,1.0713.2471,1.0713.7832,0,.3565-.3848.6035-.6875.7-.59.1924-1.1944.2744-1.7852.4668-.082.0274-.1787.0547-.2607.082a.4323.4323,0,0,0-.2471.3575c0,.3017.0137.6181.0137.92a.2343.2343,0,0,0,.2334.2471c.0273,0,.041-.0137.0683-.0137a7.2459,7.2459,0,0,1,1.5244-.2471c.4668,0,1.1543.1924,1.1543.7686,0,.4121-.4394.7011-.7968.7558a19.0467,19.0467,0,0,0-1.9776.3575.1922.1922,0,0,0-.1787.22c0,.1094.0273.2051.0273.3154.0274.5215.0274,1.03.0411,1.5518.0146.4394.0556.8925.0556,1.332,0,.5908-.5361.81-1.0576.81-.4394,0-1.03-.1787-1.1123-.7a7.4,7.4,0,0,1-.0547-1.0987q0-.9477-.042-1.8955c0-.0683.0137-.124.0137-.1924,0-.2744-.5488-.2881-.5488-.8105,0-.48.4941-.48.4941-.8233,0-.3847-.0137-.7695-.0137-1.1543,0-.288-.3291-.4257-.3291-.7275C414.4452,156.8963,415.1318,156.5115,415.4745,156.3338Z"/><path class="4f23797d-18f4-4836-8084-4dcccf7ba9aa" d="M425.6366,156.7869c-.3574,0-.7-.0283-1.0576-.0283a.2815.2815,0,0,0-.3154.289c-.0273.2744-.0137.5488-.0273.8242-.0137.3155-.0411.6446-.0411.961,0,.1094.0411.22.1641.22.165,0,.7695-.4258,1.3047-.4258.4531,0,1.0576.2471,1.0576.7832,0,.7823-1.7441,1.1807-2.3486,1.3594a.3265.3265,0,0,0-.22.3154,23.1039,23.1039,0,0,0,.1514,2.376c.0137.1514-.041.3291.1787.3291.3018,0,.6182-.082.92-.082.4668,0,1.14.206,1.14.7832,0,.8369-1.4551.8652-2.0322.8652s-1.7442,0-2.1153-.4951a2.2989,2.2989,0,0,1-.22-1.0156,25.4261,25.4261,0,0,1-.1924-3.0625c0-1.4287.083-2.8428.0967-4.2715.0137-.6592.041-1.2217.7822-1.2627.8516-.042,1.0713-.0283,2.2119-.0283a2.9217,2.9217,0,0,1,1.14.1377.7694.7694,0,0,1,.5215.6728C426.7353,156.5672,426.0761,156.7869,425.6366,156.7869Z"/><path class="4f23797d-18f4-4836-8084-4dcccf7ba9aa" d="M433.2851,155.4548c-.4942.8233-1.9776.1094-1.9776,2.0186,0,2.32,1.9366,4.5039,1.9366,6.7285,0,1.6621-1.3047,2.3623-2.8155,2.3623-.5351,0-1.6338-.041-1.6338-.7969,0-.6308.7-.81,1.2081-.81.4951,0,.9755.1094.9755-.5772,0-2.0869-1.9228-4.4492-1.9228-6.9072a3.4629,3.4629,0,0,1,3.2275-3.1318C432.832,154.3416,433.67,154.823,433.2851,155.4548Z"/><path class="4f23797d-18f4-4836-8084-4dcccf7ba9aa" d="M439.9316,162.1287c0,1.8261-1.8545,2.3623-3.3643,2.3623-.4394,0-1.1133-.1514-1.1133-.7012a.8331.8331,0,0,1,.3711-.6445c.5635-.3985,1.9092.041,1.9092-.9073,0-1.2763-1.5791-3.1855-1.5791-4.7509,0-1.5928,1.7305-2.0049,3.0068-2.0049.4532,0,1.126.15,1.126.7275a.8772.8772,0,0,1-.6445.7412c-.33.11-1.3184,0-1.3184.4668C438.3251,158.38,439.9316,160.5359,439.9316,162.1287Z"/><path class="4f23797d-18f4-4836-8084-4dcccf7ba9aa" d="M442.5536,158.1736c.083-.4258.55-.5772.9346-.5772.5078,0,1.167.2608,1.167.8516,0,1.126-.124,2.0879-.124,3.2139a3.1115,3.1115,0,0,0,.083,1.2773.5128.5128,0,0,1,.0683.2471,1.2037,1.2037,0,0,1-.082.37,1.0526,1.0526,0,0,1-1.085.6875c-.9482,0-1.1679-.55-1.1679-1.3877,0-.22.0146-.4394.0146-.6592A20.7656,20.7656,0,0,1,442.5536,158.1736Zm-.082-2.5957a.9729.9729,0,0,1,1.085-.8789c.5351,0,1.0986.2881,1.0986.8789,0,.6045-.5635.8926-1.0986.8926A.974.974,0,0,1,442.4716,155.5779Z"/><path class="4f23797d-18f4-4836-8084-4dcccf7ba9aa" d="M446.578,160.33c0-2.1015,1.2081-4.3945,3.419-4.7656a8.6238,8.6238,0,0,1,1.332-.124c2.2656,0,3.42,1.5244,3.42,3.6943,0,2.6368-1.621,4.9717-4.4218,4.9717A3.532,3.532,0,0,1,446.578,160.33Zm2.1973-.083c0,1.03.3428,2.3077,1.5928,2.3077,1.4834,0,2.1973-2.1153,2.1973-3.3506,0-.55-.22-2.0879-.9483-2.0879-.1641,0-.3154.041-.4805.041-.1923,0-.3837-.041-.5761-.041C449.3925,157.116,448.7753,159.3132,448.7753,160.2468Z"/><path class="4f23797d-18f4-4836-8084-4dcccf7ba9aa" d="M458.9228,163.8591c0,.59-.5908.81-1.085.81a1.2678,1.2678,0,0,1-1.03-.4248,1.7654,1.7654,0,0,1-.15-.8789c-.0966-1.2227-.0273-3.97-.0273-5.2051,0-1.5107.7139-1.9092,2.0869-1.9092,2.4717,0,3.2822,3.626,3.6123,3.8184.0547,0,.0547-.11.0547-.1377.0684-.6182.0137-1.5791.0137-2.1973,0-.3017-.041-.6044-.041-.9062,0-.8379.3427-1.209,1.1943-1.209s1.1123.4531,1.1123,1.2363a46.31,46.31,0,0,1-.4121,6.0147,1.5649,1.5649,0,0,1-.6035,1.168,2.1117,2.1117,0,0,1-.9209.206c-.4668,0-.9063-.9482-1.167-1.333-1.0986-1.6338-1.4971-3.2539-2.417-4.5312a.1963.1963,0,0,0-.165-.0831c-.3018,0-.2334,1.3331-.2334,1.5528C458.7441,161.2908,458.9228,162.43,458.9228,163.8591Z"/><path class="4f23797d-18f4-4836-8084-4dcccf7ba9aa" d="M473.1083,163.8865c-.9472,0-1.497-.9756-1.9775-1.6485-.22-.3017-1.7715-2.5126-1.9092-2.5537-.082,0-.082.1094-.082.15-.0821,1.0166-.1787,2.0469-.1787,3.0625,0,.6455-.0411,1.1817-.7959,1.3184a2.2649,2.2649,0,0,1-.3164.0283c-.6592,0-1.126-.2754-1.126-.9892,0-.7413.0547-1.4834.1094-2.2247.0966-1.2226.11-2.4443.11-3.667,0-.7548.2744-1.14,1.085-1.14,1.73,0,3.5293,3.4473,3.8867,3.57.0683,0,.0683-.1094.0683-.15v-2.2666c0-.2881-.041-.5762-.041-.8652a1.0211,1.0211,0,0,1,1.1533-1.14c.6729,0,1.1124.2881,1.1124.9893v6.207C474.207,163.365,474.0282,163.8865,473.1083,163.8865Z"/><path class="4f23797d-18f4-4836-8084-4dcccf7ba9aa" d="M481.3066,163.9c-.4668.8652-2.17.9609-3.0352.9609h-.6182c-1.3593,0-1.2627-1.7715-1.332-2.7188-.041-.55-.0547-1.0986-.0547-1.6484a33.8907,33.8907,0,0,1,.2881-4.2568,1.1669,1.1669,0,0,1,.8242-1.0166,2.5948,2.5948,0,0,1,.7969-.0957c.2471,0,.5078.0136.7686.0136.55,0,1.0986.0274,1.6894.0274.4258,0,.9609.1787.9609.7,0,.9345-1.9912.7832-2.623.8242a.3534.3534,0,0,0-.3428.3027,16.9336,16.9336,0,0,0-.1377,1.6885.2855.2855,0,0,0,.2881.3027h.7149c.2744,0,.5488-.0283.8369-.0283.4541,0,1.0166.2061,1.0166.7559,0,.7549-1.03.81-1.5655.81h-.5078c-.2754,0-.8379-.11-.8379.3155a19.21,19.21,0,0,0,.1231,1.9912v.082c0,.1787-.041.4121.206.4121.55,0,1.003-.4668,1.5518-.4668.4121,0,1.0713.2471,1.0713.7422A.5888.5888,0,0,1,481.3066,163.9Z"/><path class="4f23797d-18f4-4836-8084-4dcccf7ba9aa" d="M486.3593,162.6365c.44,0,.8789-.1231,1.3184-.1231.4121,0,1.2363.2608,1.2363.7686,0,.9062-2.0049.92-2.6094.92a5.2154,5.2154,0,0,1-2.3213-.3838.9038.9038,0,0,1-.3291-.7832,56.6817,56.6817,0,0,1,.6729-5.9052c.041-.4532-.0274-1.126.3154-1.47a1.3187,1.3187,0,0,1,.8936-.3154c.5761,0,1.1123.2744,1.1123.92a8.87,8.87,0,0,1-.1377,1.03,44.7316,44.7316,0,0,0-.6045,5.0264C485.9062,162.6228,486.1259,162.6365,486.3593,162.6365Z"/><path class="4f23797d-18f4-4836-8084-4dcccf7ba9aa" d="M495.121,155.4548c-.4941.8233-1.9775.1094-1.9775,2.0186,0,2.32,1.9365,4.5039,1.9365,6.7285,0,1.6621-1.3047,2.3623-2.8154,2.3623-.5362,0-1.6348-.041-1.6348-.7969,0-.6308.7012-.81,1.209-.81.4941,0,.9746.1094.9746-.5772,0-2.0869-1.9219-4.4492-1.9219-6.9072a3.4633,3.4633,0,0,1,3.2266-3.1318C494.6679,154.3416,495.5058,154.823,495.121,155.4548Z"/><path class="4f23797d-18f4-4836-8084-4dcccf7ba9aa" d="M392.1239,171.7683c2.65,0,4.2989,2.1563,4.2989,4.6963a4.3081,4.3081,0,0,1-4.2852,4.6006,4.5794,4.5794,0,0,1-.9609-.0957c-.55-.124-.8926-.3438-.9483-.9482-.0546-.6592-.123-1.3047-.1914-1.9639a26.6079,26.6079,0,0,1-.248-2.9658,5.8938,5.8938,0,0,1,.1787-1.62.7715.7715,0,0,0,.083-.289c0-.1787-.11-.3154-.11-.4942C389.94,171.9334,391.5751,171.7683,392.1239,171.7683Zm.6045,7.69c1.14-.4668,1.5245-1.8819,1.5245-3.0079a3.5173,3.5173,0,0,0-1.1124-2.788,1.5278,1.5278,0,0,0-.6728-.3155.78.78,0,0,0-.3574.3438,3.5942,3.5942,0,0,0-.1514,1.208,37.9909,37.9909,0,0,0,.3711,4.3262c.0137.123.0684.288.22.288A.895.895,0,0,0,392.7284,179.4588Z"/><path class="4f23797d-18f4-4836-8084-4dcccf7ba9aa" d="M402.1347,173.2654c-.3574,0-.7-.0283-1.0576-.0283a.2817.2817,0,0,0-.3155.289c-.0273.2744-.0136.5489-.0273.8243-.0137.3154-.041.6445-.041.9609,0,.1094.041.22.164.22.1651,0,.77-.4258,1.3047-.4258.4532,0,1.0576.2471,1.0576.7832,0,.7823-1.7441,1.1807-2.3486,1.3594a.3264.3264,0,0,0-.22.3154,23.0758,23.0758,0,0,0,.1514,2.376c.0136.1514-.0411.3291.1787.3291.3017,0,.6181-.082.92-.082.4668,0,1.14.206,1.14.7832,0,.8369-1.455.8652-2.0322.8652s-1.7441,0-2.1152-.4951a2.2976,2.2976,0,0,1-.22-1.0156,25.4056,25.4056,0,0,1-.1924-3.0625c0-1.4287.083-2.8428.0966-4.2715.0137-.6592.0411-1.2217.7823-1.2627.8515-.042,1.0713-.0283,2.2119-.0283a2.9212,2.9212,0,0,1,1.14.1377.7692.7692,0,0,1,.5215.6728C403.2333,173.0457,402.5741,173.2654,402.1347,173.2654Z"/><path class="4f23797d-18f4-4836-8084-4dcccf7ba9aa" d="M411.02,178.7586l.0273.247a.2956.2956,0,0,0,.2881.2471h2.2666c.4121,0,1.0849.2607,1.0849.7686a.52.52,0,0,1-.0419.1923c-.22.6319-1.14.5909-1.6749.5909-.4941,0-.9755-.0137-1.456-.0137-.3291,0-.6592.0273-.9883.0273a3.2869,3.2869,0,0,1-.7285-.0683c-.6035-.1377-.7-.4668-.7959-1.03a26.3946,26.3946,0,0,1-.2754-4.2988c0-.6455.0147-1.3047.0147-1.9493,0-.1513-.0147-.3027-.0147-.4541,0-.7138.4121-1.0019,1.0986-1.0019.6182,0,1.0987.2744,1.0987.9473,0,.165-.0274.33-.0274.4941A36.44,36.44,0,0,0,411.02,178.7586Z"/><path class="4f23797d-18f4-4836-8084-4dcccf7ba9aa" d="M417.8993,171.8093a15.8659,15.8659,0,0,1-1.291,3.2549l-.7695.0957a19.3953,19.3953,0,0,0,.81-3.2265Z"/><path class="4f23797d-18f4-4836-8084-4dcccf7ba9aa" d="M424.4765,180.447a3.344,3.344,0,0,1-2.0733.7285c-2.72,0-3.1591-2.8847-3.1591-4.999a8.72,8.72,0,0,1,.4394-2.9111,1.1461,1.1461,0,0,1,1.127-.8379c.4668,0,1.0849.22,1.0849.7822a.8119.8119,0,0,1-.0693.3028A7.9932,7.9932,0,0,0,421.4,176.19a11.7672,11.7672,0,0,0,.124,1.7031c.0684.4531.3565,1.7158.9473,1.7158a.6658.6658,0,0,0,.4668-.2334c.9893-.9062,1.2637-3.46,1.2637-4.7509a10.7067,10.7067,0,0,0-.041-1.14c-.0274-.33-.1377-.6455-.1377-.9892,0-.6182.5361-.8516,1.0849-.8516a.9565.9565,0,0,1,1.044.7,8.7784,8.7784,0,0,1,.22,2.1562C426.372,176.3552,426.0146,179.2117,424.4765,180.447Z"/><path class="4f23797d-18f4-4836-8084-4dcccf7ba9aa" d="M434.5693,178.9783c.165.123.3711.206.5224.3428a.7869.7869,0,0,1,.2881.5771c0,.5488-.6318.7412-1.0713.7412-.0683,0-.123-.0137-.1924-.0137-1.0019-.0957-2.7461-2.1562-3.1035-2.1562-.165,0-.1367.4258-.15.5361l-.165,2.17c-.0547.6866-.5225.961-1.1817.961-.7685,0-1.0849-.4121-1.0849-1.1533,0-.33.0557-.6592.0557-.9893a6.2577,6.2577,0,0,1,.1923-1.085c.0957-1.6337.1914-3.2822.3291-4.916,0-.0547.0137-.11.0137-.1787,0-.3017-.3428-.3847-.3428-.7,0-1.0166,2.6368-1.5107,3.4053-1.5107,1.5381,0,3.2549.8379,3.2549,2.582a2.4388,2.4388,0,0,1-.1514.8379,4.5582,4.5582,0,0,1-2.2246,2.252c-.0683.041-.123.082-.123.165A14.2759,14.2759,0,0,0,434.5693,178.9783Zm-3.337-2.7744a.2572.2572,0,0,0,.0967-.0274c.81-.3437,1.8262-1.0849,1.8262-2.06,0-.6446-.5078-.9473-1.0986-.9473a2.268,2.268,0,0,0-.5215.0684.4631.4631,0,0,0-.3028.4121c-.0546.7695-.165,1.5654-.165,2.3349C431.0673,176.0935,431.1093,176.2039,431.2323,176.2039Z"/><path class="4f23797d-18f4-4836-8084-4dcccf7ba9aa" d="M437.6454,172.0427a3.5308,3.5308,0,0,1,1.14-.4941,3.0745,3.0745,0,0,1,1.2637-.2744,2.733,2.733,0,0,1,2.8291,2.581,4.6345,4.6345,0,0,1-1.2227,2.5411c0,.082.0684.1367.1377.1787a2.8753,2.8753,0,0,1,1.6338,2.5127,3.4739,3.4739,0,0,1-3.3916,3.2138,2.8146,2.8146,0,0,1-1.5791-.48,1.2016,1.2016,0,0,1-.4258-1.0713c-.0557-1.47-.1924-2.9258-.2891-4.3809a20.5215,20.5215,0,0,0-.2607-3.31,1.59,1.59,0,0,1-.041-.3574A.9474.9474,0,0,1,437.6454,172.0427Zm2.3067.8379c-.1367,0-.1641.1514-.1641.2608,0,.5634.0684,1.2636.1231,1.84,0,.0693.0273.1651.11.1651.3154,0,.6182-.961.6182-1.2217C440.64,173.5535,440.3915,172.8806,439.9521,172.8806Zm1.2636,6.125c0-.4531-.4941-1.1816-.9062-1.1816-.1377,0-.1787.124-.1787.2334,0,.5635.0693,1.6621.124,2.2392.0137.0821.0547.1778.15.1778C440.8036,180.4744,441.2157,179.3484,441.2157,179.0056Z"/><path class="4f23797d-18f4-4836-8084-4dcccf7ba9aa" d="M450.5946,172.6882c.2891,1.3321.9063,2.5127,1.2364,3.8311a15.2276,15.2276,0,0,1,.7,3.6533c0,.5635-.6319.7969-1.1123.7969-1.1944,0-1.085-.6729-1.1807-1.4971-.0137-.1513-.11-.9062-.2334-.9062a4.7973,4.7973,0,0,0-.6182.082c-.5087.0684-1.0166.11-1.5244.1514-.1924.0136-.1787.0136-.22.1924-.165.7822-.2061,1.538-1.2363,1.538-.4805,0-1.126-.206-1.126-.7832,0-.4394.2471-.8925.2471-1.332,0-.124-.041-.2607-.041-.3848,0-.2744.22-.4121.3017-.6455.6182-1.8808,1.6484-4.4765,2.9531-5.4511a1.221,1.221,0,0,1,.7-.1924A1.1616,1.1616,0,0,1,450.5946,172.6882Zm-1.208,4.3536a.2942.2942,0,0,0,.2608-.2745c0-.124-.3985-1.5527-.4531-1.7724-.0137-.041-.0411-.1367-.0967-.1367a7.6483,7.6483,0,0,0-.9063,2.1836c0,.0546.0274.1367.0967.1367A7.5655,7.5655,0,0,0,449.3866,177.0418Z"/><path class="4f23797d-18f4-4836-8084-4dcccf7ba9aa" d="M462.9267,173.21a16.5275,16.5275,0,0,1-1.0713,6.0567.9272.9272,0,0,1-.9063.5625,1.7087,1.7087,0,0,1-1.1816-.4942c-.8506-.8515-1.5791-1.9082-2.4307-2.7187a.2093.2093,0,0,0-.15-.083c-.083,0-.11.0967-.124.165a20.7059,20.7059,0,0,0-.3984,2.6094c-.082.7275.042,1.6758-.8789,1.8681a2.05,2.05,0,0,1-.2881.0274c-.4258,0-1.03-.1514-1.0986-.6592a1.5,1.5,0,0,1-.0137-.2471,11.06,11.06,0,0,1,.1377-1.1679,27.9027,27.9027,0,0,1,.81-4.4082,1.01,1.01,0,0,1,1.0439-.7276c1.3047,0,2.9248,1.9912,3.7627,2.8975a.21.21,0,0,0,.1377.082c.082,0,.1094-.082.123-.1367a27.6183,27.6183,0,0,0,.3985-4.1748c.0273-.6182.0136-1.14.7138-1.3457a1.431,1.431,0,0,1,.4122-.0557c.6455,0,1.0986.3028,1.0986.9893C463.0224,172.5642,462.954,172.8806,462.9267,173.21Z"/><path class="4f23797d-18f4-4836-8084-4dcccf7ba9aa" d="M465.15,177.4539v-2.9805c0-.5771.6182-.7969,1.0986-.7969,1.1124,0,1.14.7149,1.14,1.6074,0,.8243-.041,1.167-.041,1.9913V180.75c0,.5761-.6182.81-1.1123.81-1.2354,0-1.14-.92-1.14-1.84C465.0956,178.9646,465.15,178.2088,465.15,177.4539Zm1.1543-5.04c-1.4287,0-1.7725-1.95.0547-1.95C467.7734,170.4636,468.1034,172.4138,466.3046,172.4138Z"/><path class="4f23797d-18f4-4836-8084-4dcccf7ba9aa" d="M474.0351,171.9334c-.4942.8232-1.9776.1093-1.9776,2.0185,0,2.32,1.9366,4.5039,1.9366,6.7285,0,1.6621-1.3047,2.3623-2.8155,2.3623-.5351,0-1.6338-.041-1.6338-.7968,0-.6309.7-.81,1.2081-.81.4951,0,.9755.1094.9755-.5772,0-2.0869-1.9228-4.4492-1.9228-6.9072a3.4629,3.4629,0,0,1,3.2275-3.1318C473.582,170.82,474.42,171.3015,474.0351,171.9334Z"/><path class="4f23797d-18f4-4836-8084-4dcccf7ba9aa" d="M481.1757,175.7644c.6455-1.126,1.7852-3.4609,3.31-3.4609a1.6829,1.6829,0,0,1,.2607.0273c.7969.1514.8379.7422.9209,1.4151a25.9559,25.9559,0,0,1,.15,3.09c0,.7275-.0273,1.4551-.0273,2.17,0,.92.041,1.6065-1.1534,1.6065-.6318,0-1.0986-.3018-1.0986-.9746,0-1.0987.082-2.1973.082-3.2823,0-.11.0274-.4668-.0546-.5361-.0411,0-1.0577,1.8818-1.1944,2.1289-.33.5625-.6181,1.085-1.333,1.1807a1.04,1.04,0,0,1-.2051.0136c-1.4287,0-1.7724-2.8427-2.1425-3.0625-.0547.0137-.0694.0967-.0694.1377a17.9551,17.9551,0,0,0-.1777,2.8428c-.0137.6045-.1787.9746-.8106,1.0986a2.253,2.253,0,0,1-.3154.0274c-.5771,0-1.1133-.2471-1.1133-.9063a19.4872,19.4872,0,0,1,.55-4.8886c.1924-.7559.3575-1.6211,1.3047-1.6758h.0957c1.5938,0,2.2393,1.84,2.7608,3.0351.0273.0547.0683.1377.1377.1377C481.1073,175.8884,481.1484,175.8054,481.1757,175.7644Z"/><path class="4f23797d-18f4-4836-8084-4dcccf7ba9aa" d="M492.9169,180.3787c-.4668.8652-2.17.9609-3.0351.9609h-.6182c-1.3594,0-1.2627-1.7715-1.332-2.7187-.0411-.55-.0547-1.0987-.0547-1.6485a33.892,33.892,0,0,1,.2881-4.2568,1.1669,1.1669,0,0,1,.8242-1.0166,2.5975,2.5975,0,0,1,.7969-.0957c.247,0,.5078.0137.7685.0137.55,0,1.0986.0273,1.69.0273.4257,0,.9609.1787.9609.7,0,.9346-1.9912.7832-2.623.8242a.3533.3533,0,0,0-.3428.3027,16.9062,16.9062,0,0,0-.1377,1.6885.2855.2855,0,0,0,.2881.3028h.7148c.2744,0,.5488-.0284.8369-.0284.4541,0,1.0166.2061,1.0166.7559,0,.7549-1.03.81-1.5654.81h-.5078c-.2754,0-.8379-.11-.8379.3155a19.2374,19.2374,0,0,0,.123,1.9912v.082c0,.1787-.041.4121.2061.4121.55,0,1.0029-.4668,1.5518-.4668.4121,0,1.0712.2471,1.0712.7422A.5888.5888,0,0,1,492.9169,180.3787Z"/><path class="63bfac22-66fd-4312-bea9-c868ff4da1d2" d="M421.116,80.6075a3.5613,3.5613,0,1,0,0,7.1225"/><path class="63bfac22-66fd-4312-bea9-c868ff4da1d2" d="M457.7766,87.4289a3.5613,3.5613,0,1,0,0-7.1225"/><path class="63bfac22-66fd-4312-bea9-c868ff4da1d2" d="M446.7951,102.9491V99.03a20.2947,20.2947,0,0,1-14.4525.26v4.6191a2.2386,2.2386,0,0,1-1.59,2.1378,36.629,36.629,0,0,0-25.87,35.0114h73.2261a36.62,36.62,0,0,0-29.4977-35.916A2.2389,2.2389,0,0,1,446.7951,102.9491Z"/><path class="0ab8f285-3541-404f-ae78-13b18784f153" d="M455.0969,107.0677a25.7032,25.7032,0,0,1-15.6928,9.0266h-.012a26.3015,26.3015,0,0,1-14.5288-7.6545,36.6055,36.6055,0,0,0-19.9805,32.6182H478.109A36.6123,36.6123,0,0,0,455.0969,107.0677Z"/><path class="d481dbd8-0995-4042-895a-8ce767349da8" d="M432.3426,96.8375v5.8212a20.9372,20.9372,0,0,0,14.4525-3.3221V96.8375Z"/><path class="90ed5435-80b0-4d00-b632-b9a02c0a192c" d="M459.8024,80.1045a20.156,20.156,0,0,1-.52,4.5718,20.24,20.24,0,0,0-39.4265,0,20.2349,20.2349,0,1,1,39.9468-4.5718Z"/><path class="63bfac22-66fd-4312-bea9-c868ff4da1d2" d="M459.2821,84.6763v.01a20.24,20.24,0,0,1-39.4265,0v-.01a20.263,20.263,0,0,1,23.8521-15.2287c.18.0374,1.0221-3.7375,1.2006-3.6953s-.3063,3.9016-.13,3.9486A20.262,20.262,0,0,1,459.2821,84.6763Z"/><circle class="90ed5435-80b0-4d00-b632-b9a02c0a192c" cx="432.182" cy="81.1146" r="1.6036"/><rect class="90ed5435-80b0-4d00-b632-b9a02c0a192c" x="428.1516" y="74.3526" width="4.678" height="1.7664" rx="0.8832" ry="0.8832" transform="translate(-5.0588 111.0035) rotate(-14.608)"/><circle class="90ed5435-80b0-4d00-b632-b9a02c0a192c" cx="446.6368" cy="81.1146" r="1.6036"/><rect class="90ed5435-80b0-4d00-b632-b9a02c0a192c" x="445.9892" y="74.3526" width="4.678" height="1.7664" rx="0.8832" ry="0.8832" transform="matrix(-0.9677, -0.2522, 0.2522, -0.9677, 863.1891, 261.1097)"/><path class="90ed5435-80b0-4d00-b632-b9a02c0a192c" d="M432.0227,87.4084a5.0316,5.0316,0,1,1,5.0316-5.0316A5.0374,5.0374,0,0,1,432.0227,87.4084Zm0-9.5814a4.55,4.55,0,1,0,4.55,4.55A4.5549,4.5549,0,0,0,432.0227,77.827Z"/><path class="90ed5435-80b0-4d00-b632-b9a02c0a192c" d="M446.7961,87.4084a5.0316,5.0316,0,1,1,5.0316-5.0316A5.0375,5.0375,0,0,1,446.7961,87.4084Zm0-9.5814a4.55,4.55,0,1,0,4.55,4.55A4.5548,4.5548,0,0,0,446.7961,77.827Z"/><path class="90ed5435-80b0-4d00-b632-b9a02c0a192c" d="M441.9527,82.6805a4.6264,4.6264,0,0,0-4.9873-.0654l-.2588-.406a5.0342,5.0342,0,0,1,5.5162.0724Z"/><path class="90ed5435-80b0-4d00-b632-b9a02c0a192c" d="M439.5143,94.2935a5.0054,5.0054,0,0,1-2.8133-.8595.2408.2408,0,0,1,.27-.3989,4.6262,4.6262,0,0,0,4.9874.0654.2407.2407,0,1,1,.2587.406A5.0149,5.0149,0,0,1,439.5143,94.2935Z"/><path class="90ed5435-80b0-4d00-b632-b9a02c0a192c" d="M439.5966,89.413a2.7674,2.7674,0,0,1-1.5534-.4745.2411.2411,0,0,1,.27-.3994,2.3342,2.3342,0,0,0,2.517.0332.2407.2407,0,1,1,.2587.406A2.7682,2.7682,0,0,1,439.5966,89.413Z"/><circle class="90ed5435-80b0-4d00-b632-b9a02c0a192c" cx="425.5178" cy="65.752" r="6.1825"/><circle class="90ed5435-80b0-4d00-b632-b9a02c0a192c" cx="431.1784" cy="59.871" r="6.1825"/><circle class="90ed5435-80b0-4d00-b632-b9a02c0a192c" cx="438.8954" cy="59.2688" r="6.1825"/><circle class="90ed5435-80b0-4d00-b632-b9a02c0a192c" cx="448.2404" cy="59.871" r="6.1825"/><circle class="90ed5435-80b0-4d00-b632-b9a02c0a192c" cx="452.9776" cy="64.4293" r="6.1825"/><circle class="90ed5435-80b0-4d00-b632-b9a02c0a192c" cx="456.9069" cy="68.351" r="6.1825"/><circle class="90ed5435-80b0-4d00-b632-b9a02c0a192c" cx="445.5937" cy="67.1767" r="4.5043"/><circle class="90ed5435-80b0-4d00-b632-b9a02c0a192c" cx="452.35" cy="69.5386" r="4.5043"/><circle class="90ed5435-80b0-4d00-b632-b9a02c0a192c" cx="438.2899" cy="66.347" r="4.5043"/><circle class="90ed5435-80b0-4d00-b632-b9a02c0a192c" cx="431.1784" cy="66.9492" r="4.5043"/><path class="100692ea-b11d-439d-85da-854133455f61" d="M313.3626,78.8191a83.3133,83.3133,0,0,0,.843,15.8978c.6119,4.0815,2.8781,12.1673,3.8139,15.3759-3.1285.9877-6.4218,1.9208-9.8759,2.77-9.76,2.4-31.7455-.6792-39.8673-.1139"/><path class="100692ea-b11d-439d-85da-854133455f61" d="M254.5087,108.6475a23.9385,23.9385,0,0,0,5.1387-4.3357,25.1148,25.1148,0,0,0,5.9416-12.8467l2.2648-13.4982,22.6256-14.7646v44.3211c-1.6733.8551-11.495,5.759-21.5583,5.2591a29.2389,29.2389,0,0,1-12.8869-3.2518C255.3814,109.1816,254.8572,108.8654,254.5087,108.6475Z"/><path class="bd5fc77e-f84b-432b-a25b-d47bdbfb8300" d="M297.7057,103.2294V99.31a20.2951,20.2951,0,0,1-14.4526.26v4.6191a2.2384,2.2384,0,0,1-1.59,2.1378,36.629,36.629,0,0,0-25.87,35.0114H329.02a36.62,36.62,0,0,0-29.4978-35.916A2.2388,2.2388,0,0,1,297.7057,103.2294Z"/><path class="d481dbd8-0995-4042-895a-8ce767349da8" d="M283.2531,97.1179v5.8211a20.9373,20.9373,0,0,0,14.4526-3.3221v-2.499Z"/><path class="bd5fc77e-f84b-432b-a25b-d47bdbfb8300" d="M310.7129,80.3848a20.15,20.15,0,0,1-.52,4.5718,20.24,20.24,0,0,0-39.4264,0,20.2348,20.2348,0,1,1,39.9467-4.5718Z"/><path class="100692ea-b11d-439d-85da-854133455f61" d="M310.7129,80.3848a20.15,20.15,0,0,1-.52,4.5718,20.24,20.24,0,0,0-39.4264,0,20.2348,20.2348,0,1,1,39.9467-4.5718Z"/><path class="100692ea-b11d-439d-85da-854133455f61" d="M313.3626,81.41a22.79,22.79,0,0,1-.5885,5.17,22.8905,22.8905,0,0,0-44.5894,0,22.8847,22.8847,0,1,1,45.1779-5.17Z"/><path class="bd5fc77e-f84b-432b-a25b-d47bdbfb8300" d="M310.1926,84.9566v.01a20.24,20.24,0,0,1-39.4264,0v-.01a20.2629,20.2629,0,0,1,23.852-15.2287c.18.0374,1.0222-3.7375,1.2006-3.6953s-.3063,3.9016-.13,3.9486A20.2619,20.2619,0,0,1,310.1926,84.9566Z"/><circle class="90ed5435-80b0-4d00-b632-b9a02c0a192c" cx="283.0926" cy="81.3949" r="1.6036"/><circle class="d481dbd8-0995-4042-895a-8ce767349da8" cx="280.2043" cy="88.0951" r="2.8882"/><path class="d481dbd8-0995-4042-895a-8ce767349da8" d="M290.1558,95.2a3.1328,3.1328,0,0,1-3.129-3.1293.2409.2409,0,1,1,.4817,0,2.6473,2.6473,0,1,0,5.2946,0,.2409.2409,0,1,1,.4817,0A3.1328,3.1328,0,0,1,290.1558,95.2Z"/><path class="bd5fc77e-f84b-432b-a25b-d47bdbfb8300" d="M272.1491,80.8878a3.5613,3.5613,0,1,0,0,7.1225"/><path class="bd5fc77e-f84b-432b-a25b-d47bdbfb8300" d="M308.81,87.7092a3.5613,3.5613,0,1,0,0-7.1225"/><rect class="100692ea-b11d-439d-85da-854133455f61" x="279.0621" y="74.6329" width="4.678" height="1.7664" rx="0.8832" ry="0.8832" transform="translate(-9.9489 73.4116) rotate(-14.608)"/><circle class="90ed5435-80b0-4d00-b632-b9a02c0a192c" cx="297.5474" cy="81.3949" r="1.6036"/><circle class="d481dbd8-0995-4042-895a-8ce767349da8" cx="300.4356" cy="88.0951" r="2.8882"/><rect class="100692ea-b11d-439d-85da-854133455f61" x="296.8998" y="74.6329" width="4.678" height="1.7664" rx="0.8832" ry="0.8832" transform="translate(569.7589 224.0603) rotate(-165.392)"/><path class="bf34e0c0-b918-465d-94db-f76977558ece" d="M268.2763,141.3383h48.26c-3.689-4.7532-6.4307-12.9386-7.41-22.6836v-.0167a67.7026,67.7026,0,0,1,1.511-9.0459,36.4582,36.4582,0,0,0-4.3394-2.1315c-2.3824,7.0426-7.7034,11.946-13.8916,11.946s-11.5092-4.9034-13.8916-11.946a36.4582,36.4582,0,0,0-4.3394,2.1315,67.6866,67.6866,0,0,1,1.511,9.0459v.0167C274.707,128.4,271.9653,136.5851,268.2763,141.3383Z"/><path class="90ed5435-80b0-4d00-b632-b9a02c0a192c" d="M299.5147,79.4931a.239.239,0,0,1-.1346-.0412,2.3353,2.3353,0,0,0-2.5174-.0331.2407.2407,0,1,1-.2588-.406,2.824,2.824,0,0,1,3.0453.04.2409.2409,0,0,1-.1345.4406Z"/><path class="90ed5435-80b0-4d00-b632-b9a02c0a192c" d="M283.8389,79.4931a.239.239,0,0,1-.1345-.0412,2.3338,2.3338,0,0,0-2.5165-.0331.241.241,0,0,1-.26-.406,2.824,2.824,0,0,1,3.0453.04.2409.2409,0,0,1-.1346.4406Z"/><path class="115998bb-fafd-4c74-9c97-efed3028d049" d="M270.246,91.2243a2.9318,2.9318,0,1,1,2.9314-2.9317A2.9352,2.9352,0,0,1,270.246,91.2243Zm0-5.3819a2.45,2.45,0,1,0,2.45,2.45A2.453,2.453,0,0,0,270.246,85.8424Z"/><path class="115998bb-fafd-4c74-9c97-efed3028d049" d="M310.713,91.2243a2.9318,2.9318,0,1,1,2.9315-2.9317A2.9352,2.9352,0,0,1,310.713,91.2243Zm0-5.3819a2.45,2.45,0,1,0,2.45,2.45A2.4529,2.4529,0,0,0,310.713,85.8424Z"/><path class="4f23797d-18f4-4836-8084-4dcccf7ba9aa" d="M552.5517,157.94a4.503,4.503,0,0,1-2.8145,4.34,4.1658,4.1658,0,0,1-.9883.2334c-.166,0-.207-.0136-.207.1924,0,.6592.0137,1.3457.041,2.0049.0137.2744.0694.5488.0694.8232,0,.7422-.5225,1.0166-1.1944,1.0166a1.3268,1.3268,0,0,1-.6875-.1923c-.3427-.22-.3427-.5352-.3564-.9063-.042-.9883-.0694-1.9775-.0694-2.9658,0-.3164-.2744-.5635-.2744-.8652,0-.2891.2744-.44.2744-.7559,0-1.5107.0411-3.0215.0411-4.5312a1.8346,1.8346,0,0,1,.083-.8243,1.1378,1.1378,0,0,1,1.0166-.5088c.247,0,.48.0967.7275.0967.3428,0,.9336-.206,1.4561-.206A2.75,2.75,0,0,1,552.5517,157.94Zm-3.7207,2.9385a3.0487,3.0487,0,0,0,1.5517-2.8018c0-.5762-.165-1.62-.9072-1.62-.26,0-.9062.124-.9062.44,0,.5634-.0274,1.14-.0274,1.7031v2.0595c0,.11.0694.2471.1934.2471A.1986.1986,0,0,0,548.831,160.8787Z"/><path class="4f23797d-18f4-4836-8084-4dcccf7ba9aa" d="M560.7372,158.283c.2881,1.7168.4532,3.4609.8242,5.164a5.98,5.98,0,0,1,.2872,1.208c0,.5909-.6309.8379-1.1387.8379-1.8,0-.9063-2.3759-1.8-2.3759h-1.3867c-.7,0-.6319,1.9091-1.9776,1.9091-.4668,0-1.14-.247-1.14-.8105,0-.4805.6181-1.14.6181-1.7022,0-.2754-.041-.3574.15-.6045a3.6987,3.6987,0,0,0,.5215-1.3046c.3848-1.2227,1.4844-4.9444,2.7061-5.3838a1.676,1.676,0,0,1,.5224-.0957C560.2431,155.1248,560.5722,157.2947,560.7372,158.283Zm-2.72,2.2666a4.0855,4.0855,0,0,0-.22.7412.2345.2345,0,0,0,.248.2334h.6035a.2519.2519,0,0,0,.2608-.2608,20.7943,20.7943,0,0,0-.3565-2.1836A9.8947,9.8947,0,0,0,558.0175,160.55Z"/><path class="4f23797d-18f4-4836-8084-4dcccf7ba9aa" d="M566.0917,155.908c1.5518,0,3.543.7685,3.543,2.5947,0,1.209-.9746,1.7715-1.9776,2.1152-.0683.0274-.164.0547-.164.1377,0,.22,1.5234,1.3184,1.7715,1.4824.3017.1924.8515.3711.8515.8516a.9391.9391,0,0,1-.9892.8242c-1.1944,0-2.9248-1.8261-3.1319-1.8261-.082,0-.082.1093-.082.164,0,.22.041.44.041.6592,0,.7832-.3017,1.2227-1.14,1.2227-.7139,0-1.1123-.3018-1.1123-1.03,0-1.3457.0136-2.6914.0136-4.0371,0-1.0987-.1093-2.7744.5909-3.0352A9.0592,9.0592,0,0,1,566.0917,155.908Zm.124,1.5791c-.4394,0-.4121.3427-.4121.6728,0,.3155-.0273.6455-.0273.961,0,.165.2471.124.3711.124.4805,0,1.2764-.0967,1.2764-.7422A1.1713,1.1713,0,0,0,566.2157,157.4871Z"/><path class="4f23797d-18f4-4836-8084-4dcccf7ba9aa" d="M572.9169,156.69c-.4531,0-1.0859-.2334-1.0859-.7686,0-.4951.5635-.7285.9892-.7558,1.3741-.0957,2.7471-.0684,4.12-.1231.288-.0136.5761-.0556.8652-.0556.4805,0,1.2226.1787,1.2226.7968a.5587.5587,0,0,1-.124.3438,1.5926,1.5926,0,0,1-1.2773.4258l-.9619.041c-.1914.0137-.3155-.0967-.3155.1787v6.9893c0,.3574.0137.6591-.3017.8925a1.353,1.353,0,0,1-.7969.2334.9757.9757,0,0,1-1.0986-1.0839c0-.2481.042-.4952.042-.7422v-6.084a.3088.3088,0,0,0-.3164-.3018C573.5614,156.6765,573.2323,156.69,572.9169,156.69Z"/><path class="4f23797d-18f4-4836-8084-4dcccf7ba9aa" d="M580.8124,160.9754v-2.9805c0-.5772.6182-.7969,1.0987-.7969,1.1123,0,1.14.7149,1.14,1.6074,0,.8243-.041,1.167-.041,1.9912v3.4747c0,.5761-.6182.81-1.1123.81-1.2363,0-1.14-.92-1.14-1.84C580.7577,162.4861,580.8124,161.73,580.8124,160.9754Zm1.1533-5.04c-1.4277,0-1.7714-1.95.0547-1.95C583.4355,153.9851,583.7646,155.9353,581.9657,155.9353Z"/><path class="4f23797d-18f4-4836-8084-4dcccf7ba9aa" d="M590.8642,164.0242c0,.81-1.07.8232-1.6338.8232-2.4717,0-4.0244-1.3594-4.0244-3.914,0-1.8946,1.0312-5.1631,3.3789-5.1631.5215,0,1.4277.206,1.4277.8652,0,.4805-.5762.7686-.9883.7686-.0957,0-.2744-.0411-.3437.0283a5.5063,5.5063,0,0,0-1.1807,3.5293c0,1.07.3155,2.334,1.62,2.334.2207,0,.4258-.041.6465-.041C590.22,163.2547,590.8642,163.4744,590.8642,164.0242Z"/><path class="4f23797d-18f4-4836-8084-4dcccf7ba9aa" d="M600.45,158.9011c-.4394,2.4717-1.4287,4.752-4.3125,4.752a2.8931,2.8931,0,0,1-2.6777-1.6065,10.1886,10.1886,0,0,1-.5225-4.3671c0-.8106.2608-1.2911,1.167-1.2911.7832,0,1.127.3565,1.127,1.14,0,.3154-.0547.6455-.0547.9746,0,.8242-.0967,3.5576,1.1387,3.5576,1.36,0,2.0605-3.2959,2.0605-4.34,0-.9063-.0684-1.7715,1.14-1.7715.6456,0,1.14.2744,1.14.9746A11.9732,11.9732,0,0,1,600.45,158.9011Z"/><path class="4f23797d-18f4-4836-8084-4dcccf7ba9aa" d="M605.0087,162.28l.0274.2471a.2948.2948,0,0,0,.288.2471h2.2666c.4112,0,1.084.2607,1.084.7685a.5357.5357,0,0,1-.041.1924c-.22.6319-1.14.5908-1.6758.5908-.4941,0-.9746-.0136-1.455-.0136-.33,0-.6592.0273-.9883.0273a3.2873,3.2873,0,0,1-.7285-.0683c-.6036-.1377-.7-.4668-.7969-1.03a26.5064,26.5064,0,0,1-.2744-4.2988c0-.6456.0136-1.3047.0136-1.9493,0-.1513-.0136-.3027-.0136-.4541,0-.7138.4121-1.0019,1.0986-1.0019.6182,0,1.0986.2744,1.0986.9472,0,.1651-.0273.33-.0273.4942A36.3112,36.3112,0,0,0,605.0087,162.28Z"/><path class="4f23797d-18f4-4836-8084-4dcccf7ba9aa" d="M610.46,160.9754v-2.9805c0-.5772.6181-.7969,1.0986-.7969,1.1123,0,1.14.7149,1.14,1.6074,0,.8243-.0411,1.167-.0411,1.9912v3.4747c0,.5761-.6181.81-1.1123.81-1.2353,0-1.14-.92-1.14-1.84C610.4052,162.4861,610.46,161.73,610.46,160.9754Zm1.1533-5.04c-1.4277,0-1.7715-1.95.0557-1.95C613.0829,153.9851,613.413,155.9353,611.6132,155.9353Z"/><path class="4f23797d-18f4-4836-8084-4dcccf7ba9aa" d="M619.6064,164.82a10.5912,10.5912,0,0,1-3.3926.7558c-1.4971,0-1.3457-.8379-1.3457-2.0195,0-2.375.3848-4.751.4531-7.1269a.9366.9366,0,0,1,.22-.6592,2.4213,2.4213,0,0,1,1.6748-.5215c.3985,0,.7832-.0967,1.168-.0967h.082a1.359,1.359,0,0,1,.5772-.1094c.4394,0,1.085.2745,1.085.7959,0,.7969-1.7032.9756-2.2793.9756-.1524,0-.3165-.083-.3165.15,0,.1924.0137.3711,0,.5635-.0273.4121-.041.8242-.082,1.2363-.0273.2881-.083.59-.083.8789,0,.0957.0137.1914.124.1914.2051,0,.44-.1367.6866-.1367.4257,0,1.0849.2881,1.0849.7959,0,.6738-1.2226,1.127-1.7578,1.2637a.4374.4374,0,0,0-.3437.3711c-.0411.4531-.0411.92-.0411,1.373a.2526.2526,0,0,0,.2471.2744c.5772,0,1.0166-.48,1.5791-.48.4531,0,1.1406.22,1.1406.7695A.98.98,0,0,1,619.6064,164.82Z"/><path class="4f23797d-18f4-4836-8084-4dcccf7ba9aa" d="M624.5771,155.908c1.5508,0,3.5429.7685,3.5429,2.5947,0,1.209-.9755,1.7715-1.9785,2.1152-.0683.0274-.164.0547-.164.1377,0,.22,1.5244,1.3184,1.7714,1.4824.3028.1924.8516.3711.8516.8516a.9382.9382,0,0,1-.9883.8242c-1.1953,0-2.9258-1.8261-3.1318-1.8261-.082,0-.082.1093-.082.164,0,.22.041.44.041.6592,0,.7832-.3018,1.2227-1.14,1.2227-.7148,0-1.1133-.3018-1.1133-1.03,0-1.3457.0147-2.6914.0147-4.0371,0-1.0987-.11-2.7744.5908-3.0352A9.0547,9.0547,0,0,1,624.5771,155.908Zm.123,1.5791c-.4394,0-.4121.3427-.4121.6728,0,.3155-.0273.6455-.0273.961,0,.165.247.124.3711.124.48,0,1.2773-.0967,1.2773-.7422A1.1722,1.1722,0,0,0,624.7,157.4871Z"/><path class="4f23797d-18f4-4836-8084-4dcccf7ba9aa" d="M634.8622,155.5369a6.9686,6.9686,0,0,1,.7549.041.8386.8386,0,0,1,.7695.7695c0,.5352-.6045.7276-1.0439.7276a3.0581,3.0581,0,0,0-1.1123.0683,1.0777,1.0777,0,0,0-.6045,1.126c0,1.7715,1.6348,2.4307,1.6348,3.9687A2.3162,2.3162,0,0,1,632.72,164.34c-.6181,0-2.0605-.3017-2.0605-1.1123,0-.5078.2754-1.0029.7012-1.0029.5488,0,.8515.6045,1.3457.5771.2607-.0136.4121-.3711.4121-.5908,0-.5488-1.03-1.7441-1.3047-2.334a4.0226,4.0226,0,0,1-.3438-1.6074C631.47,156.2781,633.0634,155.5369,634.8622,155.5369Z"/><path class="e09850a3-8200-467e-8377-cab088cab206" d="M627.8408,141.058H554.6147a36.5352,36.5352,0,0,1,13.33-28.2547,34.38,34.38,0,0,1,2.982-2.2161,36.33,36.33,0,0,1,9.5579-4.5429,2.23,2.23,0,0,0,1.59-2.1341V99.29a20.2951,20.2951,0,0,0,14.4526-.26v3.9215a2.2423,2.2423,0,0,0,1.8162,2.1919,36.4862,36.4862,0,0,1,13.1854,5.4438c1.031.6937,2.0282,1.4308,2.9821,2.2209A36.5182,36.5182,0,0,1,627.8408,141.058Z"/><path class="e09850a3-8200-467e-8377-cab088cab206" d="M611.5286,110.5872c-1.002.6311-2.0329,1.2188-3.0928,1.7488a37.2732,37.2732,0,0,1-6.494,2.5725h-.0144a38.1469,38.1469,0,0,1-21.4042,0h-.01a37.2669,37.2669,0,0,1-6.494-2.5725q-1.597-.8022-3.0929-1.7488a36.33,36.33,0,0,1,9.5579-4.5429,2.23,2.23,0,0,0,1.59-2.1341V99.29a20.2951,20.2951,0,0,0,14.4526-.26v3.9215a2.2423,2.2423,0,0,0,1.8162,2.1919,36.4862,36.4862,0,0,1,13.1854,5.4438Z"/><path class="759bb954-4cea-4e54-bf8a-3128b3e80e79" d="M614.5107,112.8081v28.25h-46.566V112.8033a34.38,34.38,0,0,1,2.982-2.2161,36.3183,36.3183,0,0,1,5.7232-3.1265h29.1363a36.6881,36.6881,0,0,1,5.7424,3.1265C612.56,111.2809,613.5568,112.018,614.5107,112.8081Z"/><path class="e09850a3-8200-467e-8377-cab088cab206" d="M570.8483,80.6075a3.5613,3.5613,0,1,0,0,7.1225"/><path class="e09850a3-8200-467e-8377-cab088cab206" d="M607.5089,87.4289a3.5613,3.5613,0,1,0,0-7.1225"/><path class="d481dbd8-0995-4042-895a-8ce767349da8" d="M582.0749,96.8375v5.8212a20.9369,20.9369,0,0,0,14.4525-3.3221V96.8375Z"/><path class="90ed5435-80b0-4d00-b632-b9a02c0a192c" d="M609.5342,80.1068a20.156,20.156,0,0,1-.52,4.5718c-.106-.4528-.2264-.9056-.3613-1.3488s-.2842-.8768-.4528-1.3056c-.0868-.2361-.1831-.4673-.2795-.6937s-.2023-.4577-.3082-.6793a.1315.1315,0,0,0-.0242-.053c-.0674-.1541-.1445-.3083-.2215-.4576-.0964-.1975-.1976-.3854-.2988-.5733-.0529-.1012-.106-.1975-.1638-.2891-.0915-.1589-.183-.3227-.2794-.4769a19.7342,19.7342,0,0,0-1.32-1.927c-.082-.106-.1639-.212-.2506-.3131-.1349-.1686-.2746-.3373-.4191-.5011-.0819-.0963-.1638-.1878-.2457-.2794-.1445-.1638-.2938-.3227-.4432-.4817-.0771-.0819-.1541-.1638-.2312-.2409-.2794-.2842-.5637-.5588-.8624-.8238-.12-.1156-.25-.2264-.3758-.3276a.1038.1038,0,0,0-.0433-.0385c-.1542-.1349-.3132-.265-.4721-.39-.0048-.01-.0144-.0144-.0193-.0192-.0819-.0626-.1541-.12-.236-.1831-.2312-.1831-.4625-.3565-.7034-.5251-.13-.0915-.26-.183-.39-.27-.3372-.2312-.6841-.448-1.0358-.6552-.1975-.12-.39-.2312-.5926-.3372-.2312-.13-.4673-.2505-.7081-.3661-.1975-.1012-.395-.1927-.5974-.2842a.6791.6791,0,0,0-.0867-.0386c-.1494-.0722-.2987-.14-.4576-.2023-.212-.0916-.424-.1783-.6408-.2553-.1782-.0723-.3565-.1349-.5395-.1976-.0771-.0289-.159-.053-.2361-.077a.2736.2736,0,0,0-.0674-.0241c-.13-.0482-.27-.0868-.4047-.13-.0289-.01-.0626-.0193-.0916-.0289-.053-.0193-.1059-.0337-.1589-.0482h-.01c-.1541-.0482-.3131-.0915-.4721-.1349-.52-.1349-1.055-.2553-1.59-.3516q-.3542-.0651-.7082-.1157c-.1879-.0241-.3758-.053-.5589-.0722-.0818-.01-.1686-.0193-.2553-.0289-.2071-.0193-.4191-.0386-.6311-.053-.2409-.0193-.4866-.029-.7322-.0386-.12-.0048-.2409-.01-.3661-.01-.12-.0048-.2457-.0048-.371-.0048-.2264,0-.448.0048-.67.01-.077.0048-.1493.0048-.2264.01-.2071.01-.4142.0192-.6167.0385-.1637.01-.3323.0241-.4961.0433-.1541.0145-.3083.0338-.4625.0482-.2072.0241-.4143.053-.6166.0867-.2891.0434-.5733.0916-.8576.1494-.5925.1156-1.1706.26-1.7439.4239h-.0048c-.1108.0337-.2264.0675-.3372.106-.13.0386-.26.0819-.39.1253l-.4191.1445c-.1348.0433-.27.0963-.4.1493-.13.0482-.26.1012-.39.1542-.077.0337-.1589.0626-.236.0963-.1156.053-.2313.1012-.3469.1542-.1638.0723-.3227.1445-.4817.2216-.159.0723-.318.1542-.4721.2312-.1253.0579-.25.1253-.3758.1927-.12.0675-.2457.1349-.3661.2024s-.2457.1349-.3662.2119c-.2119.12-.4191.2457-.6215.3806-.2649.1686-.525.3469-.78.5251-.1639.1156-.3181.2313-.4721.3469-.2795.212-.5541.4287-.8239.6552-.1686.1349-.3324.2746-.4914.4239-.13.1156-.2649.2361-.395.3613-.1059.0964-.2071.1975-.3083.2939-.0626.0626-.13.13-.1927.1975-.0963.0964-.1879.1879-.2795.2843-.183.1927-.3613.3853-.5395.5877-.0771.0867-.1542.1734-.2216.26-.106.1205-.2072.2409-.3083.3662-.12.1445-.2361.2938-.3517.4432-.0819.1012-.159.2071-.2361.3179-.1349.1831-.27.3662-.395.554-.1445.2024-.2842.4143-.4143.6263-.1493.2313-.2939.4673-.4288.7082l-.0722.13c-.106.183-.2119.3661-.3035.554-.0385.0723-.0819.1493-.1156.2264-.0675.1205-.1253.2409-.1831.3661-.1638.3324-.318.67-.4625,1.0165-.1059.2505-.2071.501-.2987.7564,0,.0048-.0048.01-.0048.0144-.1012.265-.1927.5348-.2794.8045-.0675.212-.1349.424-.1927.6408-.0289.0915-.053.183-.0771.2746-.0674.2409-.13.4914-.1879.737a20.1559,20.1559,0,0,1-.52-4.5718c0-.4624.0144-.92.0481-1.3729A20.274,20.274,0,0,1,579.69,62.3013a19.5342,19.5342,0,0,1,3.9167-1.6138,20.3193,20.3193,0,0,1,11.3886,0,19.5333,19.5333,0,0,1,3.9166,1.6138A20.2733,20.2733,0,0,1,609.486,78.7339C609.52,79.1867,609.5342,79.6444,609.5342,80.1068Z"/><path class="90ed5435-80b0-4d00-b632-b9a02c0a192c" d="M609.486,78.7339a19.5785,19.5785,0,0,1-.4721,3.2084,20.2593,20.2593,0,0,0-10.57-13.4745A20.0094,20.0094,0,0,0,594.995,67.1c-.12-.0338-.2409-.0675-.3613-.0964v-.0048a.5661.5661,0,0,0-.0964-.0241c-.0963-.0289-.1975-.053-.3035-.0819a20.4438,20.4438,0,0,0-10.17.0819c-.1541.0386-.3082.0819-.4576.1253a20.003,20.003,0,0,0-3.4493,1.3682,20.2594,20.2594,0,0,0-10.57,13.4745,19.6,19.6,0,0,1-.4721-3.2084A20.274,20.274,0,0,1,579.69,62.3013a19.5342,19.5342,0,0,1,3.9167-1.6138,20.3193,20.3193,0,0,1,11.3886,0,19.5333,19.5333,0,0,1,3.9166,1.6138A20.2733,20.2733,0,0,1,609.486,78.7339Z"/><path class="e09850a3-8200-467e-8377-cab088cab206" d="M609.0144,84.6763v.01a20.24,20.24,0,0,1-39.4264,0v-.01A20.2629,20.2629,0,0,1,593.44,69.4476c.18.0374,1.0222-3.7375,1.2006-3.6953s-.3063,3.9016-.1295,3.9486A20.2621,20.2621,0,0,1,609.0144,84.6763Z"/><circle class="90ed5435-80b0-4d00-b632-b9a02c0a192c" cx="581.9143" cy="81.1146" r="1.6036"/><path class="d481dbd8-0995-4042-895a-8ce767349da8" d="M599.7017,60.0082a10.0788,10.0788,0,0,1-.79,2.2931,19.5333,19.5333,0,0,0-3.9166-1.6138,20.3193,20.3193,0,0,0-11.3886,0,19.5342,19.5342,0,0,0-3.9167,1.6138,10.3217,10.3217,0,0,1-.79-2.2931,20.2585,20.2585,0,0,1,20.802,0Z"/><path class="90ed5435-80b0-4d00-b632-b9a02c0a192c" d="M594.995,60.6875a19.5333,19.5333,0,0,1,3.9166,1.6138,10.6118,10.6118,0,0,1-4.2731,4.6152.5386.5386,0,0,1-.1012.0578,4.245,4.245,0,0,1-.3854.2072,10.6391,10.6391,0,0,1-10.0879-.2072,10.6833,10.6833,0,0,1-4.3743-4.673,19.5342,19.5342,0,0,1,3.9167-1.6138,20.3193,20.3193,0,0,1,11.3886,0Z"/><path class="90ed5435-80b0-4d00-b632-b9a02c0a192c" d="M599.957,57.6958a10.4358,10.4358,0,0,1-.2553,2.3124,20.2585,20.2585,0,0,0-20.802,0,10.4358,10.4358,0,0,1-.2554-2.3124,10.6564,10.6564,0,0,1,21.3127,0Z"/><rect class="90ed5435-80b0-4d00-b632-b9a02c0a192c" x="577.8839" y="74.3526" width="4.678" height="1.7664" rx="0.8832" ry="0.8832" transform="translate(-0.2185 148.7665) rotate(-14.608)"/><circle class="90ed5435-80b0-4d00-b632-b9a02c0a192c" cx="596.3691" cy="81.1146" r="1.6036"/><rect class="90ed5435-80b0-4d00-b632-b9a02c0a192c" x="595.7215" y="74.3526" width="4.678" height="1.7664" rx="0.8832" ry="0.8832" transform="matrix(-0.9677, -0.2522, 0.2522, -0.9677, 1157.8135, 298.8728)"/><path class="90ed5435-80b0-4d00-b632-b9a02c0a192c" d="M589.3292,89.413a2.7628,2.7628,0,0,1-1.5535-.4747.2409.2409,0,0,1,.27-.399,2.3331,2.3331,0,0,0,2.5164.033.2407.2407,0,1,1,.2588.406A2.7678,2.7678,0,0,1,589.3292,89.413Z"/><path class="90ed5435-80b0-4d00-b632-b9a02c0a192c" d="M603.0451,65.2641a20.2467,20.2467,0,0,1-8.05,4.5718h-.01a20.2686,20.2686,0,0,1-11.3741,0h-.0048a20.2467,20.2467,0,0,1-8.05-4.5718,19.973,19.973,0,0,1,4.1334-2.9628,19.5342,19.5342,0,0,1,3.9167-1.6138,20.4374,20.4374,0,0,0,11.3886,0,19.5333,19.5333,0,0,1,3.9166,1.6138A19.9736,19.9736,0,0,1,603.0451,65.2641Z"/><path class="d481dbd8-0995-4042-895a-8ce767349da8" d="M578.866,57.0072a4.9317,4.9317,0,0,1,1.2774,4.7656A4.93,4.93,0,0,1,574.1,55.73,4.9318,4.9318,0,0,1,578.866,57.0072Z"/><path class="d481dbd8-0995-4042-895a-8ce767349da8" d="M578.866,57.0072a4.9317,4.9317,0,0,1,1.2774,4.7656A4.93,4.93,0,0,1,574.1,55.73,4.9318,4.9318,0,0,1,578.866,57.0072Z"/><path class="d481dbd8-0995-4042-895a-8ce767349da8" d="M577.11,60.8433a3.1093,3.1093,0,0,1,3.0047-.8054,3.1081,3.1081,0,0,1-3.81,3.81A3.11,3.11,0,0,1,577.11,60.8433Z"/><path class="d481dbd8-0995-4042-895a-8ce767349da8" d="M577.11,60.8433a3.1093,3.1093,0,0,1,3.0047-.8054,3.1081,3.1081,0,0,1-3.81,3.81A3.11,3.11,0,0,1,577.11,60.8433Z"/><circle class="63bfac22-66fd-4312-bea9-c868ff4da1d2" cx="579.4094" cy="87.1888" r="2.8882"/><path class="d481dbd8-0995-4042-895a-8ce767349da8" d="M589.3612,94.2935a3.1328,3.1328,0,0,1-3.1291-3.1292.2409.2409,0,1,1,.4818,0,2.6473,2.6473,0,1,0,5.2945,0,.2409.2409,0,1,1,.4818,0A3.1328,3.1328,0,0,1,589.3612,94.2935Z"/><circle class="63bfac22-66fd-4312-bea9-c868ff4da1d2" cx="599.6406" cy="87.1888" r="2.8882"/><path class="90ed5435-80b0-4d00-b632-b9a02c0a192c" d="M598.72,78.587a.2417.2417,0,0,1-.135-.0412,2.3325,2.3325,0,0,0-2.516-.0331.241.241,0,0,1-.26-.406,2.8234,2.8234,0,0,1,3.0458.04.2411.2411,0,0,1-.1351.4406Z"/><path class="90ed5435-80b0-4d00-b632-b9a02c0a192c" d="M583.0438,78.587a.24.24,0,0,1-.135-.0414,2.3347,2.3347,0,0,0-2.5165-.0329.2407.2407,0,1,1-.2587-.406,2.8222,2.8222,0,0,1,3.0453.04.2409.2409,0,0,1-.1351.44Z"/><rect class="641de57c-397f-4936-931f-ab043b8a4fe9" x="546.4602" y="141.058" width="107.7978" height="8.1273"/><rect class="641de57c-397f-4936-931f-ab043b8a4fe9" x="385.8567" y="141.058" width="116.3704" height="8.1273"/><rect class="641de57c-397f-4936-931f-ab043b8a4fe9" x="225.8947" y="141.058" width="116.3704" height="31.9236"/><path class="4f23797d-18f4-4836-8084-4dcccf7ba9aa" d="M249.6181,165.6228a4.0567,4.0567,0,0,1-1.7442.3975c-2.6777,0-3.64-2.54-3.64-4.82,0-2.4034,1.0439-5.6709,3.9414-5.6709a4.159,4.159,0,0,1,2.0869.6172.952.952,0,0,1,.5635.7421c0,.4942-.6318.7413-1.044.7413-.7548,0-1.07-.5489-1.6474-.5489-.37,0-.7822.59-.9483.8926a6.8492,6.8492,0,0,0-.7265,3.2129c0,.9346.1367,2.5547.9609,3.1455a.75.75,0,0,0,.4531.15c.6309,0,1.2637-.7,1.9082-.7.4258,0,1.044.2607,1.044.7695C250.8261,165.1414,250.0712,165.4168,249.6181,165.6228Z"/><path class="4f23797d-18f4-4836-8084-4dcccf7ba9aa" d="M260.4384,160.0193a4.6487,4.6487,0,0,1-4.3809,4.4629,3.3709,3.3709,0,0,1-3.3789-3.502,4.1134,4.1134,0,0,1,3.9971-4.1884C258.3779,156.7918,260.4384,158.0554,260.4384,160.0193Zm-2.252.0684c0-.81-.8925-2.1143-1.9775-1.5791a2.9426,2.9426,0,0,0-1.3047,2.5273c0,.6592.3838,1.8535,1.1944,1.8535C257.2255,162.8894,258.1864,161.0769,258.1864,160.0877Z"/><path class="4f23797d-18f4-4836-8084-4dcccf7ba9aa" d="M267.14,163.0545c.4531,0,1.1123.247,1.1123.7822,0,.6875-.8789.81-1.4014.81-.8242,0-1.6611.0137-2.4853.0821-.3428.0283-.6866.11-1.03.11-.5215,0-1.043-.2334-1.043-.8242a4.9448,4.9448,0,0,1,.0684-.6318,22.447,22.447,0,0,0,.15-3.0342c0-1.085-.0547-2.17-.0547-3.2549,0-.6729.4941-.9756,1.1133-.9756.7412,0,1.125.33,1.125,1.0713,0,1.126.042,2.2656.042,3.3926,0,.7685-.0831,1.5244-.0831,2.2929,0,.1377.1514.22.2754.22C265.67,163.0955,266.3974,163.0545,267.14,163.0545Z"/><path class="4f23797d-18f4-4836-8084-4dcccf7ba9aa" d="M272.2607,162.78l.0273.2471a.2974.2974,0,0,0,.2891.2471h2.2656c.4121,0,1.0859.2607,1.0859.7685a.5181.5181,0,0,1-.042.1924c-.22.6319-1.14.5908-1.6748.5908-.4941,0-.9755-.0136-1.456-.0136-.3291,0-.6592.0273-.9893.0273a3.29,3.29,0,0,1-.7275-.0683c-.6045-.1377-.7-.4668-.7959-1.03a26.2832,26.2832,0,0,1-.2754-4.2988c0-.6456.0137-1.3047.0137-1.9493,0-.1513-.0137-.3027-.0137-.4541,0-.7138.4121-1.0019,1.0986-1.0019.6182,0,1.0987.2744,1.0987.9472,0,.1651-.0274.33-.0274.4942A36.5756,36.5756,0,0,0,272.2607,162.78Z"/><path class="4f23797d-18f4-4836-8084-4dcccf7ba9aa" d="M281.2978,157.2869c-.3574,0-.7012-.0283-1.0586-.0283a.282.282,0,0,0-.3154.289c-.0274.2744-.0137.5488-.0274.8242-.0137.3155-.042.6446-.042.961,0,.1094.042.22.166.22.1641,0,.7686-.4258,1.3047-.4258.4531,0,1.0567.2471,1.0567.7832,0,.7823-1.7442,1.1807-2.3477,1.3594a.326.326,0,0,0-.2207.3154,22.8275,22.8275,0,0,0,.1523,2.376c.0137.1514-.0419.3291.1778.3291.3027,0,.6181-.082.92-.082.4668,0,1.1406.206,1.1406.7832,0,.8369-1.456.8652-2.0332.8652s-1.7441,0-2.1152-.4951a2.3,2.3,0,0,1-.2188-1.0156,25.2233,25.2233,0,0,1-.1933-3.0625c0-1.4287.083-2.8428.0967-4.2715.0136-.6592.0419-1.2217.7822-1.2627.8515-.042,1.0722-.0283,2.2109-.0283a2.9238,2.9238,0,0,1,1.1406.1377.7692.7692,0,0,1,.5215.6728C282.3954,157.0672,281.7372,157.2869,281.2978,157.2869Z"/><path class="4f23797d-18f4-4836-8084-4dcccf7ba9aa" d="M290.1132,164.5242c0,.81-1.0713.8232-1.6338.8232-2.4726,0-4.0244-1.3594-4.0244-3.914,0-1.8946,1.03-5.1631,3.3779-5.1631.5225,0,1.4287.206,1.4287.8652,0,.4805-.5771.7686-.9892.7686-.0957,0-.2735-.0411-.3428.0283a5.5063,5.5063,0,0,0-1.1807,3.5293c0,1.07.3155,2.334,1.62,2.334.22,0,.4257-.041.6455-.041C289.4677,163.7547,290.1132,163.9744,290.1132,164.5242Z"/><path class="4f23797d-18f4-4836-8084-4dcccf7ba9aa" d="M294.1777,161.8318c-.0557-1.3457-.0557-2.6914-.1241-4.0371a.3026.3026,0,0,0-.33-.3018c-.2872,0-.5625-.0146-.8506-.0146-.5362,0-1.044-.0137-1.044-.7,0-.7276.4121-.8789,1.0576-.8789,1.5381,0,3.0762-.082,4.6143-.082a.8907.8907,0,0,1,.92.9335c0,.5079-.5762.6729-1.0019.6729-.2207,0-.4258-.0273-.6465-.0273-.2051,0-.4942-.0137-.4942.2744,0,2.2392.1934,4.4638.1934,6.7021,0,.5908-.6465.8106-1.1406.8106-.6035,0-1.085-.2754-1.085-.9346C294.246,163.4392,294.205,162.6423,294.1777,161.8318Z"/><path class="4f23797d-18f4-4836-8084-4dcccf7ba9aa" d="M300.3427,158.6736c.082-.4258.5488-.5772.9336-.5772.5078,0,1.168.2608,1.168.8516,0,1.126-.1241,2.0879-.1241,3.2139a3.0961,3.0961,0,0,0,.083,1.2773.5118.5118,0,0,1,.0684.2471,1.2037,1.2037,0,0,1-.082.37,1.054,1.054,0,0,1-1.086.6875c-.9472,0-1.167-.55-1.167-1.3877,0-.22.0147-.4394.0147-.6592A20.7656,20.7656,0,0,1,300.3427,158.6736Zm-.082-2.5957a.9719.9719,0,0,1,1.0839-.8789c.5362,0,1.1.2881,1.1.8789,0,.6045-.5635.8926-1.1.8926A.973.973,0,0,1,300.2607,156.0779Z"/><path class="4f23797d-18f4-4836-8084-4dcccf7ba9aa" d="M309.9833,156.9568a1.418,1.418,0,0,1,.7139-.1787c.4394,0,1.126.2334,1.126.7695a3.3524,3.3524,0,0,1-.3711,1.0576,18.2238,18.2238,0,0,1-2.43,5.1768,1.2254,1.2254,0,0,1-.9619.4121,1.268,1.268,0,0,1-.7412-.22,3.1992,3.1992,0,0,1-.7286-1.1123,35.0908,35.0908,0,0,1-2.2246-5.4522c0-.5761.4942-.81,1.0166-.81.4258,0,1.126.1513,1.1534.6738a32.6421,32.6421,0,0,0,1.497,3.6934c.0274.0556.0547.124.124.124C308.5419,161.0906,309.3378,157.3552,309.9833,156.9568Z"/><path class="4f23797d-18f4-4836-8084-4dcccf7ba9aa" d="M314.8036,156.1463c-.4814,0-1.1269-.2334-1.1269-.81s.6455-.7969,1.1269-.7969,1.125.22,1.125.7969S315.2841,156.1463,314.8036,156.1463Zm.1778,1.9775c.4941,0,1.1269.2334,1.1269.8242,0,2.4033.0957,3.1865.0957,5.59,0,.59-.6318.8232-1.1269.8232s-1.125-.2334-1.125-.8232c0-2.4034-.0967-3.1866-.0967-5.59C313.8554,158.3572,314.4872,158.1238,314.9814,158.1238Z"/><path class="4f23797d-18f4-4836-8084-4dcccf7ba9aa" d="M320.2685,161.8318c-.0547-1.3457-.0547-2.6914-.1231-4.0371a.3041.3041,0,0,0-.33-.3018c-.2891,0-.5635-.0146-.8516-.0146-.5352,0-1.044-.0137-1.044-.7,0-.7276.4122-.8789,1.0577-.8789,1.538,0,3.0761-.082,4.6142-.082a.89.89,0,0,1,.92.9335c0,.5079-.5771.6729-1.0029.6729-.2187,0-.4258-.0273-.6445-.0273-.2071,0-.4942-.0137-.4942.2744,0,2.2392.1914,4.4638.1914,6.7021,0,.5908-.6445.8106-1.14.8106-.6045,0-1.085-.2754-1.085-.9346C320.3368,163.4392,320.2958,162.6423,320.2685,161.8318Z"/><path class="4f23797d-18f4-4836-8084-4dcccf7ba9aa" d="M331.2675,164.4c-.4668.8652-2.1689.9609-3.0342.9609h-.6191c-1.3594,0-1.2637-1.7715-1.3321-2.7188-.041-.55-.0546-1.0986-.0546-1.6484a33.7044,33.7044,0,0,1,.289-4.2568,1.1643,1.1643,0,0,1,.8242-1.0166,2.5884,2.5884,0,0,1,.7959-.0957c.2471,0,.5079.0136.7686.0136.55,0,1.1.0274,1.6894.0274.4258,0,.961.1787.961.7,0,.9345-1.99.7832-2.6231.8242a.354.354,0,0,0-.3427.3027,16.9038,16.9038,0,0,0-.1377,1.6885.2857.2857,0,0,0,.289.3027h.7139c.2744,0,.55-.0283.8369-.0283.4531,0,1.0176.2061,1.0176.7559,0,.7549-1.0313.81-1.5664.81h-.5078c-.2754,0-.8379-.11-.8379.3155a19.2374,19.2374,0,0,0,.123,1.9912v.082c0,.1787-.041.4121.2071.4121.5488,0,1.0019-.4668,1.5507-.4668.4122,0,1.0723.2471,1.0723.7422A.58.58,0,0,1,331.2675,164.4Zm-1.9229-9.709c-.5078.2881-1.0976.8515-1.7031.4121-.6855-.4815.44-1.0166.7832-1.209.5078-.2881,1.0987-.8379,1.7032-.4121C330.8144,153.9773,329.6884,154.4988,329.3446,154.6912Z"/><path class="4f23797d-18f4-4836-8084-4dcccf7ba9aa" d="M337.8173,156.0369a6.987,6.987,0,0,1,.7559.041.8386.8386,0,0,1,.7695.7695c0,.5352-.6055.7276-1.0449.7276a3.0547,3.0547,0,0,0-1.1114.0683,1.0784,1.0784,0,0,0-.6054,1.126c0,1.7715,1.6347,2.4307,1.6347,3.9687a2.3162,2.3162,0,0,1-2.541,2.1016c-.6172,0-2.0595-.3017-2.0595-1.1123,0-.5078.2744-1.0029.7-1.0029.55,0,.8515.6045,1.3457.5771.2617-.0136.4121-.3711.4121-.5908,0-.5488-1.0293-1.7441-1.3047-2.334a4.037,4.037,0,0,1-.3428-1.6074C334.4257,156.7781,336.0185,156.0369,337.8173,156.0369Z"/><path class="46b2f5cf-ed5c-471e-88a2-98fcd1bea1a3" d="M22.4131,46.91A57.4009,57.4009,0,0,1,42.4894,32.432L49.9605,52.55A131.8535,131.8535,0,0,0,64.9577,22.4878L75.0336,40.0727c.8769,1.53,1.902,3.1843,3.521,3.6585,5.2767,1.5456,6.0892-9.4919,11.3538-11.0841,3.6179-1.0942,6.7052,2.9649,8.2042,6.6516s3.1547,8.1311,6.8326,8.9662c4.62,1.049,8.02-4.3421,10.2318-8.8035s6.467-9.4865,10.7636-7.39c1.8913.9227,3.0128,2.9969,4.0122,4.9459l8.879,17.3164"/><path class="4f23797d-18f4-4836-8084-4dcccf7ba9aa" d="M35.7929,33.3552c-.3106,0-.58.05-.95.05a.2308.2308,0,0,0-.23.2207v4.7969c0,.2295.02.46.02.6992,0,.58-.1992.86-.8193.86-.89,0-.8291-.6-.8291-1.2793,0-.51.0293-.5.0293-1.01V33.4158a.21.21,0,0,0-.2295-.21c-.28,0-.19.0293-.47.0293-.35,0-1.419,0-1.419-.539s.47-.62.8692-.62c.83,0,1.289-.0293,2.1191-.0293.5391,0,2.7783-.12,2.7783.73C36.662,33.1755,36.1327,33.3552,35.7929,33.3552Z"/><path class="4f23797d-18f4-4836-8084-4dcccf7ba9aa" d="M43.4111,35.4744a3.382,3.382,0,0,1-3.1875,3.248,2.4533,2.4533,0,0,1-2.459-2.5488,2.9934,2.9934,0,0,1,2.9082-3.0479A2.6477,2.6477,0,0,1,43.4111,35.4744Zm-1.6387.05c0-.59-.6494-1.5391-1.4395-1.1494a2.1421,2.1421,0,0,0-.9492,1.8388c0,.48.28,1.35.8692,1.35C41.0732,37.5632,41.7724,36.2439,41.7724,35.5242Z"/><path class="4f23797d-18f4-4836-8084-4dcccf7ba9aa" d="M50.2411,35.0242c-.3193,1.8-1.039,3.458-3.1386,3.458a2.1041,2.1041,0,0,1-1.9483-1.169,7.4126,7.4126,0,0,1-.38-3.1777c0-.59.19-.9394.85-.9394.5694,0,.8194.26.8194.8291,0,.23-.04.47-.04.71,0,.6-.07,2.5879.8291,2.5879.99,0,1.5-2.3984,1.5-3.1582,0-.6592-.0507-1.2891.8291-1.2891.47,0,.83.2.83.71A8.6574,8.6574,0,0,1,50.2411,35.0242Z"/><path class="4f23797d-18f4-4836-8084-4dcccf7ba9aa" d="M54.9521,32.5759a4.93,4.93,0,0,1,.55.03.61.61,0,0,1,.5595.56c0,.39-.4394.5293-.76.5293a2.2191,2.2191,0,0,0-.8086.05.7842.7842,0,0,0-.44.82c0,1.2891,1.1894,1.7686,1.1894,2.8877a1.685,1.685,0,0,1-1.8486,1.5293c-.45,0-1.499-.22-1.499-.81,0-.3691.1992-.73.51-.73.3994,0,.6192.4395.9795.42.19-.01.3-.27.3-.43,0-.3995-.75-1.27-.95-1.6993a2.934,2.934,0,0,1-.25-1.1689C52.4833,33.116,53.6435,32.5759,54.9521,32.5759Z"/><path class="4f23797d-18f4-4836-8084-4dcccf7ba9aa" d="M63.2323,33.2254c1.129,1.0293,1.4493,3.0781,1.9493,4.4677a1.2272,1.2272,0,0,1,.0791.38.712.712,0,0,1-.7989.68c-.85,0-.82-.62-.97-1.249-.04-.16-.08-.32-.13-.47-.02-.07-.03-.1308-.12-.1308-.42,0-.85.0107-1.27.0107-.06,0-.1094-.0107-.1592-.0107-.08,0-.1006.04-.12.11-.04.18-.08.35-.12.5293-.13.59.0595,1.3194-.88,1.3194-.35,0-.7793-.1494-.7793-.5694a10.0874,10.0874,0,0,1,.6-2.8086c.15-.51.31-1.0293.46-1.539.1-.34.12-.88.4394-1.0889a1.0439,1.0439,0,0,1,.57-.16A1.9616,1.9616,0,0,1,63.2323,33.2254Zm-.88,1.47c-.0293.09-.27.9092-.27.9394a.16.16,0,0,0,.17.1592h.51a.15.15,0,0,0,.16-.1494,5.515,5.515,0,0,0-.4-.97c-.02-.03-.04-.08-.08-.08C62.3925,34.5945,62.3622,34.655,62.3525,34.6951Z"/><path class="4f23797d-18f4-4836-8084-4dcccf7ba9aa" d="M70.5312,39.5525a2.95,2.95,0,0,1-1.2686.2891c-1.9492,0-2.6484-1.8487-2.6484-3.5078,0-1.7491.7588-4.128,2.8681-4.128a3.0242,3.0242,0,0,1,1.5186.45.6922.6922,0,0,1,.41.54c0,.3593-.46.539-.76.539-.55,0-.7793-.3994-1.1992-.3994-.27,0-.5694.43-.6895.6494a4.9808,4.9808,0,0,0-.5293,2.3389c0,.68.1,1.8584.6992,2.289a.5486.5486,0,0,0,.33.1094c.459,0,.919-.51,1.3887-.51.31,0,.76.19.76.5595C71.4111,39.2019,70.8613,39.4021,70.5312,39.5525Z"/><path class="4f23797d-18f4-4836-8084-4dcccf7ba9aa" d="M76.8515,32.366c.3,0,.9092.17.9092.55,0,.73-1.1993.6191-1.669.68a.192.192,0,0,0-.1894.2c0,1.039.0293,2.0088.1,3.0078.05.76.12,1.539.12,2.3584a.73.73,0,0,1-.8193.82c-.36,0-.85-.17-.85-.6,0-1.5791-.05-3.1084-.08-4.7276a4.9433,4.9433,0,0,0-.01-.77.3055.3055,0,0,0-.33-.25c-.4,0-1.3691.08-1.3691-.56,0-.51.6191-.61.999-.61C74.7226,32.4656,75.7724,32.366,76.8515,32.366Z"/><path class="4f23797d-18f4-4836-8084-4dcccf7ba9aa" d="M79.0536,38.7029c-.03-.39-.04-.78-.04-1.18,0-.97.0791-1.9492.13-2.918.0293-.66.0293-1.22.09-1.88.0293-.379.4092-.4893.7393-.4893h1.8691c.3994,0,1.06-.09,1.06.55,0,.5293-.4805.5693-.85.5693-.36,0-.72-.05-1.0791-.05a.2022.2022,0,0,0-.2305.2c-.03.4893-.08,1.1094-.08,1.5889,0,.08.04.15.13.15.17,0,.37-.11.57-.11.2793,0,.72.2.72.52,0,.47-1.04.75-1.39.87-.1.039-.12.0791-.12.1894,0,.37-.01.73-.01,1.1,0,.42,0,.35.42.35h1.1c.3593,0,.6689.05.6689.54,0,.51-.3.55-.6689.55h-2.02C79.663,39.2527,79.1034,39.2127,79.0536,38.7029Z"/><path class="4f23797d-18f4-4836-8084-4dcccf7ba9aa" d="M88.2109,38.7127a2.4352,2.4352,0,0,1-1.51.5293c-1.9785,0-2.2979-2.0987-2.2979-3.6377a6.3346,6.3346,0,0,1,.3194-2.1192.8335.8335,0,0,1,.8193-.6094c.34,0,.79.16.79.5694a.6023.6023,0,0,1-.05.2207,5.7838,5.7838,0,0,0-.3105,1.9482,8.6727,8.6727,0,0,0,.09,1.2393c.0508.33.2608,1.25.6905,1.25a.4882.4882,0,0,0,.34-.17c.72-.66.919-2.5186.919-3.458a7.6894,7.6894,0,0,0-.03-.83c-.02-.24-.1-.47-.1-.72,0-.4492.39-.6191.79-.6191a.6945.6945,0,0,1,.7588.51,6.3378,6.3378,0,0,1,.16,1.5683C89.59,35.7341,89.33,37.8132,88.2109,38.7127Z"/><path class="4f23797d-18f4-4836-8084-4dcccf7ba9aa" d="M95.56,37.6433c.12.09.27.1494.38.25a.5715.5715,0,0,1,.21.42c0,.3995-.46.5391-.7793.5391-.05,0-.09-.01-.14-.01-.73-.07-1.999-1.5693-2.2588-1.5693-.12,0-.1006.31-.11.39l-.12,1.5791c-.04.5-.38.7-.8593.7-.56,0-.7891-.3-.7891-.84,0-.24.04-.48.04-.72a4.5558,4.5558,0,0,1,.14-.7891c.0693-1.1894.14-2.3887.2392-3.5781,0-.04.0108-.08.0108-.13,0-.22-.25-.28-.25-.51,0-.74,1.9189-1.1,2.4785-1.1,1.1191,0,2.3682.6094,2.3682,1.8789a1.7679,1.7679,0,0,1-.1094.6094,3.3152,3.3152,0,0,1-1.6192,1.64c-.05.0293-.09.0595-.09.12A10.4351,10.4351,0,0,0,95.56,37.6433Zm-2.4287-2.02a.1863.1863,0,0,0,.07-.02c.59-.25,1.3291-.79,1.3291-1.4991,0-.47-.3691-.6894-.8-.6894a1.626,1.626,0,0,0-.3789.05.3374.3374,0,0,0-.2207.3c-.04.56-.1192,1.14-.1192,1.6992C93.0116,35.5447,93.0409,35.6238,93.1308,35.6238Z"/><path class="4f23797d-18f4-4836-8084-4dcccf7ba9aa" d="M100.92,32.5164c-.3593.6-1.4394.0791-1.4394,1.4687,0,1.6895,1.41,3.2783,1.41,4.8975,0,1.209-.95,1.7187-2.05,1.7187-.39,0-1.1884-.03-1.1884-.5791,0-.46.51-.59.8789-.59.36,0,.71.08.71-.42,0-1.52-1.3994-3.2383-1.3994-5.0274a2.5176,2.5176,0,0,1,2.3487-2.2783C100.59,31.7068,101.2,32.0564,100.92,32.5164Z"/><path class="4f23797d-18f4-4836-8084-4dcccf7ba9aa" d="M103.73,34.9548a1.2344,1.2344,0,1,1,0,2.4688,1.2344,1.2344,0,0,1,0-2.4688Z"/><path class="4f23797d-18f4-4836-8084-4dcccf7ba9aa" d="M106.621,34.4949c.06-.31.3994-.42.68-.42.37,0,.85.19.85.62,0,.8193-.09,1.5185-.09,2.3388a2.2645,2.2645,0,0,0,.0595.9288.3737.3737,0,0,1,.05.1806.8668.8668,0,0,1-.0595.27.7664.7664,0,0,1-.7891.5c-.69,0-.85-.4-.85-1.01,0-.16.01-.32.01-.48A15.1419,15.1419,0,0,1,106.621,34.4949Zm-.06-1.8887a.7075.7075,0,0,1,.7891-.64c.39,0,.8.21.8.64,0,.4395-.41.6494-.8.6494A.7083.7083,0,0,1,106.5614,32.6062Z"/><path class="4f23797d-18f4-4836-8084-4dcccf7ba9aa" d="M113.6191,39.5525a2.95,2.95,0,0,1-1.2686.2891c-1.9492,0-2.6484-1.8487-2.6484-3.5078,0-1.7491.7588-4.128,2.8681-4.128a3.0242,3.0242,0,0,1,1.5186.45.6921.6921,0,0,1,.41.54c0,.3593-.46.539-.76.539-.55,0-.7793-.3994-1.1992-.3994-.27,0-.5694.43-.69.6494a4.9808,4.9808,0,0,0-.5293,2.3389c0,.68.1,1.8584.6992,2.289a.5486.5486,0,0,0,.33.1094c.459,0,.919-.51,1.3887-.51.3105,0,.76.19.76.5595C114.4989,39.2019,113.9491,39.4021,113.6191,39.5525Z"/><path class="4f23797d-18f4-4836-8084-4dcccf7ba9aa" d="M119.46,39.3318a7.6868,7.6868,0,0,1-2.4688.55c-1.09,0-.98-.6094-.98-1.4687,0-1.73.2793-3.4581.33-5.1875a.68.68,0,0,1,.1592-.48,1.7662,1.7662,0,0,1,1.22-.38c.29,0,.5694-.07.85-.07h.06a.99.99,0,0,1,.42-.0791c.32,0,.79.1992.79.5791,0,.58-1.2393.71-1.6592.71-.11,0-.23-.0605-.23.1094,0,.1406.0108.27,0,.41-.02.3-.0293.6-.06.8994-.02.21-.0605.43-.0605.64,0,.07.0107.14.0908.14.1494,0,.3194-.1.499-.1.3106,0,.79.21.79.58,0,.4893-.89.8194-1.2793.919a.3183.3183,0,0,0-.25.27c-.03.33-.03.67-.03,1a.1851.1851,0,0,0,.18.2c.42,0,.74-.3506,1.1494-.3506.33,0,.83.16.83.5606A.7088.7088,0,0,1,119.46,39.3318Z"/><path class="4f23797d-18f4-4836-8084-4dcccf7ba9aa" d="M124.6,37.3728c0,1.33-1.35,1.72-2.4482,1.72-.32,0-.81-.11-.81-.51a.6046.6046,0,0,1,.27-.47c.41-.29,1.3886.03,1.3886-.66,0-.9287-1.1484-2.3184-1.1484-3.458,0-1.1592,1.2588-1.459,2.1885-1.459.33,0,.8193.11.8193.5293a.64.64,0,0,1-.47.54c-.24.08-.959,0-.959.34C123.4306,34.6443,124.6,36.2136,124.6,37.3728Z"/><path class="4f23797d-18f4-4836-8084-4dcccf7ba9aa" d="M32.8437,44.3963a3.18,3.18,0,0,1,3.1289,3.4179,3.1352,3.1352,0,0,1-3.1182,3.3477,3.3393,3.3393,0,0,1-.7-.0694c-.3994-.09-.6494-.25-.6894-.6894-.04-.48-.09-.95-.14-1.43a19.4008,19.4008,0,0,1-.18-2.1592,4.2551,4.2551,0,0,1,.13-1.1787.5684.5684,0,0,0,.06-.21c0-.13-.08-.2294-.08-.36C31.2548,44.5164,32.4443,44.3963,32.8437,44.3963Zm.44,5.5966a2.2771,2.2771,0,0,0,1.1094-2.1884,2.5583,2.5583,0,0,0-.81-2.0293,1.1079,1.1079,0,0,0-.49-.23.5682.5682,0,0,0-.26.25,2.632,2.632,0,0,0-.1094.8789,27.6235,27.6235,0,0,0,.27,3.1484c.01.09.05.21.16.21A.6785.6785,0,0,0,33.2841,49.9929Z"/><path class="4f23797d-18f4-4836-8084-4dcccf7ba9aa" d="M40.1337,45.4851c-.26,0-.51-.02-.77-.02a.2056.2056,0,0,0-.23.21c-.02.1993-.01.4-.02.6-.01.23-.03.47-.03.6992,0,.08.03.16.12.16.12,0,.56-.3095.9492-.3095.33,0,.77.18.77.5693,0,.5693-1.2686.8594-1.709.9893a.2372.2372,0,0,0-.1592.23,16.8214,16.8214,0,0,0,.1094,1.7285c.01.11-.03.24.13.24.22,0,.45-.0606.67-.0606.34,0,.8291.15.8291.57,0,.6094-1.0586.63-1.4785.63s-1.27,0-1.5391-.36a1.6605,1.6605,0,0,1-.16-.7393,18.43,18.43,0,0,1-.14-2.2295c0-1.039.06-2.0683.0693-3.1074.01-.48.03-.89.57-.92.6191-.03.7793-.02,1.6084-.02a2.1237,2.1237,0,0,1,.83.1.56.56,0,0,1,.38.4892C40.9335,45.3259,40.453,45.4851,40.1337,45.4851Z"/><path class="4f23797d-18f4-4836-8084-4dcccf7ba9aa" d="M51.1513,45.4451a12.02,12.02,0,0,1-.7793,4.4082.6751.6751,0,0,1-.6592.4092,1.2469,1.2469,0,0,1-.86-.3594c-.6192-.62-1.1485-1.39-1.7686-1.98a.1543.1543,0,0,0-.11-.06c-.06,0-.0791.07-.09.12a15.168,15.168,0,0,0-.29,1.8985c-.06.53.03,1.22-.64,1.3594a1.3812,1.3812,0,0,1-.209.0205c-.31,0-.75-.11-.8-.48a1.1287,1.1287,0,0,1-.01-.1807,8.142,8.142,0,0,1,.1-.85,20.3942,20.3942,0,0,1,.59-3.208.7342.7342,0,0,1,.76-.5293c.9492,0,2.1279,1.4492,2.7383,2.1084a.1494.1494,0,0,0,.1.06c.06,0,.08-.06.09-.1005a20.1178,20.1178,0,0,0,.29-3.0381c.02-.45.01-.8291.52-.9795a1.0254,1.0254,0,0,1,.3-.04c.47,0,.8.22.8.72C51.2216,44.9754,51.1718,45.2058,51.1513,45.4451Z"/><path class="4f23797d-18f4-4836-8084-4dcccf7ba9aa" d="M52.5751,48.0642a3.3589,3.3589,0,0,1,2.4883-3.4687,6.27,6.27,0,0,1,.97-.09,2.388,2.388,0,0,1,2.4893,2.6885c0,1.9189-1.18,3.6182-3.2188,3.6182A2.5709,2.5709,0,0,1,52.5751,48.0642Zm1.6-.06c0,.75.2491,1.68,1.1592,1.68,1.0791,0,1.5986-1.5391,1.5986-2.4385,0-.4-.16-1.52-.6894-1.52-.12,0-.23.03-.35.03-.14,0-.28-.03-.42-.03C54.6239,45.7254,54.1747,47.324,54.1747,48.0037Z"/><path class="4f23797d-18f4-4836-8084-4dcccf7ba9aa" d="M63.1435,44.5164c-.3594.6-1.44.0791-1.44,1.4687,0,1.6895,1.41,3.2783,1.41,4.8975,0,1.209-.95,1.7187-2.05,1.7187-.39,0-1.1885-.03-1.1885-.5791,0-.46.51-.59.8789-.59.36,0,.71.08.71-.42,0-1.52-1.3994-3.2383-1.3994-5.0274a2.5175,2.5175,0,0,1,2.3486-2.2783C62.8134,43.7068,63.4238,44.0564,63.1435,44.5164Z"/><path class="4f23797d-18f4-4836-8084-4dcccf7ba9aa" d="M67.7646,45.4158c-.33,0-.7891-.17-.7891-.56,0-.36.4092-.53.72-.55.9991-.07,1.9981-.0508,2.9981-.09.21-.0108.42-.04.63-.04.35,0,.89.13.89.5791a.4026.4026,0,0,1-.0908.25,1.15,1.15,0,0,1-.9287.31l-.7.03c-.14.01-.23-.07-.23.13v5.0869c0,.26.01.48-.22.65a.9937.9937,0,0,1-.58.17.7112.7112,0,0,1-.8-.79c0-.18.03-.3593.03-.54V45.6257a.2249.2249,0,0,0-.23-.2207C68.2343,45.405,67.995,45.4158,67.7646,45.4158Z"/><path class="4f23797d-18f4-4836-8084-4dcccf7ba9aa" d="M76.1239,45.4851c-.26,0-.51-.02-.77-.02a.2057.2057,0,0,0-.23.21c-.02.1993-.01.4-.02.6-.01.23-.03.47-.03.6992,0,.08.03.16.12.16.12,0,.5595-.3095.9492-.3095.33,0,.7695.18.7695.5693,0,.5693-1.2685.8594-1.709.9893a.2372.2372,0,0,0-.1592.23,16.8214,16.8214,0,0,0,.1094,1.7285c.01.11-.03.24.13.24.22,0,.45-.0606.67-.0606.34,0,.8291.15.8291.57,0,.6094-1.0586.63-1.4785.63s-1.2695,0-1.5391-.36a1.6619,1.6619,0,0,1-.16-.7393,18.43,18.43,0,0,1-.14-2.2295c0-1.039.06-2.0683.0694-3.1074.01-.48.03-.89.57-.92.6191-.03.7793-.02,1.6084-.02a2.124,2.124,0,0,1,.83.1.56.56,0,0,1,.38.4892C76.9238,45.3259,76.4433,45.4851,76.1239,45.4851Z"/><path class="4f23797d-18f4-4836-8084-4dcccf7ba9aa" d="M82.5829,51.3826c-.8593,0-2.0488-1.05-2.1982-1.05-.07,0-.08.08-.08.14,0,.23.09.45.09.67,0,.38-.49.55-.8.55-.75,0-.88-.6-.93-1.21-.12-1.4385-.16-2.8877-.19-4.3272,0-.38-.17-.93.14-1.26a4.3445,4.3445,0,0,1,2.0488-.4893c1.01,0,2.1289.51,2.1289,1.669a3.7793,3.7793,0,0,1-1.8291,2.7988.1632.1632,0,0,0-.08.13.1657.1657,0,0,0,.08.12c.6094.38,1.209.7891,1.8389,1.1289.26.14.4794.16.4794.63C83.2821,51.2527,82.9032,51.3826,82.5829,51.3826ZM80.6542,45.575c-.12,0-.56.0107-.56.16,0,.6.02,1.22.06,1.8194,0,.05.02.13.09.13.03,0,.06-.03.09-.05a2.5178,2.5178,0,0,0,.82-1.5791C81.1542,45.7048,80.9941,45.575,80.6542,45.575Z"/><path class="4f23797d-18f4-4836-8084-4dcccf7ba9aa" d="M86.5243,44.8455c1.13,0,2.5791.5595,2.5791,1.89,0,.8789-.71,1.2891-1.4394,1.5391-.05.02-.12.04-.12.1,0,.16,1.1093.96,1.289,1.0791.2207.1406.62.27.62.62a.683.683,0,0,1-.72.6c-.8691,0-2.1289-1.3291-2.2783-1.3291-.0605,0-.0605.08-.0605.12,0,.1592.03.3194.03.48,0,.5694-.22.89-.8291.89-.52,0-.8095-.22-.8095-.75,0-.98.01-1.959.01-2.9385,0-.8-.08-2.0186.43-2.209A6.617,6.617,0,0,1,86.5243,44.8455Zm.09,1.1494c-.3194,0-.3.25-.3.49,0,.2295-.02.47-.02.6992,0,.12.18.09.27.09.3506,0,.93-.0694.93-.5391A.8524.8524,0,0,0,86.6142,45.9949Z"/><path class="4f23797d-18f4-4836-8084-4dcccf7ba9aa" d="M91.1054,46.4949c.06-.31.3994-.42.68-.42.37,0,.85.19.85.62,0,.8193-.09,1.5185-.09,2.3388a2.2629,2.2629,0,0,0,.06.9288.3737.3737,0,0,1,.05.1806.8642.8642,0,0,1-.06.27.7662.7662,0,0,1-.789.5c-.69,0-.85-.4-.85-1.01,0-.16.01-.32.01-.48A15.134,15.134,0,0,1,91.1054,46.4949Zm-.06-1.8887a.7075.7075,0,0,1,.7891-.64c.39,0,.8.21.8.64,0,.4395-.41.6494-.8.6494A.7083.7083,0,0,1,91.0458,44.6062Z"/><path class="4f23797d-18f4-4836-8084-4dcccf7ba9aa" d="M98.8339,45.3552c-.3105,0-.58.05-.95.05a.2308.2308,0,0,0-.23.2207v4.7969c0,.2295.02.46.02.6992,0,.58-.1993.86-.8194.86-.89,0-.8291-.6-.8291-1.2793,0-.51.0293-.5.0293-1.01V45.4158a.21.21,0,0,0-.2295-.21c-.28,0-.1894.0293-.47.0293-.35,0-1.419,0-1.419-.539s.47-.62.8692-.62c.83,0,1.289-.0293,2.1191-.0293.5391,0,2.7783-.12,2.7783.73C99.703,45.1755,99.1738,45.3552,98.8339,45.3552Z"/><path class="4f23797d-18f4-4836-8084-4dcccf7ba9aa" d="M106.4521,47.4744a3.382,3.382,0,0,1-3.1875,3.248,2.4533,2.4533,0,0,1-2.459-2.5488,2.9934,2.9934,0,0,1,2.9082-3.0479A2.6477,2.6477,0,0,1,106.4521,47.4744Zm-1.6387.05c0-.59-.6494-1.5391-1.4395-1.1494a2.1421,2.1421,0,0,0-.9492,1.8388c0,.48.28,1.35.8692,1.35C104.1142,49.5632,104.8134,48.2439,104.8134,47.5242Z"/><path class="4f23797d-18f4-4836-8084-4dcccf7ba9aa" d="M107.8154,44.3162c-.0206-.43.4091-.63.7792-.6494s.83.14.85.5693c.02.4394-.41.6494-.7891.67C108.2851,44.9158,107.8349,44.7459,107.8154,44.3162Zm1.7187,1.8984c.05.94,0,1.749-.01,2.6992-.01.42-.08.72-.06,1.06a.7746.7746,0,0,1-.7793.6c-.5.0293-.81-.13-.8291-.67a5.7658,5.7658,0,0,1,.0195-.58c.02-.76.01-.8789.04-1.6387.01-.43.03-.6894.01-1.1093-.0293-.63.04-.9493.75-.98C109.1142,45.575,109.5146,45.7156,109.5341,46.2146Z"/><path class="4f23797d-18f4-4836-8084-4dcccf7ba9aa" d="M114.1728,48.5632c.3506.3506.57.8.9,1.17.1992.22.51.24.6289.55.1806.4394-.4395.709-.7989.709-1.07,0-1.8691-1.7383-2.0693-1.7383-.05,0-.05.08-.05.1093,0,.43.01.87-.01,1.3a.7062.7062,0,0,1-.27.6494,1.0406,1.0406,0,0,1-.5693.16.6838.6838,0,0,1-.7695-.76c0-.55.0195-1.3594,0-1.9395-.03-1.2891-.1-2.4287-.1-3.7178a.5874.5874,0,0,1,.0595-.29c.25-.47,1.3389-.68,1.8194-.68a2.1462,2.1462,0,0,1,2.3086,2.1094,2.7309,2.7309,0,0,1-1.0694,2.1191.1623.1623,0,0,0-.08.1192A.1849.1849,0,0,0,114.1728,48.5632Zm-1.209-3.3671c-.14,0-.3193.02-.3193.1894l.02.73c.01.45.03.9092.06,1.3594.0107.08.04.1494.1308.1494a.2366.2366,0,0,0,.0791-.02,1.5064,1.5064,0,0,0,.75-1.2989C113.6835,45.865,113.5038,45.1961,112.9638,45.1961Z"/><path class="4f23797d-18f4-4836-8084-4dcccf7ba9aa" d="M119.9032,45.4851c-.26,0-.51-.02-.7695-.02a.2057.2057,0,0,0-.2305.21c-.0195.1993-.01.4-.0195.6-.01.23-.03.47-.03.6992,0,.08.03.16.12.16.12,0,.5595-.3095.9492-.3095.33,0,.77.18.77.5693,0,.5693-1.2685.8594-1.709.9893a.2372.2372,0,0,0-.1592.23,16.8214,16.8214,0,0,0,.1094,1.7285c.01.11-.03.24.13.24.22,0,.45-.0606.67-.0606.34,0,.8291.15.8291.57,0,.6094-1.0586.63-1.4785.63s-1.2695,0-1.5391-.36a1.6619,1.6619,0,0,1-.16-.7393,18.43,18.43,0,0,1-.14-2.2295c0-1.039.06-2.0683.0694-3.1074.01-.48.03-.89.57-.92.6191-.03.7793-.02,1.6084-.02a2.124,2.124,0,0,1,.83.1.56.56,0,0,1,.38.4892C120.703,45.3259,120.2226,45.4851,119.9032,45.4851Z"/><path class="4f23797d-18f4-4836-8084-4dcccf7ba9aa" d="M125.4726,44.5164c-.3594.6-1.4395.0791-1.4395,1.4687,0,1.6895,1.41,3.2783,1.41,4.8975,0,1.209-.95,1.7187-2.05,1.7187-.39,0-1.1885-.03-1.1885-.5791,0-.46.51-.59.8789-.59.36,0,.71.08.71-.42,0-1.52-1.3994-3.2383-1.3994-5.0274a2.5175,2.5175,0,0,1,2.3486-2.2783C125.1425,43.7068,125.7529,44.0564,125.4726,44.5164Z"/><path class="4f23797d-18f4-4836-8084-4dcccf7ba9aa" d="M129.6445,49.1638a30.1707,30.1707,0,0,1-.08-3.0185v-1.21c0-.39.4092-.539.7392-.539.43,0,.7793.1591.7793.64,0,1.1387-.0293,2.2783.03,3.418.01.21.0606.41.0606.6191,0,.44-.38.62-.7706.62C130.0741,49.6931,129.6845,49.5427,129.6445,49.1638Zm1.5888,2.5381c0,.38-.4394.5293-.75.5293-.4189,0-.77-.18-.77-.6387,0-.08.0107-.16.0107-.24,0-.38.4493-.54.77-.54.4091,0,.749.21.749.6494Z"/><polygon class="a435d3db-645d-4b2e-a4b8-d6956e93d116" points="135.951 68.368 195.156 96.378 143.641 64.235 135.951 68.368"/></g></svg>