<svg xmlns="http://www.w3.org/2000/svg" width="116.0962mm" height="20.1734mm" viewBox="0 0 329.0915 57.1844"><defs><style>.a043a980-aad6-4cbd-ad16-6a1cd880b5dc{fill:none;stroke:#d7ead8;stroke-linecap:round;stroke-linejoin:round;stroke-width:24px;}.\39 0160c89-1944-472c-a326-88d89f9f2c5e{fill:#0c795c;}</style></defs><title>Titres</title><g id="ed4f253c-baa1-4462-9f74-c0a6f0ce3e73" data-name="Texte"><path class="a043a980-aad6-4cbd-ad16-6a1cd880b5dc" d="M13.1038,37.4664A61.4168,61.4168,0,0,1,34.5689,22.9881l7.9879,20.1177A128.6734,128.6734,0,0,0,58.5914,13.0439L69.3643,30.6288c.9376,1.53,2.0336,3.1844,3.7645,3.6586,5.6418,1.5455,6.51-9.4919,12.1392-11.0841,3.8683-1.0942,7.1691,2.9649,8.7718,6.6516s3.3729,8.131,7.3052,8.9662c4.9393,1.049,8.5746-4.3422,10.94-8.8035s8.9365-8.5638,13.53-6.4677c2.0221.9227,11.2841-.9672,12.3526.9818,3.1644,5.7722-2.0655,8.8794,1.0989,14.6515,10.3412-5.2708,9.4383-8.6481,19.7795-13.9189.96-.4893,11.7441-12.1618,12.82-12.22,2.4395-.1327,4.1264,16.9357,5.662,18.8358l9.5384,11.8023,9.9672-14.7686a6.2054,6.2054,0,0,1,2.6226-2.57c1.491-.5774,3.1373.0668,4.68.485a16.8858,16.8858,0,0,0,19.1744-9.07c2.3833,5.78,4.7312,5.85,8.7923,10.6041,1.01,1.1826,3.09,7.7,4.5675,8.1874,2.096.6915,8.4166-7.33,10.45-8.1874,10.9409-4.6149,17.8189-2.0794,28.76-6.6943l9.0843,17.1672,13.37-22.0389c.5492-.9052,1.2906-1.9231,2.3492-1.9074a2.8321,2.8321,0,0,1,1.9676,1.2588c4.6675,5.675,6.1469,15.14,13.32,16.7328"/><path class="90160c89-1944-472c-a326-88d89f9f2c5e" d="M23.592,34.2535a4.1245,4.1245,0,0,1-3.3135-2.0888,7.1464,7.1464,0,0,1-.81-3.6006,10.7223,10.7223,0,0,1,1.3858-5.582,3.9336,3.9336,0,0,1,3.26-1.8907A1.9126,1.9126,0,0,1,25.5,21.56c.1445.1621.0908.2158.3242.3056a4.2815,4.2815,0,0,1,.5049.2159,5.88,5.88,0,0,1,3.168,5.6357,7.8959,7.8959,0,0,1-.9541,3.8174,6.622,6.622,0,0,1-.8458,1.1348.4081.4081,0,0,0-.0722.2519,4.7831,4.7831,0,0,0,.666,1.3145c.3066.3955.9365.3593.9365,1.0439,0,.7022-.8642,1.0439-1.459,1.0439-1.3134,0-1.9443-1.08-2.538-2.07a.158.158,0,0,0-.1622-.1084,1.5794,1.5794,0,0,0-.288.0547,4.9724,4.9724,0,0,1-.9.0537Zm-.45-9.8847a9.8415,9.8415,0,0,0-.8457,4.123c0,1.0088.2871,3.5293,1.5478,3.7451h.0537a.2131.2131,0,0,0,.2168-.2343c0-.3233-.8281-1.5479-.8281-1.8721,0-.5947.8994-.99,1.4219-.99.8828,0,1.332.7744,1.4766.7744.3242,0,.4863-1.8731.4863-2.1787a6.0765,6.0765,0,0,0-.3779-2.125c-.3428-.8819-1.3331-2.1065-2.4131-2.1065C23.5021,23.5045,23.2678,24.0807,23.1418,24.3688Z"/><path class="90160c89-1944-472c-a326-88d89f9f2c5e" d="M32.1945,27.3219c0-.5586.0362-1.1162.0723-1.6748.09-1.2783.1435-3.0606,1.8545-3.0606.63,0,1.458.2159,1.458.99a10.1566,10.1566,0,0,1-.3418,1.4219,15.0417,15.0417,0,0,0-.1445,2.2148c0,.5762.1259,3.5469.9189,3.5469a.4672.4672,0,0,0,.3057-.126c1.4043-1.0986,2.3584-4.8789,2.5029-6.6436.0361-.5039-.0723-.99.3779-1.3505a1.75,1.75,0,0,1,1.0987-.36c.7919,0,1.44.3779,1.44,1.2422a14.2248,14.2248,0,0,1-.5762,3.331c-.6484,2.4668-2.0351,6.0323-5.0957,6.0323C32.8605,32.8854,32.1945,29.9147,32.1945,27.3219Z"/><path class="90160c89-1944-472c-a326-88d89f9f2c5e" d="M45.9113,21.7936c-.6308,0-1.4765-.3057-1.4765-1.0615s.8457-1.045,1.4765-1.045,1.4766.2881,1.4766,1.045S46.5412,21.7936,45.9113,21.7936Zm.2334,2.5927c.6485,0,1.4766.3067,1.4766,1.0811,0,3.15.126,4.1768.126,7.3281,0,.7735-.8282,1.08-1.4766,1.08s-1.4756-.3066-1.4756-1.08c0-3.1513-.126-4.1777-.126-7.3281C44.6691,24.693,45.4973,24.3863,46.1447,24.3863Z"/><path class="90160c89-1944-472c-a326-88d89f9f2c5e" d="M61.5539,32.6149c-.6113,1.1347-2.8447,1.2607-3.9785,1.2607h-.8106c-1.7822,0-1.6562-2.3223-1.7461-3.5654-.0547-.72-.0722-1.44-.0722-2.16a44.4333,44.4333,0,0,1,.3779-5.582,1.5261,1.5261,0,0,1,1.08-1.332,3.3855,3.3855,0,0,1,1.0449-.126c.3232,0,.666.0176,1.0078.0176.7207,0,1.44.0361,2.2149.0361.5576,0,1.2607.2344,1.2607.918,0,1.2246-2.6113,1.0263-3.44,1.081a.4634.4634,0,0,0-.45.3955c-.0723.4326-.18,1.7647-.18,2.2149a.3736.3736,0,0,0,.3779.3965h.9365c.3594,0,.72-.0362,1.0977-.0362.5947,0,1.333.27,1.333.99,0,.99-1.3506,1.0625-2.0528,1.0625H58.89c-.36,0-1.0986-.1446-1.0986.414a25.1512,25.1512,0,0,0,.1621,2.61v.1084c0,.2343-.0537.54.27.54.7207,0,1.3145-.6123,2.0352-.6123.54,0,1.4043.3242,1.4043.9727A.7678.7678,0,0,1,61.5539,32.6149Z"/><path class="90160c89-1944-472c-a326-88d89f9f2c5e" d="M68.7892,21.1822c.5762,0,1.4043.252,1.4043.9717a1.06,1.06,0,0,1-.7558.9366c-.1983.0722-.3789.0537-.5762.1074-.6846.1621-.8105,1.0625-.8105,1.6386,0,2.0713.9541,4.0157.9541,6.086,0,1.8183-.8819,2.665-2.7188,2.665-.6484,0-1.6562-.2344-1.6562-1.0625,0-.7744.792-.8818,1.3506-.99.18-.0361.1972-.1983.1972-.36,0-2.0166-1.0078-4.1591-1.0078-6.2656A3.4408,3.4408,0,0,1,68.7892,21.1822Z"/><path class="90160c89-1944-472c-a326-88d89f9f2c5e" d="M79.9865,21.2721c.54,0,1.6387.3057,1.6387.99,0,1.3145-2.1612,1.1162-3.0069,1.2246a.3451.3451,0,0,0-.3418.3594c0,1.8731.0538,3.6192.18,5.42.09,1.3682.2159,2.7725.2159,4.2491a1.3146,1.3146,0,0,1-1.4766,1.4765c-.6475,0-1.53-.3056-1.53-1.08,0-2.8447-.09-5.6-.1435-8.5166a8.8817,8.8817,0,0,0-.0186-1.3867.5494.5494,0,0,0-.5937-.45c-.7207,0-2.4668.1446-2.4668-1.0078,0-.9189,1.1162-1.0986,1.8007-1.0986C76.1515,21.4518,78.0422,21.2721,79.9865,21.2721Z"/><path class="90160c89-1944-472c-a326-88d89f9f2c5e" d="M91.4328,21.3258c3.4756,0,5.6357,2.8272,5.6357,6.1582,0,3.2949-2.1787,6.0313-5.6171,6.0313a6.0058,6.0058,0,0,1-1.2608-.126c-.7207-.1621-1.17-.45-1.2422-1.2422-.0722-.8643-.1621-1.7109-.2519-2.5752a34.8769,34.8769,0,0,1-.3242-3.8887,7.6956,7.6956,0,0,1,.2343-2.125,1,1,0,0,0,.1074-.3779c0-.2344-.1435-.4141-.1435-.6484C88.5705,21.5416,90.7131,21.3258,91.4328,21.3258Zm.792,10.083c1.4951-.6123,1.999-2.4668,1.999-3.9433a4.6094,4.6094,0,0,0-1.458-3.6553,2.0184,2.0184,0,0,0-.8828-.4141,1.0322,1.0322,0,0,0-.4678.45,4.7228,4.7228,0,0,0-.1982,1.585,49.9307,49.9307,0,0,0,.4863,5.6718c.0176.1612.09.378.2881.378A1.1683,1.1683,0,0,0,92.2248,31.4088Z"/><path class="90160c89-1944-472c-a326-88d89f9f2c5e" d="M104.5549,23.2887c-.4678,0-.918-.0361-1.3858-.0361a.37.37,0,0,0-.415.3779c-.0352.36-.0176.72-.0352,1.08-.0185.414-.0547.8466-.0547,1.2607,0,.1436.0547.2881.2159.2881.2168,0,1.0088-.5586,1.7109-.5586.5938,0,1.3867.3242,1.3867,1.0264,0,1.0263-2.2871,1.5488-3.0791,1.7832a.4267.4267,0,0,0-.2881.414,30.0261,30.0261,0,0,0,.1983,3.1143c.0176.1982-.0547.4326.2334.4326.3965,0,.8105-.1084,1.207-.1084.6123,0,1.4941.27,1.4941,1.0264,0,1.0986-1.9082,1.1347-2.665,1.1347s-2.2861,0-2.7725-.6484a3.0007,3.0007,0,0,1-.288-1.332,33.1607,33.1607,0,0,1-.252-4.0156c0-1.8731.1074-3.7276.126-5.6.0176-.8642.0537-1.6025,1.0264-1.6562,1.1162-.0547,1.4042-.0361,2.8984-.0361a3.8355,3.8355,0,0,1,1.4951.18,1.01,1.01,0,0,1,.6836.8829C105.9953,23.0006,105.131,23.2887,104.5549,23.2887Z"/><path class="90160c89-1944-472c-a326-88d89f9f2c5e" d="M116.1838,33.9117c-1.5489,0-3.6914-1.8906-3.961-1.8906-.1259,0-.1445.1436-.1445.252,0,.414.1621.81.1621,1.206,0,.6846-.8818.99-1.44.99-1.3506,0-1.584-1.08-1.6748-2.1788-.2158-2.5927-.2881-5.2031-.3418-7.7959,0-.6845-.3057-1.6748.2519-2.2685.54-.5762,2.8809-.8828,3.6914-.8828,1.8184,0,3.835.9189,3.835,3.0068,0,2.1787-1.6924,3.836-3.2949,5.042a.2475.2475,0,0,0,0,.45c1.0986.6846,2.1787,1.4219,3.3125,2.0342.4687.2529.8642.2881.8642,1.1347C117.4435,33.6774,116.76,33.9117,116.1838,33.9117Zm-3.4756-10.4609c-.2158,0-1.0078.0176-1.0078.2881,0,1.08.0361,2.1963.1074,3.2764,0,.09.0361.2343.1621.2343.0547,0,.1084-.0537.1621-.09a4.5323,4.5323,0,0,0,1.4766-2.8447C113.6086,23.6842,113.3205,23.4508,112.7082,23.4508Z"/><path class="90160c89-1944-472c-a326-88d89f9f2c5e" d="M123.2746,22.1363c2.0342,0,4.6455,1.0079,4.6455,3.4024,0,1.585-1.2783,2.3232-2.5928,2.7734-.09.0362-.2158.0713-.2158.18,0,.2881,1.9981,1.7285,2.3223,1.9444.3965.2519,1.1162.4863,1.1162,1.1171a1.2308,1.2308,0,0,1-1.2959,1.08c-1.5664,0-3.8359-2.3945-4.1055-2.3945-.1084,0-.1084.1435-.1084.2158,0,.2881.0547.5762.0547.8643,0,1.0263-.3965,1.6025-1.4951,1.6025-.9365,0-1.458-.3965-1.458-1.3506,0-1.7646.0176-3.5293.0176-5.2939,0-1.44-.1436-3.6367.7744-3.9785A11.8328,11.8328,0,0,1,123.2746,22.1363Zm.1621,2.07c-.5762,0-.54.45-.54.8818,0,.4141-.0362.8467-.0362,1.2607,0,.2159.3243.1621.4864.1621.63,0,1.6738-.1259,1.6738-.9726A1.5354,1.5354,0,0,0,123.4367,24.2067Z"/><path class="90160c89-1944-472c-a326-88d89f9f2c5e" d="M131.5168,25.1071c.1084-.5586.7207-.7569,1.2246-.7569.666,0,1.53.3428,1.53,1.1172,0,1.4766-.1621,2.7363-.1621,4.2129a4.0774,4.0774,0,0,0,.1084,1.6748.6757.6757,0,0,1,.09.3242,1.5863,1.5863,0,0,1-.1074.4854,1.38,1.38,0,0,1-1.4229.9c-1.2422,0-1.53-.72-1.53-1.8184,0-.2881.0175-.5762.0175-.8643A27.23,27.23,0,0,1,131.5168,25.1071Zm-.1074-3.4034a1.275,1.275,0,0,1,1.4218-1.1523c.7022,0,1.4405.3779,1.4405,1.1523a1.46,1.46,0,0,1-2.8623,0Z"/><path class="90160c89-1944-472c-a326-88d89f9f2c5e" d="M143.6691,32.6149c-.6113,1.1347-2.8447,1.2607-3.9785,1.2607h-.81c-1.7823,0-1.6563-2.3223-1.7461-3.5654-.0547-.72-.0723-1.44-.0723-2.16a44.4521,44.4521,0,0,1,.3779-5.582,1.5262,1.5262,0,0,1,1.08-1.332,3.3859,3.3859,0,0,1,1.0449-.126c.3233,0,.6661.0176,1.0078.0176.7208,0,1.4405.0361,2.2149.0361.5576,0,1.2607.2344,1.2607.918,0,1.2246-2.6113,1.0263-3.4394,1.081a.4634.4634,0,0,0-.45.3955c-.0723.4326-.18,1.7647-.18,2.2149a.3737.3737,0,0,0,.3779.3965h.9366c.3593,0,.72-.0362,1.0976-.0362.5947,0,1.333.27,1.333.99,0,.99-1.3506,1.0625-2.0527,1.0625h-.666c-.36,0-1.0987-.1446-1.0987.414a25.1512,25.1512,0,0,0,.1621,2.61v.1084c0,.2343-.0537.54.27.54.7207,0,1.3144-.6123,2.0351-.6123.54,0,1.4043.3242,1.4043.9727A.7678.7678,0,0,1,143.6691,32.6149Zm-2.1064-13.7735c.2519.2158.8828.6123.8281,1.0078-.09.7745-1.206.7745-1.6738.4141-.3789-.2881-.7207-.6484-1.0987-.9541-.288-.2158-.8281-.4678-.8642-.8818-.1084-.793,1.1523-.8828,1.6025-.5411C140.7707,18.193,141.1672,18.5172,141.5627,18.8414Z"/><path class="90160c89-1944-472c-a326-88d89f9f2c5e" d="M152.3449,28.8336c.63.6309,1.0264,1.44,1.62,2.1074.36.3955.919.4317,1.1348.99.3242.792-.792,1.2783-1.44,1.2783-1.9268,0-3.3672-3.1328-3.7276-3.1328-.09,0-.09.1435-.09.1972,0,.7745.0185,1.5665-.0176,2.3409a1.2734,1.2734,0,0,1-.4863,1.1709,1.8833,1.8833,0,0,1-1.0264.288,1.2325,1.2325,0,0,1-1.3867-1.3681c0-.9912.0361-2.4492,0-3.4932-.0537-2.3232-.18-4.376-.18-6.6982a1.0537,1.0537,0,0,1,.1074-.5225c.45-.8457,2.4131-1.2246,3.2774-1.2246a3.8662,3.8662,0,0,1,4.1591,3.8,4.9134,4.9134,0,0,1-1.9267,3.8164.3005.3005,0,0,0-.1436.2168A.3348.3348,0,0,0,152.3449,28.8336Zm-2.1787-6.0674c-.252,0-.5762.0362-.5762.3418l.0362,1.3145c.0175.8105.0537,1.6387.1074,2.4492.0185.1436.0722.27.2344.27a.4184.4184,0,0,0,.1445-.0361,2.7138,2.7138,0,0,0,1.35-2.34C151.4621,23.9723,151.1389,22.7662,150.1662,22.7662Z"/><path class="90160c89-1944-472c-a326-88d89f9f2c5e" d="M162.6584,23.2887c-.4678,0-.918-.0361-1.3858-.0361a.37.37,0,0,0-.415.3779c-.0352.36-.0176.72-.0352,1.08-.0185.414-.0546.8466-.0546,1.2607,0,.1436.0546.2881.2158.2881.2168,0,1.0088-.5586,1.7109-.5586.5938,0,1.3867.3242,1.3867,1.0264,0,1.0263-2.2871,1.5488-3.0791,1.7832a.4267.4267,0,0,0-.2881.414,30.0261,30.0261,0,0,0,.1983,3.1143c.0176.1982-.0547.4326.2334.4326.3965,0,.81-.1084,1.207-.1084.6123,0,1.4942.27,1.4942,1.0264,0,1.0986-1.9082,1.1347-2.6651,1.1347s-2.2861,0-2.7724-.6484a2.9994,2.9994,0,0,1-.2881-1.332,33.1607,33.1607,0,0,1-.252-4.0156c0-1.8731.1074-3.7276.126-5.6.0176-.8642.0537-1.6025,1.0264-1.6562,1.1162-.0547,1.4043-.0361,2.8984-.0361a3.8355,3.8355,0,0,1,1.4951.18,1.01,1.01,0,0,1,.6836.8829C164.0988,23.0006,163.2346,23.2887,162.6584,23.2887Z"/><path class="90160c89-1944-472c-a326-88d89f9f2c5e" d="M184.3332,22.2262c0,2.0889-.0361,4.1953.0537,6.2842a8.3551,8.3551,0,0,0,.1084,1.5117c.0713.3242.3232.6309.3232.9551,0,.72-.9541,1.1523-1.5664,1.1523-1.8359,0-1.6562-2.0713-1.71-3.35-.0362-.9-.0186-1.8184-.0723-2.7187,0-.0538,0-.1983-.09-.1983-.2344,0-1.3506,2.4854-3.0069,2.4854-1.3867,0-3.0254-2.7549-3.5117-2.7549-.2519,0-.3057.9355-.3232,1.1338a52.6788,52.6788,0,0,0-.3243,5.582c0,.99-.414,1.4766-1.44,1.4766a1.3059,1.3059,0,0,1-1.4765-1.4952c0-1.4755.45-8.7861,1.3144-9.5966a1.4311,1.4311,0,0,1,.99-.3594c1.2784,0,3.043,1.35,3.8887,2.2685.2168.2334.4863.7022.8281.7022.793,0,2.6289-4.4658,4.6455-4.4658A1.24,1.24,0,0,1,184.3332,22.2262Z"/><path class="90160c89-1944-472c-a326-88d89f9f2c5e" d="M194.1223,32.6149c-.6114,1.1347-2.8448,1.2607-3.9786,1.2607h-.81c-1.7822,0-1.6563-2.3223-1.7461-3.5654-.0547-.72-.0723-1.44-.0723-2.16a44.4334,44.4334,0,0,1,.378-5.582,1.5261,1.5261,0,0,1,1.08-1.332,3.3862,3.3862,0,0,1,1.045-.126c.3232,0,.666.0176,1.0078.0176.7207,0,1.44.0361,2.2148.0361.5576,0,1.2608.2344,1.2608.918,0,1.2246-2.6114,1.0263-3.44,1.081a.4634.4634,0,0,0-.45.3955c-.0723.4326-.18,1.7647-.18,2.2149a.3737.3737,0,0,0,.378.3965h.9365c.3594,0,.72-.0362,1.0976-.0362.5948,0,1.333.27,1.333.99,0,.99-1.35,1.0625-2.0527,1.0625h-.666c-.36,0-1.0986-.1446-1.0986.414a25.1236,25.1236,0,0,0,.1621,2.61v.1084c0,.2343-.0537.54.2695.54.7207,0,1.3145-.6123,2.0352-.6123.54,0,1.4043.3242,1.4043.9727A.7688.7688,0,0,1,194.1223,32.6149Zm-2.5206-12.7295c-.666.3779-1.44,1.1162-2.2324.54-.9-.63.5762-1.332,1.0264-1.584.666-.3789,1.44-1.0986,2.2324-.54C193.5285,18.9488,192.0519,19.6334,191.6017,19.8854Z"/><path class="90160c89-1944-472c-a326-88d89f9f2c5e" d="M198.17,23.1627c-.5937,0-1.4219-.3066-1.4219-1.0088,0-.6484.7383-.9541,1.2959-.99,1.8008-.126,3.6016-.09,5.4024-.1621.3779-.0176.7558-.0723,1.1338-.0723.63,0,1.6025.2344,1.6025,1.0449a.7265.7265,0,0,1-.1621.45,2.0779,2.0779,0,0,1-1.6738.5577l-1.2608.0546c-.2519.0176-.414-.1259-.414.2334v9.1651c0,.4678.0175.8642-.3965,1.17a1.7707,1.7707,0,0,1-1.044.3066,1.28,1.28,0,0,1-1.44-1.4228c0-.3242.0537-.6484.0537-.9717V23.5406a.4036.4036,0,0,0-.4141-.3964C199.0168,23.1442,198.5851,23.1627,198.17,23.1627Z"/><path class="90160c89-1944-472c-a326-88d89f9f2c5e" d="M208.5207,28.78V24.8727c0-.7559.81-1.044,1.44-1.044,1.458,0,1.4942.9366,1.4942,2.1065,0,1.08-.0538,1.53-.0538,2.61v4.5557c0,.7568-.81,1.0625-1.458,1.0625-1.6211,0-1.4951-1.2061-1.4951-2.4131C208.4484,30.76,208.5207,29.77,208.5207,28.78Zm1.5127-6.6074c-1.8731,0-2.3233-2.5576.0713-2.5576C211.96,19.6149,212.3918,22.1725,210.0334,22.1725Z"/><path class="90160c89-1944-472c-a326-88d89f9f2c5e" d="M220.1682,21.5416c-.6485,1.08-2.5928.1446-2.5928,2.6475,0,3.042,2.539,5.9053,2.539,8.8222,0,2.1788-1.7109,3.0967-3.6914,3.0967-.7021,0-2.1425-.0537-2.1425-1.0439,0-.8281.9179-1.0625,1.5839-1.0625.6485,0,1.2784.1435,1.2784-.7559,0-2.7373-2.52-5.834-2.52-9.0566a4.5386,4.5386,0,0,1,4.2314-4.1055C219.5734,20.0836,220.6721,20.7135,220.1682,21.5416Z"/><path class="90160c89-1944-472c-a326-88d89f9f2c5e" d="M233.02,21.65a9.1,9.1,0,0,1,.99.0537,1.1,1.1,0,0,1,1.0079,1.0088c0,.7022-.792.9541-1.3682.9541a3.9979,3.9979,0,0,0-1.458.09,1.412,1.412,0,0,0-.793,1.4765c0,2.3223,2.1426,3.1866,2.1426,5.2032,0,1.8007-1.7285,2.7548-3.3311,2.7548-.81,0-2.7-.3955-2.7-1.458,0-.666.36-1.3144.918-1.3144.7207,0,1.1162.792,1.7647.7558.3418-.0175.54-.4863.54-.7734,0-.7207-1.3506-2.2871-1.71-3.0615a5.2676,5.2676,0,0,1-.45-2.1065C228.5724,22.6217,230.66,21.65,233.02,21.65Z"/><path class="90160c89-1944-472c-a326-88d89f9f2c5e" d="M246.0881,23.0543c-.5576,0-1.044.09-1.71.09a.4155.4155,0,0,0-.4141.3964v8.6426c0,.4141.0352.8281.0352,1.26,0,1.0449-.3594,1.5488-1.4756,1.5488-1.6025,0-1.4951-1.08-1.4951-2.3047,0-.9179.0547-.9.0547-1.8183V23.1627a.38.38,0,0,0-.4141-.3789c-.5049,0-.3427.0547-.8467.0547-.63,0-2.5566,0-2.5566-.9727s.8457-1.1162,1.5664-1.1162c1.4942,0,2.3223-.0537,3.8174-.0537.9717,0,5.0049-.2168,5.0049,1.3145C247.6545,22.73,246.7,23.0543,246.0881,23.0543Z"/><path class="90160c89-1944-472c-a326-88d89f9f2c5e" d="M254.0246,33.7672c-4.0156,0-3.98-4.4648-4.0156-7.3994,0-.45,0-.9-.0352-1.3506-.0185-.2168-.0723-.45-.0723-.667,0-.7373.8106-1.0615,1.4219-1.0615,1.6387,0,1.6748,1.2422,1.6748,2.5029,0,1.35-.1435,4.5733.7383,5.6172.36.4678.7383-.0723.99-.4316a15.7,15.7,0,0,0,2.125-6.95c0-.5948-.1806-1.4766.27-1.9453a1.5924,1.5924,0,0,1,1.1709-.4678c1.6924,0,1.584,1.4766,1.584,2.7012a34.0214,34.0214,0,0,0,.45,6.0673c.1084.4678.5947.7559.5947,1.2247,0,.7021-.99,1.0439-1.585,1.0439-1.1162,0-1.584-.9365-1.7461-.9365C257.3918,31.7145,256.3293,33.7672,254.0246,33.7672Z"/><path class="90160c89-1944-472c-a326-88d89f9f2c5e" d="M272.3674,26.3678c0,3.6367-3.4024,5.8516-6.68,6.3018a3.921,3.921,0,0,1-.6485.0537,1.2559,1.2559,0,0,1-1.4218-1.3868c0-2.7363.0175-5.4736.0175-8.21,0-1.5664,1.8545-1.3506,2.9532-1.3506C269.4152,21.776,272.3674,23.1442,272.3674,26.3678ZM266.93,30.1305a4.304,4.304,0,0,0,2.5215-3.7627,2.5952,2.5952,0,0,0-.6124-1.7471,2.901,2.901,0,0,0-1.8007-.7558c-.2881-.0723-.4864.0361-.4864.3955v5.6181A.2523.2523,0,0,0,266.93,30.1305Z"/><path class="90160c89-1944-472c-a326-88d89f9f2c5e" d="M275.3351,25.1071c.1084-.5586.7207-.7569,1.2247-.7569.666,0,1.53.3428,1.53,1.1172,0,1.4766-.1621,2.7363-.1621,4.2129a4.0774,4.0774,0,0,0,.1084,1.6748.6758.6758,0,0,1,.09.3242,1.5865,1.5865,0,0,1-.1075.4854,1.38,1.38,0,0,1-1.4228.9c-1.2422,0-1.53-.72-1.53-1.8184,0-.2881.0176-.5762.0176-.8643A27.23,27.23,0,0,1,275.3351,25.1071Zm-.1074-3.4034a1.2751,1.2751,0,0,1,1.4219-1.1523c.7021,0,1.44.3779,1.44,1.1523a1.46,1.46,0,0,1-2.8623,0Z"/><path class="90160c89-1944-472c-a326-88d89f9f2c5e" d="M280.6086,27.9342c0-2.7549,1.5849-5.7617,4.4834-6.248a11.2649,11.2649,0,0,1,1.747-.1622c2.9708,0,4.4834,1.9981,4.4834,4.8438,0,3.457-2.125,6.5176-5.7978,6.5176A4.6316,4.6316,0,0,1,280.6086,27.9342Zm2.8808-.1084c0,1.3506.45,3.0244,2.0889,3.0244,1.9443,0,2.8809-2.7724,2.8809-4.3926,0-.7207-.2881-2.7373-1.2422-2.7373-.2158,0-.4141.0537-.63.0537-.2529,0-.5049-.0537-.7568-.0537C284.3,23.72,283.4894,26.6012,283.4894,27.8258Z"/><path class="90160c89-1944-472c-a326-88d89f9f2c5e" d="M298.2492,24.153a.749.749,0,0,1,.0723-.2881,3.8461,3.8461,0,0,1,3.4209-2.0352,2.7473,2.7473,0,0,1,2.8808,2.8272c0,1.7646-1.3691,3.7988-2.1787,5.3291a1.4821,1.4821,0,0,1-1.459.8828c-.5039,0-1.332-.3418-1.332-.9541,0-.8106,2.2324-3.2051,2.2324-5.33,0-.1983-.0537-.7559-.3242-.7559-.4863,0-.6123,1.2784-1.9258,1.2784C299.1135,25.1071,298.2492,24.7653,298.2492,24.153Zm4.1406,9.9746c0,.6845-.7734.9726-1.35.9726s-1.3691-.2881-1.3691-.9726c0-.6661.81-.9541,1.3691-.9541S302.39,33.4615,302.39,34.1276Z"/></g></svg>