<svg xmlns="http://www.w3.org/2000/svg" width="128.3747mm" height="19.9838mm" viewBox="0 0 363.8967 56.6469"><defs><style>.ad04b139-46ad-4a68-97d7-4c2867ca2e22{fill:none;stroke:#d7ead8;stroke-linecap:round;stroke-linejoin:round;stroke-width:24px;}.\32 7066eeb-4c6d-419b-a0e0-3024e6314b57{fill:#0c795c;}</style></defs><title>Titres</title><g id="80ec6150-6a4e-4a1c-8bf1-6f6afa7896b2" data-name="Texte"><path class="ad04b139-46ad-4a68-97d7-4c2867ca2e22" d="M13.3479,36.5A61.4163,61.4163,0,0,1,34.813,22.0221L42.8009,42.14A128.6814,128.6814,0,0,0,58.8356,12.0779L69.6085,29.6628c.9375,1.53,2.0335,3.1843,3.7645,3.6585,5.6417,1.5456,6.51-9.4919,12.1392-11.0841,3.8682-1.0942,7.169,2.9649,8.7717,6.6516s3.373,8.1311,7.3053,8.9663c4.9392,1.049,8.5746-4.3422,10.9395-8.8036s6.9144-9.4865,11.5082-7.39c2.0221.9227,3.2212,2.9969,4.29,4.946L137.82,43.9235l31.0235-15.8123a7.7914,7.7914,0,0,1,3.0319-1.0473c2.4395-.1327,4.3612,1.95,5.8968,3.85l9.5385,11.8023,9.9671-14.7686a6.2062,6.2062,0,0,1,2.6226-2.57c1.491-.5774,3.1373.0669,4.6806.4851a16.8859,16.8859,0,0,0,19.1744-9.07,59.4959,59.4959,0,0,0,9.7476,15.9335,8.6252,8.6252,0,0,0,3.6121,2.8581c2.096.6914,4.3538-.1792,6.3874-1.037l32.8228-13.8447,9.0842,17.1671,13.37-22.0388c.5492-.9052,1.2906-1.9231,2.3492-1.9074a2.8319,2.8319,0,0,1,1.9676,1.2588c4.6676,5.6749,6.1469,15.14,13.32,16.7328,6.2666,1.3914,11.4857-4.6238,15.084-9.94,7.9447,9.2221,9.9953,10.8419,15.7753,21.5545"/><path class="27066eeb-4c6d-419b-a0e0-3024e6314b57" d="M32.7493,25.26c0,2.0889-.0361,4.1954.0537,6.2842a8.3551,8.3551,0,0,0,.1084,1.5117c.0713.3243.3233.6309.3233.9551,0,.72-.9541,1.1524-1.5664,1.1524-1.836,0-1.6563-2.0713-1.71-3.35-.0361-.9-.0185-1.8184-.0722-2.7188,0-.0537,0-.1982-.09-.1982-.2344,0-1.3506,2.4853-3.0068,2.4853-1.3867,0-3.0254-2.7549-3.5117-2.7549-.252,0-.3057.9356-.3233,1.1338a52.7067,52.7067,0,0,0-.3242,5.582c0,.99-.4141,1.4766-1.44,1.4766a1.3059,1.3059,0,0,1-1.4766-1.4951c0-1.4756.45-8.7861,1.3145-9.5967a1.4314,1.4314,0,0,1,.99-.3594c1.2783,0,3.043,1.35,3.8887,2.2686.2168.2334.4863.7021.8281.7021.793,0,2.6289-4.4658,4.6455-4.4658A1.24,1.24,0,0,1,32.7493,25.26Z"/><path class="27066eeb-4c6d-419b-a0e0-3024e6314b57" d="M42.5384,35.6489C41.9271,36.7837,39.6937,36.91,38.56,36.91h-.8106c-1.7822,0-1.6562-2.3223-1.7461-3.5655-.0546-.72-.0722-1.44-.0722-2.16a44.4362,44.4362,0,0,1,.3779-5.5821,1.5261,1.5261,0,0,1,1.08-1.332,3.3859,3.3859,0,0,1,1.0449-.126c.3232,0,.666.0176,1.0078.0176.7207,0,1.44.0361,2.2149.0361.5576,0,1.2607.2344,1.2607.918,0,1.2246-2.6113,1.0264-3.4395,1.0811a.4633.4633,0,0,0-.45.3955c-.0723.4326-.18,1.7646-.18,2.2148a.3736.3736,0,0,0,.3779.3965h.9365c.3594,0,.72-.0361,1.0977-.0361.5947,0,1.333.27,1.333.99,0,.99-1.3506,1.0625-2.0528,1.0625h-.666c-.36,0-1.0986-.1445-1.0986.4141a25.1493,25.1493,0,0,0,.1621,2.61v.1084c0,.2344-.0537.54.2695.54.7207,0,1.3145-.6124,2.0352-.6124.54,0,1.4043.3243,1.4043.9727A.7676.7676,0,0,1,42.5384,35.6489ZM40.0179,22.9194c-.666.3779-1.44,1.1162-2.2324.54-.9-.63.5761-1.3321,1.0263-1.584.666-.3789,1.4405-1.0987,2.2325-.54C41.9446,21.9829,40.4681,22.6675,40.0179,22.9194Z"/><path class="27066eeb-4c6d-419b-a0e0-3024e6314b57" d="M46.5862,26.1968c-.5937,0-1.4218-.3067-1.4218-1.0088,0-.6485.7383-.9541,1.2959-.99,1.8008-.1259,3.6015-.09,5.4023-.1621.3779-.0175.7559-.0722,1.1338-.0722.63,0,1.6025.2343,1.6025,1.0449a.7265.7265,0,0,1-.1621.45,2.0777,2.0777,0,0,1-1.6738.5576l-1.2607.0547c-.252.0176-.4141-.126-.4141.2334v9.165c0,.4678.0176.8643-.3965,1.17a1.7707,1.7707,0,0,1-1.0439.3067,1.28,1.28,0,0,1-1.44-1.4229c0-.3242.0538-.6484.0538-.9716V26.5747a.4037.4037,0,0,0-.4141-.3965C47.4329,26.1782,47.0013,26.1968,46.5862,26.1968Z"/><path class="27066eeb-4c6d-419b-a0e0-3024e6314b57" d="M56.9368,31.814V27.9067c0-.7558.8106-1.0439,1.4405-1.0439,1.458,0,1.4941.9365,1.4941,2.1064,0,1.08-.0537,1.53-.0537,2.61v4.5556c0,.7569-.8106,1.0625-1.458,1.0625-1.6211,0-1.4951-1.206-1.4951-2.413C56.8646,33.7944,56.9368,32.8042,56.9368,31.814ZM58.45,25.2065c-1.873,0-2.3232-2.5576.0713-2.5576C60.3763,22.6489,60.8079,25.2065,58.45,25.2065Z"/><path class="27066eeb-4c6d-419b-a0e0-3024e6314b57" d="M68.5843,24.5757c-.6484,1.08-2.5928.1445-2.5928,2.6474,0,3.042,2.5391,5.9053,2.5391,8.8223,0,2.1787-1.711,3.0967-3.6914,3.0967-.7022,0-2.1426-.0537-2.1426-1.044,0-.8281.918-1.0625,1.584-1.0625.6484,0,1.2783.1436,1.2783-.7558,0-2.7373-2.52-5.834-2.52-9.0567A4.5387,4.5387,0,0,1,67.27,23.1177C67.99,23.1177,69.0882,23.7475,68.5843,24.5757Z"/><path class="27066eeb-4c6d-419b-a0e0-3024e6314b57" d="M81.4359,24.6841a9.0751,9.0751,0,0,1,.99.0537,1.1,1.1,0,0,1,1.0078,1.0088c0,.7021-.792.9541-1.3682.9541a3.9979,3.9979,0,0,0-1.458.09,1.4122,1.4122,0,0,0-.7929,1.4766c0,2.3222,2.1425,3.1865,2.1425,5.2031,0,1.8008-1.7285,2.7549-3.331,2.7549-.81,0-2.7-.3955-2.7-1.458,0-.666.36-1.3145.918-1.3145.7207,0,1.1162.792,1.7646.7559.3418-.0176.54-.4863.54-.7735,0-.7207-1.3505-2.2871-1.71-3.0615a5.2658,5.2658,0,0,1-.45-2.1064C76.9886,25.6557,79.0765,24.6841,81.4359,24.6841Z"/><path class="27066eeb-4c6d-419b-a0e0-3024e6314b57" d="M94.5042,26.0884c-.5576,0-1.0439.09-1.71.09a.4156.4156,0,0,0-.4141.3965v8.6426c0,.414.0351.8281.0351,1.26,0,1.045-.3593,1.5489-1.4755,1.5489-1.6026,0-1.4952-1.08-1.4952-2.3047,0-.918.0547-.9.0547-1.8184v-7.706a.38.38,0,0,0-.414-.3789c-.5049,0-.3428.0546-.8467.0546-.63,0-2.5566,0-2.5566-.9726s.8457-1.1162,1.5664-1.1162c1.4941,0,2.3222-.0537,3.8173-.0537.9717,0,5.0049-.2168,5.0049,1.3144C96.0706,25.7641,95.1165,26.0884,94.5042,26.0884Z"/><path class="27066eeb-4c6d-419b-a0e0-3024e6314b57" d="M102.4407,36.8013c-4.0156,0-3.98-4.4649-4.0156-7.3995,0-.45,0-.9-.0351-1.3505-.0186-.2168-.0723-.45-.0723-.667,0-.7373.8105-1.0616,1.4219-1.0616,1.6386,0,1.6748,1.2422,1.6748,2.503,0,1.35-.1436,4.5732.7383,5.6172.36.4677.7382-.0723.99-.4317a15.7,15.7,0,0,0,2.125-6.95c0-.5947-.1807-1.4765.27-1.9453a1.5929,1.5929,0,0,1,1.1709-.4678c1.6924,0,1.584,1.4766,1.584,2.7012a34.0225,34.0225,0,0,0,.45,6.0674c.1084.4678.5947.7558.5947,1.2246,0,.7021-.99,1.0439-1.5849,1.0439-1.1162,0-1.584-.9365-1.7461-.9365C105.8079,34.7485,104.7454,36.8013,102.4407,36.8013Z"/><path class="27066eeb-4c6d-419b-a0e0-3024e6314b57" d="M120.7835,29.4018c0,3.6368-3.4023,5.8516-6.68,6.3018a3.92,3.92,0,0,1-.6484.0537,1.2559,1.2559,0,0,1-1.4219-1.3867c0-2.7363.0176-5.4736.0176-8.21,0-1.5664,1.8545-1.3506,2.9531-1.3506C117.8314,24.81,120.7835,26.1782,120.7835,29.4018Zm-5.4375,3.7627a4.3039,4.3039,0,0,0,2.5215-3.7627,2.5953,2.5953,0,0,0-.6123-1.747,2.9019,2.9019,0,0,0-1.8008-.7559c-.2881-.0723-.4863.0361-.4863.3955v5.6182A.2522.2522,0,0,0,115.346,33.1645Z"/><path class="27066eeb-4c6d-419b-a0e0-3024e6314b57" d="M123.7513,28.1411c.1084-.5586.7207-.7568,1.2246-.7568.666,0,1.53.3427,1.53,1.1172,0,1.4765-.1621,2.7363-.1621,4.2128a4.0772,4.0772,0,0,0,.1084,1.6748.6764.6764,0,0,1,.09.3243,1.5864,1.5864,0,0,1-.1074.4853,1.38,1.38,0,0,1-1.4229.9c-1.2422,0-1.53-.72-1.53-1.8184,0-.288.0175-.5761.0175-.8642A27.2308,27.2308,0,0,1,123.7513,28.1411Zm-.1074-3.4033a1.2751,1.2751,0,0,1,1.4218-1.1524c.7022,0,1.4405.378,1.4405,1.1524a1.46,1.46,0,0,1-2.8623,0Z"/><path class="27066eeb-4c6d-419b-a0e0-3024e6314b57" d="M129.0247,30.9682c0-2.7548,1.585-5.7617,4.4834-6.248a11.2784,11.2784,0,0,1,1.7471-.1621c2.9707,0,4.4834,1.998,4.4834,4.8437,0,3.4571-2.125,6.5176-5.7979,6.5176A4.6316,4.6316,0,0,1,129.0247,30.9682Zm2.8809-.1084c0,1.3506.45,3.0245,2.0889,3.0245,1.9443,0,2.8808-2.7725,2.8808-4.3926,0-.7207-.2881-2.7373-1.2422-2.7373-.2158,0-.414.0537-.63.0537-.2529,0-.5048-.0537-.7568-.0537C132.7161,26.7544,131.9056,29.6352,131.9056,30.86Z"/><path class="27066eeb-4c6d-419b-a0e0-3024e6314b57" d="M146.54,35.271c0,.09-.7744,1.3681-.9,1.6025-.4864.9541-.81,2.1426-2.1241,2.1426-.4326,0-1.3506-.2344-1.3506-.792a18.04,18.04,0,0,1,.8458-1.6211c.4863-.9355.8828-2.124,2.1611-2.124C145.6224,34.479,146.54,34.6948,146.54,35.271Z"/><path class="27066eeb-4c6d-419b-a0e0-3024e6314b57" d="M157.8626,37.2876a4.1219,4.1219,0,0,1-3.3125-2.0889,7.1373,7.1373,0,0,1-.81-3.6006,10.7135,10.7135,0,0,1,1.3867-5.582,3.9308,3.9308,0,0,1,3.2588-1.8906,1.9142,1.9142,0,0,1,1.3857.4687c.1445.1621.0908.2158.3242.3057a4.2114,4.2114,0,0,1,.5039.2158,5.88,5.88,0,0,1,3.17,5.6358,7.8965,7.8965,0,0,1-.9551,3.8173,6.6228,6.6228,0,0,1-.8457,1.1348.4078.4078,0,0,0-.0723.252,4.7826,4.7826,0,0,0,.666,1.3144c.3067.3955.9366.3594.9366,1.044,0,.7021-.8643,1.0439-1.4581,1.0439-1.3144,0-1.9453-1.08-2.539-2.07a.1578.1578,0,0,0-.1621-.1084,1.57,1.57,0,0,0-.2881.0547,4.9718,4.9718,0,0,1-.9.0537Zm-.45-9.8848a9.8444,9.8444,0,0,0-.8467,4.1231c0,1.0088.2891,3.5293,1.5489,3.7451h.0537a.2137.2137,0,0,0,.2168-.2344c0-.3232-.8281-1.5478-.8281-1.8721,0-.5947.8994-.99,1.4218-.99.8828,0,1.333.7744,1.4766.7744.3242,0,.4863-1.873.4863-2.1787a6.0765,6.0765,0,0,0-.3779-2.125c-.3428-.8818-1.333-2.1064-2.4131-2.1064C157.7728,26.5386,157.5384,27.1147,157.4124,27.4028Z"/><path class="27066eeb-4c6d-419b-a0e0-3024e6314b57" d="M166.4652,30.3559c0-.5586.0361-1.1162.0722-1.6748.09-1.2783.1436-3.0605,1.8545-3.0605.63,0,1.458.2158,1.458.99a10.2919,10.2919,0,0,1-.3418,1.4219,15.0426,15.0426,0,0,0-.1445,2.2148c0,.5762.126,3.5469.9189,3.5469a.467.467,0,0,0,.3057-.126c1.4043-1.0986,2.3584-4.8789,2.5029-6.6435.0362-.5039-.0722-.99.378-1.3506a1.7479,1.7479,0,0,1,1.0986-.36c.792,0,1.44.3779,1.44,1.2421a14.2255,14.2255,0,0,1-.5761,3.3311c-.6485,2.4668-2.0352,6.0322-5.0958,6.0322C167.1312,35.9194,166.4652,32.9487,166.4652,30.3559Z"/><path class="27066eeb-4c6d-419b-a0e0-3024e6314b57" d="M178.4153,28.7192a.4938.4938,0,0,1,.4141-.4853,1.5132,1.5132,0,0,0,1.2246-1.62,1.4744,1.4744,0,0,1-.73-.4229,1.1,1.1,0,0,1-.2968-.7832v-.1445A1.1706,1.1706,0,0,1,179.37,24.4a1.2283,1.2283,0,0,1,.9091-.3428,1.1257,1.1257,0,0,1,.918.4326,1.7692,1.7692,0,0,1,.3516,1.1514v.1807a3.5133,3.5133,0,0,1-.8282,2.5742,2.4615,2.4615,0,0,1-1.7461.8271Q178.4159,29.2231,178.4153,28.7192Z"/><path class="27066eeb-4c6d-419b-a0e0-3024e6314b57" d="M189.4525,35.6489c-.6114,1.1348-2.8448,1.2608-3.9786,1.2608h-.81c-1.7822,0-1.6563-2.3223-1.7461-3.5655-.0547-.72-.0723-1.44-.0723-2.16a44.4363,44.4363,0,0,1,.378-5.5821,1.5261,1.5261,0,0,1,1.08-1.332,3.3862,3.3862,0,0,1,1.045-.126c.3232,0,.666.0176,1.0078.0176.7207,0,1.44.0361,2.2148.0361.5576,0,1.2608.2344,1.2608.918,0,1.2246-2.6114,1.0264-3.44,1.0811a.4634.4634,0,0,0-.45.3955c-.0722.4326-.18,1.7646-.18,2.2148a.3737.3737,0,0,0,.378.3965h.9365c.3594,0,.72-.0361,1.0976-.0361.5948,0,1.333.27,1.333.99,0,.99-1.3505,1.0625-2.0527,1.0625h-.666c-.36,0-1.0986-.1445-1.0986.4141a25.1217,25.1217,0,0,0,.1621,2.61v.1084c0,.2344-.0537.54.2695.54.7207,0,1.3145-.6124,2.0352-.6124.54,0,1.4043.3243,1.4043.9727A.7685.7685,0,0,1,189.4525,35.6489Z"/><path class="27066eeb-4c6d-419b-a0e0-3024e6314b57" d="M196.6878,24.2163c.5762,0,1.4043.2519,1.4043.9717a1.06,1.06,0,0,1-.7559.9365c-.1982.0723-.3789.0537-.5761.1074-.6846.1621-.8106,1.0625-.8106,1.6387,0,2.0713.9541,4.0156.9541,6.0859,0,1.8184-.8818,2.6651-2.7187,2.6651-.6485,0-1.6563-.2344-1.6563-1.0625,0-.7744.792-.8819,1.3506-.99.18-.0361.1973-.1982.1973-.36,0-2.0166-1.0078-4.1592-1.0078-6.2656A3.4408,3.4408,0,0,1,196.6878,24.2163Z"/><path class="27066eeb-4c6d-419b-a0e0-3024e6314b57" d="M207.8841,24.3061c.54,0,1.6387.3057,1.6387.99,0,1.3144-2.16,1.1162-3.0069,1.2246a.3451.3451,0,0,0-.3418.3594c0,1.873.0537,3.6191.18,5.42.09,1.3681.2158,2.7724.2158,4.249a1.3146,1.3146,0,0,1-1.4765,1.4766c-.6475,0-1.53-.3057-1.53-1.08,0-2.8447-.09-5.6-.1435-8.5166a8.8813,8.8813,0,0,0-.0186-1.3867.5494.5494,0,0,0-.5937-.45c-.7208,0-2.4668.1445-2.4668-1.0078,0-.919,1.1162-1.0987,1.8007-1.0987C204.0491,24.4858,205.94,24.3061,207.8841,24.3061Z"/><path class="27066eeb-4c6d-419b-a0e0-3024e6314b57" d="M217.8021,31.7964a26.4178,26.4178,0,0,0-4.3028.2881,2.2432,2.2432,0,0,1-.3418.0175c-.5586,0-1.3867-.2519-1.3867-.9365,0-.5215.5576-.8642,1.0078-.9541a19.5783,19.5783,0,0,1,2.7188-.2519c.6123-.0362,1.207-.1084,1.8193-.1084.63,0,1.8545.1084,1.8545.99C219.1712,31.5083,218.3607,31.7964,217.8021,31.7964Z"/><path class="27066eeb-4c6d-419b-a0e0-3024e6314b57" d="M221.8685,31.3462a7.962,7.962,0,0,1,1.44-4.5733,5.1541,5.1541,0,0,1,4.3574-2.2148c.81,0,2.5928.18,2.5928,1.3144,0,.5762-.81.9541-1.3145.9541s-.9365-.288-1.4228-.288a.76.76,0,0,0-.1982.0175c-1.8.36-2.629,3.3135-2.629,4.9161,0,1.0439.3965,2.8808,1.7471,2.8808.7744,0,1.458-.4687,2.2149-.4687.5576,0,1.3857.3066,1.3857.9726v.0723c-.1074.72-.8281.9-1.4219,1.08a7.9417,7.9417,0,0,1-2.1426.3418C223.4349,36.3511,221.8685,34.2446,221.8685,31.3462Z"/><path class="27066eeb-4c6d-419b-a0e0-3024e6314b57" d="M237.7454,26.3227c-.4677,0-.9179-.0361-1.3867-.0361a.37.37,0,0,0-.4141.3779c-.0351.36-.0175.72-.0351,1.08-.0186.4141-.0547.8467-.0547,1.2608,0,.1435.0547.288.2168.288.2158,0,1.0078-.5586,1.71-.5586.5947,0,1.3867.3243,1.3867,1.0264,0,1.0264-2.2871,1.5488-3.0791,1.7832a.4268.4268,0,0,0-.2881.4141,30.024,30.024,0,0,0,.1982,3.1142c.0176.1983-.0547.4327.2334.4327.3965,0,.8106-.1084,1.2071-.1084.6123,0,1.4941.27,1.4941,1.0263,0,1.0987-1.9082,1.1348-2.665,1.1348s-2.2862,0-2.7725-.6484a3.0009,3.0009,0,0,1-.2881-1.3321,33.1594,33.1594,0,0,1-.2519-4.0156c0-1.873.1074-3.7275.1259-5.6.0176-.8643.0538-1.6026,1.0264-1.6563,1.1162-.0546,1.4043-.0361,2.8984-.0361a3.8383,3.8383,0,0,1,1.4952.18,1.0094,1.0094,0,0,1,.6836.8828C239.1859,26.0347,238.3216,26.3227,237.7454,26.3227Z"/><path class="27066eeb-4c6d-419b-a0e0-3024e6314b57" d="M250.5071,37.2876a4.1219,4.1219,0,0,1-3.3125-2.0889,7.1373,7.1373,0,0,1-.8105-3.6006,10.7135,10.7135,0,0,1,1.3867-5.582,3.9308,3.9308,0,0,1,3.2588-1.8906,1.914,1.914,0,0,1,1.3857.4687c.1446.1621.0909.2158.3243.3057a4.2254,4.2254,0,0,1,.5039.2158,5.88,5.88,0,0,1,3.17,5.6358,7.8954,7.8954,0,0,1-.9551,3.8173,6.6176,6.6176,0,0,1-.8457,1.1348.4078.4078,0,0,0-.0723.252,4.783,4.783,0,0,0,.6661,1.3144c.3066.3955.9365.3594.9365,1.044,0,.7021-.8643,1.0439-1.458,1.0439-1.3145,0-1.9453-1.08-2.5391-2.07a.1577.1577,0,0,0-.1621-.1084,1.5735,1.5735,0,0,0-.2881.0547,4.9718,4.9718,0,0,1-.9.0537Zm-.45-9.8848a9.8429,9.8429,0,0,0-.8467,4.1231c0,1.0088.289,3.5293,1.5488,3.7451h.0537a.2137.2137,0,0,0,.2168-.2344c0-.3232-.8281-1.5478-.8281-1.8721,0-.5947.8994-.99,1.4219-.99.8828,0,1.333.7744,1.4765.7744.3242,0,.4863-1.873.4863-2.1787a6.0743,6.0743,0,0,0-.3779-2.125c-.3428-.8818-1.333-2.1064-2.4131-2.1064C250.4173,26.5386,250.1829,27.1147,250.057,27.4028Z"/><path class="27066eeb-4c6d-419b-a0e0-3024e6314b57" d="M259.11,30.3559c0-.5586.0361-1.1162.0723-1.6748.09-1.2783.1435-3.0605,1.8544-3.0605.63,0,1.4581.2158,1.4581.99a10.3063,10.3063,0,0,1-.3418,1.4219,15.0426,15.0426,0,0,0-.1446,2.2148c0,.5762.126,3.5469.919,3.5469a.4669.4669,0,0,0,.3056-.126c1.4043-1.0986,2.3584-4.8789,2.503-6.6435.0361-.5039-.0723-.99.3779-1.3506a1.7481,1.7481,0,0,1,1.0986-.36c.792,0,1.44.3779,1.44,1.2421a14.2256,14.2256,0,0,1-.5762,3.3311c-.6485,2.4668-2.0352,6.0322-5.0957,6.0322C259.7757,35.9194,259.11,32.9487,259.11,30.3559Z"/><path class="27066eeb-4c6d-419b-a0e0-3024e6314b57" d="M277.5794,36.8559a13.9007,13.9007,0,0,1-4.4473.99c-1.9628,0-1.7646-1.0987-1.7646-2.6475,0-3.1142.5049-6.23.5947-9.3447a1.2257,1.2257,0,0,1,.2881-.8643,3.1774,3.1774,0,0,1,2.1963-.6836c.5225,0,1.0264-.1259,1.53-.1259h.1084a1.7663,1.7663,0,0,1,.7558-.1446c.5762,0,1.4229.36,1.4229,1.044,0,1.0449-2.2324,1.2793-2.9893,1.2793-.1982,0-.414-.1084-.414.1972,0,.252.0185.4864,0,.7383-.0362.54-.0537,1.0811-.1075,1.6211-.0361.3779-.1084.7735-.1084,1.1524,0,.1259.0176.2519.1622.2519.2695,0,.5761-.1807.9-.1807.5577,0,1.4219.379,1.4219,1.045,0,.8818-1.6025,1.4765-2.3047,1.6562a.5747.5747,0,0,0-.45.4863c-.0537.5938-.0537,1.2061-.0537,1.8008a.3319.3319,0,0,0,.3242.3594c.7559,0,1.3321-.63,2.07-.63.5947,0,1.4951.2881,1.4951,1.0088A1.2822,1.2822,0,0,1,277.5794,36.8559Z"/><path class="27066eeb-4c6d-419b-a0e0-3024e6314b57" d="M285.4612,31.3462a7.962,7.962,0,0,1,1.44-4.5733,5.1539,5.1539,0,0,1,4.3574-2.2148c.81,0,2.5928.18,2.5928,1.3144,0,.5762-.8106.9541-1.3145.9541s-.9365-.288-1.4228-.288a.761.761,0,0,0-.1983.0175c-1.8.36-2.6279,3.3135-2.6279,4.9161,0,1.0439.3955,2.8808,1.7461,2.8808.7744,0,1.458-.4687,2.2148-.4687.5577,0,1.3858.3066,1.3858.9726v.0723c-.1074.72-.8281.9-1.4219,1.08a7.9424,7.9424,0,0,1-2.1426.3418C287.0277,36.3511,285.4612,34.2446,285.4612,31.3462Z"/><path class="27066eeb-4c6d-419b-a0e0-3024e6314b57" d="M296.26,28.7192a.4937.4937,0,0,1,.414-.4853,1.5132,1.5132,0,0,0,1.2246-1.62,1.4741,1.4741,0,0,1-.7294-.4229,1.1,1.1,0,0,1-.2969-.7832v-.1445a1.1706,1.1706,0,0,1,.3418-.8633,1.2284,1.2284,0,0,1,.9092-.3428,1.1256,1.1256,0,0,1,.9179.4326,1.7692,1.7692,0,0,1,.3516,1.1514v.1807a3.5137,3.5137,0,0,1-.8281,2.5742,2.4617,2.4617,0,0,1-1.7461.8271Q296.2605,29.2231,296.26,28.7192Z"/><path class="27066eeb-4c6d-419b-a0e0-3024e6314b57" d="M307.2972,35.6489c-.6123,1.1348-2.8447,1.2608-3.9785,1.2608h-.8106c-1.7822,0-1.6562-2.3223-1.7461-3.5655-.0547-.72-.0722-1.44-.0722-2.16a44.4362,44.4362,0,0,1,.3779-5.5821,1.5261,1.5261,0,0,1,1.08-1.332,3.3852,3.3852,0,0,1,1.0449-.126c.3242,0,.666.0176,1.0078.0176.7207,0,1.44.0361,2.2148.0361.5586,0,1.2608.2344,1.2608.918,0,1.2246-2.6113,1.0264-3.44,1.0811a.4635.4635,0,0,0-.45.3955c-.0722.4326-.18,1.7646-.18,2.2148a.3736.3736,0,0,0,.3779.3965h.9365c.3594,0,.72-.0361,1.0977-.0361.5947,0,1.333.27,1.333.99,0,.99-1.3506,1.0625-2.0528,1.0625h-.666c-.36,0-1.0986-.1445-1.0986.4141a25.1493,25.1493,0,0,0,.1621,2.61v.1084c0,.2344-.0537.54.2695.54.7207,0,1.3145-.6124,2.0352-.6124.54,0,1.4043.3243,1.4043.9727A.7676.7676,0,0,1,307.2972,35.6489Z"/><path class="27066eeb-4c6d-419b-a0e0-3024e6314b57" d="M314.5325,24.2163c.5762,0,1.4043.2519,1.4043.9717a1.06,1.06,0,0,1-.7558.9365c-.1983.0723-.3789.0537-.5762.1074-.6846.1621-.81,1.0625-.81,1.6387,0,2.0713.9541,4.0156.9541,6.0859,0,1.8184-.8819,2.6651-2.7188,2.6651-.6484,0-1.6562-.2344-1.6562-1.0625,0-.7744.7919-.8819,1.3505-.99.18-.0361.1973-.1982.1973-.36,0-2.0166-1.0078-4.1592-1.0078-6.2656A3.4408,3.4408,0,0,1,314.5325,24.2163Z"/><path class="27066eeb-4c6d-419b-a0e0-3024e6314b57" d="M325.7288,24.3061c.54,0,1.6387.3057,1.6387.99,0,1.3144-2.1611,1.1162-3.0068,1.2246a.345.345,0,0,0-.3418.3594c0,1.873.0537,3.6191.18,5.42.09,1.3681.2158,2.7724.2158,4.249a1.3146,1.3146,0,0,1-1.4766,1.4766c-.6475,0-1.53-.3057-1.53-1.08,0-2.8447-.09-5.6-.1435-8.5166a8.8813,8.8813,0,0,0-.0186-1.3867.5493.5493,0,0,0-.5937-.45c-.7207,0-2.4668.1445-2.4668-1.0078,0-.919,1.1162-1.0987,1.8008-1.0987C321.8939,24.4858,323.7845,24.3061,325.7288,24.3061Z"/><path class="27066eeb-4c6d-419b-a0e0-3024e6314b57" d="M334.1146,27.187a.7512.7512,0,0,1,.0722-.2881,3.8463,3.8463,0,0,1,3.4209-2.0351,2.7472,2.7472,0,0,1,2.8809,2.8271c0,1.7647-1.3691,3.7988-2.1787,5.3291a1.4821,1.4821,0,0,1-1.459.8828c-.5039,0-1.332-.3418-1.332-.9541,0-.8105,2.2324-3.2051,2.2324-5.33,0-.1982-.0537-.7558-.3242-.7558-.4864,0-.6123,1.2783-1.9258,1.2783C334.9788,28.1411,334.1146,27.7993,334.1146,27.187Zm4.1406,9.9746c0,.6846-.7734.9727-1.35.9727s-1.3692-.2881-1.3692-.9727c0-.666.8106-.9541,1.3692-.9541S338.2552,36.4956,338.2552,37.1616Z"/></g></svg>