<svg xmlns="http://www.w3.org/2000/svg" width="140.4895mm" height="130.5278mm" viewBox="0 0 398.238 370"><defs><style>.a{fill:#fc3527;}</style></defs><title>Carte-Bellegarde</title><path class="a" d="M89.8173,81.826a35.178,35.178,0,0,0-35.1779,35.1781v48.3328h70.356V117.0041A35.178,35.178,0,0,0,89.8173,81.826Z"/><rect class="a" x="225.0273" y="239.3208" width="6.7337" height="13.7345" transform="translate(0.4401 -0.4076) rotate(0.1024)"/><rect class="a" x="224.9959" y="256.8771" width="6.7337" height="13.7345" transform="translate(0.4715 -0.4075) rotate(0.1024)"/><rect class="a" x="224.9646" y="274.4334" width="6.7337" height="13.7345" transform="translate(0.5029 -0.4074) rotate(0.1024)"/><rect class="a" x="194.5216" y="239.2663" width="6.7337" height="13.7345" transform="translate(0.44 -0.3531) rotate(0.1024)"/><rect class="a" x="194.4903" y="256.8226" width="6.7337" height="13.7345" transform="translate(0.4714 -0.353) rotate(0.1024)"/><rect class="a" x="194.4589" y="274.3789" width="6.7337" height="13.7345" transform="translate(0.5027 -0.3529) rotate(0.1024)"/><rect class="a" x="164.016" y="239.2118" width="6.7337" height="13.7345" transform="translate(0.4399 -0.2986) rotate(0.1024)"/><rect class="a" x="163.9847" y="256.7681" width="6.7337" height="13.7345" transform="translate(0.4712 -0.2985) rotate(0.1024)"/><rect class="a" x="163.9533" y="274.3244" width="6.7337" height="13.7345" transform="matrix(1, 0.0018, -0.0018, 1, 0.5026, -0.2984)"/><rect class="a" x="179.2586" y="239.239" width="6.7337" height="13.7345" transform="translate(0.4399 -0.3258) rotate(0.1024)"/><rect class="a" x="179.2273" y="256.7953" width="6.7337" height="13.7345" transform="translate(0.4713 -0.3258) rotate(0.1024)"/><rect class="a" x="209.7847" y="239.2936" width="6.7337" height="13.7345" transform="translate(0.4401 -0.3804) rotate(0.1024)"/><rect class="a" x="225.0265" y="222.1039" width="6.7337" height="13.7345" transform="translate(0.4094 -0.4076) rotate(0.1024)"/><rect class="a" x="194.5209" y="222.0494" width="6.7337" height="13.7345" transform="translate(0.4092 -0.3531) rotate(0.1024)"/><rect class="a" x="164.0152" y="221.9949" width="6.7337" height="13.7345" transform="translate(0.4091 -0.2986) rotate(0.1024)"/><rect class="a" x="179.2579" y="222.0221" width="6.7337" height="13.7345" transform="translate(0.4092 -0.3259) rotate(0.1024)"/><rect class="a" x="209.7839" y="222.0766" width="6.7337" height="13.7345" transform="translate(0.4093 -0.3804) rotate(0.1024)"/><rect class="a" x="225.0257" y="205.2243" width="6.7337" height="13.7345" transform="translate(0.3792 -0.4077) rotate(0.1024)"/><rect class="a" x="194.5201" y="205.1698" width="6.7337" height="13.7345" transform="translate(0.3791 -0.3532) rotate(0.1024)"/><rect class="a" x="164.0145" y="205.1153" width="6.7337" height="13.7345" transform="matrix(1, 0.0018, -0.0018, 1, 0.3789, -0.2987)"/><rect class="a" x="179.2571" y="205.1425" width="6.7337" height="13.7345" transform="translate(0.379 -0.3259) rotate(0.1024)"/><rect class="a" x="209.7831" y="205.1971" width="6.7337" height="13.7345" transform="translate(0.3792 -0.3804) rotate(0.1024)"/><rect class="a" x="209.7533" y="256.8499" width="6.7337" height="13.7345" transform="translate(0.4714 -0.3803) rotate(0.1024)"/><polygon class="a" points="320.133 232.047 320.133 205.391 297.075 205.391 297.075 232.047 273.243 232.047 273.243 288.174 343.599 288.174 343.599 232.047 320.133 232.047"/><path class="a" d="M199.119,94.9811a35.1779,35.1779,0,1,0,35.178,35.1779A35.1779,35.1779,0,0,0,199.119,94.9811Zm0,57.4836a22.3057,22.3057,0,1,1,22.3058-22.3057A22.3057,22.3057,0,0,1,199.119,152.4647Z"/><path class="a" d="M330.7263,130.1589h0a22.3057,22.3057,0,0,1-44.6114,0H273.2426a35.178,35.178,0,0,0,70.3559,0H330.7263Z"/><rect class="a" x="54.6394" y="204.6631" width="23.452" height="83.5109"/><rect class="a" x="78.0914" y="204.6631" width="23.452" height="13.8412"/><rect class="a" x="81.7516" y="269.1726" width="16.1316" height="19.0014"/><rect class="a" x="101.5434" y="204.6631" width="23.452" height="83.5109"/></svg>