<svg xmlns="http://www.w3.org/2000/svg" xmlns:xlink="http://www.w3.org/1999/xlink" width="293.8206mm" height="154.5089mm" viewBox="0 0 832.8774 437.9781"><defs><style>.a,.b,.d{fill:none;}.b,.d{stroke:#fc3527;}.b{stroke-width:0.72px;}.c{fill:#fc3527;}.d{stroke-linejoin:round;stroke-width:6px;}.e{fill:#fff;}.f{fill:url(#a);}.g{fill:url(#d);}.h{fill:#0529f6;}</style><pattern id="a" width="72" height="72" patternTransform="translate(-226.4386 1674.4186) rotate(45) scale(1.2919)" patternUnits="userSpaceOnUse" viewBox="0 0 72 72"><rect class="a" width="72" height="72"/><line class="b" x1="71.75" y1="68.3994" x2="144.25" y2="68.3994"/><line class="b" x1="71.75" y1="54" x2="144.25" y2="54"/><line class="b" x1="71.75" y1="39.6006" x2="144.25" y2="39.6006"/><line class="b" x1="71.75" y1="25.2002" x2="144.25" y2="25.2002"/><line class="b" x1="71.75" y1="10.7998" x2="144.25" y2="10.7998"/><line class="b" x1="71.75" y1="61.2002" x2="144.25" y2="61.2002"/><line class="b" x1="71.75" y1="46.7998" x2="144.25" y2="46.7998"/><line class="b" x1="71.75" y1="32.4004" x2="144.25" y2="32.4004"/><line class="b" x1="71.75" y1="18" x2="144.25" y2="18"/><line class="b" x1="71.75" y1="3.6006" x2="144.25" y2="3.6006"/><line class="b" x1="-0.25" y1="68.3994" x2="72.25" y2="68.3994"/><line class="b" x1="-0.25" y1="54" x2="72.25" y2="54"/><line class="b" x1="-0.25" y1="39.6006" x2="72.25" y2="39.6006"/><line class="b" x1="-0.25" y1="25.2002" x2="72.25" y2="25.2002"/><line class="b" x1="-0.25" y1="10.7998" x2="72.25" y2="10.7998"/><line class="b" x1="-0.25" y1="61.2002" x2="72.25" y2="61.2002"/><line class="b" x1="-0.25" y1="46.7998" x2="72.25" y2="46.7998"/><line class="b" x1="-0.25" y1="32.4004" x2="72.25" y2="32.4004"/><line class="b" x1="-0.25" y1="18" x2="72.25" y2="18"/><line class="b" x1="-0.25" y1="3.6006" x2="72.25" y2="3.6006"/><line class="b" x1="-72.25" y1="68.3994" x2="0.25" y2="68.3994"/><line class="b" x1="-72.25" y1="54" x2="0.25" y2="54"/><line class="b" x1="-72.25" y1="39.6006" x2="0.25" y2="39.6006"/><line class="b" x1="-72.25" y1="25.2002" x2="0.25" y2="25.2002"/><line class="b" x1="-72.25" y1="10.7998" x2="0.25" y2="10.7998"/><line class="b" x1="-72.25" y1="61.2002" x2="0.25" y2="61.2002"/><line class="b" x1="-72.25" y1="46.7998" x2="0.25" y2="46.7998"/><line class="b" x1="-72.25" y1="32.4004" x2="0.25" y2="32.4004"/><line class="b" x1="-72.25" y1="18" x2="0.25" y2="18"/><line class="b" x1="-72.25" y1="3.6006" x2="0.25" y2="3.6006"/></pattern><pattern id="d" width="72" height="72" patternTransform="translate(-234.3748 1674.4186) rotate(45) scale(1.2919)" patternUnits="userSpaceOnUse" viewBox="0 0 72 72"><rect class="a" width="72" height="72"/><line class="b" x1="71.75" y1="68.3994" x2="144.25" y2="68.3994"/><line class="b" x1="71.75" y1="54" x2="144.25" y2="54"/><line class="b" x1="71.75" y1="39.6006" x2="144.25" y2="39.6006"/><line class="b" x1="71.75" y1="25.2002" x2="144.25" y2="25.2002"/><line class="b" x1="71.75" y1="10.7998" x2="144.25" y2="10.7998"/><line class="b" x1="71.75" y1="61.2002" x2="144.25" y2="61.2002"/><line class="b" x1="71.75" y1="46.7998" x2="144.25" y2="46.7998"/><line class="b" x1="71.75" y1="32.4004" x2="144.25" y2="32.4004"/><line class="b" x1="71.75" y1="18" x2="144.25" y2="18"/><line class="b" x1="71.75" y1="3.6006" x2="144.25" y2="3.6006"/><line class="b" x1="-0.25" y1="68.3994" x2="72.25" y2="68.3994"/><line class="b" x1="-0.25" y1="54" x2="72.25" y2="54"/><line class="b" x1="-0.25" y1="39.6006" x2="72.25" y2="39.6006"/><line class="b" x1="-0.25" y1="25.2002" x2="72.25" y2="25.2002"/><line class="b" x1="-0.25" y1="10.7998" x2="72.25" y2="10.7998"/><line class="b" x1="-0.25" y1="61.2002" x2="72.25" y2="61.2002"/><line class="b" x1="-0.25" y1="46.7998" x2="72.25" y2="46.7998"/><line class="b" x1="-0.25" y1="32.4004" x2="72.25" y2="32.4004"/><line class="b" x1="-0.25" y1="18" x2="72.25" y2="18"/><line class="b" x1="-0.25" y1="3.6006" x2="72.25" y2="3.6006"/><line class="b" x1="-72.25" y1="68.3994" x2="0.25" y2="68.3994"/><line class="b" x1="-72.25" y1="54" x2="0.25" y2="54"/><line class="b" x1="-72.25" y1="39.6006" x2="0.25" y2="39.6006"/><line class="b" x1="-72.25" y1="25.2002" x2="0.25" y2="25.2002"/><line class="b" x1="-72.25" y1="10.7998" x2="0.25" y2="10.7998"/><line class="b" x1="-72.25" y1="61.2002" x2="0.25" y2="61.2002"/><line class="b" x1="-72.25" y1="46.7998" x2="0.25" y2="46.7998"/><line class="b" x1="-72.25" y1="32.4004" x2="0.25" y2="32.4004"/><line class="b" x1="-72.25" y1="18" x2="0.25" y2="18"/><line class="b" x1="-72.25" y1="3.6006" x2="0.25" y2="3.6006"/></pattern></defs><title>Carte-Bellegarde</title><rect class="c" x="623.7196" y="322.0769" width="57.1425" height="57.1425" transform="translate(438.9973 -358.5368) rotate(45)"/><line class="d" x1="680.9757" y1="350.6482" x2="832.8774" y2="350.6482"/><polyline class="d" points="832.877 340.941 696.95 340.941 659.02 303.012"/><polyline class="d" points="832.877 360.355 696.95 360.355 659.02 398.285"/><path class="e" d="M627.7165,332.9513h0a17.6969,17.6969,0,1,1,0,35.3938h0v10.2125h0a27.9095,27.9095,0,0,0,0-55.8189h0Z"/><path class="f" d="M292.101,126.5l30.4216-71.8722h.6654L353.4239,126.5H341.8186l-22.05-55.9032,7.2186-4.8472L302.1745,126.5Zm18.5377-25.8607h24.6267l3.3269,8.6538H307.5981Z"/><path class="f" d="M384.7044,57.5715a33.7321,33.7321,0,0,1,10.027,1.4275,22.9329,22.9329,0,0,1,7.9381,4.1818,18.5349,18.5349,0,0,1,5.1373,6.8007A22.5768,22.5768,0,0,1,409.61,79.25a28.775,28.775,0,0,1-1.1837,8.1276,19.731,19.731,0,0,1-3.9459,7.2727,20.0211,20.0211,0,0,1-7.2727,5.23,27.6732,27.6732,0,0,1-11.1721,1.9961H375.9539V126.5H365.88V57.5715Zm1.23,34.4177a15.4914,15.4914,0,0,0,6.4217-1.1876,10.81,10.81,0,0,0,4.0851-3.0445,11.5969,11.5969,0,0,0,2.0967-3.9922,13.662,13.662,0,0,0,0-8.0813,12.649,12.649,0,0,0-2.0967-4.0889,10.6278,10.6278,0,0,0-3.9459-3.1373,14.0138,14.0138,0,0,0-6.0812-1.1877h-10.46V91.9892ZM397.54,98.0743,415.4122,126.5h-11.791L385.4626,98.2639Z"/><path class="f" d="M415.3117,57.5715h45.9264V67.27H443.0718V126.5H432.9054V67.27H415.3117Z"/><path class="g" d="M291.3912,240.5847V171.6564h19.11a44.4753,44.4753,0,0,1,17.4932,3.0909,31.0693,31.0693,0,0,1,11.6441,8.2708,32.8382,32.8382,0,0,1,6.4139,11.4584,41.1772,41.1772,0,0,1,1.9961,12.5493,34.1526,34.1526,0,0,1-2.7079,13.88,31.5562,31.5562,0,0,1-7.4661,10.6,32.8346,32.8346,0,0,1-10.9323,6.75,36.53,36.53,0,0,1-13.0213,2.3288Zm10.0735-9.7911h10.46a31.5105,31.5105,0,0,0,10.3133-1.617,23.3171,23.3171,0,0,0,8.1779-4.7543,20.7585,20.7585,0,0,0,5.3231-7.7022,27.2814,27.2814,0,0,0,1.8568-10.36,27.7888,27.7888,0,0,0-2.05-11.1721,21.329,21.329,0,0,0-5.6092-7.795,23.6125,23.6125,0,0,0-7.884-4.5648,27.1216,27.1216,0,0,0-8.7969-1.4739h-11.791Z"/><path class="g" d="M363.36,171.6564h45.1527v9.6982H373.4336v19.6789h31.28v9.795h-31.28v19.9651h36.41v9.7911H363.36Z"/><path class="g" d="M476.4972,235.2617a36.154,36.154,0,0,1-4.6112,2.6151,36.7647,36.7647,0,0,1-7.0406,2.5184,32.9124,32.9124,0,0,1-8.882.9516,37.5018,37.5018,0,0,1-14.499-2.8549,31.8114,31.8114,0,0,1-10.8859-7.5551,33.5627,33.5627,0,0,1-6.8471-11.029,36.8422,36.8422,0,0,1-2.3753-13.265,41.1119,41.1119,0,0,1,2.4217-14.3559A31.8821,31.8821,0,0,1,441.6037,173.56a34.705,34.705,0,0,1,13.6943-2.6615,37.15,37.15,0,0,1,11.4971,1.6634,38.867,38.867,0,0,1,8.75,3.9459l-4.1857,9.5048a41.75,41.75,0,0,0-6.7466-3.66,23.3515,23.3515,0,0,0-18.1121.1431,22.8753,22.8753,0,0,0-7.6054,5.42,26.4917,26.4917,0,0,0-7.0871,18.2514,29.0245,29.0245,0,0,0,1.7176,10.0309,23.1666,23.1666,0,0,0,4.9439,8.1315,22.7974,22.7974,0,0,0,7.6518,5.323,26.124,26.124,0,0,0,25.9961-3.4236Z"/><path class="g" d="M487.43,206.167a34.058,34.058,0,0,1,2.7079-13.4971,36.638,36.638,0,0,1,7.5126-11.3153,34.5373,34.5373,0,0,1,11.1721-7.7021,35.383,35.383,0,0,1,27.3733,0,35.7264,35.7264,0,0,1,11.2727,7.7021A36.7794,36.7794,0,0,1,555.12,192.67a33.6938,33.6938,0,0,1,2.7544,13.4971,34.1481,34.1481,0,0,1-2.7544,13.69,35.1185,35.1185,0,0,1-7.706,11.2185,36.4384,36.4384,0,0,1-11.2649,7.559,34.25,34.25,0,0,1-13.64,2.7118,35.0792,35.0792,0,0,1-13.6867-2.6654,34.2368,34.2368,0,0,1-11.1721-7.4622,34.7789,34.7789,0,0,1-10.22-25.0522Zm10.4526,0a25.7945,25.7945,0,0,0,1.9033,9.9381,24.9075,24.9075,0,0,0,13.2611,13.497,24.3221,24.3221,0,0,0,9.7485,1.95,23.7521,23.7521,0,0,0,9.6016-1.95,24.46,24.46,0,0,0,7.8452-5.4158,25.4153,25.4153,0,0,0,5.2766-8.0812,25.9361,25.9361,0,0,0,1.8955-9.9381,25.3878,25.3878,0,0,0-1.9419-9.9342,27.1591,27.1591,0,0,0-5.2766-8.1277,24.6558,24.6558,0,0,0-27.4352-5.5126,24.5542,24.5542,0,0,0-13.0677,13.69A27.0556,27.0556,0,0,0,497.8821,206.167Z"/><path class="h" d="M282.7819,123.266l30.4216-71.8722h.6654l30.2359,71.8722H332.4994l-22.05-55.9032,7.2185-4.8471-24.8123,60.75ZM301.32,97.4053h24.6266l3.3269,8.6538H298.279Z"/><path class="h" d="M375.3852,54.3377a33.7328,33.7328,0,0,1,10.0271,1.4275A22.9354,22.9354,0,0,1,393.35,59.947a18.5355,18.5355,0,0,1,5.1373,6.8008,22.5777,22.5777,0,0,1,1.8027,9.2688,28.7786,28.7786,0,0,1-1.1837,8.1276,19.7328,19.7328,0,0,1-3.9459,7.2728,20.0217,20.0217,0,0,1-7.2727,5.23,27.6719,27.6719,0,0,1-11.1721,1.9961H366.6348V123.266H356.5613V54.3377Zm1.23,34.4178a15.4889,15.4889,0,0,0,6.4216-1.1877,10.8082,10.8082,0,0,0,4.0851-3.0444,11.5976,11.5976,0,0,0,2.0968-3.9923,13.6617,13.6617,0,0,0,0-8.0812,12.6488,12.6488,0,0,0-2.0968-4.089,10.6276,10.6276,0,0,0-3.9458-3.1373,14.0142,14.0142,0,0,0-6.0812-1.1876h-10.46V88.7555Zm11.6054,6.085,17.8723,28.4255H394.302L376.1434,95.03Z"/><path class="h" d="M405.9925,54.3377h45.9264V64.036H433.7526v59.23H423.5863V64.036H405.9925Z"/><path class="h" d="M282.072,237.3509V168.4226h19.11a44.4753,44.4753,0,0,1,17.4932,3.0909,31.07,31.07,0,0,1,11.644,8.2708,32.8369,32.8369,0,0,1,6.414,11.4584A41.1772,41.1772,0,0,1,338.73,203.792a34.1531,34.1531,0,0,1-2.7079,13.88,31.5547,31.5547,0,0,1-7.4662,10.6,32.832,32.832,0,0,1-10.9323,6.75,36.5293,36.5293,0,0,1-13.0212,2.3288Zm10.0735-9.791h10.46a31.5109,31.5109,0,0,0,10.3133-1.6171,23.3171,23.3171,0,0,0,8.1779-4.7543,20.7567,20.7567,0,0,0,5.323-7.7021,27.2819,27.2819,0,0,0,1.8569-10.36,27.7908,27.7908,0,0,0-2.05-11.1721,21.33,21.33,0,0,0-5.6093-7.795,23.61,23.61,0,0,0-7.8839-4.5647,27.1224,27.1224,0,0,0-8.7969-1.4739H292.1455Z"/><path class="h" d="M354.041,168.4226h45.1527v9.6983H364.1144V197.8h31.2805v9.795H364.1144V227.56h36.41v9.791H354.041Z"/><path class="h" d="M467.1781,232.0279a36.161,36.161,0,0,1-4.6112,2.6151,36.7579,36.7579,0,0,1-7.0406,2.5184,32.9129,32.9129,0,0,1-8.882.9516,37.5,37.5,0,0,1-14.499-2.8549,31.81,31.81,0,0,1-10.8859-7.5551,33.5636,33.5636,0,0,1-6.8472-11.029,36.8439,36.8439,0,0,1-2.3752-13.265,41.11,41.11,0,0,1,2.4217-14.3559,31.883,31.883,0,0,1,17.8258-18.7272,34.7055,34.7055,0,0,1,13.6944-2.6615,37.15,37.15,0,0,1,11.4971,1.6634,38.8755,38.8755,0,0,1,8.75,3.9459l-4.1857,9.5048a41.75,41.75,0,0,0-6.7466-3.66,23.3512,23.3512,0,0,0-18.1122.1432,22.8736,22.8736,0,0,0-7.6054,5.42,26.4923,26.4923,0,0,0-7.087,18.2514,29.0217,29.0217,0,0,0,1.7176,10.0309,23.1648,23.1648,0,0,0,4.9439,8.1315,22.7967,22.7967,0,0,0,7.6518,5.3231,26.124,26.124,0,0,0,25.9961-3.4236Z"/><path class="h" d="M478.11,202.9332a34.058,34.058,0,0,1,2.7079-13.4971,36.6376,36.6376,0,0,1,7.5126-11.3152,34.5321,34.5321,0,0,1,11.1721-7.7021,35.3818,35.3818,0,0,1,27.3733,0,35.7243,35.7243,0,0,1,11.2727,7.7021,36.7789,36.7789,0,0,1,7.6518,11.3152,33.6954,33.6954,0,0,1,2.7543,13.4971,34.15,34.15,0,0,1-2.7543,13.6905,35.119,35.119,0,0,1-7.706,11.2185,36.4359,36.4359,0,0,1-11.265,7.559,34.2494,34.2494,0,0,1-13.64,2.7118,35.08,35.08,0,0,1-13.6866-2.6653,34.2349,34.2349,0,0,1-11.1721-7.4623,34.7789,34.7789,0,0,1-10.22-25.0522Zm10.4526,0a25.7937,25.7937,0,0,0,1.9033,9.9381,24.9081,24.9081,0,0,0,13.2611,13.4971,24.3214,24.3214,0,0,0,9.7485,1.95,23.7512,23.7512,0,0,0,9.6015-1.95,24.4615,24.4615,0,0,0,7.8453-5.4159,25.4142,25.4142,0,0,0,5.2766-8.0812,25.9354,25.9354,0,0,0,1.8955-9.9381,25.3861,25.3861,0,0,0-1.942-9.9342,27.1572,27.1572,0,0,0-5.2766-8.1277,24.6552,24.6552,0,0,0-27.4351-5.5125,24.5534,24.5534,0,0,0-13.0677,13.69A27.0547,27.0547,0,0,0,488.563,202.9332Z"/><path class="h" d="M290.6793,306.0227a11.908,11.908,0,0,1,6.9964,1.825,6.3559,6.3559,0,0,1,2.5742,5.5559,7.7059,7.7059,0,0,1-1.0957,4.1781,7.2494,7.2494,0,0,1-3.0626,2.6963,11.3483,11.3483,0,0,1-4.6434,1.0346l-.6072-2.2309a15.4417,15.4417,0,0,1,5.5344,1.0131,9.273,9.273,0,0,1,3.8943,2.7574,6.5111,6.5111,0,0,1,1.4389,4.2176,8.2193,8.2193,0,0,1-.8317,3.8332,7.2082,7.2082,0,0,1-2.2276,2.5957,9.7156,9.7156,0,0,1-3.1649,1.4587,14.2535,14.2535,0,0,1-3.67.4669H282.894V306.0227Zm.7689,12.6943a3.9738,3.9738,0,0,0,3.3068-1.2987,4.85,4.85,0,0,0,1.033-3.122,3.69,3.69,0,0,0-1.3168-3.122,5.8163,5.8163,0,0,0-3.63-1.0148h-3.65v8.5575Zm.165,12.6926a8.2665,8.2665,0,0,0,2.858-.467,4.4348,4.4348,0,0,0,2.0263-1.419,3.7719,3.7719,0,0,0,.7525-2.4125,3.5241,3.5241,0,0,0-.8746-2.5346,4.972,4.972,0,0,0-2.2507-1.3184,9.9,9.9,0,0,0-2.7953-.4059h-4.1385V331.41Z"/><path class="h" d="M308.2,306.0227h19.26V310.16H312.497v8.3941H325.84v4.1781H312.497v8.5162h15.5308v4.1764H308.2Z"/><path class="h" d="M334.7636,306.0227h4.2969v25.2252h14.7223v4.1764H334.7636Z"/><path class="h" d="M360.1489,306.0227h4.2969v25.2252h14.7223v4.1764H360.1489Z"/><path class="h" d="M385.5342,306.0227h19.26V310.16H389.8311v8.3941h13.3427v4.1781H389.8311v8.5162h15.5308v4.1764H385.5342Z"/><path class="h" d="M435.2916,332.7891a6.4811,6.4811,0,0,1-1.7029,1.0742,20.2862,20.2862,0,0,1-2.4521.9324,24.0731,24.0731,0,0,1-2.7788.69,14.7708,14.7708,0,0,1-2.6765.264,17.6894,17.6894,0,0,1-6.4057-1.0957,14.4326,14.4326,0,0,1-4.8678-3.0411,12.9693,12.9693,0,0,1-3.0824-4.5626,15.2088,15.2088,0,0,1-1.0528-5.7374,17.3975,17.3975,0,0,1,1.1947-6.6516,14.2034,14.2034,0,0,1,3.287-4.9272,13.7883,13.7883,0,0,1,4.8249-3.0214,16.518,16.518,0,0,1,5.7787-1.0131,19.08,19.08,0,0,1,4.8646.5874,16.5924,16.5924,0,0,1,3.8942,1.5214l-1.5016,4.0147a9.215,9.215,0,0,0-1.9669-.8927,18.717,18.717,0,0,0-2.4521-.6485,12.4783,12.4783,0,0,0-2.353-.2442,13.6182,13.6182,0,0,0-4.6005.731,9.42,9.42,0,0,0-3.5082,2.17,9.5363,9.5363,0,0,0-2.2309,3.4669,12.6758,12.6758,0,0,0-.7723,4.5411,11.2951,11.2951,0,0,0,.7921,4.2985,9.3519,9.3519,0,0,0,2.2507,3.3266,9.8823,9.8823,0,0,0,3.4884,2.1089,13.0666,13.0666,0,0,0,4.4586.7293,16.3984,16.3984,0,0,0,2.8414-.2425,7.0731,7.0731,0,0,0,2.35-.8119v-5.3529h-5.6764v-4.2177h10.0558Z"/><path class="h" d="M439.5918,335.4243l12.9764-30.6573h.2839l12.8972,30.6573h-4.95l-9.4056-23.8457,3.0791-2.0676-10.5838,25.9133Zm7.9073-11.0309h10.5046l1.4191,3.6913H446.2021Z"/><path class="h" d="M479.0921,306.0227a14.3906,14.3906,0,0,1,4.2771.6089,9.7818,9.7818,0,0,1,3.386,1.7837,7.9075,7.9075,0,0,1,2.1914,2.9009,9.6316,9.6316,0,0,1,.7689,3.9537,12.2758,12.2758,0,0,1-.5049,3.4669,8.4171,8.4171,0,0,1-1.6831,3.1022,8.5413,8.5413,0,0,1-3.1022,2.2309,11.803,11.803,0,0,1-4.7656.8515h-4.3v10.5029h-4.2969V306.0227Zm.5247,14.681a6.6069,6.6069,0,0,0,2.7392-.5066,4.61,4.61,0,0,0,1.7425-1.2986,4.9454,4.9454,0,0,0,.8944-1.7029,5.8277,5.8277,0,0,0,0-3.4471,5.3946,5.3946,0,0,0-.8944-1.7442,4.5341,4.5341,0,0,0-1.6831-1.3382,5.9781,5.9781,0,0,0-2.5939-.5066H475.36v10.5442Zm4.95,2.5956,7.6235,12.125h-5.03L479.4155,323.38Z"/><path class="h" d="M498.0288,335.4243V306.0227H506.18a18.9718,18.9718,0,0,1,7.4618,1.3184,13.2519,13.2519,0,0,1,4.9668,3.528,14.0055,14.0055,0,0,1,2.7359,4.8876,17.5618,17.5618,0,0,1,.8515,5.3529,14.5667,14.5667,0,0,1-1.1551,5.9206,13.46,13.46,0,0,1-3.1847,4.5213,14.0054,14.0054,0,0,1-4.6632,2.88,15.5829,15.5829,0,0,1-5.5543.9933Zm4.2969-4.1764h4.4619a13.44,13.44,0,0,0,4.3991-.69,9.947,9.947,0,0,0,3.4884-2.028,8.8538,8.8538,0,0,0,2.27-3.2854,11.6357,11.6357,0,0,0,.7921-4.419,11.8528,11.8528,0,0,0-.8746-4.7655,9.099,9.099,0,0,0-2.3926-3.325,10.0725,10.0725,0,0,0-3.363-1.9471,11.5692,11.5692,0,0,0-3.7523-.6287h-5.03Z"/><path class="h" d="M528.7274,306.0227h19.26V310.16H533.0243v8.3941h13.3428v4.1781H533.0243v8.5162h15.5308v4.1764H528.7274Z"/><path class="h" d="M333.9775,372.549a8.8615,8.8615,0,0,1-2.6709,1.4892,9.8012,9.8012,0,0,1-7.7924-.6348,8.5612,8.5612,0,0,1-3.24-3.1738,8.9157,8.9157,0,0,1-1.1816-4.5976,8.6624,8.6624,0,0,1,1.2256-4.5967,8.95,8.95,0,0,1,3.2617-3.1738,8.8277,8.8277,0,0,1,4.4433-1.16,10.216,10.216,0,0,1,3.3272.5254,8.2268,8.2268,0,0,1,2.67,1.4883l-1.0942,1.4013a8.0932,8.0932,0,0,0-2.1456-1.2256,7.1156,7.1156,0,0,0-2.6264-.4814,6.7016,6.7016,0,0,0-3.5244.9629,7.1268,7.1268,0,0,0-2.5391,2.6045,7.215,7.215,0,0,0-.9409,3.6553,7.1319,7.1319,0,0,0,.9409,3.6123,7.2864,7.2864,0,0,0,8.69,3.1523,7.7514,7.7514,0,0,0,2.0577-1.1172Z"/><path class="h" d="M347.1548,374.5636a9.32,9.32,0,0,1-4.7285-1.1826,8.5079,8.5079,0,0,1-3.2173-3.2178,9.0661,9.0661,0,0,1-1.16-4.5742,8.7312,8.7312,0,0,1,1.2256-4.5537,9.26,9.26,0,0,1,3.3052-3.2832,8.9325,8.9325,0,0,1,4.6186-1.2256,7.5991,7.5991,0,0,1,5.1441,1.7949,10.0651,10.0651,0,0,1,2.999,4.6846l-14.9726,5.7783-.6128-1.4883,13.7026-5.3408-.4375.6123a7.9941,7.9941,0,0,0-2.2549-3.02,5.5588,5.5588,0,0,0-3.6992-1.27,6.6679,6.6679,0,0,0-3.5459.9629,7.1738,7.1738,0,0,0-3.4585,6.2607,7.4372,7.4372,0,0,0,.8975,3.59,7.0161,7.0161,0,0,0,2.5171,2.6709,6.9041,6.9041,0,0,0,3.7211,1.0069,7.0936,7.0936,0,0,0,2.6924-.5254,8.7771,8.7771,0,0,0,2.2984-1.3574l1.0507,1.4882a10.7676,10.7676,0,0,1-2.8237,1.5762A9.0481,9.0481,0,0,1,347.1548,374.5636Z"/><path class="h" d="M362.8276,357.0958l.2188,5.3848-.2627-1.0508a6.4568,6.4568,0,0,1,2.8237-3.5244,8.5825,8.5825,0,0,1,4.6187-1.291,5.4083,5.4083,0,0,1,3.8965,1.4228,5.0332,5.0332,0,0,1,1.5322,3.6993V374.213h-2.1016V362.3048a4.0887,4.0887,0,0,0-1.0508-2.7578,3.9177,3.9177,0,0,0-2.9331-1.1377,6.4525,6.4525,0,0,0-3.1958.8311,6.3847,6.3847,0,0,0-2.3857,2.32,6.5675,6.5675,0,0,0-.8975,3.459v9.1933h-2.0576V357.0958Z"/><path class="h" d="M385.1543,349.5656h2.1016v7.749h5.2973v1.6631h-5.2973V374.213h-2.1016V358.9777H381.521v-1.6631h3.6333Z"/><path class="h" d="M399.47,357.0958l.2188,5.253-.2627-.6563a6.8067,6.8067,0,0,1,1.7949-2.7148,8.95,8.95,0,0,1,2.7363-1.751,7.7314,7.7314,0,0,1,2.9112-.6123l-.0875,2.0137a7.3089,7.3089,0,0,0-3.5683.875,6.9039,6.9039,0,0,0-2.5391,2.3427,5.9827,5.9827,0,0,0-.9409,3.3047v9.0625h-2.0576V357.0958Z"/><path class="h" d="M419.39,374.5636a9.3207,9.3207,0,0,1-4.7285-1.1826,8.5093,8.5093,0,0,1-3.2173-3.2178,9.066,9.066,0,0,1-1.16-4.5742,8.7312,8.7312,0,0,1,1.2256-4.5537,9.2592,9.2592,0,0,1,3.3052-3.2832,8.9323,8.9323,0,0,1,4.6186-1.2256,7.5988,7.5988,0,0,1,5.144,1.7949,10.0645,10.0645,0,0,1,2.9991,4.6846l-14.9727,5.7783-.6128-1.4883,13.7027-5.3408-.4375.6123a7.9941,7.9941,0,0,0-2.2549-3.02,5.5592,5.5592,0,0,0-3.6992-1.27,6.6676,6.6676,0,0,0-3.5459.9629,7.1738,7.1738,0,0,0-3.4585,6.2607,7.4382,7.4382,0,0,0,.8974,3.59,7.0169,7.0169,0,0,0,2.5171,2.6709,6.9044,6.9044,0,0,0,3.7212,1.0069,7.0936,7.0936,0,0,0,2.6924-.5254,8.7781,8.7781,0,0,0,2.2983-1.3574l1.0508,1.4882a10.7708,10.7708,0,0,1-2.8237,1.5762A9.049,9.049,0,0,1,419.39,374.5636Z"/><path class="h" d="M431.6914,364.4943h8.0991v1.8388h-8.0991Z"/><path class="h" d="M452.4858,374.8693l-8.6684-17.7735h2.4082l7.1357,15.541-1.27-.0439,6.873-15.4971h2.2769l-8.4932,17.7735Z"/><path class="h" d="M465.9258,350.7911a1.3051,1.3051,0,0,1,.4814-1.0283,1.5748,1.5748,0,0,1,1.0508-.416,1.4726,1.4726,0,0,1,1.0508.416,1.363,1.363,0,0,1,.4375,1.0283,1.4151,1.4151,0,0,1-.4375,1.0733,1.4726,1.4726,0,0,1-1.0508.416,1.5325,1.5325,0,0,1-1.0508-.4385A1.3683,1.3683,0,0,1,465.9258,350.7911Zm.438,6.3047h2.0576V374.213h-2.0576Z"/><path class="h" d="M476.2134,340.9415h2.0576V374.213h-2.0576Z"/><path class="h" d="M486.063,340.9415h2.0576V374.213H486.063Z"/><path class="h" d="M503.355,374.5636a9.32,9.32,0,0,1-4.7285-1.1826,8.5079,8.5079,0,0,1-3.2173-3.2178,9.0661,9.0661,0,0,1-1.16-4.5742,8.7312,8.7312,0,0,1,1.2256-4.5537,9.26,9.26,0,0,1,3.3052-3.2832,8.9325,8.9325,0,0,1,4.6186-1.2256,7.5991,7.5991,0,0,1,5.1441,1.7949,10.0651,10.0651,0,0,1,2.999,4.6846l-14.9727,5.7783-.6127-1.4883,13.7026-5.3408-.4375.6123a7.9941,7.9941,0,0,0-2.2549-3.02,5.5588,5.5588,0,0,0-3.6992-1.27,6.6679,6.6679,0,0,0-3.5459.9629,7.1738,7.1738,0,0,0-3.4585,6.2607,7.4372,7.4372,0,0,0,.8975,3.59,7.0166,7.0166,0,0,0,2.517,2.6709,6.9046,6.9046,0,0,0,3.7212,1.0069,7.0936,7.0936,0,0,0,2.6924-.5254,8.7771,8.7771,0,0,0,2.2984-1.3574l1.0507,1.4882a10.7676,10.7676,0,0,1-2.8237,1.5762A9.0481,9.0481,0,0,1,503.355,374.5636Z"/><rect class="c" x="152.0153" y="58.7587" width="57.1425" height="57.1425" transform="translate(246.5289 276.7755) rotate(-135)"/><line class="d" x1="151.9017" y1="87.3299" y2="87.3299"/><polyline class="d" points="0 97.037 135.928 97.037 173.857 134.966"/><polyline class="d" points="0 77.623 135.928 77.623 173.857 39.694"/><path class="e" d="M205.1609,105.0268h0a17.6969,17.6969,0,1,1,0-35.3938h0V59.4205h0a27.9095,27.9095,0,0,0,0,55.8189h0Z"/></svg>