<svg xmlns="http://www.w3.org/2000/svg" width="313.4233mm" height="176.415mm" viewBox="0 0 888.4439 500.0739"><defs><style>.a{fill:#fbf2ef;}</style></defs><title>header-about</title><polygon class="a" points="825.093 423.795 828.408 424.928 826.392 427.794 829.742 426.76 829.793 430.265 831.895 427.459 833.997 430.265 834.047 426.76 837.397 427.794 835.381 424.928 838.696 423.795 835.381 422.661 837.397 419.795 834.047 420.829 833.996 417.324 831.895 420.13 829.792 417.325 829.742 420.829 826.392 419.796 828.408 422.661 825.093 423.795"/><path class="a" d="M888.4439,0h-688.78c62.8612,33.9193,113.8257,43.2054,151.1585,44.4806,18.99.6486,39.5368-.5957,117.1824,0,48.2754.37,72.4131.5555,84.266,1.3166,84.6312,5.4344,120.2791,33.9649,176.4318,47.4,36.8478,8.816,89.4118,12.7761,159.7416-8.0113Z"/></svg>