<svg id="4a94faf3-5753-41a5-a029-a996554d5f44" data-name="Layer 1" xmlns="http://www.w3.org/2000/svg" xmlns:xlink="http://www.w3.org/1999/xlink" width="214.1037mm" height="276.8459mm" viewBox="0 0 606.908 784.7601"><defs><style>.\38 5c51ef4-db46-4812-9593-f469bdd80c4c,.abb24714-c35f-4568-8330-169f9c87b46c{fill:none;}.abb24714-c35f-4568-8330-169f9c87b46c{stroke:#1aa37c;stroke-width:0.3px;}.\36 97836fd-fbaf-4eb1-9dc8-5973b905ada5{fill:url(#4d2d00f7-ab55-418e-9a06-f57bbb4b874a);}</style><pattern id="4d2d00f7-ab55-418e-9a06-f57bbb4b874a" data-name="Croix 2" width="57.5996" height="57.5996" patternTransform="translate(-343.1851 65.3775) scale(3 2.7622)" patternUnits="userSpaceOnUse" viewBox="0 0 57.6 57.6"><rect class="85c51ef4-db46-4812-9593-f469bdd80c4c" width="57.5996" height="57.5996"/><line class="abb24714-c35f-4568-8330-169f9c87b46c" x1="52.5" y1="3.5996" x2="55.5" y2="3.5996"/><line class="abb24714-c35f-4568-8330-169f9c87b46c" x1="38.0996" y1="3.5996" x2="41.0996" y2="3.5996"/><line class="abb24714-c35f-4568-8330-169f9c87b46c" x1="23.7002" y1="3.5996" x2="26.7002" y2="3.5996"/><line class="abb24714-c35f-4568-8330-169f9c87b46c" x1="9.2998" y1="3.5996" x2="12.2998" y2="3.5996"/><line class="abb24714-c35f-4568-8330-169f9c87b46c" x1="45.2998" y1="10.7998" x2="48.2998" y2="10.7998"/><line class="abb24714-c35f-4568-8330-169f9c87b46c" x1="30.9004" y1="10.7998" x2="33.9004" y2="10.7998"/><line class="abb24714-c35f-4568-8330-169f9c87b46c" x1="16.5" y1="10.7998" x2="19.5" y2="10.7998"/><line class="abb24714-c35f-4568-8330-169f9c87b46c" x1="2.0996" y1="10.7998" x2="5.0996" y2="10.7998"/><line class="abb24714-c35f-4568-8330-169f9c87b46c" x1="52.5" y1="18" x2="55.5" y2="18"/><line class="abb24714-c35f-4568-8330-169f9c87b46c" x1="38.0996" y1="18" x2="41.0996" y2="18"/><line class="abb24714-c35f-4568-8330-169f9c87b46c" x1="23.7002" y1="18" x2="26.7002" y2="18"/><line class="abb24714-c35f-4568-8330-169f9c87b46c" x1="9.2998" y1="18" x2="12.2998" y2="18"/><line class="abb24714-c35f-4568-8330-169f9c87b46c" x1="45.2998" y1="25.1992" x2="48.2998" y2="25.1992"/><line class="abb24714-c35f-4568-8330-169f9c87b46c" x1="30.9004" y1="25.1992" x2="33.9004" y2="25.1992"/><line class="abb24714-c35f-4568-8330-169f9c87b46c" x1="16.5" y1="25.1992" x2="19.5" y2="25.1992"/><line class="abb24714-c35f-4568-8330-169f9c87b46c" x1="2.0996" y1="25.1992" x2="5.0996" y2="25.1992"/><line class="abb24714-c35f-4568-8330-169f9c87b46c" x1="52.5" y1="32.3994" x2="55.5" y2="32.3994"/><line class="abb24714-c35f-4568-8330-169f9c87b46c" x1="38.0996" y1="32.3994" x2="41.0996" y2="32.3994"/><line class="abb24714-c35f-4568-8330-169f9c87b46c" x1="23.7002" y1="32.3994" x2="26.7002" y2="32.3994"/><line class="abb24714-c35f-4568-8330-169f9c87b46c" x1="9.2998" y1="32.3994" x2="12.2998" y2="32.3994"/><line class="abb24714-c35f-4568-8330-169f9c87b46c" x1="45.2998" y1="39.5996" x2="48.2998" y2="39.5996"/><line class="abb24714-c35f-4568-8330-169f9c87b46c" x1="30.9004" y1="39.5996" x2="33.9004" y2="39.5996"/><line class="abb24714-c35f-4568-8330-169f9c87b46c" x1="16.5" y1="39.5996" x2="19.5" y2="39.5996"/><line class="abb24714-c35f-4568-8330-169f9c87b46c" x1="2.0996" y1="39.5996" x2="5.0996" y2="39.5996"/><line class="abb24714-c35f-4568-8330-169f9c87b46c" x1="52.5" y1="46.7998" x2="55.5" y2="46.7998"/><line class="abb24714-c35f-4568-8330-169f9c87b46c" x1="38.0996" y1="46.7998" x2="41.0996" y2="46.7998"/><line class="abb24714-c35f-4568-8330-169f9c87b46c" x1="23.7002" y1="46.7998" x2="26.7002" y2="46.7998"/><line class="abb24714-c35f-4568-8330-169f9c87b46c" x1="9.2998" y1="46.7998" x2="12.2998" y2="46.7998"/><line class="abb24714-c35f-4568-8330-169f9c87b46c" x1="45.2998" y1="54" x2="48.2998" y2="54"/><line class="abb24714-c35f-4568-8330-169f9c87b46c" x1="30.9004" y1="54" x2="33.9004" y2="54"/><line class="abb24714-c35f-4568-8330-169f9c87b46c" x1="16.5" y1="54" x2="19.5" y2="54"/><line class="abb24714-c35f-4568-8330-169f9c87b46c" x1="2.0996" y1="54" x2="5.0996" y2="54"/><line class="abb24714-c35f-4568-8330-169f9c87b46c" x1="54" y1="2.0996" x2="54" y2="5.0996"/><line class="abb24714-c35f-4568-8330-169f9c87b46c" x1="39.5996" y1="2.0996" x2="39.5996" y2="5.0996"/><line class="abb24714-c35f-4568-8330-169f9c87b46c" x1="25.2002" y1="2.0996" x2="25.2002" y2="5.0996"/><line class="abb24714-c35f-4568-8330-169f9c87b46c" x1="10.7998" y1="2.0996" x2="10.7998" y2="5.0996"/><line class="abb24714-c35f-4568-8330-169f9c87b46c" x1="46.7998" y1="9.2998" x2="46.7998" y2="12.2998"/><line class="abb24714-c35f-4568-8330-169f9c87b46c" x1="32.4004" y1="9.2998" x2="32.4004" y2="12.2998"/><line class="abb24714-c35f-4568-8330-169f9c87b46c" x1="18" y1="9.2998" x2="18" y2="12.2998"/><line class="abb24714-c35f-4568-8330-169f9c87b46c" x1="3.5996" y1="9.2998" x2="3.5996" y2="12.2998"/><line class="abb24714-c35f-4568-8330-169f9c87b46c" x1="54" y1="16.5" x2="54" y2="19.5"/><line class="abb24714-c35f-4568-8330-169f9c87b46c" x1="39.5996" y1="16.5" x2="39.5996" y2="19.5"/><line class="abb24714-c35f-4568-8330-169f9c87b46c" x1="25.2002" y1="16.5" x2="25.2002" y2="19.5"/><line class="abb24714-c35f-4568-8330-169f9c87b46c" x1="10.7998" y1="16.5" x2="10.7998" y2="19.5"/><line class="abb24714-c35f-4568-8330-169f9c87b46c" x1="46.7998" y1="23.6992" x2="46.7998" y2="26.6992"/><line class="abb24714-c35f-4568-8330-169f9c87b46c" x1="32.4004" y1="23.6992" x2="32.4004" y2="26.6992"/><line class="abb24714-c35f-4568-8330-169f9c87b46c" x1="18" y1="23.6992" x2="18" y2="26.6992"/><line class="abb24714-c35f-4568-8330-169f9c87b46c" x1="3.5996" y1="23.6992" x2="3.5996" y2="26.6992"/><line class="abb24714-c35f-4568-8330-169f9c87b46c" x1="54" y1="30.8994" x2="54" y2="33.8994"/><line class="abb24714-c35f-4568-8330-169f9c87b46c" x1="39.5996" y1="30.8994" x2="39.5996" y2="33.8994"/><line class="abb24714-c35f-4568-8330-169f9c87b46c" x1="25.2002" y1="30.8994" x2="25.2002" y2="33.8994"/><line class="abb24714-c35f-4568-8330-169f9c87b46c" x1="10.7998" y1="30.8994" x2="10.7998" y2="33.8994"/><line class="abb24714-c35f-4568-8330-169f9c87b46c" x1="46.7998" y1="38.0996" x2="46.7998" y2="41.0996"/><line class="abb24714-c35f-4568-8330-169f9c87b46c" x1="32.4004" y1="38.0996" x2="32.4004" y2="41.0996"/><line class="abb24714-c35f-4568-8330-169f9c87b46c" x1="18" y1="38.0996" x2="18" y2="41.0996"/><line class="abb24714-c35f-4568-8330-169f9c87b46c" x1="3.5996" y1="38.0996" x2="3.5996" y2="41.0996"/><line class="abb24714-c35f-4568-8330-169f9c87b46c" x1="54" y1="45.2998" x2="54" y2="48.2998"/><line class="abb24714-c35f-4568-8330-169f9c87b46c" x1="39.5996" y1="45.2998" x2="39.5996" y2="48.2998"/><line class="abb24714-c35f-4568-8330-169f9c87b46c" x1="25.2002" y1="45.2998" x2="25.2002" y2="48.2998"/><line class="abb24714-c35f-4568-8330-169f9c87b46c" x1="10.7998" y1="45.2998" x2="10.7998" y2="48.2998"/><line class="abb24714-c35f-4568-8330-169f9c87b46c" x1="46.7998" y1="52.5" x2="46.7998" y2="55.5"/><line class="abb24714-c35f-4568-8330-169f9c87b46c" x1="32.4004" y1="52.5" x2="32.4004" y2="55.5"/><line class="abb24714-c35f-4568-8330-169f9c87b46c" x1="18" y1="52.5" x2="18" y2="55.5"/><line class="abb24714-c35f-4568-8330-169f9c87b46c" x1="3.5996" y1="52.5" x2="3.5996" y2="55.5"/></pattern></defs><title>Image-fond-02</title><polygon class="697836fd-fbaf-4eb1-9dc8-5973b905ada5" points="0 784.76 606.908 784.76 606.908 0 0 0 0 784.76"/></svg>