<svg xmlns="http://www.w3.org/2000/svg" width="199.9999" height="202.2974" viewBox="0 0 199.9999 202.2974"><defs><style>.\36 a1e694a-be94-4b4e-a879-4cc9c852dbd3{fill:#007d5e;}.\38 3d1c761-94d7-4919-b2c5-7afb9d51c575{fill:#0bac81;}.\34 bc1315c-8a41-4bf5-9380-261ef4f5cbe5{fill:#057d5e;}.\32 141be05-d95f-4e60-ae28-6959a3fd48eb{fill:#057d5f;}.\34 4607f80-debf-41b4-a314-27b95114fab7{fill:#037e5f;}.\38 310cbc3-9fbf-4372-b1a0-e6fd9d1446c3{fill:#128062;}.c57b8bc8-7082-4c8d-9295-0778488af342{fill:#0d8061;}.\30 9cd8b5c-7343-4f18-ba09-dc095e2aad13{fill:#128061;}.a75fdc0b-bfab-4957-9092-df4c76c82283{fill:#fff;}</style></defs><title>Logo-metis-new</title><g id="1b8c89ab-d036-49a1-a93b-4c56fbd15ef7" data-name="Calque 2"><path class="6a1e694a-be94-4b4e-a879-4cc9c852dbd3" d="M42.9472,113.6018c.0105-2.7152.051-5.4308.013-8.1454a2.3982,2.3982,0,0,1,.826-1.9255q11.38-10.9577,22.7222-21.9545,16.4108-15.8757,32.82-31.7532c.03-.0286.0586-.0579.0888-.0858,1.3608-1.2576.8433-1.1316,2.4838-.3715q17.8487,8.27,35.6852,16.5673c1.1912.5544,2.3415,1.1994,3.4971,1.8274,8.4906,4.6137,17.021,9.1565,25.4526,13.8757,7.2122,4.0366,14.511,7.9118,21.7378,11.92.18.1.3575.2031.5391.2992a.54.54,0,0,1,.3034.4962c.0076.2877.0124.5756.012.8635q-.0361,26.5362-.074,53.0725-.0045,3.1472-.0187,6.2944c-.0169,3.4554-.0293,6.9109-.0632,10.3661-.0127,1.2956.1539,1.3018-1.3275,1.5044-2.7692.3787-5.5349.783-8.3031,1.1691-3.2161.4487-6.4342.883-9.65,1.3351s-6.4282.924-9.6436,1.377c-3.1748.4473-6.3519.8781-9.527,1.3231-2.6459.3709-5.29.7552-7.9355,1.1276-2.6051.3666-5.2115.7232-7.8167,1.0887q-3.1138.4368-6.2263.8841c-.2035.0289-.4065.0644-.611.0834-1.2321.1149-1.2439.2028-1.243-1.0915q.0053-7.9609.0014-15.9219c0-.3292.0071-.6585-.0028-.9874-.02-.6572-.0726-.7-.7155-.6119q-4.0314.5541-8.0626,1.11c-.6872.0948-.7524.1623-.7775.8488-.0121.3287-.004.6582-.004.9874q0,7.8991-.0029,15.7985c-.002,1.474.1825,1.3521-1.3663,1.5792-3.4161.5008-6.8365.9725-10.2554,1.4539-3.541.4987-7.0835.9873-10.6229,1.4978a3.396,3.396,0,0,1-2.239-.3855c-9.3078-5.091-18.6772-10.0708-27.9377-15.2459-6.8911-3.8511-13.8582-7.56-20.76-11.3891-.18-.1-.3552-.21-.5424-.2931a.75.75,0,0,1-.4863-.7755c.0128-.4522.0115-.905.012-1.3575q.0124-11.4165.0238-22.833a1.8707,1.8707,0,0,1-.406-1.26c-.0026-1.353-.0855-2.71.0416-4.0575.0993-1.0533.6039-1.3027,1.4928-.7188,1.3357.8775,2.6312,1.8183,3.8973,2.7958a1.8756,1.8756,0,0,1,.7787,1.5953,1.798,1.798,0,0,0,.3183,1.16,17.4738,17.4738,0,0,0,3.1367,1.896c.6667.4055.9647.1628.9641-.5948a48.1282,48.1282,0,0,1,.0421-5.6422c.3188-2.7019-.4-4.6114-3.15-5.4647-.3423-.1062-.618-.4-.99-.4506-.6481.411-.197,1.0529-.3287,1.5691-.1346.5277-.2949,1.0911-.9371.65a22.2421,22.2421,0,0,1-4.8555-4.6354A.4224.4224,0,0,1,42.9472,113.6018Z"/><path class="83d1c761-94d7-4919-b2c5-7afb9d51c575" d="M42.9472,113.6018a4.9472,4.9472,0,0,0,.9694,1.1,35.2364,35.2364,0,0,0,4.2514,3.8795c.2769-.0615.2093-.2954.2129-.48.0132-.695.0086-1.39.0245-2.0853.0055-.2378.1508-.2867.5029-.1976.0012.29.1913.5615.1421.8425-.3171,1.81.6422,2.91,2.0319,3.82a4.5452,4.5452,0,0,1,1.54,1.5614,2.59,2.59,0,0,1-.538,3.2443,2.4872,2.4872,0,0,1-3.2252-.0477c.1556-1.5465-1.2238-2.0026-2.084-2.7423a5.8986,5.8986,0,0,0-3.9645-1.6953,23.9765,23.9765,0,0,0-2.4834-2.207,64.7886,64.7886,0,0,1-6.4617-6.6091A68.2938,68.2938,0,0,1,24.187,97.0078a79.3069,79.3069,0,0,1-5.6954-16.5131c-.5495-2.4044-1.0312-4.8216-1.3691-7.2615-.2589-1.87-.4771-3.7463-.632-5.6319a96.1885,96.1885,0,0,1-.3789-10.96c.0762-2.38.1437-4.7659.4349-7.1336a4.5456,4.5456,0,0,1,2.8913-3.8431,4.4948,4.4948,0,0,1,4.7591.6569,4.2693,4.2693,0,0,1,1.7766,3.7475c-.0664,1.1875-.2326,2.37-.3612,3.5534-.1241,1.143-.2876,2.2826-.38,3.428a90.0911,90.0911,0,0,0-.2327,11.46,78.4962,78.4962,0,0,0,4.3831,23.16,62.21,62.21,0,0,0,11.2657,19.5518c.588.6866,1.1942,1.358,1.8057,2.0238A2.9325,2.9325,0,0,0,42.9472,113.6018Z"/><path class="83d1c761-94d7-4919-b2c5-7afb9d51c575" d="M42.81,120.8011a4.6286,4.6286,0,0,0,1.2036-.2246.9606.9606,0,0,1,.8265.1175,13.0141,13.0141,0,0,0,2.358,1.52.9976.9976,0,0,1,.3609.3293,5.34,5.34,0,0,0,1.3582,1.2259c.6021.397.58.63-.0308,1.2206-.0411.0208-.0822.0416-.1212.0646a1.9524,1.9524,0,0,0,.1671.4282,1.6119,1.6119,0,0,1-.2969,1.6912.5389.5389,0,0,1-.2319-.41,6.6818,6.6818,0,0,1-.0123-.9785,1.6437,1.6437,0,0,0-.9193-1.69c-1.3593-.8965-2.6468-1.9016-3.9666-2.8582-.2477-.18-.4948-.07-.5144.23-.0212.3255-.0214.6527-.0229.9791q-.0113,2.3888-.0183,4.7775a9.2005,9.2005,0,0,0-1.0784-.2372,46.7481,46.7481,0,0,1-13.5432-3.5246,50.6256,50.6256,0,0,1-16.6608-11.4418A59.73,59.73,0,0,1,.6564,96.3479a5.5607,5.5607,0,0,1-.6551-2.6,4.7058,4.7058,0,0,1,4.5463-4.615,4.6292,4.6292,0,0,1,4.7106,3.0842,50.7338,50.7338,0,0,0,3.3569,6.8586,47.8413,47.8413,0,0,0,9.05,11.3252A42.1587,42.1587,0,0,0,41.59,120.6671,11.8625,11.8625,0,0,0,42.81,120.8011Z"/><path class="83d1c761-94d7-4919-b2c5-7afb9d51c575" d="M44.3076,7.024a6.9487,6.9487,0,0,1-2.1426,5.0908A72.6268,72.6268,0,0,0,33.1743,23.526a79.6082,79.6082,0,0,0-4.93,8.9614c-.1746.3719-.3421.7487-.5435,1.1061a3.8549,3.8549,0,0,1-7.1826-2.1852,11.5389,11.5389,0,0,1,.2884-1.6979A86.7023,86.7023,0,0,1,28.7227,7.8737c.8036-1.5265,1.6848-3.0132,2.5588-4.5014A6.6381,6.6381,0,0,1,34.4771.5787a7.0212,7.0212,0,0,1,9.6563,4.8556A11.5465,11.5465,0,0,1,44.3076,7.024Z"/><path class="6a1e694a-be94-4b4e-a879-4cc9c852dbd3" d="M178.0663,68.9809c-.6157.4064-1.2273.8194-1.8488,1.2166a6.624,6.624,0,0,1-1.0665.6134,1.4993,1.4993,0,0,1-2.1548-1.1418,3.9225,3.9225,0,0,1-.0254-1.47c.0672-.4842.1079-.972.1589-1.4457-.3408-.1011-.4221.1233-.5167.2781-.3642.5962-.7121,1.2023-1.064,1.806-.1242.2131-.2293.4383-.3655.6432a1.2129,1.2129,0,0,1-1.895.3831,1.0746,1.0746,0,0,1-.47-1.5715,21.1909,21.1909,0,0,1,3.6317-5.26c.0285-.03.0585-.0578.0872-.0873.94-.9672,1.8878-.68,2.6164.2428a3.3613,3.3613,0,0,1,.6054,2.0983c.0105.5745-.0429,1.15-.06,1.7251-.0075.2546.1834.3595.4105.2226.5983-.3608,1.1855-.74,1.7887-1.0927a5.9737,5.9737,0,0,1,2.0654-.779,2.1707,2.1707,0,0,1,.9743.0584,1.2756,1.2756,0,0,1,1.0222,1.6739,5.6488,5.6488,0,0,1-.2717.8179,50.4376,50.4376,0,0,1-2.9665,5.9589,1.3447,1.3447,0,0,1-2.397.0013.9165.9165,0,0,1-.092-.9381c.1948-.4074.3957-.8124.61-1.21A10.92,10.92,0,0,0,178.0663,68.9809Z"/><path class="6a1e694a-be94-4b4e-a879-4cc9c852dbd3" d="M132.8478,39.7616a6.8516,6.8516,0,0,1,1.6971.2854,3.3852,3.3852,0,0,1,2.31,3.75,2.7924,2.7924,0,0,1-.8178,1.4859,7.3963,7.3963,0,0,1-.6762.5328c-.39.3-1.0121.3285-1.2314.763-.2409.4773.2921.8853.4035,1.3526a3.165,3.165,0,0,1-.8645,3.2776,4.25,4.25,0,0,1-4.5972.6943,3.446,3.446,0,0,1-.99-.7219,1.6481,1.6481,0,0,1-.3821-2.01c.8582-1.8649,1.6533-3.7588,2.5-5.6293a23.2927,23.2927,0,0,0,1.1284-2.73c.0121-.0392.0175-.0807.0321-.1189C131.675,39.8618,131.9294,39.7026,132.8478,39.7616Z"/><path class="6a1e694a-be94-4b4e-a879-4cc9c852dbd3" d="M192.3134,183.2349a11.4752,11.4752,0,0,0-.3463-2.7883,5.3788,5.3788,0,0,1-.12-1.22c.0468-.6105.4126-.9561,1.1349-1.0978a1.158,1.158,0,0,1,1.4247.6651,3.091,3.091,0,0,1,.1766.7113,44.8541,44.8541,0,0,1,.5129,6.9935,3.285,3.285,0,0,1-.0912.8534,1.5781,1.5781,0,0,1-1.516,1.0386,1.4173,1.4173,0,0,1-.9025-.5966,24.7207,24.7207,0,0,1-2.13-2.709c-.31-.4839-.6184-.9694-.9452-1.442q-.42-.6072-.8838-1.1834c-.1156-.1436-.2448-.3753-.49-.2235a.4954.4954,0,0,0-.1565.5563c.2491,1.4137.5094,2.8254.7674,4.2375.0884.4843.2017.9651.2654,1.4525a.9839.9839,0,0,1-.7175,1.139,2.2046,2.2046,0,0,1-1.0951.0723.8861.8861,0,0,1-.7838-.685c-.1586-.6789-.317-1.3606-.4182-2.05-.2325-1.5832-.432-3.1713-.6409-4.7579a3.41,3.41,0,0,1-.0394-.6121,1.6687,1.6687,0,0,1,1.3192-1.7157,3.3261,3.3261,0,0,1,3.4411.7013,9.4738,9.4738,0,0,1,1.3577,1.5873A3.0544,3.0544,0,0,0,192.3134,183.2349Z"/><path class="6a1e694a-be94-4b4e-a879-4cc9c852dbd3" d="M141.7578,195.1063c0,.5337.0248,1.0689-.0066,1.6008a1.1723,1.1723,0,0,1-1.1382,1.0892,1.1532,1.1532,0,0,1-1.4034-.7071,2.9168,2.9168,0,0,1-.1921-1.2091c.0243-1.6044-.1317-3.1983-.2564-4.7942-.0672-.86-.151-1.7189-.2026-2.58a1.4987,1.4987,0,0,0-.3685-.8872.6789.6789,0,0,1,.0489-.9038,1.9,1.9,0,0,1,.4292-.4364,6.6585,6.6585,0,0,1,4.5177-1.2967,3.48,3.48,0,0,1,.4844.0853,2.9111,2.9111,0,0,1,1.9207,4.51,6.7063,6.7063,0,0,1-1.5483,1.7407c-.3642.3126-.3514.47.0729.7469.6185.4041,1.2558.78,1.8876,1.1635.1045.0634.2252.1.333.1589.5372.2933.8058.6681.7075,1.03a1.1327,1.1327,0,0,1-.8942.7535,1.8464,1.8464,0,0,1-1.4293-.1855c-.62-.3181-1.2049-.7023-1.8067-1.0551-.3174-.1861-.6348-.3727-.96-.5446-.1309-.0693-.352.0909-.3428.2459.0293.4919.0706.983.1072,1.4744Z"/><path class="6a1e694a-be94-4b4e-a879-4cc9c852dbd3" d="M123.3182,35.52a7.5281,7.5281,0,0,1,3.1033.7244A4.4872,4.4872,0,0,1,128.26,37.84a2.7982,2.7982,0,0,1-.74,4.0057,4.0657,4.0657,0,0,1-1.45.6506,6.3934,6.3934,0,0,1-1.0886.1981c-.7925.0451-1.0069.1132-.5864,1.0768.2622.601.5258,1.2014.7858,1.8033a3.5715,3.5715,0,0,1,.269.6785.7629.7629,0,0,1-.83.9478,1.77,1.77,0,0,1-1.4267-.8426,9.82,9.82,0,0,1-.9116-1.878c-.1755-.4148-.34-.8345-.5278-1.2437-.0992-.2164-.3389-.22-.4781-.0054-.3567.551-.6972,1.1125-1.0476,1.6676a8.5006,8.5006,0,0,1-.5417.8212,1.107,1.107,0,0,1-1.4258.3574,1.2285,1.2285,0,0,1-.7443-1.9509,7.979,7.979,0,0,1,.7584-1.2649c1.33-1.7312,2.2784-3.7,3.4714-5.516a1.7232,1.7232,0,0,0,.274-.8c.0785-.7739.2421-.9256.9418-1.0037C123.1251,35.5235,123.29,35.5216,123.3182,35.52Z"/><path class="6a1e694a-be94-4b4e-a879-4cc9c852dbd3" d="M156.7363,195.2378a1.2581,1.2581,0,0,1-1.1767-.6891,6.5881,6.5881,0,0,1-.3223-.7973c-.3885-1.123-.5319-.9758-1.5348-.9063a1.4066,1.4066,0,0,0-1.5058,1.1538,3.0409,3.0409,0,0,1-.3192.797,1.4769,1.4769,0,0,1-1.79.7046.8792.8792,0,0,1-.6761-1.1388c.6559-2.4578.9181-4.9929,1.4946-7.4645a16.0277,16.0277,0,0,1,.692-2.1034,3.1976,3.1976,0,0,1,.57-.9417,1.41,1.41,0,0,1,2.0847-.1311,3.18,3.18,0,0,1,.9066,1.3047c.31.804.6037,1.6157.8659,2.4364.35,1.0954.6617,2.2029.9926,3.3043a24.7449,24.7449,0,0,0,.9727,2.6593C158.4349,194.46,157.9138,195.2027,156.7363,195.2378Z"/><path class="6a1e694a-be94-4b4e-a879-4cc9c852dbd3" d="M183.4294,184.8152a6.81,6.81,0,0,1-.6126,2.7434,5.0352,5.0352,0,0,1-5.5226,2.7853,3.66,3.66,0,0,1-2.8453-2.1356,6.0555,6.0555,0,0,1,.5709-6.3055,4.8164,4.8164,0,0,1,3.36-1.8524,7.0446,7.0446,0,0,1,.7358-.0713,3.6285,3.6285,0,0,1,3.9833,2.7742A6.8279,6.8279,0,0,1,183.4294,184.8152Z"/><path class="6a1e694a-be94-4b4e-a879-4cc9c852dbd3" d="M150.1114,51.8685a1.46,1.46,0,0,1,1.094.4828,3.7945,3.7945,0,0,1,.8628,1.3368c.2683.6872.4972,1.39.7307,2.09.1037.311.173.6333.2664.948.0442.1489.06.3388.2775.343a.4843.4843,0,0,0,.3883-.26c.2657-.3649.5406-.7251.7789-1.1077.4992-.8015.9772-1.6161,1.4642-2.4252.1481-.2462.28-.5041.4488-.7355a1.1791,1.1791,0,0,1,1.8176-.2946,1.1275,1.1275,0,0,1,.3688,1.7032,52.8654,52.8654,0,0,1-3.002,4.6559,10.7863,10.7863,0,0,1-1.8058,1.8453,1.278,1.278,0,0,1-1.87-.1327,2.332,2.332,0,0,1-.6247-1.1792c-.2164-.9184-.4438-1.8342-.6747-2.7491-.08-.3178-.1776-.6317-.28-.9433a.2413.2413,0,0,0-.3945-.0874,8.5988,8.5988,0,0,0-.6308.7543c-.4506.6366-.8839,1.2855-1.3208,1.9317-.1379.204-.2514.4258-.4.6212a1.3789,1.3789,0,0,1-2.3636-.0805.8038.8038,0,0,1-.0969-.8175,3.2639,3.2639,0,0,1,.2779-.5458,47.5724,47.5724,0,0,1,3.3833-4.5421c.1628-.1841.3363-.36.5139-.53A1.0633,1.0633,0,0,1,150.1114,51.8685Z"/><path class="6a1e694a-be94-4b4e-a879-4cc9c852dbd3" d="M197.4283,82.7179a5.9969,5.9969,0,0,1,.788.0432,1.2341,1.2341,0,0,1,1.0264.9444.7333.7333,0,0,1-.5181.9674,9.2769,9.2769,0,0,1-1.9479.2743c-.7748.0374-.7749.0532-.88.8618-.0265.2034-.0286.4111-.07.6111a.662.662,0,0,1-.8215.5409,1.5443,1.5443,0,0,1-1.3417-1.39c-.0984-.677-.0959-.6889-.7529-.8253a4.5256,4.5256,0,0,1-1.3789-.511,2.5782,2.5782,0,0,1-1.1382-1.2546,1.8487,1.8487,0,0,1,1.0556-2.5289,5.8416,5.8416,0,0,1,1.68-.3557c.2443-.0282.4931-.0171.7377-.0434a.49.49,0,0,0,.43-.3768,11.4414,11.4414,0,0,1,.4935-1.3886,2.5291,2.5291,0,0,1,2.9111-1.5206,2.8845,2.8845,0,0,1,2.2974,2.6974,2.3151,2.3151,0,0,1-1.3972,2.2638,5.4307,5.4307,0,0,1-1.6753.3711c-.4558.0541-.68.2515-.58.4525.1462.2951.4157.1735.6421.1932C197.0686,82.7509,197.1514,82.7355,197.4283,82.7179Z"/><path class="6a1e694a-be94-4b4e-a879-4cc9c852dbd3" d="M145.4256,47.1052a2.0483,2.0483,0,0,1-.03.32c-.4966,2.1568-.5768,4.3887-1.1878,6.5259a12.9464,12.9464,0,0,1-.7373,2.2116,1.0282,1.0282,0,0,1-1.4015.633c-.981-.3242-1.3511-.83-.9864-1.86.1721-.4862.6258-.987.3113-1.4948-.2581-.4165-.8767-.3828-1.3116-.6032a1.2124,1.2124,0,0,1-.1131-.0476,1.04,1.04,0,0,0-1.64.3392c-.4145.6107-1.15.7456-1.9544.1469a.9753.9753,0,0,1-.2223-1.5771,5.5454,5.5454,0,0,0,.914-1.3021.7393.7393,0,0,1,.2322-.2789c1.2893-1.0117,2.4052-2.2312,3.7774-3.1439a9.7626,9.7626,0,0,1,2.05-1.1082,2.2405,2.2405,0,0,1,1.084-.1486A1.4233,1.4233,0,0,1,145.4256,47.1052Z"/><path class="6a1e694a-be94-4b4e-a879-4cc9c852dbd3" d="M112.7551,41.5228a3.4206,3.4206,0,0,1-3.4607-4.22,11.7993,11.7993,0,0,1,2.8124-5.6776,3.0107,3.0107,0,0,1,.5489-.4926,1.4494,1.4494,0,0,1,1.9107.1739.9309.9309,0,0,1,.0988,1.3266c-.1521.193-.3411.3566-.504.5417a11.0144,11.0144,0,0,0-2.3863,4.544,3.54,3.54,0,0,0-.1262.9712c.0164.6892.4324.9421,1.0768.7127a3.9291,3.9291,0,0,0,1.4982-1.0575,13.9085,13.9085,0,0,0,2.9353-4.6686c.1037-.2677.1821-.5466.3038-.8054a.91.91,0,0,1,1.0155-.53,1.298,1.298,0,0,1,1.2692,1.6986,7.2542,7.2542,0,0,1-.3516,1.0509,16.3726,16.3726,0,0,1-2.5637,4.1953,7.9523,7.9523,0,0,1-1.7489,1.55A3.9764,3.9764,0,0,1,112.7551,41.5228Z"/><path class="6a1e694a-be94-4b4e-a879-4cc9c852dbd3" d="M123.7434,191.5437c-.0386-.4178-.1008-.9892-.1424-1.5621a1.3722,1.3722,0,0,1,1.9127-1.4775,1.0049,1.0049,0,0,1,.69.7976,8.5933,8.5933,0,0,1,.1652,2.0839,11.4724,11.4724,0,0,1-.5933,3.7542,4.322,4.322,0,0,1-4.37,2.9634,3.2347,3.2347,0,0,1-2.8581-1.631,5.817,5.817,0,0,1-.52-1.1129,15.3959,15.3959,0,0,1-.7338-3.9865,1.3877,1.3877,0,0,1,1.9754-1.4147.9974.9974,0,0,1,.5255.4943,2.566,2.566,0,0,1,.227,1.0748,16.6176,16.6176,0,0,0,.4617,2.7911A4.07,4.07,0,0,0,121,195.5648a1.0206,1.0206,0,0,0,1.8166.0411,3.8212,3.8212,0,0,0,.6247-1.463,11.1465,11.1465,0,0,0,.2217-1.2113C123.711,192.5244,123.7127,192.1118,123.7434,191.5437Z"/><path class="6a1e694a-be94-4b4e-a879-4cc9c852dbd3" d="M184.6486,78.8781a9.7036,9.7036,0,0,1-.9644-.1842,11.8649,11.8649,0,0,1-2.2477-.995,1.3448,1.3448,0,0,1-.7324-1.4322,3.8161,3.8161,0,0,1,.3183-1.184,36.2385,36.2385,0,0,1,3.7047-6.8018,1.6323,1.6323,0,0,1,2.4252-.64c.8843.4328,1.7414.9215,2.6074,1.3911a1.535,1.535,0,0,1,.7.6688.685.685,0,0,1-.4685.9568,2.0166,2.0166,0,0,1-1.2022-.1588c-.4879-.2148-.9777-.4257-1.464-.6443a.4575.4575,0,0,0-.5651.0862,6.8212,6.8212,0,0,0-1.0457,1.66.3931.3931,0,0,0,.2067.5188c.4337.2329.8732.4553,1.314.6746a1.9343,1.9343,0,0,1,.7709.5949.82.82,0,0,1,.0924.82.7259.7259,0,0,1-.6842.44,2.2982,2.2982,0,0,1-1.1857-.2729q-.6046-.3047-1.2106-.6069a.4149.4149,0,0,0-.6154.2064c-.3473.7426-.6755,1.4944-.9966,2.2488a.3781.3781,0,0,0,.3352.5254c.3228.0521.6527.0588.978.0971a1.5279,1.5279,0,0,1,1.2659.8574.7183.7183,0,0,1-.2631.9613A2.0485,2.0485,0,0,1,184.6486,78.8781Z"/><path class="4bc1315c-8a41-4bf5-9380-261ef4f5cbe5" d="M169.26,59.5368c-.1225-.0117-.2452-.022-.3676-.0352a1.3956,1.3956,0,0,0-1.4287.7592A5.9833,5.9833,0,0,0,166.67,62.7c-.1023.8962-.1539,1.7981-.2522,2.6948-.0759.6921-.1578,1.3866-.2969,2.0678a4.2107,4.2107,0,0,1-.5989,1.4748,2.3828,2.3828,0,0,1-1.6673,1.1618A4.1877,4.1877,0,0,1,160.2908,68.8a.7078.7078,0,0,1-.1447-.9017.8207.8207,0,0,1,.8138-.4468,2.56,2.56,0,0,1,.6.107c.194.0612.3706.1749.56.2532.6383.2638.8739.1772,1.157-.4507a10.42,10.42,0,0,0,.6571-3.24c.0929-.8559.16-1.7154.2772-2.5679a7.0944,7.0944,0,0,1,.6857-2.2237,3.3628,3.3628,0,0,1,3.398-1.9689,7.0724,7.0724,0,0,1,1.4467.2642,1.4263,1.4263,0,0,1,.8633.6548.8181.8181,0,0,1,.1188.9173.8081.8081,0,0,1-.7279.3816c-.2454.0047-.4909.0009-.7364.0009Z"/><path class="4bc1315c-8a41-4bf5-9380-261ef4f5cbe5" d="M160.4735,184.5058c-.2345.0351-.598.1093-.9652.14a.8261.8261,0,0,1-.9543-.59.9422.9422,0,0,1,.5652-1.2071,3.3729,3.3729,0,0,1,.6-.128c1.6588-.2812,3.3187-.5563,4.9766-.8425a1.4558,1.4558,0,0,1,.96.0647.9938.9938,0,0,1,.5613,1.0069.7941.7941,0,0,1-.62.6878,5.5685,5.5685,0,0,1-.8441.1484c-.774.1249-.8866.2611-.7532,1.0684.1741,1.0525.3791,2.1.5728,3.1492.1862,1.0089.3782,2.0167.56,3.0263.0437.242.0569.4894.0871.734a1.0469,1.0469,0,0,1-.44,1.1844,1.7511,1.7511,0,0,1-1.6507.1115.7186.7186,0,0,1-.39-.4544,6.668,6.668,0,0,1-.2093-.8353q-.532-3.0312-1.0519-6.0646c-.035-.2021-.0647-.4059-.1152-.6043C161.2308,184.58,161.102,184.4828,160.4735,184.5058Z"/><path class="4bc1315c-8a41-4bf5-9380-261ef4f5cbe5" d="M134.0764,186.6582a1.2551,1.2551,0,0,1,.9171.27.7418.7418,0,0,1-.0167,1.1722,1.58,1.58,0,0,1-.7814.3353,6.3215,6.3215,0,0,0-.8477.1374,1.2,1.2,0,0,0-.9776,1.469,3.282,3.282,0,0,0,.7908,1.7715c.2884.3464.6094.6654.9076,1.0038a3.832,3.832,0,0,1,.7426,1.1225,2.2463,2.2463,0,0,1-.5667,2.587,3.7184,3.7184,0,0,1-3.8.6856,1.0761,1.0761,0,0,1-.5819-1.6131.7269.7269,0,0,1,.9194-.4041c.3111.0994.6031.26.9149.3557a.5429.5429,0,0,0,.6941-.6112,1.305,1.305,0,0,0-.3362-.7754c-.3956-.471-.8032-.9318-1.2062-1.3965a4.2482,4.2482,0,0,1-1.0344-2.9465A2.6675,2.6675,0,0,1,131.05,187.54,5.397,5.397,0,0,1,134.0764,186.6582Z"/><path class="2141be05-d95f-4e60-ae28-6959a3fd48eb" d="M112.8215,201.0391c-.4917,0-.9841.0156-1.475-.0036a1.06,1.06,0,0,1-1.188-1.118c-.0237-.2853-.0066-.5739-.01-.861a28.89,28.89,0,0,0-.4839-5.1357,9.1908,9.1908,0,0,0-.6012-1.9971.9867.9867,0,0,1,.4534-1.2537,1.395,1.395,0,0,1,2.1965.7035,12.8047,12.8047,0,0,1,.8928,3.9412c.0732,1.0227.1385,2.046.2254,3.0675.0417.49.2189.6453.7156.6348a9.5843,9.5843,0,0,0,1.1008-.1041,2.35,2.35,0,0,1,1.21.1116.7887.7887,0,0,1,.2718,1.3069,1.838,1.838,0,0,1-.9807.4738A21.4588,21.4588,0,0,1,112.8215,201.0391Z"/><path class="4bc1315c-8a41-4bf5-9380-261ef4f5cbe5" d="M104.234,195.0308c0,.82-.0094,1.64.0042,2.46a8.1926,8.1926,0,0,0,.0935,1.1014c.1072.7006.29.8306.9914.6675a5.0807,5.0807,0,0,1,1.5671-.2625,1.482,1.482,0,0,1,.9161.2993.6375.6375,0,0,1,.1105.8762,1.6582,1.6582,0,0,1-.793.56,10.1136,10.1136,0,0,1-4.2353.5515,1.0538,1.0538,0,0,1-1.02-.9038,5.2413,5.2413,0,0,1-.123-.8495c-.038-.7369-.06-1.4749-.0783-2.2127-.04-1.597.0644-3.195-.1209-4.7922a1.3049,1.3049,0,0,1,1.2794-1.6063,1.12,1.12,0,0,1,1.3832,1.1585c.032.9832.0075,1.9681.0075,2.9523Z"/><path class="44607f80-debf-41b4-a314-27b95114fab7" d="M157.69,65.5349a3.3069,3.3069,0,0,1-.5964-.1425,1.1875,1.1875,0,0,1-.7561-1.5886,3.8767,3.8767,0,0,1,.2967-.6747c.9779-1.85,1.9633-3.6967,2.94-5.5474.2233-.4228.4935-.7773,1.03-.7288a1.6594,1.6594,0,0,1,1.4081.8546.8362.8362,0,0,1,.0417.716,8.4547,8.4547,0,0,1-.3662.9107c-.9491,1.819-1.91,3.6317-2.8678,5.4462-.0574.1088-.1138.2184-.1773.3235A.9734.9734,0,0,1,157.69,65.5349Z"/><path class="44607f80-debf-41b4-a314-27b95114fab7" d="M96.0441,196.4724c0-.3972.01-.644-.0018-.89-.0359-.7487.43-1.0593,1.1644-1.1533a1.1682,1.1682,0,0,1,1.3573.9461c.0885.4414.1372.8918.1843,1.34.1027.9789.1786,1.9609.2969,2.9378a5.732,5.732,0,0,0,.267.94,1.2273,1.2273,0,0,1-.7519,1.5878,1.3033,1.3033,0,0,1-1.7671-.6348,1.6508,1.6508,0,0,1-.152-.4671C96.4646,199.491,96.0919,197.9265,96.0441,196.4724Z"/><path class="44607f80-debf-41b4-a314-27b95114fab7" d="M170.1456,183.8529a1.1041,1.1041,0,0,1,1.2358,1.0806c.1525,1.177.27,2.3585.4026,3.5381a6.5432,6.5432,0,0,0,.305,1.5585,1.1151,1.1151,0,0,1-.442,1.4041,1.5913,1.5913,0,0,1-1.637.0749,1.1522,1.1522,0,0,1-.555-.9187,38.9477,38.9477,0,0,1-.6176-5.487C168.851,184.3254,169.0927,183.9263,170.1456,183.8529Z"/><path class="8310cbc3-9fbf-4372-b1a0-e6fd9d1446c3" d="M163.9792,54.9873a1.0338,1.0338,0,0,1-1.0114,1.0312,1.8384,1.8384,0,0,1-1.6481-1.093,1.0565,1.0565,0,0,1,1.1411-1.4309A1.58,1.58,0,0,1,163.9792,54.9873Z"/><path class="c57b8bc8-7082-4c8d-9295-0778488af342" d="M96.7988,191.03c.82.0136,1.2741.4207,1.2639,1.0239a.9393.9393,0,0,1-.3577.75,1.5783,1.5783,0,0,1-1.3957.2907.986.986,0,0,1-.2159-1.8576A4.3845,4.3845,0,0,1,96.7988,191.03Z"/><path class="09cd8b5c-7343-4f18-ba09-dc095e2aad13" d="M169.7716,180.4659a2.7211,2.7211,0,0,1,.5124.1162.96.96,0,0,1,.3266,1.5362,1.6362,1.6362,0,0,1-1.8233.2654.9875.9875,0,0,1-.1271-1.5757A1.5845,1.5845,0,0,1,169.7716,180.4659Z"/><path class="a75fdc0b-bfab-4957-9092-df4c76c82283" d="M154.3431,110.4105q0,2.4677.0005,4.9354c.0013,1.14-.0245.96-1.0052,1.1318-1.3347.2341-2.6842.3842-4.0274.5708-1.0581.1469-2.1155.2985-3.1744.44a9.5813,9.5813,0,0,1-.9819.0822.3245.3245,0,0,1-.3383-.2936,4.258,4.258,0,0,1-.0341-.6147q-.0028-4.9971-.0011-9.9941c0-.1644.0074-.3288.0093-.4932a.5444.5444,0,0,1,.5123-.5832c.5684-.0876,1.1386-.1635,1.7083-.2425,2.0757-.2875,4.1495-.59,6.2281-.8547,1.0855-.1381,1.0973-.1076,1.102.9808C154.3483,107.12,154.343,108.7654,154.3431,110.4105Z"/><path class="a75fdc0b-bfab-4957-9092-df4c76c82283" d="M117.1273,142.117q0-2.34.0007-4.68c0-.2872.0029-.5748.0187-.8614a.4732.4732,0,0,1,.4353-.5c.933-.1392,1.8637-.2946,2.7976-.4273,1.7867-.2539,3.5748-.4973,5.3626-.7426a4.4982,4.4982,0,0,1,.4906-.0391c.3026-.0082.4262.1105.4461.4424.0147.2455.0105.4923.0105.7386q.0009,4.7415,0,9.4829c0,.2053.0052.4108-.0037.6157-.0234.5369-.1142.6568-.6136.7387-.4855.0795-.9755.1311-1.4633.1971-2.276.3083-4.5512.6225-6.8284.9222-.54.0711-.6447-.0263-.6477-.5917-.01-1.7652-.0036-3.53-.0036-5.2957Z"/><path class="a75fdc0b-bfab-4957-9092-df4c76c82283" d="M60.3092,139.9786a1.571,1.571,0,0,1,.4186.0711c1.4094.7563,2.813,1.5233,4.2211,2.282a.8016.8016,0,0,1,.4621.7885c-.0122,1.8056-.0027,3.6114-.0037,5.4171-.001,1.6415-.0021,3.283-.0116,4.9245-.0018.3219-.1962.4444-.4769.2938-1.4458-.7755-2.8846-1.5637-4.3278-2.3439a.6308.6308,0,0,1-.3324-.6089c-.0015-.1642-.0045-.3283-.0045-.4924q0-4.8016.0022-9.6032C60.2566,140.4741,60.2893,140.241,60.3092,139.9786Z"/><path class="a75fdc0b-bfab-4957-9092-df4c76c82283" d="M79.9177,160.8739a.4472.4472,0,0,1-.4858-.0446c-1.3361-.7236-2.6658-1.459-4.0091-2.1688a.9746.9746,0,0,1-.59-.9687c.0154-3.41.01-6.82.0148-10.2305a1.5029,1.5029,0,0,1,.0678-.3223.4518.4518,0,0,1,.4846.0515c1.3364.7229,2.6645,1.4616,4.009,2.1692a.9679.9679,0,0,1,.5925.9648c-.0153,3.41-.01,6.82-.0153,10.2305A1.4521,1.4521,0,0,1,79.9177,160.8739Z"/><path class="a75fdc0b-bfab-4957-9092-df4c76c82283" d="M48.6357,127.1738l.0153-2.1848a.1446.1446,0,0,1,.2374.0013l-.0017-.0006a2.1282,2.1282,0,0,0,2.5164.3041,2.2232,2.2232,0,0,0,.7573-3.3593,5.3186,5.3186,0,0,0-.9053-.8262c-.738-.5891-1.4882-1.163-2.2369-1.7386a.8651.8651,0,0,1-.41-.7147c.0088-.8211.0094-1.6423.0241-2.4633a.43.43,0,0,1,.2765-.3735c1.4011.7731,2.7989,1.5521,4.2053,2.3154a.8945.8945,0,0,1,.5307.8756c-.0133,3.408-.01,6.8161-.016,10.2241a1.6966,1.6966,0,0,1-.0692.3433c-.2806.1616-.4879-.0129-.6973-.1251Q50.7459,128.3178,48.6357,127.1738Z"/><path class="83d1c761-94d7-4919-b2c5-7afb9d51c575" d="M48.8884,124.99l-.1187.0032-.1187-.0045C48.7309,124.8618,48.81,124.8592,48.8884,124.99Z"/><path class="a75fdc0b-bfab-4957-9092-df4c76c82283" d="M132.1459,48.53a1.2093,1.2093,0,0,1-.3936.872,2.5546,2.5546,0,0,1-.9939.6952c-.0729.0238-.2025.0374-.2315-.0009-.0676-.089-.1507-.2336-.1211-.3186a12.2144,12.2144,0,0,1,1.0133-2.2235c.0966-.1628.4115-.1227.5219.0342A1.6264,1.6264,0,0,1,132.1459,48.53Z"/><path class="a75fdc0b-bfab-4957-9092-df4c76c82283" d="M134.3591,42.6594a1.7508,1.7508,0,0,1-1.14,1.5734c-.0525.0253-.1509-.0281-.2211-.06a.142.142,0,0,1-.0659-.2092c.2425-.5616.4789-1.1259.73-1.6834a.3572.3572,0,0,1,.3813-.2395c.1836.03.253.1846.2843.3521C134.3426,42.4728,134.3472,42.5546,134.3591,42.6594Z"/><path class="a75fdc0b-bfab-4957-9092-df4c76c82283" d="M142.2033,186.8655a1.1138,1.1138,0,0,1,1.23,1.4069,3.1082,3.1082,0,0,1-1.7036,2.1106.2725.2725,0,0,1-.3814-.1915,2.9407,2.9407,0,0,1-.093-.5994c-.0327-.5688-.0394-1.1392-.0781-1.7076C141.1189,187.034,141.5309,186.9223,142.2033,186.8655Z"/><path class="a75fdc0b-bfab-4957-9092-df4c76c82283" d="M123.6493,40.7049a1.9122,1.9122,0,0,1-.3623-.0613c-.1512-.0683-.3073-.1659-.2153-.3638a14.9748,14.9748,0,0,1,1.4134-2.3022.591.591,0,0,1,.4193-.2091,1.4057,1.4057,0,0,1,1.3023.7743,1.0559,1.0559,0,0,1-.2109,1.2459,1.8881,1.8881,0,0,1-1.0166.6609C124.5081,40.5792,124.0173,40.637,123.6493,40.7049Z"/><path class="a75fdc0b-bfab-4957-9092-df4c76c82283" d="M153.3233,190.9444c-.3-.0066-.4884-.174-.4439-.4457.0982-.5993.2191-1.1951.3431-1.79a.2591.2591,0,0,1,.1686-.1527.2024.2024,0,0,1,.17.1024c.1783.54.3634,1.0782.5066,1.6275.1057.4053-.0574.5866-.5009.6414C153.486,190.9376,153.4044,190.9392,153.3233,190.9444Z"/><path class="a75fdc0b-bfab-4957-9092-df4c76c82283" d="M180.7776,185.1347a4.5553,4.5553,0,0,1-.3487,1.8216,2.9472,2.9472,0,0,1-.6575,1.0254,1.7194,1.7194,0,0,1-2.6633-.2365,2.375,2.375,0,0,1-.289-.5386,5.2921,5.2921,0,0,1,.1946-4.1677,1.6323,1.6323,0,0,1,1.3215-.9653c1.3834-.2194,1.7232-.0231,2.2,1.2791A4.8564,4.8564,0,0,1,180.7776,185.1347Z"/><path class="a75fdc0b-bfab-4957-9092-df4c76c82283" d="M196.9774,79.7677a.4587.4587,0,0,1-.0932-.0872.1484.1484,0,0,1-.0182-.1072c.14-.4332.4788-.7349.749-.6666a.15.15,0,0,1,.0811.0885c.1021.2858-.1518.6113-.6015.7708A.3574.3574,0,0,1,196.9774,79.7677Z"/><path class="a75fdc0b-bfab-4957-9092-df4c76c82283" d="M193.25,82.8476c-.1291-.0388-.2806-.0817-.43-.1315-.0327-.0109-.0845-.0521-.0808-.0694a.4214.4214,0,0,1,.0792-.2136.854.854,0,0,1,.7856-.16.2578.2578,0,0,1,.2159.2384c.024.1572-.09.2183-.1917.2621A1.8367,1.8367,0,0,1,193.25,82.8476Z"/><path class="a75fdc0b-bfab-4957-9092-df4c76c82283" d="M142.357,49.172c.0723.0678.1787.126.1728.1683-.0567.4016-.1266.8016-.2039,1.2-.1607.8273-.2636,1.059-1.2433.66-.6044-.2459-.668-.4118-.23-.8315.3829-.3668.7916-.7073,1.1974-1.0494A1.3189,1.3189,0,0,1,142.357,49.172Z"/></g></svg>