<svg xmlns="http://www.w3.org/2000/svg" width="313.4233mm" height="176.415mm" viewBox="0 0 888.4439 500.0739"><defs><style>.a,.c,.d,.e,.f,.g,.h{fill:none;}.a,.c,.d,.e,.f,.g{stroke:#fbf2ef;}.a,.c,.d,.e{stroke-linecap:round;stroke-linejoin:round;}.a{stroke-width:3px;}.b{fill:#fbf2ef;}.c,.d,.e,.g{stroke-width:2px;}.d{stroke-dasharray:2 5;}.e{stroke-dasharray:1 3;}.f,.g{stroke-miterlimit:10;}</style></defs><title>page-about-02</title><line class="a" x1="609.9576" y1="449.4383" x2="609.9576" y2="387.4094"/><polygon class="b" points="631.408 380.47 622.495 384.545 627.311 393.082 617.701 391.134 616.587 400.875 609.958 393.648 603.328 400.875 602.214 391.134 592.604 393.081 597.42 384.544 588.507 380.47 597.421 376.395 592.605 367.858 602.214 369.806 603.328 360.064 609.958 367.292 616.587 360.064 617.701 369.806 627.311 367.858 622.495 376.395 631.408 380.47"/><line class="a" x1="853.3453" y1="411.0107" x2="853.3453" y2="348.9818"/><polygon class="b" points="831.895 342.042 840.808 346.117 835.992 354.654 845.602 352.707 846.716 362.448 853.345 355.22 859.975 362.448 861.089 352.706 870.699 354.654 865.882 346.117 874.796 342.042 865.882 337.967 870.698 329.43 861.089 331.378 859.975 321.637 853.345 328.864 846.715 321.637 845.601 331.378 835.992 329.431 840.808 337.968 831.895 342.042"/><polygon class="b" points="654.333 400.783 662.843 402.294 656.848 408.519 664.622 404.737 663.424 413.298 667.49 405.667 671.556 413.298 670.358 404.737 678.133 408.519 672.137 402.294 680.647 400.783 672.137 399.272 678.133 393.047 670.358 396.829 671.556 388.268 667.49 395.899 663.424 388.268 664.622 396.829 656.847 393.047 662.843 399.272 654.333 400.783"/><line class="c" x1="609.9576" y1="425.3207" x2="620.8504" y2="414.4279"/><line class="d" x1="633.5203" y1="440.2447" x2="633.5203" y2="412.2731"/><line class="e" x1="667.4901" y1="440.2447" x2="667.4901" y2="412.2731"/><line class="d" x1="642.8241" y1="440.2447" x2="642.8241" y2="387.4094"/><line class="f" x1="813.1403" y1="435.6949" x2="813.1403" y2="199.5731"/><polygon class="b" points="794.437 194.901 803.566 198.021 798.015 205.913 807.237 203.067 807.378 212.717 813.166 204.991 818.954 212.717 819.094 203.067 828.317 205.913 822.765 198.021 831.895 194.901 822.765 191.781 828.316 183.889 819.094 186.735 818.954 177.085 813.166 184.811 807.377 177.085 807.237 186.735 798.015 183.889 803.566 191.781 794.437 194.901"/><polygon class="b" points="734.512 359.133 743.641 362.254 738.09 370.145 747.312 367.299 747.452 376.95 753.241 369.223 759.029 376.949 759.169 367.299 768.391 370.145 762.84 362.254 771.969 359.133 762.84 356.013 768.391 348.121 759.169 350.968 759.029 341.317 753.241 349.044 747.452 341.318 747.312 350.968 738.09 348.122 743.641 356.013 734.512 359.133"/><polygon class="b" points="825.093 423.795 828.408 424.928 826.392 427.794 829.742 426.76 829.793 430.265 831.895 427.459 833.997 430.265 834.047 426.76 837.397 427.794 835.381 424.928 838.696 423.795 835.381 422.661 837.397 419.795 834.047 420.829 833.996 417.324 831.895 420.13 829.792 417.325 829.742 420.829 826.392 419.796 828.408 422.661 825.093 423.795"/><polygon class="b" points="795.748 372.794 799.063 373.927 797.048 376.793 800.397 375.759 800.448 379.264 802.55 376.458 804.652 379.264 804.703 375.759 808.052 376.793 806.036 373.927 809.351 372.794 806.036 371.661 808.052 368.795 804.703 369.828 804.652 366.324 802.55 369.13 800.448 366.324 800.397 369.828 797.047 368.795 799.063 371.661 795.748 372.794"/><line class="f" x1="792.3832" y1="274.5316" x2="813.34" y2="295.4884"/><line class="g" x1="753.2406" y1="359.1335" x2="753.2406" y2="437.4549"/><path class="b" d="M888.4439,500.074h-688.78c62.8612-33.9194,113.8257-43.2055,151.1585-44.4806,18.99-.6487,39.5368.5957,117.1824,0,48.2754-.37,72.4131-.5556,84.266-1.3167,84.6312-5.4344,120.2791-33.9648,176.4318-47.4,36.8478-8.816,89.4118-12.776,159.7416,8.0113Z"/><rect class="h" width="888.4439" height="500.074" transform="translate(888.4439 500.074) rotate(-180)"/></svg>