<svg xmlns="http://www.w3.org/2000/svg" width="313.4233mm" height="176.415mm" viewBox="0 0 888.4439 500.0739"><defs><style>.a{fill:#95ac9a;}.b,.d,.e,.f,.g,.h{fill:none;stroke:#fff;}.b,.d,.e,.f{stroke-linecap:round;stroke-linejoin:round;}.b{stroke-width:3px;}.c{fill:#fff;}.d,.e,.f,.h{stroke-width:2px;}.e{stroke-dasharray:2 5;}.f{stroke-dasharray:1 3;}.g,.h{stroke-miterlimit:10;}</style></defs><title>page-about</title><rect class="a" width="888.4439" height="501.7025"/><line class="b" x1="278.4863" y1="449.4383" x2="278.4863" y2="387.4094"/><polygon class="c" points="299.937 380.47 291.023 384.545 295.839 393.082 286.23 391.134 285.116 400.875 278.486 393.648 271.857 400.875 270.743 391.134 261.133 393.081 265.949 384.544 257.036 380.47 265.949 376.395 261.133 367.858 270.743 369.806 271.857 360.064 278.486 367.292 285.116 360.064 286.23 369.806 295.84 367.858 291.023 376.395 299.937 380.47"/><line class="b" x1="35.0987" y1="411.0107" x2="35.0987" y2="348.9818"/><polygon class="c" points="56.549 342.042 47.636 346.117 52.452 354.654 42.842 352.707 41.728 362.448 35.099 355.22 28.469 362.448 27.355 352.706 17.745 354.654 22.562 346.117 13.648 342.042 22.562 337.967 17.746 329.43 27.355 331.378 28.469 321.637 35.099 328.864 41.728 321.637 42.842 331.378 52.452 329.431 47.636 337.968 56.549 342.042"/><polygon class="c" points="234.11 400.783 225.601 402.294 231.596 408.519 223.822 404.737 225.02 413.298 220.954 405.667 216.888 413.298 218.086 404.737 210.311 408.519 216.307 402.294 207.797 400.783 216.307 399.272 210.311 393.047 218.086 396.829 216.888 388.268 220.954 395.899 225.02 388.268 223.822 396.829 231.596 393.047 225.601 399.272 234.11 400.783"/><line class="d" x1="278.4863" y1="425.3207" x2="289.3792" y2="414.4279"/><line class="e" x1="254.9236" y1="440.2447" x2="254.9236" y2="412.2731"/><line class="f" x1="220.9538" y1="440.2447" x2="220.9538" y2="412.2731"/><line class="e" x1="245.6198" y1="440.2447" x2="245.6198" y2="387.4094"/><line class="g" x1="75.3036" y1="435.6949" x2="75.3036" y2="199.5731"/><polygon class="c" points="94.007 194.901 84.878 198.021 90.429 205.913 81.207 203.067 81.066 212.717 75.278 204.991 69.49 212.717 69.35 203.067 60.127 205.913 65.679 198.021 56.549 194.901 65.679 191.781 60.128 183.889 69.35 186.735 69.49 177.085 75.278 184.811 81.067 177.085 81.207 186.735 90.429 183.889 84.878 191.781 94.007 194.901"/><polygon class="c" points="153.932 359.133 144.803 362.254 150.354 370.145 141.132 367.299 140.991 376.95 135.203 369.223 129.415 376.949 129.275 367.299 120.052 370.145 125.604 362.254 116.475 359.133 125.604 356.013 120.053 348.121 129.275 350.968 129.415 341.317 135.203 349.044 140.992 341.318 141.132 350.968 150.354 348.122 144.803 356.013 153.932 359.133"/><polygon class="c" points="63.351 423.795 60.036 424.928 62.052 427.794 58.702 426.76 58.651 430.265 56.549 427.459 54.447 430.265 54.396 426.76 51.047 427.794 53.063 424.928 49.748 423.795 53.063 422.661 51.047 419.795 54.396 420.829 54.447 417.324 56.549 420.13 58.652 417.325 58.702 420.829 62.052 419.796 60.036 422.661 63.351 423.795"/><polygon class="c" points="92.696 372.794 89.38 373.927 91.396 376.793 88.047 375.759 87.996 379.264 85.894 376.458 83.792 379.264 83.741 375.759 80.392 376.793 82.408 373.927 79.093 372.794 82.408 371.661 80.392 368.795 83.741 369.828 83.792 366.324 85.894 369.13 87.996 366.324 88.047 369.828 91.396 368.795 89.38 371.661 92.696 372.794"/><line class="g" x1="96.0607" y1="274.5316" x2="75.1039" y2="295.4884"/><line class="h" x1="135.2034" y1="359.1335" x2="135.2034" y2="437.4549"/><path class="c" d="M47.22,27.0392Q91.5195,44.7055,133.9981,66.69c7.0555,3.6831,14.1068,7.38,21.0612,11.2606,6.9938,3.809,13.9009,7.78,20.8065,11.76q20.6451,12.0639,40.625,25.2958,19.96,13.2352,39.13,27.6445c12.76,9.6034,25.2379,19.5684,37.5079,29.6811,12.2646,10.1105,24.3236,20.3641,36.4721,30.1941,12.17,9.7769,24.4437,19.1508,37.3753,26.9614A199.8114,199.8114,0,0,0,386.82,240.0948a174.0178,174.0178,0,0,0,20.8584,8.0064,189.9249,189.9249,0,0,0,21.6869,5.3721,209.4022,209.4022,0,0,0,22.2448,2.7643c7.4739.5368,14.9987.5712,22.5217.4079,7.5308-.3339,15.0655-.7874,22.5842-1.7661a320.6861,320.6861,0,0,0,44.779-8.7267c29.5725-7.86,58.35-19.3062,86.2825-32.6065,27.9606-13.2954,55.0337-28.689,81.5006-45.1l.0766-.0476a15.7658,15.7658,0,0,1,16.6161,26.7983c-.1079.0669-.279.1688-.3878.2328-27.7654,16.1319-56.2192,31.255-85.7924,44.2932-29.5449,13.0354-60.1356,24.2322-91.971,31.7276a345.9894,345.9894,0,0,1-48.54,8.01c-8.1976.8215-16.4771,1.0963-24.75,1.2149-8.2892-.0515-16.5907-.3353-24.8777-1.1682a232.3218,232.3218,0,0,1-24.7176-3.8007,212.2559,212.2559,0,0,1-24.1565-6.727,195.6773,195.6773,0,0,1-23.14-9.6571,220.78,220.78,0,0,1-21.6338-12.37c-13.9064-8.9674-26.5291-19.2381-38.7154-29.612-12.1484-10.4228-23.89-21.006-35.7427-31.3608-11.8479-10.35-23.8092-20.4767-36.0489-30.2519q-18.3672-14.6458-37.5727-28.195-19.2054-13.5413-39.1932-25.9946c-6.6834-4.1106-13.3729-8.2178-20.16-12.17-6.7449-4.0227-13.5964-7.8688-20.454-11.7035q-41.2221-22.878-84.6247-41.642A4.8636,4.8636,0,0,1,47.22,27.0392Z"/><path class="c" d="M177.08,114.0636q19.6836,11.6742,38.7558,24.38a1.0808,1.0808,0,1,1-1.2,1.798l-.0291-.02q-18.58-13.2955-37.8763-25.59a.3334.3334,0,0,1,.3494-.5679Z"/><path class="c" d="M61.0034,52.9877q30.7959,13.313,60.6859,28.6591a1.0807,1.0807,0,1,1-.9869,1.923l-.0217-.0115q-29.459-15.957-59.9486-29.9614a.3335.3335,0,0,1,.2713-.6092Z"/><path class="c" d="M0,500.074H888.4439V484.5594c-110.4384-56.82-201.9975-71.6484-266.9585-74.1582-61.6062-2.38-133.1934,5.0052-263.4,18.438-116.965,12.0667-148.7511,20.3056-201.5013,2.634-33.5488-11.239-66.6117-29.9549-129.0663-42.1441C17.8858,387.4494,8.6835,385.9457,0,384.741Z"/></svg>