<svg id="f30f6af7-c020-4ddf-ad26-42c7cdc127be" data-name="Layer 1" xmlns="http://www.w3.org/2000/svg" width="300" height="300" viewBox="0 0 300 300"><defs><style>.\36 24eb1a0-625a-457b-90c6-3ed9fc0ded8f{fill:none;stroke:#daefdb;stroke-linecap:round;stroke-linejoin:round;stroke-width:57px;}</style></defs><title>carre</title><path class="624eb1a0-625a-457b-90c6-3ed9fc0ded8f" d="M38.808,73.31a59.5637,59.5637,0,0,1,41.25-30.4852c.9984,24.9364-15.9516,46.8009-33.5939,64.4523-6.6754,6.6788-14.1818,14.8185-12.5189,24.1139A289.9416,289.9416,0,0,0,113.758,61.5652c6.234-7.9075,12.71-16.62,22.3266-19.6051,3.6367,12.1289-1.5365,25.0605-7.59,36.1822a214.85,214.85,0,0,1-33.228,45.5516C83.4085,136.12,70.0729,147.1078,58.695,159.9755s-20.927,28.1464-23.1486,45.1787c6.12,3.8571,14.2183,3.3473,20.8371.4287s12.0591-7.93,17.2646-12.9525A550.1873,550.1873,0,0,0,163.414,79.6954c9.74-16.2512,19.1575-33.5909,34.6891-44.4413,4.8354,24.1368-11.0065,47.0705-25.9855,66.605L126.281,161.6356c-10.45,13.6286-20.9786,27.3828-28.397,42.872s-11.5905,33.0468-8.5855,49.956c.8611,4.8457,3.7236,10.6559,8.63,10.2634a10.09,10.09,0,0,0,5.0948-2.44c15.9134-12.1612,24.8319-31.06,34.6359-48.5252,29.0485-51.7463,72.6788-97.6751,128.63-117.4475-.0109,18.87-12.478,35.1549-24.3441,49.8266l-32.6382,40.3549c-7.6912,9.51-15.5126,19.2444-19.7482,30.7182s-4.3216,25.2045,2.8413,35.1182c2.5621,3.546,6.2566,6.6093,10.6109,7.0311,6.78.6568,12.5452-5.2283,15.2557-11.4771s3.5127-13.2332,6.5675-19.3212,9.6525-11.3721,16.2279-9.5949"/><path class="624eb1a0-625a-457b-90c6-3ed9fc0ded8f" d="M100.973,184.5621q27.0655-49.539,57.5082-96.3937c1.7455-2.6863,3.8827-5.61,6.7629-5.74,4.3979-.1974,6.768,5.9058,7.6792,10.9486a153.1918,153.1918,0,0,1-1.4468,61.1736c-6.1875,26.8166-19.5768,50.9793-24.2232,78.22-1.4294,8.38-.2493,19.9154,6.933,21.4247,4.8552,1.02,9.1805-3.6262,12.0962-8.2859,7.6636-12.2475,11.7972-26.98,15.374-41.5749,11.3605-46.3561,18.9581-95.8015,43.8063-134.26,1.9174-2.9676,4.6462-6.172,7.7454-5.35,2.8247.7492,4.2208,4.4517,4.8764,7.7556,2.7042,13.6276.0609,27.8913-3.3226,41.3092-11.837,46.9411-32.8992,91.353-36.0568,140.1585"/></svg>