<svg id="1040c1d1-d268-4212-b6e3-ca8236c20b8e" data-name="Fond" xmlns="http://www.w3.org/2000/svg" xmlns:xlink="http://www.w3.org/1999/xlink" width="320.2662" height="419.9229" viewBox="0 0 320.2662 419.9229"><defs><style>.\32 d369b05-a068-4ec2-82cb-a8029dc144ca{fill:#fcbf00;}.\39 56547b9-4471-4763-b702-2eda68c7cfd2{isolation:isolate;}.\33 7cb6185-2f97-4df5-972d-0da647f76869{fill:#d6e5e1;}.f53e9706-8ace-41fd-8100-ca23804537b4{fill:#dcede9;}.\31 5a4da74-974c-45a1-a27f-1d9950122e9b,.c2d35482-c4f3-48e7-86e2-b51a9e3ba154{fill:#ff5959;}.dcc7eff0-4b28-4f0b-bc3d-4aa5a7de8544{fill:#00b085;}.\39 e2c6b4d-96b7-4b0f-a043-0f5de815915c{fill:#007d5e;}.\31 5a4da74-974c-45a1-a27f-1d9950122e9b{stroke:#daefdb;}.\31 2bd85bf-8bca-4dd3-80c7-4f1eed3e8bea,.\31 5a4da74-974c-45a1-a27f-1d9950122e9b,.\36 f12388c-9a69-4021-a4cb-c7dc2915e566,.a3484576-b32e-4089-a0c5-bcfe310a40b5{stroke-miterlimit:10;}.\39 a3f5eeb-2b5c-4c93-b402-fc9a3f528fe7{fill:#fff;}.\38 0dc2fac-ac50-4b87-aaeb-86be702a24f1{fill:#daefdb;}.\32 1c75f9b-8a5d-453c-a52f-527e4e4a2432{fill:#345d74;}.a1b69eb8-2130-49f5-bcae-bff49da7bc36{fill:#ffd9d9;}.af760b38-1ac3-4c4a-8f54-86970cb705ec{fill:#237baf;}.ab94e9f4-601e-49e6-834e-651bf06e8f57{fill:#086ba5;}.\37 71a4177-9859-4d06-b4b8-81aed1e866d9{fill:#1c1c1b;}.ba0b48a4-f6fd-4451-bd5b-535deb7b2623{clip-path:url(#949a7759-6f5a-4833-bb18-3b6c0dce4d26);}.\31 2bd85bf-8bca-4dd3-80c7-4f1eed3e8bea,.\36 f12388c-9a69-4021-a4cb-c7dc2915e566,.a3484576-b32e-4089-a0c5-bcfe310a40b5{fill:none;stroke:#3f3f3f;stroke-width:0.25px;}.a3484576-b32e-4089-a0c5-bcfe310a40b5{stroke-dasharray:0.9953 0.9953;}.\31 add6cec-53cb-4a92-a559-9e8fd82b508f{clip-path:url(#6f66084b-9500-44a6-86bf-64d7db273985);}.\31 2bd85bf-8bca-4dd3-80c7-4f1eed3e8bea{stroke-dasharray:0.9804 0.9804;}</style><clipPath id="949a7759-6f5a-4833-bb18-3b6c0dce4d26"><ellipse class="2d369b05-a068-4ec2-82cb-a8029dc144ca" cx="301.3695" cy="298.894" rx="5.6005" ry="4.1337" transform="translate(-61.8068 79.2029) rotate(-13.5933)"/></clipPath><clipPath id="6f66084b-9500-44a6-86bf-64d7db273985"><ellipse class="2d369b05-a068-4ec2-82cb-a8029dc144ca" cx="137.4051" cy="283.5516" rx="2.5804" ry="3.496" transform="translate(-171.8323 223.1039) rotate(-53.0855)"/></clipPath></defs><title>220624-Dessins</title><g class="956547b9-4471-4763-b702-2eda68c7cfd2"><polygon class="37cb6185-2f97-4df5-972d-0da647f76869" points="225.194 163.551 224.879 274.571 184.014 250.978 183.86 139.687 225.194 163.551"/><polygon class="f53e9706-8ace-41fd-8100-ca23804537b4" points="225.194 163.551 297.187 121.714 296.872 232.734 224.879 274.571 225.194 163.551"/><polygon class="c2d35482-c4f3-48e7-86e2-b51a9e3ba154" points="183.86 139.687 252.19 95.735 297.187 121.714 225.194 163.551 183.86 139.687"/></g><polygon class="dcc7eff0-4b28-4f0b-bc3d-4aa5a7de8544" points="236.23 170.597 236.267 200.655 230.412 204.035 230.375 173.977 233.321 166.241 236.23 170.597"/><polygon class="9e2c6b4d-96b7-4b0f-a043-0f5de815915c" points="218.04 184.1 218.009 194.977 214.005 192.665 213.99 181.762 215.959 177.305 218.04 184.1"/><polygon class="9e2c6b4d-96b7-4b0f-a043-0f5de815915c" points="207.409 208.726 207.378 231.604 203.374 229.292 203.359 206.388 205.328 201.931 207.409 208.726"/><g class="956547b9-4471-4763-b702-2eda68c7cfd2"><polygon class="f53e9706-8ace-41fd-8100-ca23804537b4" points="139.782 47.492 140.357 250.168 72.096 289.578 71.522 86.902 139.782 47.492"/><polygon class="37cb6185-2f97-4df5-972d-0da647f76869" points="72.096 289.578 39.84 270.317 39.265 67.641 71.522 86.902 72.096 289.578"/><polygon class="15a4da74-974c-45a1-a27f-1d9950122e9b" points="71.522 86.902 39.265 67.641 115.737 33.518 139.782 47.492 71.522 86.902"/></g><polygon class="dcc7eff0-4b28-4f0b-bc3d-4aa5a7de8544" points="129.928 92.792 129.964 122.909 124.098 126.296 124.061 96.179 127.013 88.427 129.928 92.792"/><polygon class="dcc7eff0-4b28-4f0b-bc3d-4aa5a7de8544" points="85.514 244.418 85.55 274.536 79.684 277.923 79.647 247.805 82.599 240.054 85.514 244.418"/><polygon class="dcc7eff0-4b28-4f0b-bc3d-4aa5a7de8544" points="129.928 154.567 129.964 165.592 124.098 168.979 124.061 157.954 127.013 150.203 129.928 154.567"/><polygon class="dcc7eff0-4b28-4f0b-bc3d-4aa5a7de8544" points="106.672 163.511 106.708 174.536 100.842 177.923 100.805 166.898 103.757 159.147 106.672 163.511"/><polygon class="dcc7eff0-4b28-4f0b-bc3d-4aa5a7de8544" points="86.248 202.122 86.284 213.147 80.418 216.534 80.381 205.509 83.333 197.758 86.248 202.122"/><polygon class="dcc7eff0-4b28-4f0b-bc3d-4aa5a7de8544" points="94.01 240.564 94.047 251.589 88.18 254.976 88.144 243.951 91.095 236.199 94.01 240.564"/><polygon class="dcc7eff0-4b28-4f0b-bc3d-4aa5a7de8544" points="85.759 130.965 85.795 141.989 79.929 145.376 79.892 134.352 82.844 126.6 85.759 130.965"/><polygon class="dcc7eff0-4b28-4f0b-bc3d-4aa5a7de8544" points="106.672 190.676 106.708 210.399 100.842 213.786 100.805 194.063 106.672 190.676"/><polygon class="2d369b05-a068-4ec2-82cb-a8029dc144ca" points="270.687 334.256 270.731 347.568 263.647 351.657 263.603 338.345 267.167 328.986 270.687 334.256"/><polygon class="9e2c6b4d-96b7-4b0f-a043-0f5de815915c" points="59.053 172.957 59.023 183.855 55.011 181.539 54.996 170.614 56.969 166.149 59.053 172.957"/><polygon class="9e2c6b4d-96b7-4b0f-a043-0f5de815915c" points="60.798 248.191 60.762 275.588 56.042 272.82 56.024 245.391 58.345 240.054 60.798 248.191"/><path class="2d369b05-a068-4ec2-82cb-a8029dc144ca" d="M76.7534,351.1472l-.9608,5.997a2.2751,2.2751,0,0,1-1.0889,1.4042l-.3747.2095h-.7843l-.3747-.2095a2.2751,2.2751,0,0,1-1.0889-1.4042l-.9608-5.997.4108-.6786,5.2223-.3406Z"/><path class="c2d35482-c4f3-48e7-86e2-b51a9e3ba154" d="M76.7923,348.7359a1.4545,1.4545,0,0,0-1.1436.1624l-.7309.4475.2172-.829a1.4546,1.4546,0,0,0-.175-1.1418l-.95-1.514-1.0443,1.4507a1.4549,1.4549,0,0,0-.2471,1.1284l.1987,1.018-.895-.5242a1.4547,1.4547,0,0,0-1.1466-.14l-1.7144.5058,1.1146,1.3974a1.4546,1.4546,0,0,0,1.02.5427l.9608.0778-.7172.644a1.4544,1.4544,0,0,0-.4823,1.05l-.04,1.787,1.67-.6364a1.4543,1.4543,0,0,0,.8274-.806l.4067-.9892.489.9512a1.4547,1.4547,0,0,0,.8927.7331l1.7182.4926-.1912-1.7772a1.455,1.455,0,0,0-.57-1.005l-.6491-.49.8094-.0815a1.4545,1.4545,0,0,0,1.0088-.5626l1.087-1.419Z"/><circle class="9a3f5eeb-2b5c-4c93-b402-fc9a3f528fe7" cx="73.6613" cy="350.3479" r="0.1166"/><circle class="9a3f5eeb-2b5c-4c93-b402-fc9a3f528fe7" cx="74.2124" cy="350.352" r="0.1166"/><circle class="9a3f5eeb-2b5c-4c93-b402-fc9a3f528fe7" cx="73.9393" cy="350.911" r="0.1166"/><rect class="9a3f5eeb-2b5c-4c93-b402-fc9a3f528fe7" x="73.776" y="350.2847" width="0.0486" height="0.3685" transform="translate(-238.9888 176.0043) rotate(-48.9571)"/><rect class="9a3f5eeb-2b5c-4c93-b402-fc9a3f528fe7" x="73.8947" y="350.4466" width="0.3622" height="0.0486" transform="translate(-212.0632 134.9679) rotate(-41.0807)"/><rect class="9a3f5eeb-2b5c-4c93-b402-fc9a3f528fe7" x="73.915" y="350.5657" width="0.0486" height="0.3454"/><polygon class="dcc7eff0-4b28-4f0b-bc3d-4aa5a7de8544" points="74.255 358.953 73.745 358.953 74 354.869 74.255 358.953"/><polygon class="dcc7eff0-4b28-4f0b-bc3d-4aa5a7de8544" points="73.867 358.902 73.509 359.266 70.774 356.223 73.867 358.902"/><path class="dcc7eff0-4b28-4f0b-bc3d-4aa5a7de8544" d="M74,358.7579h-.8645l.3.5583a.4664.4664,0,0,0,.4108.2455h.307a.4662.4662,0,0,0,.4107-.2455l.3-.5583Z"/><polygon class="dcc7eff0-4b28-4f0b-bc3d-4aa5a7de8544" points="74.133 358.902 74.491 359.266 77.226 356.223 74.133 358.902"/><path class="2d369b05-a068-4ec2-82cb-a8029dc144ca" d="M83.8216,362.3882l-4.92,3.5612a2.275,2.275,0,0,1-1.7628.2229l-.4132-.1168-.5545-.5545-.1168-.4132a2.2749,2.2749,0,0,1,.2229-1.7629l3.5612-4.92.77-.1894,3.9335,3.4519Z"/><path class="c2d35482-c4f3-48e7-86e2-b51a9e3ba154" d="M85.5542,360.7107a1.4547,1.4547,0,0,0-.9235-.6938l-.8333-.2.74-.4326a1.454,1.454,0,0,0,.6836-.9312L85.62,356.71l-1.7642.2874a1.4545,1.4545,0,0,0-.9727.6231l-.5793.86-.2623-1.0035a1.4545,1.4545,0,0,0-.7118-.91l-1.57-.8545-.2,1.7762a1.4545,1.4545,0,0,0,.3372,1.1048l.6244.7344-.9625-.0518a1.4549,1.4549,0,0,0-1.0833.4011l-1.2919,1.2353,1.6311.7311a1.4543,1.4543,0,0,0,1.155.0151l.987-.4118-.3268,1.0183a1.4548,1.4548,0,0,0,.1129,1.15l.8666,1.5633,1.1214-1.3918a1.4546,1.4546,0,0,0,.308-1.1134l-.1123-.8056.63.5146a1.4547,1.4547,0,0,0,1.1112.3155l1.7719-.2347Z"/><circle class="9a3f5eeb-2b5c-4c93-b402-fc9a3f528fe7" cx="82.2004" cy="359.6366" r="0.1166"/><circle class="9a3f5eeb-2b5c-4c93-b402-fc9a3f528fe7" cx="82.5872" cy="360.0291" r="0.1166"/><circle class="9a3f5eeb-2b5c-4c93-b402-fc9a3f528fe7" cx="81.9987" cy="360.2313" r="0.1166"/><rect class="9a3f5eeb-2b5c-4c93-b402-fc9a3f528fe7" x="82.1888" y="359.6362" width="0.0486" height="0.3685" transform="translate(-24.6352 6.5314) rotate(-3.9571)"/><rect class="9a3f5eeb-2b5c-4c93-b402-fc9a3f528fe7" x="82.3822" y="359.8356" width="0.0486" height="0.3622" transform="translate(-282.4009 417.6227) rotate(-86.0807)"/><rect class="9a3f5eeb-2b5c-4c93-b402-fc9a3f528fe7" x="81.9482" y="360.0849" width="0.3454" height="0.0486" transform="translate(-230.583 163.5418) rotate(-45)"/><polygon class="dcc7eff0-4b28-4f0b-bc3d-4aa5a7de8544" points="76.536 366.141 76.175 365.78 79.243 363.073 76.536 366.141"/><polygon class="dcc7eff0-4b28-4f0b-bc3d-4aa5a7de8544" points="76.297 365.83 75.787 365.835 76.005 361.749 76.297 365.83"/><path class="dcc7eff0-4b28-4f0b-bc3d-4aa5a7de8544" d="M76.4931,365.8229l-.6113-.6113-.1825.6071a.4663.4663,0,0,0,.1169.464l.1085.1085.1086.1086a.4661.4661,0,0,0,.464.1168l.6071-.1824Z"/><polygon class="dcc7eff0-4b28-4f0b-bc3d-4aa5a7de8544" points="76.486 366.019 76.481 366.529 80.567 366.311 76.486 366.019"/><path class="dcc7eff0-4b28-4f0b-bc3d-4aa5a7de8544" d="M90.8729,398.256a16.6287,16.6287,0,0,1-6.5209-1.297c-5.8294-2.4653-8.6222-7.753-9.7681-10.6856a10.8863,10.8863,0,0,1-.7445-3.9789V359.5617a.1885.1885,0,0,1,.377,0v22.7328a10.514,10.514,0,0,0,.7185,3.8417c1.1244,2.8773,3.8619,8.0643,9.5639,10.4755a16.4337,16.4337,0,0,0,7.33,1.2419.19.19,0,0,1,.1981.1783.1885.1885,0,0,1-.1783.1982Q91.358,398.2561,90.8729,398.256Z"/><path class="2d369b05-a068-4ec2-82cb-a8029dc144ca" d="M71.0885,371.8168l-.2442,3.4652a.608.608,0,0,0,.6063.6063h.0674a.6081.6081,0,0,0,.6063-.6063l-.27-3.4652Z"/><polygon class="dcc7eff0-4b28-4f0b-bc3d-4aa5a7de8544" points="71.316 371.801 71.633 371.801 71.474 374.337 71.316 371.801"/><polygon class="dcc7eff0-4b28-4f0b-bc3d-4aa5a7de8544" points="71.603 371.789 71.911 371.714 72.352 374.217 71.603 371.789"/><polygon class="dcc7eff0-4b28-4f0b-bc3d-4aa5a7de8544" points="71.359 371.789 71.051 371.714 70.609 374.217 71.359 371.789"/><path class="dcc7eff0-4b28-4f0b-bc3d-4aa5a7de8544" d="M71.4742,371.9219h.5369l-.1864-.3468a.29.29,0,0,0-.2552-.1525h-.1906a.29.29,0,0,0-.2551.1525l-.1865.3468Z"/><path class="dcc7eff0-4b28-4f0b-bc3d-4aa5a7de8544" d="M71.4678,371.7087a.1256.1256,0,0,1-.1257-.1256v-1.4a1.3829,1.3829,0,0,1,.12-.5745,1.7856,1.7856,0,0,1,1.3729-1.072,1.7067,1.7067,0,0,1,1.1714.3209.1256.1256,0,0,1-.1457.2047,1.45,1.45,0,0,0-.9961-.276,1.5335,1.5335,0,0,0-1.1735.926,1.133,1.133,0,0,0-.0978.4709v1.4A.1256.1256,0,0,1,71.4678,371.7087Z"/><path class="dcc7eff0-4b28-4f0b-bc3d-4aa5a7de8544" d="M74.0278,371.2a.1256.1256,0,0,1-.1255-.1226,8.0166,8.0166,0,0,1,.7322-2.863,6.92,6.92,0,0,1,1.196-1.9063.1257.1257,0,0,1,.1885.1662,6.6706,6.6706,0,0,0-1.1527,1.8372,7.7776,7.7776,0,0,0-.7128,2.76.1257.1257,0,0,1-.1225.1287Z"/><path class="dcc7eff0-4b28-4f0b-bc3d-4aa5a7de8544" d="M81.3025,375.2322l-3.907,4.9722a4.0528,4.0528,0,0,1-1.1853,1.02l-2.0836,1.1834-.0114-.0114,1.1835-2.0835a4.0542,4.0542,0,0,1,1.02-1.1854l4.9723-3.907"/><path class="dcc7eff0-4b28-4f0b-bc3d-4aa5a7de8544" d="M79.7143,381.1456l-.6821,6.2867a4.0526,4.0526,0,0,1-.4654,1.4931l-1.141,2.107-.0157-.0036-.0991-2.3941a4.0537,4.0537,0,0,1,.2379-1.5458l2.15-5.9469"/><path class="dcc7eff0-4b28-4f0b-bc3d-4aa5a7de8544" d="M67.5306,388.7491l5.9469,2.15a4.0557,4.0557,0,0,0,1.5458.238l2.3941-.0991.0036-.0157-2.107-1.1411a4.0526,4.0526,0,0,0-1.4931-.4654l-6.2867-.6821"/><path class="dcc7eff0-4b28-4f0b-bc3d-4aa5a7de8544" d="M66.8406,375.2322l3.907,4.9722a4.0545,4.0545,0,0,0,1.1854,1.02l2.0835,1.1834.0114-.0114-1.1834-2.0835a4.056,4.056,0,0,0-1.02-1.1854l-4.9722-3.907"/><path class="dcc7eff0-4b28-4f0b-bc3d-4aa5a7de8544" d="M76.2407,359.2044l-1.1388,1.4493a1.1807,1.1807,0,0,1-.3455.2973l-.6073.345-.0033-.0033.3449-.6073a1.1812,1.1812,0,0,1,.2974-.3455l1.4493-1.1388"/><path class="dcc7eff0-4b28-4f0b-bc3d-4aa5a7de8544" d="M72.0254,359.2044l1.1388,1.4493a1.1807,1.1807,0,0,0,.3455.2973l.6073.345.0033-.0033-.3449-.6073a1.1812,1.1812,0,0,0-.2974-.3455l-1.4493-1.1388"/><path class="2d369b05-a068-4ec2-82cb-a8029dc144ca" d="M222.7609,345.43l-1.0774,6.7248a2.5505,2.5505,0,0,1-1.2211,1.5745l-.42.235h-.8794l-.42-.235a2.5505,2.5505,0,0,1-1.2211-1.5745l-1.0774-6.7248.4606-.761,5.8561-.3819Z"/><path class="c2d35482-c4f3-48e7-86e2-b51a9e3ba154" d="M222.8046,342.7264a1.6313,1.6313,0,0,0-1.2825.1821l-.82.5018.2436-.93a1.631,1.631,0,0,0-.1963-1.28l-1.0654-1.6977-1.171,1.6267a1.6306,1.6306,0,0,0-.2771,1.2653l.2228,1.1416-1.0037-.5878a1.6311,1.6311,0,0,0-1.2857-.1569l-1.9225.5672,1.25,1.5669a1.6311,1.6311,0,0,0,1.1435.6086l1.0773.0873-.8042.7221a1.6312,1.6312,0,0,0-.5409,1.177l-.0449,2.0039,1.8731-.7136a1.6316,1.6316,0,0,0,.9278-.9039l.456-1.1092.5484,1.0666a1.6311,1.6311,0,0,0,1.001.8221l1.9267.5524-.2144-1.9929a1.631,1.631,0,0,0-.6386-1.1269l-.7279-.55.9076-.0915a1.6313,1.6313,0,0,0,1.1313-.6309l1.2189-1.5911Z"/><circle class="9a3f5eeb-2b5c-4c93-b402-fc9a3f528fe7" cx="219.2936" cy="344.534" r="0.1308"/><circle class="9a3f5eeb-2b5c-4c93-b402-fc9a3f528fe7" cx="219.9115" cy="344.5385" r="0.1308"/><circle class="9a3f5eeb-2b5c-4c93-b402-fc9a3f528fe7" cx="219.6053" cy="345.1655" r="0.1308"/><rect class="9a3f5eeb-2b5c-4c93-b402-fc9a3f528fe7" x="219.4222" y="344.4631" width="0.0545" height="0.4132" transform="translate(-184.6025 283.8643) rotate(-48.9571)"/><rect class="9a3f5eeb-2b5c-4c93-b402-fc9a3f528fe7" x="219.5553" y="344.6447" width="0.4062" height="0.0545" transform="translate(-172.3834 229.2712) rotate(-41.0807)"/><rect class="9a3f5eeb-2b5c-4c93-b402-fc9a3f528fe7" x="219.578" y="344.7782" width="0.0545" height="0.3873"/><polygon class="dcc7eff0-4b28-4f0b-bc3d-4aa5a7de8544" points="219.96 354.183 219.387 354.183 219.673 349.604 219.96 354.183"/><polygon class="dcc7eff0-4b28-4f0b-bc3d-4aa5a7de8544" points="219.524 354.126 219.123 354.534 216.056 351.122 219.524 354.126"/><path class="dcc7eff0-4b28-4f0b-bc3d-4aa5a7de8544" d="M219.6734,353.9646h-.9694l.3366.6261a.5231.5231,0,0,0,.4606.2753h.3443a.5231.5231,0,0,0,.4606-.2753l.3366-.6261Z"/><polygon class="dcc7eff0-4b28-4f0b-bc3d-4aa5a7de8544" points="219.823 354.126 220.224 354.534 223.291 351.122 219.823 354.126"/><path class="2d369b05-a068-4ec2-82cb-a8029dc144ca" d="M230.6869,358.0354l-5.517,3.9934a2.5512,2.5512,0,0,1-1.9768.25l-.4633-.1309-.6218-.6219-.1309-.4632a2.5512,2.5512,0,0,1,.25-1.9768l3.9934-5.517.8637-.2124,4.4109,3.8708Z"/><path class="c2d35482-c4f3-48e7-86e2-b51a9e3ba154" d="M232.63,356.1544a1.631,1.631,0,0,0-1.0357-.7781l-.9343-.2247.83-.4851a1.6311,1.6311,0,0,0,.7665-1.0441l.4471-1.9539-1.9783.3223a1.63,1.63,0,0,0-1.0906.6987l-.65.9648-.2941-1.1253a1.63,1.63,0,0,0-.7982-1.02l-1.7605-.9583-.2241,1.9918a1.6309,1.6309,0,0,0,.3782,1.2389l.7.8234-1.0793-.058a1.6309,1.6309,0,0,0-1.2147.45l-1.4487,1.3852,1.829.82a1.6309,1.6309,0,0,0,1.2952.0169l1.1068-.4618-.3664,1.1419a1.6312,1.6312,0,0,0,.1265,1.2892l.9718,1.753,1.2575-1.5608a1.6308,1.6308,0,0,0,.3453-1.2484l-.1259-.9035.7064.5771a1.6311,1.6311,0,0,0,1.2461.3538l1.987-.2632Z"/><circle class="9a3f5eeb-2b5c-4c93-b402-fc9a3f528fe7" cx="228.8689" cy="354.9499" r="0.1308"/><circle class="9a3f5eeb-2b5c-4c93-b402-fc9a3f528fe7" cx="229.3026" cy="355.3901" r="0.1308"/><circle class="9a3f5eeb-2b5c-4c93-b402-fc9a3f528fe7" cx="228.6428" cy="355.6168" r="0.1308"/><rect class="9a3f5eeb-2b5c-4c93-b402-fc9a3f528fe7" x="228.8559" y="354.9495" width="0.0545" height="0.4132" transform="translate(-23.9637 16.6419) rotate(-3.9571)"/><rect class="9a3f5eeb-2b5c-4c93-b402-fc9a3f528fe7" x="229.0728" y="355.1731" width="0.0545" height="0.4062" transform="translate(-141.1044 559.6498) rotate(-86.0807)"/><rect class="9a3f5eeb-2b5c-4c93-b402-fc9a3f528fe7" x="228.5861" y="355.4527" width="0.3873" height="0.0545" transform="translate(-184.3542 265.8894) rotate(-45)"/><polygon class="dcc7eff0-4b28-4f0b-bc3d-4aa5a7de8544" points="222.517 362.244 222.112 361.839 225.553 358.803 222.517 362.244"/><polygon class="dcc7eff0-4b28-4f0b-bc3d-4aa5a7de8544" points="222.25 361.895 221.677 361.901 221.921 357.319 222.25 361.895"/><path class="dcc7eff0-4b28-4f0b-bc3d-4aa5a7de8544" d="M222.469,361.8869l-.6855-.6854-.2046.6807a.5229.5229,0,0,0,.131.52l.1218.1218.1217.1217a.523.523,0,0,0,.52.131l.6808-.2046Z"/><polygon class="dcc7eff0-4b28-4f0b-bc3d-4aa5a7de8544" points="222.461 362.106 222.455 362.679 227.037 362.435 222.461 362.106"/><path class="dcc7eff0-4b28-4f0b-bc3d-4aa5a7de8544" d="M238.5939,398.256a18.647,18.647,0,0,1-7.3123-1.4544c-6.5368-2.7644-9.6685-8.6938-10.9535-11.9824a12.2064,12.2064,0,0,1-.8348-4.4618V354.866a.2114.2114,0,1,1,.4227,0v25.4914a11.7888,11.7888,0,0,0,.8057,4.308c1.2608,3.2265,4.3306,9.0429,10.7246,11.7468a18.428,18.428,0,0,0,8.2194,1.3926.2136.2136,0,0,1,.2223.2.2115.2115,0,0,1-.2.2223Q239.1378,398.2561,238.5939,398.256Z"/><path class="2d369b05-a068-4ec2-82cb-a8029dc144ca" d="M216.4085,368.6082l-.2738,3.8858a.6819.6819,0,0,0,.68.68h.0755a.6819.6819,0,0,0,.68-.68l-.3022-3.8858Z"/><polygon class="dcc7eff0-4b28-4f0b-bc3d-4aa5a7de8544" points="216.663 368.59 217.019 368.59 216.841 371.435 216.663 368.59"/><polygon class="dcc7eff0-4b28-4f0b-bc3d-4aa5a7de8544" points="216.985 368.577 217.331 368.493 217.826 371.3 216.985 368.577"/><polygon class="dcc7eff0-4b28-4f0b-bc3d-4aa5a7de8544" points="216.712 368.577 216.366 368.493 215.871 371.3 216.712 368.577"/><path class="dcc7eff0-4b28-4f0b-bc3d-4aa5a7de8544" d="M216.841,368.7261h.6021l-.2091-.3889a.3248.3248,0,0,0-.286-.171h-.2139a.3248.3248,0,0,0-.286.171l-.2091.3889Z"/><path class="dcc7eff0-4b28-4f0b-bc3d-4aa5a7de8544" d="M216.8338,368.4871a.1409.1409,0,0,1-.1409-.1409v-1.57a1.5507,1.5507,0,0,1,.1347-.6442,2.0018,2.0018,0,0,1,1.54-1.202,1.9133,1.9133,0,0,1,1.3135.36.1408.1408,0,1,1-.1633.2295,1.6263,1.6263,0,0,0-1.117-.31,1.72,1.72,0,0,0-1.316,1.0383,1.2724,1.2724,0,0,0-.11.5281v1.57A.1408.1408,0,0,1,216.8338,368.4871Z"/><path class="dcc7eff0-4b28-4f0b-bc3d-4aa5a7de8544" d="M219.7046,367.9166a.1408.1408,0,0,1-.1408-.1374,8.9892,8.9892,0,0,1,.821-3.2106,7.7639,7.7639,0,0,1,1.3412-2.1375.1409.1409,0,1,1,.2113.1863,7.48,7.48,0,0,0-1.2925,2.06,8.7226,8.7226,0,0,0-.7993,3.0947.1409.1409,0,0,1-.1374.1443Z"/><path class="dcc7eff0-4b28-4f0b-bc3d-4aa5a7de8544" d="M227.8621,372.4382l-4.3811,5.5756a4.5443,4.5443,0,0,1-1.3293,1.144l-2.3363,1.3271-.0128-.0128,1.327-2.3363a4.5461,4.5461,0,0,1,1.1441-1.3293l5.5756-4.3811"/><path class="dcc7eff0-4b28-4f0b-bc3d-4aa5a7de8544" d="M226.0812,379.0692l-.7649,7.05a4.5454,4.5454,0,0,1-.522,1.6743l-1.2794,2.3627-.0176-.0041-.1112-2.6846a4.5466,4.5466,0,0,1,.2669-1.7334l2.4106-6.6686"/><path class="dcc7eff0-4b28-4f0b-bc3d-4aa5a7de8544" d="M212.4188,387.5954l6.6687,2.4105a4.5444,4.5444,0,0,0,1.7334.2669l2.6846-.1111.0041-.0176-2.3628-1.2795a4.5467,4.5467,0,0,0-1.6743-.522l-7.05-.7648"/><path class="dcc7eff0-4b28-4f0b-bc3d-4aa5a7de8544" d="M211.6451,372.4382l4.3812,5.5756a4.5452,4.5452,0,0,0,1.3292,1.144l2.3364,1.3271.0128-.0128-1.3271-2.3363a4.5461,4.5461,0,0,0-1.1441-1.3293l-5.5756-4.3811"/><path class="dcc7eff0-4b28-4f0b-bc3d-4aa5a7de8544" d="M222.186,354.4653l-1.277,1.6251a1.3261,1.3261,0,0,1-.3874.3335l-.681.3868-.0038-.0037.3868-.681a1.3267,1.3267,0,0,1,.3335-.3875l1.6252-1.277"/><path class="dcc7eff0-4b28-4f0b-bc3d-4aa5a7de8544" d="M217.4592,354.4653l1.2769,1.6251a1.3252,1.3252,0,0,0,.3875.3335l.681.3868.0037-.0037-.3868-.681a1.3252,1.3252,0,0,0-.3335-.3875l-1.6251-1.277"/><path class="2d369b05-a068-4ec2-82cb-a8029dc144ca" d="M49.8916,321.757l-.423,6.0022a1.0533,1.0533,0,0,0,1.05,1.05h.1166a1.0532,1.0532,0,0,0,1.05-1.05l-.4667-6.0022Z"/><polygon class="dcc7eff0-4b28-4f0b-bc3d-4aa5a7de8544" points="50.285 321.729 50.834 321.729 50.56 326.123 50.285 321.729"/><polygon class="dcc7eff0-4b28-4f0b-bc3d-4aa5a7de8544" points="50.782 321.708 51.316 321.579 52.081 325.915 50.782 321.708"/><polygon class="dcc7eff0-4b28-4f0b-bc3d-4aa5a7de8544" points="50.36 321.708 49.826 321.579 49.061 325.915 50.36 321.708"/><path class="dcc7eff0-4b28-4f0b-bc3d-4aa5a7de8544" d="M50.56,321.939h.93l-.323-.6006a.5019.5019,0,0,0-.4419-.2641h-.33a.5019.5019,0,0,0-.4419.2641l-.323.6006Z"/><path class="dcc7eff0-4b28-4f0b-bc3d-4aa5a7de8544" d="M50.5487,321.57a.2176.2176,0,0,1-.2177-.2176v-2.4243a2.3971,2.3971,0,0,1,.2079-.9952,3.0925,3.0925,0,0,1,2.3781-1.8568,2.9568,2.9568,0,0,1,2.0289.5557.2176.2176,0,1,1-.2521.3547,2.5225,2.5225,0,0,0-1.7254-.4781,2.6562,2.6562,0,0,0-2.0329,1.6038,1.9665,1.9665,0,0,0-.1692.8159v2.4243A.2175.2175,0,0,1,50.5487,321.57Z"/><path class="dcc7eff0-4b28-4f0b-bc3d-4aa5a7de8544" d="M67.2969,357.814,60.53,366.4264a7.0211,7.0211,0,0,1-2.0532,1.7672l-3.6089,2.05-.02-.02,2.05-3.6088a7.0221,7.0221,0,0,1,1.7673-2.0533l8.6124-6.7673"/><path class="dcc7eff0-4b28-4f0b-bc3d-4aa5a7de8544" d="M42.2472,357.814l6.7674,8.6124a7.0211,7.0211,0,0,0,2.0532,1.7672l3.6089,2.05.02-.02-2.05-3.6088a7.0206,7.0206,0,0,0-1.7673-2.0533l-8.6124-6.7673"/><path class="dcc7eff0-4b28-4f0b-bc3d-4aa5a7de8544" d="M67.2969,338.2975,60.53,346.91a7.023,7.023,0,0,1-2.0532,1.7673l-3.6089,2.05-.02-.02,2.05-3.6089a7.023,7.023,0,0,1,1.7673-2.0532l8.6124-6.7674"/><path class="dcc7eff0-4b28-4f0b-bc3d-4aa5a7de8544" d="M42.2472,338.2975l6.7674,8.6124a7.023,7.023,0,0,0,2.0532,1.7673l3.6089,2.05.02-.02-2.05-3.6089a7.0215,7.0215,0,0,0-1.7673-2.0532l-8.6124-6.7674"/><path class="2d369b05-a068-4ec2-82cb-a8029dc144ca" d="M59.6187,294.0271l-1.6641,10.3875a3.94,3.94,0,0,1-1.8862,2.4322l-.649.363H54.061l-.649-.363a3.94,3.94,0,0,1-1.8862-2.4322l-1.6641-10.3875.7115-1.1755,9.0455-.59Z"/><path class="c2d35482-c4f3-48e7-86e2-b51a9e3ba154" d="M59.6863,289.8505a2.5194,2.5194,0,0,0-1.981.2813l-1.266.7752.3762-1.436a2.52,2.52,0,0,0-.3031-1.9778l-1.6458-2.6224-1.8088,2.5127a2.52,2.52,0,0,0-.428,1.9545l.3441,1.7633-1.55-.9078a2.5194,2.5194,0,0,0-1.9861-.2424l-2.97.8762,1.9307,2.42a2.5192,2.5192,0,0,0,1.7662.94l1.6641.1347-1.2422,1.1155a2.52,2.52,0,0,0-.8355,1.818l-.0694,3.0953,2.8932-1.1022a2.52,2.52,0,0,0,1.4332-1.3963l.7044-1.7132.847,1.6474a2.52,2.52,0,0,0,1.5462,1.27l2.9762.8533-.3312-3.0783a2.52,2.52,0,0,0-.9864-1.7408l-1.1243-.8492,1.4019-.1413a2.5194,2.5194,0,0,0,1.7474-.9745l1.8828-2.4578Z"/><circle class="9a3f5eeb-2b5c-4c93-b402-fc9a3f528fe7" cx="54.263" cy="292.6427" r="0.202"/><circle class="9a3f5eeb-2b5c-4c93-b402-fc9a3f528fe7" cx="55.2174" cy="292.6497" r="0.202"/><circle class="9a3f5eeb-2b5c-4c93-b402-fc9a3f528fe7" cx="54.7444" cy="293.6181" r="0.202"/><rect class="9a3f5eeb-2b5c-4c93-b402-fc9a3f528fe7" x="54.4616" y="292.5331" width="0.0842" height="0.6383" transform="translate(-202.1593 141.6663) rotate(-48.9571)"/><rect class="9a3f5eeb-2b5c-4c93-b402-fc9a3f528fe7" x="54.6672" y="292.8136" width="0.6274" height="0.0842" transform="translate(-178.9045 108.2346) rotate(-41.0807)"/><rect class="9a3f5eeb-2b5c-4c93-b402-fc9a3f528fe7" x="54.7023" y="293.0198" width="0.0842" height="0.5982"/><polygon class="dcc7eff0-4b28-4f0b-bc3d-4aa5a7de8544" points="55.292 307.547 54.407 307.547 54.85 300.473 55.292 307.547"/><polygon class="dcc7eff0-4b28-4f0b-bc3d-4aa5a7de8544" points="54.619 307.459 54 308.09 49.262 302.818 54.619 307.459"/><path class="dcc7eff0-4b28-4f0b-bc3d-4aa5a7de8544" d="M54.85,307.21H53.3522l.52.967a.8079.8079,0,0,0,.7115.4252h.5318a.8077.8077,0,0,0,.7114-.4252l.52-.967Z"/><polygon class="dcc7eff0-4b28-4f0b-bc3d-4aa5a7de8544" points="55.08 307.459 55.7 308.09 60.438 302.818 55.08 307.459"/><path class="dcc7eff0-4b28-4f0b-bc3d-4aa5a7de8544" d="M58.473,307.9831l-1.9725,2.51a2.0459,2.0459,0,0,1-.5984.5151l-1.0519.5975-.0058-.0058.5975-1.0519a2.0459,2.0459,0,0,1,.5151-.5984l2.51-1.9726"/><path class="dcc7eff0-4b28-4f0b-bc3d-4aa5a7de8544" d="M51.1717,307.9831l1.9725,2.51a2.0476,2.0476,0,0,0,.5985.5151l1.0519.5975L54.8,311.6l-.5974-1.0519a2.0474,2.0474,0,0,0-.5151-.5984l-2.51-1.9726"/><path class="dcc7eff0-4b28-4f0b-bc3d-4aa5a7de8544" d="M54.85,397.6934a.3267.3267,0,0,1-.3265-.3265V308.602a.3265.3265,0,0,1,.653,0v88.7649A.3267.3267,0,0,1,54.85,397.6934Z"/><path class="2d369b05-a068-4ec2-82cb-a8029dc144ca" d="M96.9029,348.1069l.2845,4.0364a.7083.7083,0,0,1-.7063.7063h-.0784a.7083.7083,0,0,1-.7063-.7063l.3139-4.0364Z"/><polygon class="dcc7eff0-4b28-4f0b-bc3d-4aa5a7de8544" points="96.638 348.088 96.269 348.088 96.454 351.043 96.638 348.088"/><polygon class="dcc7eff0-4b28-4f0b-bc3d-4aa5a7de8544" points="96.304 348.074 95.945 347.987 95.431 350.903 96.304 348.074"/><polygon class="dcc7eff0-4b28-4f0b-bc3d-4aa5a7de8544" points="96.588 348.074 96.947 347.987 97.462 350.903 96.588 348.074"/><path class="dcc7eff0-4b28-4f0b-bc3d-4aa5a7de8544" d="M96.4536,348.2293h-.6254l.2172-.4039a.3374.3374,0,0,1,.2972-.1776h.2221a.3375.3375,0,0,1,.2972.1776l.2172.4039Z"/><path class="dcc7eff0-4b28-4f0b-bc3d-4aa5a7de8544" d="M96.4611,347.981a.1463.1463,0,0,0,.1464-.1464v-1.63a1.6131,1.6131,0,0,0-.14-.6693,2.08,2.08,0,0,0-1.5993-1.2486,1.9878,1.9878,0,0,0-1.3644.3737.1463.1463,0,1,0,.1695.2385,1.6972,1.6972,0,0,1,1.16-.3215,1.7862,1.7862,0,0,1,1.3672,1.0786,1.3224,1.3224,0,0,1,.1137.5486v1.63A.1463.1463,0,0,0,96.4611,347.981Z"/><path class="dcc7eff0-4b28-4f0b-bc3d-4aa5a7de8544" d="M85.198,372.3549l4.551,5.7918a4.7227,4.7227,0,0,0,1.3808,1.1885l2.427,1.3785L93.57,380.7l-1.3785-2.4269a4.72,4.72,0,0,0-1.1884-1.3808l-5.7918-4.551"/><path class="dcc7eff0-4b28-4f0b-bc3d-4aa5a7de8544" d="M102.0438,372.3549l-4.551,5.7918a4.7227,4.7227,0,0,1-1.3808,1.1885l-2.427,1.3785-.0132-.0133,1.3785-2.4269a4.72,4.72,0,0,1,1.1884-1.3808l5.7918-4.551"/><path class="dcc7eff0-4b28-4f0b-bc3d-4aa5a7de8544" d="M85.198,359.23l4.551,5.7917a4.7227,4.7227,0,0,0,1.3808,1.1885l2.427,1.3785.0132-.0133-1.3785-2.4269a4.7211,4.7211,0,0,0-1.1884-1.3808l-5.7918-4.551"/><path class="dcc7eff0-4b28-4f0b-bc3d-4aa5a7de8544" d="M102.0438,359.23l-4.551,5.7917a4.7227,4.7227,0,0,1-1.3808,1.1885l-2.427,1.3785-.0132-.0133,1.3785-2.4269a4.7211,4.7211,0,0,1,1.1884-1.3808l5.7918-4.551"/><path class="2d369b05-a068-4ec2-82cb-a8029dc144ca" d="M90.3615,329.4587l1.1192,6.9855a2.65,2.65,0,0,0,1.2684,1.6356l.4365.2442h.9135l.4364-.2442a2.65,2.65,0,0,0,1.2685-1.6356l1.1191-6.9855-.4785-.7905-6.0831-.3967Z"/><path class="80dc2fac-ac50-4b87-aaeb-86be702a24f1" d="M90.3161,326.65a1.6942,1.6942,0,0,1,1.3322.1891l.8514.5213-.253-.9657a1.6942,1.6942,0,0,1,.2038-1.33l1.1068-1.7635,1.2164,1.69a1.6943,1.6943,0,0,1,.2879,1.3144l-.2315,1.1858,1.0426-.6105a1.6943,1.6943,0,0,1,1.3356-.163l1.997.5892-1.2984,1.6277a1.6941,1.6941,0,0,1-1.1878.6322l-1.1191.0906.8354.75a1.6939,1.6939,0,0,1,.5618,1.2226l.0467,2.0815-1.9457-.7412a1.6942,1.6942,0,0,1-.9637-.939l-.4738-1.1521-.57,1.1079a1.6939,1.6939,0,0,1-1.04.8539l-2.0014.5739.2227-2.07a1.6942,1.6942,0,0,1,.6634-1.1707l.756-.5711-.9427-.095a1.6946,1.6946,0,0,1-1.1752-.6554L88.308,327.2Z"/><circle class="9a3f5eeb-2b5c-4c93-b402-fc9a3f528fe7" cx="93.9632" cy="328.5277" r="0.1358"/><circle class="9a3f5eeb-2b5c-4c93-b402-fc9a3f528fe7" cx="93.3214" cy="328.5324" r="0.1358"/><circle class="9a3f5eeb-2b5c-4c93-b402-fc9a3f528fe7" cx="93.6395" cy="329.1836" r="0.1358"/><rect class="9a3f5eeb-2b5c-4c93-b402-fc9a3f528fe7" x="93.5867" y="328.6403" width="0.4293" height="0.0566" transform="translate(-192.7569 142.3729) rotate(-41.0429)"/><rect class="9a3f5eeb-2b5c-4c93-b402-fc9a3f528fe7" x="93.4521" y="328.46" width="0.0566" height="0.4219" transform="translate(-215.6948 183.1585) rotate(-48.9193)"/><rect class="9a3f5eeb-2b5c-4c93-b402-fc9a3f528fe7" x="93.6112" y="328.7813" width="0.0566" height="0.4023"/><polygon class="dcc7eff0-4b28-4f0b-bc3d-4aa5a7de8544" points="93.271 338.551 93.866 338.551 93.569 333.794 93.271 338.551"/><polygon class="dcc7eff0-4b28-4f0b-bc3d-4aa5a7de8544" points="93.724 338.491 94.14 338.916 97.327 335.371 93.724 338.491"/><path class="dcc7eff0-4b28-4f0b-bc3d-4aa5a7de8544" d="M93.5688,338.324h1.0069l-.35.65a.5432.5432,0,0,1-.4784.2859H93.39a.5432.5432,0,0,1-.4784-.2859l-.35-.65Z"/><polygon class="dcc7eff0-4b28-4f0b-bc3d-4aa5a7de8544" points="93.414 338.491 92.997 338.916 89.811 335.371 93.414 338.491"/><path class="dcc7eff0-4b28-4f0b-bc3d-4aa5a7de8544" d="M91.132,338.844l1.3265,1.6882a1.3768,1.3768,0,0,0,.4025.3464l.7074.4018.0038-.0039-.4018-.7074a1.3754,1.3754,0,0,0-.3464-.4025L91.1359,338.84"/><path class="dcc7eff0-4b28-4f0b-bc3d-4aa5a7de8544" d="M96.0421,338.844l-1.3265,1.6882a1.3768,1.3768,0,0,1-.4025.3464l-.7074.4018-.0038-.0039.4018-.7074a1.3754,1.3754,0,0,1,.3464-.4025l1.6881-1.3265"/><path class="dcc7eff0-4b28-4f0b-bc3d-4aa5a7de8544" d="M93.5688,399.1736a.22.22,0,0,0,.22-.22V339.26a.22.22,0,0,0-.4391,0V398.954A.22.22,0,0,0,93.5688,399.1736Z"/><path class="2d369b05-a068-4ec2-82cb-a8029dc144ca" d="M206.9012,366.3005l.1831,2.5984a.4559.4559,0,0,1-.4546.4546h-.0505a.4559.4559,0,0,1-.4547-.4546l.2021-2.5984Z"/><polygon class="dcc7eff0-4b28-4f0b-bc3d-4aa5a7de8544" points="206.731 366.289 206.493 366.289 206.612 368.191 206.731 366.289"/><polygon class="dcc7eff0-4b28-4f0b-bc3d-4aa5a7de8544" points="206.516 366.279 206.285 366.224 205.953 368.1 206.516 366.279"/><polygon class="dcc7eff0-4b28-4f0b-bc3d-4aa5a7de8544" points="206.699 366.279 206.93 366.224 207.261 368.1 206.699 366.279"/><path class="dcc7eff0-4b28-4f0b-bc3d-4aa5a7de8544" d="M206.612,366.3793h-.4026l.14-.26a.2172.2172,0,0,1,.1913-.1143h.143a.2173.2173,0,0,1,.1913.1143l.14.26Z"/><path class="dcc7eff0-4b28-4f0b-bc3d-4aa5a7de8544" d="M206.6168,366.22a.0942.0942,0,0,0,.0942-.0942v-1.0495a1.0374,1.0374,0,0,0-.09-.4308,1.3386,1.3386,0,0,0-1.03-.8038,1.28,1.28,0,0,0-.8783.24.0942.0942,0,1,0,.1091.1536,1.0922,1.0922,0,0,1,.747-.207,1.15,1.15,0,0,1,.88.6943.8508.8508,0,0,1,.0733.3532v1.0495A.0942.0942,0,0,0,206.6168,366.22Z"/><path class="dcc7eff0-4b28-4f0b-bc3d-4aa5a7de8544" d="M199.3664,381.91l2.93,3.7283a3.039,3.039,0,0,0,.8889.7651l1.5623.8873.0085-.0085-.8874-1.5623a3.04,3.04,0,0,0-.765-.8888l-3.7283-2.93"/><path class="dcc7eff0-4b28-4f0b-bc3d-4aa5a7de8544" d="M210.2105,381.91l-2.93,3.7283a3.039,3.039,0,0,1-.8889.7651l-1.5622.8873-.0086-.0085.8874-1.5623a3.04,3.04,0,0,1,.765-.8888l3.7284-2.93"/><path class="dcc7eff0-4b28-4f0b-bc3d-4aa5a7de8544" d="M199.3664,373.461l2.93,3.7283a3.0386,3.0386,0,0,0,.8889.765l1.5623.8874.0085-.0085-.8874-1.5623a3.0386,3.0386,0,0,0-.765-.8889l-3.7283-2.93"/><path class="dcc7eff0-4b28-4f0b-bc3d-4aa5a7de8544" d="M210.2105,373.461l-2.93,3.7283a3.0386,3.0386,0,0,1-.8889.765l-1.5622.8874-.0086-.0085.8874-1.5623a3.0386,3.0386,0,0,1,.765-.8889l3.7284-2.93"/><path class="2d369b05-a068-4ec2-82cb-a8029dc144ca" d="M202.69,354.2962l.72,4.4968a1.7061,1.7061,0,0,0,.8166,1.0529l.2809.1571h.5881l.2809-.1571a1.7061,1.7061,0,0,0,.8166-1.0529l.72-4.4968-.308-.5089-3.9159-.2553Z"/><path class="c2d35482-c4f3-48e7-86e2-b51a9e3ba154" d="M202.6611,352.4881a1.0907,1.0907,0,0,1,.8575.1218l.5481.3356-.1629-.6217a1.09,1.09,0,0,1,.1313-.8561l.7124-1.1353.7831,1.0878a1.09,1.09,0,0,1,.1852.8461l-.1489.7633.6711-.393a1.0905,1.0905,0,0,1,.86-.1049l1.2855.3793-.8358,1.0478a1.091,1.091,0,0,1-.7646.4069l-.72.0583.5377.4829a1.09,1.09,0,0,1,.3617.7871l.03,1.34-1.2524-.4771a1.0906,1.0906,0,0,1-.62-.6045l-.305-.7417-.3667.7132a1.0905,1.0905,0,0,1-.6693.55l-1.2884.3694.1434-1.3326a1.09,1.09,0,0,1,.427-.7536l.4867-.3677-.6069-.0611a1.0906,1.0906,0,0,1-.7564-.4219l-.8151-1.064Z"/><circle class="9a3f5eeb-2b5c-4c93-b402-fc9a3f528fe7" cx="205.0088" cy="353.6969" r="0.0874"/><circle class="9a3f5eeb-2b5c-4c93-b402-fc9a3f528fe7" cx="204.5957" cy="353.6999" r="0.0874"/><circle class="9a3f5eeb-2b5c-4c93-b402-fc9a3f528fe7" cx="204.8004" cy="354.1191" r="0.0874"/><rect class="9a3f5eeb-2b5c-4c93-b402-fc9a3f528fe7" x="204.7665" y="353.7694" width="0.2763" height="0.0364" transform="matrix(0.7542, -0.6566, 0.6566, 0.7542, -181.9435, 221.4997)"/><rect class="9a3f5eeb-2b5c-4c93-b402-fc9a3f528fe7" x="204.6798" y="353.6533" width="0.0365" height="0.2716" transform="translate(-196.4943 275.6052) rotate(-48.9193)"/><rect class="9a3f5eeb-2b5c-4c93-b402-fc9a3f528fe7" x="204.7822" y="353.8601" width="0.0365" height="0.259"/><polygon class="dcc7eff0-4b28-4f0b-bc3d-4aa5a7de8544" points="204.564 360.149 204.946 360.149 204.755 357.087 204.564 360.149"/><polygon class="dcc7eff0-4b28-4f0b-bc3d-4aa5a7de8544" points="204.855 360.111 205.123 360.384 207.174 358.102 204.855 360.111"/><path class="dcc7eff0-4b28-4f0b-bc3d-4aa5a7de8544" d="M204.7549,360.003h.6482l-.2251.4186a.35.35,0,0,1-.308.1841h-.23a.35.35,0,0,1-.308-.1841l-.2251-.4186Z"/><polygon class="dcc7eff0-4b28-4f0b-bc3d-4aa5a7de8544" points="204.655 360.111 204.387 360.384 202.336 358.102 204.655 360.111"/><path class="dcc7eff0-4b28-4f0b-bc3d-4aa5a7de8544" d="M203.1863,360.3378l.8539,1.0867a.8873.8873,0,0,0,.2591.223l.4553.2586.0025-.0025-.2586-.4553a.8873.8873,0,0,0-.223-.2591l-1.0867-.8539"/><path class="dcc7eff0-4b28-4f0b-bc3d-4aa5a7de8544" d="M206.3471,360.3378l-.854,1.0867a.8856.8856,0,0,1-.259.223l-.4554.2586-.0025-.0025.2587-.4553a.8858.8858,0,0,1,.223-.2591l1.0867-.8539"/><path class="dcc7eff0-4b28-4f0b-bc3d-4aa5a7de8544" d="M204.7549,399.1736a.1414.1414,0,0,0,.1413-.1414V360.6057a.1413.1413,0,0,0-.2826,0v38.4265A.1414.1414,0,0,0,204.7549,399.1736Z"/><path class="2d369b05-a068-4ec2-82cb-a8029dc144ca" d="M147.04,371.84,147.1921,374a.3791.3791,0,0,1-.3781.378h-.042a.3791.3791,0,0,1-.378-.378l.168-2.1606Z"/><polygon class="dcc7eff0-4b28-4f0b-bc3d-4aa5a7de8544" points="146.898 371.83 146.7 371.83 146.799 373.411 146.898 371.83"/><polygon class="dcc7eff0-4b28-4f0b-bc3d-4aa5a7de8544" points="146.719 371.822 146.527 371.776 146.252 373.336 146.719 371.822"/><polygon class="dcc7eff0-4b28-4f0b-bc3d-4aa5a7de8544" points="146.871 371.822 147.063 371.776 147.339 373.336 146.871 371.822"/><path class="dcc7eff0-4b28-4f0b-bc3d-4aa5a7de8544" d="M146.7993,371.9051h-.3347l.1162-.2162a.1807.1807,0,0,1,.1591-.095h.1189a.1806.1806,0,0,1,.159.095l.1163.2162Z"/><path class="dcc7eff0-4b28-4f0b-bc3d-4aa5a7de8544" d="M146.8033,371.7722a.0782.0782,0,0,0,.0783-.0783v-.8727a.8622.8622,0,0,0-.0748-.3582,1.1129,1.1129,0,0,0-.856-.6683,1.064,1.064,0,0,0-.73.2.0783.0783,0,0,0,.0907.1277.9077.9077,0,0,1,.6211-.1721.9561.9561,0,0,1,.7318.5773.7072.7072,0,0,1,.0609.2936v.8727A.0782.0782,0,0,0,146.8033,371.7722Z"/><path class="dcc7eff0-4b28-4f0b-bc3d-4aa5a7de8544" d="M140.7746,384.8186l2.436,3.1a2.5269,2.5269,0,0,0,.7391.6362l1.299.7378.0071-.0071-.7378-1.299a2.5269,2.5269,0,0,0-.6362-.7391l-3.1-2.436"/><path class="dcc7eff0-4b28-4f0b-bc3d-4aa5a7de8544" d="M149.7915,384.8186l-2.436,3.1a2.5256,2.5256,0,0,1-.7391.6362l-1.299.7378-.0071-.0071.7378-1.299a2.5284,2.5284,0,0,1,.6362-.7391l3.1-2.436"/><path class="dcc7eff0-4b28-4f0b-bc3d-4aa5a7de8544" d="M140.7746,377.7935l2.436,3.1a2.5284,2.5284,0,0,0,.7391.6362l1.299.7378.0071-.0071-.7378-1.299a2.5256,2.5256,0,0,0-.6362-.7391l-3.1-2.436"/><path class="dcc7eff0-4b28-4f0b-bc3d-4aa5a7de8544" d="M149.7915,377.7935l-2.436,3.1a2.5271,2.5271,0,0,1-.7391.6362l-1.299.7378-.0071-.0071.7378-1.299a2.5271,2.5271,0,0,1,.6362-.7391l3.1-2.436"/><path class="2d369b05-a068-4ec2-82cb-a8029dc144ca" d="M143.5385,361.858l.599,3.7391a1.4184,1.4184,0,0,0,.6789.8754l.2336.1307h.489l.2336-.1307a1.4182,1.4182,0,0,0,.679-.8754l.599-3.7391-.2561-.4231-3.256-.2123Z"/><path class="c2d35482-c4f3-48e7-86e2-b51a9e3ba154" d="M143.5141,360.3546a.9068.9068,0,0,1,.7131.1013l.4557.279-.1354-.5169a.9066.9066,0,0,1,.1091-.7119l.5924-.944.6511.9045a.9069.9069,0,0,1,.1541.7035l-.1239.6347.558-.3267a.907.907,0,0,1,.715-.0873l1.0689.3154-.695.8712a.9069.9069,0,0,1-.6358.3384l-.599.0485.4471.4015a.907.907,0,0,1,.3008.6545l.025,1.1141-1.0415-.3967a.9073.9073,0,0,1-.5158-.5026l-.2536-.6167-.3049.593a.9071.9071,0,0,1-.5566.4571l-1.0713.3071.1193-1.108a.9064.9064,0,0,1,.355-.6266l.4047-.3057-.5046-.0509a.9068.9068,0,0,1-.629-.3508l-.6777-.8847Z"/><circle class="9a3f5eeb-2b5c-4c93-b402-fc9a3f528fe7" cx="145.4663" cy="361.3597" r="0.0727"/><circle class="9a3f5eeb-2b5c-4c93-b402-fc9a3f528fe7" cx="145.1227" cy="361.3622" r="0.0727"/><circle class="9a3f5eeb-2b5c-4c93-b402-fc9a3f528fe7" cx="145.293" cy="361.7108" r="0.0727"/><rect class="9a3f5eeb-2b5c-4c93-b402-fc9a3f528fe7" x="145.2648" y="361.42" width="0.2298" height="0.0303" transform="translate(-201.5952 184.2938) rotate(-41.0429)"/><rect class="9a3f5eeb-2b5c-4c93-b402-fc9a3f528fe7" x="145.1927" y="361.3234" width="0.0303" height="0.2258" transform="translate(-222.6566 233.3845) rotate(-48.9193)"/><rect class="9a3f5eeb-2b5c-4c93-b402-fc9a3f528fe7" x="145.2778" y="361.4954" width="0.0303" height="0.2153"/><polygon class="dcc7eff0-4b28-4f0b-bc3d-4aa5a7de8544" points="145.096 366.725 145.414 366.725 145.255 364.178 145.096 366.725"/><polygon class="dcc7eff0-4b28-4f0b-bc3d-4aa5a7de8544" points="145.338 366.693 145.561 366.92 147.267 365.022 145.338 366.693"/><path class="dcc7eff0-4b28-4f0b-bc3d-4aa5a7de8544" d="M145.2552,366.6032h.5389l-.1871.3481a.2908.2908,0,0,1-.2561.1531h-.1915a.2908.2908,0,0,1-.2561-.1531l-.1871-.3481Z"/><polygon class="dcc7eff0-4b28-4f0b-bc3d-4aa5a7de8544" points="145.172 366.693 144.949 366.92 143.244 365.022 145.172 366.693"/><path class="dcc7eff0-4b28-4f0b-bc3d-4aa5a7de8544" d="M143.9509,366.8816l.71.9036a.7357.7357,0,0,0,.2154.1854l.3786.2151.0021-.0021-.2151-.3786a.7361.7361,0,0,0-.1854-.2155l-.9036-.71"/><path class="dcc7eff0-4b28-4f0b-bc3d-4aa5a7de8544" d="M146.579,366.8816l-.71.9036a.737.737,0,0,1-.2154.1854l-.3787.2151-.002-.0021.215-.3786a.7379.7379,0,0,1,.1855-.2155l.9036-.71"/><path class="dcc7eff0-4b28-4f0b-bc3d-4aa5a7de8544" d="M145.2551,399.1736a.1177.1177,0,0,0,.1176-.1176V367.1044a.1176.1176,0,0,0-.2351,0V399.056A.1176.1176,0,0,0,145.2551,399.1736Z"/><rect class="dcc7eff0-4b28-4f0b-bc3d-4aa5a7de8544" x="124.5821" y="365.5597" width="0.2356" height="28.8305"/><path class="21c75f9b-8a5d-453c-a52f-527e4e4a2432" d="M125.3576,366.3387l.0244.0157,2.2659,1.4584a.5019.5019,0,1,0,.5324-.8319l-.0154-.0054.0006-.0015.0148.0069a.5021.5021,0,1,0,.2146-.9655l-2.6323-.5756-.0314-.0069-.0063-.0013,0,0a.5017.5017,0,0,0-.3711.9037v0Z"/><path class="21c75f9b-8a5d-453c-a52f-527e4e4a2432" d="M125.5118,364.9492l.0158-.0243L127,362.6681a.5019.5019,0,1,0-.8285-.5375l-.0055.0153-.0015-.0006.007-.0147a.5021.5021,0,1,0-.9642-.2207l-.592,2.6287-.007.0314-.0014.0062,0,0a.5016.5016,0,0,0,.9014.3767l0,0Z"/><path class="21c75f9b-8a5d-453c-a52f-527e4e4a2432" d="M125.7212,365.6757l.0283-.006,2.6353-.5628a.5019.5019,0,1,0-.2087-.9653l-.0147.0069-.0007-.0015.0154-.0054a.5021.5021,0,1,0-.5284-.8362l-2.2728,1.4473-.0272.0172-.0054.0035,0,.0005a.5016.5016,0,0,0,.3738.9025v0Z"/><path class="21c75f9b-8a5d-453c-a52f-527e4e4a2432" d="M124.6324,366.5527l.0062.0282.5792,2.6317a.5019.5019,0,1,0,.964-.2147l-.0071-.0147.0015-.0006.0056.0153a.5021.5021,0,1,0,.8328-.5336l-1.4613-2.2638-.0175-.027-.0035-.0054,0,0a.5016.5016,0,0,0-.9.3794l0,0Z"/><path class="21c75f9b-8a5d-453c-a52f-527e4e4a2432" d="M123.9671,366.1932l-.0155.0244-1.4442,2.275a.4968.4968,0,0,0-.0962.1515.5021.5021,0,1,0,.9313.3757l.0053-.0154.0015.0006-.0068.0148a.5021.5021,0,1,0,.9669.2086l.5591-2.6358.0067-.0315.0013-.0063,0,0a.5016.5016,0,0,0-.906-.3654l0,0Z"/><path class="21c75f9b-8a5d-453c-a52f-527e4e4a2432" d="M123.7487,365.4693l-.0282.0064-2.6281.5955a.5019.5019,0,1,0,.2207.9627l.0146-.0072.0007.0015-.0153.0057a.5021.5021,0,1,0,.5388.8295l2.2546-1.4754.0269-.0177.0054-.0035,0,0a.5016.5016,0,0,0-.385-.8979v0Z"/><path class="21c75f9b-8a5d-453c-a52f-527e4e4a2432" d="M124.104,364.8018l-.0245-.0153-2.2839-1.43a.5019.5019,0,1,0-.522.8383l.0154.0053-.0006.0015-.0148-.0068a.5022.5022,0,1,0-.2026.9682l2.6393.5428.0315.0065.0062.0012,0,0a.5016.5016,0,0,0,.36-.9082v0Z"/><path class="21c75f9b-8a5d-453c-a52f-527e4e4a2432" d="M124.8265,364.5789l-.0065-.0282-.6119-2.6243a.5019.5019,0,1,0-.9613.2267l.0073.0146-.0015.0006-.0058-.0152a.5021.5021,0,1,0-.8261.5439l1.4894,2.2454.0178.0268.0035.0054.0005,0a.5016.5016,0,0,0,.8954-.3905h0Z"/><circle class="2d369b05-a068-4ec2-82cb-a8029dc144ca" cx="124.7255" cy="365.575" r="0.5627"/><path class="c2d35482-c4f3-48e7-86e2-b51a9e3ba154" d="M125.0263,365.6028l.0085-.0019.7981-.17a.152.152,0,1,0-.0632-.2923l-.0045.0021,0-.0005.0047-.0016a.1521.1521,0,1,0-.16-.2532l-.6882.4382-.0083.0053-.0016.001v0a.1519.1519,0,0,0,.1132.2733h0Z"/><path class="c2d35482-c4f3-48e7-86e2-b51a9e3ba154" d="M124.6965,365.8683l.0019.0086.1754.7969a.152.152,0,1,0,.2919-.065l-.0021-.0044,0,0,.0017.0046a.1521.1521,0,1,0,.2522-.1616l-.4425-.6855-.0053-.0082-.001-.0016h0a.1519.1519,0,0,0-.2726.1149h0Z"/><path class="c2d35482-c4f3-48e7-86e2-b51a9e3ba154" d="M124.4289,365.54l-.0085.002-.7959.18a.152.152,0,1,0,.0669.2915l.0044-.0021,0,0-.0046.0017a.152.152,0,1,0,.12.2795.1475.1475,0,0,0,.0433-.0283l.6828-.4468.0081-.0053.0017-.0011h0a.1519.1519,0,0,0-.1166-.2719h0Z"/><path class="c2d35482-c4f3-48e7-86e2-b51a9e3ba154" d="M124.7553,365.2706l-.002-.0085-.1853-.7947a.152.152,0,1,0-.2911.0686l.0022.0044,0,0-.0018-.0046a.152.152,0,1,0-.25.1647l.451.68.0054.0081.0011.0016h0a.1519.1519,0,0,0,.2712-.1183h0Z"/><circle class="9a3f5eeb-2b5c-4c93-b402-fc9a3f528fe7" cx="124.7278" cy="365.5696" r="0.5685"/><path class="dcc7eff0-4b28-4f0b-bc3d-4aa5a7de8544" d="M124.6267,375.872l-1.6712-1.1014a.6724.6724,0,0,1-.1511-.1367l-.808-1.0057c-.0346-.0431-.012-.07.036-.0423l1.19.6782a.1415.1415,0,0,1,.0336.0269l1.408,1.5368C124.7088,375.8762,124.6815,375.9082,124.6267,375.872Z"/><path class="dcc7eff0-4b28-4f0b-bc3d-4aa5a7de8544" d="M124.6343,375.885l-2.2481-.4559a.7705.7705,0,0,1-.2191-.0807l-1.29-.7235c-.0552-.031-.0425-.069.02-.0605l1.5559.2117a.1647.1647,0,0,1,.0472.0143l2.1546,1.0314C124.7234,375.8543,124.7081,375.9,124.6343,375.885Z"/><path class="dcc7eff0-4b28-4f0b-bc3d-4aa5a7de8544" d="M124.6189,375.8289l-2.0284,1.3368a.8139.8139,0,0,0-.1834.166l-.9808,1.2206c-.042.0523-.0145.0846.0438.0514l1.4448-.8232a.17.17,0,0,0,.0408-.0327l1.709-1.8652C124.7185,375.8238,124.6855,375.785,124.6189,375.8289Z"/><path class="dcc7eff0-4b28-4f0b-bc3d-4aa5a7de8544" d="M124.6281,375.8132l-2.7286.5533a.9355.9355,0,0,0-.266.098l-1.5651.8781c-.0671.0376-.0516.0837.0246.0734l1.8883-.257a.1978.1978,0,0,0,.0574-.0173l2.6151-1.2518C124.7362,375.85,124.7176,375.795,124.6281,375.8132Z"/><path class="dcc7eff0-4b28-4f0b-bc3d-4aa5a7de8544" d="M124.5864,386.0311l-2.3253-1.5325a.9362.9362,0,0,1-.21-.19l-1.1244-1.3993c-.0481-.06-.0166-.097.05-.0589l1.6564.9436a.2011.2011,0,0,1,.0467.0375l1.9591,2.1383C124.7007,386.0369,124.6627,386.0814,124.5864,386.0311Z"/><path class="dcc7eff0-4b28-4f0b-bc3d-4aa5a7de8544" d="M124.597,386.0491l-3.1281-.6344a1.07,1.07,0,0,1-.3049-.1123l-1.7942-1.0067c-.0768-.0431-.0591-.0959.0282-.084l2.1648.2945a.2269.2269,0,0,1,.0658.02l2.9978,1.435C124.7209,386.0064,124.7,386.07,124.597,386.0491Z"/><path class="dcc7eff0-4b28-4f0b-bc3d-4aa5a7de8544" d="M124.5755,385.971l-2.8223,1.86a1.1372,1.1372,0,0,0-.2552.2309l-1.3647,1.6985c-.0584.0728-.02.1177.0609.0715l2.01-1.1454a.2394.2394,0,0,0,.0568-.0455l2.3779-2.5953C124.7142,385.964,124.6682,385.91,124.5755,385.971Z"/><path class="dcc7eff0-4b28-4f0b-bc3d-4aa5a7de8544" d="M124.5883,385.9492l-3.7966.77a1.2984,1.2984,0,0,0-.37.1363l-2.1777,1.2219c-.0933.0523-.0718.1165.0342.1021l2.6275-.3576a.2749.2749,0,0,0,.08-.0241l3.6387-1.7418C124.7388,386.001,124.7129,385.9239,124.5883,385.9492Z"/><path class="dcc7eff0-4b28-4f0b-bc3d-4aa5a7de8544" d="M124.7705,386.0311l2.3253-1.5325a.9362.9362,0,0,0,.21-.19l1.1244-1.3993c.0481-.06.0166-.097-.05-.0589l-1.6564.9436a.199.199,0,0,0-.0467.0375L124.718,385.97C124.6562,386.0369,124.6942,386.0814,124.7705,386.0311Z"/><path class="dcc7eff0-4b28-4f0b-bc3d-4aa5a7de8544" d="M124.76,386.0491l3.1281-.6344a1.0683,1.0683,0,0,0,.3048-.1123l1.7943-1.0067c.0768-.0431.0591-.0959-.0282-.084l-2.1648.2945a.2269.2269,0,0,0-.0658.02l-2.9978,1.435C124.636,386.0064,124.6573,386.07,124.76,386.0491Z"/><path class="dcc7eff0-4b28-4f0b-bc3d-4aa5a7de8544" d="M124.7814,385.971l2.8223,1.86a1.1372,1.1372,0,0,1,.2552.2309l1.3647,1.6985c.0584.0728.02.1177-.0609.0715l-2.01-1.1454a.2394.2394,0,0,1-.0568-.0455l-2.3779-2.5953C124.6427,385.964,124.6887,385.91,124.7814,385.971Z"/><path class="dcc7eff0-4b28-4f0b-bc3d-4aa5a7de8544" d="M124.7686,385.9492l3.7966.77a1.3,1.3,0,0,1,.37.1363l2.1777,1.2219c.0933.0523.0718.1165-.0342.1021l-2.6275-.3576a.2749.2749,0,0,1-.08-.0241l-3.6387-1.7418C124.6181,386.001,124.6439,385.9239,124.7686,385.9492Z"/><path class="dcc7eff0-4b28-4f0b-bc3d-4aa5a7de8544" d="M124.7974,375.872l1.6712-1.1014a.6719.6719,0,0,0,.151-.1367l.8081-1.0057c.0346-.0431.0119-.07-.0361-.0423l-1.19.6782a.1436.1436,0,0,0-.0336.0269l-1.408,1.5368C124.7153,375.8762,124.7425,375.9082,124.7974,375.872Z"/><path class="dcc7eff0-4b28-4f0b-bc3d-4aa5a7de8544" d="M124.79,375.885l2.2481-.4559a.7716.7716,0,0,0,.2191-.0807l1.29-.7235c.0552-.031.0425-.069-.02-.0605l-1.5558.2117a.1638.1638,0,0,0-.0472.0143l-2.1546,1.0314C124.7007,375.8543,124.716,375.9,124.79,375.885Z"/><path class="dcc7eff0-4b28-4f0b-bc3d-4aa5a7de8544" d="M124.8052,375.8289l2.0284,1.3368a.8139.8139,0,0,1,.1834.166l.9808,1.2206c.042.0523.0145.0846-.0438.0514l-1.4449-.8232a.1692.1692,0,0,1-.0407-.0327l-1.709-1.8652C124.7055,375.8238,124.7386,375.785,124.8052,375.8289Z"/><path class="dcc7eff0-4b28-4f0b-bc3d-4aa5a7de8544" d="M124.796,375.8132l2.7286.5533a.9355.9355,0,0,1,.266.098l1.5651.8781c.067.0376.0516.0837-.0246.0734l-1.8884-.257a.1981.1981,0,0,1-.0573-.0173L124.77,375.89C124.6879,375.85,124.7064,375.795,124.796,375.8132Z"/><rect class="dcc7eff0-4b28-4f0b-bc3d-4aa5a7de8544" x="165.7426" y="354.0072" width="0.3301" height="40.383"/><path class="2d369b05-a068-4ec2-82cb-a8029dc144ca" d="M166.8289,355.0984c.011.0077.0225.0148.0341.0219l3.1739,2.0428a.7031.7031,0,1,0,.7457-1.1652l-.0215-.0075.0009-.0022.0206.01a.7033.7033,0,1,0,.3006-1.3524l-3.687-.8062c-.0147-.0036-.0293-.0071-.0441-.01l-.0087-.002,0,.0007a.7026.7026,0,0,0-.52,1.2658l0,0Z"/><path class="2d369b05-a068-4ec2-82cb-a8029dc144ca" d="M167.0449,353.152c.0077-.011.0149-.0224.0221-.0339l2.0625-3.1612a.703.703,0,1,0-1.1605-.7529l-.0077.0214-.0021-.0008.01-.0206a.7033.7033,0,1,0-1.3506-.309l-.8291,3.6819c-.0036.0147-.0072.0293-.01.044l-.0019.0087.0006,0a.7026.7026,0,0,0,1.2625.5277l0,0Z"/><path class="2d369b05-a068-4ec2-82cb-a8029dc144ca" d="M167.3382,354.17c.0133-.0023.0264-.0054.04-.0085l3.6913-.7883a.703.703,0,1,0-.2924-1.3521l-.0206.01-.0009-.0021.0215-.0077a.7033.7033,0,1,0-.74-1.1712l-3.1836,2.0272c-.0129.0078-.0257.0156-.038.0242l-.0075.0048,0,.0007a.7026.7026,0,0,0,.5236,1.2642l0,0Z"/><path class="2d369b05-a068-4ec2-82cb-a8029dc144ca" d="M165.813,355.398c.0024.0133.0056.0264.0088.04l.8113,3.6863a.703.703,0,1,0,1.35-.3008l-.01-.0205.0021-.0009.0078.0214a.7033.7033,0,1,0,1.1666-.7474l-2.047-3.1709c-.0079-.0128-.0158-.0256-.0244-.0378l-.0049-.0076-.0006,0a.7026.7026,0,0,0-1.261.5314l0,0Z"/><path class="2d369b05-a068-4ec2-82cb-a8029dc144ca" d="M164.8812,354.8945c-.0076.0111-.0146.0226-.0217.0342l-2.023,3.1866a.7031.7031,0,1,0,1.17.7384l.0074-.0215.0022.0008-.01.0207a.7033.7033,0,1,0,1.3543.2922l.7832-3.692c.0035-.0146.0069-.0293.0094-.044l.0018-.0088-.0006,0a.7026.7026,0,0,0-1.269-.5119l-.0005,0Z"/><path class="2d369b05-a068-4ec2-82cb-a8029dc144ca" d="M164.5752,353.8806c-.0132.0024-.0263.0056-.04.0089l-3.6811.8342a.7031.7031,0,1,0,.3092,1.3484l.02-.01.001.0021-.0214.008a.7033.7033,0,1,0,.7546,1.1619l3.1581-2.0667c.0128-.0079.0255-.0159.0377-.0246l.0075-.0049,0-.0007a.7026.7026,0,0,0-.5392-1.2576l0,0Z"/><path class="2d369b05-a068-4ec2-82cb-a8029dc144ca" d="M165.073,352.9456c-.0112-.0075-.0227-.0145-.0344-.0215L161.84,350.921a.703.703,0,1,0-.7311,1.1743l.0216.0073-.0009.0022-.0207-.01a.7033.7033,0,1,0-.2838,1.3561l3.6968.76c.0147.0033.0294.0067.0442.0091l.0087.0018,0-.0007a.7026.7026,0,0,0,.504-1.2721l0,0Z"/><path class="2d369b05-a068-4ec2-82cb-a8029dc144ca" d="M166.085,352.6333c-.0025-.0132-.0058-.0263-.0092-.0394l-.8571-3.6759a.703.703,0,1,0-1.3464.3175l.01.02-.0021.001-.0081-.0214a.7033.7033,0,1,0-1.1572.7619l2.0863,3.1452c.008.0127.0161.0254.0249.0375l.0049.0075.0007,0a.7026.7026,0,0,0,1.2542-.5471l.0005,0Z"/><circle class="2d369b05-a068-4ec2-82cb-a8029dc144ca" cx="165.9435" cy="354.0286" r="0.7881"/><path class="c2d35482-c4f3-48e7-86e2-b51a9e3ba154" d="M166.3648,354.0675l.012-.0025,1.1178-.2388a.2129.2129,0,1,0-.0886-.4094l-.0062.0029,0-.0006.0065-.0023a.213.213,0,1,0-.2241-.3547l-.9641.6139-.0115.0073-.0023.0015v0a.2127.2127,0,0,0,.1586.3828v0Z"/><path class="c2d35482-c4f3-48e7-86e2-b51a9e3ba154" d="M165.9029,354.44l.0026.012.2457,1.1163a.2129.2129,0,1,0,.4089-.0911l-.003-.0062.0006,0,.0024.0065a.213.213,0,1,0,.3533-.2263l-.62-.96-.0074-.0114-.0015-.0023h0a.2127.2127,0,0,0-.3818.1609h0Z"/><path class="c2d35482-c4f3-48e7-86e2-b51a9e3ba154" d="M165.5281,353.98l-.012.0027-1.1148.2526a.2108.2108,0,0,0-.0742.0168.213.213,0,1,0,.1679.3915l.0061-.003,0,.0006-.0064.0024a.213.213,0,1,0,.2285.3519l.9563-.6259.0115-.0074.0022-.0015v0a.2128.2128,0,0,0-.1633-.3809h0Z"/><path class="c2d35482-c4f3-48e7-86e2-b51a9e3ba154" d="M165.9853,353.6023l-.0028-.012-.26-1.1132a.2129.2129,0,1,0-.4077.0962l.0031.0062-.0007,0-.0024-.0065a.213.213,0,1,0-.35.2307l.6317.9525.0076.0113.0015.0023h0a.2128.2128,0,0,0,.38-.1657h0Z"/><circle class="9a3f5eeb-2b5c-4c93-b402-fc9a3f528fe7" cx="165.9467" cy="354.0211" r="0.7963"/><path class="dcc7eff0-4b28-4f0b-bc3d-4aa5a7de8544" d="M165.8051,368.4517l-2.3409-1.5427a.9435.9435,0,0,1-.2116-.1915l-1.1318-1.4087c-.0485-.06-.0167-.0976.05-.0593l1.6674.95a.1993.1993,0,0,1,.0471.0377l1.9721,2.1525C165.92,368.4576,165.8819,368.5024,165.8051,368.4517Z"/><path class="dcc7eff0-4b28-4f0b-bc3d-4aa5a7de8544" d="M165.8157,368.47l-3.1489-.6386a1.0778,1.0778,0,0,1-.3069-.1131l-1.8062-1.0134c-.0773-.0434-.0595-.0966.0284-.0846l2.1792.2965a.2266.2266,0,0,1,.0662.02l3.0179,1.4446C165.9405,368.4269,165.9191,368.4908,165.8157,368.47Z"/><path class="dcc7eff0-4b28-4f0b-bc3d-4aa5a7de8544" d="M165.7941,368.3913l-2.8412,1.8725a1.1425,1.1425,0,0,0-.2568.2324l-1.3738,1.71c-.0589.0732-.02.1184.0613.0719l2.0238-1.153a.2422.2422,0,0,0,.0571-.0458l2.3938-2.6127C165.9337,368.3842,165.8874,368.33,165.7941,368.3913Z"/><path class="dcc7eff0-4b28-4f0b-bc3d-4aa5a7de8544" d="M165.807,368.3693l-3.822.7751a1.3091,1.3091,0,0,0-.3725.1372l-2.1923,1.23c-.0939.0527-.0722.1173.0344.1028l2.6451-.36a.279.279,0,0,0,.08-.0243l3.6629-1.7534C165.9585,368.4215,165.9325,368.3438,165.807,368.3693Z"/><path class="dcc7eff0-4b28-4f0b-bc3d-4aa5a7de8544" d="M165.7487,382.6815l-3.2571-2.1465a1.3135,1.3135,0,0,1-.2945-.2665l-1.5749-1.96c-.0674-.084-.0232-.1358.07-.0825l2.32,1.3218a.28.28,0,0,1,.0655.0525l2.7441,2.9951C165.9087,382.69,165.8556,382.752,165.7487,382.6815Z"/><path class="dcc7eff0-4b28-4f0b-bc3d-4aa5a7de8544" d="M165.7634,382.7068l-4.3814-.8886a1.4994,1.4994,0,0,1-.4271-.1573l-2.5131-1.41c-.1077-.06-.0829-.1345.0394-.1178l3.0323.4125a.3176.3176,0,0,1,.0921.0279l4.1991,2.01C165.9371,382.6469,165.9072,382.7359,165.7634,382.7068Z"/><path class="dcc7eff0-4b28-4f0b-bc3d-4aa5a7de8544" d="M165.7334,382.5974l-3.9533,2.6055a1.59,1.59,0,0,0-.3574.3234l-1.9115,2.3791c-.0819.1019-.0283.1648.0853.1l2.816-1.6043a.338.338,0,0,0,.0795-.0638l3.3307-3.6353C165.9277,382.5876,165.8632,382.5119,165.7334,382.5974Z"/><path class="dcc7eff0-4b28-4f0b-bc3d-4aa5a7de8544" d="M165.7514,382.5668l-5.3181,1.0785a1.8209,1.8209,0,0,0-.5183.1909l-3.05,1.7115c-.1306.0733-.1.1631.0479.143l3.68-.5008a.3864.3864,0,0,0,.1118-.0338l5.0967-2.44C165.9621,382.6394,165.9259,382.5314,165.7514,382.5668Z"/><path class="dcc7eff0-4b28-4f0b-bc3d-4aa5a7de8544" d="M166.0065,382.6815l3.2571-2.1465a1.3151,1.3151,0,0,0,.2944-.2665l1.5749-1.96c.0675-.084.0233-.1358-.07-.0825l-2.32,1.3218a.2761.2761,0,0,0-.0655.0525l-2.7442,2.9951C165.8464,382.69,165.9,382.752,166.0065,382.6815Z"/><path class="dcc7eff0-4b28-4f0b-bc3d-4aa5a7de8544" d="M165.9917,382.7068l4.3814-.8886a1.4972,1.4972,0,0,0,.4271-.1573l2.5132-1.41c.1076-.06.0828-.1345-.04-.1178l-3.0322.4125a.3157.3157,0,0,0-.0921.0279l-4.1992,2.01C165.8181,382.6469,165.8479,382.7359,165.9917,382.7068Z"/><path class="dcc7eff0-4b28-4f0b-bc3d-4aa5a7de8544" d="M166.0217,382.5974l3.9533,2.6055a1.59,1.59,0,0,1,.3574.3234l1.9116,2.3791c.0818.1019.0282.1648-.0854.1l-2.8159-1.6043a.334.334,0,0,1-.0795-.0638l-3.3307-3.6353C165.8275,382.5876,165.892,382.5119,166.0217,382.5974Z"/><path class="dcc7eff0-4b28-4f0b-bc3d-4aa5a7de8544" d="M166.0038,382.5668l5.318,1.0785a1.8216,1.8216,0,0,1,.5184.1909l3.05,1.7115c.1307.0733.1006.1631-.0479.143l-3.68-.5008a.3873.3873,0,0,1-.1118-.0338l-5.0967-2.44C165.7931,382.6394,165.8293,382.5314,166.0038,382.5668Z"/><path class="dcc7eff0-4b28-4f0b-bc3d-4aa5a7de8544" d="M166.0442,368.4517l2.3408-1.5427a.9414.9414,0,0,0,.2116-.1915l1.1319-1.4087c.0484-.06.0167-.0976-.0506-.0593l-1.6674.95a.1988.1988,0,0,0-.047.0377l-1.9722,2.1525C165.9291,368.4576,165.9673,368.5024,166.0442,368.4517Z"/><path class="dcc7eff0-4b28-4f0b-bc3d-4aa5a7de8544" d="M166.0335,368.47l3.1489-.6386a1.08,1.08,0,0,0,.307-.1131l1.8061-1.0134c.0774-.0434.06-.0966-.0283-.0846l-2.1793.2965a.2275.2275,0,0,0-.0662.02l-3.0178,1.4446C165.9088,368.4269,165.93,368.4908,166.0335,368.47Z"/><path class="dcc7eff0-4b28-4f0b-bc3d-4aa5a7de8544" d="M166.0551,368.3913l2.8412,1.8725a1.1452,1.1452,0,0,1,.2569.2324l1.3738,1.71c.0588.0732.02.1184-.0614.0719l-2.0238-1.153a.2422.2422,0,0,1-.0571-.0458l-2.3937-2.6127C165.9155,368.3842,165.9619,368.33,166.0551,368.3913Z"/><path class="dcc7eff0-4b28-4f0b-bc3d-4aa5a7de8544" d="M166.0422,368.3693l3.822.7751a1.3087,1.3087,0,0,1,.3726.1372l2.1922,1.23c.0939.0527.0723.1173-.0344.1028l-2.6451-.36a.2775.2775,0,0,1-.08-.0243l-3.663-1.7534C165.8908,368.4215,165.9168,368.3438,166.0422,368.3693Z"/><rect class="dcc7eff0-4b28-4f0b-bc3d-4aa5a7de8544" x="243.4993" y="316.586" width="0.6359" height="77.8042"/><path class="2d369b05-a068-4ec2-82cb-a8029dc144ca" d="M245.5924,318.6883c.0212.0148.0433.0285.0656.0422l6.1151,3.9358a1.3545,1.3545,0,1,0,1.4367-2.2448c-.0137-.0056-.0276-.01-.0414-.0146l.0016-.0042c.0134.0061.0261.0131.04.0188a1.355,1.355,0,1,0,.5791-2.6058l-7.1036-1.5532c-.0283-.0069-.0565-.0136-.0849-.0186l-.0168-.0037-.0006.0013a1.3536,1.3536,0,0,0-1.0014,2.4387l0,.0009Z"/><path class="2d369b05-a068-4ec2-82cb-a8029dc144ca" d="M246.0084,314.9383c.015-.0211.0288-.0432.0427-.0654l3.9737-6.09a1.3545,1.3545,0,1,0-2.2358-1.4507c-.0058.0137-.01.0276-.0149.0413l-.0041-.0016c.0061-.0134.0132-.026.019-.04a1.355,1.355,0,1,0-2.6021-.5953l-1.5975,7.0938c-.007.0283-.0139.0564-.019.0847l-.0038.0169.0012,0A1.3537,1.3537,0,0,0,246,314.9491l.0009,0Z"/><path class="2d369b05-a068-4ec2-82cb-a8029dc144ca" d="M246.5736,316.8991c.0255-.0045.0509-.01.0763-.0163l7.1118-1.5189a1.3545,1.3545,0,1,0-.5633-2.605c-.0137.0057-.0263.0128-.04.0188l-.0018-.0041c.0138-.0051.0277-.009.0414-.0147a1.3551,1.3551,0,1,0-1.426-2.2565l-6.1336,3.9057c-.0248.015-.05.03-.0732.0466l-.0146.0093.0006.0012a1.3537,1.3537,0,0,0,1.0087,2.4358l0,.0009Z"/><path class="2d369b05-a068-4ec2-82cb-a8029dc144ca" d="M243.6351,319.2657c.0047.0254.0107.0508.0168.0762l1.5631,7.1022a1.3545,1.3545,0,1,0,2.6015-.5795c-.0058-.0137-.013-.0262-.0191-.04l.004-.0017c.0053.0137.0093.0276.0151.0413a1.355,1.355,0,1,0,2.2475-1.44l-3.9437-6.1092c-.0152-.0247-.03-.0494-.0471-.0729l-.0094-.0145-.0012,0a1.3537,1.3537,0,0,0-2.4294,1.0238l-.0009,0Z"/><path class="2d369b05-a068-4ec2-82cb-a8029dc144ca" d="M241.84,318.2956c-.0147.0213-.0283.0435-.0419.0659L237.9,324.5009a1.3545,1.3545,0,1,0,2.2537,1.4227c.0055-.0137.0093-.0277.0143-.0415l.0042.0016c-.006.0135-.013.0262-.0185.04a1.3551,1.3551,0,1,0,2.6093.5629l1.509-7.1132c.0067-.0282.0133-.0565.0181-.0849l.0035-.0169-.0012,0a1.3537,1.3537,0,0,0-2.4449-.9863l-.0009,0Z"/><path class="2d369b05-a068-4ec2-82cb-a8029dc144ca" d="M241.25,316.342c-.0254.0048-.0507.0109-.0761.0172l-7.0923,1.6073a1.3545,1.3545,0,1,0,.5956,2.5978c.0136-.0059.0261-.0131.04-.0193l.0018.004c-.0137.0054-.0276.0094-.0413.0153a1.355,1.355,0,1,0,1.454,2.2385l6.0845-3.9816c.0247-.0154.0493-.0308.0727-.0476l.0144-.0094,0-.0013a1.3537,1.3537,0,0,0-1.039-2.423l0-.0009Z"/><path class="2d369b05-a068-4ec2-82cb-a8029dc144ca" d="M242.2092,314.5407c-.0214-.0145-.0437-.028-.0661-.0414L235.98,310.64a1.3545,1.3545,0,1,0-1.4087,2.2625c.0138.0055.0278.0091.0416.0141l-.0015.0041c-.0136-.0058-.0263-.0127-.04-.0182a1.355,1.355,0,1,0-.5466,2.6128l7.1224,1.4647c.0283.0065.0566.0129.085.0175l.017.0035,0-.0013a1.3537,1.3537,0,0,0,.971-2.451l0-.0008Z"/><path class="2d369b05-a068-4ec2-82cb-a8029dc144ca" d="M244.1591,313.939c-.0049-.0254-.0113-.0507-.0177-.076l-1.6513-7.0822a1.3545,1.3545,0,1,0-2.5941.6118c.0059.0136.0133.0261.02.0393l-.004.0019c-.0055-.0137-.01-.0276-.0156-.0412a1.355,1.355,0,1,0-2.2295,1.4679l4.0195,6.06c.0155.0246.0311.0491.048.0724l.01.0144.0013-.0006a1.3537,1.3537,0,0,0,2.4165-1.054l.0008,0Z"/><circle class="2d369b05-a068-4ec2-82cb-a8029dc144ca" cx="243.8865" cy="316.6273" r="1.5185"/><path class="c2d35482-c4f3-48e7-86e2-b51a9e3ba154" d="M244.6981,316.7022l.0231-.0049,2.1537-.46a.41.41,0,1,0-.1706-.7889l-.012.0057-.0006-.0012.0126-.0045a.41.41,0,1,0-.4319-.6833l-1.8574,1.1827-.0222.0142-.0044.0028,0,0a.41.41,0,0,0,.3054.7376l0,0Z"/><path class="c2d35482-c4f3-48e7-86e2-b51a9e3ba154" d="M243.8082,317.4189l.0051.023.4734,2.1508a.405.405,0,0,0,.0315.1432.41.41,0,1,0,.7563-.3187l-.0058-.012.0012,0,.0046.0125a.41.41,0,1,0,.6806-.4361l-1.1943-1.85-.0142-.0221-.0029-.0044,0,0a.41.41,0,0,0-.7357.31h0Z"/><path class="c2d35482-c4f3-48e7-86e2-b51a9e3ba154" d="M243.086,316.5335l-.023.0052-2.1478.4867a.41.41,0,1,0,.18.7867l.012-.0058.0005.0012-.0125.0046a.41.41,0,1,0,.44.6779l1.8426-1.2057.022-.0144.0044-.0029,0,0a.41.41,0,0,0-.3146-.7337v0Z"/><path class="c2d35482-c4f3-48e7-86e2-b51a9e3ba154" d="M243.9669,315.8058l-.0054-.023-.5-2.1447a.41.41,0,1,0-.7856.1853l.0059.0119-.0012,0-.0047-.0124a.41.41,0,1,0-.6751.4445l1.2172,1.835.0145.0219.0029.0044,0,0a.41.41,0,0,0,.7318-.3192h0Z"/><circle class="9a3f5eeb-2b5c-4c93-b402-fc9a3f528fe7" cx="243.8926" cy="316.6128" r="1.5342"/><path class="dcc7eff0-4b28-4f0b-bc3d-4aa5a7de8544" d="M243.62,344.4157l-4.51-2.9723a1.8159,1.8159,0,0,1-.4077-.369l-2.1807-2.7141c-.0934-.1162-.0322-.188.0973-.1142l3.2125,1.83a.3841.3841,0,0,1,.0907.0728l3.8,4.1471C243.8414,344.4269,243.7678,344.5132,243.62,344.4157Z"/><path class="dcc7eff0-4b28-4f0b-bc3d-4aa5a7de8544" d="M243.64,344.4506l-6.0668-1.23a2.0806,2.0806,0,0,1-.5913-.2178l-3.48-1.9525c-.1491-.0836-.1147-.1861.0546-.1631l4.1987.5713a.44.44,0,0,1,.1275.0385l5.8144,2.7833C243.8807,344.3677,243.8394,344.491,243.64,344.4506Z"/><path class="dcc7eff0-4b28-4f0b-bc3d-4aa5a7de8544" d="M243.5987,344.2992l-5.4741,3.6077a2.2022,2.2022,0,0,0-.4948.4478l-2.6469,3.2943c-.1133.1411-.0391.2282.1182.1386L239,349.5661a.4653.4653,0,0,0,.11-.0883l4.612-5.0336C243.8677,344.2856,243.7784,344.1808,243.5987,344.2992Z"/><path class="dcc7eff0-4b28-4f0b-bc3d-4aa5a7de8544" d="M243.6235,344.2568,236.26,345.75a2.5233,2.5233,0,0,0-.7177.2644l-4.2237,2.37c-.181.1016-.1393.226.0663.198l5.0961-.6934a.5323.5323,0,0,0,.1548-.0468l7.0573-3.3782C243.9153,344.3574,243.8652,344.2078,243.6235,344.2568Z"/><path class="dcc7eff0-4b28-4f0b-bc3d-4aa5a7de8544" d="M243.5111,371.8317l-6.2753-4.1358a2.5251,2.5251,0,0,1-.5673-.5134l-3.0343-3.7764c-.13-.1618-.0448-.2617.1355-.159l4.47,2.5467a.534.534,0,0,1,.1262.1012l5.287,5.77C243.8194,371.8473,243.7171,371.9674,243.5111,371.8317Z"/><path class="dcc7eff0-4b28-4f0b-bc3d-4aa5a7de8544" d="M243.54,371.88l-8.4415-1.7119a2.8973,2.8973,0,0,1-.8228-.3031l-4.842-2.7167c-.2074-.1164-.16-.259.0761-.227l5.8421.7949a.61.61,0,0,1,.1774.0537l8.09,3.8727C243.8741,371.7649,243.8166,371.9364,243.54,371.88Z"/><path class="dcc7eff0-4b28-4f0b-bc3d-4aa5a7de8544" d="M243.4817,371.67l-7.6167,5.02a3.0621,3.0621,0,0,0-.6885.6231l-3.6829,4.5837c-.1578.1963-.0544.3176.1644.1929l5.4254-3.091a.6455.6455,0,0,0,.1531-.1229l6.4172-7.0039C243.856,371.6506,243.7317,371.5048,243.4817,371.67Z"/><path class="dcc7eff0-4b28-4f0b-bc3d-4aa5a7de8544" d="M243.5163,371.6106l-10.246,2.0778a3.5114,3.5114,0,0,0-.9987.3679l-5.877,3.2974c-.2517.1413-.1937.3144.0923.2755l7.0909-.9648a.7432.7432,0,0,0,.2153-.0651l9.82-4.7006C243.9223,371.7505,243.8526,371.5424,243.5163,371.6106Z"/><path class="dcc7eff0-4b28-4f0b-bc3d-4aa5a7de8544" d="M244.0078,371.8317l6.2753-4.1358a2.523,2.523,0,0,0,.5673-.5134l3.0343-3.7764c.13-.1618.0448-.2617-.1355-.159l-4.47,2.5467a.534.534,0,0,0-.1262.1012l-5.287,5.77C243.7,371.8473,243.8019,371.9674,244.0078,371.8317Z"/><path class="dcc7eff0-4b28-4f0b-bc3d-4aa5a7de8544" d="M243.9794,371.88l8.4415-1.7119a2.8962,2.8962,0,0,0,.8228-.3031l4.842-2.7167c.2074-.1164.16-.259-.0761-.227l-5.8421.7949a.61.61,0,0,0-.1774.0537l-8.09,3.8727C243.6448,371.7649,243.7023,371.9364,243.9794,371.88Z"/><path class="dcc7eff0-4b28-4f0b-bc3d-4aa5a7de8544" d="M244.0372,371.67l7.6167,5.02a3.0621,3.0621,0,0,1,.6885.6231l3.6829,4.5837c.1578.1963.0544.3176-.1644.1929l-5.4254-3.091a.6455.6455,0,0,1-.1531-.1229l-6.4172-7.0039C243.6629,371.6506,243.7872,371.5048,244.0372,371.67Z"/><path class="dcc7eff0-4b28-4f0b-bc3d-4aa5a7de8544" d="M244.0026,371.6106l10.246,2.0778a3.5114,3.5114,0,0,1,.9987.3679l5.877,3.2974c.2517.1413.1937.3144-.0923.2755l-7.0909-.9648a.7432.7432,0,0,1-.2153-.0651l-9.82-4.7006C243.5966,371.7505,243.6664,371.5424,244.0026,371.6106Z"/><path class="dcc7eff0-4b28-4f0b-bc3d-4aa5a7de8544" d="M244.08,344.4157l4.51-2.9723a1.8159,1.8159,0,0,0,.4077-.369l2.1807-2.7141c.0934-.1162.0322-.188-.0973-.1142l-3.2125,1.83a.3841.3841,0,0,0-.0907.0728l-3.8,4.1471C243.8588,344.4269,243.9324,344.5132,244.08,344.4157Z"/><path class="dcc7eff0-4b28-4f0b-bc3d-4aa5a7de8544" d="M244.06,344.4506l6.0668-1.23a2.0806,2.0806,0,0,0,.5913-.2178l3.48-1.9525c.1491-.0836.1147-.1861-.0546-.1631l-4.1987.5713a.44.44,0,0,0-.1275.0385l-5.8144,2.7833C243.82,344.3677,243.8608,344.491,244.06,344.4506Z"/><path class="dcc7eff0-4b28-4f0b-bc3d-4aa5a7de8544" d="M244.1015,344.2992l5.4741,3.6077a2.2022,2.2022,0,0,1,.4948.4478l2.6469,3.2943c.1133.1411.0391.2282-.1182.1386L248.7,349.5661a.4653.4653,0,0,1-.11-.0883l-4.612-5.0336C243.8325,344.2856,243.9218,344.1808,244.1015,344.2992Z"/><path class="dcc7eff0-4b28-4f0b-bc3d-4aa5a7de8544" d="M244.0767,344.2568,251.44,345.75a2.5233,2.5233,0,0,1,.7177.2644l4.2237,2.37c.181.1016.1393.226-.0663.198l-5.0961-.6934a.5323.5323,0,0,1-.1548-.0468l-7.0573-3.3782C243.7849,344.3574,243.835,344.2078,244.0767,344.2568Z"/><path class="9a3f5eeb-2b5c-4c93-b402-fc9a3f528fe7" d="M-38.3192-29.6146V485.6835H336.1061V-29.6146Zm302.2518,432.7H34.3442V128.0978a114.7942,114.7942,0,0,1,229.5884,0Z"/><path class="21c75f9b-8a5d-453c-a52f-527e4e4a2432" d="M149.1384,13.3036A114.7942,114.7942,0,0,0,34.3442,128.0978V403.085H263.9326V128.0978A114.7942,114.7942,0,0,0,149.1384,13.3036Zm73.8988,56.658a4.45,4.45,0,1,1-4.45,4.45A4.45,4.45,0,0,1,223.0372,69.9616ZM210.6,50.1646c3.9034-4.52,7.0678-1.3551,2.5482,2.5483,4.52,3.9035,1.3552,7.0678-2.5482,2.5482-3.9035,4.52-7.0679,1.3553-2.5483-2.5482C203.5321,48.81,206.6965,45.6451,210.6,50.1646ZM196.0172,61.554a6.4286,6.4286,0,1,1-6.4286,6.4286A6.4286,6.4286,0,0,1,196.0172,61.554Zm-47.029-28.6393c7.8069-9.0391,14.1356-2.71,5.0965,5.0965,9.0391,7.8069,2.71,14.1357-5.0965,5.0966-7.8069,9.0391-14.1357,2.71-5.0966-5.0966C134.8525,30.2043,141.1813,23.8756,148.9882,32.9147Zm-27.4639,10.899a4.45,4.45,0,1,1-4.45,4.45A4.45,4.45,0,0,1,121.5243,43.8137ZM88.7617,50.1646c3.9035-4.52,7.0678-1.3551,2.5483,2.5483,4.5195,3.9035,1.3552,7.0678-2.5483,2.5482-3.9034,4.52-7.0678,1.3553-2.5482-2.5482C81.6939,48.81,84.8583,45.6451,88.7617,50.1646ZM74.9392,69.9616a4.45,4.45,0,1,1-4.45,4.45A4.45,4.45,0,0,1,74.9392,69.9616ZM108.3877,394.066H41.4906V155.8966h.0374c2.1567-25.8779-1.4379-35.2881,33.43-70.5762,34.8677,35.2881,31.2732,44.6983,33.43,70.5762ZM102.6514,74.4112a6.4286,6.4286,0,1,1,6.4286-6.4286A6.4286,6.4286,0,0,1,102.6514,74.4112ZM182.4367,394.066H115.54V124.3976h.0374c2.1567-25.8779-1.4379-35.288,33.43-70.5761C183.8746,89.11,180.28,98.52,182.4367,124.3976ZM177.9872,52.7129a4.45,4.45,0,1,1,4.45-4.45A4.45,4.45,0,0,1,177.9872,52.7129ZM256.4858,394.066H189.5886V155.8966h.0374c2.1567-25.8779-1.4379-35.2881,33.43-70.5762,34.8678,35.2881,31.2732,44.6983,33.43,70.5762Z"/><circle class="21c75f9b-8a5d-453c-a52f-527e4e4a2432" cx="148.9882" cy="37.7195" r="2.1474"/><path class="c2d35482-c4f3-48e7-86e2-b51a9e3ba154" d="M278.5817,388.2948h-5.5063l-6.6526-4.0579L255.72,377.7081l-8.49-5.177q.1709-.2488.3269-.5051a11.5649,11.5649,0,0,0,.9977-2.0426Z"/><path class="a1b69eb8-2130-49f5-bcae-bff49da7bc36" d="M255.72,377.7081a9.4274,9.4274,0,0,1-3.1048,5.8381H247.329a9.34,9.34,0,0,1-7.8163-4.5408l.0074.0174-.822-1.4781a11.6822,11.6822,0,0,0,8.5318-5.0136Z"/><path class="af760b38-1ac3-4c4a-8f54-86970cb705ec" d="M266.4228,384.2369l-.0149.0025-1.1314-.6932H252.6149a9.4274,9.4274,0,0,0,3.1048-5.8381Z"/><path class="af760b38-1ac3-4c4a-8f54-86970cb705ec" d="M265.2765,383.5462l1.1314.6932-2.3644.24-12.3719-.198a9.6319,9.6319,0,0,0,.9433-.7353Z"/><path class="af760b38-1ac3-4c4a-8f54-86970cb705ec" d="M236.9244,376.0778l-.0261.01.0244.0564C236.9235,376.122,236.9235,376.1,236.9244,376.0778Z"/><path class="f53e9706-8ace-41fd-8100-ca23804537b4" d="M248.5545,369.9834a11.5649,11.5649,0,0,1-.9977,2.0426q-.156.2562-.3269.5051a11.6822,11.6822,0,0,1-8.5318,5.0136l-.9854-1.7678-.4208-.7551a11.6807,11.6807,0,0,0,7.6949-4.9047,11.5481,11.5481,0,0,0,.9755-1.7133Z"/><path class="9e2c6b4d-96b7-4b0f-a043-0f5de815915c" d="M235.8494,371.5931l.0051.8468,1.438,2.5811a11.681,11.681,0,0,0,7.6936-4.9028,11.5062,11.5062,0,0,0,.9765-1.7151l-.1857-.1132a12.4372,12.4372,0,0,0-1.2791-.6357,8.767,8.767,0,0,0-1.7024-.5455,8.9165,8.9165,0,0,0-2.1463-.16A4.7983,4.7983,0,0,0,235.8494,371.5931Z"/><polygon class="c2d35482-c4f3-48e7-86e2-b51a9e3ba154" points="247.839 393.475 248.228 393.977 248.669 393.636 251.046 391.797 251.088 391.764 250.699 391.261 249.889 391.888 247.923 393.41 247.839 393.475"/><polyline class="2d369b05-a068-4ec2-82cb-a8029dc144ca" points="235.916 370.812 232.258 371.383 235.916 372.48"/><ellipse class="ab94e9f4-601e-49e6-834e-651bf06e8f57" cx="239.0157" cy="371.8821" rx="1.1461" ry="0.8624"/><ellipse class="2d369b05-a068-4ec2-82cb-a8029dc144ca" cx="239.0157" cy="371.8821" rx="0.9427" ry="0.7094"/><ellipse class="771a4177-9859-4d06-b4b8-81aed1e866d9" cx="239.0157" cy="371.8821" rx="0.5711" ry="0.4298"/><path class="af760b38-1ac3-4c4a-8f54-86970cb705ec" d="M235.8824,377.3134l-.005.1526a12.2038,12.2038,0,0,0,1.7215.13q.557,0,1.0986-.0521l-2.843-5.1037Z"/><path class="c2d35482-c4f3-48e7-86e2-b51a9e3ba154" d="M235.8774,377.466a12.2038,12.2038,0,0,0,1.7215.13,11.6732,11.6732,0,0,1-1.6834-.1208l1.6364,2.96-.0115-.0229a11.3487,11.3487,0,0,0,9.4978,5.5194h13.57a13.54,13.54,0,0,1-9.5626,5.8652c-.3815.0458-.7667.0776-1.1571.0915-.1665.0064-.3344.0089-.5035.0089a13.5353,13.5353,0,0,1-13.5359-13.5359Z"/><path class="80dc2fac-ac50-4b87-aaeb-86be702a24f1" d="M269.171,385.93H247.0393a11.3536,11.3536,0,0,1-9.5-5.5187l-1.6613-2.9462c.2749.04.5621.0742.8517.0965.2749.0223.5521.0322.822.0347h.0471c.3713,0,.7378-.02,1.0992-.052l.822,1.4781-.0074-.0174a9.34,9.34,0,0,0,7.8163,4.5408h17.9475l1.1314.6932Z"/><rect class="c2d35482-c4f3-48e7-86e2-b51a9e3ba154" x="243.639" y="393.3231" width="4.5899" height="0.654"/><polygon class="c2d35482-c4f3-48e7-86e2-b51a9e3ba154" points="130.838 293.844 131.2 293.443 131.173 293.982 131.712 293.955 131.311 294.317 131.712 294.679 131.173 294.651 131.2 295.191 130.838 294.79 130.476 295.191 130.504 294.651 129.964 294.679 130.365 294.317 129.964 293.955 130.504 293.982 130.476 293.443 130.838 293.844"/><polygon class="c2d35482-c4f3-48e7-86e2-b51a9e3ba154" points="244.767 218.076 245.129 217.675 245.102 218.214 245.641 218.187 245.24 218.549 245.641 218.911 245.102 218.883 245.129 219.423 244.767 219.022 244.405 219.423 244.433 218.883 243.893 218.911 244.294 218.549 243.893 218.187 244.433 218.214 244.405 217.675 244.767 218.076"/><polygon class="c2d35482-c4f3-48e7-86e2-b51a9e3ba154" points="164.357 182.459 165.081 181.657 165.026 182.736 166.105 182.681 165.303 183.405 166.105 184.129 165.026 184.074 165.081 185.153 164.357 184.351 163.633 185.153 163.688 184.074 162.609 184.129 163.411 183.405 162.609 182.681 163.688 182.736 163.633 181.657 164.357 182.459"/><polygon class="c2d35482-c4f3-48e7-86e2-b51a9e3ba154" points="165.653 273.421 166.015 273.02 165.987 273.559 166.527 273.532 166.126 273.894 166.527 274.256 165.987 274.228 166.015 274.768 165.653 274.367 165.291 274.768 165.318 274.228 164.779 274.256 165.18 273.894 164.779 273.532 165.318 273.559 165.291 273.02 165.653 273.421"/><polygon class="c2d35482-c4f3-48e7-86e2-b51a9e3ba154" points="217.305 234.852 217.667 234.452 217.639 234.991 218.179 234.963 217.778 235.325 218.179 235.687 217.639 235.66 217.667 236.199 217.305 235.798 216.943 236.199 216.971 235.66 216.431 235.687 216.832 235.325 216.431 234.963 216.971 234.991 216.943 234.452 217.305 234.852"/><path class="21c75f9b-8a5d-453c-a52f-527e4e4a2432" d="M305.7669,296.98a.25.25,0,0,1-.2227-.3642,3.9886,3.9886,0,0,0,.4316-1.4907,4.157,4.157,0,0,0-.57-2.4341.25.25,0,1,1,.43-.2549,4.658,4.658,0,0,1,.6387,2.7319,4.5061,4.5061,0,0,1-.4844,1.6763A.2512.2512,0,0,1,305.7669,296.98Z"/><path class="37cb6185-2f97-4df5-972d-0da647f76869" d="M293.9766,290.7418a3.7845,3.7845,0,0,0,1.2579,5.2024,7.5645,7.5645,0,0,0,7.5708.1848,7.5709,7.5709,0,0,0-3.6248-6.6476A3.785,3.785,0,0,0,293.9766,290.7418Z"/><ellipse class="2d369b05-a068-4ec2-82cb-a8029dc144ca" cx="301.3695" cy="298.894" rx="5.6005" ry="4.1337" transform="translate(-61.8068 79.2029) rotate(-13.5933)"/><g class="ba0b48a4-f6fd-4451-bd5b-535deb7b2623"><rect class="21c75f9b-8a5d-453c-a52f-527e4e4a2432" x="293.1905" y="293.6458" width="17.1003" height="10.5202" transform="translate(-61.7992 79.2905) rotate(-13.5933)"/><rect class="2d369b05-a068-4ec2-82cb-a8029dc144ca" x="294.8568" y="295.5272" width="3.4509" height="9.0487" transform="translate(-62.2129 78.1102) rotate(-13.5933)"/><rect class="2d369b05-a068-4ec2-82cb-a8029dc144ca" x="300.3937" y="294.3484" width="2.1274" height="9.0487" transform="translate(-61.7993 79.2229) rotate(-13.5933)"/><rect class="2d369b05-a068-4ec2-82cb-a8029dc144ca" x="304.4233" y="293.1458" width="4.0149" height="9.0487" transform="translate(-61.3774 80.3581) rotate(-13.5933)"/></g><path class="37cb6185-2f97-4df5-972d-0da647f76869" d="M298.49,286.73a3.7846,3.7846,0,0,0-1.8619,5.0181,7.5645,7.5645,0,0,0,6.177,4.3813,7.571,7.571,0,0,0,.7055-7.5387A3.785,3.785,0,0,0,298.49,286.73Z"/><path class="21c75f9b-8a5d-453c-a52f-527e4e4a2432" d="M306.2405,297.6172a.25.25,0,0,1-.1592-.4429,3.9827,3.9827,0,0,0,.9863-1.1973,4.1726,4.1726,0,0,0,.4424-2.4614.25.25,0,0,1,.2168-.2793.2393.2393,0,0,1,.2793.2173,4.6089,4.6089,0,0,1-.4971,2.76A4.4974,4.4974,0,0,1,306.4,297.56.25.25,0,0,1,306.2405,297.6172Z"/><path class="6f12388c-9a69-4021-a4cb-c7dc2915e566" d="M293.4215,302.7147q-.244.03-.4936.0639"/><path class="a3484576-b32e-4089-a0c5-bcfe310a40b5" d="M291.9463,302.9254c-4.2822.7016-9.4823,2.3682-13.2749,6.5393-6.7649,7.44-3.6054,16.8606-10,22-2.5294,2.033-9.4615,6.1838-15.8128-.27"/><path class="6f12388c-9a69-4021-a4cb-c7dc2915e566" d="M252.5081,330.8269q-.1688-.1826-.3367-.3752"/><path class="21c75f9b-8a5d-453c-a52f-527e4e4a2432" d="M135.3573,281.3679a.1558.1558,0,0,0,.2176-.1537,2.4916,2.4916,0,0,1,.121-.9612,2.5948,2.5948,0,0,1,.9284-1.2544.1559.1559,0,1,0-.1833-.2523,2.9079,2.9079,0,0,0-1.0412,1.4082,2.8125,2.8125,0,0,0-.1366,1.0806A.1566.1566,0,0,0,135.3573,281.3679Z"/><path class="37cb6185-2f97-4df5-972d-0da647f76869" d="M143.6576,280.7054a2.3624,2.3624,0,0,1-2.0067,2.6713,4.7216,4.7216,0,0,1-4.3855-1.765,4.7261,4.7261,0,0,1,3.7206-2.9148A2.3628,2.3628,0,0,1,143.6576,280.7054Z"/><ellipse class="2d369b05-a068-4ec2-82cb-a8029dc144ca" cx="137.4051" cy="283.5516" rx="2.5804" ry="3.496" transform="translate(-171.8323 223.1039) rotate(-53.0855)"/><g class="1add6cec-53cb-4a92-a559-9e8fd82b508f"><rect class="21c75f9b-8a5d-453c-a52f-527e4e4a2432" x="131.8521" y="280.1831" width="10.6746" height="6.5671" transform="translate(76.6202 592.5066) rotate(-143.0855)"/><rect class="2d369b05-a068-4ec2-82cb-a8029dc144ca" x="137.039" y="284.3211" width="5.6485" height="2.1542" transform="translate(-172.3269 225.8068) rotate(-53.0855)"/><rect class="2d369b05-a068-4ec2-82cb-a8029dc144ca" x="134.5357" y="282.8537" width="5.6485" height="1.328" transform="translate(-171.8232 223.0543) rotate(-53.0855)"/><rect class="2d369b05-a068-4ec2-82cb-a8029dc144ca" x="131.982" y="280.3461" width="5.6485" height="2.5062" transform="translate(-171.3092 220.2463) rotate(-53.0855)"/></g><path class="37cb6185-2f97-4df5-972d-0da647f76869" d="M142.0618,277.29a2.3624,2.3624,0,0,1-.1729,3.3366,4.7215,4.7215,0,0,1-4.6235.985,4.7259,4.7259,0,0,1,1.4586-4.4958A2.3628,2.3628,0,0,1,142.0618,277.29Z"/><path class="21c75f9b-8a5d-453c-a52f-527e4e4a2432" d="M134.9284,281.6159a.1561.1561,0,0,0,.2007-.2145,2.4862,2.4862,0,0,1-.2695-.93,2.605,2.605,0,0,1,.3547-1.52.1559.1559,0,0,0-.0553-.2137.1493.1493,0,0,0-.2138.0556,2.877,2.877,0,0,0-.397,1.7048,2.8071,2.8071,0,0,0,.3031,1.0461A.1561.1561,0,0,0,134.9284,281.6159Z"/><path class="6f12388c-9a69-4021-a4cb-c7dc2915e566" d="M141.017,287.7058q.2108.1234.4273.256"/><path class="12bd85bf-8bca-4dd3-80c7-4f1eed3e8bea" d="M142.267,288.4917a13.7226,13.7226,0,0,1,5.5371,6.7287c2.0392,5.9368-2.1,10.556.2956,15.0824.9269,1.7513,3.7677,5.7052,8.7914,3.8836"/><path class="6f12388c-9a69-4021-a4cb-c7dc2915e566" d="M157.3525,314.0053q.2252-.0951.4559-.2057"/><polygon class="c2d35482-c4f3-48e7-86e2-b51a9e3ba154" points="293.421 315.278 294.145 314.476 294.09 315.555 295.169 315.5 294.367 316.224 295.169 316.948 294.09 316.893 294.145 317.972 293.421 317.17 292.697 317.972 292.753 316.893 291.674 316.948 292.476 316.224 291.674 315.5 292.753 315.555 292.697 314.476 293.421 315.278"/></svg>