<svg xmlns="http://www.w3.org/2000/svg" xmlns:xlink="http://www.w3.org/1999/xlink" width="419.9947mm" height="79.526mm" viewBox="0 0 1190.5362 225.428"><defs><style>.a59efadb-e171-48d9-92e2-f8e409a30e3e{fill:none;}.\30 0ab00a3-088f-4ad7-beae-ed9e6de6ac89{fill:#19a880;}.fae69869-55d6-4561-b0b2-83aa2af045fe{fill:#d7ead8;}.\31 4ad3438-0e2e-4911-b059-b9ffd7afbe00{fill:#daebe7;}.d67ca564-62aa-4f13-96f6-18a184cdd5d5{fill:#eb5a59;}.a58be46e-6d85-4c9f-a857-6b45bd6f822e{clip-path:url(#37692f9f-b3ed-4aa9-9a52-44b38711a92d);}.\35 23482b6-39ba-43ec-b52a-47eaba92ea55{fill:#fff;}.d27aead1-62e0-407c-90fd-bd77570f2f3f{fill:#fad7d7;}.\34 52f50d6-f42b-4ec7-af32-a51ca516c8f0{fill:#335c72;}.e1c2c53e-3ea1-4f28-8b60-5454ddee601c{isolation:isolate;}.\38 a7d6b1a-c16e-48e4-b9f0-b980c5e3a0eb{fill:#10669b;}.ec1c110f-03f0-416c-9aec-9cf5f5c609a1{fill:#2775a5;}</style><clipPath id="37692f9f-b3ed-4aa9-9a52-44b38711a92d"><polygon class="a59efadb-e171-48d9-92e2-f8e409a30e3e" points="133.842 88.349 127.22 88.349 123.909 88.349 117.287 88.349 112.872 153.897 123.909 153.897 127.22 153.897 138.257 153.897 133.842 88.349"/></clipPath></defs><title>Footer</title><g id="766af079-e6ba-472d-aac5-00eaebd79b02" data-name="Dessin"><path class="00ab00a3-088f-4ad7-beae-ed9e6de6ac89" d="M1215.7317,115.2456c-52.5792,1.4382-135.07,5.0358-236.4342,15.4335-124.8751,12.81-171.9039,25.0158-258.9366,31.9916-72.0493,5.7749-178.5174,8.5263-311.0558-10.0716l-2.5994,34.64,802.7507,60.2392Z"/><path class="fae69869-55d6-4561-b0b2-83aa2af045fe" d="M-11.2513,114.8844a1940.3176,1940.3176,0,0,1,305.4755,15.85c106.3216,13.9384,118.4615,24.4335,237.752,41.7868,188.9447,27.486,333.2721,26.5823,376.0808,25.9366a2179.3341,2179.3341,0,0,0,293.9481-24.4957v86.4734H-11.6134Z"/><circle class="14ad3438-0e2e-4911-b059-b9ffd7afbe00" cx="125.5645" cy="79.0777" r="23.0183"/><circle class="14ad3438-0e2e-4911-b059-b9ffd7afbe00" cx="109.8676" cy="84.0344" r="3.1541"/><path class="d67ca564-62aa-4f13-96f6-18a184cdd5d5" d="M125.5645,66.3891a1.6952,1.6952,0,0,0-1.6952,1.6952V69.78h3.39V68.0843A1.6952,1.6952,0,0,0,125.5645,66.3891Z"/><g class="a58be46e-6d85-4c9f-a857-6b45bd6f822e"><rect class="d67ca564-62aa-4f13-96f6-18a184cdd5d5" x="105.2426" y="88.3492" width="40.535" height="67.8475"/><rect class="523482b6-39ba-43ec-b52a-47eaba92ea55" x="107.2092" y="88.3492" width="53.8735" height="5.0016"/><rect class="523482b6-39ba-43ec-b52a-47eaba92ea55" x="107.2092" y="98.4446" width="53.8735" height="5.0016"/><rect class="523482b6-39ba-43ec-b52a-47eaba92ea55" x="107.2092" y="108.5396" width="53.8735" height="5.0016"/><rect class="523482b6-39ba-43ec-b52a-47eaba92ea55" x="107.2092" y="118.6351" width="53.8735" height="5.0016"/><rect class="523482b6-39ba-43ec-b52a-47eaba92ea55" x="107.2092" y="128.7305" width="53.8735" height="5.0016"/><rect class="523482b6-39ba-43ec-b52a-47eaba92ea55" x="107.2092" y="138.8255" width="53.8735" height="5.0016"/><rect class="523482b6-39ba-43ec-b52a-47eaba92ea55" x="107.2092" y="148.9209" width="53.8735" height="5.0016"/><rect class="d27aead1-62e0-407c-90fd-bd77570f2f3f" x="107.2092" y="159.0159" width="53.8735" height="5.0016"/><rect class="d27aead1-62e0-407c-90fd-bd77570f2f3f" x="107.2092" y="169.1113" width="53.8735" height="5.0016"/><rect class="d27aead1-62e0-407c-90fd-bd77570f2f3f" x="107.2092" y="179.2063" width="53.8735" height="5.0016"/></g><path class="523482b6-39ba-43ec-b52a-47eaba92ea55" d="M125.5645,69.216a8.2519,8.2519,0,0,0-8.2518,8.2518V85.72h16.5036V77.4678A8.2519,8.2519,0,0,0,125.5645,69.216Z"/><path class="523482b6-39ba-43ec-b52a-47eaba92ea55" d="M125.5645,74.64a3.7777,3.7777,0,0,0-3.7777,3.7777v3.7778h7.5554V78.4178A3.7777,3.7777,0,0,0,125.5645,74.64Z"/><rect class="d67ca564-62aa-4f13-96f6-18a184cdd5d5" x="114.3819" y="85.3357" width="22.3652" height="3.0135"/><path class="452f50d6-f42b-4ec7-af32-a51ca516c8f0" d="M125.5645,146.1925a2.0623,2.0623,0,0,0-2.0623,2.0623v5.6424h4.1246v-5.6424A2.0623,2.0623,0,0,0,125.5645,146.1925Z"/><path class="452f50d6-f42b-4ec7-af32-a51ca516c8f0" d="M125.5645,130.293a2.0623,2.0623,0,0,0-2.0623,2.0623V135.65h4.1246v-3.2947A2.0623,2.0623,0,0,0,125.5645,130.293Z"/><path class="452f50d6-f42b-4ec7-af32-a51ca516c8f0" d="M125.5645,113.5042a2.0623,2.0623,0,0,0-2.0623,2.0623v3.2947h4.1246v-3.2947A2.0623,2.0623,0,0,0,125.5645,113.5042Z"/><path class="452f50d6-f42b-4ec7-af32-a51ca516c8f0" d="M125.5645,96.7154a2.0622,2.0622,0,0,0-2.0623,2.0622v3.2948h4.1246V98.7776A2.0622,2.0622,0,0,0,125.5645,96.7154Z"/><path class="452f50d6-f42b-4ec7-af32-a51ca516c8f0" d="M123.85,78.2006a12.2632,12.2632,0,0,1-3.5658,2.1333,11.633,11.633,0,0,1-4.1455.76,12.4282,12.4282,0,0,1-4.1768-.7321,14.2922,14.2922,0,0,1-3.76-1.9951l-.0078-.0058a1.139,1.139,0,0,1,1.3708-1.8195c.02.0152.0422.033.0611.0493a12.1531,12.1531,0,0,0,3.0631,1.8959,10.5468,10.5468,0,0,0,3.5041.8624,10.0173,10.0173,0,0,0,3.6058-.4135,10.916,10.916,0,0,0,3.291-1.6825l.0013-.001a.6078.6078,0,0,1,.7591.9487Z"/><path class="452f50d6-f42b-4ec7-af32-a51ca516c8f0" d="M121.7877,79.0762a16.1551,16.1551,0,0,1-5.0028-1.1979,16.7263,16.7263,0,0,1-4.4137-2.721A20.5828,20.5828,0,0,1,108.89,71.312a24.4874,24.4874,0,0,1-2.5159-4.5343,1.1387,1.1387,0,1,1,2.0949-.8935c.0085.02.0177.0439.025.064a22.3732,22.3732,0,0,0,2.047,4.2692,18.7525,18.7525,0,0,0,2.9561,3.6861,15.1862,15.1862,0,0,0,3.8583,2.7076,14.9079,14.9079,0,0,0,4.5482,1.377.5474.5474,0,0,1-.1162,1.0881Z"/><path class="452f50d6-f42b-4ec7-af32-a51ca516c8f0" d="M105.1181,62.3568a20.602,20.602,0,0,1-.72-3.4239c-.0712-.5848-.1215-1.1759-.1409-1.7712s-.0145-1.1948.0154-1.7969l.0009-.0184a1.6842,1.6842,0,1,1,3.3642.1667,1.7773,1.7773,0,0,1-.0625.3786c-.138.4838-.2582.9766-.3572,1.4772s-.1731,1.0092-.2285,1.5228a18.3676,18.3676,0,0,0-.0637,3.1281l.0005.01a.9249.9249,0,0,1-1.8084.3275Z"/><g class="e1c2c53e-3ea1-4f28-8b60-5454ddee601c"><polygon class="523482b6-39ba-43ec-b52a-47eaba92ea55" points="94.703 153.396 105.407 159.726 105.381 173.581 83.949 176.593 83.974 162.738 94.703 153.396"/><polygon class="523482b6-39ba-43ec-b52a-47eaba92ea55" points="83.949 176.593 73.68 171.007 73.706 157.152 83.974 162.738 83.949 176.593"/><polygon class="452f50d6-f42b-4ec7-af32-a51ca516c8f0" points="83.974 162.738 73.706 157.152 84.435 147.81 94.703 153.396 83.974 162.738"/></g><polygon class="8a7d6b1a-c16e-48e4-b9f0-b980c5e3a0eb" points="82.468 175.797 80.704 174.837 80.704 167.267 82.468 168.227 82.468 175.797"/><polygon class="8a7d6b1a-c16e-48e4-b9f0-b980c5e3a0eb" points="77.509 165.188 75.744 164.229 75.744 160.288 77.509 161.248 77.509 165.188"/><polygon class="8a7d6b1a-c16e-48e4-b9f0-b980c5e3a0eb" points="98.609 165.036 101.894 164.58 101.894 168.709 98.609 169.165 98.609 165.036"/><polygon class="523482b6-39ba-43ec-b52a-47eaba92ea55" points="193.94 87.766 193.804 161.058 165.468 165.041 165.604 91.748 193.94 87.766"/><polygon class="452f50d6-f42b-4ec7-af32-a51ca516c8f0" points="165.604 91.748 155.336 86.162 183.671 82.18 193.94 87.766 165.604 91.748"/><polygon class="523482b6-39ba-43ec-b52a-47eaba92ea55" points="203.844 103.216 203.727 166.315 175.391 170.297 175.508 107.198 203.844 103.216"/><polygon class="523482b6-39ba-43ec-b52a-47eaba92ea55" points="175.508 107.198 165.585 101.8 165.604 91.748 155.336 86.162 155.199 159.455 165.468 165.041 165.468 164.899 175.391 170.297 175.508 107.198"/><polygon class="452f50d6-f42b-4ec7-af32-a51ca516c8f0" points="175.508 107.198 165.24 101.612 193.575 97.63 203.844 103.216 175.508 107.198"/><polygon class="ec1c110f-03f0-416c-9aec-9cf5f5c609a1" points="158.906 98.743 157.142 97.784 157.142 90.213 158.906 91.173 158.906 98.743"/><polygon class="ec1c110f-03f0-416c-9aec-9cf5f5c609a1" points="161.994 100.278 160.23 99.318 160.23 91.748 161.994 92.708 161.994 100.278"/><polygon class="ec1c110f-03f0-416c-9aec-9cf5f5c609a1" points="168.533 128.195 166.769 127.235 166.769 119.665 168.533 120.625 168.533 128.195"/><polygon class="ec1c110f-03f0-416c-9aec-9cf5f5c609a1" points="168.533 143.151 166.769 142.191 166.769 134.62 168.533 135.58 168.533 143.151"/><polygon class="ec1c110f-03f0-416c-9aec-9cf5f5c609a1" points="161.994 155.643 160.23 154.683 160.23 147.113 161.994 148.073 161.994 155.643"/><polygon class="ec1c110f-03f0-416c-9aec-9cf5f5c609a1" points="161.994 115.728 160.23 114.768 160.23 107.198 161.994 108.158 161.994 115.728"/><polygon class="ec1c110f-03f0-416c-9aec-9cf5f5c609a1" points="161.994 139.943 160.23 138.983 160.23 131.413 161.994 132.372 161.994 139.943"/><polygon class="ec1c110f-03f0-416c-9aec-9cf5f5c609a1" points="179.704 111.538 182.989 111.082 182.989 118.643 179.704 119.099 179.704 111.538"/><polygon class="ec1c110f-03f0-416c-9aec-9cf5f5c609a1" points="170.544 93.344 173.829 92.888 173.829 100.449 170.544 100.905 170.544 93.344"/><polygon class="ec1c110f-03f0-416c-9aec-9cf5f5c609a1" points="179.704 138.02 182.989 137.565 182.989 145.126 179.704 145.581 179.704 138.02"/><polygon class="ec1c110f-03f0-416c-9aec-9cf5f5c609a1" points="197.1 121.211 200.385 120.755 200.385 128.316 197.1 128.772 197.1 121.211"/><polygon class="ec1c110f-03f0-416c-9aec-9cf5f5c609a1" points="179.704 153.17 182.989 152.714 182.989 160.275 179.704 160.731 179.704 153.17"/></g></svg>