<svg xmlns="http://www.w3.org/2000/svg" width="1179.2796" height="172.9543" viewBox="0 0 1179.2796 172.9543"><defs><style>.\33 279c0f3-e4d4-4efa-a054-ff47be987e83{fill:#daefdb;}.\35 61e4706-8b7b-41b9-ad4b-d53713904f21{fill:#fff;}.\39 18fcb82-d110-47ea-bc7c-e1be79a3473a{fill:#335c72;}.abab0b43-96fa-4be2-89e2-3247cfb7f035{fill:#19a880;}.d321260a-6441-4d97-b27c-770be2ab688a{fill:none;stroke:#19a880;stroke-miterlimit:10;}</style></defs><title>Footer-fond-1</title><g id="6d17ea2f-3078-4233-b104-594013e3e039" data-name="Layer 4"><path class="3279c0f3-e4d4-4efa-a054-ff47be987e83" d="M0,173.4165c107.0263-42.4027,198.485-59.5109,260.5732-64.5968,82.3466-6.7455,152.5-.6292,196.5914,3.3979a1361.3922,1361.3922,0,0,1,135.9807,19.3357c82.08,15.5432,215.5228,32.9431,441.8145,41.8632l6.0943,15.1411L-17.3125,217.3405Z"/><polygon class="561e4706-8b7b-41b9-ad4b-d53713904f21" points="433.028 108.86 442.177 114.271 442.155 126.112 423.836 128.687 423.858 116.845 433.028 108.86"/><polygon class="561e4706-8b7b-41b9-ad4b-d53713904f21" points="423.836 128.687 415.06 123.912 415.082 112.071 423.858 116.845 423.836 128.687"/><polygon class="918fcb82-d110-47ea-bc7c-e1be79a3473a" points="423.858 116.845 415.082 112.071 424.252 104.086 433.028 108.86 423.858 116.845"/><polygon points="420.213 122.473 418.705 121.653 418.705 118.284 420.213 119.105 420.213 122.473"/><polygon points="431.127 119.146 433.934 118.756 433.934 122.286 431.127 122.675 431.127 119.146"/><polygon class="561e4706-8b7b-41b9-ad4b-d53713904f21" points="494.775 132.856 503.924 138.267 503.902 150.109 485.583 152.683 485.605 140.842 494.775 132.856"/><polygon class="561e4706-8b7b-41b9-ad4b-d53713904f21" points="485.583 152.683 476.807 147.909 476.829 136.067 485.605 140.842 485.583 152.683"/><polygon class="918fcb82-d110-47ea-bc7c-e1be79a3473a" points="485.605 140.842 476.829 136.067 485.999 128.082 494.775 132.856 485.605 140.842"/><polygon points="498.114 142.805 500.921 142.416 500.921 145.945 498.114 146.335 498.114 142.805"/><polygon class="561e4706-8b7b-41b9-ad4b-d53713904f21" points="322.723 116.835 331.872 122.246 331.85 134.087 313.531 136.662 313.553 124.82 322.723 116.835"/><polygon class="561e4706-8b7b-41b9-ad4b-d53713904f21" points="313.531 136.662 304.755 131.887 304.777 120.046 313.553 124.82 313.531 136.662"/><polygon class="918fcb82-d110-47ea-bc7c-e1be79a3473a" points="313.553 124.82 304.777 120.046 313.947 112.06 322.723 116.835 313.553 124.82"/><polygon points="312.266 135.981 310.758 135.161 310.758 128.691 312.266 129.511 312.266 135.981"/><polygon points="308.027 126.914 306.519 126.094 306.519 122.726 308.027 123.546 308.027 126.914"/><polygon points="326.062 126.784 328.869 126.394 328.869 129.924 326.062 130.313 326.062 126.784"/><polygon class="561e4706-8b7b-41b9-ad4b-d53713904f21" points="588.777 144.772 588.741 157.399 579.13 151.85 579.166 139.223 588.777 144.772"/><polygon class="561e4706-8b7b-41b9-ad4b-d53713904f21" points="588.777 144.772 595.578 140.82 595.542 153.446 588.741 157.399 588.777 144.772"/><polygon class="918fcb82-d110-47ea-bc7c-e1be79a3473a" points="579.166 139.223 585.967 135.271 595.578 140.82 588.777 144.772 579.166 139.223"/><polygon points="582.743 144.688 582.736 151.056 580.88 149.985 580.887 143.616 582.743 144.688"/><polygon class="abab0b43-96fa-4be2-89e2-3247cfb7f035" points="548.638 116.801 551.771 113.33 551.532 118 556.201 117.761 552.731 120.894 556.201 124.027 551.532 123.789 551.771 128.458 548.638 124.988 545.505 128.458 545.743 123.789 541.074 124.027 544.544 120.894 541.074 117.761 545.743 118 545.505 113.33 548.638 116.801"/><polygon class="abab0b43-96fa-4be2-89e2-3247cfb7f035" points="373.466 114.95 376.599 111.479 376.36 116.149 381.029 115.91 377.559 119.043 381.029 122.176 376.36 121.938 376.599 126.607 373.466 123.137 370.333 126.607 370.571 121.938 365.902 122.176 369.372 119.043 365.902 115.91 370.571 116.149 370.333 111.479 373.466 114.95"/><line class="d321260a-6441-4d97-b27c-770be2ab688a" x1="373.4658" y1="122.4894" x2="373.4658" y2="137.2011"/><line class="d321260a-6441-4d97-b27c-770be2ab688a" x1="548.6375" y1="121.3351" x2="548.6375" y2="136.0468"/></g></svg>