<svg xmlns="http://www.w3.org/2000/svg" width="1179.2796" height="172.9543" viewBox="0 0 1179.2796 172.9543"><defs><style>.\34 3cdb831-976e-4339-8643-57c62581ba0a{fill:#e1dd76;}.\38 6461e2f-48ee-4c91-a514-46620a7feb46{fill:#19a880;}.\35 367f031-ec4b-41b2-8851-8cdf68c882a7{fill:#fff;}.\36 5e77fb9-5f25-42e6-9338-5a0b5349d06b{fill:#335c72;}</style></defs><title>Footer-fond-2</title><g id="ec47debd-06f4-43aa-a6ef-a76a4cfe56ef" data-name="Layer 3"><path class="43cdb831-976e-4339-8643-57c62581ba0a" d="M871.7975,142.2958A907.295,907.295,0,0,0,1014.148,101.234,908.8692,908.8692,0,0,0,1194.1747,8.7877l2.0532,166.5918Z"/><path class="86461e2f-48ee-4c91-a514-46620a7feb46" d="M1179.28,96.3082c-35.9749,6.9082-84.2664,15.6331-141.51,24.3672-76.361,11.6511-143.8654,19.5371-196.1878,24.7659h0l-.0048,0c-11.6077,1.16-22.4711,2.19-32.5145,3.1L527.5891,175.38l-170.1648-3.6451v60.4112h805.9314l46.86,8.4919Z"/><polygon class="5367f031-ec4b-41b2-8851-8cdf68c882a7" points="1065.407 113.368 1074.555 118.779 1074.533 130.62 1056.215 133.195 1056.237 121.353 1065.407 113.368"/><polygon class="5367f031-ec4b-41b2-8851-8cdf68c882a7" points="1056.215 133.195 1047.438 128.42 1047.46 116.579 1056.237 121.353 1056.215 133.195"/><polygon class="65e77fb9-5f25-42e6-9338-5a0b5349d06b" points="1056.237 121.353 1047.46 116.579 1056.63 108.593 1065.407 113.368 1056.237 121.353"/><polygon points="1054.95 132.514 1053.441 131.694 1053.441 125.224 1054.95 126.044 1054.95 132.514"/><polygon points="1050.711 123.447 1049.203 122.627 1049.203 119.259 1050.711 120.079 1050.711 123.447"/><polygon points="1068.745 123.317 1071.553 122.927 1071.553 126.457 1068.745 126.846 1068.745 123.317"/><polygon class="5367f031-ec4b-41b2-8851-8cdf68c882a7" points="1152.452 62.579 1152.316 135.871 1123.98 139.854 1124.116 66.561 1152.452 62.579"/><polygon class="65e77fb9-5f25-42e6-9338-5a0b5349d06b" points="1124.116 66.561 1113.847 60.975 1142.183 56.993 1152.452 62.579 1124.116 66.561"/><polygon class="5367f031-ec4b-41b2-8851-8cdf68c882a7" points="1162.356 78.029 1162.238 141.128 1133.903 145.11 1134.02 82.011 1162.356 78.029"/><polygon class="5367f031-ec4b-41b2-8851-8cdf68c882a7" points="1134.02 82.011 1124.097 76.613 1124.116 66.561 1113.847 60.975 1113.711 134.268 1123.98 139.854 1123.98 139.713 1133.903 145.11 1134.02 82.011"/><polygon class="65e77fb9-5f25-42e6-9338-5a0b5349d06b" points="1134.02 82.011 1123.751 76.425 1152.087 72.443 1162.356 78.029 1134.02 82.011"/><polygon points="1117.418 73.557 1115.654 72.597 1115.654 65.026 1117.418 65.986 1117.418 73.557"/><polygon points="1120.506 75.091 1118.741 74.132 1118.741 66.561 1120.506 67.521 1120.506 75.091"/><polygon points="1127.045 103.008 1125.28 102.048 1125.28 94.478 1127.045 95.438 1127.045 103.008"/><polygon points="1127.045 117.964 1125.28 117.004 1125.28 109.434 1127.045 110.393 1127.045 117.964"/><polygon points="1120.506 130.456 1118.741 129.496 1118.741 121.926 1120.506 122.886 1120.506 130.456"/><polygon points="1120.506 90.541 1118.741 89.581 1118.741 82.011 1120.506 82.971 1120.506 90.541"/><polygon points="1120.506 114.756 1118.741 113.796 1118.741 106.226 1120.506 107.186 1120.506 114.756"/><polygon points="1138.216 86.351 1141.501 85.895 1141.501 93.456 1138.216 93.912 1138.216 86.351"/><polygon points="1129.055 68.157 1132.34 67.701 1132.34 75.262 1129.055 75.718 1129.055 68.157"/><polygon points="1138.216 112.833 1141.501 112.378 1141.501 119.939 1138.216 120.394 1138.216 112.833"/><polygon points="1155.612 96.024 1158.897 95.568 1158.897 103.129 1155.612 103.585 1155.612 96.024"/><polygon points="1138.216 127.983 1141.501 127.527 1141.501 135.088 1138.216 135.544 1138.216 127.983"/><polygon class="5367f031-ec4b-41b2-8851-8cdf68c882a7" points="1099.279 149.494 1099.243 162.12 1089.632 156.571 1089.668 143.945 1099.279 149.494"/><polygon class="5367f031-ec4b-41b2-8851-8cdf68c882a7" points="1099.279 149.494 1106.08 145.541 1106.044 158.168 1099.243 162.12 1099.279 149.494"/><polygon class="65e77fb9-5f25-42e6-9338-5a0b5349d06b" points="1089.668 143.945 1096.469 139.992 1106.08 145.541 1099.279 149.494 1089.668 143.945"/><polygon points="1093.245 149.409 1093.238 155.778 1091.382 154.707 1091.389 148.338 1093.245 149.409"/></g></svg>