<svg xmlns="http://www.w3.org/2000/svg" width="1179.2796" height="172.9543" viewBox="0 0 1179.2796 172.9543"><defs><style>.\32 7d3d8f3-9236-4adc-acd3-64457136f02b{fill:#ffd9d9;}.df192ea0-75cf-439b-935d-cc262ba69ff5{fill:#19a880;}.e98752aa-bb1f-4b6d-976c-f83316697bce{fill:#fff;}.\38 0a3d0a0-1eeb-43b5-8dd3-fa2ddeda79bd{fill:#335c72;}</style></defs><title>Footer-fond-3</title><g id="6ac46bd4-684d-4268-a70c-6649e4ad4885" data-name="Layer 2"><path class="27d3d8f3-9236-4adc-acd3-64457136f02b" d="M-.01,114.0167c44.1191.9575,90.9487,3.5286,140.1457,8.291,71.1048,6.8833,155.5325,22.9617,217.2881,33.9761,29.0013,5.1726,114.091,14.8606,159.4674,17.1328,35.5325,1.7793,12.0912,9.5407,31.7464,8.1814v13.4026H.005Z"/><path class="df192ea0-75cf-439b-935d-cc262ba69ff5" d="M-.0137,134.0375a332.095,332.095,0,0,1,46.6946,13.4309c12.8181,4.7446,14.6272,6.35,23.7984,8.913,18.5732,5.191,28.6709,3.5027,46.6782,5.066,24.1689,2.0979,50.1338,8.9719,49.935,11.9692-.2273,3.4258-34.8879,5.657-171.5156,1.9629"/><polygon class="e98752aa-bb1f-4b6d-976c-f83316697bce" points="31.663 135.992 42.366 142.323 42.341 156.177 20.908 159.189 20.934 145.335 31.663 135.992"/><polygon class="e98752aa-bb1f-4b6d-976c-f83316697bce" points="20.908 159.189 10.64 153.604 10.666 139.749 20.934 145.335 20.908 159.189"/><polygon class="80a3d0a0-1eeb-43b5-8dd3-fa2ddeda79bd" points="20.934 145.335 10.666 139.749 21.394 130.406 31.663 135.992 20.934 145.335"/><polygon points="35.569 147.632 38.854 147.177 38.854 151.306 35.569 151.762 35.569 147.632"/><polygon points="19.428 158.394 17.663 157.434 17.663 149.863 19.428 150.823 19.428 158.394"/><polygon points="14.469 147.785 12.704 146.825 12.704 142.885 14.469 143.844 14.469 147.785"/></g></svg>