<svg xmlns="http://www.w3.org/2000/svg" width="93.56mm" height="25.5627mm" viewBox="0 0 265.2095 72.4612"><defs><style>.a{fill:#576775;}.b,.c,.d{fill:none;stroke:#c9ddef;stroke-linecap:round;stroke-miterlimit:10;}.c{stroke-dasharray:3.1376 3.1376;}.d{stroke-dasharray:3;}</style></defs><title>Texte</title><path class="a" d="M41.1433,17.749H40.16V16.79a1.9636,1.9636,0,0,1-.5947.7314,1.9009,1.9009,0,0,1-1.2412.36,1.7616,1.7616,0,0,1-1.4814-.6777,2.8022,2.8022,0,0,1-.5225-1.7588v-3.336h.9951V15.206a2.1507,2.1507,0,0,0,.33,1.23,1.12,1.12,0,0,0,.99.4854,1.3346,1.3346,0,0,0,1.1289-.5215,2.26,2.26,0,0,0,.3955-1.3985V12.1093h.9834Z"/><path class="a" d="M42.4637,17.749v-5.64H43.46v1.0088a2.062,2.062,0,0,1,.6962-.8164,1.9836,1.9836,0,0,1,1.1045-.2763,1.4022,1.4022,0,0,1,.4434.0722v.9834a2.0262,2.0262,0,0,0-.48-.06q-1.7637,0-1.7636,2.22V17.749Z"/><path class="a" d="M46.4842,9.23h.9951v3.8281A1.9516,1.9516,0,0,1,49.28,11.9658a2.6075,2.6075,0,0,1,1.4043.3955,2.779,2.779,0,0,1,.9961,1.0742A3.1089,3.1089,0,0,1,52.04,14.917a3.0761,3.0761,0,0,1-.3593,1.4531,2.9253,2.9253,0,0,1-.99,1.0976,2.5176,2.5176,0,0,1-1.41.4141A1.9562,1.9562,0,0,1,47.4793,16.79v.959h-.9951Zm4.08,7.1162a2.1768,2.1768,0,0,0,.48-1.44,2.0852,2.0852,0,0,0-.4863-1.4218,1.6518,1.6518,0,0,0-1.3135-.5586,1.5956,1.5956,0,0,0-1.3017.5586,2.2076,2.2076,0,0,0-.4629,1.458,2.16,2.16,0,0,0,.457,1.4345,1.6093,1.6093,0,0,0,1.3076.545A1.6274,1.6274,0,0,0,50.5642,16.3457Z"/><path class="a" d="M57.4637,17.749V16.79a1.9564,1.9564,0,0,1-1.8,1.0918,2.5121,2.5121,0,0,1-1.4092-.4141,2.917,2.917,0,0,1-.99-1.0976,3.0771,3.0771,0,0,1-.36-1.4531,3.11,3.11,0,0,1,.36-1.4815,2.7715,2.7715,0,0,1,.9961-1.0742,2.6042,2.6042,0,0,1,1.4034-.3955,1.9518,1.9518,0,0,1,1.8,1.0918v-.9483h.9843v5.64Zm-.462-1.3731a2.1467,2.1467,0,0,0,.462-1.4345,2.2121,2.2121,0,0,0-.462-1.458,1.6077,1.6077,0,0,0-1.3134-.5586,1.6538,1.6538,0,0,0-1.3145.5586,2.0852,2.0852,0,0,0-.4863,1.4218,2.1722,2.1722,0,0,0,.48,1.4405,1.8284,1.8284,0,0,0,2.6337.03Z"/><path class="a" d="M59.7683,12.1093h.9952v.96a1.9424,1.9424,0,0,1,.5947-.7441A1.902,1.902,0,0,1,62.6,11.9658a1.7615,1.7615,0,0,1,1.4814.6777,2.8034,2.8034,0,0,1,.5225,1.7578V17.749h-.9961V14.6416a2.1472,2.1472,0,0,0-.33-1.2305,1.1186,1.1186,0,0,0-.99-.4863,1.3334,1.3334,0,0,0-1.1289.5234,2.2567,2.2567,0,0,0-.3955,1.3975V17.749h-.9952Z"/><path class="a" d="M66.032,10.5009A.7436.7436,0,0,1,66.5594,9.23a.6979.6979,0,0,1,.5214.2158.7656.7656,0,0,1,0,1.0556.6951.6951,0,0,1-.5214.2168A.7146.7146,0,0,1,66.032,10.5009Zm.0235,1.5967h.996V17.749h-.996Z"/><path class="a" d="M70.5437,17.8818a2.69,2.69,0,0,1-.93-.1563,2.1307,2.1307,0,0,1-.7265-.4316,1.9483,1.9483,0,0,1-.4619-.6367,1.8442,1.8442,0,0,1-.1621-.7676h.9716a1.0157,1.0157,0,0,0,.3965.84,1.4,1.4,0,0,0,.9.288,1.3,1.3,0,0,0,.7969-.2275.67.67,0,0,0,.3066-.5527.7551.7551,0,0,0-.3838-.6241,1.8987,1.8987,0,0,0-.3955-.1738c-.16-.0517-.32-.1025-.48-.1494a8.0782,8.0782,0,0,1-1.0743-.3672,1.57,1.57,0,0,1-.624-.4795,1.3027,1.3027,0,0,1-.2334-.81,1.4847,1.4847,0,0,1,.5576-1.2187,2.1991,2.1991,0,0,1,1.4219-.4492,2.1493,2.1493,0,0,1,1.5479.539,1.7541,1.7541,0,0,1,.3906.5469,1.4888,1.4888,0,0,1,.1367.6172h-.9707a.7575.7575,0,0,0-.3183-.5937,1.2108,1.2108,0,0,0-.7862-.2579,1.0912,1.0912,0,0,0-.708.2227.7106.7106,0,0,0-.2754.582.5247.5247,0,0,0,.1494.39.894.894,0,0,0,.33.2158c.12.0439.3438.1133.6719.21a4.153,4.153,0,0,1,1.3564.5166,1.57,1.57,0,0,1,.51.5507,1.4412,1.4412,0,0,1,.1738.6846,1.5363,1.5363,0,0,1-.1562.6719,1.5535,1.5535,0,0,1-.4434.5517A2.3453,2.3453,0,0,1,70.5437,17.8818Z"/><path class="a" d="M73.784,12.1093H74.78v.96a1.9294,1.9294,0,0,1,.5937-.7441,1.902,1.902,0,0,1,1.2422-.3594,1.6761,1.6761,0,0,1,1.1094.3535,1.9271,1.9271,0,0,1,.6064.9785,3.1235,3.1235,0,0,1,.12-.2891,1.8988,1.8988,0,0,1,1.836-1.0429,1.5849,1.5849,0,0,1,1.4043.666,3.0868,3.0868,0,0,1,.4551,1.77V17.749h-.9961V14.6416q0-1.7169-1.1758-1.7168a1.35,1.35,0,0,0-1.0313.4082,1.894,1.894,0,0,0-.4687,1.1045V17.749h-.9961V14.6416q0-1.7169-1.1758-1.7168a1.3315,1.3315,0,0,0-1.1279.5234,2.25,2.25,0,0,0-.3955,1.3975V17.749H73.784Z"/><path class="a" d="M83.239,14.9414a3.41,3.41,0,0,1,.33-1.5,2.6286,2.6286,0,0,1,.9365-1.08,2.5192,2.5192,0,0,1,1.4092-.3955,2.5552,2.5552,0,0,1,2.3526,1.4336,3.248,3.248,0,0,1,.3359,1.4824,2.584,2.584,0,0,1-.0361.4316H84.2234a2.1394,2.1394,0,0,0,.5342,1.1875,1.5949,1.5949,0,0,0,1.2412.48,1.4207,1.4207,0,0,0,1.5371-1.1035h.9717a2.2208,2.2208,0,0,1-.7861,1.4394,2.5667,2.5667,0,0,1-1.7227.5645,2.6042,2.6042,0,0,1-1.4277-.3906,2.6886,2.6886,0,0,1-.9531-1.043,3.3734,3.3734,0,0,1-.379-1.4228Zm4.3682-.5284a1.8881,1.8881,0,0,0-.54-1.121,1.5924,1.5924,0,0,0-1.1524-.4141,1.54,1.54,0,0,0-1.1328.42,1.927,1.927,0,0,0-.5351,1.1152Z"/><path class="a" d="M26.5488,17.2307a3.0121,3.0121,0,0,1-.4566-4.1989,2.8715,2.8715,0,0,1,2.0065-1.0875,2.7958,2.7958,0,0,1,2.1691.6335,3.0752,3.0752,0,0,1,.4566,4.1989,2.7966,2.7966,0,0,1-1.9823,1.0849A2.872,2.872,0,0,1,26.5488,17.2307Z"/><path class="a" d="M109.8226,25.95a.7437.7437,0,0,1,.5283-1.2715.6984.6984,0,0,1,.5224.2158.7711.7711,0,0,1,0,1.0557.6984.6984,0,0,1-.5224.2158A.7176.7176,0,0,1,109.8226,25.95Zm.0244,1.5966h.9961v5.6514h-.9961Z"/><path class="a" d="M112.3558,24.6787h.9951v6.456a1.6292,1.6292,0,0,0,.1982.93.8.8,0,0,0,.69.27,4.1015,4.1015,0,0,0,.5761-.06v.9121a3.996,3.996,0,0,1-.8037.084,1.6447,1.6447,0,0,1-1.2177-.4258,1.9392,1.9392,0,0,1-.4375-1.3867Z"/><path class="a" d="M115.86,24.6787h.9951v6.456a1.6292,1.6292,0,0,0,.1982.93.8006.8006,0,0,0,.69.27,4.1015,4.1015,0,0,0,.5761-.06v.9121a3.996,3.996,0,0,1-.8037.084,1.6447,1.6447,0,0,1-1.2177-.4258,1.9392,1.9392,0,0,1-.4375-1.3867Z"/><path class="a" d="M124.1272,33.1982h-.9843v-.96a1.9815,1.9815,0,0,1-.5938.7325,1.91,1.91,0,0,1-1.2422.3593,1.7594,1.7594,0,0,1-1.4824-.6777,2.8035,2.8035,0,0,1-.5215-1.7578V27.5586h.9961v3.0957a2.1392,2.1392,0,0,0,.33,1.23,1.1176,1.1176,0,0,0,.99.4854,1.3311,1.3311,0,0,0,1.127-.5215,2.2559,2.2559,0,0,0,.3965-1.3984V27.5586h.9843Z"/><path class="a" d="M127.4866,33.33a2.6924,2.6924,0,0,1-.93-.1552,2.1522,2.1522,0,0,1-.7265-.4327,1.93,1.93,0,0,1-.461-.6357,1.8442,1.8442,0,0,1-.1621-.7676h.9717a1.0144,1.0144,0,0,0,.3955.84,1.4012,1.4012,0,0,0,.9.2881,1.2993,1.2993,0,0,0,.7979-.2286.67.67,0,0,0,.3056-.5517.7523.7523,0,0,0-.3828-.624,1.9061,1.9061,0,0,0-.3965-.1739c-.16-.0517-.32-.1025-.48-.15a8.1523,8.1523,0,0,1-1.0742-.3662,1.5663,1.5663,0,0,1-.623-.48,1.297,1.297,0,0,1-.2344-.81,1.48,1.48,0,0,1,.5586-1.2178,2.192,2.192,0,0,1,1.4219-.45,2.1452,2.1452,0,0,1,1.5469.54,1.7431,1.7431,0,0,1,.3906.5459,1.4942,1.4942,0,0,1,.1377.6181h-.9717a.7535.7535,0,0,0-.3184-.5937,1.2058,1.2058,0,0,0-.7851-.2578,1.0992,1.0992,0,0,0-.709.2216.712.712,0,0,0-.2754.5821.5277.5277,0,0,0,.15.3906.8984.8984,0,0,0,.33.2158c.1191.044.3437.1133.6718.21a4.1712,4.1712,0,0,1,1.3555.5156,1.5551,1.5551,0,0,1,.51.5518,1.4265,1.4265,0,0,1,.1738.6845,1.5222,1.5222,0,0,1-.1562.6719,1.5558,1.5558,0,0,1-.4434.5518A2.3447,2.3447,0,0,1,127.4866,33.33Z"/><path class="a" d="M130.1751,27.5586h.2519a.7963.7963,0,0,0,.6358-.2041.9016.9016,0,0,0,.168-.5879v-1.044h.9121v1.836h1.3925v.8994h-1.3925v2.6767a1.5853,1.5853,0,0,0,.2041.9356.8592.8592,0,0,0,.72.2646,4.9671,4.9671,0,0,0,.66-.06v.9238a5.2716,5.2716,0,0,1-.84.0723,1.7336,1.7336,0,0,1-1.3144-.45,2.0793,2.0793,0,0,1-.4258-1.458V28.458h-.9717Z"/><path class="a" d="M134.7474,33.1982v-5.64h.9951v1.0078a2.0765,2.0765,0,0,1,.6972-.8164,1.98,1.98,0,0,1,1.1036-.2754,1.3655,1.3655,0,0,1,.4433.0722V28.53a1.9672,1.9672,0,0,0-.48-.0595q-1.7637,0-1.7646,2.22v2.5078Z"/><path class="a" d="M142.9788,33.1982v-.96a1.9754,1.9754,0,0,1-.7324.8047,1.9968,1.9968,0,0,1-1.0674.2871,2.5052,2.5052,0,0,1-1.4092-.414,2.9022,2.9022,0,0,1-.99-1.0977,3.07,3.07,0,0,1-.36-1.4521,3.11,3.11,0,0,1,.36-1.4815,2.7646,2.7646,0,0,1,.9961-1.0742,2.6047,2.6047,0,0,1,1.4033-.3965,1.9547,1.9547,0,0,1,1.8,1.0928v-.9482h.9844v5.64Zm-.4619-1.374a2.1447,2.1447,0,0,0,.4619-1.4336,2.2126,2.2126,0,0,0-.4619-1.458,1.6078,1.6078,0,0,0-1.3135-.5586,1.6538,1.6538,0,0,0-1.3144.5586,2.0848,2.0848,0,0,0-.4864,1.4219,2.1744,2.1744,0,0,0,.4805,1.44,1.8275,1.8275,0,0,0,2.6338.0293Z"/><path class="a" d="M144.7425,27.5586h.2519a.7986.7986,0,0,0,.6367-.2041.9068.9068,0,0,0,.168-.5879v-1.044h.9121v1.836h1.3916v.8994h-1.3916v2.6767a1.5863,1.5863,0,0,0,.2032.9356.8627.8627,0,0,0,.7207.2646,4.9814,4.9814,0,0,0,.66-.06v.9238a5.2811,5.2811,0,0,1-.84.0723,1.731,1.731,0,0,1-1.3145-.45,2.0744,2.0744,0,0,1-.4258-1.458V28.458h-.9726Z"/><path class="a" d="M149.4222,25.95a.7437.7437,0,0,1,.5283-1.2715.6984.6984,0,0,1,.5224.2158.7711.7711,0,0,1,0,1.0557.6984.6984,0,0,1-.5224.2158A.7176.7176,0,0,1,149.4222,25.95Zm.0244,1.5966h.9961v5.6514h-.9961Z"/><path class="a" d="M153.0228,32.9228a2.8655,2.8655,0,0,1-.9961-1.0859,3.0379,3.0379,0,0,1-.36-1.4463,3.1767,3.1767,0,0,1,.3545-1.4942,2.7485,2.7485,0,0,1,.9961-1.08,2.67,2.67,0,0,1,1.4463-.4024,2.62,2.62,0,0,1,1.4219.3965,2.7343,2.7343,0,0,1,.9834,1.0742,3.151,3.151,0,0,1,.3544,1.4815,3.11,3.11,0,0,1-.3544,1.4521,2.8546,2.8546,0,0,1-.9834,1.0977,2.5308,2.5308,0,0,1-1.4219.414A2.611,2.611,0,0,1,153.0228,32.9228Zm2.7353-1.1279a2.21,2.21,0,0,0,.4688-1.44,2.13,2.13,0,0,0-.4688-1.4278,1.6066,1.6066,0,0,0-1.2949-.5527,1.6369,1.6369,0,0,0-1.3262.5644,2.179,2.179,0,0,0-.4746,1.4522,2.1068,2.1068,0,0,0,.4805,1.416,1.6411,1.6411,0,0,0,1.32.5635A1.5766,1.5766,0,0,0,155.7581,31.7949Z"/><path class="a" d="M158.3147,27.5586h.9961v.96a1.9409,1.9409,0,0,1,.5938-.7441,1.9056,1.9056,0,0,1,1.2422-.36,1.7628,1.7628,0,0,1,1.4824.6787,2.8031,2.8031,0,0,1,.5215,1.7578v3.3477h-.9961V30.0908a2.14,2.14,0,0,0-.33-1.2305,1.1174,1.1174,0,0,0-.99-.4863,1.3337,1.3337,0,0,0-1.128.5224,2.26,2.26,0,0,0-.3955,1.3985v2.9033h-.9961Z"/><path class="a" d="M99.9428,32.6789a2.9762,2.9762,0,0,1,1.55-5.2864,2.7959,2.7959,0,0,1,2.169.6335,3.075,3.075,0,0,1,.4566,4.1989,2.7957,2.7957,0,0,1-1.9822,1.0849A2.8718,2.8718,0,0,1,99.9428,32.6789Z"/><path class="a" d="M145.639,50.2924h.9961v.96a1.9306,1.9306,0,0,1,.5938-.7432,1.9061,1.9061,0,0,1,1.2422-.36,1.68,1.68,0,0,1,1.1093.3535,1.9278,1.9278,0,0,1,.6074.9785c.0469-.1279.0879-.2236.1192-.2881a1.9,1.9,0,0,1,1.8359-1.0439,1.5838,1.5838,0,0,1,1.4043.666,3.0832,3.0832,0,0,1,.4561,1.77v3.3487h-.9961V52.8247q0-1.7154-1.1768-1.7159a1.3466,1.3466,0,0,0-1.0312.4083,1.8945,1.8945,0,0,0-.4688,1.1035v3.3125h-.9951V52.8247q0-1.7154-1.1767-1.7159a1.3292,1.3292,0,0,0-1.127.5225,2.25,2.25,0,0,0-.3965,1.3975v2.9043h-.9961Z"/><path class="a" d="M155.0951,53.1245a3.4091,3.4091,0,0,1,.33-1.5,2.6206,2.6206,0,0,1,.9365-1.08,2.5164,2.5164,0,0,1,1.4092-.3955,2.5549,2.5549,0,0,1,2.3525,1.4336,3.251,3.251,0,0,1,.3359,1.4824,2.4756,2.4756,0,0,1-.0371.4316h-4.3437a2.14,2.14,0,0,0,.5351,1.1885,1.5915,1.5915,0,0,0,1.2412.4795,1.419,1.419,0,0,0,1.5362-1.1035h.9726a2.2169,2.2169,0,0,1-.7871,1.4394,2.5656,2.5656,0,0,1-1.7217.5645,2.5991,2.5991,0,0,1-1.4277-.39,2.7078,2.7078,0,0,1-.9541-1.044,3.372,3.372,0,0,1-.3779-1.4228Zm.8525-4.56,2.9746-1.6445.4688.8281-2.9766,1.6562Zm3.5156,4.0322a1.8884,1.8884,0,0,0-.541-1.122,1.5914,1.5914,0,0,0-1.1513-.4141,1.5424,1.5424,0,0,0-1.1338.42,1.9351,1.9351,0,0,0-.5342,1.1162Z"/><path class="a" d="M165.8949,55.9331v-.96a1.9562,1.9562,0,0,1-1.8008,1.0918,2.5068,2.5068,0,0,1-1.4092-.4141,2.9093,2.9093,0,0,1-.99-1.0976,3.0719,3.0719,0,0,1-.36-1.4522,3.11,3.11,0,0,1,.36-1.4824,2.7708,2.7708,0,0,1,.9961-1.0742,2.6039,2.6039,0,0,1,1.4033-.3955,1.9562,1.9562,0,0,1,1.8008,1.0918V47.4126h.9844v8.5205Zm-.4629-1.3741a2.1424,2.1424,0,0,0,.4629-1.4345,2.2094,2.2094,0,0,0-.4629-1.458,1.606,1.606,0,0,0-1.3135-.5577,1.6528,1.6528,0,0,0-1.3135.5577,2.0868,2.0868,0,0,0-.4863,1.4218,2.1727,2.1727,0,0,0,.4805,1.4405,1.8253,1.8253,0,0,0,2.6328.03Z"/><path class="a" d="M168.307,48.685a.7441.7441,0,0,1,.5273-1.2724.6982.6982,0,0,1,.5215.2158.7669.7669,0,0,1,0,1.0566.6982.6982,0,0,1-.5215.2158A.7172.7172,0,0,1,168.307,48.685Zm.0234,1.5957h.9961v5.6524H168.33Z"/><path class="a" d="M175.1107,55.9331v-.96a1.9561,1.9561,0,0,1-1.8,1.0918,2.508,2.508,0,0,1-1.41-.4141,2.9175,2.9175,0,0,1-.99-1.0976,3.0721,3.0721,0,0,1-.3594-1.4522,3.11,3.11,0,0,1,.3594-1.4824,2.7783,2.7783,0,0,1,.9961-1.0742,2.6073,2.6073,0,0,1,1.4043-.3955,1.9561,1.9561,0,0,1,1.8,1.0918v-.9483h.9834v5.6407Zm-.4619-1.3741a2.1472,2.1472,0,0,0,.4619-1.4345,2.2144,2.2144,0,0,0-.4619-1.458,1.6106,1.6106,0,0,0-1.3145-.5577,1.6545,1.6545,0,0,0-1.3144.5577,2.0907,2.0907,0,0,0-.4854,1.4218,2.1774,2.1774,0,0,0,.48,1.4405,1.8276,1.8276,0,0,0,2.6348.03Z"/><path class="a" d="M176.8744,50.2924h.2519a.7927.7927,0,0,0,.6358-.2041A.8994.8994,0,0,0,177.93,49.5V48.4565h.9121v1.8359h1.3926v.9h-1.3926v2.6758a1.5891,1.5891,0,0,0,.2041.9365.8593.8593,0,0,0,.72.2637,4.9211,4.9211,0,0,0,.66-.06v.9239a5.276,5.276,0,0,1-.84.0713,1.7337,1.7337,0,0,1-1.3145-.4493,2.0806,2.0806,0,0,1-.4257-1.458V51.1928h-.9717Z"/><path class="a" d="M181.555,48.685a.7441.7441,0,0,1,.5274-1.2724.6983.6983,0,0,1,.5215.2158.7671.7671,0,0,1,0,1.0566.6983.6983,0,0,1-.5215.2158A.7176.7176,0,0,1,181.555,48.685Zm.0235,1.5957h.9961v5.6524h-.9961Z"/><path class="a" d="M185.1546,55.6567a2.86,2.86,0,0,1-.996-1.0859,3.034,3.034,0,0,1-.3594-1.4463,3.1691,3.1691,0,0,1,.3535-1.4932,2.7573,2.7573,0,0,1,.9961-1.08,2.6629,2.6629,0,0,1,1.4453-.4023,2.617,2.617,0,0,1,1.4219.3955A2.7493,2.7493,0,0,1,189,51.6186a3.15,3.15,0,0,1,.3536,1.4824A3.1116,3.1116,0,0,1,189,54.5532a2.8709,2.8709,0,0,1-.9843,1.0976,2.5275,2.5275,0,0,1-1.4219.4141A2.6053,2.6053,0,0,1,185.1546,55.6567Zm2.7364-1.1279a2.2126,2.2126,0,0,0,.4677-1.44,2.1357,2.1357,0,0,0-.4677-1.4277,1.6117,1.6117,0,0,0-1.2969-.5518,1.638,1.638,0,0,0-1.3262.5645,2.18,2.18,0,0,0-.4726,1.4512,2.1057,2.1057,0,0,0,.48,1.416,1.64,1.64,0,0,0,1.3193.5644A1.58,1.58,0,0,0,187.891,54.5288Z"/><path class="a" d="M190.4466,50.2924h.9952v.96a1.9423,1.9423,0,0,1,.5947-.7432,1.9061,1.9061,0,0,1,1.2422-.36,1.7589,1.7589,0,0,1,1.4814.6777,2.8034,2.8034,0,0,1,.5225,1.7578v3.3487h-.9961V52.8247a2.1416,2.1416,0,0,0-.33-1.23,1.1158,1.1158,0,0,0-.9893-.4864,1.3317,1.3317,0,0,0-1.1289.5225,2.2575,2.2575,0,0,0-.3964,1.3975v2.9043h-.9952Z"/><path class="a" d="M135.855,55.4138a2.9761,2.9761,0,0,1,1.55-5.2864,2.7961,2.7961,0,0,1,2.1691.6335,3.075,3.075,0,0,1,.4566,4.1989,2.7963,2.7963,0,0,1-1.9822,1.0849A2.8721,2.8721,0,0,1,135.855,55.4138Z"/><path class="b" d="M32.1469,20.5771q.5961.4179,1.2379.8433"/><path class="c" d="M36.0472,23.0776a53.64,53.64,0,0,0,15.1,6c6.9813,1.5979,20.4465,4.6795,29.6666-1.5,1.8276-1.2248,4.9815-3.8142,9.5-3.8332a12.531,12.531,0,0,1,3.8553.6049"/><path class="b" d="M95.6392,24.9072c.4956.2192.9442.449,1.341.67"/><path class="d" d="M104.1624,35.3271c.2943,1.6983.7184,4.4456,1,7.875.4,4.876.1406,6.6013,1,9.125a16.1462,16.1462,0,0,0,5.375,7.25c1.3255,1.0808,6.6354,5.4107,13.75,4.125a16.5874,16.5874,0,0,0,10.375-6.875"/></svg>